<?xml version="1.0" standalone="no"?>
<!DOCTYPE svg PUBLIC "-//W3C//DTD SVG 1.1//EN" "http://www.w3.org/Graphics/SVG/1.1/DTD/svg11.dtd" >
<svg xmlns="http://www.w3.org/2000/svg">
<metadata></metadata>
<defs>
<font id="peugeotregular" horiz-adv-x="1183" >
<font-face units-per-em="2048" ascent="1638" descent="-410" />
<missing-glyph horiz-adv-x="514" />
<glyph unicode="&#xfb01;" horiz-adv-x="1150" d="M55 825v148h140v110q0 104 33.5 179t92 124.5t135 73t160.5 23.5q109 0 195 -23.5t152 -54.5v-174q-61 39 -148.5 67.5t-191.5 28.5q-115 0 -188 -54t-73 -188v-112h615v-973h-168v825h-447v-825h-167v825h-140z" />
<glyph unicode="&#xfb02;" horiz-adv-x="1206" d="M55 825v148h140v108q0 106 34.5 182t93 125.5t133 72t152.5 22.5q113 0 204 -23.5t159 -60.5v-1166q0 -57 22.5 -82.5t63.5 -25.5q29 0 61.5 8t59.5 23v-158q-31 -14 -70 -20.5t-76 -6.5q-123 0 -175 72t-52 207v1050q-41 12 -88 19.5t-96 7.5q-53 0 -99.5 -12t-82.5 -40 t-56.5 -74t-20.5 -114v-114h271v-148h-271v-825h-167v825h-140z" />
<glyph horiz-adv-x="0" />
<glyph unicode="&#xd;" horiz-adv-x="514" />
<glyph unicode=" "  horiz-adv-x="514" />
<glyph unicode="&#x09;" horiz-adv-x="514" />
<glyph unicode="&#xa0;" horiz-adv-x="514" />
<glyph unicode="!" horiz-adv-x="602" d="M203 1384h196l-22 -993h-152zM205 0v193h194v-193h-194z" />
<glyph unicode="&#x22;" horiz-adv-x="874" d="M180 1384h168l-16 -516h-133zM528 1384h164l-14 -516h-135z" />
<glyph unicode="#" horiz-adv-x="1253" d="M43 375l25 135h215l69 383h-215l25 133h215l61 358h144l-66 -358h336l66 358h141l-66 -358h217l-24 -135h-217l-68 -381h215l-24 -135h-215l-68 -375h-141l69 375h-338l-67 -375h-142l70 375h-217zM424 510h336l69 383h-335z" />
<glyph unicode="$" d="M165 999q0 80 29 143.5t79 108.5t117.5 74t143.5 39v227h150v-219q98 -4 171.5 -24.5t137.5 -49.5v-161q-72 35 -157 57.5t-198 22.5q-53 0 -104 -10.5t-92 -35t-65.5 -64.5t-24.5 -99q0 -72 50 -114t126 -72.5t165 -58.5t164.5 -72t126 -111.5t50.5 -178.5 q0 -90 -28 -156.5t-76 -112.5t-111.5 -72.5t-134.5 -39.5v-245h-150v235q-98 2 -196.5 26.5t-167.5 65.5v162q76 -41 174 -70.5t208 -29.5q59 0 112.5 11t94.5 37t64.5 68t23.5 105q0 76 -50 120t-126 74.5t-165 58.5t-164.5 71t-126 110.5t-50.5 179.5z" />
<glyph unicode="%" horiz-adv-x="1822" d="M106 977q0 98 22 178t62.5 137.5t100 89t137.5 31.5q76 0 136.5 -31.5t101.5 -89t62.5 -137.5t21.5 -178t-21.5 -178t-62.5 -137.5t-101.5 -89t-136.5 -31.5q-78 0 -137.5 31.5t-100 89t-62.5 137.5t-22 178zM244 977q0 -141 43 -221t141 -80t141 80t43 221t-43 221 t-141 80t-141 -80t-43 -221zM459 0l764 1384h141l-764 -1384h-141zM1073 408q0 98 21.5 178t62.5 137t100.5 89t137.5 32q76 0 136 -32t101 -89t62.5 -137t21.5 -178t-21.5 -178t-62.5 -137.5t-101.5 -89.5t-135.5 -32q-78 0 -137.5 32t-100.5 89.5t-62.5 137t-21.5 178.5z M1210 408q0 -141 43 -221.5t142 -80.5q98 0 141 80.5t43 221.5t-43 221t-141 80t-141.5 -80t-43.5 -221z" />
<glyph unicode="&#x26;" horiz-adv-x="1380" d="M94 406q0 78 21.5 138t59.5 104t88 73t108 45q-45 14 -86 39.5t-72 60.5t-49.5 83t-18.5 110q0 92 39 158.5t105.5 109.5t154.5 64.5t185 21.5q94 0 189 -21.5t163 -56.5v-168q-61 35 -156.5 61.5t-195.5 26.5q-61 0 -115.5 -12t-93.5 -36.5t-61.5 -63.5t-22.5 -92 q0 -55 22.5 -95.5t61.5 -65t91 -36.5t112 -12h82v-158h-76q-72 0 -134.5 -15.5t-109.5 -48t-73.5 -84t-26.5 -122.5q0 -143 94 -214t260 -71q193 0 282 108.5t89 319.5h-193v152h539v-152h-178q0 -287 -141.5 -436.5t-405.5 -149.5q-129 0 -229.5 32t-169 89.5t-103.5 137 t-35 176.5z" />
<glyph unicode="'" horiz-adv-x="526" d="M180 1384h164l-14 -516h-135z" />
<glyph unicode="(" horiz-adv-x="575" d="M115 532q0 150 23.5 280t63.5 243.5t91 212t106 186.5h152q-47 -90 -98.5 -187.5t-92.5 -210t-67.5 -241.5t-26.5 -283t26.5 -282.5t67.5 -241t92.5 -211t98.5 -186.5h-152q-55 88 -106 186.5t-91 212t-63.5 242.5t-23.5 280z" />
<glyph unicode=")" horiz-adv-x="575" d="M24 -389h152q55 88 106 186.5t91 212t63.5 242.5t23.5 280q0 150 -23.5 280t-63.5 243.5t-91 212t-106 186.5h-152q47 -90 98.5 -187.5t92.5 -210t67.5 -241.5t26.5 -283t-26.5 -282.5t-67.5 -241t-92.5 -211t-98.5 -186.5z" />
<glyph unicode="*" horiz-adv-x="768" d="M74 1112l35 131l225 -90l-21 231h138l-21 -231l225 90l35 -131l-231 -55l159 -183l-106 -92l-131 209l-129 -209l-107 92l162 183z" />
<glyph unicode="+" d="M115 563v148h403v393h148v-393h403v-148h-403v-393h-148v393h-403z" />
<glyph unicode="," horiz-adv-x="534" d="M18 -272q98 59 142.5 131.5t44.5 171.5q0 72 -25 162h170q12 -41 17.5 -82t5.5 -78q0 -143 -76 -247.5t-219 -174.5z" />
<glyph unicode="-" horiz-adv-x="798" d="M150 508v160h499v-160h-499z" />
<glyph unicode="." horiz-adv-x="534" d="M168 0v193h197v-193h-197z" />
<glyph unicode="/" horiz-adv-x="714" d="M0 0l573 1384h142l-572 -1384h-143z" />
<glyph unicode="0" d="M70 690q0 170 37 304t104.5 227.5t164.5 142.5t218 49t218.5 -49t165 -142.5t104.5 -227.5t37 -304t-37 -303t-104.5 -225t-165 -141.5t-218.5 -49.5t-218 49.5t-164.5 141.5t-104.5 225t-37 303zM263 692q0 -125 20 -228.5t61 -178t103.5 -115.5t146.5 -41t146.5 41 t103.5 115.5t61.5 178t20.5 228.5t-20.5 228.5t-61.5 178.5t-103.5 115.5t-146.5 40.5t-146.5 -40.5t-103.5 -115.5t-61 -178.5t-20 -228.5z" />
<glyph unicode="1" d="M348 1227v157h440v-1384h-182v1227h-258z" />
<glyph unicode="2" d="M151 0v143l424 414q57 57 103.5 108.5t78 101.5t48 104.5t16.5 117.5q0 70 -22.5 120t-61.5 83t-91 48t-114 15q-98 0 -187 -33.5t-151 -80.5v178q72 43 157 68.5t200 25.5q92 0 176 -24.5t147.5 -74.5t100 -129t36.5 -190q0 -96 -25.5 -174t-71.5 -145.5t-108.5 -130 t-136.5 -125.5l-294 -262h651v-158h-875z" />
<glyph unicode="3" d="M172 55v172q70 -45 166 -71.5t190 -26.5q147 0 235.5 69.5t88.5 204.5q0 82 -29.5 135.5t-77 83t-106.5 41t-121 11.5q-39 0 -74.5 -3t-66.5 -7v133l430 430h-614v157h837v-141l-434 -438q86 0 167 -22.5t142.5 -70.5t99.5 -123t38 -179q0 -106 -37 -188.5t-104.5 -137.5 t-161 -84t-203.5 -29q-98 0 -192.5 21.5t-172.5 62.5z" />
<glyph unicode="4" d="M80 352v158l661 874h209v-872h162v-160h-162v-352h-174v352h-696zM266 512h510v672z" />
<glyph unicode="5" d="M176 59v164q68 -39 166 -66.5t192 -27.5q63 0 121 15.5t101 50t68.5 93t25.5 142.5q0 80 -27.5 133t-76 86t-110 46.5t-128.5 13.5q-72 0 -142.5 -13.5t-123.5 -29.5l-35 39l90 679h704v-157h-559l-49 -375q29 6 67 10t76 4q84 0 173.5 -20.5t162 -69.5t119.5 -132 t47 -208t-41 -213t-108.5 -144t-156.5 -82t-187 -26q-102 0 -196.5 23.5t-172.5 64.5z" />
<glyph unicode="6" d="M115 641q0 211 48 358.5t130 239.5t189.5 133t225.5 41q90 0 172 -14.5t148 -44.5v-166q-61 31 -143 49t-172 18q-86 0 -160 -28.5t-129.5 -90t-88 -157.5t-38.5 -234q53 53 138 94.5t208 41.5q88 0 169 -26t141.5 -79t96 -135t35.5 -195q0 -102 -32.5 -189t-94 -150.5 t-148.5 -99.5t-198 -36q-102 0 -192 39t-158 120t-107.5 208t-39.5 303zM303 565q2 -74 18.5 -151.5t52 -140t94 -103.5t144.5 -41q127 0 207 79t80 226q0 145 -76 216t-205 71q-51 0 -100 -14.5t-90 -36t-74 -50t-51 -55.5z" />
<glyph unicode="7" d="M168 1227v157h907v-145q-113 -127 -206 -259t-165 -280.5t-123 -321.5t-80 -378h-194q57 383 197.5 694.5t357.5 532.5h-694z" />
<glyph unicode="8" d="M100 377q0 150 68.5 231.5t171.5 116.5q-43 18 -80 45t-66 64.5t-45 90t-16 119.5q0 82 34.5 150t96 117t145.5 75.5t184 26.5t184.5 -26.5t146 -75.5t96 -117t34.5 -150q0 -68 -16 -120t-45 -89.5t-66 -64.5t-80 -45q102 -35 170 -117t68 -231q0 -86 -34 -161 t-98.5 -129t-155.5 -85t-204 -31q-115 0 -205.5 31t-154 85t-98.5 129t-35 161zM288 387q0 -66 26 -114t68 -79.5t97 -48t114 -16.5t114.5 16.5t97.5 48t68 80t26 113.5q0 72 -26 120t-68 77.5t-97.5 43t-114.5 13.5t-114 -13.5t-97 -43t-68 -77.5t-26 -120zM321 1028 q0 -61 22.5 -104t60.5 -71t87 -40t102 -12t102.5 12t86.5 40t59.5 71t22.5 104q0 57 -22.5 100t-59.5 72t-86.5 42t-102.5 13t-102 -13t-87 -42t-60.5 -72t-22.5 -100z" />
<glyph unicode="9" d="M99 936q0 102 32.5 189t94 150.5t148.5 99.5t198 36q102 0 192 -39t158 -120t107.5 -208t39.5 -303q0 -211 -48 -358.5t-130 -239.5t-189.5 -133t-225.5 -41q-90 0 -172 14.5t-148 44.5v166q61 -31 143 -49t172 -18q86 0 160 28.5t129.5 90t88 157.5t38.5 234 q-53 -53 -138 -94.5t-208 -41.5q-88 0 -169 26t-141.5 79t-96 135t-35.5 195zM285 948q0 -145 76 -216t205 -71q51 0 100 14.5t90 36t74 50t51 55.5q-2 74 -18.5 151.5t-52 140t-94 103.5t-144.5 41q-127 0 -207 -79t-80 -226z" />
<glyph unicode=":" horiz-adv-x="534" d="M168 0v193h197v-193h-197zM168 780v193h197v-193h-197z" />
<glyph unicode=";" horiz-adv-x="534" d="M10 -272q98 59 142.5 131.5t44.5 171.5q0 72 -25 162h170q12 -41 17.5 -82t5.5 -78q0 -143 -76 -247.5t-219 -174.5zM168 780v193h197v-193h-197z" />
<glyph unicode="&#x3c;" d="M115 563v156l954 422v-160l-772 -340l772 -340v-160z" />
<glyph unicode="=" d="M115 344v148h954v-148h-954zM115 780v148h954v-148h-954z" />
<glyph unicode="&#x3e;" d="M115 141l954 422v156l-954 422v-160l772 -340l-772 -340v-160z" />
<glyph unicode="?" horiz-adv-x="851" d="M121 1192v164q45 27 113.5 42t142.5 15q76 0 142.5 -19.5t117.5 -59.5t81 -101.5t30 -147.5q0 -63 -15.5 -113t-40 -90t-54.5 -74t-58 -63q-33 -35 -56.5 -60.5t-39 -50t-23.5 -51t-8 -63.5v-129h-162v141q0 59 11 103.5t31.5 80.5t49.5 68.5t63 69.5q43 47 85 102.5 t42 126.5q0 51 -18 85t-48 53.5t-69 26.5t-82 7q-63 0 -127.5 -18t-107.5 -45zM274 0v193h195v-193h-195z" />
<glyph unicode="@" horiz-adv-x="1593" d="M98 516q0 164 60.5 291t160 215t229.5 133t269 45q141 0 265 -41t215.5 -118.5t144.5 -190.5t53 -256q0 -90 -19.5 -167t-58.5 -132t-97 -87t-138 -32q-72 0 -126.5 26.5t-84.5 84.5q-45 -59 -99.5 -85t-119.5 -26q-57 0 -107.5 21.5t-87.5 62.5t-58.5 99.5t-21.5 134.5 q0 88 27.5 151.5t74 103t106.5 58t126 18.5q139 0 256 -63v-297q0 -88 31.5 -125t99.5 -37q72 0 124 66.5t52 222.5q0 119 -44 209t-119.5 150.5t-177 91t-216.5 30.5q-117 0 -225.5 -34.5t-190.5 -104.5t-131 -174.5t-49 -243.5q0 -162 50.5 -273.5t134 -180t192.5 -98.5 t227 -30q100 0 201.5 14.5t194.5 47.5v-125q-92 -33 -194.5 -47t-201.5 -14q-141 0 -273 38.5t-232.5 123.5t-161 219.5t-60.5 324.5zM608 496q0 -94 43 -143.5t117 -49.5q63 0 106.5 40t63.5 93v238q-29 14 -62.5 19t-68.5 5q-39 0 -75 -10t-63.5 -33.5t-44 -62.5 t-16.5 -96z" />
<glyph unicode="A" horiz-adv-x="1269" d="M-6 0l557 1384h174l551 -1384h-197l-135 340h-637l-135 -340h-178zM365 496h522l-260 661z" />
<glyph unicode="B" horiz-adv-x="1273" d="M221 0v1384h397q260 0 386 -98t126 -264q0 -70 -22.5 -123t-57 -91t-78.5 -61.5t-87 -35.5q51 -10 101 -34t90 -63t64.5 -94t24.5 -129q0 -186 -144 -288.5t-403 -102.5h-397zM403 158h213q162 0 259.5 55t97.5 178q0 113 -92.5 174.5t-264.5 61.5h-213v-469zM403 780 h203q154 0 244 54.5t90 175.5q0 119 -83 168t-241 49h-213v-447z" />
<glyph unicode="C" horiz-adv-x="1304" d="M117 692q0 160 49 293t139 228.5t220 147.5t294 52q109 0 199 -18.5t156 -53.5v-161q-66 35 -155 55t-190 20q-121 0 -217 -38.5t-163.5 -111.5t-104.5 -177.5t-37 -235.5t37 -235.5t105.5 -177t165 -111.5t214.5 -39q100 0 191.5 23.5t167.5 64.5v-164 q-74 -37 -161 -59.5t-204 -22.5q-164 0 -294 52.5t-222 147.5t-141 228t-49 293z" />
<glyph unicode="D" horiz-adv-x="1531" d="M221 0v1384h428q186 0 328.5 -47t240 -136t147.5 -217t50 -292q0 -330 -195.5 -511t-570.5 -181h-428zM403 158h246q133 0 239.5 31.5t181.5 97t115 166t40 239.5q0 137 -40 238.5t-115 167t-181.5 97.5t-239.5 32h-246v-1069z" />
<glyph unicode="E" horiz-adv-x="1189" d="M203 336v1048h829v-157h-645v-434h588v-158h-588v-299q0 -92 41 -135t135 -43h500v-158h-524q-180 0 -258 86t-78 250z" />
<glyph unicode="F" horiz-adv-x="1159" d="M221 0v1384h817v-157h-635v-459h578v-158h-578v-610h-182z" />
<glyph unicode="G" horiz-adv-x="1628" d="M117 692q0 193 64.5 330t172 224t245.5 127t284 40q141 0 272 -32.5t242 -92.5v-166q-98 55 -232.5 94t-279.5 39q-111 0 -215.5 -29.5t-185.5 -95t-129 -174t-48 -264.5q0 -137 40 -241.5t110.5 -176t169 -108.5t215.5 -37q133 0 236.5 27.5t181.5 70.5v369h-435v154 h607v-609q-35 -23 -92.5 -52.5t-133.5 -55t-169 -44t-199 -18.5q-158 0 -290 48.5t-228.5 140.5t-149.5 226t-53 306z" />
<glyph unicode="H" horiz-adv-x="1605" d="M221 0v1384h182v-589h797v589h184v-1384h-184v637h-797v-637h-182z" />
<glyph unicode="I" horiz-adv-x="624" d="M221 0v1384h182v-1384h-182z" />
<glyph unicode="J" horiz-adv-x="796" d="M41 12v162q39 -20 89 -34.5t103 -14.5q98 0 138.5 54t40.5 171v1034h182v-1030q0 -197 -90 -290t-254 -93q-115 0 -209 41z" />
<glyph unicode="K" horiz-adv-x="1273" d="M221 0v1384h182v-612l633 612h217l-678 -661l699 -723h-240l-631 645v-645h-182z" />
<glyph unicode="L" horiz-adv-x="1058" d="M205 336v1048h184v-1048q0 -92 40 -135t136 -43h455v-158h-481q-180 0 -257 87t-77 249z" />
<glyph unicode="M" horiz-adv-x="1921" d="M221 0v1384h191l549 -929l548 929h191v-1384h-180v1081l-476 -813h-167l-478 813v-1081h-178z" />
<glyph unicode="N" horiz-adv-x="1591" d="M221 0v1384h164l811 -1093v1093h174v-1384h-162l-811 1092v-1092h-176z" />
<glyph unicode="O" horiz-adv-x="1667" d="M117 692q0 166 52 299t146.5 226.5t226.5 144.5t292 51t291.5 -51t226 -144.5t146.5 -226.5t52 -299t-52 -299t-146.5 -226t-226.5 -144.5t-291 -51.5q-160 0 -292 51.5t-226.5 144.5t-146.5 226t-52 299zM307 692q0 -129 36 -232.5t103.5 -177t166 -113.5t221.5 -40 t221 40t165.5 113.5t103.5 177t36 232.5t-36 232.5t-103.5 177.5t-166 113.5t-220.5 39.5q-123 0 -221.5 -39.5t-166 -113.5t-103.5 -177.5t-36 -232.5z" />
<glyph unicode="P" horiz-adv-x="1298" d="M221 0v1384h428q252 0 391.5 -112.5t139.5 -321.5q0 -215 -140.5 -324.5t-390.5 -109.5h-246v-516h-182zM403 674h246q154 0 247 65.5t93 210.5t-93 211t-247 66h-246v-553z" />
<glyph unicode="Q" horiz-adv-x="1667" d="M117 692q0 166 52 299t146.5 226.5t226.5 144.5t292 51t291.5 -51t226 -144.5t146.5 -226.5t52 -299q0 -268 -128 -445t-349 -243l273 -326h-226l-221 295q-16 -2 -32.5 -2h-32.5q-160 0 -292 51.5t-226.5 144.5t-146.5 226t-52 299zM307 692q0 -129 36 -232.5 t103.5 -177t166 -113.5t221.5 -40t221 40t165.5 113.5t103.5 177t36 232.5t-36 232.5t-103.5 177.5t-166 113.5t-220.5 39.5q-123 0 -221.5 -39.5t-166 -113.5t-103.5 -177.5t-36 -232.5z" />
<glyph unicode="R" horiz-adv-x="1284" d="M221 0v1384h428q252 0 391.5 -112.5t139.5 -321.5q0 -168 -92.5 -270t-260.5 -133l398 -547h-209l-373 516h-240v-516h-182zM403 674h246q154 0 247 65.5t93 210.5t-93 211t-247 66h-246v-553z" />
<glyph unicode="S" horiz-adv-x="1140" d="M139 1018q0 98 39 173t104.5 124t152.5 73.5t186 24.5q117 0 204.5 -21.5t155.5 -56.5v-166q-72 39 -159 62.5t-201 23.5q-55 0 -107.5 -12t-94.5 -38.5t-66.5 -69.5t-24.5 -107q0 -80 51 -125t129 -76.5t168 -58.5t168 -72t129 -116.5t51 -192.5q0 -115 -41 -193.5 t-109.5 -128t-155.5 -72t-179 -22.5q-111 0 -216.5 28t-179.5 73v161q78 -43 178.5 -73.5t210.5 -30.5q59 0 114.5 12.5t97.5 41t68 74.5t26 114q0 84 -52.5 131t-129 78.5t-168 58.5t-168 71t-129 115.5t-52.5 192.5z" />
<glyph unicode="T" horiz-adv-x="1196" d="M39 1227v157h1118v-157h-467v-1227h-184v1227h-467z" />
<glyph unicode="U" horiz-adv-x="1427" d="M186 485v899h183v-895q0 -94 26.5 -162.5t72.5 -112.5t109.5 -64.5t137.5 -20.5t138.5 20.5t110.5 64.5t72.5 112.5t26.5 162.5v895h178v-899q0 -129 -42 -225t-113.5 -160.5t-167 -96.5t-203.5 -32q-109 0 -205 32t-168 96.5t-114 160.5t-42 225z" />
<glyph unicode="V" horiz-adv-x="1280" d="M0 1384h193l454 -1159l453 1159h180l-561 -1384h-170z" />
<glyph unicode="W" horiz-adv-x="2007" d="M16 1384h189l330 -1161l385 1161h167l386 -1161l329 1161h189l-406 -1384h-196l-385 1155l-386 -1155h-196z" />
<glyph unicode="X" horiz-adv-x="1259" d="M16 0l510 698l-493 686h215l385 -534l389 534h205l-494 -677l508 -707h-215l-399 557l-404 -557h-207z" />
<glyph unicode="Y" horiz-adv-x="1191" d="M0 1384h201l403 -663l404 663h184l-508 -829v-555h-180v555z" />
<glyph unicode="Z" horiz-adv-x="1239" d="M98 0v135l822 1092h-807v157h1026v-145l-815 -1081h833v-158h-1059z" />
<glyph unicode="[" horiz-adv-x="641" d="M223 -389v1843h373v-151h-223v-1539h223v-153h-373z" />
<glyph unicode="\" horiz-adv-x="714" d="M0 1384l572 -1384h143l-573 1384h-142z" />
<glyph unicode="]" horiz-adv-x="641" d="M45 -236v-153h373v1843h-373v-151h223v-1539h-223z" />
<glyph unicode="^" d="M109 504l421 880h123l422 -880h-153l-330 694l-332 -694h-151z" />
<glyph unicode="_" horiz-adv-x="1189" d="M41 -29h1110v-137h-1110v137z" />
<glyph unicode="`" horiz-adv-x="1044" d="M322 1454h192l164 -309h-135z" />
<glyph unicode="a" horiz-adv-x="1155" d="M98 479q0 131 41 229.5t110.5 164t164 97t202.5 31.5q49 0 101.5 -7t101.5 -17t91 -24.5t71 -28.5v-924h-139l-13 106q-59 -59 -130.5 -97t-176.5 -38q-84 0 -160.5 32t-135 94.5t-93.5 157.5t-35 224zM272 487q0 -188 79 -275t200 -87q76 0 144.5 34t119.5 95v559 q-94 35 -197 35q-68 0 -131 -19.5t-110 -62.5t-76 -111.5t-29 -167.5z" />
<glyph unicode="b" horiz-adv-x="1153" d="M170 57v1397h168v-551q47 33 119.5 65.5t173.5 32.5q84 0 159.5 -31.5t134 -94t93.5 -157.5t35 -224q0 -133 -41 -230.5t-111 -163t-164 -97.5t-200 -32q-49 0 -101.5 7.5t-101.5 19.5t-91 27.5t-73 31.5zM338 160q94 -35 197 -35q68 0 130 19.5t110 62.5t77 111.5 t29 166.5q0 94 -21.5 162t-58.5 113t-88 66.5t-111 21.5q-74 0 -146.5 -33t-117.5 -74v-581z" />
<glyph unicode="c" horiz-adv-x="993" d="M98 487q0 117 36 211.5t101.5 162t159.5 104t211 36.5q150 0 258 -51v-162q-113 59 -248 60q-154 0 -249 -88t-95 -273q0 -184 95.5 -273t246.5 -89q78 0 143.5 21.5t119.5 56.5v-164q-53 -31 -124 -49.5t-159 -18.5q-115 0 -206 38t-155.5 106.5t-99.5 164t-35 207.5z " />
<glyph unicode="d" horiz-adv-x="1155" d="M98 479q0 131 41 229.5t110.5 164t164 97t202.5 31.5q55 0 103.5 -7t93.5 -19v479h168v-1454h-139l-13 106q-59 -59 -130.5 -97t-176.5 -38q-84 0 -160.5 32t-135 94.5t-93.5 157.5t-35 224zM272 487q0 -188 79 -275t200 -87q76 0 144.5 34t119.5 95v561q-90 33 -197 33 q-68 0 -131 -19.5t-110 -62.5t-76 -111.5t-29 -167.5z" />
<glyph unicode="e" horiz-adv-x="1107" d="M98 487q0 117 34 212.5t96.5 163t148.5 103t190 35.5q117 0 201 -39.5t138.5 -104t81 -147.5t26.5 -169v-115h-740q8 -84 40 -141.5t80 -93t109.5 -51t129.5 -15.5q94 0 186 23.5t164 64.5v-158q-74 -41 -170 -62.5t-192 -21.5q-102 0 -197.5 29t-167.5 90.5t-115 159.5 t-43 237zM276 573h566q-2 121 -75 198t-202 77q-254 0 -289 -275z" />
<glyph unicode="f" horiz-adv-x="651" d="M55 825v148h140v160q0 90 26.5 156.5t71.5 109.5t104.5 63.5t124.5 20.5q70 0 129 -21v-157q-29 12 -57.5 17t-56.5 5q-74 0 -124.5 -44t-50.5 -148v-162h271v-148h-271v-825h-167v825h-140z" />
<glyph unicode="g" horiz-adv-x="1155" d="M98 479q0 131 41 229.5t110.5 164t164 97t202.5 31.5q49 0 101.5 -7t101.5 -17t91 -24.5t71 -28.5v-908q0 -111 -37 -191.5t-100.5 -135t-148.5 -81t-181 -26.5q-119 0 -206 28t-144 60v170q57 -39 147 -72.5t199 -33.5q63 0 118.5 15t96.5 49t65.5 87.5t24.5 130.5v84 q-59 -55 -126.5 -85.5t-166.5 -30.5q-84 0 -160.5 29.5t-135 90t-93.5 153.5t-35 222zM272 487q0 -94 20.5 -160.5t57.5 -108.5t88 -61.5t113 -19.5q76 0 144.5 34t119.5 95v547q-94 35 -197 35q-68 0 -131 -19.5t-110 -62.5t-76 -111.5t-29 -167.5z" />
<glyph unicode="h" horiz-adv-x="1175" d="M174 0v1454h168v-565q61 49 139 80.5t172 31.5q76 0 141.5 -23.5t114.5 -70.5t77 -116.5t28 -163.5v-627h-168v614q0 119 -60.5 173.5t-169.5 54.5q-78 0 -148.5 -30t-125.5 -77v-735h-168z" />
<glyph unicode="i" horiz-adv-x="516" d="M174 0v973h168v-973h-168zM174 1194v203h168v-203h-168z" />
<glyph unicode="j" horiz-adv-x="516" d="M-29 -231q25 -12 53.5 -21.5t57.5 -9.5q41 0 66.5 22.5t25.5 81.5v1131h168v-1112q0 -129 -54.5 -204t-174.5 -75q-74 0 -142 31v156zM174 1194v203h168v-203h-168z" />
<glyph unicode="k" horiz-adv-x="1028" d="M174 0v1454h168v-868l451 387h221l-512 -438l522 -535h-223l-459 463v-463h-168z" />
<glyph unicode="l" horiz-adv-x="565" d="M158 250v1204h168v-1221q0 -108 84 -108h2q29 0 61.5 8t56.5 23v-158q-29 -14 -68.5 -20.5t-74.5 -6.5q-123 0 -176 72t-53 207z" />
<glyph unicode="m" horiz-adv-x="1798" d="M174 0v973h152l10 -88q53 47 127 81.5t170 34.5q102 0 179 -40.5t124 -114.5q72 68 153.5 111.5t198.5 43.5q72 0 135.5 -23.5t110.5 -70.5t74.5 -115.5t27.5 -158.5v-633h-168v616q0 113 -57 169.5t-158 56.5q-84 0 -151.5 -34t-120.5 -81q4 -18 6 -45t2 -49v-633h-168 v616q0 117 -59.5 171.5t-157.5 54.5q-74 0 -140.5 -30t-121.5 -77v-735h-168z" />
<glyph unicode="n" horiz-adv-x="1175" d="M174 0v973h152l10 -88q63 51 142 83.5t175 32.5q76 0 141.5 -23.5t114.5 -70.5t77 -116.5t28 -163.5v-627h-168v614q0 119 -60.5 173.5t-169.5 54.5q-78 0 -148.5 -30t-125.5 -77v-735h-168z" />
<glyph unicode="o" horiz-adv-x="1200" d="M98 485q0 119 37 214.5t103.5 163t158.5 103t203 35.5t204 -35.5t158.5 -103t102.5 -163t37 -214.5t-37 -214t-102.5 -161.5t-158.5 -102.5t-204 -36t-203 36t-158.5 102.5t-103.5 162t-37 213.5zM272 485q0 -174 90.5 -267t237.5 -93t238.5 93t91.5 267t-91 268.5 t-239 94.5q-147 0 -237.5 -94.5t-90.5 -268.5z" />
<glyph unicode="p" horiz-adv-x="1155" d="M174 -389v1362h152l10 -88q41 39 113.5 77.5t185.5 38.5q82 0 157.5 -30.5t134 -93t94.5 -158.5t36 -227q0 -129 -38 -226.5t-103.5 -163t-152.5 -98.5t-188 -33q-57 0 -118.5 9.5t-114.5 37.5v-407h-168zM342 176q53 -29 109.5 -40t111.5 -11q66 0 124 21.5t102.5 65.5 t70 113.5t25.5 166.5q0 92 -21.5 159.5t-60.5 111.5t-90 64.5t-111 20.5q-78 0 -148.5 -35t-111.5 -72v-565z" />
<glyph unicode="q" horiz-adv-x="1155" d="M98 479q0 131 41 229.5t110.5 164t164 97t202.5 31.5q49 0 101.5 -7t101.5 -17t91 -24.5t71 -28.5v-1313h-168v475q-57 -53 -124.5 -84t-166.5 -31q-84 0 -160.5 32t-135 94.5t-93.5 157.5t-35 224zM272 487q0 -188 79 -275t200 -87q76 0 144.5 34t119.5 95v559 q-94 35 -197 35q-68 0 -131 -19.5t-110 -62.5t-76 -111.5t-29 -167.5z" />
<glyph unicode="r" horiz-adv-x="737" d="M174 0v973h152l10 -146q31 33 70.5 64t85 55.5t96.5 39.5t104 15v-176q-86 0 -181 -40t-169 -111v-674h-168z" />
<glyph unicode="s" horiz-adv-x="944" d="M111 698q0 78 31.5 135.5t87 94.5t129 55t157.5 18t173 -17t145 -46v-158q-59 31 -146.5 49.5t-171.5 18.5q-43 0 -86 -6t-77 -21.5t-55.5 -42t-21.5 -65.5q0 -53 44.5 -81t109 -44.5t141 -31.5t141 -45t108.5 -85t44 -152q0 -80 -30.5 -137t-85 -94t-126 -54.5 t-153.5 -17.5q-102 0 -191.5 24.5t-158.5 65.5v162q72 -47 161 -72.5t187 -25.5q47 0 89 7t72.5 23.5t49 43t18.5 67.5q0 57 -43 85t-108.5 45.5t-141 31.5t-141 44t-108.5 82t-43 144z" />
<glyph unicode="t" horiz-adv-x="712" d="M43 825v148h139l25 309h143v-309h291v-148h-291v-542q0 -90 37 -124t98 -34q41 0 86 14.5t84 36.5v-160q-80 -45 -198 -45q-129 0 -202 76t-73 234v544h-139z" />
<glyph unicode="u" horiz-adv-x="1142" d="M156 356v617h170v-611q0 -123 57 -178t156 -55q80 0 144.5 35t115.5 94v715h170v-973h-144l-10 106q-59 -57 -132 -96t-175 -39q-78 0 -142.5 23.5t-110.5 72t-72.5 121t-26.5 168.5z" />
<glyph unicode="v" horiz-adv-x="976" d="M10 973h180l302 -774l303 774h172l-404 -973h-166z" />
<glyph unicode="w" horiz-adv-x="1595" d="M20 973h173l239 -772l279 772h174l278 -772l238 772h172l-316 -973h-172l-288 780l-289 -780h-170z" />
<glyph unicode="x" horiz-adv-x="946" d="M16 0l357 489l-348 484h200l252 -355l258 355h187l-349 -481l357 -492h-203l-260 360l-262 -360h-189z" />
<glyph unicode="y" horiz-adv-x="1142" d="M156 367v606h170v-600q0 -123 57 -178.5t156 -55.5q80 0 144.5 35t115.5 94v705h170v-953q0 -111 -34 -192.5t-92.5 -135.5t-138 -81t-172.5 -27q-109 0 -187.5 20.5t-141.5 53.5v168q55 -35 136 -63.5t181 -28.5q57 0 108.5 15t89.5 49t59.5 87.5t21.5 130.5v84 q-55 -51 -126 -84.5t-165 -33.5q-78 0 -142.5 23.5t-110.5 71.5t-72.5 120.5t-26.5 169.5z" />
<glyph unicode="z" horiz-adv-x="946" d="M94 0v117l539 710h-529v146h748v-119l-537 -709h549v-145h-770z" />
<glyph unicode="{" horiz-adv-x="669" d="M41 463v155q61 14 102 30t68 45.5t38 75.5t11 122v223q0 76 16.5 138.5t55.5 107.5t100.5 69.5t153.5 24.5h47v-151h-49q-90 0 -130 -49.5t-40 -135.5v-229q0 -160 -53.5 -242t-163.5 -108q111 -27 164 -109t53 -242v-241q0 -86 40 -134.5t130 -48.5h49v-153h-47 q-92 0 -153.5 24.5t-100.5 69.5t-55.5 107.5t-16.5 138.5v235q0 76 -11 122t-38 76t-68 46t-102 33z" />
<glyph unicode="|" horiz-adv-x="567" d="M217 -389v2027h133v-2027h-133z" />
<glyph unicode="}" horiz-adv-x="669" d="M37 -236v-153h47q92 0 153.5 24.5t100.5 69.5t55.5 107.5t16.5 138.5v235q0 76 11 122t38 76t68 46t102 33v155q-61 14 -102 30t-68 45.5t-38 75.5t-11 122v223q0 76 -16.5 138.5t-55.5 107.5t-100.5 69.5t-153.5 24.5h-47v-151h49q90 0 130 -49.5t40 -135.5v-229 q0 -160 53.5 -242t163.5 -108q-111 -27 -164 -109t-53 -242v-241q0 -86 -40 -134.5t-130 -48.5h-49z" />
<glyph unicode="~" d="M104 494q0 125 59.5 204.5t168.5 79.5q57 0 127.5 -21.5t142.5 -48t137.5 -48t112.5 -21.5q49 0 72.5 35t23.5 100h131q0 -123 -59 -202.5t-168 -79.5q-55 0 -126 21.5t-142.5 48t-138 48t-113.5 21.5q-96 0 -96 -137h-132z" />
<glyph unicode="&#xa1;" horiz-adv-x="602" d="M201 -389l24 971h152l22 -971h-198zM203 780v193h194v-193h-194z" />
<glyph unicode="&#xa2;" d="M174 690q0 113 27.5 209t80 172t127 126t171.5 69v325h149v-309q78 -4 152.5 -22.5t121.5 -45.5v-165q-139 70 -282 69q-74 0 -141.5 -22.5t-117.5 -73.5t-81 -133t-31 -199q0 -119 30 -200.5t80 -134t117.5 -76t141.5 -23.5t149.5 20.5t147.5 57.5v-164 q-47 -29 -125 -49.5t-162 -24.5v-321h-149v331q-96 20 -171 71.5t-127.5 128.5t-80 174.5t-27.5 209.5z" />
<glyph unicode="&#xa3;" d="M170 639v131h180q-20 63 -31.5 119.5t-11.5 130.5q0 88 31.5 159.5t90 124t138.5 81t178 28.5q178 0 312 -70v-165q-49 29 -128 53t-178 24q-123 0 -196.5 -56t-73.5 -175q0 -72 11.5 -127t35.5 -127h432v-131h-389q10 -37 17.5 -85t7.5 -85q0 -113 -40 -182.5 t-128 -128.5h651v-158h-879v135q59 35 101.5 69t69 70.5t39 80.5t12.5 100q0 41 -8.5 90t-22.5 94h-221z" />
<glyph unicode="&#xa4;" d="M127 258l170 199q-35 51 -48 111t-13 126t13 126.5t48 111.5l-170 198l102 105l164 -195q41 41 91.5 58.5t107.5 17.5t107.5 -17.5t91.5 -58.5l163 195l103 -105l-170 -198q35 -51 48 -111.5t13 -126.5t-13 -126t-48 -111l170 -199l-103 -104l-163 194 q-41 -41 -91.5 -58.5t-107.5 -17.5t-107.5 17.5t-91.5 58.5l-164 -194zM395 694q0 -53 13.5 -101t39 -84t61.5 -56.5t83 -20.5q45 0 82 20.5t62.5 56.5t38.5 84t13 101t-13 101.5t-38.5 84t-62.5 56t-82 20.5q-47 0 -83 -20.5t-61.5 -56t-39 -83.5t-13.5 -102z" />
<glyph unicode="&#xa5;" d="M59 1384h197l344 -598l354 598h174l-415 -686h297v-112h-330v-211h330v-113h-330v-262h-184v262h-330v113h330v211h-330v112h297z" />
<glyph unicode="&#xa6;" horiz-adv-x="567" d="M217 -389v840h133v-840h-133zM217 799v839h133v-839h-133z" />
<glyph unicode="&#xa7;" horiz-adv-x="1128" d="M133 584q0 70 22.5 126t59.5 99q-35 39 -54.5 92t-19.5 129q0 98 38 171t103.5 120t151.5 69.5t182 22.5q92 0 187.5 -20.5t157.5 -55.5v-168q-61 37 -152.5 61.5t-196.5 24.5q-53 0 -106 -11t-94 -36.5t-67 -66.5t-26 -101q0 -80 51.5 -121.5t129.5 -68.5t167 -48.5 t166.5 -62.5t129 -111.5t51.5 -193.5q0 -70 -21.5 -126t-58.5 -103q70 -80 70 -217q0 -94 -34 -169t-95.5 -127t-147.5 -81t-192 -29q-121 0 -216.5 25.5t-173.5 70.5v177q74 -43 176.5 -79t215.5 -36q131 0 209.5 58.5t78.5 170.5q0 86 -51 132t-128 73t-167 48.5 t-166.5 60.5t-128 108.5t-51.5 192.5zM293 594q0 -84 53 -127t133 -68.5t171 -48t167 -63.5q31 51 31 129q0 59 -24.5 98t-64.5 65.5t-93.5 43t-110.5 31t-115.5 30.5t-107.5 43q-39 -49 -39 -133z" />
<glyph unicode="&#xa8;" horiz-adv-x="1044" d="M266 1206v197h156v-197h-156zM623 1206v197h155v-197h-155z" />
<glyph unicode="&#xa9;" horiz-adv-x="1685" d="M131 692q0 160 51 292t145.5 227.5t225.5 148.5t289 53q160 0 291 -53t224 -148.5t145 -227.5t52 -292t-52 -293t-145 -228t-224.5 -147.5t-290.5 -52.5q-158 0 -289 52.5t-225.5 147.5t-145.5 228t-51 293zM231 692q0 -139 45.5 -251.5t126 -193.5t193.5 -125t248 -44 t246.5 44t192.5 125t126 193.5t45 251.5q0 137 -45 251t-126 195t-192.5 125t-246.5 44t-248 -44t-193.5 -125t-126 -195t-45.5 -251zM479 692q0 104 32 180t87 126.5t129 75t156 24.5q59 0 123.5 -13.5t111.5 -37.5v-140q-45 29 -102.5 43.5t-116.5 14.5q-129 0 -199.5 -69 t-70.5 -204q0 -133 70.5 -201.5t199.5 -68.5q57 0 115.5 16.5t111.5 48.5v-141q-49 -29 -110.5 -44t-122.5 -15q-197 0 -305.5 107.5t-108.5 297.5z" />
<glyph unicode="&#xaa;" horiz-adv-x="841" d="M119 1087q0 82 26.5 143.5t70.5 101.5t103.5 60.5t126.5 20.5q70 0 129.5 -12t114.5 -33v-580h-121l-4 54q-35 -27 -75.5 -46.5t-100.5 -19.5q-55 0 -104 19.5t-86 57.5t-58.5 96.5t-21.5 137.5zM260 1090q0 -104 44 -146.5t108 -42.5q39 0 76.5 16.5t64.5 45.5v313 q-27 10 -54.5 13t-54.5 3q-74 0 -129 -46t-55 -156z" />
<glyph unicode="&#xab;" horiz-adv-x="1050" d="M68 508l307 407h160l-283 -407l283 -408h-160zM517 508l307 407h160l-283 -407l283 -408h-160z" />
<glyph unicode="&#xac;" d="M115 780v148h954v-582h-147v434h-807z" />
<glyph unicode="&#xad;" horiz-adv-x="798" d="M150 508v160h499v-160h-499z" />
<glyph unicode="&#xae;" horiz-adv-x="1114" d="M129 977q0 94 32 175t88 138.5t135 90t171 32.5t171 -32.5t135.5 -90t88 -138.5t31.5 -175q0 -96 -31.5 -176t-88 -137.5t-135.5 -90t-171 -32.5t-171 32.5t-135 90t-88 137.5t-32 176zM207 977q0 -80 26.5 -145.5t72.5 -112.5t109.5 -72.5t139.5 -25.5t140.5 25.5 t110.5 72.5t71.5 112.5t25.5 145.5t-25.5 145.5t-71.5 112.5t-110.5 72.5t-140.5 25.5t-139.5 -25.5t-109.5 -72.5t-72.5 -112.5t-26.5 -145.5zM395 760v440h187q78 0 125 -33.5t47 -99.5q0 -104 -111 -129l125 -178h-121l-106 164h-43v-164h-103zM498 1004h71q76 0 76 59 t-76 59h-71v-118z" />
<glyph unicode="&#xaf;" horiz-adv-x="1044" d="M262 1235v129h520v-129h-520z" />
<glyph unicode="&#xb0;" horiz-adv-x="667" d="M98 1147q0 57 17.5 105t48.5 84t74 56.5t96 20.5q51 0 95 -20.5t75 -56.5t48 -84t17 -105t-17 -105.5t-48 -84t-75 -56t-95 -20.5q-53 0 -96 20.5t-74 56t-48.5 84t-17.5 105.5zM203 1147q0 -72 36 -118t95 -46t95 46t36 118t-36 118t-95 46t-95 -46t-36 -118z" />
<glyph unicode="&#xb1;" d="M115 0v147h954v-147h-954zM115 606v150h403v377h148v-377h403v-150h-403v-379h-148v379h-403z" />
<glyph unicode="&#xb2;" horiz-adv-x="821" d="M115 541v102l260 270q55 59 94 112.5t39 121.5t-41 103.5t-113 35.5q-51 0 -108.5 -17.5t-108.5 -51.5v135q47 29 111.5 45t124.5 16q123 0 206 -64.5t83 -193.5q0 -102 -50.5 -174t-119.5 -137l-185 -178h365v-125h-557z" />
<glyph unicode="&#xb3;" horiz-adv-x="817" d="M131 575v132q45 -27 107.5 -47.5t123.5 -20.5q82 0 130.5 36t48.5 111q0 41 -14.5 69t-40 44t-59.5 23.5t-73 7.5q-20 0 -45.5 -1t-42.5 -5v100l242 244h-375v116h545v-104l-244 -246q49 -4 96.5 -18.5t82 -44t56 -73.5t21.5 -107q0 -129 -87 -202t-228 -73 q-68 0 -132.5 15.5t-111.5 43.5z" />
<glyph unicode="&#xb4;" horiz-adv-x="1044" d="M352 1145l164 309h193l-222 -309h-135z" />
<glyph unicode="&#xb5;" horiz-adv-x="1159" d="M174 -389v1362h168v-545q0 -137 52 -220t167 -83q78 0 144.5 42t111.5 93v713h168v-973h-139l-10 117q-43 -57 -118 -101.5t-163 -44.5q-70 0 -124 21.5t-89 75.5v-457h-168z" />
<glyph unicode="&#xb6;" horiz-adv-x="1433" d="M106 938q0 223 135.5 334.5t379.5 111.5h241v-1773h-137v881h-104q-244 0 -379.5 111.5t-135.5 334.5zM1079 -389v1773h133v-1773h-133z" />
<glyph unicode="&#xb7;" horiz-adv-x="542" d="M172 489v193h197v-193h-197z" />
<glyph unicode="&#xb8;" horiz-adv-x="1044" d="M365 -293q18 -10 49.5 -19.5t66.5 -9.5t59.5 13.5t24.5 48.5q0 41 -27.5 51t-66.5 10h-72l60 199h106l-26 -106q76 -6 118.5 -47.5t42.5 -116.5q0 -72 -55 -118t-156 -46q-33 0 -66.5 7t-57.5 19v115z" />
<glyph unicode="&#xb9;" horiz-adv-x="641" d="M90 1266v118h344v-843h-137v725h-207z" />
<glyph unicode="&#xba;" horiz-adv-x="841" d="M102 1098q0 145 88.5 230t225.5 85t225 -85t88 -230q0 -74 -23.5 -132.5t-64.5 -99.5t-99.5 -63.5t-125.5 -22.5q-68 0 -126.5 22.5t-99 63.5t-64.5 99.5t-24 132.5zM242 1098q0 -96 47 -147.5t127 -51.5t127 51.5t47 147.5q0 94 -47 145t-127 51t-127 -51t-47 -145z" />
<glyph unicode="&#xbb;" horiz-adv-x="1050" d="M67 100h160l307 408l-307 407h-160l283 -407zM516 100h160l307 408l-307 407h-160l283 -407z" />
<glyph unicode="&#xbc;" horiz-adv-x="1615" d="M90 1266v118h344v-843h-137v725h-207zM293 0l760 1384h135l-760 -1384h-135zM844 195v106l397 559h148v-547h114v-118h-114v-195h-136v195h-409zM993 313h260v369z" />
<glyph unicode="&#xbd;" horiz-adv-x="1699" d="M90 1266v118h344v-843h-137v725h-207zM293 0l760 1384h135l-760 -1384h-135zM992 2v102l260 270q55 59 94 112.5t39 121.5t-41 103.5t-113 35.5q-51 0 -108.5 -17.5t-108.5 -51.5v135q47 29 111.5 45t124.5 16q123 0 206 -64.5t83 -193.5q0 -102 -50.5 -174t-119.5 -137 l-185 -178h365v-125h-557z" />
<glyph unicode="&#xbe;" horiz-adv-x="1769" d="M131 575v132q45 -27 107.5 -47.5t123.5 -20.5q82 0 130.5 36t48.5 111q0 41 -14.5 69t-40 44t-59.5 23.5t-73 7.5q-20 0 -45.5 -1t-42.5 -5v100l242 244h-375v116h545v-104l-244 -246q49 -4 96.5 -18.5t82 -44t56 -73.5t21.5 -107q0 -129 -87 -202t-228 -73 q-68 0 -132.5 15.5t-111.5 43.5zM410 0l759 1384h136l-760 -1384h-135zM997 195v106l398 559h147v-547h115v-118h-115v-195h-135v195h-410zM1147 313h260v369z" />
<glyph unicode="&#xbf;" horiz-adv-x="675" d="M8 -92q0 63 16.5 113.5t41 90.5t54.5 73.5t58 62.5q33 33 56.5 59.5t39 51t23.5 51t8 63.5v109h162v-121q0 -59 -11.5 -103.5t-32 -80t-49 -68.5t-63.5 -70q-43 -47 -85 -102t-42 -127q0 -51 18.5 -85t48.5 -53.5t68.5 -26.5t79.5 -7q63 0 129 18.5t107 44.5v-163 q-45 -27 -112.5 -42.5t-143.5 -15.5q-74 0 -141.5 19.5t-118.5 59.5t-81 101.5t-30 147.5zM289 780v193h194v-193h-194z" />
<glyph unicode="&#xc0;" horiz-adv-x="1269" d="M-6 0l557 1384h174l551 -1384h-197l-135 340h-637l-135 -340h-178zM357 1833h192l164 -309h-135zM365 496h522l-260 661z" />
<glyph unicode="&#xc1;" horiz-adv-x="1269" d="M-6 0l557 1384h174l551 -1384h-197l-135 340h-637l-135 -340h-178zM365 496h522l-260 661zM583 1524l164 309h193l-222 -309h-135z" />
<glyph unicode="&#xc2;" horiz-adv-x="1269" d="M-6 0l557 1384h174l551 -1384h-197l-135 340h-637l-135 -340h-178zM359 1524l202 309h156l203 -309h-141l-140 184l-139 -184h-141zM365 496h522l-260 661z" />
<glyph unicode="&#xc3;" horiz-adv-x="1269" d="M-6 0l557 1384h174l551 -1384h-197l-135 340h-637l-135 -340h-178zM332 1551q0 51 9 97t30.5 80.5t54.5 55t82 20.5q43 0 80 -18t68.5 -42t60.5 -42t55 -18q37 0 48.5 34.5t11.5 79.5h118q0 -51 -9 -96t-30.5 -80t-55.5 -55.5t-83 -20.5q-43 0 -78.5 18.5t-66.5 42 t-59.5 42t-59.5 18.5q-35 0 -47 -34.5t-12 -81.5h-117zM365 496h522l-260 661z" />
<glyph unicode="&#xc4;" horiz-adv-x="1269" d="M-6 0l557 1384h174l551 -1384h-197l-135 340h-637l-135 -340h-178zM365 496h522l-260 661zM385 1581v197h156v-197h-156zM742 1581v197h155v-197h-155z" />
<glyph unicode="&#xc5;" horiz-adv-x="1269" d="M-6 0l557 1384h174l551 -1384h-197l-135 340h-637l-135 -340h-178zM365 496h522l-260 661zM424 1677q0 90 64.5 137.5t152.5 47.5t152.5 -47t64.5 -138q0 -90 -64.5 -137t-152.5 -47t-152.5 47t-64.5 137zM531 1677q0 -47 30.5 -70.5t79.5 -23.5t80 23.5t31 70.5t-31 71 t-80 24t-79.5 -23.5t-30.5 -71.5z" />
<glyph unicode="&#xc6;" horiz-adv-x="1843" d="M-55 0l821 1384h920v-157h-648v-434h590v-158h-590v-299q0 -92 42 -135t137 -43h499v-158h-526q-178 0 -256 85t-78 255h-524l-199 -340h-188zM424 496h432v731z" />
<glyph unicode="&#xc7;" horiz-adv-x="1304" d="M117 692q0 160 49 293t139 228.5t220 147.5t294 52q109 0 199 -18.5t156 -53.5v-161q-66 35 -155 55t-190 20q-121 0 -217 -38.5t-163.5 -111.5t-104.5 -177.5t-37 -235.5t37 -235.5t105.5 -177t165 -111.5t214.5 -39q100 0 191.5 23.5t167.5 64.5v-164 q-74 -37 -161 -59.5t-204 -22.5q-23 0 -41 1t-39 3l-20 -81q76 -6 119 -47.5t43 -116.5q0 -72 -55.5 -118t-155.5 -46q-31 0 -66 7t-59 19v115q18 -10 50 -19.5t67 -9.5t59.5 13.5t24.5 48.5q0 41 -28 51t-67 10h-71l55 191q-123 27 -219 88t-164 151.5t-103.5 207 t-35.5 253.5z" />
<glyph unicode="&#xc8;" horiz-adv-x="1189" d="M203 336v1048h829v-157h-645v-434h588v-158h-588v-299q0 -92 41 -135t135 -43h500v-158h-524q-180 0 -258 86t-78 250zM363 1833h192l164 -309h-135z" />
<glyph unicode="&#xc9;" horiz-adv-x="1189" d="M203 336v1048h829v-157h-645v-434h588v-158h-588v-299q0 -92 41 -135t135 -43h500v-158h-524q-180 0 -258 86t-78 250zM542 1524l164 309h193l-222 -309h-135z" />
<glyph unicode="&#xca;" horiz-adv-x="1189" d="M203 336v1048h829v-157h-645v-434h588v-158h-588v-299q0 -92 41 -135t135 -43h500v-158h-524q-180 0 -258 86t-78 250zM338 1524l202 309h156l203 -309h-141l-140 184l-139 -184h-141z" />
<glyph unicode="&#xcb;" horiz-adv-x="1189" d="M203 336v1048h829v-157h-645v-434h588v-158h-588v-299q0 -92 41 -135t135 -43h500v-158h-524q-180 0 -258 86t-78 250zM362 1581v197h156v-197h-156zM719 1581v197h155v-197h-155z" />
<glyph unicode="&#xcc;" horiz-adv-x="624" d="M27 1833h192l164 -309h-135zM221 0v1384h182v-1384h-182z" />
<glyph unicode="&#xcd;" horiz-adv-x="624" d="M221 0v1384h182v-1384h-182zM250 1524l164 309h193l-222 -309h-135z" />
<glyph unicode="&#xce;" horiz-adv-x="624" d="M33 1524l202 309h156l203 -309h-141l-140 184l-139 -184h-141zM221 0v1384h182v-1384h-182z" />
<glyph unicode="&#xcf;" horiz-adv-x="624" d="M57 1581v197h156v-197h-156zM221 0v1384h182v-1384h-182zM414 1581v197h155v-197h-155z" />
<glyph unicode="&#xd0;" horiz-adv-x="1531" d="M53 643v148h168v593h428q186 0 328.5 -47t240 -136t147.5 -217t50 -292q0 -330 -195.5 -511t-570.5 -181h-428v643h-168zM403 158h246q133 0 239.5 31.5t181.5 97t115 166t40 239.5q0 137 -40 238.5t-115 167t-181.5 97.5t-239.5 32h-246v-436h404v-148h-404v-485z" />
<glyph unicode="&#xd1;" horiz-adv-x="1591" d="M221 0v1384h164l811 -1093v1093h174v-1384h-162l-811 1092v-1092h-176zM485 1545q0 51 9 97t30.5 80.5t54.5 55t82 20.5q43 0 80 -18t68.5 -42t60.5 -42t55 -18q37 0 48.5 34.5t11.5 79.5h118q0 -51 -9 -96t-30.5 -80t-55.5 -55.5t-83 -20.5q-43 0 -78.5 18.5t-66.5 42 t-59.5 42t-59.5 18.5q-35 0 -47 -34.5t-12 -81.5h-117z" />
<glyph unicode="&#xd2;" horiz-adv-x="1667" d="M117 692q0 166 52 299t146.5 226.5t226.5 144.5t292 51t291.5 -51t226 -144.5t146.5 -226.5t52 -299t-52 -299t-146.5 -226t-226.5 -144.5t-291 -51.5q-160 0 -292 51.5t-226.5 144.5t-146.5 226t-52 299zM307 692q0 -129 36 -232.5t103.5 -177t166 -113.5t221.5 -40 t221 40t165.5 113.5t103.5 177t36 232.5t-36 232.5t-103.5 177.5t-166 113.5t-220.5 39.5q-123 0 -221.5 -39.5t-166 -113.5t-103.5 -177.5t-36 -232.5zM560 1833h192l164 -309h-135z" />
<glyph unicode="&#xd3;" horiz-adv-x="1667" d="M117 692q0 166 52 299t146.5 226.5t226.5 144.5t292 51t291.5 -51t226 -144.5t146.5 -226.5t52 -299t-52 -299t-146.5 -226t-226.5 -144.5t-291 -51.5q-160 0 -292 51.5t-226.5 144.5t-146.5 226t-52 299zM307 692q0 -129 36 -232.5t103.5 -177t166 -113.5t221.5 -40 t221 40t165.5 113.5t103.5 177t36 232.5t-36 232.5t-103.5 177.5t-166 113.5t-220.5 39.5q-123 0 -221.5 -39.5t-166 -113.5t-103.5 -177.5t-36 -232.5zM762 1524l164 309h193l-222 -309h-135z" />
<glyph unicode="&#xd4;" horiz-adv-x="1667" d="M117 692q0 166 52 299t146.5 226.5t226.5 144.5t292 51t291.5 -51t226 -144.5t146.5 -226.5t52 -299t-52 -299t-146.5 -226t-226.5 -144.5t-291 -51.5q-160 0 -292 51.5t-226.5 144.5t-146.5 226t-52 299zM307 692q0 -129 36 -232.5t103.5 -177t166 -113.5t221.5 -40 t221 40t165.5 113.5t103.5 177t36 232.5t-36 232.5t-103.5 177.5t-166 113.5t-220.5 39.5q-123 0 -221.5 -39.5t-166 -113.5t-103.5 -177.5t-36 -232.5zM553 1524l202 309h156l203 -309h-141l-140 184l-139 -184h-141z" />
<glyph unicode="&#xd5;" horiz-adv-x="1667" d="M117 692q0 166 52 299t146.5 226.5t226.5 144.5t292 51t291.5 -51t226 -144.5t146.5 -226.5t52 -299t-52 -299t-146.5 -226t-226.5 -144.5t-291 -51.5q-160 0 -292 51.5t-226.5 144.5t-146.5 226t-52 299zM307 692q0 -129 36 -232.5t103.5 -177t166 -113.5t221.5 -40 t221 40t165.5 113.5t103.5 177t36 232.5t-36 232.5t-103.5 177.5t-166 113.5t-220.5 39.5q-123 0 -221.5 -39.5t-166 -113.5t-103.5 -177.5t-36 -232.5zM524 1553q0 51 9 97t30.5 80.5t54.5 55t82 20.5q43 0 80 -18t68.5 -42t60.5 -42t55 -18q37 0 48.5 34.5t11.5 79.5h118 q0 -51 -9 -96t-30.5 -80t-55.5 -55.5t-83 -20.5q-43 0 -78.5 18.5t-66.5 42t-59.5 42t-59.5 18.5q-35 0 -47 -34.5t-12 -81.5h-117z" />
<glyph unicode="&#xd6;" horiz-adv-x="1667" d="M117 692q0 166 52 299t146.5 226.5t226.5 144.5t292 51t291.5 -51t226 -144.5t146.5 -226.5t52 -299t-52 -299t-146.5 -226t-226.5 -144.5t-291 -51.5q-160 0 -292 51.5t-226.5 144.5t-146.5 226t-52 299zM307 692q0 -129 36 -232.5t103.5 -177t166 -113.5t221.5 -40 t221 40t165.5 113.5t103.5 177t36 232.5t-36 232.5t-103.5 177.5t-166 113.5t-220.5 39.5q-123 0 -221.5 -39.5t-166 -113.5t-103.5 -177.5t-36 -232.5zM577 1581v197h156v-197h-156zM934 1581v197h155v-197h-155z" />
<glyph unicode="&#xd7;" d="M170 250l332 387l-332 389l102 92l320 -375l319 375l103 -92l-332 -389l332 -387l-103 -92l-319 374l-320 -374z" />
<glyph unicode="&#xd8;" horiz-adv-x="1667" d="M117 692q0 166 52 299t146.5 226.5t226.5 144.5t292 51q117 0 216 -26.5t185 -77.5l139 182l90 -74l-137 -176q106 -96 164.5 -234.5t58.5 -314.5q0 -166 -52 -299t-146.5 -226t-226.5 -144.5t-291 -51.5q-233 0 -404 105l-135 -178l-90 75l133 172q-104 94 -162.5 232.5 t-58.5 314.5zM307 692q0 -256 139 -407l684 891q-59 39 -133.5 59t-162.5 20q-123 0 -221.5 -39.5t-166 -113.5t-103.5 -177.5t-36 -232.5zM532 209q127 -80 302 -80q123 0 221 40t165.5 113.5t103.5 177t36 232.5q0 258 -139 410z" />
<glyph unicode="&#xd9;" horiz-adv-x="1427" d="M186 485v899h183v-895q0 -94 26.5 -162.5t72.5 -112.5t109.5 -64.5t137.5 -20.5t138.5 20.5t110.5 64.5t72.5 112.5t26.5 162.5v895h178v-899q0 -129 -42 -225t-113.5 -160.5t-167 -96.5t-203.5 -32q-109 0 -205 32t-168 96.5t-114 160.5t-42 225zM433 1833h192l164 -309 h-135z" />
<glyph unicode="&#xda;" horiz-adv-x="1427" d="M186 485v899h183v-895q0 -94 26.5 -162.5t72.5 -112.5t109.5 -64.5t137.5 -20.5t138.5 20.5t110.5 64.5t72.5 112.5t26.5 162.5v895h178v-899q0 -129 -42 -225t-113.5 -160.5t-167 -96.5t-203.5 -32q-109 0 -205 32t-168 96.5t-114 160.5t-42 225zM641 1524l164 309h193 l-222 -309h-135z" />
<glyph unicode="&#xdb;" horiz-adv-x="1427" d="M186 485v899h183v-895q0 -94 26.5 -162.5t72.5 -112.5t109.5 -64.5t137.5 -20.5t138.5 20.5t110.5 64.5t72.5 112.5t26.5 162.5v895h178v-899q0 -129 -42 -225t-113.5 -160.5t-167 -96.5t-203.5 -32q-109 0 -205 32t-168 96.5t-114 160.5t-42 225zM432 1524l202 309h156 l203 -309h-141l-140 184l-139 -184h-141z" />
<glyph unicode="&#xdc;" horiz-adv-x="1427" d="M186 485v899h183v-895q0 -94 26.5 -162.5t72.5 -112.5t109.5 -64.5t137.5 -20.5t138.5 20.5t110.5 64.5t72.5 112.5t26.5 162.5v895h178v-899q0 -129 -42 -225t-113.5 -160.5t-167 -96.5t-203.5 -32q-109 0 -205 32t-168 96.5t-114 160.5t-42 225zM456 1579v197h156v-197 h-156zM813 1579v197h155v-197h-155z" />
<glyph unicode="&#xdd;" horiz-adv-x="1191" d="M0 1384h201l403 -663l404 663h184l-508 -829v-555h-180v555zM526 1524l164 309h193l-222 -309h-135z" />
<glyph unicode="&#xde;" horiz-adv-x="1280" d="M221 0v1384h182v-254h246q252 0 391.5 -112.5t139.5 -321.5q0 -215 -140.5 -324.5t-390.5 -109.5h-246v-262h-182zM403 420h246q154 0 247 65.5t93 210.5t-93 211t-247 66h-246v-553z" />
<glyph unicode="&#xdf;" horiz-adv-x="1136" d="M172 0v1094q0 96 33 168.5t88 122t127 74t151 24.5q76 0 144.5 -23.5t121 -67.5t83 -107.5t30.5 -141.5q0 -92 -27.5 -150.5t-60.5 -101.5t-60.5 -78t-27.5 -82q0 -39 22.5 -67.5t56.5 -56t73 -57.5t72.5 -69t56 -89t22.5 -120q0 -78 -24.5 -134t-69.5 -93t-105.5 -54.5 t-132.5 -17.5t-136 15.5t-115 40.5v155q53 -29 111.5 -47t123.5 -18q78 0 130 38t52 107q0 74 -46 120t-101 89t-101.5 96.5t-46.5 141.5q0 61 28 108t59.5 91t59.5 95t28 123q0 82 -57.5 141.5t-166.5 59.5q-45 0 -86 -13t-71.5 -41t-49 -71t-18.5 -104v-1100h-170z" />
<glyph unicode="&#xe0;" horiz-adv-x="1155" d="M98 479q0 131 41 229.5t110.5 164t164 97t202.5 31.5q49 0 101.5 -7t101.5 -17t91 -24.5t71 -28.5v-924h-139l-13 106q-59 -59 -130.5 -97t-176.5 -38q-84 0 -160.5 32t-135 94.5t-93.5 157.5t-35 224zM272 487q0 -188 79 -275t200 -87q76 0 144.5 34t119.5 95v559 q-94 35 -197 35q-68 0 -131 -19.5t-110 -62.5t-76 -111.5t-29 -167.5zM312 1454h192l164 -309h-135z" />
<glyph unicode="&#xe1;" horiz-adv-x="1155" d="M98 479q0 131 41 229.5t110.5 164t164 97t202.5 31.5q49 0 101.5 -7t101.5 -17t91 -24.5t71 -28.5v-924h-139l-13 106q-59 -59 -130.5 -97t-176.5 -38q-84 0 -160.5 32t-135 94.5t-93.5 157.5t-35 224zM272 487q0 -188 79 -275t200 -87q76 0 144.5 34t119.5 95v559 q-94 35 -197 35q-68 0 -131 -19.5t-110 -62.5t-76 -111.5t-29 -167.5zM481 1145l164 309h193l-222 -309h-135z" />
<glyph unicode="&#xe2;" horiz-adv-x="1155" d="M98 479q0 131 41 229.5t110.5 164t164 97t202.5 31.5q49 0 101.5 -7t101.5 -17t91 -24.5t71 -28.5v-924h-139l-13 106q-59 -59 -130.5 -97t-176.5 -38q-84 0 -160.5 32t-135 94.5t-93.5 157.5t-35 224zM272 487q0 -188 79 -275t200 -87q76 0 144.5 34t119.5 95v559 q-94 35 -197 35q-68 0 -131 -19.5t-110 -62.5t-76 -111.5t-29 -167.5zM275 1145l202 309h156l203 -309h-141l-140 184l-139 -184h-141z" />
<glyph unicode="&#xe3;" horiz-adv-x="1155" d="M98 479q0 131 41 229.5t110.5 164t164 97t202.5 31.5q49 0 101.5 -7t101.5 -17t91 -24.5t71 -28.5v-924h-139l-13 106q-59 -59 -130.5 -97t-176.5 -38q-84 0 -160.5 32t-135 94.5t-93.5 157.5t-35 224zM250 1174q0 51 9 97t30.5 80.5t54.5 55t82 20.5q43 0 80 -18 t68.5 -42t60.5 -42t55 -18q37 0 48.5 34.5t11.5 79.5h118q0 -51 -9 -96t-30.5 -80t-55.5 -55.5t-83 -20.5q-43 0 -78.5 18.5t-66.5 42t-59.5 42t-59.5 18.5q-35 0 -47 -34.5t-12 -81.5h-117zM272 487q0 -188 79 -275t200 -87q76 0 144.5 34t119.5 95v559q-94 35 -197 35 q-68 0 -131 -19.5t-110 -62.5t-76 -111.5t-29 -167.5z" />
<glyph unicode="&#xe4;" horiz-adv-x="1155" d="M98 479q0 131 41 229.5t110.5 164t164 97t202.5 31.5q49 0 101.5 -7t101.5 -17t91 -24.5t71 -28.5v-924h-139l-13 106q-59 -59 -130.5 -97t-176.5 -38q-84 0 -160.5 32t-135 94.5t-93.5 157.5t-35 224zM272 487q0 -188 79 -275t200 -87q76 0 144.5 34t119.5 95v559 q-94 35 -197 35q-68 0 -131 -19.5t-110 -62.5t-76 -111.5t-29 -167.5zM301 1206v197h156v-197h-156zM658 1206v197h155v-197h-155z" />
<glyph unicode="&#xe5;" horiz-adv-x="1155" d="M98 479q0 131 41 229.5t110.5 164t164 97t202.5 31.5q49 0 101.5 -7t101.5 -17t91 -24.5t71 -28.5v-924h-139l-13 106q-59 -59 -130.5 -97t-176.5 -38q-84 0 -160.5 32t-135 94.5t-93.5 157.5t-35 224zM272 487q0 -188 79 -275t200 -87q76 0 144.5 34t119.5 95v559 q-94 35 -197 35q-68 0 -131 -19.5t-110 -62.5t-76 -111.5t-29 -167.5zM354 1298q0 90 64.5 137.5t152.5 47.5t152.5 -47t64.5 -138q0 -90 -64.5 -137t-152.5 -47t-152.5 47t-64.5 137zM461 1298q0 -47 30.5 -70.5t79.5 -23.5t80 23.5t31 70.5t-31 71t-80 24t-79.5 -23.5 t-30.5 -71.5z" />
<glyph unicode="&#xe6;" horiz-adv-x="1757" d="M98 479q0 131 41 229.5t110.5 164t164 97t202.5 31.5q45 0 94.5 -6t95.5 -15t87 -21.5t72 -26.5q111 70 254 69q117 0 200.5 -39.5t138 -104t81 -147.5t26.5 -169v-115h-739q8 -84 39.5 -141.5t80 -93t110 -51t128.5 -15.5q94 0 186.5 23.5t163.5 64.5v-158 q-74 -41 -170 -62.5t-192 -21.5q-115 0 -216.5 34t-172.5 112q-31 -29 -67 -55.5t-79 -46t-96 -32t-119 -12.5q-84 0 -160.5 32t-135 94.5t-93.5 157.5t-35 224zM272 487q0 -188 79 -275t200 -87q70 0 134.5 29.5t113.5 83.5q-23 53 -36 115t-13 134q0 94 22.5 174t63.5 144 q-61 23 -113.5 33t-104.5 10q-68 0 -131 -19.5t-110 -62.5t-76 -111.5t-29 -167.5zM928 573h563q0 121 -72.5 198t-201.5 77q-254 0 -289 -275z" />
<glyph unicode="&#xe7;" horiz-adv-x="993" d="M98 487q0 117 36 211.5t101.5 162t159.5 104t211 36.5q150 0 258 -51v-162q-113 59 -248 60q-154 0 -249 -88t-95 -273q0 -184 95.5 -273t246.5 -89q78 0 143.5 21.5t119.5 56.5v-164q-53 -31 -124 -49.5t-159 -18.5h-25l-18 -77q76 -6 119 -47.5t43 -116.5 q0 -72 -55.5 -118t-155.5 -46q-33 0 -67 7t-58 19v115q16 -10 49 -19.5t68 -9.5t59.5 13.5t24.5 48.5q0 41 -27 51t-66 10h-73l55 185q-174 37 -271.5 172t-97.5 329z" />
<glyph unicode="&#xe8;" horiz-adv-x="1107" d="M98 487q0 117 34 212.5t96.5 163t148.5 103t190 35.5q117 0 201 -39.5t138.5 -104t81 -147.5t26.5 -169v-115h-740q8 -84 40 -141.5t80 -93t109.5 -51t129.5 -15.5q94 0 186 23.5t164 64.5v-158q-74 -41 -170 -62.5t-192 -21.5q-102 0 -197.5 29t-167.5 90.5t-115 159.5 t-43 237zM276 573h566q-2 121 -75 198t-202 77q-254 0 -289 -275zM289 1454h192l164 -309h-135z" />
<glyph unicode="&#xe9;" horiz-adv-x="1107" d="M98 487q0 117 34 212.5t96.5 163t148.5 103t190 35.5q117 0 201 -39.5t138.5 -104t81 -147.5t26.5 -169v-115h-740q8 -84 40 -141.5t80 -93t109.5 -51t129.5 -15.5q94 0 186 23.5t164 64.5v-158q-74 -41 -170 -62.5t-192 -21.5q-102 0 -197.5 29t-167.5 90.5t-115 159.5 t-43 237zM276 573h566q-2 121 -75 198t-202 77q-254 0 -289 -275zM485 1145l164 309h193l-222 -309h-135z" />
<glyph unicode="&#xea;" horiz-adv-x="1107" d="M98 487q0 117 34 212.5t96.5 163t148.5 103t190 35.5q117 0 201 -39.5t138.5 -104t81 -147.5t26.5 -169v-115h-740q8 -84 40 -141.5t80 -93t109.5 -51t129.5 -15.5q94 0 186 23.5t164 64.5v-158q-74 -41 -170 -62.5t-192 -21.5q-102 0 -197.5 29t-167.5 90.5t-115 159.5 t-43 237zM276 573h566q-2 121 -75 198t-202 77q-254 0 -289 -275zM279 1145l202 309h156l203 -309h-141l-140 184l-139 -184h-141z" />
<glyph unicode="&#xeb;" horiz-adv-x="1107" d="M98 487q0 117 34 212.5t96.5 163t148.5 103t190 35.5q117 0 201 -39.5t138.5 -104t81 -147.5t26.5 -169v-115h-740q8 -84 40 -141.5t80 -93t109.5 -51t129.5 -15.5q94 0 186 23.5t164 64.5v-158q-74 -41 -170 -62.5t-192 -21.5q-102 0 -197.5 29t-167.5 90.5t-115 159.5 t-43 237zM276 573h566q-2 121 -75 198t-202 77q-254 0 -289 -275zM305 1206v197h156v-197h-156zM662 1206v197h155v-197h-155z" />
<glyph unicode="&#xec;" horiz-adv-x="516" d="M-22 1454h192l164 -309h-135zM174 0v973h168v-973h-168z" />
<glyph unicode="&#xed;" horiz-adv-x="516" d="M174 0v973h168v-973h-168zM188 1145l164 309h193l-222 -309h-135z" />
<glyph unicode="&#xee;" horiz-adv-x="516" d="M-20 1145l202 309h156l203 -309h-141l-140 184l-139 -184h-141zM174 0v973h168v-973h-168z" />
<glyph unicode="&#xef;" horiz-adv-x="516" d="M4 1206v197h156v-197h-156zM174 0v973h168v-973h-168zM361 1206v197h155v-197h-155z" />
<glyph unicode="&#xf0;" horiz-adv-x="1202" d="M98 485q0 117 36 212.5t101.5 163t154.5 104t198 36.5q113 0 196.5 -39.5t137.5 -105.5q-16 96 -52 188.5t-73 167.5l-443 -75v104l402 70q-4 6 -14.5 24.5t-22.5 41t-23.5 44t-19.5 33.5h153q20 -29 37 -57.5t33 -61.5l231 41v-104l-186 -33q63 -135 109.5 -303 t46.5 -342q0 -135 -28 -250t-88 -198t-155.5 -129t-228.5 -46q-111 0 -203 36t-158.5 103.5t-103.5 163t-37 211.5zM272 485q0 -174 91.5 -267t238.5 -93t237.5 95t90.5 269q0 178 -90 268.5t-238 90.5q-147 0 -238.5 -94.5t-91.5 -268.5z" />
<glyph unicode="&#xf1;" horiz-adv-x="1175" d="M174 0v973h152l10 -88q63 51 142 83.5t175 32.5q76 0 141.5 -23.5t114.5 -70.5t77 -116.5t28 -163.5v-627h-168v614q0 119 -60.5 173.5t-169.5 54.5q-78 0 -148.5 -30t-125.5 -77v-735h-168zM274 1174q0 51 9 97t30.5 80.5t54.5 55t82 20.5q43 0 80 -18t68.5 -42 t60.5 -42t55 -18q37 0 48.5 34.5t11.5 79.5h118q0 -51 -9 -96t-30.5 -80t-55.5 -55.5t-83 -20.5q-43 0 -78.5 18.5t-66.5 42t-59.5 42t-59.5 18.5q-35 0 -47 -34.5t-12 -81.5h-117z" />
<glyph unicode="&#xf2;" horiz-adv-x="1202" d="M98 485q0 119 37 214.5t103.5 163t158.5 103t203 35.5t204 -35.5t158.5 -103t102.5 -163t37 -214.5t-37 -214t-102.5 -161.5t-158.5 -102.5t-204 -36t-203 36t-158.5 102.5t-103.5 162t-37 213.5zM272 485q0 -174 90.5 -267t237.5 -93t238.5 93t91.5 267t-91 268.5 t-239 94.5q-147 0 -237.5 -94.5t-90.5 -268.5zM322 1454h192l164 -309h-135z" />
<glyph unicode="&#xf3;" horiz-adv-x="1202" d="M98 485q0 119 37 214.5t103.5 163t158.5 103t203 35.5t204 -35.5t158.5 -103t102.5 -163t37 -214.5t-37 -214t-102.5 -161.5t-158.5 -102.5t-204 -36t-203 36t-158.5 102.5t-103.5 162t-37 213.5zM272 485q0 -174 90.5 -267t237.5 -93t238.5 93t91.5 267t-91 268.5 t-239 94.5q-147 0 -237.5 -94.5t-90.5 -268.5zM524 1145l164 309h193l-222 -309h-135z" />
<glyph unicode="&#xf4;" horiz-adv-x="1202" d="M98 485q0 119 37 214.5t103.5 163t158.5 103t203 35.5t204 -35.5t158.5 -103t102.5 -163t37 -214.5t-37 -214t-102.5 -161.5t-158.5 -102.5t-204 -36t-203 36t-158.5 102.5t-103.5 162t-37 213.5zM272 485q0 -174 90.5 -267t237.5 -93t238.5 93t91.5 267t-91 268.5 t-239 94.5q-147 0 -237.5 -94.5t-90.5 -268.5zM320 1145l202 309h156l203 -309h-141l-140 184l-139 -184h-141z" />
<glyph unicode="&#xf5;" horiz-adv-x="1202" d="M98 485q0 119 37 214.5t103.5 163t158.5 103t203 35.5t204 -35.5t158.5 -103t102.5 -163t37 -214.5t-37 -214t-102.5 -161.5t-158.5 -102.5t-204 -36t-203 36t-158.5 102.5t-103.5 162t-37 213.5zM272 485q0 -174 90.5 -267t237.5 -93t238.5 93t91.5 267t-91 268.5 t-239 94.5q-147 0 -237.5 -94.5t-90.5 -268.5zM291 1174q0 51 9 97t30.5 80.5t54.5 55t82 20.5q43 0 80 -18t68.5 -42t60.5 -42t55 -18q37 0 48.5 34.5t11.5 79.5h118q0 -51 -9 -96t-30.5 -80t-55.5 -55.5t-83 -20.5q-43 0 -78.5 18.5t-66.5 42t-59.5 42t-59.5 18.5 q-35 0 -47 -34.5t-12 -81.5h-117z" />
<glyph unicode="&#xf6;" horiz-adv-x="1202" d="M98 485q0 119 37 214.5t103.5 163t158.5 103t203 35.5t204 -35.5t158.5 -103t102.5 -163t37 -214.5t-37 -214t-102.5 -161.5t-158.5 -102.5t-204 -36t-203 36t-158.5 102.5t-103.5 162t-37 213.5zM272 485q0 -174 90.5 -267t237.5 -93t238.5 93t91.5 267t-91 268.5 t-239 94.5q-147 0 -237.5 -94.5t-90.5 -268.5zM344 1206v197h156v-197h-156zM701 1206v197h155v-197h-155z" />
<glyph unicode="&#xf7;" d="M115 563v148h954v-148h-954zM496 154v180h186v-180h-186zM496 940v180h186v-180h-186z" />
<glyph unicode="&#xf8;" horiz-adv-x="1202" d="M98 485q0 119 37 214.5t103.5 163t158.5 103t203 35.5q78 0 144.5 -17t121.5 -50l109 145l80 -63l-107 -142q72 -68 113 -167t41 -222q0 -119 -37 -214t-102.5 -161.5t-158.5 -102.5t-204 -36q-76 0 -142.5 17.5t-123.5 48.5l-109 -146l-80 66l105 141q-72 68 -112 165 t-40 222zM272 485q0 -162 78 -252l422 572q-37 20 -80 31.5t-92 11.5q-147 0 -237.5 -94.5t-90.5 -268.5zM428 166q76 -41 172 -41q147 0 238.5 93t91.5 267q0 80 -21.5 143.5t-58.5 110.5z" />
<glyph unicode="&#xf9;" horiz-adv-x="1142" d="M156 356v617h170v-611q0 -123 57 -178t156 -55q80 0 144.5 35t115.5 94v715h170v-973h-144l-10 106q-59 -57 -132 -96t-175 -39q-78 0 -142.5 23.5t-110.5 72t-72.5 121t-26.5 168.5zM295 1454h192l164 -309h-135z" />
<glyph unicode="&#xfa;" horiz-adv-x="1142" d="M156 356v617h170v-611q0 -123 57 -178t156 -55q80 0 144.5 35t115.5 94v715h170v-973h-144l-10 106q-59 -57 -132 -96t-175 -39q-78 0 -142.5 23.5t-110.5 72t-72.5 121t-26.5 168.5zM489 1145l164 309h193l-222 -309h-135z" />
<glyph unicode="&#xfb;" horiz-adv-x="1142" d="M156 356v617h170v-611q0 -123 57 -178t156 -55q80 0 144.5 35t115.5 94v715h170v-973h-144l-10 106q-59 -57 -132 -96t-175 -39q-78 0 -142.5 23.5t-110.5 72t-72.5 121t-26.5 168.5zM285 1145l202 309h156l203 -309h-141l-140 184l-139 -184h-141z" />
<glyph unicode="&#xfc;" horiz-adv-x="1142" d="M156 356v617h170v-611q0 -123 57 -178t156 -55q80 0 144.5 35t115.5 94v715h170v-973h-144l-10 106q-59 -57 -132 -96t-175 -39q-78 0 -142.5 23.5t-110.5 72t-72.5 121t-26.5 168.5zM305 1206v197h156v-197h-156zM662 1206v197h155v-197h-155z" />
<glyph unicode="&#xfd;" horiz-adv-x="1142" d="M156 367v606h170v-600q0 -123 57 -178.5t156 -55.5q80 0 144.5 35t115.5 94v705h170v-953q0 -111 -34 -192.5t-92.5 -135.5t-138 -81t-172.5 -27q-109 0 -187.5 20.5t-141.5 53.5v168q55 -35 136 -63.5t181 -28.5q57 0 108.5 15t89.5 49t59.5 87.5t21.5 130.5v84 q-55 -51 -126 -84.5t-165 -33.5q-78 0 -142.5 23.5t-110.5 71.5t-72.5 120.5t-26.5 169.5zM489 1145l164 309h193l-222 -309h-135z" />
<glyph unicode="&#xfe;" horiz-adv-x="1153" d="M174 -389v1843h164v-565q41 39 112.5 75.5t182.5 36.5q82 0 157.5 -30.5t134 -93t93.5 -158.5t35 -227q0 -129 -38 -226.5t-102.5 -163t-152.5 -98.5t-187 -33q-59 0 -119.5 9.5t-115.5 37.5v-407h-164zM338 176q53 -29 109.5 -40t111.5 -11q66 0 124 21.5t102 65.5 t70 113.5t26 166.5q0 92 -21.5 159.5t-60.5 111.5t-90.5 64.5t-110.5 20.5q-78 0 -148.5 -35t-111.5 -72v-565z" />
<glyph unicode="&#xff;" horiz-adv-x="1142" d="M156 367v606h170v-600q0 -123 57 -178.5t156 -55.5q80 0 144.5 35t115.5 94v705h170v-953q0 -111 -34 -192.5t-92.5 -135.5t-138 -81t-172.5 -27q-109 0 -187.5 20.5t-141.5 53.5v168q55 -35 136 -63.5t181 -28.5q57 0 108.5 15t89.5 49t59.5 87.5t21.5 130.5v84 q-55 -51 -126 -84.5t-165 -33.5q-78 0 -142.5 23.5t-110.5 71.5t-72.5 120.5t-26.5 169.5zM311 1206v197h156v-197h-156zM668 1206v197h155v-197h-155z" />
<glyph unicode="&#x152;" horiz-adv-x="2353" d="M117 692q0 166 51 299t145.5 226.5t226.5 144.5t291 51q186 0 323.5 -74.5t215.5 -203.5v249h825v-157h-647v-434h590v-158h-590v-299q0 -92 42 -135t139 -43h497v-158h-526q-156 0 -229.5 68.5t-88.5 193.5q-76 -135 -217 -213t-334 -78q-160 0 -291.5 51.5t-226 144.5 t-145.5 226t-51 299zM307 692q0 -129 36 -232.5t103.5 -177t164.5 -113.5t220 -40t221.5 40t166 113.5t103.5 177t36 232.5t-36 232.5t-103.5 177.5t-166 113.5t-221.5 39.5t-220 -39.5t-164.5 -113.5t-103.5 -177.5t-36 -232.5z" />
<glyph unicode="&#x153;" horiz-adv-x="1925" d="M98 485q0 119 37 214.5t103.5 163t158.5 103t203 35.5q147 0 249.5 -61t156.5 -172q51 111 146 172t234 61q117 0 201 -39.5t138.5 -104t80 -147.5t25.5 -169v-115h-737q8 -84 39.5 -141.5t80 -93t109.5 -51t129 -15.5q92 0 184.5 23.5t165.5 64.5v-158 q-76 -41 -172 -62.5t-190 -21.5q-143 0 -258 53.5t-174 180.5q-55 -111 -157.5 -172.5t-250.5 -61.5q-111 0 -203 36t-158.5 102.5t-103.5 162t-37 213.5zM272 485q0 -174 90.5 -267t237.5 -93t238.5 93t91.5 267t-91 268.5t-239 94.5q-147 0 -237.5 -94.5t-90.5 -268.5z M1096 573h563q-2 121 -75 198t-200 77q-254 0 -288 -275z" />
<glyph unicode="&#x178;" horiz-adv-x="1191" d="M0 1384h201l403 -663l404 663h184l-508 -829v-555h-180v555zM340 1585v197h156v-197h-156zM697 1585v197h155v-197h-155z" />
<glyph unicode="&#x2c6;" horiz-adv-x="1044" d="M242 1145l202 309h156l203 -309h-141l-140 184l-139 -184h-141z" />
<glyph unicode="&#x2dc;" horiz-adv-x="1044" d="M213 1174q0 51 9 97t30.5 80.5t54.5 55t82 20.5q43 0 80 -18t68.5 -42t60.5 -42t55 -18q37 0 48.5 34.5t11.5 79.5h118q0 -51 -9 -96t-30.5 -80t-55.5 -55.5t-83 -20.5q-43 0 -78.5 18.5t-66.5 42t-59.5 42t-59.5 18.5q-35 0 -47 -34.5t-12 -81.5h-117z" />
<glyph unicode="&#x2000;" horiz-adv-x="931" />
<glyph unicode="&#x2001;" horiz-adv-x="1862" />
<glyph unicode="&#x2002;" horiz-adv-x="931" />
<glyph unicode="&#x2003;" horiz-adv-x="1862" />
<glyph unicode="&#x2004;" horiz-adv-x="620" />
<glyph unicode="&#x2005;" horiz-adv-x="465" />
<glyph unicode="&#x2006;" horiz-adv-x="310" />
<glyph unicode="&#x2007;" horiz-adv-x="310" />
<glyph unicode="&#x2008;" horiz-adv-x="232" />
<glyph unicode="&#x2009;" horiz-adv-x="372" />
<glyph unicode="&#x200a;" horiz-adv-x="103" />
<glyph unicode="&#x2010;" horiz-adv-x="798" d="M150 508v160h499v-160h-499z" />
<glyph unicode="&#x2011;" horiz-adv-x="798" d="M150 508v160h499v-160h-499z" />
<glyph unicode="&#x2012;" horiz-adv-x="798" d="M150 508v160h499v-160h-499z" />
<glyph unicode="&#x2013;" horiz-adv-x="1206" d="M150 508v160h907v-160h-907z" />
<glyph unicode="&#x2014;" horiz-adv-x="2095" d="M150 510v158h1794v-158h-1794z" />
<glyph unicode="&#x2018;" horiz-adv-x="526" d="M113 1020q0 117 55 221.5t170 173.5l82 -100q-152 -109 -152 -283q0 -39 7.5 -80t23.5 -82h-162q-25 74 -24 150z" />
<glyph unicode="&#x2019;" horiz-adv-x="526" d="M104 940q152 109 152 283q0 39 -7 79.5t-24 81.5h162q25 -74 25 -149q0 -117 -55.5 -221.5t-170.5 -173.5z" />
<glyph unicode="&#x201a;" horiz-adv-x="526" d="M104 -215q152 109 152 283q0 39 -7 79.5t-24 81.5h162q25 -74 25 -149q0 -117 -55.5 -221.5t-170.5 -173.5z" />
<glyph unicode="&#x201c;" horiz-adv-x="874" d="M114 1018q0 117 55.5 221.5t170.5 173.5l82 -100q-152 -109 -152 -283q0 -39 7 -79.5t24 -81.5h-162q-25 74 -25 149zM462 1018q0 117 55.5 221.5t170.5 173.5l82 -100q-152 -109 -152 -283q0 -39 7 -79.5t24 -81.5h-162q-25 74 -25 149z" />
<glyph unicode="&#x201d;" horiz-adv-x="874" d="M104 940q152 109 152 283q0 39 -7 79.5t-24 81.5h162q25 -74 25 -149q0 -117 -55.5 -221.5t-170.5 -173.5zM452 940q152 109 152 283q0 39 -7 79.5t-24 81.5h162q25 -74 25 -149q0 -117 -55.5 -221.5t-170.5 -173.5z" />
<glyph unicode="&#x201e;" horiz-adv-x="874" d="M104 -215q152 109 152 283q0 39 -7 79.5t-24 81.5h162q25 -74 25 -149q0 -117 -55.5 -221.5t-170.5 -173.5zM452 -215q152 109 152 283q0 39 -7 79.5t-24 81.5h162q25 -74 25 -149q0 -117 -55.5 -221.5t-170.5 -173.5z" />
<glyph unicode="&#x2022;" horiz-adv-x="669" d="M123 655q0 100 58.5 162t154.5 62t154.5 -62t58.5 -162t-58.5 -160.5t-154.5 -60.5t-154.5 60.5t-58.5 160.5z" />
<glyph unicode="&#x2026;" horiz-adv-x="1603" d="M168 0v193h197v-193h-197zM702 0v193h197v-193h-197zM1237 0v193h197v-193h-197z" />
<glyph unicode="&#x202f;" horiz-adv-x="372" />
<glyph unicode="&#x2039;" horiz-adv-x="602" d="M68 508l307 407h160l-283 -407l283 -408h-160z" />
<glyph unicode="&#x203a;" horiz-adv-x="602" d="M67 100h160l307 408l-307 407h-160l283 -407z" />
<glyph unicode="&#x205f;" horiz-adv-x="465" />
<glyph unicode="&#x20ac;" d="M45 489l29 113h133q0 23 -1 45.5t-1 44.5q0 59 6 121h-166l29 113h151q25 129 80.5 222t131 151.5t166.5 86t190 27.5q88 0 154.5 -12t119.5 -35v-160q-53 27 -120.5 38t-135.5 11q-74 0 -140.5 -17t-119.5 -57t-90 -102.5t-53 -152.5h585l-28 -113h-572q-4 -29 -6 -59.5 t-2 -59.5q0 -23 1 -46t3 -46h525l-29 -113h-477q18 -100 59 -168.5t98.5 -111.5t126 -61.5t142.5 -18.5q61 0 123.5 17.5t119.5 48.5v-166q-121 -57 -284 -58q-98 0 -191.5 30t-170.5 93.5t-132 161.5t-76 233h-178z" />
<glyph unicode="&#x2122;" horiz-adv-x="1662" d="M51 1272v112h574v-112h-222v-455h-133v455h-219zM782 817v567h154l192 -340l193 340h154v-567h-127v387l-160 -278h-117l-160 278v-387h-129z" />
<glyph unicode="&#x25fc;" horiz-adv-x="972" d="M0 0v973h973v-973h-973z" />
</font>
</defs>
</svg>
