<?xml version="1.0" standalone="no"?>
<!DOCTYPE svg PUBLIC "-//W3C//DTD SVG 1.1//EN" "http://www.w3.org/Graphics/SVG/1.1/DTD/svg11.dtd" >
<svg xmlns="http://www.w3.org/2000/svg">
<metadata></metadata>
<defs>
<font id="peugeot_expandedmedium" horiz-adv-x="1363" >
<font-face units-per-em="2048" ascent="1638" descent="-410" />
<missing-glyph horiz-adv-x="614" />
<glyph horiz-adv-x="0" />
<glyph horiz-adv-x="682" />
<glyph unicode=" "  horiz-adv-x="614" />
<glyph unicode="&#x09;" horiz-adv-x="614" />
<glyph unicode="&#xa0;" horiz-adv-x="614" />
<glyph unicode="!" horiz-adv-x="765" d="M223 1384h320l-37 -970h-246zM236 0v250h294v-250h-294z" />
<glyph unicode="&#x22;" horiz-adv-x="1105" d="M186 1384h269l-29 -542h-211zM651 1384h269l-29 -542h-211z" />
<glyph unicode="#" horiz-adv-x="1542" d="M37 346l39 182h258l74 346h-258l38 183h258l68 327h225l-69 -327h350l70 327h223l-70 -327h260l-39 -185h-260l-74 -344h261l-39 -182h-260l-72 -346h-223l73 346h-350l-74 -346h-225l74 346h-258zM559 528h350l72 346h-350z" />
<glyph unicode="$" horiz-adv-x="1325" d="M133 985q0 159 123.5 258t327.5 125v223h190v-213q213 -6 379 -67v-224q-185 76 -414 76q-297 0 -297 -164q0 -40 26 -70t70 -49.5t100.5 -35.5t119.5 -32.5t126 -36t119.5 -49.5t100.5 -69t70 -100t26 -137q0 -93 -33 -166t-93 -120.5t-134.5 -76.5t-165.5 -43v-239 h-190v229q-282 18 -439 90v219q95 -42 215 -69t236 -27q295 0 295 176q0 43 -26 76t-70 54t-100.5 38t-119.5 34t-126 36t-119.5 49t-100.5 69t-70 99.5t-26 136.5z" />
<glyph unicode="%" horiz-adv-x="2168" d="M106 977q0 197 105.5 317.5t290.5 120.5q184 0 289.5 -120.5t105.5 -317.5t-105.5 -317.5t-289.5 -120.5q-185 0 -290.5 120.5t-105.5 317.5zM313 977q0 -125 47 -195.5t142 -70.5t141.5 70.5t46.5 195.5t-46.5 195.5t-141.5 70.5t-142 -70.5t-47 -195.5zM530 0l897 1384 h211l-895 -1384h-213zM1272 408q0 197 105.5 318.5t289.5 121.5t289.5 -121.5t105.5 -318.5q0 -196 -105.5 -317.5t-289.5 -121.5t-289.5 121.5t-105.5 317.5zM1479 408q0 -123 47 -194t141 -71q95 0 141.5 70.5t46.5 194.5q0 125 -46.5 195.5t-141.5 70.5q-94 0 -141 -71 t-47 -195z" />
<glyph unicode="&#x26;" horiz-adv-x="1683" d="M121 410q0 138 84 230.5t215 125.5q-240 80 -240 287q0 116 83 199.5t220.5 123t313.5 39.5q104 0 217.5 -19t189.5 -50v-226q-80 37 -187 58.5t-214 21.5q-141 0 -228.5 -41.5t-87.5 -126.5t76.5 -126.5t198.5 -41.5h112v-219h-106q-70 0 -128.5 -11t-107.5 -35.5 t-76.5 -68t-27.5 -102.5q0 -121 99.5 -182.5t271.5 -61.5q192 0 297.5 90.5t105.5 278.5h-198v209h649v-209h-183q0 -126 -41 -230.5t-122.5 -184.5t-215 -124.5t-307.5 -44.5q-316 0 -489.5 120.5t-173.5 320.5z" />
<glyph unicode="'" horiz-adv-x="641" d="M186 1384h269l-29 -542h-211z" />
<glyph unicode="(" horiz-adv-x="710" d="M129 532q0 142 27 274.5t77.5 249t102.5 207t123 191.5h241q-14 -25 -52.5 -88t-57.5 -95.5t-53 -96.5t-52.5 -109t-43 -113.5t-37.5 -129t-22 -136.5t-9 -154t9 -154t22 -136.5t37.5 -128.5t43 -113t52.5 -109t53.5 -97t57 -95.5l52.5 -87.5h-241q-71 101 -123 191 t-102.5 206.5t-77.5 249t-27 274.5z" />
<glyph unicode=")" horiz-adv-x="710" d="M10 -389q15 26 52.5 88t57 95.5t53.5 96.5t53 108.5t43.5 113.5t37.5 128.5t22 136.5t9 154t-9 154t-22 136.5t-37.5 129t-43.5 113.5t-53 109t-53.5 97t-57 95.5l-52.5 87.5h242q71 -101 123 -191.5t102.5 -207t77.5 -249t27 -274.5t-27 -274.5t-77.5 -249 t-102.5 -206.5t-123 -191h-242z" />
<glyph unicode="*" horiz-adv-x="948" d="M74 1077l55 180l266 -98l-35 225h228l-35 -225l266 98l55 -180l-264 -43l183 -182l-170 -121l-150 221l-147 -221l-170 121l182 182z" />
<glyph unicode="+" horiz-adv-x="1392" d="M135 541v192h453v375h211v-375h458v-192h-458v-375h-211v375h-453z" />
<glyph unicode="," horiz-adv-x="663" d="M-10 -242q117 57 173 133t56 177q0 95 -33 182h269q28 -83 28 -178q0 -165 -105 -294t-296 -198z" />
<glyph unicode="-" horiz-adv-x="966" d="M170 473v211h627v-211h-627z" />
<glyph unicode="." horiz-adv-x="663" d="M184 0v250h293v-250h-293z" />
<glyph unicode="/" horiz-adv-x="905" d="M0 0l674 1384h231l-674 -1384h-231z" />
<glyph unicode="0" horiz-adv-x="1589" d="M133 692q0 214 76 376t227 254.5t359 92.5q209 0 359.5 -92.5t226 -254.5t75.5 -376t-75.5 -376t-226 -254.5t-359.5 -92.5q-208 0 -359 92.5t-227 254.5t-76 376zM440 692q0 -237 88.5 -373.5t266.5 -136.5q179 0 266.5 136t87.5 374q0 156 -36 268t-116.5 177 t-201.5 65q-178 0 -266.5 -136t-88.5 -374z" />
<glyph unicode="1" horiz-adv-x="886" d="M45 1171v213h608v-1384h-295v1171h-313z" />
<glyph unicode="2" horiz-adv-x="1294" d="M90 0v182l508 430q128 107 183 190t55 173q0 116 -84.5 171.5t-219.5 55.5q-104 0 -208 -29t-177 -69v227q189 84 420 84q116 0 216.5 -24.5t182.5 -74t129.5 -134t47.5 -195.5q0 -64 -11 -119.5t-37 -105t-54 -88.5t-78 -85.5t-91 -80t-110 -86.5l-277 -211h676v-211 h-1071z" />
<glyph unicode="3" horiz-adv-x="1300" d="M111 55v224q76 -40 193.5 -68.5t225.5 -28.5q154 0 243 58.5t89 171.5q0 221 -348 221q-121 0 -162 -6v190l455 354h-676v213h1024v-196l-473 -373q96 -5 180.5 -30.5t154.5 -72t111 -122t41 -172.5q0 -145 -80 -247.5t-217 -152t-319 -49.5q-253 0 -442 86z" />
<glyph unicode="4" horiz-adv-x="1357" d="M33 348v211l743 825h344v-827h178v-209h-178v-348h-278v348h-809zM332 557h510v567z" />
<glyph unicode="5" horiz-adv-x="1359" d="M135 55v224q78 -39 202 -68t232 -29q148 0 237 58.5t89 183.5q0 66 -27.5 113t-77 73t-108.5 37.5t-131 11.5q-160 0 -332 -43l-57 50l110 718h891v-213h-649l-49 -309q90 8 145 8q93 0 176 -13t160.5 -44.5t133 -79.5t89 -122.5t33.5 -168.5q0 -99 -32 -179t-87.5 -134 t-132.5 -90.5t-165.5 -53t-188.5 -16.5q-269 0 -461 86z" />
<glyph unicode="6" horiz-adv-x="1429" d="M102 657q0 165 39.5 296t106.5 216.5t161.5 141.5t198.5 80t223 24q234 0 394 -65v-224q-68 32 -167.5 54t-209.5 22q-444 0 -447 -432q65 49 162.5 82t210.5 33q105 0 198 -25t168 -75t119 -134t44 -194q0 -218 -157 -353t-429 -135q-284 0 -449.5 177t-165.5 511z M408 547q0 -166 85.5 -265.5t225.5 -99.5q126 0 206.5 66.5t80.5 185.5t-75 177.5t-208 58.5q-94 0 -182.5 -36t-132.5 -87z" />
<glyph unicode="7" horiz-adv-x="1210" d="M63 1171v213h1100v-196q-174 -167 -292 -332.5t-202.5 -379.5t-123.5 -476h-318q52 353 208.5 655.5t377.5 515.5h-750z" />
<glyph unicode="8" horiz-adv-x="1476" d="M127 377q0 141 71.5 220.5t204.5 125.5q-51 20 -90 44.5t-75 61.5t-56 90t-20 119q0 169 160.5 273t416.5 104q255 0 415.5 -104t160.5 -273q0 -66 -20 -119t-56.5 -90t-75.5 -61t-90 -45q64 -22 111.5 -49.5t87 -68t60 -98t20.5 -130.5q0 -174 -166 -291t-447 -117 q-282 0 -447 116.5t-165 291.5zM436 395q0 -104 86 -158.5t217 -54.5q84 0 150.5 22.5t108.5 71.5t42 119q0 109 -84.5 162t-216.5 53q-133 0 -218 -53t-85 -162zM471 1014q0 -50 21.5 -87.5t59.5 -59t84.5 -32t102.5 -10.5q55 0 101.5 10.5t84.5 32t59.5 59t21.5 87.5 q0 95 -75 141.5t-192 46.5q-76 0 -134.5 -18t-96 -61.5t-37.5 -108.5z" />
<glyph unicode="9" horiz-adv-x="1429" d="M109 928q0 215 160.5 351t420.5 136q288 0 453.5 -178.5t165.5 -501.5q0 -140 -27 -256t-76.5 -198.5t-115.5 -143.5t-148.5 -97.5t-170 -53.5t-185.5 -17q-224 0 -400 70v223q176 -80 379 -80q97 0 174.5 23t139 72t96 134t37.5 201q-64 -48 -161 -80t-210 -32 q-106 0 -198.5 25t-168.5 74.5t-120.5 134t-44.5 194.5zM406 950q0 -119 77 -178t211 -59q91 0 179 36.5t131 86.5q0 175 -83 270.5t-225 95.5q-124 0 -207 -67.5t-83 -184.5z" />
<glyph unicode=":" horiz-adv-x="663" d="M184 0v250h293v-250h-293zM184 723v250h293v-250h-293z" />
<glyph unicode=";" horiz-adv-x="663" d="M-16 -242q117 57 173 133t56 177q0 95 -33 182h269q28 -83 28 -178q0 -165 -105 -294t-296 -198zM184 723v250h293v-250h-293z" />
<glyph unicode="&#x3c;" horiz-adv-x="1392" d="M135 545v188l1122 412v-203l-860 -303l860 -303v-205z" />
<glyph unicode="=" horiz-adv-x="1392" d="M135 309v195h1122v-195h-1122zM135 768v195h1122v-195h-1122z" />
<glyph unicode="&#x3e;" horiz-adv-x="1392" d="M135 131v205l860 303l-860 303v203l1122 -412v-188z" />
<glyph unicode="?" horiz-adv-x="1030" d="M131 1139v223q120 53 315 53q76 0 144 -12t129.5 -38.5t106 -66.5t70.5 -100t26 -135q0 -71 -24.5 -131.5t-61 -99.5t-79.5 -77.5t-79.5 -68.5t-61 -70t-24.5 -84v-118h-264v143q0 60 16.5 110t43 85t58 65t63.5 55.5t58.5 51t43 58t16.5 69.5q0 79 -61.5 114t-159.5 35 q-70 0 -147.5 -18t-127.5 -43zM313 0v248h293v-248h-293z" />
<glyph unicode="@" horiz-adv-x="1875" d="M106 526q0 156 67.5 287.5t183 219t269 136t324.5 48.5q243 0 429.5 -77.5t288 -219t101.5 -326.5q0 -199 -98.5 -311.5t-286.5 -112.5q-173 0 -237 98q-104 -98 -254 -98q-151 0 -248.5 87.5t-97.5 242.5q0 88 33.5 154.5t91 105.5t128.5 58.5t152 19.5q177 0 324 -72 v-297q0 -141 139 -141q80 0 129 62.5t49 199.5q0 218 -175 344.5t-468 126.5q-140 0 -260 -35t-210.5 -101t-142.5 -168.5t-52 -230.5q0 -124 36 -222.5t98.5 -163.5t150 -107.5t186 -61t211.5 -18.5q273 0 483 70v-158q-207 -70 -487 -70q-140 0 -264.5 26t-234 83 t-188.5 140.5t-124.5 207t-45.5 274.5zM752 504q0 -86 45.5 -131t122.5 -45q59 0 101.5 32t61.5 78v215q-61 25 -133 25q-88 0 -143 -41t-55 -133z" />
<glyph unicode="A" horiz-adv-x="1546" d="M-14 0l653 1384h270l652 -1384h-322l-133 289h-703l-133 -289h-284zM498 496h514l-256 571z" />
<glyph unicode="B" horiz-adv-x="1554" d="M246 0v1384h530q304 0 463.5 -96t159.5 -270q0 -123 -77.5 -200t-191.5 -107q133 -26 220.5 -104t87.5 -210q0 -192 -175.5 -294.5t-486.5 -102.5h-530zM541 211h237q168 0 261.5 47.5t93.5 147.5q0 194 -351 194h-241v-389zM541 805h213q165 0 251.5 43.5t86.5 142.5 t-83.5 139.5t-250.5 40.5h-217v-366z" />
<glyph unicode="C" horiz-adv-x="1533" d="M123 692q0 158 57 291t162 229t262.5 149.5t351.5 53.5q130 0 248 -19.5t189 -52.5v-219q-75 35 -184.5 56.5t-229.5 21.5q-252 0 -400.5 -135.5t-148.5 -374.5t148.5 -374.5t400.5 -135.5q237 0 426 92v-219q-183 -86 -447 -86q-195 0 -353 53.5t-263 149.5t-162 229 t-57 291z" />
<glyph unicode="D" horiz-adv-x="1789" d="M246 0v1384h557q408 0 636 -179t228 -513q0 -336 -228 -514t-636 -178h-557zM541 211h250q273 0 421 117t148 364q0 246 -148.5 362.5t-420.5 116.5h-250v-960z" />
<glyph unicode="E" horiz-adv-x="1437" d="M225 354v1030h1035v-213h-740v-360h666v-211h-666v-246q0 -74 37 -108.5t123 -34.5h612v-211h-661q-211 0 -308.5 88.5t-97.5 265.5z" />
<glyph unicode="F" horiz-adv-x="1415" d="M246 0v1384h1028v-213h-733v-395h657v-211h-657v-565h-295z" />
<glyph unicode="G" horiz-adv-x="1902" d="M123 692q0 153 51 276.5t137.5 205.5t206 137.5t250.5 79.5t276 24q342 0 603 -110v-228q-117 54 -275 89.5t-321 35.5q-100 0 -187.5 -15.5t-168.5 -53.5t-138.5 -95t-92 -145.5t-34.5 -200.5q0 -128 45.5 -227.5t125.5 -160t183 -91.5t224 -31q218 0 397 74v317h-440 v209h725v-647q-125 -68 -312 -117t-389 -49q-182 0 -337.5 45.5t-274.5 133t-186.5 227t-67.5 317.5z" />
<glyph unicode="H" horiz-adv-x="1898" d="M246 0v1384h295v-565h817v565h295v-1384h-295v602h-817v-602h-295z" />
<glyph unicode="I" horiz-adv-x="786" d="M246 0v1384h295v-1384h-295z" />
<glyph unicode="J" horiz-adv-x="989" d="M63 14v219q116 -51 222 -51q100 0 143 43.5t43 143.5v1015h295v-1001q0 -208 -112.5 -311t-323.5 -103q-143 0 -267 45z" />
<glyph unicode="K" horiz-adv-x="1583" d="M246 0v1384h295v-591l676 591h346l-752 -661l772 -723h-379l-663 616v-616h-295z" />
<glyph unicode="L" horiz-adv-x="1288" d="M225 354v1030h295v-1030q0 -74 37.5 -108.5t124.5 -34.5h565v-211h-614q-212 0 -310 88t-98 266z" />
<glyph unicode="M" horiz-adv-x="2265" d="M246 0v1384h303l584 -856l583 856h303v-1384h-290v950l-463 -682h-267l-462 682v-950h-291z" />
<glyph unicode="N" horiz-adv-x="1878" d="M246 0v1384h256l846 -972v972h284v-1384h-254l-848 971v-971h-284z" />
<glyph unicode="O" horiz-adv-x="1953" d="M123 692q0 221 107 385.5t300 251t447 86.5t447 -86.5t300 -251t107 -385.5t-107 -385.5t-300 -251t-447 -86.5t-447 86.5t-300 251t-107 385.5zM430 692q0 -233 144.5 -371.5t402.5 -138.5t402.5 138.5t144.5 371.5t-144.5 371.5t-402.5 138.5t-402.5 -138.5 t-144.5 -371.5z" />
<glyph unicode="P" horiz-adv-x="1576" d="M246 0v1384h551q309 0 482 -116t173 -334q0 -220 -174 -335.5t-481 -115.5h-256v-483h-295zM541 696h256q160 0 255 57t95 181q0 84 -47 138.5t-123 76.5t-180 22h-256v-475z" />
<glyph unicode="Q" horiz-adv-x="1953" d="M123 692q0 221 107 385.5t300 251t447 86.5t447 -86.5t300 -251t107 -385.5q0 -262 -148.5 -442.5t-408.5 -245.5l350 -338h-360l-256 303h-31q-254 0 -447 86.5t-300 251t-107 385.5zM430 692q0 -233 144.5 -371.5t402.5 -138.5t402.5 138.5t144.5 371.5t-144.5 371.5 t-402.5 138.5t-402.5 -138.5t-144.5 -371.5z" />
<glyph unicode="R" horiz-adv-x="1552" d="M246 0v1384h551q309 0 482 -116t173 -334q0 -159 -99.5 -258.5t-285.5 -136.5l426 -539h-338l-375 483h-239v-483h-295zM541 696h256q160 0 255 57t95 181q0 84 -47 138.5t-123 76.5t-180 22h-256v-475z" />
<glyph unicode="S" horiz-adv-x="1372" d="M156 1001q0 133 80.5 228t215 140.5t308.5 45.5q244 0 416 -72v-219q-63 31 -172 54.5t-220 23.5q-67 0 -122.5 -9.5t-101.5 -30.5t-71.5 -58t-25.5 -88q0 -42 26 -74t70.5 -52.5t102 -37.5t121 -34t127 -37.5t121 -52t102 -72.5t70.5 -105t26 -145q0 -95 -33 -171 t-88.5 -125t-132.5 -81.5t-160 -46t-176 -13.5q-128 0 -252 25t-217 67v222q94 -43 214.5 -72t236.5 -29q132 0 216.5 44.5t84.5 140.5q0 50 -26 86.5t-70.5 60t-102 42t-121 35.5t-127 37t-121 50.5t-102 71.5t-70.5 105t-26 146z" />
<glyph unicode="T" horiz-adv-x="1431" d="M41 1171v213h1350v-213h-529v-1171h-295v1171h-526z" />
<glyph unicode="U" horiz-adv-x="1705" d="M205 498v886h295v-886q0 -159 96.5 -237.5t257.5 -78.5t259.5 79t98.5 237v886h289v-886q0 -169 -85.5 -290.5t-230 -180t-331.5 -58.5t-332 58.5t-231 180t-86 290.5z" />
<glyph unicode="V" horiz-adv-x="1570" d="M0 1384h317l486 -1067l483 1067h285l-664 -1384h-260z" />
<glyph unicode="W" horiz-adv-x="2375" d="M10 1384h307l334 -1071l400 1071h274l399 -1071l334 1071h307l-456 -1384h-318l-403 1063l-404 -1063h-317z" />
<glyph unicode="X" horiz-adv-x="1525" d="M10 0l588 702l-557 682h340l391 -471l393 471h322l-559 -667l588 -717h-340l-418 508l-424 -508h-324z" />
<glyph unicode="Y" horiz-adv-x="1466" d="M0 1384h328l420 -602l419 602h299l-587 -833v-551h-295v551z" />
<glyph unicode="Z" horiz-adv-x="1462" d="M92 0v182l901 989h-882v213h1239v-194l-885 -979h907v-211h-1280z" />
<glyph unicode="[" horiz-adv-x="804" d="M246 -389v1843h504v-209h-265v-1423h265v-211h-504z" />
<glyph unicode="\" horiz-adv-x="905" d="M0 1384h231l674 -1384h-231z" />
<glyph unicode="]" horiz-adv-x="804" d="M53 -178h264v1423h-264v209h504v-1843h-504v211z" />
<glyph unicode="^" horiz-adv-x="1392" d="M104 489l502 895h180l502 -895h-233l-359 644l-358 -644h-234z" />
<glyph unicode="_" horiz-adv-x="1439" d="M51 -31h1338v-176h-1338v176z" />
<glyph unicode="`" horiz-adv-x="1228" d="M317 1454h304l184 -309h-207z" />
<glyph unicode="a" d="M102 473q0 128 46 229.5t129 167t196 100t248 34.5q222 0 450 -74v-930h-219l-20 96q-75 -63 -152.5 -95t-181.5 -32q-98 0 -185 31t-157.5 90.5t-112 158.5t-41.5 224zM379 483q0 -153 76.5 -227t203.5 -74q144 0 240 90v504q-83 25 -172 25q-71 0 -131.5 -17.5 t-110 -53.5t-78 -99.5t-28.5 -147.5z" />
<glyph unicode="b" horiz-adv-x="1361" d="M188 57v1397h273v-522q140 72 291 72q101 0 189.5 -29.5t160 -88.5t113.5 -158t42 -226q0 -250 -161.5 -391.5t-440.5 -141.5q-287 0 -467 88zM461 199q74 -27 182 -27q71 0 130 17t106.5 53.5t74.5 99t27 147.5q0 152 -78 232t-201 80q-127 0 -241 -84v-518z" />
<glyph unicode="c" horiz-adv-x="1157" d="M102 487q0 235 162.5 376t440.5 141q184 0 309 -52v-213q-136 62 -287 62q-163 0 -254.5 -82.5t-91.5 -233.5q0 -149 91.5 -231t252.5 -82q159 0 301 74v-215q-134 -62 -334 -62q-274 0 -432 145t-158 373z" />
<glyph unicode="d" d="M102 473q0 170 81.5 291.5t220 180.5t319.5 59q89 0 176 -19v469h272v-1454h-221l-18 96q-130 -127 -334 -127q-98 0 -185 31t-157.5 90.5t-112 158.5t-41.5 224zM379 483q0 -153 76.5 -227t203.5 -74q144 0 240 90v504q-80 25 -170 25q-71 0 -132 -17t-111 -53 t-78.5 -99.5t-28.5 -148.5z" />
<glyph unicode="e" horiz-adv-x="1308" d="M104 489q0 159 73.5 276.5t200.5 178t292 60.5q135 0 240.5 -38t169 -103t96 -144.5t32.5 -167.5v-162h-811q16 -78 72 -128.5t130 -69.5t169 -19q106 0 217 22t189 56v-205q-75 -35 -197.5 -55.5t-237.5 -20.5q-303 0 -469 137t-166 383zM391 575h539q-3 110 -75 168 t-191 58q-117 0 -187.5 -56.5t-85.5 -169.5z" />
<glyph unicode="f" horiz-adv-x="796" d="M53 772v201h160v133q0 98 34 172.5t94 118.5t135 66t163 22q84 0 158 -19v-209q-58 17 -123 17q-189 0 -189 -170v-131h295v-201h-295v-772h-272v772h-160z" />
<glyph unicode="g" d="M102 483q0 163 81 282.5t220 179t318 59.5q231 0 450 -72v-905q0 -150 -72 -251.5t-196 -148.5t-295 -47q-256 0 -444 84v223q79 -44 192 -74t228 -30q317 0 317 237v68q-119 -96 -303 -96q-98 0 -185 29t-157.5 86t-112 154t-41.5 222zM381 496q0 -150 74.5 -223.5 t208.5 -73.5q141 0 237 90v487q-89 25 -174 25q-71 0 -131 -16.5t-109.5 -51t-77.5 -95.5t-28 -142z" />
<glyph unicode="h" horiz-adv-x="1386" d="M193 0v1454h272v-555q146 105 338 105q86 0 159 -22t129 -65.5t87.5 -114t31.5 -161.5v-641h-272v623q0 168 -205 168q-140 0 -268 -86v-705h-272z" />
<glyph unicode="i" horiz-adv-x="657" d="M193 0v973h272v-973h-272zM193 1176v239h272v-239h-272z" />
<glyph unicode="j" horiz-adv-x="657" d="M-29 -176q67 -29 125 -29q97 0 97 96v1082h272v-1036q0 -179 -70.5 -268t-234.5 -89q-104 0 -189 33v211zM193 1176v239h272v-239h-272z" />
<glyph unicode="k" horiz-adv-x="1261" d="M188 0v1454h273v-852l448 371h330l-526 -430l549 -543h-340l-461 451v-451h-273z" />
<glyph unicode="l" horiz-adv-x="720" d="M172 305v1149h272v-1175q0 -97 97 -97q56 0 127 29v-211q-95 -31 -191 -31q-163 0 -234 82.5t-71 253.5z" />
<glyph unicode="m" horiz-adv-x="2105" d="M193 0v973h243l17 -82q165 113 338 113q223 0 339 -144q182 144 406 144q179 0 286 -95.5t107 -273.5v-635h-272v606q0 87 -60 131.5t-147 44.5q-140 0 -260 -82q6 -27 6 -65v-635h-272v606q0 90 -57.5 133t-147.5 43q-136 0 -254 -77v-705h-272z" />
<glyph unicode="n" horiz-adv-x="1406" d="M193 0v973h243l17 -82q70 53 164 83t194 30q185 0 302.5 -99t117.5 -291v-614h-273v594q0 95 -64.5 141.5t-160.5 46.5q-148 0 -268 -77v-705h-272z" />
<glyph unicode="o" horiz-adv-x="1404" d="M102 487q0 239 165 378t435 139t435.5 -139t165.5 -378t-165.5 -378.5t-435.5 -139.5t-435 139.5t-165 378.5zM381 487q0 -146 88.5 -230.5t232.5 -84.5q145 0 233.5 84.5t88.5 230.5t-88.5 230t-233.5 84t-233 -84t-88 -230z" />
<glyph unicode="p" d="M193 -389v1362h243l17 -80q133 111 315 111q96 0 182.5 -31t157 -91t112.5 -160.5t42 -227.5q0 -162 -78 -282.5t-208.5 -181.5t-293.5 -61q-97 0 -217 19v-377h-272zM465 199q74 -27 182 -27q149 0 243.5 76t94.5 237q0 154 -77.5 235t-202.5 81q-140 0 -240 -94v-508z " />
<glyph unicode="q" d="M102 473q0 128 46 229.5t129 167t196 100t248 34.5q222 0 450 -74v-1319h-272v459q-131 -101 -301 -101q-98 0 -185 31t-157.5 90.5t-112 158.5t-41.5 224zM379 483q0 -153 76.5 -227t203.5 -74q144 0 240 90v504q-83 25 -172 25q-71 0 -131.5 -17.5t-110 -53.5 t-78 -99.5t-28.5 -147.5z" />
<glyph unicode="r" horiz-adv-x="897" d="M193 0v973h245l17 -135q200 166 397 166v-244q-99 0 -203 -30t-184 -87v-643h-272z" />
<glyph unicode="s" horiz-adv-x="1142" d="M109 676q0 85 41 149.5t113 102.5t162 57t196 19q224 0 372 -56v-209q-56 24 -158.5 43t-199.5 19q-250 0 -250 -103q0 -32 36 -52t93.5 -30.5t126.5 -21t138.5 -30t127 -49.5t93.5 -87t36 -137q0 -84 -39 -147.5t-107.5 -100.5t-155 -55.5t-189.5 -18.5q-234 0 -418 80 v213q65 -35 184 -62.5t230 -27.5q49 0 87 5t69.5 16.5t48 33t16.5 52.5q0 34 -36 55.5t-93.5 33.5t-127 22.5t-139.5 29t-127.5 47t-93.5 82t-36 127.5z" />
<glyph unicode="t" horiz-adv-x="890" d="M55 772v201h160l39 309h233v-309h320v-201h-320v-455q0 -135 144 -135q92 0 192 51v-210q-103 -54 -260 -54q-348 0 -348 336v467h-160z" />
<glyph unicode="u" horiz-adv-x="1353" d="M166 356v617h272v-600q0 -94 53 -142.5t152 -48.5q137 0 248 103v688h270v-973h-221l-20 96q-152 -127 -347 -127t-301 99t-106 288z" />
<glyph unicode="v" horiz-adv-x="1191" d="M14 973h289l299 -699l301 699h275l-457 -973h-266z" />
<glyph unicode="w" horiz-adv-x="1914" d="M20 973h281q35 -100 115 -332.5t123 -355.5l276 688h287q39 -98 131.5 -331t142.5 -357q109 310 238 688h280q-83 -223 -368 -973h-266l-302 715l-301 -715h-268z" />
<glyph unicode="x" horiz-adv-x="1177" d="M18 0l404 489l-397 484h325l244 -307l246 307h305l-395 -484l407 -489h-326l-256 311l-253 -311h-304z" />
<glyph unicode="y" horiz-adv-x="1353" d="M166 381v592h272v-576q0 -96 53.5 -144t151.5 -48q143 0 248 102v666h270v-944q0 -114 -42 -201.5t-116.5 -141t-170.5 -80t-211 -26.5q-218 0 -404 74v223q69 -40 172 -68t209 -28q293 0 293 242v73q-145 -104 -318 -104q-196 0 -301.5 99t-105.5 290z" />
<glyph unicode="z" horiz-adv-x="1159" d="M113 0v156l557 622h-553v195h911v-160l-553 -618h567v-195h-929z" />
<glyph unicode="{" horiz-adv-x="804" d="M35 430v209q44 12 67 19t53.5 18.5t45.5 21.5t32.5 25.5t25 33.5t12.5 43t5 56v219q0 90 19.5 156.5t65.5 118t128 78t201 26.5h72v-209h-78q-93 0 -127.5 -43.5t-34.5 -126.5v-219q0 -144 -73 -219.5t-201 -104.5q128 -29 201 -104t73 -219v-219q0 -83 34.5 -125.5 t127.5 -42.5h78v-211h-72q-119 0 -201 26.5t-128 78t-65.5 118t-19.5 156.5v219q0 37 -5 63.5t-21 48t-30.5 35t-48.5 28t-58.5 22.5t-77.5 24z" />
<glyph unicode="|" horiz-adv-x="675" d="M236 -389v2027h204v-2027h-204z" />
<glyph unicode="}" horiz-adv-x="804" d="M43 -178h78q93 0 127.5 42.5t34.5 125.5v219q0 144 73 219t201 104q-128 29 -201 104.5t-73 219.5v219q0 83 -34.5 126.5t-127.5 43.5h-78v209h72q119 0 201 -26.5t127.5 -78t65 -118t19.5 -156.5v-219q0 -31 5.5 -56t12.5 -43t25 -33.5t32.5 -25.5t45.5 -21.5t54 -18.5 t67 -19v-209q-46 -14 -67.5 -21t-53.5 -19t-45.5 -22t-32 -26t-25.5 -34t-12.5 -43t-5.5 -56v-219q0 -90 -19.5 -156.5t-65 -118t-127.5 -78t-201 -26.5h-72v211z" />
<glyph unicode="~" horiz-adv-x="1392" d="M111 477q0 145 77.5 234.5t225.5 89.5q70 0 183.5 -33.5t220 -66.5t159.5 -33q54 0 77 32.5t23 94.5h203q0 -145 -77 -234.5t-224 -89.5q-70 0 -184 33.5t-220.5 66.5t-160.5 33q-101 0 -101 -127h-202z" />
<glyph unicode="&#xa1;" horiz-adv-x="765" d="M223 -389l37 954h244l37 -954h-318zM236 723v250h292v-250h-292z" />
<glyph unicode="&#xa2;" horiz-adv-x="1271" d="M100 690q0 229 131.5 390.5t370.5 203.5v307h191v-293q198 -3 329 -63v-217q-165 63 -327 63q-85 0 -156 -21t-129.5 -65t-91.5 -122t-33 -183q0 -103 31 -181t87 -124.5t128 -69t160 -22.5q163 0 344 74v-215q-61 -31 -152 -51t-190 -23v-303h-191v317 q-239 43 -370.5 205.5t-131.5 392.5z" />
<glyph unicode="&#xa3;" horiz-adv-x="1249" d="M59 621v170h191q-35 107 -35 200q0 131 76 229t199 146.5t274 48.5q212 0 371 -67v-220q-59 30 -155 52t-196 22q-134 0 -211 -50.5t-77 -156.5q0 -96 43 -204h491v-170h-430q21 -95 21 -142q0 -90 -38 -152t-128 -116h706v-211h-1055v182q126 56 180 120.5t54 162.5 q0 60 -29 156h-252z" />
<glyph unicode="&#xa5;" horiz-adv-x="1312" d="M14 1384h308l352 -567l350 567h274l-446 -677h309v-125h-358v-209h358v-125h-358v-248h-295v248h-358v125h358v209h-358v125h307z" />
<glyph unicode="&#xa8;" horiz-adv-x="1228" d="M274 1188v227h244v-227h-244zM711 1188v227h241v-227h-241z" />
<glyph unicode="&#xa9;" horiz-adv-x="1976" d="M145 690q0 154 63 288.5t173 230.5t267 151t339 55t339 -55t267 -151t173 -230.5t63 -288.5t-63 -288t-173 -229t-267 -149.5t-339 -54.5t-339 54.5t-267 149.5t-173 229t-63 288zM276 690q0 -174 91 -312.5t253.5 -216t366.5 -77.5t366.5 77.5t253.5 216t91 312.5 t-91 313.5t-253.5 218t-366.5 78.5t-366.5 -78.5t-253.5 -218t-91 -313.5zM547 692q0 83 27 152t73 116.5t109.5 80.5t136 48t151.5 15q166 0 275 -49v-178q-99 55 -254 55q-138 0 -210.5 -61t-72.5 -179q0 -111 73.5 -173t211.5 -62q146 0 268 73v-184q-124 -65 -276 -65 q-240 0 -376 111t-136 300z" />
<glyph unicode="&#xab;" horiz-adv-x="1327" d="M66 508l368 407h244l-332 -407l332 -408h-244zM649 508l369 407h244l-332 -407l332 -408h-244z" />
<glyph unicode="&#xad;" horiz-adv-x="966" d="M170 473v211h627v-211h-627z" />
<glyph unicode="&#xae;" horiz-adv-x="1310" d="M150 973q0 191 141.5 316.5t361.5 125.5t362 -125.5t142 -316.5t-142 -317t-362 -126t-361.5 125.5t-141.5 317.5zM250 973q0 -158 112 -257.5t291 -99.5t291.5 99.5t112.5 257.5t-112.5 257t-291.5 99t-291 -99t-112 -257zM442 760v442h232q107 0 169 -36t62 -101 q0 -49 -29 -78.5t-92 -44.5l142 -182h-172l-113 160h-43v-160h-156zM598 1010h68q75 0 75 53t-75 53h-68v-106z" />
<glyph unicode="&#xb4;" horiz-adv-x="1228" d="M391 1145l184 309h304l-281 -309h-207z" />
<glyph unicode="&#xb8;" horiz-adv-x="1228" d="M406 -293q64 -29 137 -29q98 0 98 60q0 59 -104 59h-76l76 203h159l-32 -104q91 -12 137.5 -55t46.5 -124q0 -79 -74 -126.5t-209 -47.5q-97 0 -159 27v137z" />
<glyph unicode="&#xbb;" horiz-adv-x="1329" d="M66 100l331 408l-331 407h243l369 -407l-369 -408h-243zM651 100l332 408l-332 407h244l369 -407l-369 -408h-244z" />
<glyph unicode="&#xbf;" horiz-adv-x="843" d="M4 -68q0 84 34 152.5t82 112.5t96 83.5t82 85t34 97.5v96h264v-121q0 -60 -16.5 -110t-43 -85t-58 -64.5t-63.5 -55.5t-58.5 -51t-43 -57.5t-16.5 -69.5q0 -79 61.5 -114.5t159.5 -35.5q70 0 147 18.5t128 43.5v-224q-120 -53 -316 -53q-76 0 -144 12t-129 38.5 t-104.5 66.5t-69.5 100t-26 135zM317 725v248h293v-248h-293z" />
<glyph unicode="&#xc0;" horiz-adv-x="1546" d="M-14 0l653 1384h270l652 -1384h-322l-133 289h-703l-133 -289h-284zM391 1833h303l185 -309h-207zM498 496h514l-256 571z" />
<glyph unicode="&#xc1;" horiz-adv-x="1546" d="M-14 0l653 1384h270l652 -1384h-322l-133 289h-703l-133 -289h-284zM498 496h514l-256 571zM672 1524l184 309h303l-280 -309h-207z" />
<glyph unicode="&#xc2;" horiz-adv-x="1546" d="M-14 0l653 1384h270l652 -1384h-322l-133 289h-703l-133 -289h-284zM397 1524l236 309h278l236 -309h-223l-152 168l-151 -168h-224zM498 496h514l-256 571z" />
<glyph unicode="&#xc3;" horiz-adv-x="1546" d="M-14 0l653 1384h270l652 -1384h-322l-133 289h-703l-133 -289h-284zM373 1538q0 59 12.5 108.5t39.5 90t75 63.5t112 23q60 0 122 -28.5t112.5 -56.5t83.5 -28q65 0 65 109h179q0 -59 -12.5 -108.5t-39.5 -90t-74.5 -63.5t-111.5 -23q-48 0 -97 17.5t-81.5 39t-71 39 t-68.5 17.5q-65 0 -65 -109h-180zM498 496h514l-256 571z" />
<glyph unicode="&#xc4;" horiz-adv-x="1546" d="M-14 0l653 1384h270l652 -1384h-322l-133 289h-703l-133 -289h-284zM434 1565v227h244v-227h-244zM498 496h514l-256 571zM870 1565v227h242v-227h-242z" />
<glyph unicode="&#xc5;" horiz-adv-x="1546" d="M-14 0l653 1384h270l652 -1384h-322l-133 289h-703l-133 -289h-284zM498 496h514l-256 571zM506 1681q0 89 74 137t192 48t192 -48t74 -137q0 -92 -74 -140t-192 -48t-192 48t-74 140zM659 1679q0 -41 30.5 -63.5t82.5 -22.5t82.5 22.5t30.5 63.5t-30.5 63.5t-82.5 22.5 t-82.5 -22.5t-30.5 -63.5z" />
<glyph unicode="&#xc6;" horiz-adv-x="2250" d="M-80 0l954 1384h1192v-213h-739v-360h666v-211h-666v-246q0 -74 37 -108.5t123 -34.5h618v-211h-667q-191 0 -289 72t-113 217h-602l-198 -289h-316zM571 496h461v675z" />
<glyph unicode="&#xc7;" horiz-adv-x="1533" d="M123 692q0 158 57 291t162 229t262.5 149.5t351.5 53.5q130 0 248 -19.5t189 -52.5v-219q-75 35 -184.5 56.5t-229.5 21.5q-252 0 -400.5 -135.5t-148.5 -374.5t148.5 -374.5t400.5 -135.5q237 0 426 92v-219q-183 -86 -447 -86q-12 0 -32.5 1t-30.5 1l-23 -75 q185 -25 185 -179q0 -79 -74 -126.5t-209 -47.5q-98 0 -160 27v137q64 -29 138 -29q98 0 98 60q0 59 -105 59h-75l71 191q-293 53 -455.5 242t-162.5 462z" />
<glyph unicode="&#xc8;" horiz-adv-x="1437" d="M225 354v1030h1035v-213h-740v-360h666v-211h-666v-246q0 -74 37 -108.5t123 -34.5h612v-211h-661q-211 0 -308.5 88.5t-97.5 265.5zM395 1833h303l185 -309h-207z" />
<glyph unicode="&#xc9;" horiz-adv-x="1437" d="M225 354v1030h1035v-213h-740v-360h666v-211h-666v-246q0 -74 37 -108.5t123 -34.5h612v-211h-661q-211 0 -308.5 88.5t-97.5 265.5zM616 1524l185 309h303l-281 -309h-207z" />
<glyph unicode="&#xca;" horiz-adv-x="1437" d="M225 354v1030h1035v-213h-740v-360h666v-211h-666v-246q0 -74 37 -108.5t123 -34.5h612v-211h-661q-211 0 -308.5 88.5t-97.5 265.5zM367 1524l235 309h279l235 -309h-223l-152 168l-151 -168h-223z" />
<glyph unicode="&#xcb;" horiz-adv-x="1437" d="M225 354v1030h1035v-213h-740v-360h666v-211h-666v-246q0 -74 37 -108.5t123 -34.5h612v-211h-661q-211 0 -308.5 88.5t-97.5 265.5zM403 1565v227h244v-227h-244zM840 1565v227h241v-227h-241z" />
<glyph unicode="&#xcc;" horiz-adv-x="786" d="M16 1833h303l185 -309h-207zM246 0v1384h295v-1384h-295z" />
<glyph unicode="&#xcd;" horiz-adv-x="786" d="M246 0v1384h295v-1384h-295zM289 1524l184 309h303l-280 -309h-207z" />
<glyph unicode="&#xce;" horiz-adv-x="786" d="M20 1524l236 309h279l235 -309h-223l-152 168l-151 -168h-224zM246 0v1384h295v-1384h-295z" />
<glyph unicode="&#xcf;" horiz-adv-x="786" d="M57 1567v227h244v-227h-244zM246 0v1384h295v-1384h-295zM494 1567v227h241v-227h-241z" />
<glyph unicode="&#xd0;" horiz-adv-x="1798" d="M53 614v199h193v571h557q408 0 636 -179t228 -513q0 -336 -228 -514t-636 -178h-557v614h-193zM541 211h250q273 0 421 117t148 364q0 246 -148.5 362.5t-420.5 116.5h-250v-358h411v-199h-411v-403z" />
<glyph unicode="&#xd1;" horiz-adv-x="1878" d="M246 0v1384h256l846 -972v972h284v-1384h-254l-848 971v-971h-284zM537 1538q0 59 12.5 108.5t39.5 90t75 63.5t112 23q60 0 122 -28.5t112.5 -56.5t83.5 -28q65 0 65 109h178q0 -125 -56.5 -205t-180.5 -80q-48 0 -97 17.5t-81.5 39t-71 39t-68.5 17.5q-65 0 -65 -109 h-180z" />
<glyph unicode="&#xd2;" horiz-adv-x="1953" d="M123 692q0 221 107 385.5t300 251t447 86.5t447 -86.5t300 -251t107 -385.5t-107 -385.5t-300 -251t-447 -86.5t-447 86.5t-300 251t-107 385.5zM430 692q0 -233 144.5 -371.5t402.5 -138.5t402.5 138.5t144.5 371.5t-144.5 371.5t-402.5 138.5t-402.5 -138.5 t-144.5 -371.5zM610 1833h303l185 -309h-207z" />
<glyph unicode="&#xd3;" horiz-adv-x="1953" d="M123 692q0 221 107 385.5t300 251t447 86.5t447 -86.5t300 -251t107 -385.5t-107 -385.5t-300 -251t-447 -86.5t-447 86.5t-300 251t-107 385.5zM430 692q0 -233 144.5 -371.5t402.5 -138.5t402.5 138.5t144.5 371.5t-144.5 371.5t-402.5 138.5t-402.5 -138.5 t-144.5 -371.5zM860 1524l184 309h304l-281 -309h-207z" />
<glyph unicode="&#xd4;" horiz-adv-x="1953" d="M123 692q0 221 107 385.5t300 251t447 86.5t447 -86.5t300 -251t107 -385.5t-107 -385.5t-300 -251t-447 -86.5t-447 86.5t-300 251t-107 385.5zM430 692q0 -233 144.5 -371.5t402.5 -138.5t402.5 138.5t144.5 371.5t-144.5 371.5t-402.5 138.5t-402.5 -138.5 t-144.5 -371.5zM602 1524l236 309h278l236 -309h-224l-151 168l-152 -168h-223z" />
<glyph unicode="&#xd5;" horiz-adv-x="1953" d="M123 692q0 221 107 385.5t300 251t447 86.5t447 -86.5t300 -251t107 -385.5t-107 -385.5t-300 -251t-447 -86.5t-447 86.5t-300 251t-107 385.5zM430 692q0 -233 144.5 -371.5t402.5 -138.5t402.5 138.5t144.5 371.5t-144.5 371.5t-402.5 138.5t-402.5 -138.5 t-144.5 -371.5zM575 1538q0 80 22 141.5t77.5 102.5t140.5 41q60 0 122 -28.5t112.5 -56.5t83.5 -28q65 0 65 109h178q0 -125 -56.5 -205t-180.5 -80q-48 0 -97 17.5t-81.5 39t-71 39t-68.5 17.5q-65 0 -65 -109h-181z" />
<glyph unicode="&#xd6;" horiz-adv-x="1953" d="M123 692q0 221 107 385.5t300 251t447 86.5t447 -86.5t300 -251t107 -385.5t-107 -385.5t-300 -251t-447 -86.5t-447 86.5t-300 251t-107 385.5zM430 692q0 -233 144.5 -371.5t402.5 -138.5t402.5 138.5t144.5 371.5t-144.5 371.5t-402.5 138.5t-402.5 -138.5 t-144.5 -371.5zM639 1565v227h244v-227h-244zM1075 1565v227h242v-227h-242z" />
<glyph unicode="&#xd8;" horiz-adv-x="1953" d="M123 692q0 221 107 385.5t300 251t447 86.5q264 0 463 -94l164 182l110 -100l-145 -160q126 -95 194 -235.5t68 -315.5q0 -221 -107 -385.5t-300 -251t-447 -86.5q-263 0 -471 97l-156 -172l-110 100l139 153q-123 95 -189.5 234t-66.5 311zM430 692q0 -218 125 -352 l721 797q-130 65 -299 65q-258 0 -402.5 -138.5t-144.5 -371.5zM672 250q130 -68 305 -68q258 0 402.5 138.5t144.5 371.5q0 225 -131 359z" />
<glyph unicode="&#xd9;" horiz-adv-x="1705" d="M205 498v886h295v-886q0 -159 96.5 -237.5t257.5 -78.5t259.5 79t98.5 237v886h289v-886q0 -169 -85.5 -290.5t-230 -180t-331.5 -58.5t-332 58.5t-231 180t-86 290.5zM481 1833h303l185 -309h-207z" />
<glyph unicode="&#xda;" horiz-adv-x="1705" d="M205 498v886h295v-886q0 -159 96.5 -237.5t257.5 -78.5t259.5 79t98.5 237v886h289v-886q0 -169 -85.5 -290.5t-230 -180t-331.5 -58.5t-332 58.5t-231 180t-86 290.5zM739 1524l185 309h303l-281 -309h-207z" />
<glyph unicode="&#xdb;" horiz-adv-x="1705" d="M205 498v886h295v-886q0 -159 96.5 -237.5t257.5 -78.5t259.5 79t98.5 237v886h289v-886q0 -169 -85.5 -290.5t-230 -180t-331.5 -58.5t-332 58.5t-231 180t-86 290.5zM479 1524l236 309h278l236 -309h-223l-152 168l-152 -168h-223z" />
<glyph unicode="&#xdc;" horiz-adv-x="1705" d="M205 498v886h295v-886q0 -159 96.5 -237.5t257.5 -78.5t259.5 79t98.5 237v886h289v-886q0 -169 -85.5 -290.5t-230 -180t-331.5 -58.5t-332 58.5t-231 180t-86 290.5zM506 1565v227h244v-227h-244zM942 1565v227h242v-227h-242z" />
<glyph unicode="&#xdd;" horiz-adv-x="1466" d="M0 1384h328l420 -602l419 602h299l-587 -833v-551h-295v551zM625 1524l184 309h303l-281 -309h-206z" />
<glyph unicode="&#xde;" horiz-adv-x="1576" d="M246 0v1384h295v-241h256q309 0 482 -116.5t173 -334.5q0 -220 -174 -335t-481 -115h-256v-242h-295zM541 455h256q104 0 180 22t123 76.5t47 138.5q0 124 -95 181t-255 57h-256v-475z" />
<glyph unicode="&#xdf;" horiz-adv-x="1392" d="M188 0v1083q0 82 29 150t77.5 114t114 77.5t137.5 46t148 14.5q208 0 341.5 -94.5t133.5 -251.5q0 -60 -19.5 -112.5t-47 -89t-55 -68t-47 -61.5t-19.5 -56q0 -27 26 -55.5t64.5 -53t83.5 -59.5t83.5 -72.5t64.5 -95t26 -123.5q0 -84 -33 -147.5t-91 -101.5t-130 -56.5 t-157 -18.5q-156 0 -277 45v211q133 -53 254 -53q74 0 119 27t45 84q0 34 -18.5 64t-47.5 53.5t-64.5 46.5t-71 50t-64.5 57t-47.5 73.5t-18.5 95.5q0 47 18.5 90t45.5 76t54 65.5t45.5 72t18.5 81.5q0 79 -61 127.5t-158 48.5q-93 0 -161 -50t-68 -144v-1090h-273z" />
<glyph unicode="&#xe0;" d="M102 473q0 128 46 229.5t129 167t196 100t248 34.5q222 0 450 -74v-930h-219l-20 96q-75 -63 -152.5 -95t-181.5 -32q-98 0 -185 31t-157.5 90.5t-112 158.5t-41.5 224zM317 1454h304l184 -309h-207zM379 483q0 -153 76.5 -227t203.5 -74q144 0 240 90v504 q-83 25 -172 25q-71 0 -131.5 -17.5t-110 -53.5t-78 -99.5t-28.5 -147.5z" />
<glyph unicode="&#xe1;" d="M102 473q0 128 46 229.5t129 167t196 100t248 34.5q222 0 450 -74v-930h-219l-20 96q-75 -63 -152.5 -95t-181.5 -32q-98 0 -185 31t-157.5 90.5t-112 158.5t-41.5 224zM379 483q0 -153 76.5 -227t203.5 -74q144 0 240 90v504q-83 25 -172 25q-71 0 -131.5 -17.5 t-110 -53.5t-78 -99.5t-28.5 -147.5zM539 1145l184 309h303l-281 -309h-206z" />
<glyph unicode="&#xe2;" d="M102 473q0 128 46 229.5t129 167t196 100t248 34.5q222 0 450 -74v-930h-219l-20 96q-75 -63 -152.5 -95t-181.5 -32q-98 0 -185 31t-157.5 90.5t-112 158.5t-41.5 224zM283 1145l235 309h279l235 -309h-223l-152 168l-151 -168h-223zM379 483q0 -153 76.5 -227 t203.5 -74q144 0 240 90v504q-83 25 -172 25q-71 0 -131.5 -17.5t-110 -53.5t-78 -99.5t-28.5 -147.5z" />
<glyph unicode="&#xe3;" d="M102 473q0 128 46 229.5t129 167t196 100t248 34.5q222 0 450 -74v-930h-219l-20 96q-75 -63 -152.5 -95t-181.5 -32q-98 0 -185 31t-157.5 90.5t-112 158.5t-41.5 224zM256 1159q0 80 22 141.5t77.5 102.5t140.5 41q48 0 97 -17.5t83 -39t72 -39t65 -17.5q66 0 66 109 h178q0 -59 -12.5 -108.5t-39.5 -90t-74.5 -63.5t-111.5 -23q-48 0 -96.5 17.5t-81 39t-71 39t-68.5 17.5q-66 0 -66 -109h-180zM379 483q0 -153 76.5 -227t203.5 -74q144 0 240 90v504q-83 25 -172 25q-71 0 -131.5 -17.5t-110 -53.5t-78 -99.5t-28.5 -147.5z" />
<glyph unicode="&#xe4;" d="M102 473q0 128 46 229.5t129 167t196 100t248 34.5q222 0 450 -74v-930h-219l-20 96q-75 -63 -152.5 -95t-181.5 -32q-98 0 -185 31t-157.5 90.5t-112 158.5t-41.5 224zM319 1188v227h244v-227h-244zM379 483q0 -153 76.5 -227t203.5 -74q144 0 240 90v504 q-83 25 -172 25q-71 0 -131.5 -17.5t-110 -53.5t-78 -99.5t-28.5 -147.5zM756 1188v227h241v-227h-241z" />
<glyph unicode="&#xe5;" d="M102 473q0 128 46 229.5t129 167t196 100t248 34.5q222 0 450 -74v-930h-219l-20 96q-75 -63 -152.5 -95t-181.5 -32q-98 0 -185 31t-157.5 90.5t-112 158.5t-41.5 224zM379 483q0 -153 76.5 -227t203.5 -74q144 0 240 90v504q-83 25 -172 25q-71 0 -131.5 -17.5 t-110 -53.5t-78 -99.5t-28.5 -147.5zM391 1300q0 89 74 137t192 48t192.5 -48t74.5 -137q0 -92 -74.5 -140t-192.5 -48t-192 48t-74 140zM545 1298q0 -41 30 -63.5t82 -22.5t82.5 22.5t30.5 63.5t-30.5 63.5t-82.5 22.5t-82 -22.5t-30 -63.5z" />
<glyph unicode="&#xe6;" horiz-adv-x="2058" d="M102 473q0 169 80.5 290.5t218.5 181t318 59.5q203 0 373 -72l8 -4q136 76 319 76q109 0 199 -25t152 -68t105 -101.5t63 -123.5t20 -135v-162h-811q16 -78 72 -128.5t130 -69.5t169 -19q106 0 216 22t189 56v-205q-75 -35 -197.5 -55.5t-236.5 -20.5q-319 0 -488 152 q-91 -81 -188.5 -116.5t-214.5 -35.5q-98 0 -185 31t-157.5 90.5t-112 158.5t-41.5 224zM379 487q0 -155 76 -230t207 -75q137 0 233 86q-41 100 -41 221q0 157 74 277q-107 35 -197 35q-72 0 -132.5 -16t-111 -51t-79.5 -98t-29 -149zM1141 575h538q-3 110 -75 168t-191 58 q-117 0 -187 -56.5t-85 -169.5z" />
<glyph unicode="&#xe7;" horiz-adv-x="1157" d="M102 487q0 235 162.5 376t440.5 141q184 0 309 -52v-213q-136 62 -287 62q-163 0 -254.5 -82.5t-91.5 -233.5q0 -149 91.5 -231t252.5 -82q159 0 301 74v-215q-134 -62 -336 -62l-22 -73q91 -12 137.5 -55t46.5 -124q0 -79 -74 -126.5t-209 -47.5q-97 0 -159 27v137 q64 -29 137 -29q98 0 98 60q0 59 -104 59h-76l70 187q-204 39 -318.5 175t-114.5 328z" />
<glyph unicode="&#xe8;" horiz-adv-x="1308" d="M104 489q0 159 73.5 276.5t200.5 178t292 60.5q135 0 240.5 -38t169 -103t96 -144.5t32.5 -167.5v-162h-811q16 -78 72 -128.5t130 -69.5t169 -19q106 0 217 22t189 56v-205q-75 -35 -197.5 -55.5t-237.5 -20.5q-303 0 -469 137t-166 383zM301 1454h303l184 -309h-206z M391 575h539q-3 110 -75 168t-191 58q-117 0 -187.5 -56.5t-85.5 -169.5z" />
<glyph unicode="&#xe9;" horiz-adv-x="1308" d="M104 489q0 159 73.5 276.5t200.5 178t292 60.5q135 0 240.5 -38t169 -103t96 -144.5t32.5 -167.5v-162h-811q16 -78 72 -128.5t130 -69.5t169 -19q106 0 217 22t189 56v-205q-75 -35 -197.5 -55.5t-237.5 -20.5q-303 0 -469 137t-166 383zM391 575h539q-3 110 -75 168 t-191 58q-117 0 -187.5 -56.5t-85.5 -169.5zM547 1145l184 309h303l-280 -309h-207z" />
<glyph unicode="&#xea;" horiz-adv-x="1308" d="M104 489q0 159 73.5 276.5t200.5 178t292 60.5q135 0 240.5 -38t169 -103t96 -144.5t32.5 -167.5v-162h-811q16 -78 72 -128.5t130 -69.5t169 -19q106 0 217 22t189 56v-205q-75 -35 -197.5 -55.5t-237.5 -20.5q-303 0 -469 137t-166 383zM291 1145l235 309h279l235 -309 h-223l-151 168l-152 -168h-223zM391 575h539q-3 110 -75 168t-191 58q-117 0 -187.5 -56.5t-85.5 -169.5z" />
<glyph unicode="&#xeb;" horiz-adv-x="1308" d="M104 489q0 159 73.5 276.5t200.5 178t292 60.5q135 0 240.5 -38t169 -103t96 -144.5t32.5 -167.5v-162h-811q16 -78 72 -128.5t130 -69.5t169 -19q106 0 217 22t189 56v-205q-75 -35 -197.5 -55.5t-237.5 -20.5q-303 0 -469 137t-166 383zM328 1188v227h243v-227h-243z M391 575h539q-3 110 -75 168t-191 58q-117 0 -187.5 -56.5t-85.5 -169.5zM764 1188v227h242v-227h-242z" />
<glyph unicode="&#xec;" horiz-adv-x="657" d="M-43 1454h303l184 -309h-206zM193 0v973h272v-973h-272z" />
<glyph unicode="&#xed;" horiz-adv-x="657" d="M193 0v973h272v-973h-272zM219 1145l184 309h304l-281 -309h-207z" />
<glyph unicode="&#xee;" horiz-adv-x="657" d="M-47 1145l235 309h279l235 -309h-223l-151 168l-152 -168h-223zM193 0v973h272v-973h-272z" />
<glyph unicode="&#xef;" horiz-adv-x="657" d="M-12 1188v227h243v-227h-243zM193 0v973h272v-973h-272zM424 1188v227h242v-227h-242z" />
<glyph unicode="&#xf0;" horiz-adv-x="1404" d="M102 485q0 234 154 376.5t406 142.5q120 0 212.5 -33t143.5 -84q-24 134 -121 313l-504 -72v117l451 66q-46 78 -92 143h245q28 -37 74 -111l260 41v-116l-203 -33q175 -335 175 -625q0 -110 -19.5 -203.5t-64 -175.5t-113 -139t-172 -90t-234.5 -33q-269 0 -433.5 138.5 t-164.5 377.5zM381 487q0 -146 88.5 -230.5t232.5 -84.5q145 0 233.5 84.5t88.5 230.5t-88.5 230t-233.5 84t-233 -84t-88 -230z" />
<glyph unicode="&#xf1;" horiz-adv-x="1406" d="M193 0v973h243l17 -82q70 53 164 83t194 30q185 0 302.5 -99t117.5 -291v-614h-273v594q0 95 -64.5 141.5t-160.5 46.5q-148 0 -268 -77v-705h-272zM317 1159q0 80 22 141.5t77.5 102.5t140.5 41q48 0 97 -17.5t83 -39t72 -39t65 -17.5q66 0 66 109h178 q0 -125 -56.5 -205t-180.5 -80q-61 0 -121 28.5t-110 56.5t-87 28q-65 0 -65 -109h-181z" />
<glyph unicode="&#xf2;" horiz-adv-x="1402" d="M102 487q0 239 165 378t435 139t435.5 -139t165.5 -378t-165.5 -378.5t-435.5 -139.5t-435 139.5t-165 378.5zM328 1454h303l184 -309h-207zM381 487q0 -146 88.5 -230.5t232.5 -84.5q145 0 233.5 84.5t88.5 230.5t-88.5 230t-233.5 84t-233 -84t-88 -230z" />
<glyph unicode="&#xf3;" horiz-adv-x="1402" d="M102 487q0 239 165 378t435 139t435.5 -139t165.5 -378t-165.5 -378.5t-435.5 -139.5t-435 139.5t-165 378.5zM381 487q0 -146 88.5 -230.5t232.5 -84.5q145 0 233.5 84.5t88.5 230.5t-88.5 230t-233.5 84t-233 -84t-88 -230zM580 1145l184 309h303l-281 -309h-206z" />
<glyph unicode="&#xf4;" horiz-adv-x="1402" d="M102 487q0 239 165 378t435 139t435.5 -139t165.5 -378t-165.5 -378.5t-435.5 -139.5t-435 139.5t-165 378.5zM326 1145l235 309h279l235 -309h-223l-152 168l-151 -168h-223zM381 487q0 -146 88.5 -230.5t232.5 -84.5q145 0 233.5 84.5t88.5 230.5t-88.5 230t-233.5 84 t-233 -84t-88 -230z" />
<glyph unicode="&#xf5;" horiz-adv-x="1402" d="M102 487q0 239 165 378t435 139t435.5 -139t165.5 -378t-165.5 -378.5t-435.5 -139.5t-435 139.5t-165 378.5zM299 1159q0 80 22 141.5t77.5 102.5t140.5 41q48 0 97 -17.5t83 -39t72 -39t65 -17.5q66 0 66 109h178q0 -59 -12.5 -108.5t-39.5 -90t-74.5 -63.5t-111.5 -23 q-48 0 -96.5 17.5t-81 39t-71 39t-68.5 17.5q-66 0 -66 -109h-180zM381 487q0 -146 88.5 -230.5t232.5 -84.5q145 0 233.5 84.5t88.5 230.5t-88.5 230t-233.5 84t-233 -84t-88 -230z" />
<glyph unicode="&#xf6;" horiz-adv-x="1402" d="M102 487q0 239 165 378t435 139t435.5 -139t165.5 -378t-165.5 -378.5t-435.5 -139.5t-435 139.5t-165 378.5zM362 1188v227h244v-227h-244zM381 487q0 -146 88.5 -230.5t232.5 -84.5q145 0 233.5 84.5t88.5 230.5t-88.5 230t-233.5 84t-233 -84t-88 -230zM799 1188v227 h241v-227h-241z" />
<glyph unicode="&#xf8;" horiz-adv-x="1402" d="M102 487q0 239 165 378t435 139q170 0 310 -62l129 150l96 -84l-115 -134q178 -142 178 -387q0 -240 -164.5 -379t-433.5 -139q-180 0 -313 62l-129 -150l-96 84l115 133q-177 138 -177 389zM381 487q0 -120 63 -198l416 479q-74 33 -158 33q-145 0 -233 -84t-88 -230z M541 205q67 -33 161 -33q145 0 232.5 84t87.5 231q0 122 -66 197z" />
<glyph unicode="&#xf9;" horiz-adv-x="1353" d="M166 356v617h272v-600q0 -94 53 -142.5t152 -48.5q137 0 248 103v688h270v-973h-221l-20 96q-152 -127 -347 -127t-301 99t-106 288zM293 1454h303l184 -309h-207z" />
<glyph unicode="&#xfa;" horiz-adv-x="1353" d="M166 356v617h272v-600q0 -94 53 -142.5t152 -48.5q137 0 248 103v688h270v-973h-221l-20 96q-152 -127 -347 -127t-301 99t-106 288zM549 1145l184 309h303l-280 -309h-207z" />
<glyph unicode="&#xfb;" horiz-adv-x="1353" d="M166 356v617h272v-600q0 -94 53 -142.5t152 -48.5q137 0 248 103v688h270v-973h-221l-20 96q-152 -127 -347 -127t-301 99t-106 288zM293 1145l235 309h279l235 -309h-223l-151 168l-152 -168h-223z" />
<glyph unicode="&#xfc;" horiz-adv-x="1353" d="M166 356v617h272v-600q0 -94 53 -142.5t152 -48.5q137 0 248 103v688h270v-973h-221l-20 96q-152 -127 -347 -127t-301 99t-106 288zM328 1188v227h243v-227h-243zM764 1188v227h242v-227h-242z" />
<glyph unicode="&#xfd;" horiz-adv-x="1353" d="M166 381v592h272v-576q0 -96 53.5 -144t151.5 -48q143 0 248 102v666h270v-944q0 -114 -42 -201.5t-116.5 -141t-170.5 -80t-211 -26.5q-218 0 -404 74v223q69 -40 172 -68t209 -28q293 0 293 242v73q-145 -104 -318 -104q-196 0 -301.5 99t-105.5 290zM549 1145l184 309 h303l-280 -309h-207z" />
<glyph unicode="&#xfe;" d="M193 -389v1843h272v-551q131 101 303 101q96 0 182.5 -31t157 -91t112.5 -160.5t42 -227.5q0 -162 -78 -282.5t-208.5 -181.5t-293.5 -61q-97 0 -217 19v-377h-272zM465 199q74 -27 182 -27q149 0 243.5 76t94.5 237q0 154 -77.5 235t-202.5 81q-142 0 -240 -92v-510z " />
<glyph unicode="&#xff;" horiz-adv-x="1353" d="M166 381v592h272v-576q0 -96 53.5 -144t151.5 -48q143 0 248 102v666h270v-944q0 -114 -42 -201.5t-116.5 -141t-170.5 -80t-211 -26.5q-218 0 -404 74v223q69 -40 172 -68t209 -28q293 0 293 242v73q-145 -104 -318 -104q-196 0 -301.5 99t-105.5 290zM328 1188v227h243 v-227h-243zM764 1188v227h242v-227h-242z" />
<glyph unicode="&#x100;" horiz-adv-x="1546" d="M-14 0l653 1384h270l652 -1384h-322l-133 289h-703l-133 -289h-284zM449 1597v166h647v-166h-647zM498 496h514l-256 571z" />
<glyph unicode="&#x101;" d="M102 473q0 128 46 229.5t129 167t196 100t248 34.5q222 0 450 -74v-930h-219l-20 96q-75 -63 -152.5 -95t-181.5 -32q-98 0 -185 31t-157.5 90.5t-112 158.5t-41.5 224zM332 1217v165h647v-165h-647zM379 483q0 -153 76.5 -227t203.5 -74q144 0 240 90v504 q-83 25 -172 25q-71 0 -131.5 -17.5t-110 -53.5t-78 -99.5t-28.5 -147.5z" />
<glyph unicode="&#x102;" horiz-adv-x="1546" d="M-14 0l653 1384h270l652 -1384h-322l-133 289h-703l-133 -289h-284zM408 1831h170q24 -145 194 -145q171 0 195 145h170q-9 -145 -105.5 -227t-259.5 -82q-162 0 -258.5 82t-105.5 227zM498 496h514l-256 571z" />
<glyph unicode="&#x103;" d="M102 473q0 128 46 229.5t129 167t196 100t248 34.5q222 0 450 -74v-930h-219l-20 96q-75 -63 -152.5 -95t-181.5 -32q-98 0 -185 31t-157.5 90.5t-112 158.5t-41.5 224zM293 1450h170q24 -145 194 -145q171 0 195 145h170q-9 -145 -105.5 -227t-259.5 -82 q-162 0 -258.5 82t-105.5 227zM379 483q0 -153 76.5 -227t203.5 -74q144 0 240 90v504q-83 25 -172 25q-71 0 -131.5 -17.5t-110 -53.5t-78 -99.5t-28.5 -147.5z" />
<glyph unicode="&#x104;" horiz-adv-x="1546" d="M-14 0l653 1384h270l652 -1384q-80 -54 -120 -101t-40 -110q0 -39 27 -59.5t71 -20.5q60 0 127 31v-156q-70 -33 -174 -33q-117 0 -184.5 54t-67.5 151q0 77 42 141t116 103h-119l-133 289h-703l-133 -289h-284zM498 496h514l-256 571z" />
<glyph unicode="&#x105;" d="M102 473q0 128 46 229.5t129 167t196 100t248 34.5q222 0 450 -74v-930q-79 -54 -119 -101t-40 -110q0 -39 27 -59.5t71 -20.5q60 0 127 31v-156q-70 -33 -174 -33q-117 0 -184.5 54t-67.5 151q0 77 42 141t116 103h-17l-20 96q-75 -63 -152.5 -95t-181.5 -32 q-98 0 -185 31t-157.5 90.5t-112 158.5t-41.5 224zM379 483q0 -153 76.5 -227t203.5 -74q144 0 240 90v504q-83 25 -172 25q-71 0 -131.5 -17.5t-110 -53.5t-78 -99.5t-28.5 -147.5z" />
<glyph unicode="&#x106;" horiz-adv-x="1533" d="M123 692q0 158 57 291t162 229t262.5 149.5t351.5 53.5q130 0 248 -19.5t189 -52.5v-219q-75 35 -184.5 56.5t-229.5 21.5q-252 0 -400.5 -135.5t-148.5 -374.5t148.5 -374.5t400.5 -135.5q237 0 426 92v-219q-183 -86 -447 -86q-195 0 -353 53.5t-263 149.5t-162 229 t-57 291zM778 1524l185 309h303l-281 -309h-207z" />
<glyph unicode="&#x107;" horiz-adv-x="1157" d="M102 487q0 235 162.5 376t440.5 141q184 0 309 -52v-213q-136 62 -287 62q-163 0 -254.5 -82.5t-91.5 -233.5q0 -149 91.5 -231t252.5 -82q159 0 301 74v-215q-134 -62 -334 -62q-274 0 -432 145t-158 373zM487 1145l185 309h303l-281 -309h-207z" />
<glyph unicode="&#x108;" horiz-adv-x="1533" d="M123 692q0 158 57 291t162 229t262.5 149.5t351.5 53.5q130 0 248 -19.5t189 -52.5v-219q-75 35 -184.5 56.5t-229.5 21.5q-252 0 -400.5 -135.5t-148.5 -374.5t148.5 -374.5t400.5 -135.5q237 0 426 92v-219q-183 -86 -447 -86q-195 0 -353 53.5t-263 149.5t-162 229 t-57 291zM473 1524l236 309h278l236 -309h-224l-151 168l-152 -168h-223z" />
<glyph unicode="&#x109;" horiz-adv-x="1157" d="M102 487q0 235 162.5 376t440.5 141q184 0 309 -52v-213q-136 62 -287 62q-163 0 -254.5 -82.5t-91.5 -233.5q0 -149 91.5 -231t252.5 -82q159 0 301 74v-215q-134 -62 -334 -62q-274 0 -432 145t-158 373zM227 1145l236 309h278l236 -309h-223l-152 168l-151 -168h-224z " />
<glyph unicode="&#x10a;" horiz-adv-x="1533" d="M123 692q0 158 57 291t162 229t262.5 149.5t351.5 53.5q130 0 248 -19.5t189 -52.5v-219q-75 35 -184.5 56.5t-229.5 21.5q-252 0 -400.5 -135.5t-148.5 -374.5t148.5 -374.5t400.5 -135.5q237 0 426 92v-219q-183 -86 -447 -86q-195 0 -353 53.5t-263 149.5t-162 229 t-57 291zM715 1565v227h260v-227h-260z" />
<glyph unicode="&#x10b;" horiz-adv-x="1157" d="M102 487q0 235 162.5 376t440.5 141q184 0 309 -52v-213q-136 62 -287 62q-163 0 -254.5 -82.5t-91.5 -233.5q0 -149 91.5 -231t252.5 -82q159 0 301 74v-215q-134 -62 -334 -62q-274 0 -432 145t-158 373zM469 1188v227h260v-227h-260z" />
<glyph unicode="&#x10c;" horiz-adv-x="1533" d="M123 692q0 158 57 291t162 229t262.5 149.5t351.5 53.5q130 0 248 -19.5t189 -52.5v-219q-75 35 -184.5 56.5t-229.5 21.5q-252 0 -400.5 -135.5t-148.5 -374.5t148.5 -374.5t400.5 -135.5q237 0 426 92v-219q-183 -86 -447 -86q-195 0 -353 53.5t-263 149.5t-162 229 t-57 291zM473 1833h223l152 -168l151 168h224l-236 -309h-278z" />
<glyph unicode="&#x10d;" horiz-adv-x="1157" d="M102 487q0 235 162.5 376t440.5 141q184 0 309 -52v-213q-136 62 -287 62q-163 0 -254.5 -82.5t-91.5 -233.5q0 -149 91.5 -231t252.5 -82q159 0 301 74v-215q-134 -62 -334 -62q-274 0 -432 145t-158 373zM231 1454h224l151 -168l152 168h223l-236 -309h-278z" />
<glyph unicode="&#x10e;" horiz-adv-x="1789" d="M246 0v1384h557q408 0 636 -179t228 -513q0 -336 -228 -514t-636 -178h-557zM524 1833h224l151 -168l152 168h223l-236 -309h-278zM541 211h250q273 0 421 117t148 364q0 246 -148.5 362.5t-420.5 116.5h-250v-960z" />
<glyph unicode="&#x10f;" horiz-adv-x="1554" d="M102 473q0 170 81.5 291.5t220 180.5t319.5 59q89 0 176 -19v469h272v-1454h-221l-18 96q-130 -127 -334 -127q-98 0 -185 31t-157.5 90.5t-112 158.5t-41.5 224zM379 483q0 -153 76.5 -227t203.5 -74q144 0 240 90v504q-80 25 -170 25q-71 0 -132 -17t-111 -53 t-78.5 -99.5t-28.5 -148.5zM1251 1124q113 68 113 193q0 53 -31 137h199q22 -57 22 -131q0 -206 -217 -311z" />
<glyph unicode="&#x110;" horiz-adv-x="1789" d="M53 614v199h193v571h557q408 0 636 -179t228 -513q0 -336 -228 -514t-636 -178h-557v614h-193zM541 211h250q273 0 421 117t148 364q0 246 -148.5 362.5t-420.5 116.5h-250v-358h411v-199h-411v-403z" />
<glyph unicode="&#x111;" d="M102 473q0 128 46 229.5t129 167t196 100t248 34.5q55 0 178 -13v172h-430v137h430v154h272v-154h183v-137h-183v-1163h-219l-20 96q-75 -63 -152.5 -95t-181.5 -32q-98 0 -185 31t-157.5 90.5t-112 158.5t-41.5 224zM379 487q0 -154 77 -233.5t203 -79.5q137 0 240 96 v514q-78 17 -168 17q-72 0 -133 -17t-111.5 -53t-79 -98t-28.5 -146z" />
<glyph unicode="&#x112;" horiz-adv-x="1437" d="M225 354v1030h1035v-213h-740v-360h666v-211h-666v-246q0 -74 37 -108.5t123 -34.5h612v-211h-661q-211 0 -308.5 88.5t-97.5 265.5zM418 1597v166h647v-166h-647z" />
<glyph unicode="&#x113;" horiz-adv-x="1308" d="M104 489q0 159 73.5 276.5t200.5 178t292 60.5q135 0 240.5 -38t169 -103t96 -144.5t32.5 -167.5v-162h-811q16 -78 72 -128.5t130 -69.5t169 -19q106 0 217 22t189 56v-205q-75 -35 -197.5 -55.5t-237.5 -20.5q-303 0 -469 137t-166 383zM342 1217v165h647v-165h-647z M391 575h539q-3 110 -75 168t-191 58q-117 0 -187.5 -56.5t-85.5 -169.5z" />
<glyph unicode="&#x116;" horiz-adv-x="1437" d="M225 354v1030h1035v-213h-740v-360h666v-211h-666v-246q0 -74 37 -108.5t123 -34.5h612v-211h-661q-211 0 -308.5 88.5t-97.5 265.5zM610 1565v227h260v-227h-260z" />
<glyph unicode="&#x117;" horiz-adv-x="1308" d="M104 489q0 159 73.5 276.5t200.5 178t292 60.5q135 0 240.5 -38t169 -103t96 -144.5t32.5 -167.5v-162h-811q16 -78 72 -128.5t130 -69.5t169 -19q106 0 217 22t189 56v-205q-75 -35 -197.5 -55.5t-237.5 -20.5q-303 0 -469 137t-166 383zM391 575h539q-3 110 -75 168 t-191 58q-117 0 -187.5 -56.5t-85.5 -169.5zM535 1188v227h260v-227h-260z" />
<glyph unicode="&#x118;" horiz-adv-x="1437" d="M225 354v1030h1035v-213h-740v-360h666v-211h-666v-246q0 -74 37 -108.5t123 -34.5h612v-211h-65q-80 -54 -120 -101t-40 -110q0 -39 27 -59.5t71 -20.5q60 0 127 31v-156q-70 -33 -174 -33q-117 0 -184.5 54t-67.5 151q0 77 42 141t116 103h-393q-211 0 -308.5 88.5 t-97.5 265.5z" />
<glyph unicode="&#x119;" horiz-adv-x="1308" d="M104 489q0 159 73.5 276.5t200.5 178t292 60.5q135 0 240.5 -38t169 -103t96 -144.5t32.5 -167.5v-162h-811q16 -78 72 -128.5t130 -69.5t169 -19q106 0 217 22t189 56v-205q-66 -30 -146 -45q-79 -53 -118.5 -100.5t-39.5 -110.5q0 -39 27.5 -59.5t71.5 -20.5 q60 0 127 31v-156q-70 -33 -174 -33q-117 0 -184.5 54t-67.5 151q0 134 108 213h-39q-303 0 -469 137t-166 383zM391 575h539q-3 110 -75 168t-191 58q-117 0 -187.5 -56.5t-85.5 -169.5z" />
<glyph unicode="&#x11a;" horiz-adv-x="1437" d="M225 354v1030h1035v-213h-740v-360h666v-211h-666v-246q0 -74 37 -108.5t123 -34.5h612v-211h-661q-211 0 -308.5 88.5t-97.5 265.5zM367 1833h223l151 -168l152 168h223l-235 -309h-279z" />
<glyph unicode="&#x11b;" horiz-adv-x="1308" d="M104 489q0 159 73.5 276.5t200.5 178t292 60.5q135 0 240.5 -38t169 -103t96 -144.5t32.5 -167.5v-162h-811q16 -78 72 -128.5t130 -69.5t169 -19q106 0 217 22t189 56v-205q-75 -35 -197.5 -55.5t-237.5 -20.5q-303 0 -469 137t-166 383zM291 1454h223l152 -168l151 168 h223l-235 -309h-279zM391 575h539q-3 110 -75 168t-191 58q-117 0 -187.5 -56.5t-85.5 -169.5z" />
<glyph unicode="&#x11c;" horiz-adv-x="1902" d="M123 692q0 153 51 276.5t137.5 205.5t206 137.5t250.5 79.5t276 24q342 0 603 -110v-228q-117 54 -275 89.5t-321 35.5q-100 0 -187.5 -15.5t-168.5 -53.5t-138.5 -95t-92 -145.5t-34.5 -200.5q0 -128 45.5 -227.5t125.5 -160t183 -91.5t224 -31q218 0 397 74v317h-440 v209h725v-647q-125 -68 -312 -117t-389 -49q-182 0 -337.5 45.5t-274.5 133t-186.5 227t-67.5 317.5zM575 1524l236 309h279l235 -309h-223l-152 168l-151 -168h-224z" />
<glyph unicode="&#x11d;" d="M102 483q0 163 81 282.5t220 179t318 59.5q231 0 450 -72v-905q0 -150 -72 -251.5t-196 -148.5t-295 -47q-256 0 -444 84v223q79 -44 192 -74t228 -30q317 0 317 237v68q-119 -96 -303 -96q-98 0 -185 29t-157.5 86t-112 154t-41.5 222zM283 1145l235 309h279l235 -309 h-223l-152 168l-151 -168h-223zM381 496q0 -150 74.5 -223.5t208.5 -73.5q141 0 237 90v487q-89 25 -174 25q-71 0 -131 -16.5t-109.5 -51t-77.5 -95.5t-28 -142z" />
<glyph unicode="&#x11e;" horiz-adv-x="1902" d="M123 692q0 153 51 276.5t137.5 205.5t206 137.5t250.5 79.5t276 24q342 0 603 -110v-228q-117 54 -275 89.5t-321 35.5q-100 0 -187.5 -15.5t-168.5 -53.5t-138.5 -95t-92 -145.5t-34.5 -200.5q0 -128 45.5 -227.5t125.5 -160t183 -91.5t224 -31q218 0 397 74v317h-440 v209h725v-647q-125 -68 -312 -117t-389 -49q-182 0 -337.5 45.5t-274.5 133t-186.5 227t-67.5 317.5zM586 1833h170q24 -145 194 -145q171 0 195 145h170q-9 -145 -105.5 -227t-259.5 -82q-162 0 -258.5 82t-105.5 227z" />
<glyph unicode="&#x11f;" d="M102 483q0 163 81 282.5t220 179t318 59.5q231 0 450 -72v-905q0 -150 -72 -251.5t-196 -148.5t-295 -47q-256 0 -444 84v223q79 -44 192 -74t228 -30q317 0 317 237v68q-119 -96 -303 -96q-98 0 -185 29t-157.5 86t-112 154t-41.5 222zM293 1450h170q24 -145 194 -145 q171 0 195 145h170q-9 -145 -105.5 -227t-259.5 -82q-162 0 -258.5 82t-105.5 227zM381 496q0 -150 74.5 -223.5t208.5 -73.5q141 0 237 90v487q-89 25 -174 25q-71 0 -131 -16.5t-109.5 -51t-77.5 -95.5t-28 -142z" />
<glyph unicode="&#x120;" horiz-adv-x="1902" d="M123 692q0 153 51 276.5t137.5 205.5t206 137.5t250.5 79.5t276 24q342 0 603 -110v-228q-117 54 -275 89.5t-321 35.5q-100 0 -187.5 -15.5t-168.5 -53.5t-138.5 -95t-92 -145.5t-34.5 -200.5q0 -128 45.5 -227.5t125.5 -160t183 -91.5t224 -31q218 0 397 74v317h-440 v209h725v-647q-125 -68 -312 -117t-389 -49q-182 0 -337.5 45.5t-274.5 133t-186.5 227t-67.5 317.5zM819 1567v227h260v-227h-260z" />
<glyph unicode="&#x121;" d="M102 483q0 163 81 282.5t220 179t318 59.5q231 0 450 -72v-905q0 -150 -72 -251.5t-196 -148.5t-295 -47q-256 0 -444 84v223q79 -44 192 -74t228 -30q317 0 317 237v68q-119 -96 -303 -96q-98 0 -185 29t-157.5 86t-112 154t-41.5 222zM381 496q0 -150 74.5 -223.5 t208.5 -73.5q141 0 237 90v487q-89 25 -174 25q-71 0 -131 -16.5t-109.5 -51t-77.5 -95.5t-28 -142zM528 1188v227h260v-227h-260z" />
<glyph unicode="&#x122;" horiz-adv-x="1902" d="M123 692q0 153 51 276.5t137.5 205.5t206 137.5t250.5 79.5t276 24q342 0 603 -110v-228q-117 54 -275 89.5t-321 35.5q-100 0 -187.5 -15.5t-168.5 -53.5t-138.5 -95t-92 -145.5t-34.5 -200.5q0 -128 45.5 -227.5t125.5 -160t183 -91.5t224 -31q218 0 397 74v317h-440 v209h725v-647q-125 -68 -312 -117t-389 -49q-182 0 -337.5 45.5t-274.5 133t-186.5 227t-67.5 317.5zM778 -393q121 51 121 166q0 48 -29 102h232q20 -56 20 -106q0 -102 -76 -177t-206 -108z" />
<glyph unicode="&#x123;" d="M102 483q0 163 81 282.5t220 179t318 59.5q231 0 450 -72v-905q0 -150 -72 -251.5t-196 -148.5t-295 -47q-256 0 -444 84v223q79 -44 192 -74t228 -30q317 0 317 237v68q-119 -96 -303 -96q-98 0 -185 29t-157.5 86t-112 154t-41.5 222zM381 496q0 -150 74.5 -223.5 t208.5 -73.5q141 0 237 90v487q-89 25 -174 25q-71 0 -131 -16.5t-109.5 -51t-77.5 -95.5t-28 -142zM553 1225q0 102 76.5 176.5t206.5 107.5l61 -123q-121 -51 -121 -165q0 -49 29 -103h-232q-20 56 -20 107z" />
<glyph unicode="&#x124;" horiz-adv-x="1898" d="M246 0v1384h295v-565h817v565h295v-1384h-295v602h-817v-602h-295zM573 1524l236 309h278l236 -309h-223l-152 168l-151 -168h-224z" />
<glyph unicode="&#x125;" horiz-adv-x="1382" d="M-49 1524l235 309h279l235 -309h-223l-151 168l-152 -168h-223zM188 0v1454h273v-555q146 105 338 105q86 0 159 -22t129 -65.5t87.5 -114t31.5 -161.5v-641h-272v623q0 168 -205 168q-140 0 -268 -86v-705h-273z" />
<glyph unicode="&#x126;" horiz-adv-x="1898" d="M53 1026v164h193v194h295v-194h817v194h295v-194h194v-164h-194v-1026h-295v602h-817v-602h-295v1026h-193zM541 819h817v207h-817v-207z" />
<glyph unicode="&#x127;" horiz-adv-x="1406" d="M12 1163v137h181v154h272v-154h432v-137h-432v-264q68 50 159 77.5t187 27.5q185 0 302.5 -99t117.5 -291v-614h-273v594q0 95 -64.5 141.5t-160.5 46.5q-148 0 -268 -77v-705h-272v1163h-181z" />
<glyph unicode="&#x12a;" horiz-adv-x="786" d="M70 1597v166h647v-166h-647zM246 0v1384h295v-1384h-295z" />
<glyph unicode="&#x12b;" horiz-adv-x="657" d="M4 1217v165h647v-165h-647zM193 0v973h272v-973h-272z" />
<glyph unicode="&#x12e;" horiz-adv-x="786" d="M180 -244q0 77 42 141t116 103h-92v1384h295v-1384q-80 -54 -120 -101t-40 -110q0 -39 27 -59.5t71 -20.5q60 0 127 31v-156q-70 -33 -174 -33q-117 0 -184.5 54t-67.5 151z" />
<glyph unicode="&#x12f;" horiz-adv-x="657" d="M104 -244q0 77 42 141t116 103h-69v973h272v-973q-80 -54 -120 -101t-40 -110q0 -39 27 -59.5t71 -20.5q60 0 127 31v-156q-70 -33 -174 -33q-117 0 -184.5 54t-67.5 151zM193 1176v239h272v-239h-272z" />
<glyph unicode="&#x130;" horiz-adv-x="786" d="M246 0v1384h295v-1384h-295zM262 1565v227h260v-227h-260z" />
<glyph unicode="&#x131;" horiz-adv-x="657" d="M193 0v973h272v-973h-272z" />
<glyph unicode="&#x134;" horiz-adv-x="989" d="M63 14v219q116 -51 222 -51q100 0 143 43.5t43 143.5v1015h295v-1001q0 -208 -112.5 -311t-323.5 -103q-143 0 -267 45zM244 1524l235 309h279l235 -309h-223l-152 168l-151 -168h-223z" />
<glyph unicode="&#x135;" horiz-adv-x="657" d="M-47 1145l235 309h279l235 -309h-223l-151 168l-152 -168h-223zM-29 -176q67 -29 125 -29q97 0 97 96v1082h272v-1036q0 -179 -70.5 -268t-234.5 -89q-104 0 -189 33v211z" />
<glyph unicode="&#x136;" horiz-adv-x="1583" d="M246 0v1384h295v-591l676 591h346l-752 -661l772 -723h-379l-663 616v-616h-295zM618 -393q121 51 121 166q0 50 -28 102h231q21 -59 21 -106q0 -102 -76.5 -177t-206.5 -108z" />
<glyph unicode="&#x137;" horiz-adv-x="1261" d="M188 0v1454h273v-852l448 371h330l-526 -430l549 -543h-340l-461 451v-451h-273zM510 -393q121 51 121 166q0 48 -29 102h232q20 -56 20 -106q0 -102 -76.5 -177t-206.5 -108z" />
<glyph unicode="&#x139;" horiz-adv-x="1288" d="M225 354v1030h295v-1030q0 -74 37.5 -108.5t124.5 -34.5h565v-211h-614q-212 0 -310 88t-98 266zM268 1524l185 309h303l-281 -309h-207z" />
<glyph unicode="&#x13a;" horiz-adv-x="727" d="M172 305v1149h272v-1175q0 -97 97 -97q56 0 127 29v-211q-95 -31 -191 -31q-163 0 -234 82.5t-71 253.5zM203 1524l184 309h303l-280 -309h-207z" />
<glyph unicode="&#x13b;" horiz-adv-x="1288" d="M225 354v1030h295v-1030q0 -74 37.5 -108.5t124.5 -34.5h565v-211h-614q-212 0 -310 88t-98 266z" />
<glyph unicode="&#x13c;" horiz-adv-x="720" d="M172 305v1149h272v-1175q0 -97 97 -97q56 0 127 29v-211q-95 -31 -191 -31q-163 0 -234 82.5t-71 253.5zM225 -391q121 51 121 166q0 48 -29 102h232q20 -56 20 -106q0 -102 -76 -177t-206 -108z" />
<glyph unicode="&#x13d;" horiz-adv-x="1288" d="M225 354v1030h295v-1030q0 -74 37.5 -108.5t124.5 -34.5h565v-211h-614q-212 0 -310 88t-98 266zM727 1028q121 73 121 209q0 60 -33 147h219q23 -65 23 -143q0 -221 -236 -334z" />
<glyph unicode="&#x13e;" horiz-adv-x="825" d="M172 305v1149h272v-1175q0 -97 97 -97q56 0 127 29v-211q-95 -31 -191 -31q-163 0 -234 82.5t-71 253.5zM524 1124q111 67 111 193q0 58 -29 137h199q20 -59 20 -131q0 -206 -217 -311z" />
<glyph unicode="&#x141;" horiz-adv-x="1306" d="M59 514v195l185 63v612h295v-507l385 135v-197l-385 -133v-328q0 -74 37 -108.5t124 -34.5h566v-211h-617q-211 0 -308 89t-97 265v224z" />
<glyph unicode="&#x142;" horiz-adv-x="739" d="M41 588v194l149 62v610h273v-498l178 74v-196l-178 -74v-481q0 -97 96 -97q56 0 127 29v-211q-95 -31 -190 -31q-163 0 -234.5 83t-71.5 253v344z" />
<glyph unicode="&#x143;" horiz-adv-x="1878" d="M246 0v1384h256l846 -972v972h284v-1384h-254l-848 971v-971h-284zM813 1524l184 309h303l-280 -309h-207z" />
<glyph unicode="&#x144;" horiz-adv-x="1406" d="M193 0v973h243l17 -82q70 53 164 83t194 30q185 0 302.5 -99t117.5 -291v-614h-273v594q0 95 -64.5 141.5t-160.5 46.5q-148 0 -268 -77v-705h-272zM584 1145l184 309h303l-280 -309h-207z" />
<glyph unicode="&#x145;" horiz-adv-x="1878" d="M246 0v1384h256l846 -972v972h284v-1384h-254l-848 971v-971h-284zM766 -393q121 51 121 166q0 48 -29 102h232q20 -56 20 -106q0 -102 -76.5 -177t-206.5 -108z" />
<glyph unicode="&#x146;" horiz-adv-x="1406" d="M193 0v973h243l17 -82q70 53 164 83t194 30q185 0 302.5 -99t117.5 -291v-614h-273v594q0 95 -64.5 141.5t-160.5 46.5q-148 0 -268 -77v-705h-272zM494 -393q120 50 120 166q0 50 -28 102h231q21 -59 21 -106q0 -102 -76.5 -177t-206.5 -108z" />
<glyph unicode="&#x147;" horiz-adv-x="1878" d="M246 0v1384h256l846 -972v972h284v-1384h-254l-848 971v-971h-284zM563 1833h223l152 -168l152 168h223l-236 -309h-278z" />
<glyph unicode="&#x148;" horiz-adv-x="1406" d="M193 0v973h243l17 -82q70 53 164 83t194 30q185 0 302.5 -99t117.5 -291v-614h-273v594q0 95 -64.5 141.5t-160.5 46.5q-148 0 -268 -77v-705h-272zM342 1454h223l152 -168l151 168h224l-236 -309h-278z" />
<glyph unicode="&#x14c;" horiz-adv-x="1953" d="M123 692q0 221 107 385.5t300 251t447 86.5t447 -86.5t300 -251t107 -385.5t-107 -385.5t-300 -251t-447 -86.5t-447 86.5t-300 251t-107 385.5zM430 692q0 -233 144.5 -371.5t402.5 -138.5t402.5 138.5t144.5 371.5t-144.5 371.5t-402.5 138.5t-402.5 -138.5 t-144.5 -371.5zM653 1597v166h647v-166h-647z" />
<glyph unicode="&#x14d;" horiz-adv-x="1402" d="M102 487q0 239 165 378t435 139t435.5 -139t165.5 -378t-165.5 -378.5t-435.5 -139.5t-435 139.5t-165 378.5zM377 1217v165h647v-165h-647zM381 487q0 -146 88.5 -230.5t232.5 -84.5q145 0 233.5 84.5t88.5 230.5t-88.5 230t-233.5 84t-233 -84t-88 -230z" />
<glyph unicode="&#x150;" horiz-adv-x="1953" d="M123 692q0 221 107 385.5t300 251t447 86.5t447 -86.5t300 -251t107 -385.5t-107 -385.5t-300 -251t-447 -86.5t-447 86.5t-300 251t-107 385.5zM430 692q0 -233 144.5 -371.5t402.5 -138.5t402.5 138.5t144.5 371.5t-144.5 371.5t-402.5 138.5t-402.5 -138.5 t-144.5 -371.5zM707 1524l145 309h248l-207 -309h-186zM1026 1524l217 309h264l-284 -309h-197z" />
<glyph unicode="&#x151;" horiz-adv-x="1402" d="M102 487q0 239 165 378t435 139t435.5 -139t165.5 -378t-165.5 -378.5t-435.5 -139.5t-435 139.5t-165 378.5zM381 487q0 -146 88.5 -230.5t232.5 -84.5q145 0 233.5 84.5t88.5 230.5t-88.5 230t-233.5 84t-233 -84t-88 -230zM444 1145l146 309h248l-207 -309h-187z M764 1145l217 309h264l-284 -309h-197z" />
<glyph unicode="&#x152;" horiz-adv-x="2742" d="M123 692q0 221 107 385.5t300 251t447 86.5q185 0 328 -56.5t233 -158.5v184h1026v-213h-739v-360h665v-211h-665v-246q0 -74 37.5 -108.5t124.5 -34.5h610v-211h-660q-161 0 -250.5 53t-119.5 158q-88 -116 -238.5 -179t-351.5 -63q-254 0 -447 87t-300 251.5 t-107 384.5zM430 692q0 -233 144.5 -371.5t402.5 -138.5t402.5 138.5t144.5 371.5q0 235 -144.5 372.5t-402.5 137.5t-402.5 -137.5t-144.5 -372.5z" />
<glyph unicode="&#x153;" horiz-adv-x="2215" d="M102 487q0 239 165 378t435 139q297 0 439 -181q71 88 182.5 134.5t253.5 46.5q109 0 199 -25t152 -68t105 -101.5t63 -123.5t20 -135v-162h-811q12 -59 46 -102.5t85 -68t110 -35.5t129 -11q106 0 217 22t189 56v-205q-75 -35 -197.5 -55.5t-236.5 -20.5 q-348 0 -504 183q-138 -183 -441 -183q-270 0 -435 139.5t-165 378.5zM381 487q0 -146 88.5 -230.5t232.5 -84.5q145 0 233.5 84.5t88.5 230.5t-88.5 230t-233.5 84t-233 -84t-88 -230zM1298 575h539q-3 110 -75 168t-191 58q-117 0 -187.5 -56.5t-85.5 -169.5z" />
<glyph unicode="&#x154;" horiz-adv-x="1552" d="M246 0v1384h551q309 0 482 -116t173 -334q0 -159 -99.5 -258.5t-285.5 -136.5l426 -539h-338l-375 483h-239v-483h-295zM541 696h256q160 0 255 57t95 181q0 84 -47 138.5t-123 76.5t-180 22h-256v-475zM696 1524l185 309h303l-281 -309h-207z" />
<glyph unicode="&#x155;" horiz-adv-x="897" d="M193 0v973h245l17 -135q200 166 397 166v-244q-99 0 -203 -30t-184 -87v-643h-272zM377 1145l184 309h303l-280 -309h-207z" />
<glyph unicode="&#x158;" horiz-adv-x="1552" d="M246 0v1384h551q309 0 482 -116t173 -334q0 -159 -99.5 -258.5t-285.5 -136.5l426 -539h-338l-375 483h-239v-483h-295zM455 1833h223l151 -168l152 168h223l-235 -309h-279zM541 696h256q160 0 255 57t95 181q0 84 -47 138.5t-123 76.5t-180 22h-256v-475z" />
<glyph unicode="&#x159;" horiz-adv-x="897" d="M150 1454h223l151 -168l152 168h223l-235 -309h-279zM193 0v973h245l17 -135q200 166 397 166v-244q-99 0 -203 -30t-184 -87v-643h-272z" />
<glyph unicode="&#x15a;" horiz-adv-x="1372" d="M156 1001q0 133 80.5 228t215 140.5t308.5 45.5q244 0 416 -72v-219q-63 31 -172 54.5t-220 23.5q-67 0 -122.5 -9.5t-101.5 -30.5t-71.5 -58t-25.5 -88q0 -42 26 -74t70.5 -52.5t102 -37.5t121 -34t127 -37.5t121 -52t102 -72.5t70.5 -105t26 -145q0 -95 -33 -171 t-88.5 -125t-132.5 -81.5t-160 -46t-176 -13.5q-128 0 -252 25t-217 67v222q94 -43 214.5 -72t236.5 -29q132 0 216.5 44.5t84.5 140.5q0 50 -26 86.5t-70.5 60t-102 42t-121 35.5t-127 37t-121 50.5t-102 71.5t-70.5 105t-26 146zM547 1524l184 309h303l-280 -309h-207z " />
<glyph unicode="&#x15b;" horiz-adv-x="1142" d="M109 676q0 85 41 149.5t113 102.5t162 57t196 19q224 0 372 -56v-209q-56 24 -158.5 43t-199.5 19q-250 0 -250 -103q0 -32 36 -52t93.5 -30.5t126.5 -21t138.5 -30t127 -49.5t93.5 -87t36 -137q0 -84 -39 -147.5t-107.5 -100.5t-155 -55.5t-189.5 -18.5q-234 0 -418 80 v213q65 -35 184 -62.5t230 -27.5q49 0 87 5t69.5 16.5t48 33t16.5 52.5q0 34 -36 55.5t-93.5 33.5t-127 22.5t-139.5 29t-127.5 47t-93.5 82t-36 127.5zM449 1145l184 309h303l-281 -309h-206z" />
<glyph unicode="&#x15c;" horiz-adv-x="1372" d="M156 1001q0 133 80.5 228t215 140.5t308.5 45.5q244 0 416 -72v-219q-63 31 -172 54.5t-220 23.5q-67 0 -122.5 -9.5t-101.5 -30.5t-71.5 -58t-25.5 -88q0 -42 26 -74t70.5 -52.5t102 -37.5t121 -34t127 -37.5t121 -52t102 -72.5t70.5 -105t26 -145q0 -95 -33 -171 t-88.5 -125t-132.5 -81.5t-160 -46t-176 -13.5q-128 0 -252 25t-217 67v222q94 -43 214.5 -72t236.5 -29q132 0 216.5 44.5t84.5 140.5q0 50 -26 86.5t-70.5 60t-102 42t-121 35.5t-127 37t-121 50.5t-102 71.5t-70.5 105t-26 146zM352 1524l236 309h278l236 -309h-223 l-152 168l-152 -168h-223z" />
<glyph unicode="&#x15d;" horiz-adv-x="1142" d="M109 676q0 85 41 149.5t113 102.5t162 57t196 19q224 0 372 -56v-209q-56 24 -158.5 43t-199.5 19q-250 0 -250 -103q0 -32 36 -52t93.5 -30.5t126.5 -21t138.5 -30t127 -49.5t93.5 -87t36 -137q0 -84 -39 -147.5t-107.5 -100.5t-155 -55.5t-189.5 -18.5q-234 0 -418 80 v213q65 -35 184 -62.5t230 -27.5q49 0 87 5t69.5 16.5t48 33t16.5 52.5q0 34 -36 55.5t-93.5 33.5t-127 22.5t-139.5 29t-127.5 47t-93.5 82t-36 127.5zM182 1145l236 309h278l236 -309h-223l-152 168l-151 -168h-224z" />
<glyph unicode="&#x15e;" horiz-adv-x="1372" d="M156 1001q0 133 80.5 228t215 140.5t308.5 45.5q244 0 416 -72v-219q-63 31 -172 54.5t-220 23.5q-67 0 -122.5 -9.5t-101.5 -30.5t-71.5 -58t-25.5 -88q0 -42 26 -74t70.5 -52.5t102 -37.5t121 -34t127 -37.5t121 -52t102 -72.5t70.5 -105t26 -145q0 -96 -33 -172 t-92.5 -125.5t-133.5 -80t-163 -44.5l-27 -88q185 -25 185 -179q0 -79 -74 -126.5t-209 -47.5q-99 0 -160 27v137q64 -29 137 -29q99 0 99 60q0 59 -105 59h-75l63 172h-2q-128 0 -252 25t-217 67v222q94 -43 214.5 -72t236.5 -29q132 0 216.5 44.5t84.5 140.5 q0 50 -26 86.5t-70.5 60t-102 42t-121 35.5t-127 37t-121 50.5t-102 71.5t-70.5 105t-26 146z" />
<glyph unicode="&#x15f;" horiz-adv-x="1142" d="M109 676q0 85 41 149.5t113 102.5t162 57t196 19q224 0 372 -56v-209q-56 24 -158.5 43t-199.5 19q-250 0 -250 -103q0 -32 36 -52t93.5 -30.5t126.5 -21t138.5 -30t127 -49.5t93.5 -87t36 -137q0 -139 -99 -216.5t-265 -97.5l-25 -81q91 -12 137.5 -55t46.5 -124 q0 -79 -73.5 -126.5t-208.5 -47.5q-99 0 -160 27v137q64 -29 137 -29q99 0 99 60q0 59 -105 59h-76l64 172q-217 6 -381 80v213q65 -35 184 -62.5t230 -27.5q49 0 87 5t69.5 16.5t48 33t16.5 52.5q0 34 -36 55.5t-93.5 33.5t-127 22.5t-139.5 29t-127.5 47t-93.5 82 t-36 127.5z" />
<glyph unicode="&#x160;" horiz-adv-x="1372" d="M156 1001q0 133 80.5 228t215 140.5t308.5 45.5q244 0 416 -72v-219q-63 31 -172 54.5t-220 23.5q-67 0 -122.5 -9.5t-101.5 -30.5t-71.5 -58t-25.5 -88q0 -42 26 -74t70.5 -52.5t102 -37.5t121 -34t127 -37.5t121 -52t102 -72.5t70.5 -105t26 -145q0 -95 -33 -171 t-88.5 -125t-132.5 -81.5t-160 -46t-176 -13.5q-128 0 -252 25t-217 67v222q94 -43 214.5 -72t236.5 -29q132 0 216.5 44.5t84.5 140.5q0 50 -26 86.5t-70.5 60t-102 42t-121 35.5t-127 37t-121 50.5t-102 71.5t-70.5 105t-26 146zM354 1833h224l151 -168l152 168h223 l-236 -309h-278z" />
<glyph unicode="&#x161;" horiz-adv-x="1142" d="M109 676q0 85 41 149.5t113 102.5t162 57t196 19q224 0 372 -56v-209q-56 24 -158.5 43t-199.5 19q-250 0 -250 -103q0 -32 36 -52t93.5 -30.5t126.5 -21t138.5 -30t127 -49.5t93.5 -87t36 -137q0 -84 -39 -147.5t-107.5 -100.5t-155 -55.5t-189.5 -18.5q-234 0 -418 80 v213q65 -35 184 -62.5t230 -27.5q49 0 87 5t69.5 16.5t48 33t16.5 52.5q0 34 -36 55.5t-93.5 33.5t-127 22.5t-139.5 29t-127.5 47t-93.5 82t-36 127.5zM182 1454h224l151 -168l152 168h223l-236 -309h-278z" />
<glyph unicode="&#x162;" horiz-adv-x="1431" d="M41 1171v213h1350v-213h-529v-1171h-295v1171h-526zM500 -393q121 51 121 166q0 48 -29 102h231q21 -59 21 -106q0 -102 -76.5 -177t-206.5 -108z" />
<glyph unicode="&#x163;" horiz-adv-x="890" d="M55 772v201h160l39 309h233v-309h320v-201h-320v-455q0 -135 144 -135q92 0 192 51v-210q-103 -54 -260 -54q-348 0 -348 336v467h-160zM285 -393q121 51 121 166q0 48 -29 102h231q21 -59 21 -106q0 -102 -76.5 -177t-206.5 -108z" />
<glyph unicode="&#x164;" horiz-adv-x="1431" d="M41 1171v213h1350v-213h-529v-1171h-295v1171h-526zM340 1833h223l152 -168l151 168h224l-236 -309h-279z" />
<glyph unicode="&#x165;" horiz-adv-x="890" d="M55 772v201h160l39 309h233v-309h320v-201h-320v-455q0 -135 144 -135q92 0 192 51v-210q-103 -54 -260 -54q-348 0 -348 336v467h-160zM557 1155q113 68 113 193q0 61 -29 137h199q20 -59 20 -131q0 -103 -56.5 -182.5t-160.5 -129.5z" />
<glyph unicode="&#x16a;" horiz-adv-x="1705" d="M205 498v886h295v-886q0 -159 96.5 -237.5t257.5 -78.5t259.5 79t98.5 237v886h289v-886q0 -169 -85.5 -290.5t-230 -180t-331.5 -58.5t-332 58.5t-231 180t-86 290.5zM528 1597v166h648v-166h-648z" />
<glyph unicode="&#x16b;" horiz-adv-x="1353" d="M166 356v617h272v-600q0 -94 53 -142.5t152 -48.5q137 0 248 103v688h270v-973h-221l-20 96q-152 -127 -347 -127t-301 99t-106 288zM354 1217v165h647v-165h-647z" />
<glyph unicode="&#x16c;" horiz-adv-x="1705" d="M205 498v886h295v-886q0 -159 96.5 -237.5t257.5 -78.5t259.5 79t98.5 237v886h289v-886q0 -169 -85.5 -290.5t-230 -180t-331.5 -58.5t-332 58.5t-231 180t-86 290.5zM487 1833h170q24 -145 195 -145t195 145h170q-9 -145 -105.5 -227t-259.5 -82t-259.5 82t-105.5 227z " />
<glyph unicode="&#x16d;" horiz-adv-x="1353" d="M166 356v617h272v-600q0 -94 53 -142.5t152 -48.5q137 0 248 103v688h270v-973h-221l-20 96q-152 -127 -347 -127t-301 99t-106 288zM313 1450h170q24 -145 195 -145q170 0 194 145h170q-9 -145 -105.5 -227t-258.5 -82q-163 0 -259.5 82t-105.5 227z" />
<glyph unicode="&#x16e;" horiz-adv-x="1705" d="M205 498v886h295v-886q0 -159 96.5 -237.5t257.5 -78.5t259.5 79t98.5 237v886h289v-886q0 -169 -85.5 -290.5t-230 -180t-331.5 -58.5t-332 58.5t-231 180t-86 290.5zM586 1681q0 89 74 137t192 48t192 -48t74 -137q0 -92 -74 -140t-192 -48t-192 48t-74 140zM739 1679 q0 -41 30.5 -63.5t82.5 -22.5t82.5 22.5t30.5 63.5t-30.5 63.5t-82.5 22.5t-82.5 -22.5t-30.5 -63.5z" />
<glyph unicode="&#x16f;" horiz-adv-x="1353" d="M166 356v617h272v-600q0 -94 53 -142.5t152 -48.5q137 0 248 103v688h270v-973h-221l-20 96q-152 -127 -347 -127t-301 99t-106 288zM412 1300q0 89 74 137t192 48t192 -48t74 -137q0 -92 -74 -140t-192 -48t-192 48t-74 140zM565 1298q0 -41 30.5 -63.5t82.5 -22.5 t82.5 22.5t30.5 63.5t-30.5 63.5t-82.5 22.5t-82.5 -22.5t-30.5 -63.5z" />
<glyph unicode="&#x170;" horiz-adv-x="1705" d="M205 498v886h295v-886q0 -159 96.5 -237.5t257.5 -78.5t259.5 79t98.5 237v886h289v-886q0 -169 -85.5 -290.5t-230 -180t-331.5 -58.5t-332 58.5t-231 180t-86 290.5zM582 1524l145 309h248l-207 -309h-186zM901 1524l217 309h264l-284 -309h-197z" />
<glyph unicode="&#x171;" horiz-adv-x="1353" d="M166 356v617h272v-600q0 -94 53 -142.5t152 -48.5q137 0 248 103v688h270v-973h-221l-20 96q-152 -127 -347 -127t-301 99t-106 288zM391 1145l146 309h247l-206 -309h-187zM711 1145l217 309h264l-285 -309h-196z" />
<glyph unicode="&#x172;" horiz-adv-x="1705" d="M205 498v886h295v-886q0 -159 96.5 -237.5t257.5 -78.5t259.5 79t98.5 237v886h289v-886q0 -151 -68.5 -264.5t-186 -177t-273.5 -81.5q-62 -44 -93.5 -87t-31.5 -99q0 -39 27 -59.5t71 -20.5q60 0 127 31v-156q-70 -33 -174 -33q-117 0 -184.5 54t-67.5 151 q0 137 113 217q-164 15 -287 77t-195.5 177.5t-72.5 270.5z" />
<glyph unicode="&#x173;" horiz-adv-x="1353" d="M166 356v617h272v-600q0 -94 53 -142.5t152 -48.5q137 0 248 103v688h270v-973q-80 -54 -120 -101t-40 -110q0 -39 27.5 -59.5t71.5 -20.5q60 0 127 31v-156q-70 -33 -174 -33q-117 0 -184.5 54t-67.5 151q0 78 41.5 142t115.5 102h-18l-20 96q-152 -127 -347 -127 t-301 99t-106 288z" />
<glyph unicode="&#x178;" horiz-adv-x="1466" d="M0 1384h328l420 -602l419 602h299l-587 -833v-551h-295v551zM395 1565v227h244v-227h-244zM831 1565v227h242v-227h-242z" />
<glyph unicode="&#x179;" horiz-adv-x="1462" d="M92 0v182l901 989h-882v213h1239v-194l-885 -979h907v-211h-1280zM580 1524l184 309h303l-281 -309h-206z" />
<glyph unicode="&#x17a;" horiz-adv-x="1159" d="M113 0v156l557 622h-553v195h911v-160l-553 -618h567v-195h-929zM336 1145l184 309h303l-280 -309h-207z" />
<glyph unicode="&#x17b;" horiz-adv-x="1462" d="M92 0v182l901 989h-882v213h1239v-194l-885 -979h907v-211h-1280zM600 1565v227h260v-227h-260z" />
<glyph unicode="&#x17c;" horiz-adv-x="1159" d="M113 0v156l557 622h-553v195h911v-160l-553 -618h567v-195h-929zM449 1188v227h260v-227h-260z" />
<glyph unicode="&#x17d;" horiz-adv-x="1462" d="M92 0v182l901 989h-882v213h1239v-194l-885 -979h907v-211h-1280zM350 1833h223l152 -168l152 168h223l-236 -309h-278z" />
<glyph unicode="&#x17e;" horiz-adv-x="1159" d="M113 0v156l557 622h-553v195h911v-160l-553 -618h567v-195h-929zM209 1454h223l152 -168l151 168h223l-235 -309h-279z" />
<glyph unicode="&#x218;" horiz-adv-x="1372" d="M156 1001q0 133 80.5 228t215 140.5t308.5 45.5q244 0 416 -72v-219q-63 31 -172 54.5t-220 23.5q-67 0 -122.5 -9.5t-101.5 -30.5t-71.5 -58t-25.5 -88q0 -42 26 -74t70.5 -52.5t102 -37.5t121 -34t127 -37.5t121 -52t102 -72.5t70.5 -105t26 -145q0 -95 -33 -171 t-88.5 -125t-132.5 -81.5t-160 -46t-176 -13.5q-128 0 -252 25t-217 67v222q94 -43 214.5 -72t236.5 -29q132 0 216.5 44.5t84.5 140.5q0 50 -26 86.5t-70.5 60t-102 42t-121 35.5t-127 37t-121 50.5t-102 71.5t-70.5 105t-26 146zM500 -393q121 51 121 166q0 48 -29 102 h231q21 -59 21 -106q0 -102 -76.5 -177t-206.5 -108z" />
<glyph unicode="&#x219;" horiz-adv-x="1142" d="M109 676q0 85 41 149.5t113 102.5t162 57t196 19q224 0 372 -56v-209q-56 24 -158.5 43t-199.5 19q-250 0 -250 -103q0 -32 36 -52t93.5 -30.5t126.5 -21t138.5 -30t127 -49.5t93.5 -87t36 -137q0 -84 -39 -147.5t-107.5 -100.5t-155 -55.5t-189.5 -18.5q-234 0 -418 80 v213q65 -35 184 -62.5t230 -27.5q49 0 87 5t69.5 16.5t48 33t16.5 52.5q0 34 -36 55.5t-93.5 33.5t-127 22.5t-139.5 29t-127.5 47t-93.5 82t-36 127.5zM338 -393q121 51 121 166q0 48 -29 102h232q20 -56 20 -106q0 -102 -76.5 -177t-206.5 -108z" />
<glyph unicode="&#x2c6;" horiz-adv-x="1228" d="M240 1145l235 309h279l235 -309h-223l-152 168l-151 -168h-223z" />
<glyph unicode="&#x2da;" horiz-adv-x="1228" d="M348 1300q0 89 74 137t192 48t192.5 -48t74.5 -137q0 -92 -74.5 -140t-192.5 -48t-192 48t-74 140zM502 1298q0 -41 30 -63.5t82 -22.5t82.5 22.5t30.5 63.5t-30.5 63.5t-82.5 22.5t-82 -22.5t-30 -63.5z" />
<glyph unicode="&#x2dc;" horiz-adv-x="1228" d="M213 1159q0 80 22 141.5t77.5 102.5t140.5 41q48 0 97 -17.5t83 -39t72 -39t65 -17.5q66 0 66 109h178q0 -59 -12.5 -108.5t-39.5 -90t-74.5 -63.5t-111.5 -23q-48 0 -96.5 17.5t-81 39t-71 39t-68.5 17.5q-66 0 -66 -109h-180z" />
<glyph unicode="&#x386;" horiz-adv-x="1546" d="M-14 0l653 1384h270l652 -1384h-322l-133 289h-703l-133 -289h-284zM121 1075l123 309h268l-217 -309h-174zM498 496h514l-256 571z" />
<glyph unicode="&#x388;" horiz-adv-x="1652" d="M0 1075l123 309h268l-217 -309h-174zM438 354v1030h1035v-213h-740v-360h666v-211h-666v-246q0 -74 37 -108.5t123 -34.5h612v-211h-661q-211 0 -308.5 88.5t-97.5 265.5z" />
<glyph unicode="&#x389;" horiz-adv-x="2095" d="M0 1075l123 309h268l-217 -309h-174zM438 0v1384h295v-565h817v565h295v-1384h-295v602h-817v-602h-295z" />
<glyph unicode="&#x38a;" horiz-adv-x="983" d="M0 1075l123 309h268l-217 -309h-174zM438 0v1384h295v-1384h-295z" />
<glyph unicode="&#x38c;" horiz-adv-x="2031" d="M0 1075l123 309h268l-217 -309h-174zM205 692q0 221 107 385.5t300 251t447 86.5t447 -86.5t300 -251t107 -385.5t-107 -385.5t-300 -251t-447 -86.5t-447 86.5t-300 251t-107 385.5zM512 692q0 -233 144.5 -371.5t402.5 -138.5t402.5 138.5t144.5 371.5t-144.5 371.5 t-402.5 138.5t-402.5 -138.5t-144.5 -371.5z" />
<glyph unicode="&#x38e;" horiz-adv-x="1880" d="M0 1075l123 309h268l-217 -309h-174zM412 1384h327l420 -602l420 602h299l-588 -833v-551h-295v551z" />
<glyph unicode="&#x38f;" horiz-adv-x="2056" d="M0 1075l121 309h268l-217 -309h-172zM219 0v211h383q-74 36 -137 84.5t-118 115.5t-86.5 157t-31.5 192q0 203 111 353t303 226t440 76t440 -76t303 -226t111 -353q0 -102 -31.5 -192t-86.5 -157t-117.5 -115.5t-136.5 -84.5h383v-211h-699v209q57 37 99.5 68.5t99 84.5 t92.5 106t62 127t26 153q0 223 -141.5 335.5t-403.5 112.5q-261 0 -402.5 -112.5t-141.5 -335.5q0 -79 26 -153t62 -127t92.5 -106t99 -84.5t99.5 -68.5v-209h-699z" />
<glyph unicode="&#x390;" horiz-adv-x="727" d="M-139 1182v227h239v-227h-239zM147 1145l123 309h240l-217 -309h-146zM178 305v668h273v-694q0 -97 96 -97q56 0 127 29v-211q-95 -31 -191 -31q-163 0 -234 82.5t-71 253.5zM528 1182v227h242v-227h-242z" />
<glyph unicode="&#x391;" horiz-adv-x="1546" d="M-14 0l653 1384h270l652 -1384h-322l-133 289h-703l-133 -289h-284zM498 496h514l-256 571z" />
<glyph unicode="&#x392;" horiz-adv-x="1554" d="M246 0v1384h530q304 0 463.5 -96t159.5 -270q0 -123 -77.5 -200t-191.5 -107q133 -26 220.5 -104t87.5 -210q0 -192 -175.5 -294.5t-486.5 -102.5h-530zM541 211h237q168 0 261.5 47.5t93.5 147.5q0 194 -351 194h-241v-389zM541 805h213q165 0 251.5 43.5t86.5 142.5 t-83.5 139.5t-250.5 40.5h-217v-366z" />
<glyph unicode="&#x393;" horiz-adv-x="1314" d="M246 0v1384h1028v-213h-733v-1171h-295z" />
<glyph unicode="&#x394;" horiz-adv-x="1495" d="M49 0v188l563 1196h269l563 -1194v-190h-1395zM340 211h776l-387 856z" />
<glyph unicode="&#x395;" horiz-adv-x="1437" d="M225 354v1030h1035v-213h-740v-360h666v-211h-666v-246q0 -74 37 -108.5t123 -34.5h612v-211h-661q-211 0 -308.5 88.5t-97.5 265.5z" />
<glyph unicode="&#x396;" horiz-adv-x="1464" d="M92 0v182l901 989h-882v213h1239v-194l-885 -979h907v-211h-1280z" />
<glyph unicode="&#x397;" horiz-adv-x="1900" d="M246 0v1384h295v-565h817v565h295v-1384h-295v602h-817v-602h-295z" />
<glyph unicode="&#x398;" horiz-adv-x="1953" d="M123 692q0 221 107 385.5t300 251t447 86.5t447 -86.5t300 -251t107 -385.5t-107 -385.5t-300 -251t-447 -86.5t-447 86.5t-300 251t-107 385.5zM430 692q0 -233 144.5 -371.5t402.5 -138.5t402.5 138.5t144.5 371.5t-144.5 371.5t-402.5 138.5t-402.5 -138.5 t-144.5 -371.5zM608 602v217h707v-217h-707z" />
<glyph unicode="&#x399;" horiz-adv-x="788" d="M246 0v1384h295v-1384h-295z" />
<glyph unicode="&#x39a;" horiz-adv-x="1579" d="M246 0v1384h295v-591l676 591h346l-752 -661l772 -723h-379l-663 616v-616h-295z" />
<glyph unicode="&#x39b;" horiz-adv-x="1574" d="M0 0l653 1384h271l651 -1384h-322l-483 1067l-485 -1067h-285z" />
<glyph unicode="&#x39c;" horiz-adv-x="2267" d="M246 0v1384h303l584 -856l583 856h303v-1384h-290v950l-463 -682h-267l-462 682v-950h-291z" />
<glyph unicode="&#x39d;" horiz-adv-x="1880" d="M246 0v1384h256l846 -972v972h284v-1384h-254l-848 971v-971h-284z" />
<glyph unicode="&#x39e;" horiz-adv-x="1492" d="M106 0v213h1280v-213h-1280zM127 1169v215h1239v-215h-1239zM215 588v213h1063v-213h-1063z" />
<glyph unicode="&#x39f;" horiz-adv-x="1953" d="M123 692q0 221 107 385.5t300 251t447 86.5t447 -86.5t300 -251t107 -385.5t-107 -385.5t-300 -251t-447 -86.5t-447 86.5t-300 251t-107 385.5zM430 692q0 -233 144.5 -371.5t402.5 -138.5t402.5 138.5t144.5 371.5t-144.5 371.5t-402.5 138.5t-402.5 -138.5 t-144.5 -371.5z" />
<glyph unicode="&#x3a0;" horiz-adv-x="1839" d="M246 0v1384h1347v-1384h-295v1171h-757v-1171h-295z" />
<glyph unicode="&#x3a1;" horiz-adv-x="1568" d="M246 0v1384h551q309 0 482 -116t173 -334q0 -220 -174 -335.5t-481 -115.5h-256v-483h-295zM541 696h256q160 0 255 57t95 181q0 84 -47 138.5t-123 76.5t-180 22h-256v-475z" />
<glyph unicode="&#x3a3;" horiz-adv-x="1392" d="M139 0v182l531 488l-531 532v182h1110v-213h-741l496 -487l-496 -473h747v-211h-1116z" />
<glyph unicode="&#x3a4;" horiz-adv-x="1431" d="M41 1171v213h1350v-213h-529v-1171h-295v1171h-526z" />
<glyph unicode="&#x3a5;" horiz-adv-x="1468" d="M0 1384h328l420 -602l419 602h299l-587 -833v-551h-295v551z" />
<glyph unicode="&#x3a6;" horiz-adv-x="1947" d="M119 692q0 177 89.5 309.5t247 206.5t369.5 90v156h295v-156q322 -24 514.5 -183t192.5 -423q0 -177 -89.5 -310.5t-247.5 -207.5t-370 -90v-154h-295v154q-322 24 -514 183t-192 425zM426 692q0 -159 105.5 -265t293.5 -126v778q-188 -21 -293.5 -126t-105.5 -261z M1120 301q188 20 294 126t106 265q0 156 -106 261t-294 126v-778z" />
<glyph unicode="&#x3a7;" horiz-adv-x="1527" d="M10 0l588 702l-557 682h340l391 -471l393 471h322l-559 -667l588 -717h-340l-418 508l-424 -508h-324z" />
<glyph unicode="&#x3a8;" horiz-adv-x="1912" d="M158 993v391h274v-391q0 -184 98.5 -277t278.5 -116v784h295v-784q180 23 278.5 116t98.5 277v391h274v-391q0 -149 -45 -262t-131.5 -187t-203.5 -117.5t-271 -61.5v-365h-295v365q-154 18 -271 61.5t-203.5 117.5t-131.5 187t-45 262z" />
<glyph unicode="&#x3a9;" horiz-adv-x="1953" d="M113 0v211h383q-74 36 -137 84.5t-118 115.5t-86.5 157t-31.5 192q0 203 111 353t303 226t440 76t440 -76t303 -226t111 -353q0 -102 -31.5 -192t-86.5 -157t-118 -115.5t-137 -84.5h383v-211h-698v209q57 37 99.5 68.5t99 84.5t92.5 106t62 127t26 153 q0 223 -141.5 335.5t-403.5 112.5t-403.5 -112.5t-141.5 -335.5q0 -79 26 -153t62 -127t92.5 -106t99 -84.5t99.5 -68.5v-209h-698z" />
<glyph unicode="&#x3aa;" horiz-adv-x="788" d="M57 1599v228h244v-228h-244zM246 0v1384h295v-1384h-295zM494 1599v228h241v-228h-241z" />
<glyph unicode="&#x3ab;" horiz-adv-x="1468" d="M0 1384h328l420 -602l419 602h299l-587 -833v-551h-295v551zM393 1589v228h244v-228h-244zM829 1589v228h242v-228h-242z" />
<glyph unicode="&#x3ac;" horiz-adv-x="1402" d="M102 471q0 150 60.5 270.5t178 191.5t273.5 71q119 0 209.5 -48.5t126.5 -138.5l15 156h258l-35 -516q-2 -33 -2 -138q0 -77 17.5 -107t66.5 -30q29 0 41 4v-206q-65 -11 -127 -11q-218 0 -240 191q-57 -94 -143 -142.5t-217 -48.5q-92 0 -175.5 30t-153.5 89t-111.5 158 t-41.5 225zM379 481q0 -148 70 -223.5t194 -75.5q102 0 180 77.5t78 209.5v47q0 133 -72.5 209t-179.5 76q-121 0 -195.5 -82t-74.5 -238zM553 1145l184 309h303l-280 -309h-207z" />
<glyph unicode="&#x3ad;" horiz-adv-x="1216" d="M115 262q0 69 40 121t95.5 78t120.5 35q-46 8 -83.5 22.5t-72.5 39t-54.5 63.5t-19.5 90q0 133 135.5 213t399.5 80q110 0 220.5 -15.5t176.5 -40.5v-213q-68 30 -180 48t-203 18q-133 0 -198.5 -24t-65.5 -83q0 -104 254 -104h190v-199h-178q-293 0 -293 -108 q0 -111 283 -111q106 0 213 22t186 56v-205q-76 -36 -187.5 -56t-223.5 -20q-268 0 -411.5 77t-143.5 216zM467 1145l184 309h303l-280 -309h-207z" />
<glyph unicode="&#x3ae;" horiz-adv-x="1406" d="M193 0v973h243l17 -82q70 53 164 83t194 30q185 0 302.5 -99t117.5 -291v-1003h-273v983q0 95 -64.5 141.5t-160.5 46.5q-148 0 -268 -77v-705h-272zM477 1145l185 309h303l-281 -309h-207z" />
<glyph unicode="&#x3af;" horiz-adv-x="727" d="M178 305v668h273v-694q0 -97 96 -97q56 0 127 29v-211q-95 -31 -191 -31q-163 0 -234 82.5t-71 253.5zM211 1145l184 309h303l-280 -309h-207z" />
<glyph unicode="&#x3b0;" horiz-adv-x="1327" d="M141 496v477h281v-496q0 -140 66.5 -222.5t195.5 -82.5q130 0 198 85t68 226q0 139 -57 269t-154 221h308q76 -72 125 -204.5t49 -276.5q0 -152 -61.5 -269t-185 -185.5t-294.5 -68.5q-277 0 -408 140t-131 387zM221 1182v227h240v-227h-240zM508 1145l123 309h239 l-217 -309h-145zM889 1182v227h241v-227h-241z" />
<glyph unicode="&#x3b1;" horiz-adv-x="1402" d="M102 471q0 150 60.5 270.5t178 191.5t273.5 71q119 0 209.5 -48.5t126.5 -138.5l15 156h258l-35 -516q-2 -33 -2 -138q0 -77 17.5 -107t66.5 -30q29 0 41 4v-206q-65 -11 -127 -11q-218 0 -240 191q-57 -94 -143 -142.5t-217 -48.5q-92 0 -175.5 30t-153.5 89t-111.5 158 t-41.5 225zM379 481q0 -148 70 -223.5t194 -75.5q102 0 180 77.5t78 209.5v47q0 133 -72.5 209t-179.5 76q-121 0 -195.5 -82t-74.5 -238z" />
<glyph unicode="&#x3b2;" horiz-adv-x="1390" d="M193 -389v1382q0 126 42.5 223t116.5 154.5t165.5 86t197.5 28.5q112 0 205.5 -24.5t165 -73.5t111.5 -127.5t40 -180.5q0 -80 -24 -142.5t-65.5 -100t-84 -59t-92.5 -32.5q43 -8 83.5 -22t83.5 -42t75 -65.5t52.5 -95t20.5 -127.5q0 -130 -67 -227.5t-179.5 -147 t-253.5 -49.5q-200 0 -323 84v-442h-270zM463 283q39 -37 123.5 -70t169.5 -33q120 0 182.5 56.5t62.5 162.5q0 115 -70 175.5t-206 60.5h-76v209h70q110 0 176 59.5t66 165.5q0 94 -67 153.5t-175 59.5q-120 0 -188 -70t-68 -202v-727z" />
<glyph unicode="&#x3b3;" horiz-adv-x="1191" d="M-2 973h289l309 -715q105 174 174 362.5t88 352.5h275q-27 -216 -142 -468.5t-284 -490.5v-403h-275v407z" />
<glyph unicode="&#x3b4;" horiz-adv-x="1404" d="M102 473q0 168 104.5 288.5t270.5 184.5q-29 18 -46 30.5t-40 35t-35.5 44.5t-22 55t-9.5 71q0 100 67.5 170.5t166.5 101.5t216 31q190 0 311 -51v-213q-132 63 -278 63q-211 0 -211 -117q0 -35 39 -67t101.5 -60.5t137.5 -61t150.5 -78t138 -102t101.5 -141.5t39 -188 q0 -237 -164 -368.5t-437 -131.5q-272 0 -436 133.5t-164 370.5zM381 459q0 -132 90 -209.5t231 -77.5t231.5 77.5t90.5 209.5q0 48 -10.5 89t-26 72t-43 58.5t-51.5 46t-62 37.5t-64 30t-67 27q-64 -14 -119.5 -42t-101 -71t-72 -106.5t-26.5 -140.5z" />
<glyph unicode="&#x3b5;" horiz-adv-x="1216" d="M115 262q0 69 40 121t95.5 78t120.5 35q-46 8 -83.5 22.5t-72.5 39t-54.5 63.5t-19.5 90q0 133 135.5 213t399.5 80q110 0 220.5 -15.5t176.5 -40.5v-213q-68 30 -180 48t-203 18q-133 0 -198.5 -24t-65.5 -83q0 -104 254 -104h190v-199h-178q-293 0 -293 -108 q0 -111 283 -111q106 0 213 22t186 56v-205q-76 -36 -187.5 -56t-223.5 -20q-268 0 -411.5 77t-143.5 216z" />
<glyph unicode="&#x3b6;" horiz-adv-x="1030" d="M102 485q0 227 143.5 413t426.5 343h-465v213h815v-197q-152 -91 -262 -175.5t-197 -180t-130.5 -199.5t-43.5 -217q0 -126 68.5 -193.5t204.5 -103.5q53 -14 82 -22.5t71 -21t64.5 -22.5t51 -25t43 -29.5t29 -34t20 -42.5t5.5 -50q0 -106 -48.5 -189.5t-135.5 -167.5 l-154 107q105 116 105 184q0 40 -32.5 59t-119.5 37q-102 21 -180.5 47.5t-148.5 68.5t-115 96t-71 130.5t-26 171.5z" />
<glyph unicode="&#x3b7;" horiz-adv-x="1406" d="M193 0v973h243l17 -82q70 53 164 83t194 30q185 0 302.5 -99t117.5 -291v-1003h-273v983q0 95 -64.5 141.5t-160.5 46.5q-148 0 -268 -77v-705h-272z" />
<glyph unicode="&#x3b8;" horiz-adv-x="1437" d="M125 727q0 135 21.5 249t67.5 208.5t115 161t168 103t222 36.5t222 -36.5t168 -103t115 -161t67.5 -208.5t21.5 -249q0 -170 -34.5 -306.5t-105 -238.5t-186 -157.5t-268.5 -55.5t-268.5 55.5t-186 157.5t-105 238.5t-34.5 306.5zM410 621q0 -204 80.5 -326.5 t228.5 -122.5t227.5 122.5t81.5 326.5h-618zM410 831h618q-2 205 -81.5 328t-227.5 123t-228.5 -123.5t-80.5 -327.5z" />
<glyph unicode="&#x3b9;" horiz-adv-x="727" d="M178 305v668h273v-694q0 -97 96 -97q56 0 127 29v-211q-95 -31 -191 -31q-163 0 -234 82.5t-71 253.5z" />
<glyph unicode="&#x3ba;" horiz-adv-x="1259" d="M193 0v973h272v-402l463 402h327l-540 -459l549 -514h-346l-453 422v-422h-272z" />
<glyph unicode="&#x3bb;" horiz-adv-x="1153" d="M-4 0l450 1008q-50 104 -94.5 157t-104 76t-155.5 23q31 190 35 221q207 -3 338.5 -96.5t216.5 -288.5l475 -1100h-278l-289 727l-305 -727h-289z" />
<glyph unicode="&#x3bc;" horiz-adv-x="1380" d="M193 -389v1362h272v-512q0 -137 44 -207t159 -70q68 0 134.5 28t115.5 71v690h270v-973h-223l-21 100q-44 -58 -121 -94.5t-164 -36.5q-124 0 -194 70v-428h-272z" />
<glyph unicode="&#x3bd;" horiz-adv-x="1191" d="M-2 973h287l311 -721q106 174 176.5 365t89.5 356h271q-27 -218 -146 -477.5t-289 -495.5h-260z" />
<glyph unicode="&#x3be;" horiz-adv-x="1081" d="M98 412q0 82 32 147t85 105.5t109 64.5t118 35q-59 14 -107.5 38t-92 61.5t-68 95.5t-24.5 131q0 97 43 173.5t118 124t172 72.5t209 25q198 0 322 -53v-205q-129 63 -295 63q-130 0 -210.5 -52t-80.5 -161q0 -56 26 -97.5t72 -66t102 -36t122 -11.5h141v-202h-160 q-69 0 -129 -12.5t-112.5 -39t-82.5 -75.5t-30 -115q0 -101 66.5 -152.5t201.5 -81.5q70 -16 113.5 -27.5t92.5 -28t77 -34t52.5 -42t35 -56.5t10.5 -72q0 -90 -52.5 -173.5t-139.5 -170.5l-152 107q104 111 104 188q0 20 -7.5 34.5t-18 23t-31.5 15t-39 10.5t-50.5 10 t-55.5 12q-87 20 -152.5 41.5t-131 57t-107.5 79t-68.5 107.5t-26.5 143z" />
<glyph unicode="&#x3bf;" horiz-adv-x="1398" d="M102 487q0 239 165 378t435 139t435.5 -139t165.5 -378t-165.5 -378.5t-435.5 -139.5t-435 139.5t-165 378.5zM381 487q0 -146 88.5 -230.5t232.5 -84.5q145 0 233.5 84.5t88.5 230.5t-88.5 230t-233.5 84t-233 -84t-88 -230z" />
<glyph unicode="&#x3c0;" horiz-adv-x="1492" d="M49 760v213h1327v-213h-209v-481q0 -97 97 -97q56 0 127 29v-211q-95 -31 -191 -31q-163 0 -234 82.5t-71 253.5v455h-363v-760h-272v760h-211z" />
<glyph unicode="&#x3c1;" horiz-adv-x="1310" d="M137 -389v868q0 138 41.5 241.5t115 164t166.5 90t204 29.5q94 0 175.5 -19.5t149.5 -61t116.5 -101.5t75.5 -145.5t27 -189.5q0 -127 -43.5 -226.5t-121.5 -162.5t-181.5 -96t-226.5 -33q-116 0 -225 37v-395h-273zM410 215q87 -43 211 -43q67 0 121.5 17.5t98 54 t67.5 99t24 146.5q0 152 -71 232t-193 80t-190 -79.5t-68 -238.5v-268z" />
<glyph unicode="&#x3c2;" horiz-adv-x="1126" d="M102 485q0 236 162.5 377.5t440.5 141.5q184 0 309 -52v-213q-136 62 -287 62q-163 0 -254.5 -82.5t-91.5 -233.5q0 -126 67.5 -193.5t190.5 -101.5q185 -51 244 -78q100 -48 121 -129q6 -25 6 -55q0 -90 -53 -173.5t-140 -170.5l-151 107q104 111 104 188q0 21 -12 37 t-42 29.5t-56 21t-78 21.5q-166 44 -245 86q-221 116 -234 375q-1 18 -1 36z" />
<glyph unicode="&#x3c3;" horiz-adv-x="1445" d="M102 473q0 238 162.5 369t435.5 131h705v-225l-285 14q85 -48 132.5 -133.5t47.5 -179.5q0 -146 -78 -256t-213.5 -167t-308.5 -57q-272 0 -435 133t-163 371zM381 473q0 -141 87 -221t232 -80t233.5 80.5t88.5 220.5q0 142 -88 220.5t-234 78.5q-145 0 -232 -78.5 t-87 -220.5z" />
<glyph unicode="&#x3c4;" horiz-adv-x="1097" d="M35 760v213h1018v-213h-371v-481q0 -97 96 -97q56 0 127 29v-211q-95 -31 -190 -31q-163 0 -234 82.5t-71 253.5v455h-375z" />
<glyph unicode="&#x3c5;" horiz-adv-x="1327" d="M141 496v477h281v-496q0 -140 66.5 -222.5t195.5 -82.5q130 0 198 85t68 226q0 139 -57 269t-154 221h308q76 -72 125 -204.5t49 -276.5q0 -152 -61.5 -269t-185 -185.5t-294.5 -68.5q-277 0 -408 140t-131 387z" />
<glyph unicode="&#x3c6;" horiz-adv-x="1785" d="M102 537q0 149 53.5 258.5t135.5 177.5h311q-99 -76 -160 -184.5t-61 -245.5q0 -151 93.5 -246.5t266.5 -112.5v326q0 136 37 235t103.5 154t147 80t179.5 25q98 0 182.5 -29.5t150.5 -87t104 -150t38 -209.5q0 -131 -49 -233.5t-138 -170.5t-209.5 -107.5t-268.5 -49.5 v-356h-277v358q-144 10 -258.5 48t-201 105.5t-133 172.5t-46.5 242zM1018 180q187 7 286 105.5t99 259.5q0 117 -52.5 182.5t-144.5 65.5q-99 0 -143.5 -69t-44.5 -212v-332z" />
<glyph unicode="&#x3c7;" horiz-adv-x="1132" d="M-68 -389l469 708l-428 654h314l278 -453l281 453h299l-424 -641l479 -721h-315l-328 520l-326 -520h-299z" />
<glyph unicode="&#x3c8;" horiz-adv-x="1832" d="M117 561q0 223 116 412h297q-129 -193 -129 -414q0 -162 98 -262.5t283 -110.5v1096h269v-1096q185 10 283 110.5t98 262.5q0 221 -129 414h296q117 -191 117 -412q0 -136 -49.5 -244.5t-139.5 -180t-210 -113.5t-266 -52v-360h-269v360q-146 10 -266 52t-210 113.5 t-139.5 180t-49.5 244.5z" />
<glyph unicode="&#x3c9;" horiz-adv-x="1978" d="M102 473q0 171 56.5 298t138.5 202h315q-229 -217 -229 -496q0 -129 56.5 -212t164.5 -83q126 0 185 87t59 231v254h282v-254q0 -144 59 -231t185 -87q108 0 164.5 83t56.5 212q0 279 -229 496h315q82 -75 138.5 -202t56.5 -298q0 -226 -125 -365t-356 -139 q-153 0 -256 63t-150 167q-47 -104 -149.5 -167t-255.5 -63q-231 0 -356.5 139t-125.5 365z" />
<glyph unicode="&#x3ca;" horiz-adv-x="727" d="M-18 1188v227h243v-227h-243zM178 305v668h273v-694q0 -97 96 -97q56 0 127 29v-211q-95 -31 -191 -31q-163 0 -234 82.5t-71 253.5zM418 1188v227h241v-227h-241z" />
<glyph unicode="&#x3cb;" horiz-adv-x="1327" d="M141 496v477h281v-496q0 -140 66.5 -222.5t195.5 -82.5q130 0 198 85t68 226q0 139 -57 269t-154 221h308q76 -72 125 -204.5t49 -276.5q0 -152 -61.5 -269t-185 -185.5t-294.5 -68.5q-277 0 -408 140t-131 387zM297 1188v227h244v-227h-244zM733 1188v227h242v-227h-242 z" />
<glyph unicode="&#x3cc;" horiz-adv-x="1398" d="M102 487q0 239 165 378t435 139t435.5 -139t165.5 -378t-165.5 -378.5t-435.5 -139.5t-435 139.5t-165 378.5zM381 487q0 -146 88.5 -230.5t232.5 -84.5q145 0 233.5 84.5t88.5 230.5t-88.5 230t-233.5 84t-233 -84t-88 -230zM580 1145l184 309h303l-281 -309h-206z" />
<glyph unicode="&#x3cd;" horiz-adv-x="1327" d="M141 496v477h281v-496q0 -140 66.5 -222.5t195.5 -82.5q130 0 198 85t68 226q0 139 -57 269t-154 221h308q76 -72 125 -204.5t49 -276.5q0 -152 -61.5 -269t-185 -185.5t-294.5 -68.5q-277 0 -408 140t-131 387zM492 1145l184 309h303l-281 -309h-206z" />
<glyph unicode="&#x3ce;" horiz-adv-x="1978" d="M102 473q0 171 56.5 298t138.5 202h315q-229 -217 -229 -496q0 -129 56.5 -212t164.5 -83q126 0 185 87t59 231v254h282v-254q0 -144 59 -231t185 -87q108 0 164.5 83t56.5 212q0 279 -229 496h315q82 -75 138.5 -202t56.5 -298q0 -226 -125 -365t-356 -139 q-153 0 -256 63t-150 167q-47 -104 -149.5 -167t-255.5 -63q-231 0 -356.5 139t-125.5 365zM895 1145l184 309h303l-280 -309h-207z" />
<glyph unicode="&#x3d0;" horiz-adv-x="1357" d="M127 717q0 141 27.5 258.5t76 199.5t110 143.5t134.5 97t144 52.5t143 17q144 0 251.5 -41t171.5 -132t64 -225q0 -75 -26 -137t-69 -102.5t-88.5 -65.5t-94.5 -39q59 -13 111 -39.5t100 -69.5t76 -110.5t28 -150.5t-31 -152t-83 -114.5t-120.5 -77.5t-141 -46 t-148.5 -14q-302 0 -468.5 191t-166.5 557zM418 807q549 0 549 287q0 89 -57 137.5t-158 48.5q-45 0 -89 -13.5t-89 -48t-78.5 -86t-55 -135.5t-22.5 -190zM422 600q2 -103 24.5 -182t56 -124.5t79.5 -74t88 -38t88 -9.5q112 0 174.5 58.5t62.5 152.5q0 95 -65 160.5 t-185 83.5q-128 -27 -323 -27z" />
<glyph unicode="&#x3d1;" horiz-adv-x="1357" d="M125 1018q0 205 152 336t387 131q91 0 168.5 -18t156 -69t133 -132t89 -216t34.5 -313q0 -366 -156 -568t-440 -202q-226 0 -367 117.5t-141 329.5q0 44 6 94h267q-6 -38 -6 -74q0 -116 60 -189t189 -73q60 0 111 23t94 73t67.5 141t24.5 214q-125 -39 -274 -39 q-86 0 -162.5 12.5t-150 44t-126 79.5t-84.5 124.5t-32 173.5zM408 1028q0 -64 25 -111t69 -72.5t95.5 -37.5t113.5 -12q128 0 247 39q-1 107 -19 187t-45 126.5t-67 75t-78.5 38t-84.5 9.5q-110 0 -183 -68t-73 -174z" />
<glyph unicode="&#x400;" horiz-adv-x="1437" d="M225 354v1030h1035v-213h-740v-360h666v-211h-666v-246q0 -74 37 -108.5t123 -34.5h612v-211h-661q-211 0 -308.5 88.5t-97.5 265.5zM408 1833h303l184 -309h-207z" />
<glyph unicode="&#x401;" horiz-adv-x="1437" d="M225 354v1030h1035v-213h-740v-360h666v-211h-666v-246q0 -74 37 -108.5t123 -34.5h612v-211h-661q-211 0 -308.5 88.5t-97.5 265.5zM395 1575v227h244v-227h-244zM831 1575v227h242v-227h-242z" />
<glyph unicode="&#x402;" horiz-adv-x="1857" d="M41 1171v213h1366v-213h-545v-342q156 103 357 103q215 0 338.5 -149.5t123.5 -405.5q0 -143 -36 -257t-95.5 -188t-141 -123.5t-167 -70.5t-178.5 -21v217q147 20 234 128.5t87 310.5q0 325 -251 325q-124 0 -271 -100v-598h-295v1171h-526z" />
<glyph unicode="&#x403;" horiz-adv-x="1314" d="M246 0v1384h1028v-213h-733v-1171h-295zM623 1524l184 309h303l-281 -309h-206z" />
<glyph unicode="&#x404;" horiz-adv-x="1533" d="M123 692q0 158 57 291t162 229t262.5 149.5t351.5 53.5q130 0 248 -19.5t189 -52.5v-219q-75 35 -184.5 56.5t-229.5 21.5q-218 0 -361 -103t-178 -288h770v-213h-774q29 -197 173.5 -306.5t369.5 -109.5q237 0 426 92v-219q-183 -86 -447 -86q-195 0 -353 53.5 t-263 149.5t-162 229t-57 291z" />
<glyph unicode="&#x405;" horiz-adv-x="1372" d="M156 1001q0 133 80.5 228t215 140.5t308.5 45.5q244 0 416 -72v-219q-63 31 -172 54.5t-220 23.5q-67 0 -122.5 -9.5t-101.5 -30.5t-71.5 -58t-25.5 -88q0 -42 26 -74t70.5 -52.5t102 -37.5t121 -34t127 -37.5t121 -52t102 -72.5t70.5 -105t26 -145q0 -95 -33 -171 t-88.5 -125t-132.5 -81.5t-160 -46t-176 -13.5q-128 0 -252 25t-217 67v222q94 -43 214.5 -72t236.5 -29q132 0 216.5 44.5t84.5 140.5q0 50 -26 86.5t-70.5 60t-102 42t-121 35.5t-127 37t-121 50.5t-102 71.5t-70.5 105t-26 146z" />
<glyph unicode="&#x406;" horiz-adv-x="788" d="M246 0v1384h295v-1384h-295z" />
<glyph unicode="&#x407;" horiz-adv-x="788" d="M57 1599v228h244v-228h-244zM246 0v1384h295v-1384h-295zM494 1599v228h241v-228h-241z" />
<glyph unicode="&#x408;" horiz-adv-x="989" d="M63 14v219q116 -51 222 -51q100 0 143 43.5t43 143.5v1015h295v-1001q0 -208 -112.5 -311t-323.5 -103q-143 0 -267 45z" />
<glyph unicode="&#x409;" horiz-adv-x="2410" d="M51 -33v219q48 8 83.5 26.5t60.5 52t41 74.5t24.5 101.5t12 124.5t3.5 152v667h1156v-483h256q311 0 484 -115t173 -335q0 -219 -173.5 -335t-483.5 -116h-551v1171h-562v-454q0 -117 -9 -208.5t-30.5 -177.5t-60 -148t-95.5 -110.5t-139.5 -74.5t-189.5 -31zM1432 211 h256q160 0 255 58t95 182q0 84 -47 138.5t-123 76.5t-180 22h-256v-477z" />
<glyph unicode="&#x40a;" horiz-adv-x="2447" d="M246 0v1384h295v-483h633v483h294v-483h256q307 0 481.5 -115t174.5 -335q0 -218 -173.5 -334.5t-482.5 -116.5h-550v688h-633v-688h-295zM1468 211h256q160 0 255.5 58t95.5 182q0 84 -47.5 138.5t-123.5 76.5t-180 22h-256v-477z" />
<glyph unicode="&#x40b;" horiz-adv-x="1867" d="M41 1171v213h1366v-213h-545v-352q68 46 168 79.5t211 33.5q227 0 328.5 -114t101.5 -378v-440h-295v481q0 109 -62.5 164t-170.5 55q-72 0 -147.5 -32.5t-133.5 -77.5v-590h-295v1171h-526z" />
<glyph unicode="&#x40c;" horiz-adv-x="1579" d="M242 0v1384h295v-645l677 645h347l-617 -569l633 -815h-363l-487 616l-190 -176v-440h-295zM727 1524l184 309h303l-280 -309h-207z" />
<glyph unicode="&#x40d;" horiz-adv-x="1880" d="M246 0v1384h284v-970l848 970h254v-1384h-284v973l-846 -973h-256zM610 1833h303l185 -309h-207z" />
<glyph unicode="&#x40e;" horiz-adv-x="1413" d="M18 1384h316l414 -710l403 710h311l-624 -1085q-38 -67 -70 -112.5t-76 -90t-92.5 -70t-115 -41.5t-148.5 -16q-103 0 -217 31v217q113 -35 198 -35q83 0 128.5 32.5t86.5 100.5l62 103zM381 1833h170q24 -145 194 -145q171 0 195 145h170q-9 -145 -105.5 -227 t-259.5 -82q-162 0 -258.5 82t-105.5 227z" />
<glyph unicode="&#x40f;" horiz-adv-x="1777" d="M246 0v1384h295v-1173h694v1173h295v-1384h-498l-16 -287h-260l-17 287h-493z" />
<glyph unicode="&#x410;" horiz-adv-x="1546" d="M-14 0l653 1384h270l652 -1384h-322l-133 289h-703l-133 -289h-284zM498 496h514l-256 571z" />
<glyph unicode="&#x411;" horiz-adv-x="1515" d="M246 0v1384h1028v-213h-733v-270h254q310 0 483.5 -116t173.5 -334q0 -220 -173 -335.5t-484 -115.5h-549zM541 213h254q104 0 180.5 22.5t124 77t47.5 138.5t-48 138.5t-124 76.5t-180 22h-254v-475z" />
<glyph unicode="&#x412;" horiz-adv-x="1554" d="M246 0v1384h530q304 0 463.5 -96t159.5 -270q0 -123 -77.5 -200t-191.5 -107q133 -26 220.5 -104t87.5 -210q0 -192 -175.5 -294.5t-486.5 -102.5h-530zM541 211h237q168 0 261.5 47.5t93.5 147.5q0 194 -351 194h-241v-389zM541 805h213q165 0 251.5 43.5t86.5 142.5 t-83.5 139.5t-250.5 40.5h-217v-366z" />
<glyph unicode="&#x413;" horiz-adv-x="1314" d="M246 0v1384h1028v-213h-733v-1171h-295z" />
<glyph unicode="&#x414;" horiz-adv-x="1607" d="M6 211h82q61 75 99 158t55.5 181.5t22.5 183.5t5 212v438h1092v-1173h113v-498h-250l-8 287h-951l-10 -287h-250v498zM393 211h670v950h-514v-215q0 -99 -1.5 -161t-10 -149t-24.5 -150.5t-46 -137t-74 -137.5z" />
<glyph unicode="&#x415;" horiz-adv-x="1437" d="M225 354v1030h1035v-213h-740v-360h666v-211h-666v-246q0 -74 37 -108.5t123 -34.5h612v-211h-661q-211 0 -308.5 88.5t-97.5 265.5z" />
<glyph unicode="&#x416;" horiz-adv-x="2381" d="M2 0l633 815l-617 569h347l677 -645v645h295v-645l678 645h346l-616 -569l633 -815h-363l-487 616l-191 -176v-440h-295v440l-190 176l-487 -616h-363z" />
<glyph unicode="&#x417;" horiz-adv-x="1298" d="M119 55v226q215 -97 424 -97q153 0 242 52.5t89 162.5q0 187 -362 187h-168v221h170q157 0 249.5 48.5t92.5 145.5q0 201 -303 201q-198 0 -408 -106v227q189 92 430 92q174 0 304 -41t207 -130.5t77 -219.5q0 -117 -76.5 -199t-199.5 -118q134 -36 214.5 -117.5 t80.5 -210.5t-81 -223t-219 -140.5t-317 -46.5q-257 0 -446 86z" />
<glyph unicode="&#x418;" horiz-adv-x="1878" d="M246 0v1384h284v-970l848 970h254v-1384h-284v973l-846 -973h-256z" />
<glyph unicode="&#x419;" horiz-adv-x="1880" d="M246 0v1384h284v-970l848 970h254v-1384h-284v973l-846 -973h-256zM573 1833h170q24 -145 195 -145t195 145h170q-9 -145 -105.5 -227t-259.5 -82t-259.5 82t-105.5 227z" />
<glyph unicode="&#x41a;" horiz-adv-x="1579" d="M242 0v1384h295v-645l677 645h347l-617 -569l633 -815h-363l-487 616l-190 -176v-440h-295z" />
<glyph unicode="&#x41b;" horiz-adv-x="1726" d="M51 -33v219q70 11 115.5 48t70.5 106.5t34.5 157t9.5 219.5v667h1198v-1384h-295v1171h-609v-454q0 -117 -9 -208.5t-30.5 -177.5t-60.5 -148t-96 -110.5t-139.5 -74.5t-188.5 -31z" />
<glyph unicode="&#x41c;" horiz-adv-x="2267" d="M246 0v1384h303l584 -856l583 856h303v-1384h-290v950l-463 -682h-267l-462 682v-950h-291z" />
<glyph unicode="&#x41d;" horiz-adv-x="1900" d="M246 0v1384h295v-565h817v565h295v-1384h-295v602h-817v-602h-295z" />
<glyph unicode="&#x41e;" horiz-adv-x="1953" d="M127 692q0 221 107 385.5t300 251t447 86.5t447 -86.5t300 -251t107 -385.5t-107 -385.5t-300 -251t-447 -86.5t-447 86.5t-300 251t-107 385.5zM434 692q0 -233 144.5 -371.5t402.5 -138.5t402.5 138.5t144.5 371.5t-144.5 371.5t-402.5 138.5t-402.5 -138.5 t-144.5 -371.5z" />
<glyph unicode="&#x41f;" horiz-adv-x="1839" d="M246 0v1384h1347v-1384h-295v1171h-757v-1171h-295z" />
<glyph unicode="&#x420;" horiz-adv-x="1568" d="M246 0v1384h551q309 0 482 -116t173 -334q0 -220 -174 -335.5t-481 -115.5h-256v-483h-295zM541 696h256q160 0 255 57t95 181q0 84 -47 138.5t-123 76.5t-180 22h-256v-475z" />
<glyph unicode="&#x421;" horiz-adv-x="1533" d="M123 692q0 158 57 291t162 229t262.5 149.5t351.5 53.5q130 0 248 -19.5t189 -52.5v-219q-75 35 -184.5 56.5t-229.5 21.5q-252 0 -400.5 -135.5t-148.5 -374.5t148.5 -374.5t400.5 -135.5q237 0 426 92v-219q-183 -86 -447 -86q-195 0 -353 53.5t-263 149.5t-162 229 t-57 291z" />
<glyph unicode="&#x422;" horiz-adv-x="1431" d="M41 1171v213h1350v-213h-529v-1171h-295v1171h-526z" />
<glyph unicode="&#x423;" horiz-adv-x="1413" d="M18 1384h316l414 -710l403 710h311l-624 -1085q-38 -67 -70 -112.5t-76 -90t-92.5 -70t-115 -41.5t-148.5 -16q-103 0 -217 31v217q113 -35 198 -35q83 0 128.5 32.5t86.5 100.5l62 103z" />
<glyph unicode="&#x424;" horiz-adv-x="1947" d="M119 692q0 177 89.5 309.5t247 206.5t369.5 90v156h295v-156q322 -24 514.5 -183t192.5 -423q0 -177 -89.5 -310.5t-247.5 -207.5t-370 -90v-154h-295v154q-322 24 -514 183t-192 425zM426 692q0 -159 105.5 -265t293.5 -126v778q-188 -21 -293.5 -126t-105.5 -261z M1120 301q188 20 294 126t106 265q0 156 -106 261t-294 126v-778z" />
<glyph unicode="&#x425;" horiz-adv-x="1527" d="M10 0l588 702l-557 682h340l391 -471l393 471h322l-559 -667l588 -717h-340l-418 508l-424 -508h-324z" />
<glyph unicode="&#x426;" horiz-adv-x="1775" d="M246 0v1384h295v-1173h694v1173h295v-1173h115v-498h-248l-8 287h-1143z" />
<glyph unicode="&#x427;" horiz-adv-x="1689" d="M154 961v423h299v-421q0 -299 323 -299q201 0 375 129v591h293v-1384h-293v555q-73 -57 -195 -92t-243 -35q-259 0 -409 137.5t-150 395.5z" />
<glyph unicode="&#x428;" horiz-adv-x="2476" d="M246 0v1384h295v-1173h549v1173h296v-1173h547v1173h297v-1384h-1984z" />
<glyph unicode="&#x429;" horiz-adv-x="2476" d="M246 0v1384h295v-1173h549v1173h296v-1173h547v1173h297v-1173h115v-498h-246l-10 287h-1843z" />
<glyph unicode="&#x42a;" horiz-adv-x="1662" d="M27 1171v213h663v-483h254q310 0 484 -116t174 -334q0 -220 -173.5 -335.5t-484.5 -115.5h-549v1171h-368zM690 211h254q160 0 256 58t96 182q0 84 -48 138.5t-124 76.5t-180 22h-254v-477z" />
<glyph unicode="&#x42b;" horiz-adv-x="2328" d="M246 0v1384h295v-483h256q307 0 481 -115t174 -335q0 -218 -173 -334.5t-482 -116.5h-551zM541 211h256q160 0 255 58t95 182q0 84 -47 138.5t-123 76.5t-180 22h-256v-477zM1788 0v1384h295v-1384h-295z" />
<glyph unicode="&#x42c;" horiz-adv-x="1576" d="M246 0v1384h295v-483h256q307 0 481 -115t174 -335q0 -218 -173 -334.5t-482 -116.5h-551zM541 211h256q160 0 255 58t95 182q0 84 -47 138.5t-123 76.5t-180 22h-256v-477z" />
<glyph unicode="&#x42d;" horiz-adv-x="1533" d="M129 55v219q189 -92 426 -92q225 0 369.5 109.5t173.5 306.5h-774v213h770q-35 185 -178 288t-361 103q-120 0 -229.5 -21.5t-184.5 -56.5v219q71 33 189 52.5t248 19.5q194 0 351.5 -53.5t262.5 -149.5t162 -229t57 -291t-57 -291t-162.5 -229t-263.5 -149.5t-353 -53.5 q-263 0 -446 86z" />
<glyph unicode="&#x42e;" horiz-adv-x="2650" d="M246 0v1384h295v-565h288q44 279 270.5 437.5t573.5 158.5q254 0 447 -86.5t300 -251t107 -385.5t-107 -385.5t-300 -251t-447 -86.5q-359 0 -588.5 169.5t-261.5 463.5h-282v-602h-295zM1126 692q0 -233 144.5 -371.5t402.5 -138.5t402.5 138.5t144.5 371.5 t-144.5 371.5t-402.5 138.5t-402.5 -138.5t-144.5 -371.5z" />
<glyph unicode="&#x42f;" horiz-adv-x="1583" d="M90 0l426 539q-186 37 -285.5 136.5t-99.5 258.5q0 218 173 334t482 116h551v-1384h-295v483h-239l-375 -483h-338zM436 934q0 -124 95 -181t255 -57h256v475h-256q-104 0 -180 -22t-123 -76.5t-47 -138.5z" />
<glyph unicode="&#x430;" horiz-adv-x="1349" d="M102 473q0 128 46 229.5t129 167t196 100t248 34.5q222 0 450 -74v-930h-219l-20 96q-75 -63 -152.5 -95t-181.5 -32q-98 0 -185 31t-157.5 90.5t-112 158.5t-41.5 224zM379 483q0 -153 76.5 -227t203.5 -74q144 0 240 90v504q-83 25 -172 25q-71 0 -131.5 -17.5 t-110 -53.5t-78 -99.5t-28.5 -147.5z" />
<glyph unicode="&#x431;" horiz-adv-x="1404" d="M102 582q0 450 234 652q150 130 440 188q95 19 387 56q13 2 25 3v-232q-54 -9 -121.5 -17t-118.5 -13t-110.5 -13t-104 -16.5t-93.5 -23t-85 -33t-71.5 -47t-60.5 -64t-44 -84t-29 -107.5q60 83 165.5 128t236.5 45q256 0 403.5 -138.5t147.5 -380.5q0 -238 -166 -377 t-437 -139q-598 0 -598 613zM381 487q0 -146 88.5 -230.5t232.5 -84.5q145 0 233.5 84.5t88.5 230.5t-88.5 230t-233.5 84t-233 -84t-88 -230z" />
<glyph unicode="&#x432;" horiz-adv-x="1347" d="M193 0v973h503q259 0 391 -66.5t132 -208.5q0 -89 -55 -135t-154 -65q107 -14 175 -71.5t68 -152.5q0 -64 -26.5 -112.5t-72.5 -79t-117.5 -49t-153 -26t-187.5 -7.5h-503zM465 172h240q134 0 201 27t67 88q0 62 -66.5 88t-201.5 26h-240v-229zM465 573h225q132 0 190 25 t58 90t-57.5 89t-190.5 24h-225v-228z" />
<glyph unicode="&#x433;" horiz-adv-x="1032" d="M193 0v973h747v-213h-475v-760h-272z" />
<glyph unicode="&#x434;" horiz-adv-x="1318" d="M14 211h76q129 115 129 416v346h895v-762h94v-498h-211l-16 287h-739l-17 -287h-211v498zM356 211h488v549h-367v-135q0 -145 -27.5 -246.5t-93.5 -167.5z" />
<glyph unicode="&#x435;" horiz-adv-x="1308" d="M104 489q0 159 73.5 276.5t200.5 178t292 60.5q135 0 240.5 -38t169 -103t96 -144.5t32.5 -167.5v-162h-811q16 -78 72 -128.5t130 -69.5t169 -19q106 0 217 22t189 56v-205q-75 -35 -197.5 -55.5t-237.5 -20.5q-303 0 -469 137t-166 383zM391 575h539q-3 110 -75 168 t-191 58q-117 0 -187.5 -56.5t-85.5 -169.5z" />
<glyph unicode="&#x436;" horiz-adv-x="1865" d="M-2 0l453 559l-445 414h328l461 -438v438h272v-438l461 438h327l-444 -414l453 -559h-322l-319 393l-156 -141v-252h-272v252l-156 141l-320 -393h-321z" />
<glyph unicode="&#x437;" horiz-adv-x="1202" d="M133 45v205q79 -34 186 -56t213 -22q283 0 283 111q0 108 -293 108h-178v199h191q253 0 253 104q0 59 -65.5 83t-198.5 24q-91 0 -203 -18t-180 -48v213q66 25 177 40.5t221 15.5q264 0 399 -80t135 -213q0 -174 -229 -215q65 -9 120.5 -35t95.5 -78t40 -121 q0 -139 -143.5 -216t-411.5 -77q-112 0 -224 20t-188 56z" />
<glyph unicode="&#x438;" horiz-adv-x="1447" d="M193 0v973h270v-643l522 643h270v-973h-270v639l-522 -639h-270z" />
<glyph unicode="&#x439;" horiz-adv-x="1447" d="M193 0v973h270v-643l522 643h270v-973h-270v639l-522 -639h-270zM358 1450h170q24 -145 195 -145t195 145h169q-9 -145 -105.5 -227t-258.5 -82q-163 0 -259.5 82t-105.5 227z" />
<glyph unicode="&#x43a;" horiz-adv-x="1259" d="M193 0v973h272v-438l461 438h327l-444 -414l453 -559h-322l-319 393l-156 -141v-252h-272z" />
<glyph unicode="&#x43b;" horiz-adv-x="1361" d="M2 -31v209q58 11 96.5 32t64.5 53t39.5 84.5t19 115.5t5.5 158v352h942v-973h-274v760h-408v-142q0 -121 -13.5 -214.5t-46.5 -174.5t-87.5 -135t-139 -86.5t-198.5 -38.5z" />
<glyph unicode="&#x43c;" horiz-adv-x="1835" d="M193 0v973h299l426 -619l425 619h299v-973h-272v627l-323 -469h-259l-323 469v-627h-272z" />
<glyph unicode="&#x43d;" horiz-adv-x="1431" d="M193 0v973h272v-346h506v346h272v-973h-272v414h-506v-414h-272z" />
<glyph unicode="&#x43e;" horiz-adv-x="1404" d="M102 487q0 239 165 378t435 139t435.5 -139t165.5 -378t-165.5 -378.5t-435.5 -139.5t-435 139.5t-165 378.5zM381 487q0 -146 88.5 -230.5t232.5 -84.5q145 0 233.5 84.5t88.5 230.5t-88.5 230t-233.5 84t-233 -84t-88 -230z" />
<glyph unicode="&#x43f;" horiz-adv-x="1417" d="M193 0v973h1034v-973h-273v760h-489v-760h-272z" />
<glyph unicode="&#x440;" d="M193 -389v1362h243l17 -80q133 111 315 111q96 0 182.5 -31t157 -91t112.5 -160.5t42 -227.5q0 -162 -78 -282.5t-208.5 -181.5t-293.5 -61q-97 0 -217 19v-377h-272zM465 199q74 -27 182 -27q149 0 243.5 76t94.5 237q0 154 -77.5 235t-202.5 81q-140 0 -240 -94v-508z " />
<glyph unicode="&#x441;" horiz-adv-x="1165" d="M102 487q0 235 162.5 376t440.5 141q184 0 309 -52v-213q-136 62 -287 62q-163 0 -254.5 -82.5t-91.5 -233.5q0 -149 91.5 -231t252.5 -82q159 0 301 74v-215q-134 -62 -334 -62q-274 0 -432 145t-158 373z" />
<glyph unicode="&#x442;" horiz-adv-x="1107" d="M35 760v213h1018v-213h-373v-760h-272v760h-373z" />
<glyph unicode="&#x443;" horiz-adv-x="1167" d="M2 973h291l291 -709l303 709h278l-454 -998q-86 -190 -225 -284t-361 -113v215q233 29 324 223z" />
<glyph unicode="&#x444;" horiz-adv-x="1695" d="M100 485q0 233 163.5 365t451.5 154v380h264v-380q288 -22 451 -154t163 -365q0 -235 -163 -366t-451 -150v-358h-264v358q-288 19 -451.5 150t-163.5 366zM377 485q0 -130 90.5 -212t247.5 -103v631q-156 -21 -247 -103.5t-91 -212.5zM979 170q157 21 247.5 103 t90.5 212t-91 212.5t-247 103.5v-631z" />
<glyph unicode="&#x445;" horiz-adv-x="1177" d="M18 0l404 489l-397 484h325l244 -307l246 307h305l-395 -484l407 -489h-326l-256 311l-253 -311h-304z" />
<glyph unicode="&#x446;" horiz-adv-x="1384" d="M193 0v973h272v-762h442v762h273v-762h90v-498h-211l-17 287h-849z" />
<glyph unicode="&#x447;" horiz-adv-x="1300" d="M113 639v334h272v-328q0 -94 52 -137t153 -43q138 0 248 102v406h270v-973h-270v356q-140 -104 -318 -104q-195 0 -301 99t-106 288z" />
<glyph unicode="&#x448;" horiz-adv-x="1949" d="M193 0v973h272v-762h375v762h272v-762h375v762h272v-973h-1566z" />
<glyph unicode="&#x449;" horiz-adv-x="1964" d="M193 0v973h272v-762h375v762h272v-762h375v762h272v-762h90v-498h-213l-16 287h-1427z" />
<glyph unicode="&#x44a;" horiz-adv-x="1380" d="M14 760v213h531v-316h198q131 0 228 -16.5t170.5 -53.5t111 -101t37.5 -154q0 -78 -25 -136t-70 -95t-115 -60t-150.5 -32t-186.5 -9h-469v760h-260zM545 188h207q258 0 258 144q0 141 -258 141h-207v-285z" />
<glyph unicode="&#x44b;" horiz-adv-x="1853" d="M193 0v973h270v-316h201q130 0 226.5 -16.5t170 -53.5t110.5 -101t37 -154q0 -78 -25 -136t-69.5 -95t-114 -60t-150 -32t-185.5 -9h-471zM463 188h207q258 0 258 144q0 141 -258 141h-207v-285zM1393 0v973h270v-973h-270z" />
<glyph unicode="&#x44c;" horiz-adv-x="1298" d="M193 0v973h270v-316h201q130 0 226.5 -16.5t170 -53.5t110.5 -101t37 -154q0 -78 -25 -136t-69.5 -95t-114 -60t-150 -32t-185.5 -9h-471zM463 188h207q258 0 258 144q0 141 -258 141h-207v-285z" />
<glyph unicode="&#x44d;" horiz-adv-x="1161" d="M135 31v215q142 -74 301 -74q136 0 223.5 58.5t112.5 168.5h-493v191h489q-29 101 -115.5 156t-218.5 55q-151 0 -287 -62v213q125 52 310 52q278 0 440 -141t162 -376q0 -228 -158 -373t-432 -145q-200 0 -334 62z" />
<glyph unicode="&#x44e;" horiz-adv-x="2002" d="M193 0v973h272v-332h260q49 170 203.5 266.5t376.5 96.5q270 0 435 -139t165 -378t-165 -378.5t-435 -139.5q-249 0 -409.5 118.5t-186.5 326.5h-244v-414h-272zM983 487q0 -146 88.5 -230.5t233.5 -84.5q144 0 232.5 84.5t88.5 230.5t-88 230t-233 84t-233.5 -84 t-88.5 -230z" />
<glyph unicode="&#x44f;" horiz-adv-x="1370" d="M96 0l314 342q-287 74 -287 305q0 155 146.5 240.5t394.5 85.5h514v-973h-271v313h-223l-278 -313h-310zM399 641q0 -139 256 -139h252v282h-252q-130 0 -193 -35t-63 -108z" />
<glyph unicode="&#x450;" horiz-adv-x="1308" d="M104 489q0 159 73.5 276.5t200.5 178t292 60.5q135 0 240.5 -38t169 -103t96 -144.5t32.5 -167.5v-162h-811q16 -78 72 -128.5t130 -69.5t169 -19q106 0 217 22t189 56v-205q-75 -35 -197.5 -55.5t-237.5 -20.5q-303 0 -469 137t-166 383zM301 1454h303l184 -309h-206z M391 575h539q-3 110 -75 168t-191 58q-117 0 -187.5 -56.5t-85.5 -169.5z" />
<glyph unicode="&#x451;" horiz-adv-x="1308" d="M104 489q0 159 73.5 276.5t200.5 178t292 60.5q135 0 240.5 -38t169 -103t96 -144.5t32.5 -167.5v-162h-811q16 -78 72 -128.5t130 -69.5t169 -19q106 0 217 22t189 56v-205q-75 -35 -197.5 -55.5t-237.5 -20.5q-303 0 -469 137t-166 383zM326 1188v227h243v-227h-243z M391 575h539q-3 110 -75 168t-191 58q-117 0 -187.5 -56.5t-85.5 -169.5zM762 1188v227h242v-227h-242z" />
<glyph unicode="&#x452;" horiz-adv-x="1349" d="M14 1161v135h179v158h272v-158h430v-135h-430v-264q70 48 167.5 77.5t194.5 29.5q106 0 185 -42.5t125.5 -120.5t69 -179t22.5 -226q0 -130 -22.5 -236.5t-57.5 -178t-87 -125.5t-103 -84.5t-114.5 -50t-111 -26t-102.5 -9.5v219q76 10 132 37t102 80t69.5 143t23.5 215 q0 181 -50 270.5t-175 89.5q-144 0 -268 -75v-705h-272v1161h-179z" />
<glyph unicode="&#x453;" horiz-adv-x="1050" d="M193 0v973h747v-213h-475v-760h-272zM436 1145l185 309h303l-281 -309h-207z" />
<glyph unicode="&#x454;" horiz-adv-x="1157" d="M102 487q0 235 162.5 376t440.5 141q184 0 309 -52v-213q-136 62 -287 62q-132 0 -218.5 -55t-115.5 -156h490v-191h-494q25 -110 112.5 -168.5t223.5 -58.5q159 0 301 74v-215q-134 -62 -334 -62q-274 0 -432 145t-158 373z" />
<glyph unicode="&#x455;" horiz-adv-x="1101" d="M109 676q0 85 41 149.5t113 102.5t162 57t196 19q224 0 372 -56v-209q-56 24 -158.5 43t-199.5 19q-250 0 -250 -103q0 -32 36 -52t93.5 -30.5t126.5 -21t138.5 -30t127 -49.5t93.5 -87t36 -137q0 -84 -39 -147.5t-107.5 -100.5t-155 -55.5t-189.5 -18.5q-234 0 -418 80 v213q65 -35 184 -62.5t230 -27.5q49 0 87 5t69.5 16.5t48 33t16.5 52.5q0 34 -36 55.5t-93.5 33.5t-127 22.5t-139.5 29t-127.5 47t-93.5 82t-36 127.5z" />
<glyph unicode="&#x456;" horiz-adv-x="657" d="M193 0v973h272v-973h-272zM193 1176v239h272v-239h-272z" />
<glyph unicode="&#x457;" horiz-adv-x="657" d="M-10 1188v227h243v-227h-243zM193 0v973h272v-973h-272zM426 1188v227h242v-227h-242z" />
<glyph unicode="&#x458;" horiz-adv-x="653" d="M-29 -176q67 -29 125 -29q97 0 97 96v1082h272v-1036q0 -179 -70.5 -268t-234.5 -89q-104 0 -189 33v211zM193 1176v239h272v-239h-272z" />
<glyph unicode="&#x459;" horiz-adv-x="1929" d="M2 -31v209q58 11 96.5 32t64.5 53t39.5 84.5t19 115.5t5.5 158v352h867v-316h200q130 0 227 -16.5t170 -53.5t110.5 -101t37.5 -154q0 -78 -25 -136t-70 -95t-114.5 -60t-150 -32t-185.5 -9h-471v760h-336v-142q0 -121 -13.5 -214.5t-46.5 -174.5t-87.5 -135t-139 -86.5 t-198.5 -38.5zM1094 188h206q259 0 259 144q0 141 -259 141h-206v-285z" />
<glyph unicode="&#x45a;" horiz-adv-x="1990" d="M190 0v973h271v-316h424v316h270v-316h201q130 0 227 -16.5t170 -53.5t110.5 -101t37.5 -154q0 -78 -25 -136t-70 -95t-114.5 -60t-150 -32t-185.5 -9h-471v473h-424v-473h-271zM1155 188h207q258 0 258 144q0 141 -258 141h-207v-285z" />
<glyph unicode="&#x45b;" horiz-adv-x="1406" d="M12 1163v137h181v154h272v-154h432v-137h-432v-264q68 50 159 77.5t187 27.5q185 0 302.5 -99t117.5 -291v-614h-273v594q0 95 -64.5 141.5t-160.5 46.5q-148 0 -268 -77v-705h-272v1163h-181z" />
<glyph unicode="&#x45c;" horiz-adv-x="1259" d="M193 0v973h272v-438l461 438h327l-444 -414l453 -559h-322l-319 393l-156 -141v-252h-272zM535 1145l184 309h303l-281 -309h-206z" />
<glyph unicode="&#x45d;" horiz-adv-x="1447" d="M193 0v973h270v-643l522 643h270v-973h-270v639l-522 -639h-270zM375 1454h303l184 -309h-207z" />
<glyph unicode="&#x45e;" horiz-adv-x="1173" d="M2 973h291l291 -709l303 709h278l-454 -998q-86 -190 -225 -284t-361 -113v215q233 29 324 223zM219 1450h170q24 -145 195 -145q170 0 194 145h170q-9 -145 -105.5 -227t-258.5 -82q-163 0 -259.5 82t-105.5 227z" />
<glyph unicode="&#x45f;" horiz-adv-x="1368" d="M190 0v973h271v-762h442v762h273v-973h-371l-8 -287h-228l-8 287h-371z" />
<glyph unicode="&#x462;" horiz-adv-x="1597" d="M45 1141v184h221v129h295v-129h434v-184h-434v-240h256q307 0 481.5 -115t174.5 -335q0 -218 -173.5 -334.5t-482.5 -116.5h-551v1141h-221zM561 211h256q160 0 255 58t95 182q0 84 -47 138.5t-123 76.5t-180 22h-256v-477z" />
<glyph unicode="&#x463;" horiz-adv-x="1384" d="M2 825v148h277v309h270v-309h389v-148h-389v-168h201q130 0 226.5 -16.5t170 -53.5t110.5 -101t37 -154q0 -78 -25 -136t-69.5 -95t-114 -60t-150 -32t-185.5 -9h-471v825h-277zM549 188h207q258 0 258 144q0 141 -258 141h-207v-285z" />
<glyph unicode="&#x472;" horiz-adv-x="1953" d="M123 692q0 221 107 385.5t300 251t447 86.5t447 -86.5t300 -251t107 -385.5t-107 -385.5t-300 -251t-447 -86.5t-447 86.5t-300 251t-107 385.5zM436 600q28 -195 169 -306.5t372 -111.5q230 0 371.5 111.5t169.5 306.5h-1082zM440 813h1071q-34 181 -173.5 285 t-360.5 104q-222 0 -361.5 -103.5t-175.5 -285.5z" />
<glyph unicode="&#x473;" horiz-adv-x="1404" d="M102 487q0 239 165 378t435 139t435.5 -139t165.5 -378t-165.5 -378.5t-435.5 -139.5t-435 139.5t-165 378.5zM389 408q23 -112 106 -174t207 -62q123 0 207 62.5t107 173.5h-627zM391 580h623q-26 104 -109.5 162.5t-202.5 58.5q-120 0 -202.5 -58.5t-108.5 -162.5z" />
<glyph unicode="&#x474;" horiz-adv-x="1570" d="M0 1384h317l486 -1067l385 850q59 131 136.5 189.5t207.5 58.5q35 0 53 -2v-211h-18q-50 0 -82 -29t-62 -92l-516 -1081h-260z" />
<glyph unicode="&#x475;" horiz-adv-x="1212" d="M14 973h289l299 -699l207 482q57 130 134 189t202 59q26 0 53 -3v-210h-22q-49 0 -79.5 -28.5t-60.5 -92.5l-315 -670h-266z" />
<glyph unicode="&#x490;" horiz-adv-x="1306" d="M246 0v1384h760l12 289h248v-502h-725v-1171h-295z" />
<glyph unicode="&#x491;" horiz-adv-x="1136" d="M193 0v973h522l14 289h211v-502h-475v-760h-272z" />
<glyph unicode="&#x2000;" horiz-adv-x="933" />
<glyph unicode="&#x2001;" horiz-adv-x="1866" />
<glyph unicode="&#x2002;" horiz-adv-x="933" />
<glyph unicode="&#x2003;" horiz-adv-x="1866" />
<glyph unicode="&#x2004;" horiz-adv-x="622" />
<glyph unicode="&#x2005;" horiz-adv-x="466" />
<glyph unicode="&#x2006;" horiz-adv-x="311" />
<glyph unicode="&#x2007;" horiz-adv-x="311" />
<glyph unicode="&#x2008;" horiz-adv-x="233" />
<glyph unicode="&#x2009;" horiz-adv-x="373" />
<glyph unicode="&#x200a;" horiz-adv-x="103" />
<glyph unicode="&#x2010;" horiz-adv-x="966" d="M170 473v211h627v-211h-627z" />
<glyph unicode="&#x2011;" horiz-adv-x="966" d="M170 473v211h627v-211h-627z" />
<glyph unicode="&#x2012;" horiz-adv-x="966" d="M170 473v211h627v-211h-627z" />
<glyph unicode="&#x2013;" horiz-adv-x="1441" d="M170 473v211h1102v-211h-1102z" />
<glyph unicode="&#x2014;" horiz-adv-x="2498" d="M170 475v209h2159v-209h-2159z" />
<glyph unicode="&#x2018;" horiz-adv-x="641" d="M117 1010q0 129 74.5 236t220.5 173l112 -127q-166 -108 -166 -274q0 -89 43 -174h-247q-37 75 -37 166z" />
<glyph unicode="&#x2019;" horiz-adv-x="641" d="M117 934q166 106 166 276q0 89 -43 174h247q37 -75 37 -165q0 -130 -75 -238t-220 -172z" />
<glyph unicode="&#x201a;" horiz-adv-x="641" d="M117 -223q166 106 166 276q0 89 -43 174h247q37 -75 37 -166q0 -130 -75 -237.5t-220 -171.5z" />
<glyph unicode="&#x201c;" horiz-adv-x="1105" d="M117 1008q0 130 75 237.5t220 171.5l112 -125q-166 -106 -166 -276q0 -89 43 -174h-247q-37 75 -37 166zM582 1008q0 130 75 237.5t220 171.5l112 -125q-166 -106 -166 -276q0 -89 43 -174h-248q-36 73 -36 166z" />
<glyph unicode="&#x201d;" horiz-adv-x="1105" d="M117 934q166 106 166 276q0 89 -43 174h247q37 -75 37 -165q0 -130 -75 -238t-220 -172zM582 934q166 106 166 276q0 89 -43 174h247q37 -75 37 -165q0 -130 -75 -238t-220 -172z" />
<glyph unicode="&#x201e;" horiz-adv-x="1093" d="M117 -223q166 106 166 276q0 89 -43 174h247q37 -75 37 -166q0 -130 -75 -237.5t-220 -171.5zM569 -223q166 106 166 276q0 89 -43 174h248q37 -75 37 -166q0 -130 -75 -237.5t-220 -171.5z" />
<glyph unicode="&#x2022;" horiz-adv-x="874" d="M117 653q0 123 88 198t233 75t233.5 -75t88.5 -198t-88.5 -197.5t-233.5 -74.5t-233 74.5t-88 197.5z" />
<glyph unicode="&#x2026;" horiz-adv-x="1990" d="M184 0v250h293v-250h-293zM848 0v250h293v-250h-293zM1511 0v250h293v-250h-293z" />
<glyph unicode="&#x202f;" horiz-adv-x="373" />
<glyph unicode="&#x2039;" horiz-adv-x="743" d="M66 508l368 407h244l-332 -407l332 -408h-244z" />
<glyph unicode="&#x203a;" horiz-adv-x="743" d="M66 100l331 408l-331 407h243l369 -407l-369 -408h-243z" />
<glyph unicode="&#x205f;" horiz-adv-x="466" />
<glyph unicode="&#x20ac;" horiz-adv-x="1349" d="M18 475l41 129h150q-4 40 -4 98q0 52 6 105h-193l41 123h170q22 103 72 186t116.5 138t150.5 92t171 53t181 16q176 0 319 -45v-219q-134 51 -295 51q-77 0 -143 -14.5t-123 -45t-96.5 -84.5t-55.5 -128h635l-41 -123h-614q-6 -53 -6 -105q0 -58 4 -98h555l-43 -129h-488 q29 -142 137 -217.5t250 -75.5q193 0 334 72v-225q-135 -60 -356 -60q-92 0 -177.5 18t-165.5 58t-144 98t-110.5 143t-66.5 189h-211z" />
<glyph unicode="&#x2122;" horiz-adv-x="2013" d="M53 1243v141h705v-141h-246v-426h-213v426h-246zM936 817v567h244l192 -307l191 307h245v-567h-200v342l-146 -233h-180l-147 231v-340h-199z" />
<glyph unicode="&#x25fc;" horiz-adv-x="972" d="M0 0v973h973v-973h-973z" />
</font>
</defs>
</svg>
