<?xml version="1.0" standalone="no"?>
<!DOCTYPE svg PUBLIC "-//W3C//DTD SVG 1.1//EN" "http://www.w3.org/Graphics/SVG/1.1/DTD/svg11.dtd" >
<svg xmlns="http://www.w3.org/2000/svg">
<metadata></metadata>
<defs>
<font id="peugeot_expandedextra_light" horiz-adv-x="1349" >
<font-face units-per-em="2048" ascent="1638" descent="-410" />
<missing-glyph horiz-adv-x="571" />
<glyph horiz-adv-x="0" />
<glyph horiz-adv-x="682" />
<glyph unicode=" "  horiz-adv-x="571" />
<glyph unicode="&#x09;" horiz-adv-x="571" />
<glyph unicode="&#xa0;" horiz-adv-x="571" />
<glyph unicode="!" horiz-adv-x="641" d="M283 0v111h75v-111h-75zM283 1384h73l-8 -1030h-57z" />
<glyph unicode="&#x22;" horiz-adv-x="882" d="M256 1384h59l-4 -471h-51zM567 1384h60l-4 -471h-52z" />
<glyph unicode="#" horiz-adv-x="1347" d="M78 426l8 53h240l94 443h-236l9 51h237l88 411h55l-88 -411h486l88 411h55l-88 -411h244l-10 -53h-242l-96 -441h239l-8 -53h-240l-92 -426h-55l90 426h-483l-92 -426h-56l92 426h-239zM383 479h483l95 443h-484z" />
<glyph unicode="$" horiz-adv-x="1275" d="M147 119v63q87 -51 210 -79.5t241 -28.5q69 0 129.5 8.5t119 30t100.5 54t67.5 85t25.5 119.5q0 85 -48.5 143t-126 89t-171 54.5t-187 48.5t-171 60t-126 101t-48.5 161q0 81 39 146t104 105t143 62t162 25v225h54v-223q227 -5 399 -86v-59q-179 88 -424 88 q-64 0 -123.5 -10t-113 -32t-93 -54.5t-63 -80.5t-23.5 -106q0 -64 30 -112.5t81 -78.5t117 -52.5t139.5 -40t146.5 -36t139 -45.5t117 -63.5t81 -94.5t30 -134q0 -83 -34.5 -149t-96 -108t-139 -66t-170.5 -30v-243h-54v241q-128 0 -255 28t-208 75z" />
<glyph unicode="%" horiz-adv-x="2093" d="M158 977q0 201 92 315.5t258 114.5t258 -114.5t92 -315.5t-92 -315.5t-258 -114.5t-258 114.5t-92 315.5zM215 977q0 -181 74.5 -279t218.5 -98t218.5 98t74.5 279t-74.5 279t-218.5 98t-218.5 -98t-74.5 -279zM563 0l903 1384h68l-905 -1384h-66zM1235 408 q0 201 92 315.5t258 114.5t258 -115.5t92 -316.5t-92 -315t-258 -114t-258 115t-92 316zM1292 408q0 -181 74.5 -279t218.5 -98t218.5 98t74.5 279t-74 278.5t-219 97.5t-219 -97.5t-74 -278.5z" />
<glyph unicode="&#x26;" horiz-adv-x="1564" d="M156 389q0 88 31.5 158t86 115.5t117 73.5t135.5 42q-60 11 -110 31t-96 54t-72.5 89.5t-26.5 126.5q0 105 68 181t176 111.5t242 35.5q253 0 446 -94v-60q-199 97 -446 97q-188 0 -305 -70.5t-117 -200.5q0 -94 62 -156t158.5 -88t223.5 -26h74v-57h-74 q-230 0 -370 -94.5t-140 -268.5q0 -112 64 -193t174 -121t254 -40q167 0 287 71t177.5 189t57.5 270h-285v56h608v-56h-258q0 -96 -23 -183t-71 -161t-116.5 -128.5t-165 -85t-211.5 -30.5q-259 0 -407 113.5t-148 298.5z" />
<glyph unicode="'" horiz-adv-x="571" d="M256 1384h59l-4 -471h-51z" />
<glyph unicode="(" horiz-adv-x="604" d="M174 532q0 118 19.5 229.5t48.5 198.5t77.5 181.5t90 160t102.5 152.5h66q-74 -107 -129 -201t-108 -212t-81.5 -247.5t-28.5 -261.5t28 -261t81.5 -247t108.5 -212t129 -201h-66q-77 110 -127.5 194.5t-104 202t-80 248.5t-26.5 276z" />
<glyph unicode=")" horiz-adv-x="604" d="M27 -389q74 106 129 200.5t108 212.5t81 247t28 261t-28 261.5t-81 247.5t-108 212.5t-129 200.5h65q61 -87 102.5 -152.5t90 -160t77.5 -181.5t48.5 -198.5t19.5 -229.5q0 -145 -26.5 -276t-80 -248.5t-104 -202t-127.5 -194.5h-65z" />
<glyph unicode="*" horiz-adv-x="856" d="M137 1167l13 52l256 -64l-3 229h50l-2 -229l256 64l12 -52l-258 -53l166 -201l-41 -34l-158 202l-158 -202l-41 34l166 201z" />
<glyph unicode="+" horiz-adv-x="1392" d="M135 616v56h535v428h55v-428h532v-56h-532v-428h-55v428h-535z" />
<glyph unicode="," horiz-adv-x="563" d="M37 -346q211 117 211 299q0 61 -27 141h60q24 -68 24 -141q0 -213 -239 -344z" />
<glyph unicode="-" horiz-adv-x="935" d="M211 578v55h514v-55h-514z" />
<glyph unicode="." horiz-adv-x="563" d="M244 0v111h75v-111h-75z" />
<glyph unicode="/" horiz-adv-x="735" d="M0 0l674 1384h61l-674 -1384h-61z" />
<glyph unicode="0" horiz-adv-x="1439" d="M199 692q0 177 40 315.5t111.5 224.5t165 130.5t205.5 44.5t205.5 -44.5t165 -130.5t111.5 -224.5t40 -315.5t-40 -315.5t-111.5 -224.5t-165 -130.5t-205.5 -44.5t-205.5 44.5t-165 130.5t-111.5 224.5t-40 315.5zM262 692q0 -310 118.5 -483.5t340.5 -173.5 t340.5 173.5t118.5 483.5t-118.5 484t-340.5 174t-340.5 -174t-118.5 -484z" />
<glyph unicode="1" horiz-adv-x="751" d="M55 1327v57h408v-1384h-64v1327h-344z" />
<glyph unicode="2" horiz-adv-x="1216" d="M131 0v57l504 402q98 77 160.5 136.5t113 126.5t73 137.5t22.5 152.5q0 164 -112 251t-296 87q-128 0 -227 -29t-191 -92v67q176 111 418 111q210 0 340.5 -104t130.5 -291q0 -113 -47.5 -215.5t-128 -188t-211.5 -188.5l-461 -363h877v-57h-965z" />
<glyph unicode="3" horiz-adv-x="1241" d="M137 57v64q183 -86 410 -86q218 0 346.5 97t128.5 261q0 81 -29.5 144.5t-76.5 102.5t-112.5 64t-130 34.5t-136.5 9.5q-75 0 -146 -11v56l590 534h-829v57h911v-57l-584 -526q18 2 62 2q81 0 154 -11.5t145.5 -40.5t125 -74t85 -118t32.5 -166q0 -193 -145 -304.5 t-391 -111.5q-103 0 -213.5 21.5t-196.5 58.5z" />
<glyph unicode="4" horiz-adv-x="1239" d="M74 381v57l800 946h80v-946h217v-57h-217v-381h-63v381h-817zM145 438h746v879z" />
<glyph unicode="5" horiz-adv-x="1249" d="M150 53v64q174 -82 389 -82q78 0 146 12.5t130.5 41.5t107 74t71 114t26.5 157q0 78 -27 140t-72.5 102t-108.5 66.5t-131 37.5t-144 11q-159 0 -306 -46l-16 21l90 618h729v-57h-676l-71 -508q127 29 250 29q84 0 161 -13t148.5 -44t123.5 -77.5t83.5 -118t31.5 -161.5 q0 -98 -30 -177t-80.5 -130.5t-121 -85.5t-148 -49t-164.5 -15q-202 0 -391 76z" />
<glyph unicode="6" horiz-adv-x="1312" d="M160 639q0 162 33 292t89.5 217.5t136.5 146.5t170 85.5t193 26.5q199 0 336 -57v-64q-137 64 -336 64q-120 0 -219 -39t-176 -119t-121 -213t-45 -309q76 76 199.5 136t269.5 60q224 0 354 -112.5t130 -321.5q0 -200 -136 -327.5t-350 -127.5q-126 0 -228 53t-166.5 144 t-99 210t-34.5 255zM223 592q3 -77 19.5 -152.5t52.5 -149.5t87.5 -130t130 -90.5t173.5 -34.5q196 0 309 110.5t113 286.5q0 183 -109 279t-309 96q-141 0 -267.5 -65t-199.5 -150z" />
<glyph unicode="7" horiz-adv-x="1144" d="M104 1327v57h1002v-49q-119 -113 -215.5 -221t-190.5 -237.5t-164.5 -262t-126 -289.5t-85.5 -325h-62q123 731 758 1327h-916z" />
<glyph unicode="8" horiz-adv-x="1402" d="M176 367q0 288 332 366q-287 90 -287 322q0 106 65 187t173 123t241 42t241.5 -42t173.5 -123t65 -187q0 -232 -287 -322q332 -78 332 -366q0 -173 -148.5 -281.5t-376.5 -108.5t-376 108.5t-148 281.5zM242 367q0 -78 38.5 -142t103 -105t146 -63t170.5 -22 q120 0 222.5 37t169.5 114.5t67 180.5q0 73 -25.5 131t-68.5 95.5t-103 62.5t-124.5 35.5t-137.5 10.5q-92 0 -170.5 -18t-145 -55.5t-104.5 -104.5t-38 -157zM285 1059q0 -94 61 -164.5t153.5 -103.5t200.5 -33t200.5 33t154 103.5t61.5 164.5q0 89 -59.5 156.5t-153.5 101 t-203 33.5t-202.5 -33.5t-153 -101t-59.5 -156.5z" />
<glyph unicode="9" horiz-adv-x="1312" d="M139 952q0 200 136 327.5t350 127.5q126 0 228 -53t166.5 -144t99 -210t34.5 -255q0 -162 -33 -292t-90 -217.5t-136.5 -146.5t-170 -85.5t-193.5 -26.5q-195 0 -335 58v63q134 -63 335 -63q120 0 219 39t176.5 119t121.5 213t45 309q-76 -76 -199.5 -136.5t-269.5 -60.5 q-224 0 -354 112.5t-130 321.5zM205 952q0 -183 109 -278.5t309 -95.5q141 0 267.5 65t199.5 150q-3 77 -19.5 152.5t-52.5 149.5t-87.5 130t-130 90.5t-173.5 34.5q-195 0 -308.5 -111t-113.5 -287z" />
<glyph unicode=":" horiz-adv-x="563" d="M244 0v111h75v-111h-75zM244 862v111h75v-111h-75z" />
<glyph unicode=";" horiz-adv-x="563" d="M37 -346q211 117 211 299q0 61 -27 141h60q24 -68 24 -141q0 -213 -239 -344zM244 862v111h75v-111h-75z" />
<glyph unicode="&#x3c;" horiz-adv-x="1392" d="M135 612v66l1122 444v-63l-1050 -414l1050 -416v-61z" />
<glyph unicode="=" horiz-adv-x="1392" d="M135 416v55h1122v-55h-1122zM135 815v55h1122v-55h-1122z" />
<glyph unicode="&#x3e;" horiz-adv-x="1392" d="M135 168v61l1051 416l-1051 414v63l1122 -444v-66z" />
<glyph unicode="?" horiz-adv-x="952" d="M160 1286v57q52 29 130.5 46.5t155.5 17.5q103 0 184.5 -29t133 -94t51.5 -158q0 -30 -5.5 -58t-13 -50t-22.5 -47.5t-25.5 -41.5t-32 -39.5t-33 -35.5t-36.5 -36t-35 -34q-11 -11 -41.5 -41t-39 -39t-30 -32.5t-27.5 -34t-19 -31t-16.5 -36.5t-7 -37.5t-3.5 -45.5v-133 h-59v135q0 52 12.5 94t45 86t60 73t86.5 85q88 82 133.5 148.5t45.5 148.5q0 63 -26 109t-72 70.5t-98 35.5t-114 11q-71 0 -148 -18t-134 -46zM360 0v111h76v-111h-76z" />
<glyph unicode="@" horiz-adv-x="1884" d="M141 504q0 131 45 241.5t122.5 188.5t181 133t220 81t240.5 26q110 0 219.5 -20.5t213.5 -66.5t183.5 -111.5t128 -162.5t48.5 -213q0 -191 -91 -299t-245 -108q-99 0 -163 41t-83 110q-108 -151 -289 -151q-123 0 -203.5 79t-80.5 217q0 103 53 175.5t135.5 104.5 t184.5 32q125 0 249 -45v-295q0 -115 48 -163t161 -48q119 0 193 89.5t74 260.5q0 106 -46 194.5t-120.5 147.5t-171.5 100t-197.5 59.5t-200.5 18.5q-118 0 -226.5 -23t-205 -72.5t-167.5 -121t-112.5 -174t-41.5 -225.5t41.5 -226t112.5 -174.5t167.5 -121.5t205.5 -73.5 t226 -23.5q284 0 457 62v-56q-174 -59 -457 -59q-155 0 -298 43t-258 124t-184 212t-69 293zM647 489q0 -112 59 -175.5t168 -63.5q176 0 277 168v303q-95 29 -188 29q-88 0 -156.5 -25t-114 -85.5t-45.5 -150.5z" />
<glyph unicode="A" horiz-adv-x="1384" d="M0 0l664 1384h61l659 -1384h-67l-207 432h-838l-204 -432h-68zM301 489h782l-391 820z" />
<glyph unicode="B" horiz-adv-x="1392" d="M289 0v1384h362q285 0 423 -94t138 -260q0 -74 -28 -133.5t-75.5 -97.5t-102.5 -61t-117 -33q74 -10 138.5 -35.5t116.5 -66.5t81.5 -101.5t29.5 -134.5q0 -174 -156.5 -270.5t-447.5 -96.5h-362zM352 57h299q261 0 401 81t140 229t-139.5 228.5t-401.5 80.5h-299v-619z M352 733h299q498 0 498 297t-498 297h-299v-594z" />
<glyph unicode="C" horiz-adv-x="1525" d="M168 692q0 159 59 292t165 226t259.5 145t337.5 52q207 0 375 -64v-59q-164 66 -375 66q-344 0 -551 -180.5t-207 -477.5t207 -477t551 -180q216 0 393 78v-60q-179 -76 -393 -76q-184 0 -337.5 52t-259.5 145t-165 226t-59 292z" />
<glyph unicode="D" horiz-adv-x="1812" d="M289 0v1384h428q237 0 416.5 -50t290.5 -142.5t166 -218t55 -281.5q0 -157 -55 -282.5t-166 -217.5t-290.5 -142t-416.5 -50h-428zM352 57h365q411 0 637.5 161.5t226.5 473.5q0 313 -226.5 474t-637.5 161h-365v-1270z" />
<glyph unicode="E" horiz-adv-x="1331" d="M268 303v1081h858v-57h-794v-571h739v-58h-739v-395q0 -126 69.5 -186t231.5 -60h538v-57h-538q-194 0 -279.5 77t-85.5 226z" />
<glyph unicode="F" horiz-adv-x="1265" d="M289 0v1384h831v-57h-768v-579h713v-60h-713v-688h-63z" />
<glyph unicode="G" horiz-adv-x="1935" d="M168 692q0 159 59 292t165 226t259.5 145t337.5 52q358 0 629 -127v-59q-279 129 -629 129q-344 0 -551 -180.5t-207 -477.5t207 -477t551 -180q202 0 364 40.5t265 102.5v457h-637v59h692v-551q-141 -80 -299.5 -123t-384.5 -43q-184 0 -337.5 52t-259.5 145t-165 226 t-59 292z" />
<glyph unicode="H" horiz-adv-x="1871" d="M289 0v1384h63v-630h1168v630h63v-1384h-63v696h-1168v-696h-63z" />
<glyph unicode="I" horiz-adv-x="641" d="M289 0v1384h63v-1384h-63z" />
<glyph unicode="J" horiz-adv-x="837" d="M14 16v60q106 -41 217 -41q281 0 281 280v1069h63v-1069q0 -93 -27.5 -160.5t-77 -105t-108.5 -55t-131 -17.5q-114 0 -217 39z" />
<glyph unicode="K" horiz-adv-x="1343" d="M289 0v1384h63v-639l877 639h90l-905 -665l919 -719h-92l-889 690v-690h-63z" />
<glyph unicode="L" horiz-adv-x="1165" d="M268 303v1081h64v-1081q0 -126 69.5 -186t231.5 -60h477v-57h-477q-194 0 -279.5 77t-85.5 226z" />
<glyph unicode="M" horiz-adv-x="2248" d="M289 0v1384h84l751 -1052l752 1052h84v-1384h-64v1307l-739 -1039h-65l-740 1039v-1307h-63z" />
<glyph unicode="N" horiz-adv-x="1863" d="M289 0v1384h80l1142 -1314v1314h64v-1384h-80l-1143 1309v-1309h-63z" />
<glyph unicode="O" horiz-adv-x="1978" d="M168 692q0 159 59 292t165 226t259.5 145t337.5 52t337.5 -52t259.5 -145t165 -226t59 -292t-59 -292t-165 -226t-259.5 -145t-337.5 -52t-337.5 52t-259.5 145t-165 226t-59 292zM231 692q0 -297 207 -477t551 -180t551 180t207 477t-207 477.5t-551 180.5t-551 -180.5 t-207 -477.5z" />
<glyph unicode="P" horiz-adv-x="1406" d="M289 0v1384h413q274 0 419 -108t145 -297t-145 -297.5t-419 -108.5h-350v-573h-63zM352 631h350q240 0 370 91.5t130 256.5t-130 256.5t-370 91.5h-350v-696z" />
<glyph unicode="Q" horiz-adv-x="1978" d="M168 692q0 159 59 292t165 226t259.5 145t337.5 52t337.5 -52t259.5 -145t165 -226t59 -292q0 -267 -160.5 -451.5t-435.5 -240.5l291 -301h-84l-280 289q-90 -11 -152 -11q-184 0 -337.5 52t-259.5 145t-165 226t-59 292zM231 692q0 -297 207 -477t551 -180t551 180 t207 477t-207 477.5t-551 180.5t-551 -180.5t-207 -477.5z" />
<glyph unicode="R" horiz-adv-x="1437" d="M289 0v1384h413q274 0 419 -108t145 -297q0 -173 -124.5 -280t-359.5 -124l561 -575h-81l-560 573h-350v-573h-63zM352 631h350q240 0 370 91.5t130 256.5t-130 256.5t-370 91.5h-350v-696z" />
<glyph unicode="S" horiz-adv-x="1345" d="M170 86v66q92 -55 220.5 -86t250.5 -31q72 0 136.5 9.5t126.5 32.5t106.5 58.5t72 91.5t27.5 127q0 63 -26 112.5t-70.5 80.5t-103.5 57t-126 41.5t-137 34.5t-137 36.5t-126 46.5t-103.5 65t-70.5 92t-26 127q0 90 43 161t115 113.5t159.5 64t184.5 21.5q255 0 444 -92 v-60q-195 95 -444 95q-67 0 -129.5 -11t-119 -34.5t-98.5 -58.5t-66.5 -86t-24.5 -113q0 -68 31.5 -119.5t85.5 -83.5t123 -55.5t146 -42t154 -38t146 -48t123 -66.5t85.5 -99t31.5 -141q0 -78 -28.5 -141.5t-78 -106.5t-117.5 -72.5t-145.5 -43t-163.5 -13.5 q-125 0 -256 29.5t-215 79.5z" />
<glyph unicode="T" horiz-adv-x="1361" d="M55 1327v57h1252v-57h-594v-1327h-64v1327h-594z" />
<glyph unicode="U" horiz-adv-x="1632" d="M248 471v913h63v-913q0 -108 41 -193t112 -137t160.5 -79t192.5 -27q142 0 255.5 48t183 148.5t69.5 239.5v913h59v-913q0 -98 -30.5 -179.5t-83 -139t-124.5 -97.5t-155 -59t-174 -19q-114 0 -215 31t-181 90t-126.5 155.5t-46.5 217.5z" />
<glyph unicode="V" horiz-adv-x="1372" d="M4 1384h68l614 -1308l614 1308h68l-649 -1384h-62z" />
<glyph unicode="W" horiz-adv-x="2322" d="M39 1384h59l484 -1306l548 1306h62l549 -1306l483 1306h60l-510 -1384h-60l-553 1307l-553 -1307h-59z" />
<glyph unicode="X" horiz-adv-x="1398" d="M41 0l616 696l-606 688h82l565 -641l568 641h82l-609 -686l619 -698h-84l-576 651l-573 -651h-84z" />
<glyph unicode="Y" horiz-adv-x="1290" d="M0 1384h72l575 -759l570 759h73l-612 -823v-561h-64v561z" />
<glyph unicode="Z" horiz-adv-x="1411" d="M129 0v57l1088 1270h-1065v57h1142v-57l-1087 -1270h1110v-57h-1188z" />
<glyph unicode="[" horiz-adv-x="659" d="M289 -389v1843h319v-55h-262v-1735h262v-53h-319z" />
<glyph unicode="\" horiz-adv-x="735" d="M0 1384h61l674 -1384h-61z" />
<glyph unicode="]" horiz-adv-x="659" d="M51 -336h262v1735h-262v55h320v-1843h-320v53z" />
<glyph unicode="^" horiz-adv-x="1392" d="M180 526l492 858h49l491 -858h-65l-451 795l-450 -795h-66z" />
<glyph unicode="_" horiz-adv-x="1435" d="M92 -23h1251v-51h-1251v51z" />
<glyph unicode="`" horiz-adv-x="1228" d="M502 1454h71l205 -309h-55z" />
<glyph unicode="a" d="M133 487q0 126 43.5 224t119.5 159.5t176 93t218 31.5q212 0 428 -92v-903h-55v150q-186 -173 -422 -173q-106 0 -198 33.5t-161.5 96t-109 160.5t-39.5 220zM190 487q0 -111 36 -199.5t99 -143.5t143.5 -84t172.5 -29q128 0 237 53t185 131v651q-191 76 -375 76 q-104 0 -193 -27.5t-158 -81.5t-108 -142.5t-39 -203.5z" />
<glyph unicode="b" horiz-adv-x="1345" d="M227 96v1358h56v-602q216 143 428 143q225 0 363 -137t138 -371q0 -133 -43 -233.5t-118.5 -159.5t-169 -88t-203.5 -29q-237 0 -451 119zM283 129q80 -43 187.5 -70.5t209.5 -27.5q97 0 179 24.5t150 76t107 142.5t39 213q0 209 -125.5 332t-318.5 123q-212 0 -428 -154 v-659z" />
<glyph unicode="c" horiz-adv-x="1165" d="M133 485q0 223 162 366.5t414 143.5q169 0 301 -69v-62q-134 78 -301 78q-229 0 -374 -128.5t-145 -328.5t144.5 -327t374.5 -127q180 0 313 88v-64q-138 -78 -313 -78q-252 0 -414 142.5t-162 365.5z" />
<glyph unicode="d" d="M133 487q0 126 43.5 224t119.5 159.5t176 93t218 31.5q187 0 373 -69v528h55v-1454h-55v150q-186 -173 -424 -173q-106 0 -197.5 33t-160.5 96t-108.5 161t-39.5 220zM190 487q0 -111 36 -199.5t99 -143.5t143.5 -84t172.5 -29q128 0 237 53t185 131v651q-191 76 -375 76 q-104 0 -193 -27.5t-158 -81.5t-108 -142.5t-39 -203.5z" />
<glyph unicode="e" horiz-adv-x="1282" d="M133 485q0 223 145 366.5t369 143.5q211 0 353 -128.5t159 -331.5v-50h-969q2 -119 42.5 -208.5t109 -142t153 -78t183.5 -25.5q255 0 438 112v-59q-179 -107 -438 -107q-109 0 -205 30t-173 89t-122 159t-45 230zM193 537h909q-19 181 -143 293t-312 112 q-192 0 -315.5 -112.5t-138.5 -292.5z" />
<glyph unicode="f" horiz-adv-x="694" d="M76 922v51h170v223q0 134 82 207.5t207 73.5q84 0 161 -29v-55q-67 30 -161 30q-102 0 -168 -56t-66 -169v-225h358v-51h-358v-922h-55v922h-170z" />
<glyph unicode="g" d="M133 487q0 126 43.5 224t119.5 159.5t176 93t218 31.5q212 0 428 -92v-907q0 -105 -37 -184.5t-103.5 -127.5t-153.5 -72t-193 -24q-114 0 -230 31t-211 88v60q98 -60 214 -92.5t229 -32.5q73 0 134.5 11t117 37.5t94.5 66.5t61.5 102t22.5 141v150q-186 -173 -422 -173 q-106 0 -198 33.5t-161.5 96t-109 160.5t-39.5 220zM190 487q0 -111 36 -199.5t99 -143.5t143.5 -84t172.5 -29q128 0 237 53t185 131v651q-191 76 -375 76q-104 0 -193 -27.5t-158 -81.5t-108 -142.5t-39 -203.5z" />
<glyph unicode="h" horiz-adv-x="1341" d="M231 0v1454h56v-602q216 143 428 143q183 0 297 -90t114 -262v-643h-55v643q0 142 -96.5 220.5t-259.5 78.5q-212 0 -428 -154v-788h-56z" />
<glyph unicode="i" horiz-adv-x="518" d="M229 1237v147h60v-147h-60zM231 0v973h56v-973h-56z" />
<glyph unicode="j" horiz-adv-x="520" d="M-41 -322q68 -36 143 -36q60 0 94.5 32.5t34.5 92.5v1206h56v-1206q0 -86 -51 -132.5t-134 -46.5q-79 0 -143 33v57zM229 1237v147h60v-147h-60z" />
<glyph unicode="k" horiz-adv-x="1095" d="M231 0v1454h56v-903l682 422h96l-723 -451l741 -522h-86l-710 496v-496h-56z" />
<glyph unicode="l" horiz-adv-x="565" d="M213 154v1300h55v-1300q0 -60 34.5 -92.5t94.5 -32.5q74 0 144 37v-58q-64 -33 -144 -33q-83 0 -133.5 46.5t-50.5 132.5z" />
<glyph unicode="m" horiz-adv-x="2140" d="M231 0v973h56v-121q191 143 415 143q120 0 217 -44t146 -132q205 176 457 176q81 0 151.5 -20t128 -61t90.5 -110.5t33 -160.5v-643h-55v643q0 77 -28.5 136t-78 94t-111 52t-132.5 17q-240 0 -433 -174q19 -59 19 -125v-643h-55v643q0 77 -28.5 136t-78.5 94t-111.5 52 t-132.5 17q-227 0 -413 -154v-788h-56z" />
<glyph unicode="n" horiz-adv-x="1361" d="M231 0v973h56v-121q216 143 428 143q183 0 297 -90t114 -262v-643h-55v643q0 142 -96.5 220.5t-259.5 78.5q-212 0 -428 -154v-788h-56z" />
<glyph unicode="o" horiz-adv-x="1417" d="M133 485q0 223 162 366.5t414 143.5t413.5 -143.5t161.5 -366.5t-161.5 -365.5t-413.5 -142.5t-414 142.5t-162 365.5zM190 485q0 -200 144.5 -327t374.5 -127t374 127t144 327t-144.5 328.5t-373.5 128.5t-374 -128.5t-145 -328.5z" />
<glyph unicode="p" d="M231 -389v1362h56v-121q216 143 428 143q225 0 363.5 -137t138.5 -371q0 -127 -41 -226t-113 -160t-165 -92.5t-202 -31.5q-225 0 -409 113v-479h-56zM287 150q102 -63 192.5 -91t218.5 -28q93 0 173 25.5t146 78t104 143t38 209.5q0 209 -125.5 332t-318.5 123 q-212 0 -428 -154v-638z" />
<glyph unicode="q" d="M133 487q0 126 43.5 224t119.5 159.5t176 93t218 31.5q212 0 428 -92v-1292h-55v539q-186 -173 -422 -173q-106 0 -198 33.5t-161.5 96t-109 160.5t-39.5 220zM190 487q0 -111 36 -199.5t99 -143.5t143.5 -84t172.5 -29q128 0 237 53t185 131v651q-191 76 -375 76 q-104 0 -193 -27.5t-158 -81.5t-108 -142.5t-39 -203.5z" />
<glyph unicode="r" horiz-adv-x="794" d="M231 0v973h56v-168q83 79 212 134.5t255 55.5v-53q-124 0 -250.5 -55.5t-216.5 -147.5v-739h-56z" />
<glyph unicode="s" horiz-adv-x="1101" d="M145 84v57q186 -110 406 -110q164 0 257 55.5t93 159.5q0 65 -41.5 108.5t-107.5 65t-146 36.5t-160.5 31.5t-146.5 41.5t-107.5 75t-41.5 123q0 123 114 195.5t307 72.5q110 0 211 -24t160 -58v-57q-64 38 -166.5 62t-204.5 24q-162 0 -263 -56t-101 -159 q0 -62 41.5 -103t107.5 -61t146 -34t160.5 -31t146.5 -42.5t107.5 -77.5t41.5 -128q0 -130 -112.5 -201.5t-296.5 -71.5q-225 0 -404 107z" />
<glyph unicode="t" horiz-adv-x="741" d="M59 922v51h172l7 309h49v-309h385v-51h-385v-684q0 -104 60 -155.5t157 -51.5q102 0 188 47v-58q-85 -43 -188 -43q-122 0 -197.5 66t-75.5 195v684h-172z" />
<glyph unicode="u" horiz-adv-x="1306" d="M209 371v602h55v-602q0 -340 352 -340q115 0 222 53.5t182 130.5v758h55v-973h-55v150q-77 -71 -181.5 -122t-222.5 -51q-192 0 -299.5 96t-107.5 298z" />
<glyph unicode="v" horiz-adv-x="1060" d="M10 973h60l454 -907l463 907h64l-498 -973h-55z" />
<glyph unicode="w" horiz-adv-x="1777" d="M20 973h60l383 -903l399 903h53l400 -903l383 903h59l-414 -973h-53l-401 897l-402 -897h-53z" />
<glyph unicode="x" horiz-adv-x="989" d="M16 0l445 489l-434 484h69l398 -445l399 445h72l-437 -484l445 -489h-72l-407 451l-404 -451h-74z" />
<glyph unicode="y" horiz-adv-x="1306" d="M209 371v602h55v-602q0 -340 352 -340q115 0 222 53.5t182 130.5v758h55v-977q0 -107 -38.5 -187.5t-106 -127.5t-150 -70t-178.5 -23q-189 0 -358 78v60q74 -38 169.5 -61t188.5 -23q84 0 156.5 19t132.5 59t94.5 110.5t34.5 165.5v154q-77 -71 -181.5 -122t-224.5 -51 q-190 0 -297.5 96.5t-107.5 297.5z" />
<glyph unicode="z" horiz-adv-x="1069" d="M111 0v49l766 873h-746v51h819v-47l-764 -869h783v-57h-858z" />
<glyph unicode="{" horiz-adv-x="690" d="M37 504v57q65 19 105.5 35t77.5 40t56 55.5t30 77t11 108.5v297q0 136 78 208t221 72h50v-53h-43q-248 0 -248 -227v-297q0 -155 -64.5 -230.5t-208.5 -114.5q144 -39 208.5 -114t64.5 -230v-297q0 -227 248 -227h43v-53h-50q-143 0 -221 72t-78 208v297q0 63 -11 108.5 t-30 77t-56 55.5t-77.5 40t-105.5 35z" />
<glyph unicode="|" horiz-adv-x="653" d="M295 -389v2027h55v-2027h-55z" />
<glyph unicode="}" horiz-adv-x="690" d="M25 -336h43q247 0 247 227v297q0 155 64.5 230t208.5 114q-144 39 -208.5 114.5t-64.5 230.5v297q0 227 -247 227h-43v53h49q143 0 221 -72t78 -208v-297q0 -63 11 -108.5t30 -77t56 -55.5t77.5 -40t105.5 -35v-57q-65 -19 -105.5 -35t-77.5 -40t-56 -55.5t-30 -77 t-11 -108.5v-297q0 -136 -78 -208t-221 -72h-49v53z" />
<glyph unicode="~" horiz-adv-x="1392" d="M145 524q0 96 59 153.5t144 57.5q82 0 219 -39.5t271 -78.5t209 -39q59 0 102 40.5t43 114.5h57q0 -96 -58.5 -153.5t-143.5 -57.5q-82 0 -219 39.5t-271 79t-209 39.5q-59 0 -102 -41t-43 -115h-58z" />
<glyph unicode="&#xa1;" horiz-adv-x="641" d="M283 -389l8 1014h57l8 -1014h-73zM283 862v111h75v-111h-75z" />
<glyph unicode="&#xa2;" horiz-adv-x="1200" d="M137 696q0 228 133.5 377t364.5 180v338h53v-334q27 3 57 3q147 0 283 -54v-61q-132 57 -283 57q-245 0 -395.5 -132.5t-150.5 -373.5q0 -236 148 -371t398 -135q160 0 295 66v-59q-128 -64 -295 -64q-39 0 -57 2v-360h-53v364q-231 31 -364.5 180t-133.5 377z" />
<glyph unicode="&#xa3;" horiz-adv-x="1200" d="M72 0v57q84 47 135 82.5t93.5 81t60.5 98t18 121.5q0 83 -57 256h-244v58h221q-33 91 -47 153.5t-14 134.5q0 163 121 264t323 101q205 0 360 -76v-63q-177 82 -354 82q-181 0 -286 -84.5t-105 -221.5q0 -49 9 -97t19.5 -79.5t39.5 -113.5h534v-58h-512q55 -176 55 -256 q0 -73 -19.5 -132.5t-58.5 -105t-83.5 -78.5t-106.5 -67h889v-57h-991z" />
<glyph unicode="&#xa5;" horiz-adv-x="1331" d="M61 1384h74l516 -667l547 667h72l-572 -698h430v-57h-446v-275h446v-57h-446v-297h-64v297h-446v57h446v275h-446v57h428z" />
<glyph unicode="&#xa8;" horiz-adv-x="1228" d="M389 1237v147h60v-147h-60zM780 1237v147h60v-147h-60z" />
<glyph unicode="&#xa9;" horiz-adv-x="1994" d="M168 692q0 330 225.5 522.5t603.5 192.5q380 0 605 -192.5t225 -522.5q0 -329 -225.5 -522t-604.5 -193q-249 0 -436.5 86.5t-290 248.5t-102.5 380zM227 692q0 -309 208.5 -483t559.5 -174q234 0 407.5 76.5t269 225.5t95.5 355t-95.5 355.5t-269 226t-407.5 76.5 q-351 0 -559.5 -174.5t-208.5 -483.5zM592 692q0 189 127 292t325 103q66 0 139 -14.5t124 -40.5v-55q-114 57 -263 57q-114 0 -201.5 -36.5t-140.5 -115t-53 -190.5t53 -190.5t140.5 -115t201.5 -36.5q63 0 136.5 16.5t130.5 45.5v-56q-52 -27 -127.5 -43t-139.5 -16 q-198 0 -325 103t-127 292z" />
<glyph unicode="&#xab;" horiz-adv-x="1187" d="M125 508l346 407h68l-342 -407l342 -408h-68zM649 508l346 407h68l-342 -407l342 -408h-68z" />
<glyph unicode="&#xad;" horiz-adv-x="935" d="M211 578v55h514v-55h-514z" />
<glyph unicode="&#xae;" horiz-adv-x="1310" d="M158 977q0 189 141.5 309.5t355.5 120.5t356 -120.5t142 -309.5t-142 -309.5t-356 -120.5t-355.5 120.5t-141.5 309.5zM211 977q0 -170 127 -275.5t317 -105.5q191 0 318 105.5t127 275.5q0 171 -126.5 275t-318.5 104q-191 0 -317.5 -104t-126.5 -275zM516 760v440h166 q77 0 124.5 -33.5t47.5 -91.5q0 -112 -152 -125l172 -190h-59l-168 186h-82v-186h-49zM565 993h119q55 0 87 21.5t32 58.5q0 39 -32 59.5t-89 20.5h-117v-160z" />
<glyph unicode="&#xb4;" horiz-adv-x="1228" d="M446 1145l205 309h72l-221 -309h-56z" />
<glyph unicode="&#xb8;" horiz-adv-x="1228" d="M465 -322q58 -22 121 -22q54 0 90.5 24t36.5 72q0 43 -36 65.5t-89 22.5h-82l51 160h53l-35 -111h13q47 0 86 -12t67.5 -44t28.5 -81q0 -65 -50.5 -106t-133.5 -41q-63 0 -121 20v53z" />
<glyph unicode="&#xbb;" horiz-adv-x="1187" d="M125 100l342 408l-342 407h68l346 -407l-346 -408h-68zM649 100l342 408l-342 407h68l346 -407l-346 -408h-68z" />
<glyph unicode="&#xbf;" horiz-adv-x="700" d="M16 -131q0 30 5.5 58t13 50t22.5 47.5t25.5 41.5t32 39.5t33 35.5t36.5 36t35 34q21 21 55.5 53.5t48 46.5t33.5 38.5t27.5 43.5t13.5 47t6 62v137h60v-137q0 -32 -6 -61t-12 -50t-24.5 -48.5t-28 -41t-40.5 -44t-42.5 -41.5t-51.5 -48q-43 -39 -69 -66t-54 -65.5 t-41.5 -79t-13.5 -86.5q0 -225 293 -225q71 0 148.5 17.5t133.5 45.5v-57q-52 -29 -130.5 -46.5t-155.5 -17.5q-158 0 -255.5 71t-97.5 210zM395 862v111h76v-111h-76z" />
<glyph unicode="&#xc0;" horiz-adv-x="1384" d="M0 0l664 1384h61l659 -1384h-67l-207 432h-838l-204 -432h-68zM301 489h782l-391 820zM449 1833h71l205 -309h-55z" />
<glyph unicode="&#xc1;" horiz-adv-x="1384" d="M0 0l664 1384h61l659 -1384h-67l-207 432h-838l-204 -432h-68zM301 489h782l-391 820zM668 1524l204 309h72l-221 -309h-55z" />
<glyph unicode="&#xc2;" horiz-adv-x="1384" d="M0 0l664 1384h61l659 -1384h-67l-207 432h-838l-204 -432h-68zM301 489h782l-391 820zM436 1524l232 309h49l231 -309h-55l-201 248l-200 -248h-56z" />
<glyph unicode="&#xc3;" horiz-adv-x="1384" d="M0 0l664 1384h61l659 -1384h-67l-207 432h-838l-204 -432h-68zM301 489h782l-391 820zM395 1577q3 81 43.5 141t112.5 60q34 0 76.5 -23t75 -51t69.5 -51t62 -23q49 0 73.5 43t26.5 101h55q-3 -80 -43.5 -140.5t-111.5 -60.5q-34 0 -75.5 23.5t-74 51t-70 51t-63.5 23.5 q-50 0 -74 -43t-26 -102h-56z" />
<glyph unicode="&#xc4;" horiz-adv-x="1384" d="M0 0l664 1384h61l659 -1384h-67l-207 432h-838l-204 -432h-68zM301 489h782l-391 820zM467 1602v147h59v-147h-59zM858 1602v147h60v-147h-60z" />
<glyph unicode="&#xc5;" horiz-adv-x="1384" d="M0 0l664 1384h61l659 -1384h-67l-207 432h-838l-204 -432h-68zM301 489h782l-391 820zM465 1679q0 82 68 130.5t159 48.5t159.5 -48.5t68.5 -130.5q0 -84 -68.5 -133t-159.5 -49t-159 48.5t-68 133.5zM522 1677q0 -60 48.5 -94.5t121.5 -34.5t121.5 34.5t48.5 94.5 t-48.5 94.5t-121.5 34.5t-121.5 -34.5t-48.5 -94.5z" />
<glyph unicode="&#xc6;" horiz-adv-x="2021" d="M-66 0l992 1384h891v-57h-795v-571h739v-58h-739v-395q0 -126 69.5 -186t231.5 -60h539v-57h-539q-194 0 -279.5 77t-85.5 226v129h-641l-313 -432h-70zM354 489h604v836z" />
<glyph unicode="&#xc7;" horiz-adv-x="1525" d="M168 692q0 159 59 292t165 226t259.5 145t337.5 52q207 0 375 -64v-59q-164 66 -375 66q-344 0 -551 -180.5t-207 -477.5t207 -477t551 -180q216 0 393 78v-60q-179 -76 -393 -76q-42 0 -143 9l-31 -97h12q34 0 65 -7t58.5 -22t43.5 -43t16 -65q0 -65 -51 -106t-134 -41 q-62 0 -120 20v53q58 -22 120 -22q54 0 90.5 24t36.5 72q0 43 -36 65.5t-89 22.5h-82l50 154q-290 50 -458.5 236t-168.5 462z" />
<glyph unicode="&#xc8;" horiz-adv-x="1331" d="M268 303v1081h858v-57h-794v-571h739v-58h-739v-395q0 -126 69.5 -186t231.5 -60h538v-57h-538q-194 0 -279.5 77t-85.5 226zM469 1833h72l204 -309h-55z" />
<glyph unicode="&#xc9;" horiz-adv-x="1331" d="M268 303v1081h858v-57h-794v-571h739v-58h-739v-395q0 -126 69.5 -186t231.5 -60h538v-57h-538q-194 0 -279.5 77t-85.5 226zM643 1524l205 309h72l-222 -309h-55z" />
<glyph unicode="&#xca;" horiz-adv-x="1331" d="M268 303v1081h858v-57h-794v-571h739v-58h-739v-395q0 -126 69.5 -186t231.5 -60h538v-57h-538q-194 0 -279.5 77t-85.5 226zM438 1524l232 309h49l231 -309h-55l-201 248l-200 -248h-56z" />
<glyph unicode="&#xcb;" horiz-adv-x="1331" d="M268 303v1081h858v-57h-794v-571h739v-58h-739v-395q0 -126 69.5 -186t231.5 -60h538v-57h-538q-194 0 -279.5 77t-85.5 226zM469 1606v147h59v-147h-59zM860 1606v147h60v-147h-60z" />
<glyph unicode="&#xcc;" horiz-adv-x="641" d="M74 1833h71l205 -309h-55zM289 0v1384h63v-1384h-63z" />
<glyph unicode="&#xcd;" horiz-adv-x="641" d="M289 0v1384h63v-1384h-63zM291 1524l205 309h71l-221 -309h-55z" />
<glyph unicode="&#xce;" horiz-adv-x="641" d="M63 1524l232 309h49l231 -309h-55l-201 248l-200 -248h-56zM289 0v1384h63v-1384h-63z" />
<glyph unicode="&#xcf;" horiz-adv-x="641" d="M94 1604v147h60v-147h-60zM289 0v1384h63v-1384h-63zM485 1604v147h60v-147h-60z" />
<glyph unicode="&#xd0;" horiz-adv-x="1812" d="M82 696v58h207v630h428q237 0 416.5 -50t290.5 -142.5t166 -218t55 -281.5q0 -157 -55 -282.5t-166 -217.5t-290.5 -142t-416.5 -50h-428v696h-207zM352 57h365q411 0 637.5 161.5t226.5 473.5q0 313 -226.5 474t-637.5 161h-365v-573h600v-58h-600v-639z" />
<glyph unicode="&#xd1;" horiz-adv-x="1865" d="M289 0v1384h80l1142 -1314v1314h64v-1384h-80l-1143 1309v-1309h-63zM635 1577q3 81 43.5 141t112.5 60q43 0 97.5 -37t104 -74t80.5 -37q50 0 74.5 43t26.5 101h55q-3 -80 -44 -140.5t-112 -60.5q-34 0 -75.5 23.5t-74 51t-69.5 51t-63 23.5q-50 0 -74.5 -43t-26.5 -102 h-55z" />
<glyph unicode="&#xd2;" horiz-adv-x="1978" d="M168 692q0 159 59 292t165 226t259.5 145t337.5 52t337.5 -52t259.5 -145t165 -226t59 -292t-59 -292t-165 -226t-259.5 -145t-337.5 -52t-337.5 52t-259.5 145t-165 226t-59 292zM231 692q0 -297 207 -477t551 -180t551 180t207 477t-207 477.5t-551 180.5t-551 -180.5 t-207 -477.5zM727 1833h72l205 -309h-56z" />
<glyph unicode="&#xd3;" horiz-adv-x="1978" d="M168 692q0 159 59 292t165 226t259.5 145t337.5 52t337.5 -52t259.5 -145t165 -226t59 -292t-59 -292t-165 -226t-259.5 -145t-337.5 -52t-337.5 52t-259.5 145t-165 226t-59 292zM231 692q0 -297 207 -477t551 -180t551 180t207 477t-207 477.5t-551 180.5t-551 -180.5 t-207 -477.5zM948 1524l205 309h72l-221 -309h-56z" />
<glyph unicode="&#xd4;" horiz-adv-x="1978" d="M168 692q0 159 59 292t165 226t259.5 145t337.5 52t337.5 -52t259.5 -145t165 -226t59 -292t-59 -292t-165 -226t-259.5 -145t-337.5 -52t-337.5 52t-259.5 145t-165 226t-59 292zM231 692q0 -297 207 -477t551 -180t551 180t207 477t-207 477.5t-551 180.5t-551 -180.5 t-207 -477.5zM733 1524l232 309h49l231 -309h-55l-201 248l-201 -248h-55z" />
<glyph unicode="&#xd5;" horiz-adv-x="1978" d="M168 692q0 159 59 292t165 226t259.5 145t337.5 52t337.5 -52t259.5 -145t165 -226t59 -292t-59 -292t-165 -226t-259.5 -145t-337.5 -52t-337.5 52t-259.5 145t-165 226t-59 292zM231 692q0 -297 207 -477t551 -180t551 180t207 477t-207 477.5t-551 180.5t-551 -180.5 t-207 -477.5zM692 1577q3 81 43.5 141t112.5 60q43 0 97.5 -37t104 -74t80.5 -37q50 0 74.5 43t26.5 101h55q-3 -80 -44 -140.5t-112 -60.5q-34 0 -75.5 23.5t-74 51t-69.5 51t-63 23.5q-50 0 -74 -43t-26 -102h-56z" />
<glyph unicode="&#xd6;" horiz-adv-x="1978" d="M168 692q0 159 59 292t165 226t259.5 145t337.5 52t337.5 -52t259.5 -145t165 -226t59 -292t-59 -292t-165 -226t-259.5 -145t-337.5 -52t-337.5 52t-259.5 145t-165 226t-59 292zM231 692q0 -297 207 -477t551 -180t551 180t207 477t-207 477.5t-551 180.5t-551 -180.5 t-207 -477.5zM764 1608v147h59v-147h-59zM1155 1608v147h59v-147h-59z" />
<glyph unicode="&#xd8;" horiz-adv-x="1978" d="M168 692q0 159 59 292t165 226t259.5 145t337.5 52q288 0 496 -125l164 180l41 -37l-158 -174q134 -95 206 -238t72 -321q0 -159 -59 -292t-165 -226t-259.5 -145t-337.5 -52q-294 0 -497 125l-164 -180l-39 39l155 172q-133 95 -204.5 238t-71.5 321zM231 692 q0 -164 65.5 -295.5t188.5 -218.5l959 1059q-190 113 -455 113q-344 0 -551 -180.5t-207 -477.5zM532 147q183 -112 457 -112q344 0 551 180t207 477q0 163 -66.5 295t-189.5 219z" />
<glyph unicode="&#xd9;" horiz-adv-x="1632" d="M248 471v913h63v-913q0 -108 41 -193t112 -137t160.5 -79t192.5 -27q142 0 255.5 48t183 148.5t69.5 239.5v913h59v-913q0 -98 -30.5 -179.5t-83 -139t-124.5 -97.5t-155 -59t-174 -19q-114 0 -215 31t-181 90t-126.5 155.5t-46.5 217.5zM569 1833h72l205 -309h-55z" />
<glyph unicode="&#xda;" horiz-adv-x="1632" d="M248 471v913h63v-913q0 -108 41 -193t112 -137t160.5 -79t192.5 -27q142 0 255.5 48t183 148.5t69.5 239.5v913h59v-913q0 -98 -30.5 -179.5t-83 -139t-124.5 -97.5t-155 -59t-174 -19q-114 0 -215 31t-181 90t-126.5 155.5t-46.5 217.5zM776 1524l205 309h72l-222 -309 h-55z" />
<glyph unicode="&#xdb;" horiz-adv-x="1632" d="M248 471v913h63v-913q0 -108 41 -193t112 -137t160.5 -79t192.5 -27q142 0 255.5 48t183 148.5t69.5 239.5v913h59v-913q0 -98 -30.5 -179.5t-83 -139t-124.5 -97.5t-155 -59t-174 -19q-114 0 -215 31t-181 90t-126.5 155.5t-46.5 217.5zM559 1524l232 309h49l231 -309 h-55l-201 248l-201 -248h-55z" />
<glyph unicode="&#xdc;" horiz-adv-x="1632" d="M248 471v913h63v-913q0 -108 41 -193t112 -137t160.5 -79t192.5 -27q142 0 255.5 48t183 148.5t69.5 239.5v913h59v-913q0 -98 -30.5 -179.5t-83 -139t-124.5 -97.5t-155 -59t-174 -19q-114 0 -215 31t-181 90t-126.5 155.5t-46.5 217.5zM590 1602v147h59v-147h-59z M981 1602v147h59v-147h-59z" />
<glyph unicode="&#xdd;" horiz-adv-x="1290" d="M0 1384h72l575 -759l570 759h73l-612 -823v-561h-64v561zM608 1524l205 309h72l-221 -309h-56z" />
<glyph unicode="&#xde;" horiz-adv-x="1406" d="M289 0v1384h63v-274h350q274 0 419 -108t145 -297t-145 -297.5t-419 -108.5h-350v-299h-63zM352 356h350q240 0 370 92t130 257t-130 256.5t-370 91.5h-350v-697z" />
<glyph unicode="&#xdf;" horiz-adv-x="1271" d="M231 0v1137q0 147 110 243.5t284 96.5t283.5 -95t109.5 -245q0 -71 -25.5 -128.5t-61.5 -94.5t-72 -69.5t-61.5 -70t-25.5 -78.5q0 -40 21.5 -72.5t56 -56.5t76 -47t82.5 -49t75.5 -57t56 -77.5t21.5 -103.5q0 -117 -93 -186.5t-261 -69.5q-89 0 -180.5 23.5t-147.5 56.5 v58q153 -84 330 -84q136 0 217.5 53.5t81.5 146.5q0 50 -21.5 90.5t-55.5 68.5t-75 52.5t-82.5 48.5t-75.5 51t-55.5 66t-21.5 88q0 48 25.5 90.5t61.5 76.5t72 70.5t61.5 88.5t25.5 115q0 131 -95 208.5t-247 77.5t-245 -77.5t-93 -208.5v-1137h-56z" />
<glyph unicode="&#xe0;" d="M133 487q0 126 43.5 224t119.5 159.5t176 93t218 31.5q212 0 428 -92v-903h-55v150q-186 -173 -422 -173q-106 0 -198 33.5t-161.5 96t-109 160.5t-39.5 220zM190 487q0 -111 36 -199.5t99 -143.5t143.5 -84t172.5 -29q128 0 237 53t185 131v651q-191 76 -375 76 q-104 0 -193 -27.5t-158 -81.5t-108 -142.5t-39 -203.5zM424 1454h72l204 -309h-55z" />
<glyph unicode="&#xe1;" d="M133 487q0 126 43.5 224t119.5 159.5t176 93t218 31.5q212 0 428 -92v-903h-55v150q-186 -173 -422 -173q-106 0 -198 33.5t-161.5 96t-109 160.5t-39.5 220zM190 487q0 -111 36 -199.5t99 -143.5t143.5 -84t172.5 -29q128 0 237 53t185 131v651q-191 76 -375 76 q-104 0 -193 -27.5t-158 -81.5t-108 -142.5t-39 -203.5zM596 1145l205 309h71l-221 -309h-55z" />
<glyph unicode="&#xe2;" d="M133 487q0 126 43.5 224t119.5 159.5t176 93t218 31.5q212 0 428 -92v-903h-55v150q-186 -173 -422 -173q-106 0 -198 33.5t-161.5 96t-109 160.5t-39.5 220zM190 487q0 -111 36 -199.5t99 -143.5t143.5 -84t172.5 -29q128 0 237 53t185 131v651q-191 76 -375 76 q-104 0 -193 -27.5t-158 -81.5t-108 -142.5t-39 -203.5zM385 1145l231 309h50l231 -309h-55l-201 248l-201 -248h-55z" />
<glyph unicode="&#xe3;" d="M133 487q0 126 43.5 224t119.5 159.5t176 93t218 31.5q212 0 428 -92v-903h-55v150q-186 -173 -422 -173q-106 0 -198 33.5t-161.5 96t-109 160.5t-39.5 220zM190 487q0 -111 36 -199.5t99 -143.5t143.5 -84t172.5 -29q128 0 237 53t185 131v651q-191 76 -375 76 q-104 0 -193 -27.5t-158 -81.5t-108 -142.5t-39 -203.5zM344 1200q3 81 43.5 141t112.5 60q43 0 97.5 -37t104 -74t80.5 -37q50 0 74.5 43t26.5 101h55q-3 -80 -44 -140.5t-112 -60.5q-34 0 -75.5 23.5t-74 51.5t-69.5 51.5t-63 23.5q-50 0 -74.5 -43.5t-26.5 -102.5h-55z " />
<glyph unicode="&#xe4;" d="M133 487q0 126 43.5 224t119.5 159.5t176 93t218 31.5q212 0 428 -92v-903h-55v150q-186 -173 -422 -173q-106 0 -198 33.5t-161.5 96t-109 160.5t-39.5 220zM190 487q0 -111 36 -199.5t99 -143.5t143.5 -84t172.5 -29q128 0 237 53t185 131v651q-191 76 -375 76 q-104 0 -193 -27.5t-158 -81.5t-108 -142.5t-39 -203.5zM416 1237v147h59v-147h-59zM807 1237v147h59v-147h-59z" />
<glyph unicode="&#xe5;" d="M133 487q0 126 43.5 224t119.5 159.5t176 93t218 31.5q212 0 428 -92v-903h-55v150q-186 -173 -422 -173q-106 0 -198 33.5t-161.5 96t-109 160.5t-39.5 220zM190 487q0 -111 36 -199.5t99 -143.5t143.5 -84t172.5 -29q128 0 237 53t185 131v651q-191 76 -375 76 q-104 0 -193 -27.5t-158 -81.5t-108 -142.5t-39 -203.5zM414 1298q0 82 68 130.5t159 48.5t159 -48.5t68 -130.5q0 -85 -68 -133.5t-159 -48.5t-159 48.5t-68 133.5zM471 1296q0 -60 48.5 -94.5t121.5 -34.5t121.5 34.5t48.5 94.5t-48.5 94.5t-121.5 34.5t-121.5 -34.5 t-48.5 -94.5z" />
<glyph unicode="&#xe6;" horiz-adv-x="2080" d="M133 487q0 126 43.5 224t119.5 159.5t176 93t218 31.5q216 0 434 -102q133 102 322 102q211 0 353 -129t159 -334v-47h-969q2 -119 42.5 -208.5t109 -142t153 -78t183.5 -25.5q255 0 438 112v-59q-179 -107 -438 -107q-275 0 -424 162q-179 -162 -412 -162 q-106 0 -198 33.5t-161.5 96t-109 160.5t-39.5 220zM190 487q0 -111 36 -199.5t99 -143.5t143.5 -84t172.5 -29q211 0 383 145q-92 126 -92 309q0 225 147 369q-177 88 -391 88q-104 0 -193 -27.5t-158 -81.5t-108 -142.5t-39 -203.5zM991 537h910q-19 181 -143 293 t-312 112q-192 0 -316 -112.5t-139 -292.5z" />
<glyph unicode="&#xe7;" horiz-adv-x="1165" d="M133 485q0 223 162 366.5t414 143.5q169 0 301 -69v-62q-134 78 -301 78q-229 0 -374 -128.5t-145 -328.5t144.5 -327t374.5 -127q180 0 313 88v-64q-138 -78 -313 -78q-9 0 -28 1.5t-28 1.5l-28 -91h12q47 0 86 -12t67.5 -44t28.5 -81q0 -65 -50.5 -106t-133.5 -41 q-63 0 -121 20v53q58 -22 121 -22q54 0 90.5 24t36.5 72q0 43 -36 65.5t-89 22.5h-82l45 146q-210 29 -338.5 165.5t-128.5 333.5z" />
<glyph unicode="&#xe8;" horiz-adv-x="1282" d="M133 485q0 223 145 366.5t369 143.5q211 0 353 -128.5t159 -331.5v-50h-969q2 -119 42.5 -208.5t109 -142t153 -78t183.5 -25.5q255 0 438 112v-59q-179 -107 -438 -107q-109 0 -205 30t-173 89t-122 159t-45 230zM193 537h909q-19 181 -143 293t-312 112 q-192 0 -315.5 -112.5t-138.5 -292.5zM406 1454h71l205 -309h-55z" />
<glyph unicode="&#xe9;" horiz-adv-x="1282" d="M133 485q0 223 145 366.5t369 143.5q211 0 353 -128.5t159 -331.5v-50h-969q2 -119 42.5 -208.5t109 -142t153 -78t183.5 -25.5q255 0 438 112v-59q-179 -107 -438 -107q-109 0 -205 30t-173 89t-122 159t-45 230zM193 537h909q-19 181 -143 293t-312 112 q-192 0 -315.5 -112.5t-138.5 -292.5zM618 1145l205 309h72l-221 -309h-56z" />
<glyph unicode="&#xea;" horiz-adv-x="1282" d="M133 485q0 223 145 366.5t369 143.5q211 0 353 -128.5t159 -331.5v-50h-969q2 -119 42.5 -208.5t109 -142t153 -78t183.5 -25.5q255 0 438 112v-59q-179 -107 -438 -107q-109 0 -205 30t-173 89t-122 159t-45 230zM193 537h909q-19 181 -143 293t-312 112 q-192 0 -315.5 -112.5t-138.5 -292.5zM385 1145l231 309h50l231 -309h-55l-201 248l-201 -248h-55z" />
<glyph unicode="&#xeb;" horiz-adv-x="1282" d="M133 485q0 223 145 366.5t369 143.5q211 0 353 -128.5t159 -331.5v-50h-969q2 -119 42.5 -208.5t109 -142t153 -78t183.5 -25.5q255 0 438 112v-59q-179 -107 -438 -107q-109 0 -205 30t-173 89t-122 159t-45 230zM193 537h909q-19 181 -143 293t-312 112 q-192 0 -315.5 -112.5t-138.5 -292.5zM416 1237v147h59v-147h-59zM807 1237v147h59v-147h-59z" />
<glyph unicode="&#xec;" horiz-adv-x="520" d="M10 1454h72l205 -309h-56zM231 0v973h56v-973h-56z" />
<glyph unicode="&#xed;" horiz-adv-x="520" d="M231 0v973h56v-973h-56zM231 1145l205 309h72l-221 -309h-56z" />
<glyph unicode="&#xee;" horiz-adv-x="520" d="M4 1145l232 309h49l231 -309h-55l-201 248l-201 -248h-55zM231 0v973h56v-973h-56z" />
<glyph unicode="&#xef;" horiz-adv-x="520" d="M35 1237v147h59v-147h-59zM231 0v973h56v-973h-56zM426 1237v147h59v-147h-59z" />
<glyph unicode="&#xf0;" horiz-adv-x="1417" d="M133 485q0 223 162 366.5t414 143.5q176 0 303 -69t202 -199q-57 285 -202 524l-557 -84v52l530 77q-49 73 -119 158h62q17 -21 110 -149l279 41v-50l-250 -36q92 -151 155.5 -349t63.5 -389q0 -155 -65.5 -277t-198 -195t-313.5 -73q-252 0 -414 142.5t-162 365.5z M190 485q0 -200 144.5 -327t374.5 -127q229 0 371.5 127t142.5 327q0 201 -142.5 329t-371.5 128t-374 -128.5t-145 -328.5z" />
<glyph unicode="&#xf1;" horiz-adv-x="1341" d="M231 0v973h56v-121q216 143 428 143q183 0 297 -90t114 -262v-643h-55v643q0 142 -96.5 220.5t-259.5 78.5q-212 0 -428 -154v-788h-56zM365 1200q3 81 43.5 141t111.5 60q34 0 76.5 -23t75 -51t69.5 -51t62 -23q49 0 73.5 43t26.5 101h55q-3 -80 -43.5 -140.5 t-111.5 -60.5q-34 0 -75.5 23.5t-74 51.5t-70 51.5t-63.5 23.5q-50 0 -74 -43.5t-26 -102.5h-55z" />
<glyph unicode="&#xf2;" horiz-adv-x="1417" d="M133 485q0 223 162 366.5t414 143.5t413.5 -143.5t161.5 -366.5t-161.5 -365.5t-413.5 -142.5t-414 142.5t-162 365.5zM190 485q0 -200 144.5 -327t374.5 -127t374 127t144 327t-144.5 328.5t-373.5 128.5t-374 -128.5t-145 -328.5zM463 1454h72l204 -309h-55z" />
<glyph unicode="&#xf3;" horiz-adv-x="1417" d="M133 485q0 223 162 366.5t414 143.5t413.5 -143.5t161.5 -366.5t-161.5 -365.5t-413.5 -142.5t-414 142.5t-162 365.5zM190 485q0 -200 144.5 -327t374.5 -127t374 127t144 327t-144.5 328.5t-373.5 128.5t-374 -128.5t-145 -328.5zM670 1145l204 309h72l-221 -309h-55z " />
<glyph unicode="&#xf4;" horiz-adv-x="1417" d="M133 485q0 223 162 366.5t414 143.5t413.5 -143.5t161.5 -366.5t-161.5 -365.5t-413.5 -142.5t-414 142.5t-162 365.5zM190 485q0 -200 144.5 -327t374.5 -127t374 127t144 327t-144.5 328.5t-373.5 128.5t-374 -128.5t-145 -328.5zM453 1145l231 309h49l232 -309h-56 l-200 248l-201 -248h-55z" />
<glyph unicode="&#xf5;" horiz-adv-x="1417" d="M133 485q0 223 162 366.5t414 143.5t413.5 -143.5t161.5 -366.5t-161.5 -365.5t-413.5 -142.5t-414 142.5t-162 365.5zM190 485q0 -200 144.5 -327t374.5 -127t374 127t144 327t-144.5 328.5t-373.5 128.5t-374 -128.5t-145 -328.5zM412 1200q3 81 43.5 141t111.5 60 q34 0 76.5 -23t75 -51t69.5 -51t62 -23q49 0 73.5 43t26.5 101h56q-3 -80 -44 -140.5t-112 -60.5q-34 0 -75.5 23.5t-74 51.5t-70 51.5t-63.5 23.5q-50 0 -74 -43.5t-26 -102.5h-55z" />
<glyph unicode="&#xf6;" horiz-adv-x="1417" d="M133 485q0 223 162 366.5t414 143.5t413.5 -143.5t161.5 -366.5t-161.5 -365.5t-413.5 -142.5t-414 142.5t-162 365.5zM190 485q0 -200 144.5 -327t374.5 -127t374 127t144 327t-144.5 328.5t-373.5 128.5t-374 -128.5t-145 -328.5zM483 1237v147h60v-147h-60zM874 1237 v147h60v-147h-60z" />
<glyph unicode="&#xf8;" horiz-adv-x="1417" d="M133 485q0 223 162 366.5t414 143.5q189 0 333 -86l123 142l39 -33l-119 -137q95 -70 147 -172t52 -224q0 -223 -161.5 -365.5t-413.5 -142.5q-190 0 -332 82l-121 -139l-41 35l117 135q-95 68 -147 170t-52 225zM190 485q0 -111 46.5 -202t130.5 -152l639 735 q-133 76 -297 76q-229 0 -374 -128.5t-145 -328.5zM412 102q124 -71 297 -71q230 0 374 127t144 327q0 109 -46 201t-130 154z" />
<glyph unicode="&#xf9;" horiz-adv-x="1306" d="M209 371v602h55v-602q0 -340 352 -340q115 0 222 53.5t182 130.5v758h55v-973h-55v150q-77 -71 -181.5 -122t-222.5 -51q-192 0 -299.5 96t-107.5 298zM426 1454h72l204 -309h-55z" />
<glyph unicode="&#xfa;" horiz-adv-x="1306" d="M209 371v602h55v-602q0 -340 352 -340q115 0 222 53.5t182 130.5v758h55v-973h-55v150q-77 -71 -181.5 -122t-222.5 -51q-192 0 -299.5 96t-107.5 298zM604 1145l205 309h72l-222 -309h-55z" />
<glyph unicode="&#xfb;" horiz-adv-x="1306" d="M209 371v602h55v-602q0 -340 352 -340q115 0 222 53.5t182 130.5v758h55v-973h-55v150q-77 -71 -181.5 -122t-222.5 -51q-192 0 -299.5 96t-107.5 298zM385 1145l231 309h50l231 -309h-55l-201 248l-201 -248h-55z" />
<glyph unicode="&#xfc;" horiz-adv-x="1306" d="M209 371v602h55v-602q0 -340 352 -340q115 0 222 53.5t182 130.5v758h55v-973h-55v150q-77 -71 -181.5 -122t-222.5 -51q-192 0 -299.5 96t-107.5 298zM416 1237v147h59v-147h-59zM807 1237v147h59v-147h-59z" />
<glyph unicode="&#xfd;" horiz-adv-x="1306" d="M209 371v602h55v-602q0 -340 352 -340q115 0 222 53.5t182 130.5v758h55v-977q0 -107 -38.5 -187.5t-106 -127.5t-150 -70t-178.5 -23q-189 0 -358 78v60q74 -38 169.5 -61t188.5 -23q84 0 156.5 19t132.5 59t94.5 110.5t34.5 165.5v154q-77 -71 -181.5 -122t-224.5 -51 q-190 0 -297.5 96.5t-107.5 297.5zM602 1145l205 309h72l-222 -309h-55z" />
<glyph unicode="&#xfe;" d="M231 -389v1843h56v-602q216 143 428 143q225 0 363.5 -137t138.5 -371q0 -127 -41 -226t-113 -160t-165 -92.5t-202 -31.5q-225 0 -409 113v-479h-56zM287 150q102 -63 192.5 -91t218.5 -28q93 0 173 25.5t146 78t104 143t38 209.5q0 209 -125.5 332t-318.5 123 q-212 0 -428 -154v-638z" />
<glyph unicode="&#xff;" horiz-adv-x="1306" d="M209 371v602h55v-602q0 -340 352 -340q115 0 222 53.5t182 130.5v758h55v-977q0 -107 -38.5 -187.5t-106 -127.5t-150 -70t-178.5 -23q-189 0 -358 78v60q74 -38 169.5 -61t188.5 -23q84 0 156.5 19t132.5 59t94.5 110.5t34.5 165.5v154q-77 -71 -181.5 -122t-224.5 -51 q-190 0 -297.5 96.5t-107.5 297.5zM414 1237v147h59v-147h-59zM805 1237v147h59v-147h-59z" />
<glyph unicode="&#x100;" horiz-adv-x="1384" d="M0 0l664 1384h61l659 -1384h-67l-207 432h-838l-204 -432h-68zM301 489h782l-391 820zM422 1649v49h541v-49h-541z" />
<glyph unicode="&#x101;" d="M133 487q0 126 43.5 224t119.5 159.5t176 93t218 31.5q212 0 428 -92v-903h-55v150q-186 -173 -422 -173q-106 0 -198 33.5t-161.5 96t-109 160.5t-39.5 220zM190 487q0 -111 36 -199.5t99 -143.5t143.5 -84t172.5 -29q128 0 237 53t185 131v651q-191 76 -375 76 q-104 0 -193 -27.5t-158 -81.5t-108 -142.5t-39 -203.5zM371 1274v49h540v-49h-540z" />
<glyph unicode="&#x102;" horiz-adv-x="1384" d="M0 0l664 1384h61l659 -1384h-67l-207 432h-838l-204 -432h-68zM301 489h782l-391 820zM399 1817h56q6 -95 68 -153t169 -58t169.5 58t68.5 153h55q-5 -116 -83.5 -191.5t-209.5 -75.5t-209.5 75.5t-83.5 191.5z" />
<glyph unicode="&#x103;" d="M133 487q0 126 43.5 224t119.5 159.5t176 93t218 31.5q212 0 428 -92v-903h-55v150q-186 -173 -422 -173q-106 0 -198 33.5t-161.5 96t-109 160.5t-39.5 220zM190 487q0 -111 36 -199.5t99 -143.5t143.5 -84t172.5 -29q128 0 237 53t185 131v651q-191 76 -375 76 q-104 0 -193 -27.5t-158 -81.5t-108 -142.5t-39 -203.5zM348 1436h55q6 -95 68.5 -153t169.5 -58t169.5 58t68.5 153h55q-5 -116 -83.5 -191.5t-209.5 -75.5t-209.5 75.5t-83.5 191.5z" />
<glyph unicode="&#x104;" horiz-adv-x="1384" d="M0 0l664 1384h61l659 -1384q-159 -107 -159 -225q0 -56 38 -87.5t101 -31.5q72 0 152 39v-53q-68 -37 -154 -37q-89 0 -142 45t-53 127q0 68 43 126t109 97h-2l-207 432h-838l-204 -432h-68zM301 489h782l-391 820z" />
<glyph unicode="&#x105;" d="M133 487q0 126 43.5 224t119.5 159.5t176 93t218 31.5q212 0 428 -92v-903q-160 -107 -160 -225q0 -56 38.5 -87.5t101.5 -31.5q71 0 151 39v-53q-68 -37 -153 -37q-89 0 -142 45t-53 127q0 71 46.5 129t115.5 94v150q-186 -173 -422 -173q-106 0 -198 33.5t-161.5 96 t-109 160.5t-39.5 220zM190 487q0 -111 36 -199.5t99 -143.5t143.5 -84t172.5 -29q128 0 237 53t185 131v651q-191 76 -375 76q-104 0 -193 -27.5t-158 -81.5t-108 -142.5t-39 -203.5z" />
<glyph unicode="&#x106;" horiz-adv-x="1525" d="M168 692q0 159 59 292t165 226t259.5 145t337.5 52q207 0 375 -64v-59q-164 66 -375 66q-344 0 -551 -180.5t-207 -477.5t207 -477t551 -180q216 0 393 78v-60q-179 -76 -393 -76q-184 0 -337.5 52t-259.5 145t-165 226t-59 292zM745 1524l205 309h72l-221 -309h-56z" />
<glyph unicode="&#x107;" horiz-adv-x="1165" d="M133 485q0 223 162 366.5t414 143.5q169 0 301 -69v-62q-134 78 -301 78q-229 0 -374 -128.5t-145 -328.5t144.5 -327t374.5 -127q180 0 313 88v-64q-138 -78 -313 -78q-252 0 -414 142.5t-162 365.5zM602 1145l205 309h72l-222 -309h-55z" />
<glyph unicode="&#x108;" horiz-adv-x="1525" d="M168 692q0 159 59 292t165 226t259.5 145t337.5 52q207 0 375 -64v-59q-164 66 -375 66q-344 0 -551 -180.5t-207 -477.5t207 -477t551 -180q216 0 393 78v-60q-179 -76 -393 -76q-184 0 -337.5 52t-259.5 145t-165 226t-59 292zM573 1524l232 309h49l231 -309h-55 l-201 248l-200 -248h-56z" />
<glyph unicode="&#x109;" horiz-adv-x="1165" d="M133 485q0 223 162 366.5t414 143.5q169 0 301 -69v-62q-134 78 -301 78q-229 0 -374 -128.5t-145 -328.5t144.5 -327t374.5 -127q180 0 313 88v-64q-138 -78 -313 -78q-252 0 -414 142.5t-162 365.5zM373 1145l231 309h49l232 -309h-56l-200 248l-201 -248h-55z" />
<glyph unicode="&#x10a;" horiz-adv-x="1525" d="M168 692q0 159 59 292t165 226t259.5 145t337.5 52q207 0 375 -64v-59q-164 66 -375 66q-344 0 -551 -180.5t-207 -477.5t207 -477t551 -180q216 0 393 78v-60q-179 -76 -393 -76q-184 0 -337.5 52t-259.5 145t-165 226t-59 292zM801 1606v147h59v-147h-59z" />
<glyph unicode="&#x10b;" horiz-adv-x="1165" d="M133 485q0 223 162 366.5t414 143.5q169 0 301 -69v-62q-134 78 -301 78q-229 0 -374 -128.5t-145 -328.5t144.5 -327t374.5 -127q180 0 313 88v-64q-138 -78 -313 -78q-252 0 -414 142.5t-162 365.5zM600 1237v147h59v-147h-59z" />
<glyph unicode="&#x10c;" horiz-adv-x="1525" d="M168 692q0 159 59 292t165 226t259.5 145t337.5 52q207 0 375 -64v-59q-164 66 -375 66q-344 0 -551 -180.5t-207 -477.5t207 -477t551 -180q216 0 393 78v-60q-179 -76 -393 -76q-184 0 -337.5 52t-259.5 145t-165 226t-59 292zM573 1833h56l200 -248l201 248h55 l-231 -309h-49z" />
<glyph unicode="&#x10d;" horiz-adv-x="1165" d="M133 485q0 223 162 366.5t414 143.5q169 0 301 -69v-62q-134 78 -301 78q-229 0 -374 -128.5t-145 -328.5t144.5 -327t374.5 -127q180 0 313 88v-64q-138 -78 -313 -78q-252 0 -414 142.5t-162 365.5zM373 1454h55l201 -248l200 248h56l-232 -309h-49z" />
<glyph unicode="&#x10e;" horiz-adv-x="1812" d="M289 0v1384h428q237 0 416.5 -50t290.5 -142.5t166 -218t55 -281.5q0 -157 -55 -282.5t-166 -217.5t-290.5 -142t-416.5 -50h-428zM352 57h365q411 0 637.5 161.5t226.5 473.5q0 313 -226.5 474t-637.5 161h-365v-1270zM651 1833h56l200 -248l201 248h55l-231 -309h-49z " />
<glyph unicode="&#x10f;" horiz-adv-x="1415" d="M133 487q0 126 43.5 224t119.5 159.5t176 93t218 31.5q187 0 373 -69v528h55v-1454h-55v150q-186 -173 -424 -173q-106 0 -197.5 33t-160.5 96t-108.5 161t-39.5 220zM190 487q0 -111 36 -199.5t99 -143.5t143.5 -84t172.5 -29q128 0 237 53t185 131v651q-191 76 -375 76 q-104 0 -193 -27.5t-158 -81.5t-108 -142.5t-39 -203.5zM1249 1100q92 103 92 227q0 70 -28 127h55q25 -64 25 -125q0 -137 -103 -258z" />
<glyph unicode="&#x110;" horiz-adv-x="1812" d="M82 696v58h207v630h428q237 0 416.5 -50t290.5 -142.5t166 -218t55 -281.5q0 -157 -55 -282.5t-166 -217.5t-290.5 -142t-416.5 -50h-428v696h-207zM352 57h365q411 0 637.5 161.5t226.5 473.5q0 313 -226.5 474t-637.5 161h-365v-573h600v-58h-600v-639z" />
<glyph unicode="&#x111;" d="M133 487q0 126 43.5 224t119.5 159.5t176 93t218 31.5q187 0 373 -69v284h-520v50h520v194h55v-194h185v-50h-185v-1210h-55v150q-186 -173 -424 -173q-106 0 -197.5 33t-160.5 96t-108.5 161t-39.5 220zM190 487q0 -111 36 -199.5t99 -143.5t143.5 -84t172.5 -29 q128 0 237 53t185 131v651q-191 76 -375 76q-104 0 -193 -27.5t-158 -81.5t-108 -142.5t-39 -203.5z" />
<glyph unicode="&#x112;" horiz-adv-x="1331" d="M268 303v1081h858v-57h-794v-571h739v-58h-739v-395q0 -126 69.5 -186t231.5 -60h538v-57h-538q-194 0 -279.5 77t-85.5 226zM424 1649v49h541v-49h-541z" />
<glyph unicode="&#x113;" horiz-adv-x="1282" d="M133 485q0 223 145 366.5t369 143.5q211 0 353 -128.5t159 -331.5v-50h-969q2 -119 42.5 -208.5t109 -142t153 -78t183.5 -25.5q255 0 438 112v-59q-179 -107 -438 -107q-109 0 -205 30t-173 89t-122 159t-45 230zM193 537h909q-19 181 -143 293t-312 112 q-192 0 -315.5 -112.5t-138.5 -292.5zM371 1274v49h540v-49h-540z" />
<glyph unicode="&#x116;" horiz-adv-x="1331" d="M268 303v1081h858v-57h-794v-571h739v-58h-739v-395q0 -126 69.5 -186t231.5 -60h538v-57h-538q-194 0 -279.5 77t-85.5 226zM666 1604v147h59v-147h-59z" />
<glyph unicode="&#x117;" horiz-adv-x="1282" d="M133 485q0 223 145 366.5t369 143.5q211 0 353 -128.5t159 -331.5v-50h-969q2 -119 42.5 -208.5t109 -142t153 -78t183.5 -25.5q255 0 438 112v-59q-179 -107 -438 -107q-109 0 -205 30t-173 89t-122 159t-45 230zM193 537h909q-19 181 -143 293t-312 112 q-192 0 -315.5 -112.5t-138.5 -292.5zM612 1237v147h60v-147h-60z" />
<glyph unicode="&#x118;" horiz-adv-x="1331" d="M268 303v1081h858v-57h-794v-571h739v-58h-739v-395q0 -126 69.5 -186t231.5 -60h538v-57h-131q-159 -107 -159 -225q0 -56 38 -87.5t101 -31.5q71 0 151 39v-53q-68 -37 -153 -37q-89 0 -142 45t-53 127q0 64 39 122.5t99 100.5h-328q-194 0 -279.5 77t-85.5 226z" />
<glyph unicode="&#x119;" horiz-adv-x="1282" d="M133 485q0 223 145 366.5t369 143.5q211 0 353 -128.5t159 -331.5v-50h-969q2 -119 42.5 -208.5t109 -142t153 -78t183.5 -25.5q255 0 438 112v-59q-98 -59 -219 -84q-160 -107 -160 -225q0 -56 38.5 -87.5t101.5 -31.5q71 0 151 39v-53q-68 -37 -154 -37 q-89 0 -141.5 45t-52.5 127q0 120 127 209q-65 -9 -129 -9q-109 0 -205 30t-173 89t-122 159t-45 230zM193 537h909q-19 181 -143 293t-312 112q-192 0 -315.5 -112.5t-138.5 -292.5z" />
<glyph unicode="&#x11a;" horiz-adv-x="1331" d="M268 303v1081h858v-57h-794v-571h739v-58h-739v-395q0 -126 69.5 -186t231.5 -60h538v-57h-538q-194 0 -279.5 77t-85.5 226zM438 1833h56l200 -248l201 248h55l-231 -309h-49z" />
<glyph unicode="&#x11b;" horiz-adv-x="1282" d="M133 485q0 223 145 366.5t369 143.5q211 0 353 -128.5t159 -331.5v-50h-969q2 -119 42.5 -208.5t109 -142t153 -78t183.5 -25.5q255 0 438 112v-59q-179 -107 -438 -107q-109 0 -205 30t-173 89t-122 159t-45 230zM193 537h909q-19 181 -143 293t-312 112 q-192 0 -315.5 -112.5t-138.5 -292.5zM385 1454h55l201 -248l201 248h55l-231 -309h-50z" />
<glyph unicode="&#x11c;" horiz-adv-x="1935" d="M168 692q0 159 59 292t165 226t259.5 145t337.5 52q358 0 629 -127v-59q-279 129 -629 129q-344 0 -551 -180.5t-207 -477.5t207 -477t551 -180q202 0 364 40.5t265 102.5v457h-637v59h692v-551q-141 -80 -299.5 -123t-384.5 -43q-184 0 -337.5 52t-259.5 145t-165 226 t-59 292zM711 1524l231 309h49l232 -309h-56l-200 248l-201 -248h-55z" />
<glyph unicode="&#x11d;" d="M133 487q0 126 43.5 224t119.5 159.5t176 93t218 31.5q212 0 428 -92v-907q0 -105 -37 -184.5t-103.5 -127.5t-153.5 -72t-193 -24q-114 0 -230 31t-211 88v60q98 -60 214 -92.5t229 -32.5q73 0 134.5 11t117 37.5t94.5 66.5t61.5 102t22.5 141v150q-186 -173 -422 -173 q-106 0 -198 33.5t-161.5 96t-109 160.5t-39.5 220zM190 487q0 -111 36 -199.5t99 -143.5t143.5 -84t172.5 -29q128 0 237 53t185 131v651q-191 76 -375 76q-104 0 -193 -27.5t-158 -81.5t-108 -142.5t-39 -203.5zM379 1145l231 309h49l232 -309h-55l-201 248l-201 -248h-55 z" />
<glyph unicode="&#x11e;" horiz-adv-x="1935" d="M168 692q0 159 59 292t165 226t259.5 145t337.5 52q358 0 629 -127v-59q-279 129 -629 129q-344 0 -551 -180.5t-207 -477.5t207 -477t551 -180q202 0 364 40.5t265 102.5v457h-637v59h692v-551q-141 -80 -299.5 -123t-384.5 -43q-184 0 -337.5 52t-259.5 145t-165 226 t-59 292zM674 1815h55q6 -95 68.5 -153t169.5 -58t169 58t68 153h56q-5 -116 -83.5 -191.5t-209.5 -75.5t-209.5 75.5t-83.5 191.5z" />
<glyph unicode="&#x11f;" d="M133 487q0 126 43.5 224t119.5 159.5t176 93t218 31.5q212 0 428 -92v-907q0 -105 -37 -184.5t-103.5 -127.5t-153.5 -72t-193 -24q-114 0 -230 31t-211 88v60q98 -60 214 -92.5t229 -32.5q73 0 134.5 11t117 37.5t94.5 66.5t61.5 102t22.5 141v150q-186 -173 -422 -173 q-106 0 -198 33.5t-161.5 96t-109 160.5t-39.5 220zM190 487q0 -111 36 -199.5t99 -143.5t143.5 -84t172.5 -29q128 0 237 53t185 131v651q-191 76 -375 76q-104 0 -193 -27.5t-158 -81.5t-108 -142.5t-39 -203.5zM342 1436h55q6 -95 68.5 -153t169.5 -58t169 58t68 153h56 q-5 -116 -83.5 -191.5t-209.5 -75.5t-209.5 75.5t-83.5 191.5z" />
<glyph unicode="&#x120;" horiz-adv-x="1935" d="M168 692q0 159 59 292t165 226t259.5 145t337.5 52q358 0 629 -127v-59q-279 129 -629 129q-344 0 -551 -180.5t-207 -477.5t207 -477t551 -180q202 0 364 40.5t265 102.5v457h-637v59h692v-551q-141 -80 -299.5 -123t-384.5 -43q-184 0 -337.5 52t-259.5 145t-165 226 t-59 292zM938 1602v147h59v-147h-59z" />
<glyph unicode="&#x121;" d="M133 487q0 126 43.5 224t119.5 159.5t176 93t218 31.5q212 0 428 -92v-907q0 -105 -37 -184.5t-103.5 -127.5t-153.5 -72t-193 -24q-114 0 -230 31t-211 88v60q98 -60 214 -92.5t229 -32.5q73 0 134.5 11t117 37.5t94.5 66.5t61.5 102t22.5 141v150q-186 -173 -422 -173 q-106 0 -198 33.5t-161.5 96t-109 160.5t-39.5 220zM190 487q0 -111 36 -199.5t99 -143.5t143.5 -84t172.5 -29q128 0 237 53t185 131v651q-191 76 -375 76q-104 0 -193 -27.5t-158 -81.5t-108 -142.5t-39 -203.5zM606 1237v147h60v-147h-60z" />
<glyph unicode="&#x122;" horiz-adv-x="1935" d="M168 692q0 159 59 292t165 226t259.5 145t337.5 52q358 0 629 -127v-59q-279 129 -629 129q-344 0 -551 -180.5t-207 -477.5t207 -477t551 -180q202 0 364 40.5t265 102.5v457h-637v59h692v-551q-141 -80 -299.5 -123t-384.5 -43q-184 0 -337.5 52t-259.5 145t-165 226 t-59 292zM823 -432q135 62 135 190q0 62 -24 117h57q23 -56 23 -115q0 -153 -168 -235z" />
<glyph unicode="&#x123;" d="M133 487q0 126 43.5 224t119.5 159.5t176 93t218 31.5q212 0 428 -92v-907q0 -105 -37 -184.5t-103.5 -127.5t-153.5 -72t-193 -24q-114 0 -230 31t-211 88v60q98 -60 214 -92.5t229 -32.5q73 0 134.5 11t117 37.5t94.5 66.5t61.5 102t22.5 141v150q-186 -173 -422 -173 q-106 0 -198 33.5t-161.5 96t-109 160.5t-39.5 220zM190 487q0 -111 36 -199.5t99 -143.5t143.5 -84t172.5 -29q128 0 237 53t185 131v651q-191 76 -375 76q-104 0 -193 -27.5t-158 -81.5t-108 -142.5t-39 -203.5zM612 1233q0 153 168 235l23 -43q-135 -62 -135 -190 q0 -62 24 -117h-57q-23 56 -23 115z" />
<glyph unicode="&#x124;" horiz-adv-x="1871" d="M289 0v1384h63v-630h1168v630h63v-1384h-63v696h-1168v-696h-63zM680 1524l231 309h50l231 -309h-55l-201 248l-201 -248h-55z" />
<glyph unicode="&#x125;" horiz-adv-x="1341" d="M4 1524l232 309h49l231 -309h-55l-201 248l-201 -248h-55zM231 0v1454h56v-602q216 143 428 143q183 0 297 -90t114 -262v-643h-55v643q0 142 -96.5 220.5t-259.5 78.5q-212 0 -428 -154v-788h-56z" />
<glyph unicode="&#x126;" horiz-adv-x="1873" d="M82 1044v56h207v284h63v-284h1168v284h63v-284h207v-56h-207v-1044h-63v696h-1168v-696h-63v1044h-207zM352 754h1168v290h-1168v-290z" />
<glyph unicode="&#x127;" horiz-adv-x="1341" d="M47 1210v50h184v194h56v-194h520v-50h-520v-358q216 143 428 143q183 0 297 -90t114 -262v-643h-55v643q0 142 -96.5 220.5t-259.5 78.5q-212 0 -428 -154v-788h-56v1210h-184z" />
<glyph unicode="&#x12a;" horiz-adv-x="641" d="M49 1653v49h541v-49h-541zM289 0v1384h63v-1384h-63z" />
<glyph unicode="&#x12b;" horiz-adv-x="520" d="M-10 1274v49h540v-49h-540zM231 0v973h56v-973h-56z" />
<glyph unicode="&#x12e;" horiz-adv-x="641" d="M135 -223q0 67 44 125.5t110 97.5v1384h63v-1384q-159 -107 -159 -225q0 -56 38 -87.5t101 -31.5q71 0 151 39v-53q-68 -37 -153 -37q-89 0 -142 45t-53 127z" />
<glyph unicode="&#x12f;" horiz-adv-x="520" d="M70 -223q0 131 161 223v973h56v-973q-160 -107 -160 -225q0 -56 38 -87.5t101 -31.5q72 0 152 39v-53q-68 -37 -154 -37q-89 0 -141.5 45t-52.5 127zM229 1237v147h60v-147h-60z" />
<glyph unicode="&#x130;" horiz-adv-x="641" d="M289 0v1384h63v-1384h-63zM291 1604v147h59v-147h-59z" />
<glyph unicode="&#x131;" horiz-adv-x="520" d="M231 0v973h56v-973h-56z" />
<glyph unicode="&#x134;" horiz-adv-x="837" d="M14 16v60q106 -41 217 -41q281 0 281 280v1069h63v-1069q0 -93 -27.5 -160.5t-77 -105t-108.5 -55t-131 -17.5q-114 0 -217 39zM291 1524l231 309h49l232 -309h-55l-201 248l-201 -248h-55z" />
<glyph unicode="&#x135;" horiz-adv-x="520" d="M-41 -322q68 -36 143 -36q60 0 94.5 32.5t34.5 92.5v1206h56v-1206q0 -86 -51 -132.5t-134 -46.5q-79 0 -143 33v57zM4 1145l232 309h49l231 -309h-55l-201 248l-201 -248h-55z" />
<glyph unicode="&#x136;" horiz-adv-x="1343" d="M289 0v1384h63v-639l877 639h90l-905 -665l919 -719h-92l-889 690v-690h-63zM666 -432q135 62 135 190q0 60 -25 117h58q22 -54 22 -115q0 -153 -168 -235z" />
<glyph unicode="&#x137;" horiz-adv-x="1095" d="M231 0v1454h56v-903l682 422h96l-723 -451l741 -522h-86l-710 496v-496h-56zM530 -432q136 62 136 190q0 60 -25 117h57q23 -56 23 -115q0 -153 -168 -235z" />
<glyph unicode="&#x139;" horiz-adv-x="1165" d="M268 303v1081h64v-1081q0 -126 69.5 -186t231.5 -60h477v-57h-477q-194 0 -279.5 77t-85.5 226zM272 1524l205 309h72l-221 -309h-56z" />
<glyph unicode="&#x13a;" horiz-adv-x="565" d="M213 154v1300h55v-1300q0 -60 34.5 -92.5t94.5 -32.5q74 0 144 37v-58q-64 -33 -144 -33q-83 0 -133.5 46.5t-50.5 132.5zM225 1522l205 309h72l-221 -309h-56z" />
<glyph unicode="&#x13b;" horiz-adv-x="1165" d="M268 303v1081h64v-1081q0 -126 69.5 -186t231.5 -60h477v-57h-477q-194 0 -279.5 77t-85.5 226zM602 -432q135 62 135 190q0 62 -24 117h57q23 -56 23 -115q0 -153 -168 -235z" />
<glyph unicode="&#x13c;" horiz-adv-x="565" d="M213 154v1300h55v-1300q0 -60 34.5 -92.5t94.5 -32.5q74 0 144 37v-58q-64 -33 -144 -33q-83 0 -133.5 46.5t-50.5 132.5zM258 -432q135 62 135 190q0 62 -24 117h57q23 -56 23 -115q0 -153 -168 -235z" />
<glyph unicode="&#x13d;" horiz-adv-x="1165" d="M268 303v1081h64v-1081q0 -126 69.5 -186t231.5 -60h477v-57h-477q-194 0 -279.5 77t-85.5 226zM776 1030q92 103 92 227q0 70 -28 127h55q25 -64 25 -124q0 -138 -103 -259z" />
<glyph unicode="&#x13e;" horiz-adv-x="565" d="M213 154v1300h55v-1300q0 -60 34.5 -92.5t94.5 -32.5q74 0 144 37v-58q-64 -33 -144 -33q-83 0 -133.5 46.5t-50.5 132.5zM412 1100q92 103 92 227q0 68 -29 127h55q25 -64 25 -125q0 -139 -102 -258z" />
<glyph unicode="&#x141;" horiz-adv-x="1165" d="M61 561v57l207 72v694h64v-671l563 198v-57l-563 -199v-352q0 -126 69.5 -186t231.5 -60h477v-57h-477q-194 0 -279.5 77t-85.5 226v330z" />
<glyph unicode="&#x142;" horiz-adv-x="595" d="M63 707v55l181 72v620h55v-598l229 94v-53l-229 -94v-649q0 -60 34.5 -92.5t94.5 -32.5q73 0 143 37v-58q-64 -33 -143 -33q-83 0 -133.5 46.5t-50.5 132.5v626z" />
<glyph unicode="&#x143;" horiz-adv-x="1865" d="M289 0v1384h80l1142 -1314v1314h64v-1384h-80l-1143 1309v-1309h-63zM885 1524l205 309h71l-221 -309h-55z" />
<glyph unicode="&#x144;" horiz-adv-x="1341" d="M231 0v973h56v-121q216 143 428 143q183 0 297 -90t114 -262v-643h-55v643q0 142 -96.5 220.5t-259.5 78.5q-212 0 -428 -154v-788h-56zM643 1145l205 309h72l-222 -309h-55z" />
<glyph unicode="&#x145;" horiz-adv-x="1865" d="M289 0v1384h80l1142 -1314v1314h64v-1384h-80l-1143 1309v-1309h-63zM799 -432q135 62 135 190q0 60 -25 117h58q22 -54 22 -115q0 -153 -168 -235z" />
<glyph unicode="&#x146;" horiz-adv-x="1341" d="M231 0v973h56v-121q216 143 428 143q183 0 297 -90t114 -262v-643h-55v643q0 142 -96.5 220.5t-259.5 78.5q-212 0 -428 -154v-788h-56zM541 -432q135 62 135 190q0 60 -25 117h58q22 -54 22 -115q0 -153 -168 -235z" />
<glyph unicode="&#x147;" horiz-adv-x="1865" d="M289 0v1384h80l1142 -1314v1314h64v-1384h-80l-1143 1309v-1309h-63zM676 1833h55l201 -248l201 248h55l-232 -309h-49z" />
<glyph unicode="&#x148;" horiz-adv-x="1341" d="M231 0v973h56v-121q216 143 428 143q183 0 297 -90t114 -262v-643h-55v643q0 142 -96.5 220.5t-259.5 78.5q-212 0 -428 -154v-788h-56zM414 1454h55l201 -248l200 248h56l-232 -309h-49z" />
<glyph unicode="&#x14c;" horiz-adv-x="1978" d="M168 692q0 159 59 292t165 226t259.5 145t337.5 52t337.5 -52t259.5 -145t165 -226t59 -292t-59 -292t-165 -226t-259.5 -145t-337.5 -52t-337.5 52t-259.5 145t-165 226t-59 292zM231 692q0 -297 207 -477t551 -180t551 180t207 477t-207 477.5t-551 180.5t-551 -180.5 t-207 -477.5zM719 1649v49h541v-49h-541z" />
<glyph unicode="&#x14d;" horiz-adv-x="1417" d="M133 485q0 223 162 366.5t414 143.5t413.5 -143.5t161.5 -366.5t-161.5 -365.5t-413.5 -142.5t-414 142.5t-162 365.5zM190 485q0 -200 144.5 -327t374.5 -127t374 127t144 327t-144.5 328.5t-373.5 128.5t-374 -128.5t-145 -328.5zM438 1274v49h541v-49h-541z" />
<glyph unicode="&#x150;" horiz-adv-x="1978" d="M168 692q0 159 59 292t165 226t259.5 145t337.5 52t337.5 -52t259.5 -145t165 -226t59 -292t-59 -292t-165 -226t-259.5 -145t-337.5 -52t-337.5 52t-259.5 145t-165 226t-59 292zM231 692q0 -297 207 -477t551 -180t551 180t207 477t-207 477.5t-551 180.5t-551 -180.5 t-207 -477.5zM803 1524l205 309h71l-221 -309h-55zM1053 1524l225 309h72l-242 -309h-55z" />
<glyph unicode="&#x151;" horiz-adv-x="1417" d="M133 485q0 223 162 366.5t414 143.5t413.5 -143.5t161.5 -366.5t-161.5 -365.5t-413.5 -142.5t-414 142.5t-162 365.5zM190 485q0 -200 144.5 -327t374.5 -127t374 127t144 327t-144.5 328.5t-373.5 128.5t-374 -128.5t-145 -328.5zM563 1145l205 309h72l-222 -309h-55z M813 1145l225 309h72l-242 -309h-55z" />
<glyph unicode="&#x152;" horiz-adv-x="2807" d="M168 692q0 159 59 292t165 226t259.5 145t337.5 52q276 0 474 -113.5t284 -314.5v405h856v-57h-795v-571h740v-58h-740v-395q0 -126 69.5 -186t231.5 -60h539v-57h-539q-194 0 -278 77t-84 226v103q-86 -201 -284 -315t-474 -114q-184 0 -337.5 52t-259.5 145t-165 226 t-59 292zM231 692q0 -297 207 -477t551 -180t551 180t207 477t-207 477.5t-551 180.5t-551 -180.5t-207 -477.5z" />
<glyph unicode="&#x153;" horiz-adv-x="2373" d="M133 485q0 223 162 366.5t414 143.5q201 0 346 -94t198 -254q46 160 176 254t310 94q212 0 353.5 -127.5t158.5 -330.5v-52h-969q2 -119 42 -208.5t109 -142t153 -78t183 -25.5q256 0 439 112v-59q-179 -107 -439 -107q-189 0 -329 84.5t-189 255.5q-53 -156 -197.5 -248 t-344.5 -92q-252 0 -414 142.5t-162 365.5zM190 485q0 -200 144.5 -327t374.5 -127t374 127t144 327t-144.5 328.5t-373.5 128.5t-374 -128.5t-145 -328.5zM1284 537h909q-19 181 -142.5 293t-311.5 112q-192 0 -316 -112.5t-139 -292.5z" />
<glyph unicode="&#x154;" horiz-adv-x="1437" d="M289 0v1384h413q274 0 419 -108t145 -297q0 -173 -124.5 -280t-359.5 -124l561 -575h-81l-560 573h-350v-573h-63zM352 631h350q240 0 370 91.5t130 256.5t-130 256.5t-370 91.5h-350v-696zM719 1524l205 309h71l-221 -309h-55z" />
<glyph unicode="&#x155;" horiz-adv-x="794" d="M231 0v973h56v-168q83 79 212 134.5t255 55.5v-53q-124 0 -250.5 -55.5t-216.5 -147.5v-739h-56zM420 1145l205 309h71l-221 -309h-55z" />
<glyph unicode="&#x158;" horiz-adv-x="1437" d="M289 0v1384h413q274 0 419 -108t145 -297q0 -173 -124.5 -280t-359.5 -124l561 -575h-81l-560 573h-350v-573h-63zM352 631h350q240 0 370 91.5t130 256.5t-130 256.5t-370 91.5h-350v-696zM500 1833h55l201 -248l200 248h56l-232 -309h-49z" />
<glyph unicode="&#x159;" horiz-adv-x="794" d="M231 0v973h56v-168q83 79 212 134.5t255 55.5v-53q-124 0 -250.5 -55.5t-216.5 -147.5v-739h-56zM244 1454h55l201 -248l200 248h56l-232 -309h-49z" />
<glyph unicode="&#x15a;" horiz-adv-x="1345" d="M170 86v66q92 -55 220.5 -86t250.5 -31q72 0 136.5 9.5t126.5 32.5t106.5 58.5t72 91.5t27.5 127q0 63 -26 112.5t-70.5 80.5t-103.5 57t-126 41.5t-137 34.5t-137 36.5t-126 46.5t-103.5 65t-70.5 92t-26 127q0 90 43 161t115 113.5t159.5 64t184.5 21.5q255 0 444 -92 v-60q-195 95 -444 95q-67 0 -129.5 -11t-119 -34.5t-98.5 -58.5t-66.5 -86t-24.5 -113q0 -68 31.5 -119.5t85.5 -83.5t123 -55.5t146 -42t154 -38t146 -48t123 -66.5t85.5 -99t31.5 -141q0 -78 -28.5 -141.5t-78 -106.5t-117.5 -72.5t-145.5 -43t-163.5 -13.5 q-125 0 -256 29.5t-215 79.5zM614 1524l205 309h72l-221 -309h-56z" />
<glyph unicode="&#x15b;" horiz-adv-x="1101" d="M145 84v57q186 -110 406 -110q164 0 257 55.5t93 159.5q0 65 -41.5 108.5t-107.5 65t-146 36.5t-160.5 31.5t-146.5 41.5t-107.5 75t-41.5 123q0 123 114 195.5t307 72.5q110 0 211 -24t160 -58v-57q-64 38 -166.5 62t-204.5 24q-162 0 -263 -56t-101 -159 q0 -62 41.5 -103t107.5 -61t146 -34t160.5 -31t146.5 -42.5t107.5 -77.5t41.5 -128q0 -130 -112.5 -201.5t-296.5 -71.5q-225 0 -404 107zM500 1145l205 309h71l-221 -309h-55z" />
<glyph unicode="&#x15c;" horiz-adv-x="1345" d="M170 86v66q92 -55 220.5 -86t250.5 -31q72 0 136.5 9.5t126.5 32.5t106.5 58.5t72 91.5t27.5 127q0 63 -26 112.5t-70.5 80.5t-103.5 57t-126 41.5t-137 34.5t-137 36.5t-126 46.5t-103.5 65t-70.5 92t-26 127q0 90 43 161t115 113.5t159.5 64t184.5 21.5q255 0 444 -92 v-60q-195 95 -444 95q-67 0 -129.5 -11t-119 -34.5t-98.5 -58.5t-66.5 -86t-24.5 -113q0 -68 31.5 -119.5t85.5 -83.5t123 -55.5t146 -42t154 -38t146 -48t123 -66.5t85.5 -99t31.5 -141q0 -78 -28.5 -141.5t-78 -106.5t-117.5 -72.5t-145.5 -43t-163.5 -13.5 q-125 0 -256 29.5t-215 79.5zM416 1524l231 309h49l232 -309h-56l-200 248l-201 -248h-55z" />
<glyph unicode="&#x15d;" horiz-adv-x="1101" d="M145 84v57q186 -110 406 -110q164 0 257 55.5t93 159.5q0 65 -41.5 108.5t-107.5 65t-146 36.5t-160.5 31.5t-146.5 41.5t-107.5 75t-41.5 123q0 123 114 195.5t307 72.5q110 0 211 -24t160 -58v-57q-64 38 -166.5 62t-204.5 24q-162 0 -263 -56t-101 -159 q0 -62 41.5 -103t107.5 -61t146 -34t160.5 -31t146.5 -42.5t107.5 -77.5t41.5 -128q0 -130 -112.5 -201.5t-296.5 -71.5q-225 0 -404 107zM295 1145l231 309h49l232 -309h-55l-201 248l-201 -248h-55z" />
<glyph unicode="&#x15e;" horiz-adv-x="1345" d="M170 86v66q92 -55 220.5 -86t250.5 -31q72 0 136.5 9.5t126.5 32.5t106.5 58.5t72 91.5t27.5 127q0 63 -26 112.5t-70.5 80.5t-103.5 57t-126 41.5t-137 34.5t-137 36.5t-126 46.5t-103.5 65t-70.5 92t-26 127q0 90 43.5 161t116 113.5t160 64t182.5 21.5q255 0 444 -92 v-60q-195 95 -444 95q-67 0 -129.5 -11t-119 -34.5t-98.5 -58.5t-66.5 -86t-24.5 -113q0 -68 31.5 -119.5t85.5 -83.5t123 -55.5t146 -42t154 -38t146 -48t123 -66.5t85.5 -99t31.5 -141q0 -89 -36.5 -158.5t-101.5 -113.5t-146.5 -69.5t-178.5 -32.5l-29 -91h12q34 0 65 -7 t58.5 -22t43.5 -43t16 -65q0 -65 -51 -106t-134 -41q-63 0 -121 20v53q58 -22 121 -22q54 0 90.5 24t36.5 72q0 43 -36 65.5t-89 22.5h-82l43 137h-16q-124 0 -254.5 29.5t-214.5 79.5z" />
<glyph unicode="&#x15f;" horiz-adv-x="1101" d="M145 84v57q186 -110 406 -110q164 0 257 55.5t93 159.5q0 65 -41.5 108.5t-107.5 65t-146 36.5t-160.5 31.5t-146.5 41.5t-107.5 75t-41.5 123q0 123 114 195.5t307 72.5q110 0 211 -24t160 -58v-57q-64 38 -166.5 62t-204.5 24q-162 0 -263 -56t-101 -159 q0 -62 41.5 -103t107.5 -61t146 -34t160.5 -31t146.5 -42.5t107.5 -77.5t41.5 -128q0 -124 -102.5 -194t-273.5 -76l-27 -91h12q34 0 65 -7t58.5 -22t43.5 -43t16 -65q0 -65 -51 -106t-134 -41q-63 0 -121 20v53q58 -22 121 -22q54 0 90.5 24t36.5 72q0 43 -36 65.5 t-89 22.5h-82l43 137q-219 6 -383 107z" />
<glyph unicode="&#x160;" horiz-adv-x="1345" d="M170 86v66q92 -55 220.5 -86t250.5 -31q72 0 136.5 9.5t126.5 32.5t106.5 58.5t72 91.5t27.5 127q0 63 -26 112.5t-70.5 80.5t-103.5 57t-126 41.5t-137 34.5t-137 36.5t-126 46.5t-103.5 65t-70.5 92t-26 127q0 90 43 161t115 113.5t159.5 64t184.5 21.5q255 0 444 -92 v-60q-195 95 -444 95q-67 0 -129.5 -11t-119 -34.5t-98.5 -58.5t-66.5 -86t-24.5 -113q0 -68 31.5 -119.5t85.5 -83.5t123 -55.5t146 -42t154 -38t146 -48t123 -66.5t85.5 -99t31.5 -141q0 -78 -28.5 -141.5t-78 -106.5t-117.5 -72.5t-145.5 -43t-163.5 -13.5 q-125 0 -256 29.5t-215 79.5zM416 1833h55l201 -248l200 248h56l-232 -309h-49z" />
<glyph unicode="&#x161;" horiz-adv-x="1101" d="M145 84v57q186 -110 406 -110q164 0 257 55.5t93 159.5q0 65 -41.5 108.5t-107.5 65t-146 36.5t-160.5 31.5t-146.5 41.5t-107.5 75t-41.5 123q0 123 114 195.5t307 72.5q110 0 211 -24t160 -58v-57q-64 38 -166.5 62t-204.5 24q-162 0 -263 -56t-101 -159 q0 -62 41.5 -103t107.5 -61t146 -34t160.5 -31t146.5 -42.5t107.5 -77.5t41.5 -128q0 -130 -112.5 -201.5t-296.5 -71.5q-225 0 -404 107zM295 1454h55l201 -248l201 248h55l-232 -309h-49z" />
<glyph unicode="&#x162;" horiz-adv-x="1361" d="M55 1327v57h1252v-57h-594v-1327h-64v1327h-594zM541 -432q135 62 135 190q0 60 -25 117h58q22 -54 22 -115q0 -153 -168 -235z" />
<glyph unicode="&#x163;" horiz-adv-x="741" d="M59 922v51h172l7 309h49v-309h385v-51h-385v-684q0 -104 60 -155.5t157 -51.5q102 0 188 47v-58q-85 -43 -188 -43q-122 0 -197.5 66t-75.5 195v684h-172zM324 -432q135 62 135 190q0 60 -25 117h58q22 -54 22 -115q0 -153 -168 -235z" />
<glyph unicode="&#x164;" horiz-adv-x="1361" d="M55 1327v57h1252v-57h-594v-1327h-64v1327h-594zM424 1833h55l201 -248l201 248h55l-231 -309h-50z" />
<glyph unicode="&#x165;" horiz-adv-x="741" d="M59 922v51h172l7 309h49v-309h385v-51h-385v-684q0 -104 60 -155.5t157 -51.5q102 0 188 47v-58q-85 -43 -188 -43q-122 0 -197.5 66t-75.5 195v684h-172zM438 1122q92 103 92 228q0 70 -28 127h55q25 -64 25 -125q0 -137 -103 -258z" />
<glyph unicode="&#x16a;" horiz-adv-x="1632" d="M248 471v913h63v-913q0 -108 41 -193t112 -137t160.5 -79t192.5 -27q142 0 255.5 48t183 148.5t69.5 239.5v913h59v-913q0 -98 -30.5 -179.5t-83 -139t-124.5 -97.5t-155 -59t-174 -19q-114 0 -215 31t-181 90t-126.5 155.5t-46.5 217.5zM545 1649v49h540v-49h-540z" />
<glyph unicode="&#x16b;" horiz-adv-x="1306" d="M209 371v602h55v-602q0 -340 352 -340q115 0 222 53.5t182 130.5v758h55v-973h-55v150q-77 -71 -181.5 -122t-222.5 -51q-192 0 -299.5 96t-107.5 298zM371 1274v49h540v-49h-540z" />
<glyph unicode="&#x16c;" horiz-adv-x="1632" d="M248 471v913h63v-913q0 -108 41 -193t112 -137t160.5 -79t192.5 -27q142 0 255.5 48t183 148.5t69.5 239.5v913h59v-913q0 -98 -30.5 -179.5t-83 -139t-124.5 -97.5t-155 -59t-174 -19q-114 0 -215 31t-181 90t-126.5 155.5t-46.5 217.5zM522 1812h56q6 -95 68 -152.5 t169 -57.5t169.5 57.5t68.5 152.5h55q-5 -116 -83.5 -191t-209.5 -75t-209.5 75t-83.5 191z" />
<glyph unicode="&#x16d;" horiz-adv-x="1306" d="M209 371v602h55v-602q0 -340 352 -340q115 0 222 53.5t182 130.5v758h55v-973h-55v150q-77 -71 -181.5 -122t-222.5 -51q-192 0 -299.5 96t-107.5 298zM348 1436h55q6 -95 68.5 -153t169.5 -58t169.5 58t68.5 153h55q-5 -116 -83.5 -191.5t-209.5 -75.5t-209.5 75.5 t-83.5 191.5z" />
<glyph unicode="&#x16e;" horiz-adv-x="1632" d="M248 471v913h63v-913q0 -108 41 -193t112 -137t160.5 -79t192.5 -27q142 0 255.5 48t183 148.5t69.5 239.5v913h59v-913q0 -98 -30.5 -179.5t-83 -139t-124.5 -97.5t-155 -59t-174 -19q-114 0 -215 31t-181 90t-126.5 155.5t-46.5 217.5zM588 1677q0 82 68 130t159 48 t159 -48t68 -130q0 -85 -68 -133.5t-159 -48.5t-159 48.5t-68 133.5zM645 1675q0 -60 48.5 -94.5t121.5 -34.5t121.5 34.5t48.5 94.5t-48.5 94.5t-121.5 34.5t-121.5 -34.5t-48.5 -94.5z" />
<glyph unicode="&#x16f;" horiz-adv-x="1306" d="M209 371v602h55v-602q0 -340 352 -340q115 0 222 53.5t182 130.5v758h55v-973h-55v150q-77 -71 -181.5 -122t-222.5 -51q-192 0 -299.5 96t-107.5 298zM414 1298q0 82 68 130.5t159 48.5t159 -48.5t68 -130.5q0 -85 -68 -133.5t-159 -48.5t-159 48.5t-68 133.5zM471 1296 q0 -60 48.5 -94.5t121.5 -34.5t121.5 34.5t48.5 94.5t-48.5 94.5t-121.5 34.5t-121.5 -34.5t-48.5 -94.5z" />
<glyph unicode="&#x170;" horiz-adv-x="1632" d="M248 471v913h63v-913q0 -108 41 -193t112 -137t160.5 -79t192.5 -27q142 0 255.5 48t183 148.5t69.5 239.5v913h59v-913q0 -98 -30.5 -179.5t-83 -139t-124.5 -97.5t-155 -59t-174 -19q-114 0 -215 31t-181 90t-126.5 155.5t-46.5 217.5zM631 1524l205 309h71l-221 -309 h-55zM881 1524l225 309h72l-242 -309h-55z" />
<glyph unicode="&#x171;" horiz-adv-x="1306" d="M209 371v602h55v-602q0 -340 352 -340q115 0 222 53.5t182 130.5v758h55v-973h-55v150q-77 -71 -181.5 -122t-222.5 -51q-192 0 -299.5 96t-107.5 298zM479 1145l205 309h72l-221 -309h-56zM729 1145l225 309h72l-242 -309h-55z" />
<glyph unicode="&#x172;" horiz-adv-x="1632" d="M248 471v913h63v-913q0 -108 41 -193t112 -137t160.5 -79t192.5 -27q142 0 255.5 48t183 148.5t69.5 239.5v913h59v-913q0 -110 -38 -199t-104.5 -148t-152.5 -94.5t-186 -45.5q-133 -98 -133 -209q0 -56 38 -87.5t101 -31.5q72 0 152 39v-53q-68 -37 -154 -37 q-89 0 -141.5 45t-52.5 127q0 111 112 200h-8q-114 0 -215 31t-181 90t-126.5 155.5t-46.5 217.5z" />
<glyph unicode="&#x173;" horiz-adv-x="1306" d="M209 371v602h55v-604q0 -179 91 -258.5t261 -79.5q115 0 222 53.5t182 130.5v758h55v-973q-160 -107 -160 -225q0 -56 38.5 -87.5t101.5 -31.5q71 0 151 39v-53q-68 -37 -153 -37q-89 0 -142 45t-53 127q0 69 45 127.5t117 95.5v150q-76 -71 -182 -122t-226 -51 q-188 0 -295.5 96.5t-107.5 297.5z" />
<glyph unicode="&#x178;" horiz-adv-x="1290" d="M0 1384h72l575 -759l570 759h73l-612 -823v-561h-64v561zM420 1616v147h59v-147h-59zM811 1616v147h59v-147h-59z" />
<glyph unicode="&#x179;" horiz-adv-x="1411" d="M129 0v57l1088 1270h-1065v57h1142v-57l-1087 -1270h1110v-57h-1188zM653 1524l205 309h72l-221 -309h-56z" />
<glyph unicode="&#x17a;" horiz-adv-x="1069" d="M111 0v49l766 873h-746v51h819v-47l-764 -869h783v-57h-858zM510 1145l205 309h71l-221 -309h-55z" />
<glyph unicode="&#x17b;" horiz-adv-x="1411" d="M129 0v57l1088 1270h-1065v57h1142v-57l-1087 -1270h1110v-57h-1188zM666 1602v147h59v-147h-59z" />
<glyph unicode="&#x17c;" horiz-adv-x="1069" d="M111 0v49l766 873h-746v51h819v-47l-764 -869h783v-57h-858zM506 1237v147h59v-147h-59z" />
<glyph unicode="&#x17d;" horiz-adv-x="1411" d="M129 0v57l1088 1270h-1065v57h1142v-57l-1087 -1270h1110v-57h-1188zM438 1833h56l200 -248l201 248h55l-231 -309h-49z" />
<glyph unicode="&#x17e;" horiz-adv-x="1069" d="M111 0v49l766 873h-746v51h819v-47l-764 -869h783v-57h-858zM293 1454h55l201 -248l201 248h55l-232 -309h-49z" />
<glyph unicode="&#x218;" horiz-adv-x="1345" d="M170 86v66q92 -55 220.5 -86t250.5 -31q72 0 136.5 9.5t126.5 32.5t106.5 58.5t72 91.5t27.5 127q0 63 -26 112.5t-70.5 80.5t-103.5 57t-126 41.5t-137 34.5t-137 36.5t-126 46.5t-103.5 65t-70.5 92t-26 127q0 90 43 161t115 113.5t159.5 64t184.5 21.5q255 0 444 -92 v-60q-195 95 -444 95q-67 0 -129.5 -11t-119 -34.5t-98.5 -58.5t-66.5 -86t-24.5 -113q0 -68 31.5 -119.5t85.5 -83.5t123 -55.5t146 -42t154 -38t146 -48t123 -66.5t85.5 -99t31.5 -141q0 -78 -28.5 -141.5t-78 -106.5t-117.5 -72.5t-145.5 -43t-163.5 -13.5 q-125 0 -256 29.5t-215 79.5zM565 -432q135 62 135 190q0 62 -24 117h57q23 -56 23 -115q0 -153 -168 -235z" />
<glyph unicode="&#x219;" horiz-adv-x="1101" d="M145 84v57q186 -110 406 -110q164 0 257 55.5t93 159.5q0 65 -41.5 108.5t-107.5 65t-146 36.5t-160.5 31.5t-146.5 41.5t-107.5 75t-41.5 123q0 123 114 195.5t307 72.5q110 0 211 -24t160 -58v-57q-64 38 -166.5 62t-204.5 24q-162 0 -263 -56t-101 -159 q0 -62 41.5 -103t107.5 -61t146 -34t160.5 -31t146.5 -42.5t107.5 -77.5t41.5 -128q0 -130 -112.5 -201.5t-296.5 -71.5q-225 0 -404 107zM446 -432q136 62 136 190q0 60 -25 117h57q23 -56 23 -115q0 -153 -168 -235z" />
<glyph unicode="&#x2c6;" horiz-adv-x="1228" d="M358 1145l232 309h49l231 -309h-55l-201 248l-200 -248h-56z" />
<glyph unicode="&#x2da;" horiz-adv-x="1228" d="M387 1300q0 82 68 130.5t159 48.5t159.5 -48.5t68.5 -130.5q0 -84 -68.5 -133t-159.5 -49t-159 48.5t-68 133.5zM444 1298q0 -60 48.5 -94.5t121.5 -34.5t121.5 34.5t48.5 94.5t-48.5 94.5t-121.5 34.5t-121.5 -34.5t-48.5 -94.5z" />
<glyph unicode="&#x2dc;" horiz-adv-x="1228" d="M317 1202q3 81 43.5 141t112.5 60q34 0 76.5 -23t75 -51t69.5 -51t62 -23q49 0 73.5 43t26.5 101h55q-3 -80 -43.5 -140.5t-111.5 -60.5q-34 0 -75.5 23.5t-74 51.5t-70 51.5t-63.5 23.5q-50 0 -74 -43.5t-26 -102.5h-56z" />
<glyph unicode="&#x386;" horiz-adv-x="1384" d="M0 0l664 1384h61l659 -1384h-67l-207 432h-838l-204 -432h-68zM203 1075l149 309h66l-160 -309h-55zM301 489h782l-391 820z" />
<glyph unicode="&#x388;" horiz-adv-x="1392" d="M0 1075l150 309h65l-160 -309h-55zM330 303v1081h858v-57h-795v-571h740v-58h-740v-395q0 -126 69.5 -186t231.5 -60h539v-57h-539q-194 0 -279 77t-85 226z" />
<glyph unicode="&#x389;" horiz-adv-x="1912" d="M0 1075l150 309h65l-160 -309h-55zM330 0v1384h63v-630h1168v630h63v-1384h-63v696h-1168v-696h-63z" />
<glyph unicode="&#x38a;" horiz-adv-x="681" d="M0 1075l150 309h65l-160 -309h-55zM330 0v1384h63v-1384h-63z" />
<glyph unicode="&#x38c;" horiz-adv-x="1978" d="M0 1075l150 309h65l-160 -309h-55zM168 692q0 159 59 292t165 226t259.5 145t337.5 52t337.5 -52t259.5 -145t165 -226t59 -292t-59 -292t-165 -226t-259.5 -145t-337.5 -52t-337.5 52t-259.5 145t-165 226t-59 292zM231 692q0 -297 207 -477t551 -180t551 180t207 477 t-207 477.5t-551 180.5t-551 -180.5t-207 -477.5z" />
<glyph unicode="&#x38e;" horiz-adv-x="1542" d="M0 1075l150 309h65l-160 -309h-55zM252 1384h72l575 -759l569 759h74l-612 -823v-561h-64v561z" />
<glyph unicode="&#x38f;" horiz-adv-x="1978" d="M37 1075l149 309h66l-160 -309h-55zM137 0v57h510q-78 38 -144 82t-129.5 104.5t-107.5 129t-71 156.5t-27 186q0 209 101.5 366t287.5 241.5t432 84.5t432 -84.5t287.5 -241.5t101.5 -366q0 -98 -27 -186t-71 -156.5t-107.5 -129t-129.5 -104.5t-144 -82h510v-57h-639 v49q102 51 176.5 95.5t148 106t119 126.5t73.5 151.5t28 186.5q0 294 -205.5 464.5t-552.5 170.5t-552.5 -170.5t-205.5 -464.5q0 -100 28 -186.5t73.5 -151.5t119 -126.5t148 -106t176.5 -95.5v-49h-639z" />
<glyph unicode="&#x390;" horiz-adv-x="565" d="M-25 1237v147h60v-147h-60zM104 1145l205 309h72l-221 -309h-56zM213 156v817h55v-817q0 -60 34.5 -92.5t94.5 -32.5q74 0 144 37v-58q-64 -33 -144 -33q-83 0 -133.5 46.5t-50.5 132.5zM449 1237v147h59v-147h-59z" />
<glyph unicode="&#x391;" horiz-adv-x="1384" d="M0 0l664 1384h61l659 -1384h-67l-207 432h-838l-204 -432h-68zM301 489h782l-391 820z" />
<glyph unicode="&#x392;" horiz-adv-x="1392" d="M289 0v1384h362q285 0 423 -94t138 -260q0 -74 -28 -133.5t-75.5 -97.5t-102.5 -61t-117 -33q74 -10 138.5 -35.5t116.5 -66.5t81.5 -101.5t29.5 -134.5q0 -174 -156.5 -270.5t-447.5 -96.5h-362zM352 57h299q261 0 401 81t140 229t-139.5 228.5t-401.5 80.5h-299v-619z M352 733h299q498 0 498 297t-498 297h-299v-594z" />
<glyph unicode="&#x393;" horiz-adv-x="1175" d="M289 0v1384h831v-57h-768v-1327h-63z" />
<glyph unicode="&#x394;" horiz-adv-x="1384" d="M25 0v51l639 1333h61l635 -1333v-51h-1335zM94 57h1196l-598 1252z" />
<glyph unicode="&#x395;" horiz-adv-x="1331" d="M268 303v1081h858v-57h-794v-571h739v-58h-739v-395q0 -126 69.5 -186t231.5 -60h538v-57h-538q-194 0 -279.5 77t-85.5 226z" />
<glyph unicode="&#x396;" horiz-adv-x="1411" d="M129 0v57l1088 1270h-1065v57h1142v-57l-1087 -1270h1110v-57h-1188z" />
<glyph unicode="&#x397;" horiz-adv-x="1871" d="M289 0v1384h63v-630h1168v630h63v-1384h-63v696h-1168v-696h-63z" />
<glyph unicode="&#x398;" horiz-adv-x="1978" d="M168 692q0 159 59 292t165 226t259.5 145t337.5 52t337.5 -52t259.5 -145t165 -226t59 -292t-59 -292t-165 -226t-259.5 -145t-337.5 -52t-337.5 52t-259.5 145t-165 226t-59 292zM231 692q0 -297 207 -477t551 -180t551 180t207 477t-207 477.5t-551 180.5t-551 -180.5 t-207 -477.5zM559 696v58h858v-58h-858z" />
<glyph unicode="&#x399;" horiz-adv-x="641" d="M289 0v1384h63v-1384h-63z" />
<glyph unicode="&#x39a;" horiz-adv-x="1343" d="M289 0v1384h63v-639l877 639h90l-905 -665l919 -719h-92l-889 690v-690h-63z" />
<glyph unicode="&#x39b;" horiz-adv-x="1384" d="M0 0l664 1384h61l659 -1384h-67l-625 1309l-624 -1309h-68z" />
<glyph unicode="&#x39c;" horiz-adv-x="2248" d="M289 0v1384h84l751 -1052l752 1052h84v-1384h-64v1307l-739 -1039h-65l-740 1039v-1307h-63z" />
<glyph unicode="&#x39d;" horiz-adv-x="1863" d="M289 0v1384h80l1142 -1314v1314h64v-1384h-80l-1143 1309v-1309h-63z" />
<glyph unicode="&#x39e;" horiz-adv-x="1495" d="M154 0v57h1187v-57h-1187zM176 1327v57h1143v-57h-1143zM258 696v58h979v-58h-979z" />
<glyph unicode="&#x39f;" horiz-adv-x="1978" d="M168 692q0 159 59 292t165 226t259.5 145t337.5 52t337.5 -52t259.5 -145t165 -226t59 -292t-59 -292t-165 -226t-259.5 -145t-337.5 -52t-337.5 52t-259.5 145t-165 226t-59 292zM231 692q0 -297 207 -477t551 -180t551 180t207 477t-207 477.5t-551 180.5t-551 -180.5 t-207 -477.5z" />
<glyph unicode="&#x3a0;" horiz-adv-x="1789" d="M289 0v1384h1212v-1384h-63v1327h-1086v-1327h-63z" />
<glyph unicode="&#x3a1;" horiz-adv-x="1406" d="M289 0v1384h413q274 0 419 -108t145 -297t-145 -297.5t-419 -108.5h-350v-573h-63zM352 631h350q240 0 370 91.5t130 256.5t-130 256.5t-370 91.5h-350v-696z" />
<glyph unicode="&#x3a3;" horiz-adv-x="1392" d="M168 0v57l631 637l-631 633v57h1053v-57h-971l629 -633l-629 -637h991v-57h-1073z" />
<glyph unicode="&#x3a4;" horiz-adv-x="1361" d="M55 1327v57h1252v-57h-594v-1327h-64v1327h-594z" />
<glyph unicode="&#x3a5;" horiz-adv-x="1290" d="M0 1384h72l575 -759l570 759h73l-612 -823v-561h-64v561z" />
<glyph unicode="&#x3a6;" horiz-adv-x="1945" d="M154 692q0 267 215.5 434t572.5 174v154h59v-154q357 -6 574 -173.5t217 -434.5q0 -177 -98 -314t-277.5 -213.5t-415.5 -80.5v-154h-59v154q-236 4 -415 81t-276 213.5t-97 313.5zM217 692q0 -246 197.5 -395.5t527.5 -155.5v1102q-330 -6 -527.5 -155.5t-197.5 -395.5z M1001 141q331 6 529.5 155t198.5 396q0 245 -198.5 395t-529.5 156v-1102z" />
<glyph unicode="&#x3a7;" horiz-adv-x="1398" d="M41 0l616 696l-606 688h82l565 -641l568 641h82l-609 -686l619 -698h-84l-576 651l-573 -651h-84z" />
<glyph unicode="&#x3a8;" horiz-adv-x="1710" d="M205 965v419h63v-419q0 -104 44.5 -187t122 -135.5t176 -81t212.5 -31.5v854h64v-854q116 3 215.5 32.5t176 83t120 135.5t43.5 184v419h63v-419q0 -120 -50 -214.5t-136.5 -153.5t-196 -91t-235.5 -35v-471h-64v471q-126 4 -235.5 36t-196 90.5t-136.5 153t-50 214.5z " />
<glyph unicode="&#x3a9;" horiz-adv-x="1978" d="M137 0v57h510q-78 38 -144 82t-129.5 104.5t-107.5 129t-71 156.5t-27 186q0 209 101.5 366t287.5 241.5t432 84.5t432 -84.5t287.5 -241.5t101.5 -366q0 -98 -27 -186t-71 -156.5t-107.5 -129t-129.5 -104.5t-144 -82h510v-57h-639v49q102 51 176.5 95.5t148 106 t119 126.5t73.5 151.5t28 186.5q0 294 -205.5 464.5t-552.5 170.5t-552.5 -170.5t-205.5 -464.5q0 -100 28 -186.5t73.5 -151.5t119 -126.5t148 -106t176.5 -95.5v-49h-639z" />
<glyph unicode="&#x3aa;" horiz-adv-x="641" d="M96 1649v147h60v-147h-60zM289 0v1384h63v-1384h-63zM487 1649v147h60v-147h-60z" />
<glyph unicode="&#x3ab;" horiz-adv-x="1290" d="M0 1384h72l575 -759l570 759h73l-612 -823v-561h-64v561zM420 1616v147h59v-147h-59zM811 1616v147h59v-147h-59z" />
<glyph unicode="&#x3ac;" horiz-adv-x="1402" d="M133 487q0 232 138 370t356 138q173 0 296 -94t156 -235l4 307h54l-21 -817q-1 -60 34 -92.5t95 -32.5q45 0 76 8v-53q-37 -9 -76 -9q-84 0 -133 45.5t-49 133.5v96q-45 -123 -156 -199t-260 -76q-109 0 -201 31.5t-162.5 92.5t-110.5 160t-40 226zM190 487 q0 -119 37 -209.5t102 -143t144 -78t172 -25.5q189 0 303.5 124.5t114.5 331.5v25q-7 192 -130 311t-306 119q-192 0 -314.5 -123t-122.5 -332zM602 1145l205 309h72l-222 -309h-55z" />
<glyph unicode="&#x3ad;" horiz-adv-x="1171" d="M152 264q0 107 79 172.5t185 79.5q-48 8 -88.5 23.5t-76.5 41t-56.5 66.5t-20.5 94q0 121 127 187.5t336 66.5q90 0 192 -18t179 -51v-60q-71 35 -175 55.5t-196 20.5q-193 0 -299.5 -53t-106.5 -148q0 -66 52 -112t138.5 -67t199.5 -21h208v-54h-215q-189 0 -297 -59 t-108 -162q0 -114 109.5 -174.5t297.5 -60.5q99 0 206 23.5t184 64.5v-62q-81 -37 -188 -58.5t-202 -21.5q-210 0 -337 73t-127 214zM549 1145l205 309h71l-221 -309h-55z" />
<glyph unicode="&#x3ae;" horiz-adv-x="1341" d="M231 0v973h56v-121q216 143 428 143q183 0 297 -90t114 -262v-1032h-55v1032q0 142 -96.5 220.5t-259.5 78.5q-212 0 -428 -154v-788h-56zM643 1145l205 309h72l-222 -309h-55z" />
<glyph unicode="&#x3af;" horiz-adv-x="565" d="M213 156v817h55v-817q0 -60 34.5 -92.5t94.5 -32.5q74 0 144 37v-58q-64 -33 -144 -33q-83 0 -133.5 46.5t-50.5 132.5zM215 1145l205 309h72l-222 -309h-55z" />
<glyph unicode="&#x3b0;" horiz-adv-x="1261" d="M184 428v545h56v-545q0 -174 105.5 -285.5t295.5 -111.5q101 0 181.5 36.5t130 99t75 141.5t25.5 167q0 150 -65 278.5t-185 219.5h71q105 -83 169.5 -214.5t64.5 -283.5q0 -98 -29 -186t-84 -158.5t-146 -112t-206 -41.5q-113 0 -201.5 34.5t-144.5 96t-84.5 142.5 t-28.5 178zM346 1237v147h60v-147h-60zM475 1145l205 309h72l-222 -309h-55zM819 1237v147h60v-147h-60z" />
<glyph unicode="&#x3b1;" horiz-adv-x="1402" d="M133 487q0 232 138 370t356 138q173 0 296 -94t156 -235l4 307h54l-21 -817q-1 -60 34 -92.5t95 -32.5q45 0 76 8v-53q-37 -9 -76 -9q-84 0 -133 45.5t-49 133.5v96q-45 -123 -156 -199t-260 -76q-109 0 -201 31.5t-162.5 92.5t-110.5 160t-40 226zM190 487 q0 -119 37 -209.5t102 -143t144 -78t172 -25.5q189 0 303.5 124.5t114.5 331.5v25q-7 192 -130 311t-306 119q-192 0 -314.5 -123t-122.5 -332z" />
<glyph unicode="&#x3b2;" horiz-adv-x="1318" d="M231 -389v1479q0 183 124 285t319 102q193 0 318.5 -98.5t125.5 -268.5q0 -288 -311 -371q44 -4 90.5 -18t97 -44t89.5 -72t64.5 -107.5t25.5 -143.5q0 -77 -27 -141t-72 -107t-106 -72.5t-128 -43t-139 -13.5q-119 0 -230.5 42t-184.5 106v-514h-56zM287 195 q60 -65 176 -114.5t239 -49.5q81 0 152.5 18.5t131.5 56t95 101.5t35 147q0 174 -129.5 264.5t-353.5 90.5h-43v53h37q188 0 311 91.5t123 256.5q0 99 -54 171.5t-140 107t-193 34.5t-193 -36t-140 -112.5t-54 -184.5v-895z" />
<glyph unicode="&#x3b3;" horiz-adv-x="1060" d="M20 973h60l450 -899q165 239 276.5 462.5t145.5 436.5h54q-64 -414 -453 -953v-409h-55v409z" />
<glyph unicode="&#x3b4;" horiz-adv-x="1417" d="M133 465q0 98 38 183t106.5 148t155.5 108t192 73q-106 45 -162.5 104t-56.5 154q0 110 96 176t256 66q157 0 284 -68v-57q-118 71 -284 71q-147 0 -223 -50.5t-76 -137.5q0 -55 28 -98t76 -72t110 -53.5t130.5 -48.5t136.5 -51t130 -66t110 -88.5t76 -124.5t28 -168 q0 -146 -73.5 -257.5t-204 -171t-297.5 -59.5t-297.5 59.5t-204.5 171t-74 257.5zM190 465q0 -198 143.5 -316t375.5 -118t375 118t143 316q0 48 -9 91t-22.5 76.5t-38 64.5t-47 53.5t-58 45.5t-63 37.5t-70.5 32.5t-71 28.5t-74.5 27t-71.5 26.5q-105 -22 -196 -63.5 t-162.5 -100.5t-112.5 -141.5t-41 -177.5z" />
<glyph unicode="&#x3b5;" horiz-adv-x="1171" d="M152 264q0 107 79 172.5t185 79.5q-48 8 -88.5 23.5t-76.5 41t-56.5 66.5t-20.5 94q0 121 127 187.5t336 66.5q90 0 192 -18t179 -51v-60q-71 35 -175 55.5t-196 20.5q-193 0 -299.5 -53t-106.5 -148q0 -66 52 -112t138.5 -67t199.5 -21h208v-54h-215q-189 0 -297 -59 t-108 -162q0 -114 109.5 -174.5t297.5 -60.5q99 0 206 23.5t184 64.5v-62q-81 -37 -188 -58.5t-202 -21.5q-210 0 -337 73t-127 214z" />
<glyph unicode="&#x3b6;" horiz-adv-x="966" d="M133 485q0 117 36 221.5t121.5 218t236.5 233.5t372 249h-627v47h734v-43q-239 -138 -401.5 -262t-251.5 -237t-126 -214t-37 -213q0 -163 94.5 -270t270.5 -149q166 -39 283 -62q80 -17 115.5 -53.5t35.5 -95.5q0 -44 -24 -92t-50.5 -79t-70.5 -77l-39 35 q127 119 127 208q0 41 -24 65.5t-83 37.5q-25 5 -86.5 17.5t-111 23t-90.5 20.5q-193 46 -298.5 167t-105.5 304z" />
<glyph unicode="&#x3b7;" horiz-adv-x="1341" d="M231 0v973h56v-121q216 143 428 143q183 0 297 -90t114 -262v-1032h-55v1032q0 142 -96.5 220.5t-259.5 78.5q-212 0 -428 -154v-788h-56z" />
<glyph unicode="&#x3b8;" horiz-adv-x="1359" d="M164 727q0 370 138 560t378 190t378 -190t138 -560t-138 -560t-378 -190t-378 190t-138 560zM221 700q0 -150 27.5 -271t82 -210.5t143.5 -138.5t206 -49t205.5 49t143 139t82 210.5t28.5 270.5h-918zM221 752h918q-1 150 -28.5 271t-82 211.5t-143 139.5t-205.5 49 q-118 0 -207 -49t-143.5 -139.5t-81.5 -211.5t-27 -271z" />
<glyph unicode="&#x3b9;" horiz-adv-x="565" d="M213 156v817h55v-817q0 -60 34.5 -92.5t94.5 -32.5q74 0 144 37v-58q-64 -33 -144 -33q-83 0 -133.5 46.5t-50.5 132.5z" />
<glyph unicode="&#x3ba;" horiz-adv-x="1095" d="M231 0v973h56v-422l682 422h96l-723 -451l741 -522h-86l-710 496v-496h-56z" />
<glyph unicode="&#x3bb;" horiz-adv-x="1060" d="M10 0l484 993q-90 180 -139 248q-104 148 -243 175q-31 6 -65 7l12 54q187 -10 315 -171q63 -79 154 -259q1 -3 11 -23l512 -1024h-66l-461 936l-454 -936h-60z" />
<glyph unicode="&#x3bc;" horiz-adv-x="1329" d="M231 -389v1362h56v-604q0 -338 352 -338q115 0 221.5 53.5t181.5 130.5v758h56v-973h-56v150q-77 -71 -181 -122t-224 -51q-261 0 -350 170v-536h-56z" />
<glyph unicode="&#x3bd;" horiz-adv-x="1060" d="M10 973h60l460 -920q373 536 424 920h54q-54 -417 -455 -973h-55z" />
<glyph unicode="&#x3be;" horiz-adv-x="995" d="M133 395q0 79 27.5 144t66.5 104t92.5 68t95 41.5t83.5 19.5q-48 10 -98.5 36t-97 66.5t-76 102t-29.5 131.5q0 95 38 167t106 115.5t156 65t193 21.5q190 0 326 -68v-59q-62 35 -149.5 54t-176.5 19q-206 0 -321 -80.5t-115 -234.5q0 -91 60 -164t158 -112t214 -39h125 v-52h-125q-71 0 -137.5 -9.5t-133 -34.5t-115.5 -63t-79.5 -99.5t-30.5 -139.5q0 -118 88 -211t263 -131q63 -14 181 -35.5t126 -23.5q80 -17 115.5 -51.5t35.5 -92.5q0 -44 -24.5 -91.5t-49 -75t-71.5 -76.5l-39 35q127 119 127 204q0 41 -23 63.5t-83 35.5q-30 6 -146 26 t-168 33q-191 46 -290 145.5t-99 245.5z" />
<glyph unicode="&#x3bf;" horiz-adv-x="1417" d="M133 485q0 223 162 366.5t414 143.5t413.5 -143.5t161.5 -366.5t-161.5 -365.5t-413.5 -142.5t-414 142.5t-162 365.5zM190 485q0 -200 144.5 -327t374.5 -127t374 127t144 327t-144.5 328.5t-373.5 128.5t-374 -128.5t-145 -328.5z" />
<glyph unicode="&#x3c0;" horiz-adv-x="1325" d="M51 922v51h1174v-51h-250v-766q0 -60 34.5 -92.5t94.5 -32.5q73 0 143 37v-58q-64 -33 -143 -33q-83 0 -133.5 46.5t-50.5 132.5v766h-564v-922h-55v922h-250z" />
<glyph unicode="&#x3c1;" horiz-adv-x="1300" d="M172 -389v876q0 236 131 372t354 136q225 0 362.5 -137t137.5 -371q0 -127 -41 -226t-112.5 -160t-164.5 -92.5t-202 -31.5q-226 0 -410 113v-479h-55zM227 150q101 -62 194 -90.5t218 -28.5q93 0 173 25.5t146 78t104 143t38 209.5q0 211 -125 333t-318 122 q-195 0 -312.5 -120.5t-117.5 -334.5v-337z" />
<glyph unicode="&#x3c2;" horiz-adv-x="1105" d="M133 485q0 223 162 366.5t414 143.5q173 0 305 -69v-62q-134 78 -305 78q-229 0 -374 -128.5t-145 -328.5q0 -164 94 -271.5t271 -150.5q145 -33 246 -51q149 -24 149 -143q0 -113 -145 -262l-39 35q52 49 89.5 109.5t37.5 113.5q0 41 -23 64t-77 32q-166 30 -256 53 q-194 50 -299 169.5t-105 301.5z" />
<glyph unicode="&#x3c3;" horiz-adv-x="1433" d="M133 475q0 222 161.5 360t414.5 138h665v-51h-407q148 -51 232.5 -171t84.5 -276q0 -222 -161 -360t-414 -138t-414.5 138t-161.5 360zM190 475q0 -199 144 -321.5t375 -122.5t374.5 122.5t143.5 321.5t-144 323t-374 124q-231 0 -375 -124t-144 -323z" />
<glyph unicode="&#x3c4;" horiz-adv-x="968" d="M20 922v51h908v-51h-426v-766q0 -60 34.5 -92.5t94.5 -32.5q73 0 143 37v-58q-64 -33 -143 -33q-83 0 -134 46.5t-51 132.5v766h-426z" />
<glyph unicode="&#x3c5;" horiz-adv-x="1261" d="M184 428v545h56v-545q0 -174 105.5 -285.5t295.5 -111.5q101 0 181.5 36.5t130 99t75 141.5t25.5 167q0 150 -65 278.5t-185 219.5h71q105 -83 169.5 -214.5t64.5 -283.5q0 -98 -29 -186t-84 -158.5t-146 -112t-206 -41.5q-113 0 -201.5 34.5t-144.5 96t-84.5 142.5 t-28.5 178z" />
<glyph unicode="&#x3c6;" horiz-adv-x="1640" d="M133 500q0 153 78 279t197 194h88q-140 -77 -223 -197t-83 -276q0 -208 167 -335.5t436 -133.5v514q0 224 88.5 337t255.5 113q165 0 267.5 -121t102.5 -339q0 -241 -181.5 -396.5t-477.5 -161.5v-366h-55v366q-294 6 -477 149t-183 374zM848 31q273 4 437.5 144 t164.5 360q0 196 -87 301.5t-224 105.5q-150 0 -220.5 -99t-70.5 -300v-512z" />
<glyph unicode="&#x3c7;" horiz-adv-x="942" d="M-63 -389l505 733l-428 629h58l399 -586l401 586h58l-428 -629l506 -733h-64l-473 688l-471 -688h-63z" />
<glyph unicode="&#x3c8;" horiz-adv-x="1609" d="M158 539q0 225 135 434h57q-135 -219 -135 -434q0 -103 34 -191.5t101 -158t177 -111.5t253 -47v1251h49v-1251q143 5 253 47t177.5 111.5t101.5 158t34 191.5q0 215 -135 434h57q135 -209 135 -434q0 -113 -38 -210.5t-113 -174.5t-196 -124t-276 -53v-366h-49v366 q-155 6 -276 53t-195.5 124t-112.5 174.5t-38 210.5z" />
<glyph unicode="&#x3c9;" horiz-adv-x="1925" d="M133 438q0 302 219 535h68q-113 -122 -172.5 -251t-59.5 -284q0 -184 100.5 -295.5t266.5 -111.5q92 0 166 34t120 92t70.5 131t24.5 154v312h53v-312q0 -81 24.5 -154t70.5 -131t120 -92t166 -34q166 0 266.5 111.5t100.5 295.5q0 155 -59.5 284t-172.5 251h68 q219 -233 219 -535q0 -206 -114.5 -333.5t-305.5 -127.5q-70 0 -130 17t-103.5 44.5t-78.5 66.5t-58 79.5t-39 87.5q-16 -47 -39 -87.5t-58.5 -79.5t-79 -66.5t-103.5 -44.5t-130 -17q-191 0 -305.5 127.5t-114.5 333.5z" />
<glyph unicode="&#x3ca;" horiz-adv-x="565" d="M16 1237v147h60v-147h-60zM213 156v817h55v-817q0 -60 34.5 -92.5t94.5 -32.5q74 0 144 37v-58q-64 -33 -144 -33q-83 0 -133.5 46.5t-50.5 132.5zM408 1237v147h59v-147h-59z" />
<glyph unicode="&#x3cb;" horiz-adv-x="1261" d="M184 428v545h56v-545q0 -174 105.5 -285.5t295.5 -111.5q101 0 181.5 36.5t130 99t75 141.5t25.5 167q0 150 -65 278.5t-185 219.5h71q105 -83 169.5 -214.5t64.5 -283.5q0 -98 -29 -186t-84 -158.5t-146 -112t-206 -41.5q-113 0 -201.5 34.5t-144.5 96t-84.5 142.5 t-28.5 178zM389 1237v147h60v-147h-60zM780 1237v147h60v-147h-60z" />
<glyph unicode="&#x3cc;" horiz-adv-x="1417" d="M133 485q0 223 162 366.5t414 143.5t413.5 -143.5t161.5 -366.5t-161.5 -365.5t-413.5 -142.5t-414 142.5t-162 365.5zM190 485q0 -200 144.5 -327t374.5 -127t374 127t144 327t-144.5 328.5t-373.5 128.5t-374 -128.5t-145 -328.5zM670 1145l204 309h72l-221 -309h-55z " />
<glyph unicode="&#x3cd;" horiz-adv-x="1261" d="M184 428v545h56v-545q0 -174 105.5 -285.5t295.5 -111.5q101 0 181.5 36.5t130 99t75 141.5t25.5 167q0 150 -65 278.5t-185 219.5h71q105 -83 169.5 -214.5t64.5 -283.5q0 -98 -29 -186t-84 -158.5t-146 -112t-206 -41.5q-113 0 -201.5 34.5t-144.5 96t-84.5 142.5 t-28.5 178zM530 1145l205 309h72l-221 -309h-56z" />
<glyph unicode="&#x3ce;" horiz-adv-x="1925" d="M133 438q0 302 219 535h68q-113 -122 -172.5 -251t-59.5 -284q0 -184 100.5 -295.5t266.5 -111.5q92 0 166 34t120 92t70.5 131t24.5 154v312h53v-312q0 -81 24.5 -154t70.5 -131t120 -92t166 -34q166 0 266.5 111.5t100.5 295.5q0 155 -59.5 284t-172.5 251h68 q219 -233 219 -535q0 -206 -114.5 -333.5t-305.5 -127.5q-70 0 -130 17t-103.5 44.5t-78.5 66.5t-58 79.5t-39 87.5q-16 -47 -39 -87.5t-58.5 -79.5t-79 -66.5t-103.5 -44.5t-130 -17q-191 0 -305.5 127.5t-114.5 333.5zM942 1145l205 309h72l-222 -309h-55z" />
<glyph unicode="&#x3d0;" horiz-adv-x="1308" d="M174 711q0 125 18.5 231t50 183.5t75.5 138.5t93 100.5t105 65.5t108.5 36.5t106.5 10.5q82 0 152 -21t126 -63.5t87.5 -112.5t31.5 -162q0 -70 -21.5 -130t-55 -101.5t-79.5 -74t-91 -51.5t-93 -30q46 -4 95.5 -17.5t105 -43t99 -71t72 -106.5t28.5 -143q0 -91 -36 -164 t-97.5 -117.5t-138.5 -68t-162 -23.5q-40 0 -76 3t-98 19t-112.5 43.5t-107.5 83t-96 130.5t-64.5 192.5t-25.5 262.5zM231 674q3 -125 26.5 -226.5t58 -167t84 -114.5t94 -74t98.5 -39.5t88.5 -18t71.5 -3.5q77 0 143.5 19t119.5 57t84 100.5t31 142.5q0 69 -24 125 t-64.5 94t-97.5 65t-118 41.5t-132 20.5q-172 -24 -358 -24q-21 0 -45 0.5t-41 1t-19 0.5zM231 727q37 -2 107 -2q125 0 228 10.5t199 38t162 71t105 113t39 160.5q0 151 -90 228t-250 77q-66 0 -129.5 -17t-132 -65.5t-119.5 -123t-84.5 -201t-34.5 -289.5z" />
<glyph unicode="&#x3d1;" horiz-adv-x="1308" d="M164 1036q0 185 130 313t329 128q52 0 102 -10t102 -35.5t96.5 -64t84.5 -99.5t68 -138.5t44.5 -184.5t16.5 -234q0 -134 -20 -245t-52.5 -185.5t-78.5 -131.5t-92 -88.5t-98.5 -51.5t-93 -26t-81.5 -6q-206 0 -325.5 117.5t-119.5 308.5q0 47 10 105h54 q-11 -48 -11 -105q0 -163 104.5 -267.5t287.5 -104.5q36 0 69 4t81 20t88 43t82.5 78t71.5 119.5t47.5 172.5t18.5 232q-192 -79 -405 -79q-103 0 -191.5 22.5t-161.5 70t-115 130t-42 192.5zM219 1036q0 -98 37.5 -170.5t103.5 -113t144.5 -59.5t171.5 -19q199 0 405 80 q-5 158 -35 278.5t-74 193t-104.5 118.5t-119.5 62.5t-127 16.5q-175 0 -288.5 -111t-113.5 -276z" />
<glyph unicode="&#x400;" horiz-adv-x="1331" d="M268 303v1081h858v-57h-794v-571h739v-58h-739v-395q0 -126 69.5 -186t231.5 -60h538v-57h-538q-194 0 -279.5 77t-85.5 226zM469 1833h72l204 -309h-55z" />
<glyph unicode="&#x401;" horiz-adv-x="1331" d="M268 303v1081h858v-57h-794v-571h739v-58h-739v-395q0 -126 69.5 -186t231.5 -60h538v-57h-538q-194 0 -279.5 77t-85.5 226zM440 1649v147h60v-147h-60zM831 1649v147h60v-147h-60z" />
<glyph unicode="&#x402;" horiz-adv-x="1724" d="M55 1327v57h1313v-57h-655v-493q169 102 374 102q223 0 358.5 -134.5t135.5 -377.5q0 -153 -41.5 -272t-103 -187t-141.5 -112t-148 -59t-133 -15v59q38 0 78.5 6t91 23.5t96 45t90 73.5t76.5 105t52 144t20 187q0 220 -116.5 337.5t-316.5 117.5q-204 0 -372 -109v-768 h-64v1327h-594z" />
<glyph unicode="&#x403;" horiz-adv-x="1175" d="M289 0v1384h831v-57h-768v-1327h-63zM639 1524l205 309h71l-221 -309h-55z" />
<glyph unicode="&#x404;" horiz-adv-x="1546" d="M168 692q0 159 59 292t165 226t259.5 145t337.5 52q207 0 375 -64v-59q-164 66 -375 66q-324 0 -528.5 -162.5t-227.5 -433.5h934v-58h-936q0 -299 207 -480t551 -181q216 0 393 78v-60q-179 -76 -393 -76q-184 0 -337.5 52t-259.5 145t-165 226t-59 292z" />
<glyph unicode="&#x405;" horiz-adv-x="1345" d="M170 86v66q92 -55 220.5 -86t250.5 -31q72 0 136.5 9.5t126.5 32.5t106.5 58.5t72 91.5t27.5 127q0 63 -26 112.5t-70.5 80.5t-103.5 57t-126 41.5t-137 34.5t-137 36.5t-126 46.5t-103.5 65t-70.5 92t-26 127q0 90 43 161t115 113.5t159.5 64t184.5 21.5q255 0 444 -92 v-60q-195 95 -444 95q-67 0 -129.5 -11t-119 -34.5t-98.5 -58.5t-66.5 -86t-24.5 -113q0 -68 31.5 -119.5t85.5 -83.5t123 -55.5t146 -42t154 -38t146 -48t123 -66.5t85.5 -99t31.5 -141q0 -78 -28.5 -141.5t-78 -106.5t-117.5 -72.5t-145.5 -43t-163.5 -13.5 q-125 0 -256 29.5t-215 79.5z" />
<glyph unicode="&#x406;" horiz-adv-x="641" d="M289 0v1384h63v-1384h-63z" />
<glyph unicode="&#x407;" horiz-adv-x="641" d="M96 1649v147h60v-147h-60zM289 0v1384h63v-1384h-63zM487 1649v147h60v-147h-60z" />
<glyph unicode="&#x408;" horiz-adv-x="837" d="M14 16v60q106 -41 217 -41q281 0 281 280v1069h63v-1069q0 -93 -27.5 -160.5t-77 -105t-108.5 -55t-131 -17.5q-114 0 -217 39z" />
<glyph unicode="&#x409;" horiz-adv-x="2324" d="M41 -23v60q44 12 80 32t63 43.5t48 62.5t34.5 72t23 89t14.5 97.5t7.5 114.5t3 121.5t0.5 135.5v579h973v-573h350q274 0 419 -108t145 -297t-145 -297.5t-419 -108.5h-413v1327h-848v-522q0 -97 -0.5 -147t-3.5 -130t-9 -122.5t-17 -104t-28 -95.5t-42.5 -77 t-58.5 -67.5t-77.5 -47.5t-99.5 -37zM1288 57h350q240 0 370 92t130 257t-130 256.5t-370 91.5h-350v-697z" />
<glyph unicode="&#x40a;" horiz-adv-x="2361" d="M289 0v1384h63v-573h910v573h63v-573h350q274 0 418.5 -108t144.5 -297t-144.5 -297.5t-418.5 -108.5h-413v754h-910v-754h-63zM1325 57h350q240 0 370 92t130 257t-130 256.5t-370 91.5h-350v-697z" />
<glyph unicode="&#x40b;" horiz-adv-x="1759" d="M55 1327v57h1313v-57h-655v-524q82 61 196 96t217 35q181 0 299.5 -91t118.5 -261v-582h-59v582q0 142 -97.5 218.5t-261.5 76.5q-104 0 -218 -37t-195 -105v-735h-64v1327h-594z" />
<glyph unicode="&#x40c;" horiz-adv-x="1343" d="M289 0v1384h63v-782l881 782h86l-653 -579l667 -805h-76l-636 766l-269 -240v-526h-63zM733 1524l205 309h72l-222 -309h-55z" />
<glyph unicode="&#x40d;" horiz-adv-x="1863" d="M289 0v1384h63v-1308l1143 1308h80v-1384h-64v1315l-1142 -1315h-80zM707 1833h71l205 -309h-55z" />
<glyph unicode="&#x40e;" horiz-adv-x="1288" d="M72 1384h67l563 -897l539 897h68l-709 -1179q-70 -117 -145 -172.5t-185 -55.5q-72 0 -151 21v59q76 -22 153 -22q87 0 147 42.5t124 145.5l125 205zM422 1810h55q6 -95 68.5 -153t169.5 -58t169 58t68 153h56q-5 -116 -83.5 -191t-209.5 -75t-209.5 75t-83.5 191z" />
<glyph unicode="&#x40f;" horiz-adv-x="1734" d="M289 0v1384h63v-1327h1030v1327h64v-1384h-547l-4 -287h-55l-4 287h-547z" />
<glyph unicode="&#x410;" horiz-adv-x="1384" d="M0 0l664 1384h61l659 -1384h-67l-207 432h-838l-204 -432h-68zM301 489h782l-391 820z" />
<glyph unicode="&#x411;" horiz-adv-x="1388" d="M289 0v1384h831v-57h-768v-516h350q274 0 419 -108t145 -297t-145 -297.5t-419 -108.5h-413zM352 57h350q240 0 370 92t130 257t-130 256.5t-370 91.5h-350v-697z" />
<glyph unicode="&#x412;" horiz-adv-x="1392" d="M289 0v1384h362q285 0 423 -94t138 -260q0 -74 -28 -133.5t-75.5 -97.5t-102.5 -61t-117 -33q74 -10 138.5 -35.5t116.5 -66.5t81.5 -101.5t29.5 -134.5q0 -174 -156.5 -270.5t-447.5 -96.5h-362zM352 57h299q261 0 401 81t140 229t-139.5 228.5t-401.5 80.5h-299v-619z M352 733h299q498 0 498 297t-498 297h-299v-594z" />
<glyph unicode="&#x413;" horiz-adv-x="1175" d="M289 0v1384h831v-57h-768v-1327h-63z" />
<glyph unicode="&#x414;" horiz-adv-x="1470" d="M27 57h55q51 65 91.5 139.5t66.5 141t44.5 146t27.5 136.5t14 133t5.5 116t0.5 102v413h850v-1327h63v-344h-55l-8 287h-1092l-8 -287h-55v344zM156 57h962v1270h-725v-356q0 -73 -1.5 -123.5t-8 -139.5t-22 -163.5t-40 -161.5t-67 -170t-98.5 -156z" />
<glyph unicode="&#x415;" horiz-adv-x="1331" d="M268 303v1081h858v-57h-794v-571h739v-58h-739v-395q0 -126 69.5 -186t231.5 -60h538v-57h-538q-194 0 -279.5 77t-85.5 226z" />
<glyph unicode="&#x416;" horiz-adv-x="2045" d="M10 0l668 805l-653 579h86l880 -782v782h64v-782l880 782h86l-653 -579l668 -805h-76l-637 766l-268 -240v-526h-64v526l-268 240l-637 -766h-76z" />
<glyph unicode="&#x417;" horiz-adv-x="1251" d="M141 57v64q189 -86 412 -86q218 0 352.5 86.5t134.5 245.5q0 149 -134 229t-394 80h-145v57h145q250 0 378 86t128 232q0 98 -60 167t-155 100.5t-213 31.5q-133 0 -229.5 -28.5t-188.5 -92.5v67q176 111 418 111q136 0 245.5 -39t177.5 -121t68 -196q0 -74 -29.5 -136.5 t-78.5 -104.5t-106.5 -68.5t-118.5 -36.5q75 -11 137.5 -37t112.5 -66.5t78 -100.5t28 -134q0 -188 -149 -289t-402 -101q-103 0 -214.5 21.5t-197.5 58.5z" />
<glyph unicode="&#x418;" horiz-adv-x="1863" d="M289 0v1384h63v-1308l1143 1308h80v-1384h-64v1315l-1142 -1315h-80z" />
<glyph unicode="&#x419;" horiz-adv-x="1863" d="M289 0v1384h63v-1308l1143 1308h80v-1384h-64v1315l-1142 -1315h-80zM639 1812h55q6 -95 68.5 -152.5t169.5 -57.5t169 57.5t68 152.5h56q-5 -116 -83.5 -191t-209.5 -75t-209.5 75t-83.5 191z" />
<glyph unicode="&#x41a;" horiz-adv-x="1343" d="M289 0v1384h63v-782l881 782h86l-653 -579l667 -805h-76l-636 766l-269 -240v-526h-63z" />
<glyph unicode="&#x41b;" horiz-adv-x="1626" d="M41 -23v60q44 12 80 32t63 43.5t48 62.5t34.5 72t23 89t14.5 97.5t7.5 114.5t3 121.5t0.5 135.5v579h1022v-1384h-63v1327h-897v-522q0 -97 -0.5 -147t-3.5 -130t-9 -122.5t-17 -104t-28 -95.5t-42.5 -77t-58.5 -67.5t-77.5 -47.5t-99.5 -37z" />
<glyph unicode="&#x41c;" horiz-adv-x="2248" d="M289 0v1384h84l751 -1052l752 1052h84v-1384h-64v1307l-739 -1039h-65l-740 1039v-1307h-63z" />
<glyph unicode="&#x41d;" horiz-adv-x="1871" d="M289 0v1384h63v-630h1168v630h63v-1384h-63v696h-1168v-696h-63z" />
<glyph unicode="&#x41e;" horiz-adv-x="1978" d="M168 692q0 159 59 292t165 226t259.5 145t337.5 52t337.5 -52t259.5 -145t165 -226t59 -292t-59 -292t-165 -226t-259.5 -145t-337.5 -52t-337.5 52t-259.5 145t-165 226t-59 292zM231 692q0 -297 207 -477t551 -180t551 180t207 477t-207 477.5t-551 180.5t-551 -180.5 t-207 -477.5z" />
<glyph unicode="&#x41f;" horiz-adv-x="1789" d="M289 0v1384h1212v-1384h-63v1327h-1086v-1327h-63z" />
<glyph unicode="&#x420;" horiz-adv-x="1406" d="M289 0v1384h413q274 0 419 -108t145 -297t-145 -297.5t-419 -108.5h-350v-573h-63zM352 631h350q240 0 370 91.5t130 256.5t-130 256.5t-370 91.5h-350v-696z" />
<glyph unicode="&#x421;" horiz-adv-x="1525" d="M168 692q0 159 59 292t165 226t259.5 145t337.5 52q207 0 375 -64v-59q-164 66 -375 66q-344 0 -551 -180.5t-207 -477.5t207 -477t551 -180q216 0 393 78v-60q-179 -76 -393 -76q-184 0 -337.5 52t-259.5 145t-165 226t-59 292z" />
<glyph unicode="&#x422;" horiz-adv-x="1361" d="M55 1327v57h1252v-57h-594v-1327h-64v1327h-594z" />
<glyph unicode="&#x423;" horiz-adv-x="1288" d="M72 1384h67l563 -897l539 897h68l-709 -1179q-70 -117 -145 -172.5t-185 -55.5q-72 0 -151 21v59q76 -22 153 -22q87 0 147 42.5t124 145.5l125 205z" />
<glyph unicode="&#x424;" horiz-adv-x="1945" d="M154 692q0 267 215.5 434t572.5 174v154h59v-154q357 -6 574 -173.5t217 -434.5q0 -177 -98 -314t-277.5 -213.5t-415.5 -80.5v-154h-59v154q-236 4 -415 81t-276 213.5t-97 313.5zM217 692q0 -246 197.5 -395.5t527.5 -155.5v1102q-330 -6 -527.5 -155.5t-197.5 -395.5z M1001 141q331 6 529.5 155t198.5 396q0 245 -198.5 395t-529.5 156v-1102z" />
<glyph unicode="&#x425;" horiz-adv-x="1398" d="M41 0l616 696l-606 688h82l565 -641l568 641h82l-609 -686l619 -698h-84l-576 651l-573 -651h-84z" />
<glyph unicode="&#x426;" horiz-adv-x="1734" d="M289 0v1384h63v-1327h1030v1327h64v-1327h63v-344h-55l-8 287h-1157z" />
<glyph unicode="&#x427;" horiz-adv-x="1558" d="M195 999v385h63v-385q0 -108 38 -192.5t104.5 -137t153.5 -79.5t189 -27q291 0 488 197v624h59v-1384h-59v686q-85 -77 -212 -128.5t-276 -51.5q-114 0 -212 30.5t-173.5 90t-119 155t-43.5 217.5z" />
<glyph unicode="&#x428;" horiz-adv-x="2299" d="M289 0v1384h63v-1327h766v1327h64v-1327h766v1327h63v-1384h-1722z" />
<glyph unicode="&#x429;" horiz-adv-x="2299" d="M289 0v1384h63v-1327h766v1327h64v-1327h766v1327h63v-1327h64v-342h-56l-8 285h-1722z" />
<glyph unicode="&#x42a;" horiz-adv-x="1558" d="M55 1327v57h467v-573h350q274 0 419 -108t145 -297t-145 -297.5t-419 -108.5h-413v1327h-404zM522 57h350q240 0 370 92t130 257t-130 256.5t-370 91.5h-350v-697z" />
<glyph unicode="&#x42b;" horiz-adv-x="2029" d="M289 0v1384h63v-573h350q274 0 419 -108t145 -297t-145 -297.5t-419 -108.5h-413zM352 57h350q240 0 370 92t130 257t-130 256.5t-370 91.5h-350v-697zM1677 0v1384h64v-1384h-64z" />
<glyph unicode="&#x42c;" horiz-adv-x="1388" d="M289 0v1384h63v-573h350q274 0 419 -108t145 -297t-145 -297.5t-419 -108.5h-413zM352 57h350q240 0 370 92t130 257t-130 256.5t-370 91.5h-350v-697z" />
<glyph unicode="&#x42d;" horiz-adv-x="1546" d="M164 53v60q177 -78 393 -78q344 0 551 181t207 480h-936v58h934q-23 271 -227.5 433.5t-528.5 162.5q-211 0 -375 -66v59q168 64 375 64q184 0 337.5 -52t259.5 -145t165 -226t59 -292t-59 -292t-165 -226t-259.5 -145t-337.5 -52q-214 0 -393 76z" />
<glyph unicode="&#x42e;" horiz-adv-x="2545" d="M289 0v1384h63v-630h406q22 296 244 474.5t575 178.5q184 0 337.5 -52t259.5 -145t165 -226t59 -292t-59 -292t-165 -226t-259.5 -145t-337.5 -52q-372 0 -596.5 197.5t-224.5 521.5h-404v-696h-63zM819 692q0 -297 207 -477t551 -180t551 180t207 477t-207 477.5 t-551 180.5t-551 -180.5t-207 -477.5z" />
<glyph unicode="&#x42f;" horiz-adv-x="1437" d="M94 0l561 575q-235 17 -359 124t-124 280q0 189 144.5 297t418.5 108h414v-1384h-64v573h-350l-559 -573h-82zM236 979q0 -165 129.5 -256.5t369.5 -91.5h350v696h-350q-240 0 -369.5 -91.5t-129.5 -256.5z" />
<glyph unicode="&#x430;" d="M133 487q0 126 43.5 224t119.5 159.5t176 93t218 31.5q212 0 428 -92v-903h-55v150q-186 -173 -422 -173q-106 0 -198 33.5t-161.5 96t-109 160.5t-39.5 220zM190 487q0 -111 36 -199.5t99 -143.5t143.5 -84t172.5 -29q128 0 237 53t185 131v651q-191 76 -375 76 q-104 0 -193 -27.5t-158 -81.5t-108 -142.5t-39 -203.5z" />
<glyph unicode="&#x431;" horiz-adv-x="1417" d="M131 541q0 177 28.5 311t85 224.5t127.5 148.5t169 98q80 33 177 57.5t242.5 53t213.5 43.5v-54q-51 -11 -200 -39t-241 -51.5t-172 -56.5q-77 -32 -135.5 -75.5t-108.5 -109.5t-82 -162t-45 -222q68 135 205 211.5t314 76.5q252 0 413.5 -143.5t161.5 -366.5 t-161.5 -365.5t-413.5 -142.5q-265 0 -421.5 150t-156.5 414zM190 485q0 -200 144.5 -327t374.5 -127t374 127t144 327t-144.5 328.5t-373.5 128.5t-374 -128.5t-145 -328.5z" />
<glyph unicode="&#x432;" horiz-adv-x="1290" d="M231 0v973h484q203 0 301 -65.5t98 -184.5q0 -93 -60.5 -151.5t-148.5 -75.5q103 -19 170.5 -79t67.5 -159q0 -123 -111 -190.5t-317 -67.5h-484zM287 51h428q180 0 276 54t96 153q0 102 -96 157.5t-276 55.5h-428v-420zM287 522h428q342 0 342 201q0 199 -342 199h-428 v-400z" />
<glyph unicode="&#x433;" horiz-adv-x="901" d="M231 0v973h650v-51h-594v-922h-56z" />
<glyph unicode="&#x434;" horiz-adv-x="1157" d="M20 51h41q45 32 79 75.5t55.5 100t35.5 112.5t20.5 133.5t8.5 143t2 158.5v199h701v-922h49v-338h-49l-7 287h-880l-6 -287h-50v338zM137 51h770v871h-590v-148q0 -94 -2 -158t-7.5 -141t-17.5 -132t-31.5 -111.5t-50 -101t-71.5 -79.5z" />
<glyph unicode="&#x435;" horiz-adv-x="1282" d="M133 485q0 223 145 366.5t369 143.5q211 0 353 -128.5t159 -331.5v-50h-969q2 -119 42.5 -208.5t109 -142t153 -78t183.5 -25.5q255 0 438 112v-59q-179 -107 -438 -107q-109 0 -205 30t-173 89t-122 159t-45 230zM193 537h909q-19 181 -143 293t-312 112 q-192 0 -315.5 -112.5t-138.5 -292.5z" />
<glyph unicode="&#x436;" horiz-adv-x="1673" d="M12 0l502 565l-477 408h80l692 -592v592h55v-592l692 592h80l-477 -408l502 -565h-72l-471 530l-254 -217v-313h-55v313l-254 217l-471 -530h-72z" />
<glyph unicode="&#x437;" horiz-adv-x="1179" d="M139 866v60q77 33 179 51t192 18q209 0 336 -66.5t127 -187.5q0 -53 -20.5 -94t-56.5 -66.5t-76.5 -41t-88.5 -23.5q106 -14 185 -79.5t79 -172.5q0 -141 -127.5 -214t-337.5 -73q-95 0 -201.5 21.5t-187.5 58.5v62q77 -41 183.5 -64.5t205.5 -23.5q188 0 298 60.5 t110 174.5q0 103 -108.5 162t-297.5 59h-215v54h209q174 0 281.5 50.5t107.5 149.5q0 95 -106 148t-299 53q-92 0 -196 -20.5t-175 -55.5z" />
<glyph unicode="&#x438;" horiz-adv-x="1357" d="M231 0v973h56v-895l784 895h55v-973h-55v893l-784 -893h-56z" />
<glyph unicode="&#x439;" horiz-adv-x="1357" d="M231 0v973h56v-895l784 895h55v-973h-55v893l-784 -893h-56zM385 1436h55q6 -95 68.5 -153t169.5 -58t169 58t68 153h56q-5 -116 -83.5 -191.5t-209.5 -75.5t-209.5 75.5t-83.5 191.5z" />
<glyph unicode="&#x43a;" horiz-adv-x="1095" d="M231 0v973h56v-592l692 592h80l-477 -408l501 -565h-71l-471 530l-254 -217v-313h-56z" />
<glyph unicode="&#x43b;" horiz-adv-x="1224" d="M0 -25l2 54q47 15 83 33.5t63 46.5t45.5 54.5t31 71t19.5 81.5t10.5 101t4.5 114.5t1 136.5v305h733v-973h-55v922h-623v-254q0 -117 -2 -181t-11 -148.5t-29.5 -132t-54.5 -98.5t-88 -82t-130 -51z" />
<glyph unicode="&#x43c;" horiz-adv-x="1665" d="M231 0v973h60l540 -740l543 740h60v-973h-56v887l-520 -709h-51l-520 709v-887h-56z" />
<glyph unicode="&#x43d;" horiz-adv-x="1357" d="M231 0v973h56v-422h784v422h55v-973h-55v500h-784v-500h-56z" />
<glyph unicode="&#x43e;" horiz-adv-x="1417" d="M133 485q0 223 162 366.5t414 143.5t413.5 -143.5t161.5 -366.5t-161.5 -365.5t-413.5 -142.5t-414 142.5t-162 365.5zM190 485q0 -200 144.5 -327t374.5 -127t374 127t144 327t-144.5 328.5t-373.5 128.5t-374 -128.5t-145 -328.5z" />
<glyph unicode="&#x43f;" horiz-adv-x="1357" d="M231 0v973h895v-973h-55v922h-784v-922h-56z" />
<glyph unicode="&#x440;" d="M231 -389v1362h56v-121q216 143 428 143q225 0 363.5 -137t138.5 -371q0 -127 -41 -226t-113 -160t-165 -92.5t-202 -31.5q-225 0 -409 113v-479h-56zM287 150q102 -63 192.5 -91t218.5 -28q93 0 173 25.5t146 78t104 143t38 209.5q0 209 -125.5 332t-318.5 123 q-212 0 -428 -154v-638z" />
<glyph unicode="&#x441;" horiz-adv-x="1165" d="M133 485q0 223 162 366.5t414 143.5q169 0 301 -69v-62q-134 78 -301 78q-229 0 -374 -128.5t-145 -328.5t144.5 -327t374.5 -127q180 0 313 88v-64q-138 -78 -313 -78q-252 0 -414 142.5t-162 365.5z" />
<glyph unicode="&#x442;" horiz-adv-x="948" d="M20 922v51h908v-51h-426v-922h-56v922h-426z" />
<glyph unicode="&#x443;" horiz-adv-x="1060" d="M10 973h60l454 -907l463 907h64l-496 -967q-84 -164 -124 -220q-86 -123 -213 -171q-43 -17 -93 -27v54q61 14 112 41t86 57t68.5 77.5t54.5 86.5t50 100z" />
<glyph unicode="&#x444;" horiz-adv-x="1644" d="M133 485q0 161 85.5 276t233.5 172.5t345 61.5v389h51v-389q197 -4 344.5 -61.5t233 -172.5t85.5 -276q0 -162 -85.5 -276.5t-232.5 -171t-345 -60.5v-366h-51v366q-198 4 -345 60.5t-233 171t-86 276.5zM190 485q0 -110 44.5 -196t126.5 -141t191.5 -84.5t244.5 -32.5 v911q-180 -4 -314.5 -54.5t-213.5 -153.5t-79 -249zM848 31q181 4 315 53.5t212.5 152t78.5 248.5t-78.5 249t-213 153.5t-314.5 54.5v-911z" />
<glyph unicode="&#x445;" horiz-adv-x="989" d="M16 0l445 489l-434 484h69l398 -445l399 445h72l-437 -484l445 -489h-72l-407 451l-404 -451h-74z" />
<glyph unicode="&#x446;" horiz-adv-x="1255" d="M231 0v973h56v-922h682v922h55v-922h39v-338h-49l-6 287h-777z" />
<glyph unicode="&#x447;" horiz-adv-x="1247" d="M150 698v275h55v-277q0 -338 352 -338q115 0 222 54t182 131v430h55v-973h-55v475q-76 -70 -181 -120t-225 -50q-188 0 -296.5 96t-108.5 297z" />
<glyph unicode="&#x448;" horiz-adv-x="1705" d="M231 0v973h56v-922h538v922h56v-922h538v922h56v-973h-1244z" />
<glyph unicode="&#x449;" horiz-adv-x="1705" d="M231 0v973h56v-922h538v922h56v-922h538v922h56v-922h38v-338h-49l-6 287h-1227z" />
<glyph unicode="&#x44a;" horiz-adv-x="1239" d="M0 922v51h365v-428h385q203 0 315.5 -75t112.5 -200t-112 -197.5t-316 -72.5h-443v922h-307zM365 51h385q178 0 275 59.5t97 159.5q0 101 -97.5 162.5t-274.5 61.5h-385v-443z" />
<glyph unicode="&#x44b;" horiz-adv-x="1648" d="M231 0v973h58v-428h385q203 0 315.5 -75t112.5 -200t-112 -197.5t-316 -72.5h-443zM289 51h385q178 0 275.5 59.5t97.5 159.5q0 101 -98 162.5t-275 61.5h-385v-443zM1362 0v973h55v-973h-55z" />
<glyph unicode="&#x44c;" horiz-adv-x="1163" d="M231 0v973h58v-428h385q203 0 315.5 -75t112.5 -200t-112 -197.5t-316 -72.5h-443zM289 51h385q178 0 275.5 59.5t97.5 159.5q0 101 -98 162.5t-275 61.5h-385v-443z" />
<glyph unicode="&#x44d;" horiz-adv-x="1165" d="M133 57v64q136 -90 324 -90q227 0 371 123.5t147 320.5h-664v53h662q-15 184 -157 299t-359 115q-171 0 -305 -78v62q132 69 305 69q252 0 413.5 -143.5t161.5 -366.5t-161.5 -365.5t-413.5 -142.5q-183 0 -324 80z" />
<glyph unicode="&#x44e;" horiz-adv-x="1939" d="M231 0v973h56v-422h372q25 197 182.5 320.5t389.5 123.5q252 0 413.5 -143.5t161.5 -366.5t-161.5 -365.5t-413.5 -142.5t-414 142.5t-162 365.5v15h-368v-500h-56zM713 485q0 -200 144 -327t374 -127t374 127t144 327t-144.5 328.5t-373.5 128.5t-373.5 -128.5 t-144.5 -328.5z" />
<glyph unicode="&#x44f;" horiz-adv-x="1284" d="M141 702q0 125 112 198t316 73h484v-973h-58v434h-338l-428 -434h-75l430 434h-15q-204 0 -316 71.5t-112 196.5zM197 702q0 -100 97 -158.5t275 -58.5h426v437h-426q-178 0 -275 -60t-97 -160z" />
<glyph unicode="&#x450;" horiz-adv-x="1282" d="M133 485q0 223 145 366.5t369 143.5q211 0 353 -128.5t159 -331.5v-50h-969q2 -119 42.5 -208.5t109 -142t153 -78t183.5 -25.5q255 0 438 112v-59q-179 -107 -438 -107q-109 0 -205 30t-173 89t-122 159t-45 230zM193 537h909q-19 181 -143 293t-312 112 q-192 0 -315.5 -112.5t-138.5 -292.5zM406 1454h71l205 -309h-55z" />
<glyph unicode="&#x451;" horiz-adv-x="1282" d="M133 485q0 223 145 366.5t369 143.5q211 0 353 -128.5t159 -331.5v-50h-969q2 -119 42.5 -208.5t109 -142t153 -78t183.5 -25.5q255 0 438 112v-59q-179 -107 -438 -107q-109 0 -205 30t-173 89t-122 159t-45 230zM193 537h909q-19 181 -143 293t-312 112 q-192 0 -315.5 -112.5t-138.5 -292.5zM416 1237v147h59v-147h-59zM807 1237v147h59v-147h-59z" />
<glyph unicode="&#x452;" horiz-adv-x="1245" d="M47 1210v50h184v194h56v-194h520v-50h-520v-356q213 141 428 141q142 0 235.5 -70.5t134.5 -191t41 -289.5q0 -141 -33.5 -254t-86 -186.5t-128 -127t-150.5 -80.5t-161 -42v58q79 14 144.5 37.5t134.5 71.5t116 114.5t77 171t30 237.5q0 498 -354 498q-212 0 -428 -154 v-788h-56v1210h-184z" />
<glyph unicode="&#x453;" horiz-adv-x="901" d="M231 0v973h650v-51h-594v-922h-56zM492 1145l204 309h72l-221 -309h-55z" />
<glyph unicode="&#x454;" horiz-adv-x="1165" d="M133 485q0 223 162 366.5t414 143.5q173 0 305 -69v-62q-134 78 -305 78q-217 0 -359 -115t-157 -299h661v-53h-664q3 -197 147.5 -320.5t371.5 -123.5q187 0 323 90v-64q-141 -80 -323 -80q-252 0 -414 142.5t-162 365.5z" />
<glyph unicode="&#x455;" horiz-adv-x="1101" d="M145 84v57q186 -110 406 -110q164 0 257 55.5t93 159.5q0 65 -41.5 108.5t-107.5 65t-146 36.5t-160.5 31.5t-146.5 41.5t-107.5 75t-41.5 123q0 123 114 195.5t307 72.5q110 0 211 -24t160 -58v-57q-64 38 -166.5 62t-204.5 24q-162 0 -263 -56t-101 -159 q0 -62 41.5 -103t107.5 -61t146 -34t160.5 -31t146.5 -42.5t107.5 -77.5t41.5 -128q0 -130 -112.5 -201.5t-296.5 -71.5q-225 0 -404 107z" />
<glyph unicode="&#x456;" horiz-adv-x="520" d="M229 1237v147h60v-147h-60zM231 0v973h56v-973h-56z" />
<glyph unicode="&#x457;" horiz-adv-x="520" d="M35 1237v147h59v-147h-59zM231 0v973h56v-973h-56zM426 1237v147h59v-147h-59z" />
<glyph unicode="&#x458;" horiz-adv-x="520" d="M-41 -322q68 -36 143 -36q60 0 94.5 32.5t34.5 92.5v1206h56v-1206q0 -86 -51 -132.5t-134 -46.5q-79 0 -143 33v57zM229 1237v147h60v-147h-60z" />
<glyph unicode="&#x459;" horiz-adv-x="1789" d="M0 -25l2 54q47 15 83 33.5t63 46.5t45.5 54.5t31 71t19.5 81.5t10.5 101t4.5 114.5t1 136.5v305h655v-428h385q203 0 316 -75t113 -200t-112.5 -197.5t-316.5 -72.5h-442v922h-543v-254q0 -117 -2 -181t-11 -148.5t-29.5 -132t-54.5 -98.5t-88 -82t-130 -51zM915 51h385 q178 0 275.5 59.5t97.5 159.5q0 101 -98 162.5t-275 61.5h-385v-443z" />
<glyph unicode="&#x45a;" horiz-adv-x="1814" d="M231 0v973h56v-428h596v428h57v-428h385q203 0 315.5 -75t112.5 -200t-112 -197.5t-316 -72.5h-442v494h-596v-494h-56zM940 51h385q178 0 275.5 59.5t97.5 159.5q0 101 -98 162.5t-275 61.5h-385v-443z" />
<glyph unicode="&#x45b;" horiz-adv-x="1341" d="M47 1210v50h184v194h56v-194h520v-50h-520v-358q216 143 428 143q183 0 297 -90t114 -262v-643h-55v643q0 142 -96.5 220.5t-259.5 78.5q-212 0 -428 -154v-788h-56v1210h-184z" />
<glyph unicode="&#x45c;" horiz-adv-x="1095" d="M231 0v973h56v-592l692 592h80l-477 -408l501 -565h-71l-471 530l-254 -217v-313h-56zM567 1145l205 309h72l-221 -309h-56z" />
<glyph unicode="&#x45d;" horiz-adv-x="1357" d="M231 0v973h56v-895l784 895h55v-973h-55v893l-784 -893h-56zM444 1454h72l205 -309h-55z" />
<glyph unicode="&#x45e;" horiz-adv-x="1060" d="M10 973h60l454 -907l463 907h64l-496 -967q-84 -164 -124 -220q-86 -123 -213 -171q-43 -17 -93 -27v54q61 14 112 41t86 57t68.5 77.5t54.5 86.5t50 100zM238 1436h55q6 -95 68 -153t169 -58t169.5 58t68.5 153h55q-5 -116 -83.5 -191.5t-209.5 -75.5t-209 75.5 t-83 191.5z" />
<glyph unicode="&#x45f;" horiz-adv-x="1255" d="M231 0v973h56v-922h682v922h55v-973h-369l-4 -287h-49l-4 287h-367z" />
<glyph unicode="&#x462;" horiz-adv-x="1388" d="M-6 1163v56h295v235h63v-235h539v-56h-539v-352h350q274 0 419 -108t145 -297t-145 -297.5t-419 -108.5h-413v1163h-295zM352 57h350q240 0 370 92t130 257t-130 256.5t-370 91.5h-350v-697z" />
<glyph unicode="&#x463;" horiz-adv-x="1239" d="M0 922v51h307v409h58v-409h405v-51h-405v-377h385q203 0 315.5 -75t112.5 -200t-112 -197.5t-316 -72.5h-443v922h-307zM365 51h385q178 0 275 59.5t97 159.5q0 101 -97.5 162.5t-274.5 61.5h-385v-443z" />
<glyph unicode="&#x472;" horiz-adv-x="1978" d="M168 692q0 159 59 292t165 226t259.5 145t337.5 52t337.5 -52t259.5 -145t165 -226t59 -292t-59 -292t-165 -226t-259.5 -145t-337.5 -52t-337.5 52t-259.5 145t-165 226t-59 292zM231 696q0 -299 207 -480t551 -181t551 181t207 480h-1516zM233 754h1512 q-23 271 -227.5 433.5t-528.5 162.5t-529 -162.5t-227 -433.5z" />
<glyph unicode="&#x473;" horiz-adv-x="1417" d="M133 485q0 223 162 366.5t414 143.5t413.5 -143.5t161.5 -366.5t-161.5 -365.5t-413.5 -142.5t-414 142.5t-162 365.5zM190 485q0 -200 144.5 -327t374.5 -127t374 127t144 327v15h-1037v-15zM195 551h1028q-25 175 -165 283t-349 108q-210 0 -350.5 -108t-163.5 -283z " />
<glyph unicode="&#x474;" horiz-adv-x="1486" d="M4 1384h68l614 -1308l518 1102q20 43 34.5 69.5t40 60.5t51.5 53t66 32.5t87 13.5v-55q-84 0 -130 -46t-96 -153l-538 -1153h-62z" />
<glyph unicode="&#x475;" horiz-adv-x="1169" d="M10 973h60l454 -907l357 700q24 48 36.5 70.5t38.5 59t49 54t60 31.5t80 14h14v-53h-14q-32 0 -59 -10.5t-45 -24.5t-39.5 -45t-34 -53.5t-35.5 -67.5l-379 -741h-55z" />
<glyph unicode="&#x490;" horiz-adv-x="1175" d="M289 0v1384h768l8 287h55v-344h-768v-1327h-63z" />
<glyph unicode="&#x491;" horiz-adv-x="901" d="M231 0v973h594l6 287h50v-338h-594v-922h-56z" />
<glyph unicode="&#x2000;" horiz-adv-x="929" />
<glyph unicode="&#x2001;" horiz-adv-x="1858" />
<glyph unicode="&#x2002;" horiz-adv-x="929" />
<glyph unicode="&#x2003;" horiz-adv-x="1858" />
<glyph unicode="&#x2004;" horiz-adv-x="619" />
<glyph unicode="&#x2005;" horiz-adv-x="464" />
<glyph unicode="&#x2006;" horiz-adv-x="309" />
<glyph unicode="&#x2007;" horiz-adv-x="309" />
<glyph unicode="&#x2008;" horiz-adv-x="232" />
<glyph unicode="&#x2009;" horiz-adv-x="371" />
<glyph unicode="&#x200a;" horiz-adv-x="103" />
<glyph unicode="&#x2010;" horiz-adv-x="935" d="M211 578v55h514v-55h-514z" />
<glyph unicode="&#x2011;" horiz-adv-x="935" d="M211 578v55h514v-55h-514z" />
<glyph unicode="&#x2012;" horiz-adv-x="935" d="M211 578v55h514v-55h-514z" />
<glyph unicode="&#x2013;" horiz-adv-x="1421" d="M211 578v55h999v-55h-999z" />
<glyph unicode="&#x2014;" horiz-adv-x="2441" d="M211 578v55h2019v-55h-2019z" />
<glyph unicode="&#x2018;" horiz-adv-x="571" d="M166 1038q0 110 53 204.5t156 162.5l31 -45q-86 -55 -132.5 -139.5t-46.5 -184.5q0 -58 19 -123h-64q-16 69 -16 125z" />
<glyph unicode="&#x2019;" horiz-adv-x="571" d="M166 938q85 56 131.5 139.5t46.5 182.5q0 62 -18 124h63q17 -63 17 -124q0 -110 -53 -204.5t-156 -162.5z" />
<glyph unicode="&#x201a;" horiz-adv-x="571" d="M166 -219q85 56 131.5 139t46.5 182q0 64 -18 125h63q17 -63 17 -125q0 -110 -53 -204t-156 -162z" />
<glyph unicode="&#x201c;" horiz-adv-x="882" d="M166 1038q0 110 53 204.5t156 162.5l31 -45q-85 -56 -132 -139.5t-47 -182.5q0 -60 19 -125h-64q-16 59 -16 125zM477 1038q0 110 53 204.5t156 162.5l31 -45q-85 -56 -131.5 -139.5t-46.5 -182.5q0 -64 18 -125h-63q-17 63 -17 125z" />
<glyph unicode="&#x201d;" horiz-adv-x="882" d="M166 938q85 56 131.5 139.5t46.5 182.5q0 62 -18 124h63q17 -63 17 -124q0 -110 -53 -204.5t-156 -162.5zM477 938q85 56 131.5 139.5t46.5 182.5q0 62 -18 124h63q17 -63 17 -124q0 -110 -53 -204.5t-156 -162.5z" />
<glyph unicode="&#x201e;" horiz-adv-x="882" d="M166 -219q85 56 131.5 139t46.5 182q0 64 -18 125h63q17 -63 17 -125q0 -110 -53 -204t-156 -162zM477 -219q85 56 131.5 139t46.5 182q0 64 -18 125h63q17 -63 17 -125q0 -110 -53 -204t-156 -162z" />
<glyph unicode="&#x2022;" horiz-adv-x="675" d="M168 662q0 62 47 99.5t123 37.5t123 -37.5t47 -99.5t-47 -100t-123 -38t-123 38t-47 100z" />
<glyph unicode="&#x2026;" horiz-adv-x="1689" d="M244 0v111h75v-111h-75zM807 0v111h76v-111h-76zM1370 0v111h76v-111h-76z" />
<glyph unicode="&#x202f;" horiz-adv-x="371" />
<glyph unicode="&#x2039;" horiz-adv-x="663" d="M125 508l346 407h68l-342 -407l342 -408h-68z" />
<glyph unicode="&#x203a;" horiz-adv-x="663" d="M125 100l342 408l-342 407h68l346 -407l-346 -408h-68z" />
<glyph unicode="&#x205f;" horiz-adv-x="464" />
<glyph unicode="&#x20ac;" horiz-adv-x="1327" d="M76 518l12 55h178q-4 74 -4 117q0 75 10 160h-196l12 55h193q50 248 210.5 375t395.5 127q184 0 309 -55v-64q-61 29 -145.5 45.5t-165.5 16.5q-219 0 -358 -115t-183 -330h739l-12 -55h-737q-10 -85 -10 -160q0 -62 6 -117h680l-13 -55h-661q37 -234 177.5 -358.5 t371.5 -124.5q82 0 170.5 16.5t148.5 44.5v-63q-60 -26 -148.5 -41t-168.5 -15q-246 0 -409.5 136t-203.5 405h-198z" />
<glyph unicode="&#x2122;" horiz-adv-x="1845" d="M70 1329v55h624v-55h-284v-512h-56v512h-284zM893 817v567h59l293 -401l293 401h59v-567h-57v475l-268 -366h-53l-269 366v-475h-57z" />
<glyph unicode="&#x25fc;" horiz-adv-x="972" d="M0 0v973h973v-973h-973z" />
</font>
</defs>
</svg>
