<?xml version="1.0" standalone="no"?>
<!DOCTYPE svg PUBLIC "-//W3C//DTD SVG 1.1//EN" "http://www.w3.org/Graphics/SVG/1.1/DTD/svg11.dtd" >
<svg xmlns="http://www.w3.org/2000/svg">
<metadata></metadata>
<defs>
<font id="peugeot_expandedbold" horiz-adv-x="1392" >
<font-face units-per-em="2048" ascent="1638" descent="-410" />
<missing-glyph horiz-adv-x="645" />
<glyph horiz-adv-x="0" />
<glyph horiz-adv-x="682" />
<glyph unicode=" "  horiz-adv-x="645" />
<glyph unicode="&#x09;" horiz-adv-x="645" />
<glyph unicode="&#xa0;" horiz-adv-x="645" />
<glyph unicode="!" horiz-adv-x="815" d="M205 1384h405l-45 -948h-315zM227 0v307h361v-307h-361z" />
<glyph unicode="&#x22;" horiz-adv-x="1183" d="M160 1384h346l-41 -567h-262zM678 1384h346l-41 -567h-260z" />
<glyph unicode="#" horiz-adv-x="1613" d="M25 317l49 232h266l66 307h-267l49 231h267l61 297h283l-62 -297h303l62 297h282l-61 -297h266l-49 -231h-266l-66 -307h267l-50 -232h-266l-67 -317h-283l68 317h-304l-67 -317h-283l68 317h-266zM623 549h303l65 307h-303z" />
<glyph unicode="$" horiz-adv-x="1349" d="M125 971q0 161 121 264.5t334 134.5v221h233v-207q218 -6 379 -59v-274q-172 73 -410 73q-258 0 -258 -133q0 -39 39.5 -66.5t103 -45.5t139.5 -36t152.5 -47.5t140 -71t103 -114.5t39.5 -170t-33 -173.5t-93 -127t-134.5 -81.5t-167.5 -46v-237h-233v225q-245 9 -435 86 v264q93 -39 215.5 -64.5t235.5 -25.5q246 0 246 143q0 39 -31 68t-81 46t-114.5 36t-132 36.5t-132 49t-114.5 72t-81 107.5t-31 153z" />
<glyph unicode="%" horiz-adv-x="2195" d="M88 977q0 195 110.5 318.5t301.5 123.5t301 -123.5t110 -318.5t-110 -318.5t-301 -123.5t-301.5 123.5t-110.5 318.5zM342 977q0 -103 40 -166t118 -63t117.5 62.5t39.5 166.5t-39.5 166.5t-117.5 62.5t-118 -63t-40 -166zM522 0l893 1384h258l-891 -1384h-260zM1284 408 q0 195 110.5 318.5t301.5 123.5t301 -123.5t110 -318.5t-110 -319t-301 -124t-301.5 124t-110.5 319zM1538 408q0 -104 40 -167t118 -63t117.5 63t39.5 167t-39.5 166.5t-117.5 62.5t-118 -63t-40 -166z" />
<glyph unicode="&#x26;" horiz-adv-x="1724" d="M111 410q0 128 76 220t192 126q-207 80 -207 288q0 175 174.5 275t484.5 100q101 0 214.5 -17t185.5 -44v-283q-164 70 -402 70q-266 0 -266 -129q0 -67 57.5 -102t161.5 -35h115v-271h-123q-54 0 -99.5 -8.5t-86 -27t-63.5 -53.5t-23 -83q0 -101 87 -149.5t232 -48.5 q371 0 371 311h-168v266h662v-266h-156q0 -125 -45.5 -230t-133 -184.5t-227.5 -124.5t-319 -45q-321 0 -507.5 114.5t-186.5 330.5z" />
<glyph unicode="'" horiz-adv-x="665" d="M160 1384h346l-41 -567h-262z" />
<glyph unicode="(" horiz-adv-x="765" d="M119 532q0 140 26.5 273t75.5 249.5t101 209t120 190.5h308q-13 -21 -53 -85.5t-57 -93t-52 -93.5t-52 -107.5t-42 -112t-36.5 -130t-20.5 -139.5t-9 -161t9 -161t21 -139.5t36.5 -130t41.5 -112t52 -106.5t52 -93.5t57 -93t53 -85.5h-308q-68 98 -120 190.5t-101 209 t-75.5 249t-26.5 272.5z" />
<glyph unicode=")" horiz-adv-x="765" d="M16 -389q13 22 53 85.5t57 93t52 93.5t52 106.5t41.5 112t36.5 130t21 139.5t9 161t-9 161t-20.5 139.5t-36.5 130t-42 112t-52 107.5t-52 93.5t-57 93t-53 85.5h308q68 -98 120 -190.5t101 -209t75.5 -249.5t26.5 -273t-26.5 -272.5t-75.5 -249t-101 -209t-120 -190.5 h-308z" />
<glyph unicode="*" horiz-adv-x="991" d="M57 1051l70 223l264 -113l-43 223h295l-43 -223l264 113l70 -223l-262 -50l184 -172l-217 -149l-143 229l-144 -229l-217 149l184 172z" />
<glyph unicode="+" d="M135 516v242h426v356h262v-356h434v-242h-434v-356h-262v356h-426z" />
<glyph unicode="," horiz-adv-x="698" d="M-41 -201q119 57 177.5 134.5t58.5 181.5t-33 192h336q30 -82 30 -186q0 -187 -119 -332.5t-333 -212.5z" />
<glyph unicode="-" horiz-adv-x="978" d="M156 436v262h667v-262h-667z" />
<glyph unicode="." horiz-adv-x="698" d="M168 0v307h360v-307h-360z" />
<glyph unicode="/" horiz-adv-x="960" d="M0 0l674 1384h287l-674 -1384h-287z" />
<glyph unicode="0" horiz-adv-x="1613" d="M111 692q0 120 27.5 227.5t84.5 199t138.5 158.5t195.5 104.5t250 37.5t250 -37.5t195.5 -104.5t138.5 -158.5t84.5 -199t27.5 -227.5t-27.5 -227.5t-84.5 -199t-138.5 -158.5t-195.5 -104.5t-250 -37.5t-250 37.5t-195.5 104.5t-138.5 158.5t-84.5 199t-27.5 227.5z M494 692q0 -213 77 -333.5t236 -120.5t236 120.5t77 333.5t-77 333t-236 120t-236 -120t-77 -333z" />
<glyph unicode="1" horiz-adv-x="948" d="M37 1116v268h680v-1384h-377v1116h-303z" />
<glyph unicode="2" horiz-adv-x="1357" d="M102 0v256l516 412q98 77 141.5 145.5t43.5 147.5q0 98 -73 141t-191 43q-96 0 -201.5 -24.5t-173.5 -57.5v283q190 73 424 73q95 0 180.5 -14.5t164.5 -47.5t136 -82.5t91 -125.5t34 -170q0 -107 -35.5 -193.5t-94.5 -149t-155 -130.5l-334 -238h637v-268h-1110z" />
<glyph unicode="3" horiz-adv-x="1353" d="M123 53v283q89 -42 204 -70t224 -28q129 0 203.5 45.5t74.5 138.5q0 90 -78.5 130t-226.5 40q-101 0 -176 -10v223l414 311h-617v268h1065v-239l-436 -338q88 -5 166 -29.5t142 -69t101.5 -117.5t37.5 -165q0 -151 -84.5 -256.5t-226.5 -155t-328 -49.5q-266 0 -459 88z " />
<glyph unicode="4" horiz-adv-x="1396" d="M33 338v270l700 776h459v-784h154v-262h-154v-338h-367v338h-792zM395 600h430v479z" />
<glyph unicode="5" horiz-adv-x="1384" d="M150 53v283q209 -98 436 -98q135 0 215 44.5t80 137.5q0 190 -318 190q-166 0 -325 -43l-72 60l117 757h948v-268h-639l-39 -248q70 4 100 4q97 0 183 -12.5t167.5 -43.5t139.5 -78t93.5 -122t35.5 -170q0 -124 -50 -218t-138.5 -150.5t-201 -84.5t-245.5 -28 q-294 0 -487 88z" />
<glyph unicode="6" horiz-adv-x="1470" d="M106 662q0 162 41 291.5t110.5 215.5t166.5 143t204.5 82t229.5 25q253 0 426 -73v-283q-62 33 -170 57.5t-225 24.5q-88 0 -156 -17.5t-122.5 -56t-86 -106.5t-37.5 -164q59 39 148 63.5t190 24.5q83 0 160 -14.5t147.5 -47t122.5 -81t82.5 -120.5t30.5 -161 q0 -225 -163 -362.5t-453 -137.5q-141 0 -256.5 41t-203.5 123.5t-137 218t-49 314.5zM498 530q0 -83 22.5 -142.5t61 -90.5t81 -45t91.5 -14q99 0 167 50t68 144q0 95 -64.5 140.5t-172.5 45.5q-72 0 -143.5 -24.5t-110.5 -63.5z" />
<glyph unicode="7" horiz-adv-x="1234" d="M57 1116v268h1133v-249q-244 -233 -375 -493.5t-184 -641.5h-410q37 301 193.5 609.5t359.5 506.5h-717z" />
<glyph unicode="8" horiz-adv-x="1503" d="M106 379q0 250 265 342q-49 20 -86.5 43t-72.5 59t-54 88.5t-19 118.5q0 181 167.5 286t445.5 105t445 -105t167 -286q0 -66 -19 -118.5t-53.5 -88.5t-72 -59t-86.5 -43q264 -92 264 -342q0 -184 -171 -299t-474 -115t-474.5 115t-171.5 299zM496 401q0 -89 71.5 -135.5 t184.5 -46.5t184.5 46.5t71.5 135.5t-71.5 136t-184.5 47t-184.5 -47t-71.5 -136zM530 1004q0 -83 61 -122.5t161 -39.5q99 0 160 39.5t61 122.5t-60.5 122t-160.5 39t-161 -39t-61 -122z" />
<glyph unicode="9" horiz-adv-x="1470" d="M102 926q0 217 171 355t446 138q147 0 264.5 -43t203 -128t131.5 -218t46 -307q0 -162 -41 -291.5t-110.5 -215.5t-166.5 -143.5t-204.5 -82.5t-229.5 -25q-260 0 -436 74v283q172 -84 408 -84q399 0 399 346q-59 -39 -148 -63.5t-190 -24.5q-83 0 -160 15t-147.5 48.5 t-122.5 83t-82.5 122t-30.5 161.5zM481 952q0 -95 64 -140.5t172 -45.5q72 0 144.5 24.5t111.5 63.5q0 83 -22 142.5t-60.5 90.5t-81 44.5t-92.5 13.5q-99 0 -167.5 -50.5t-68.5 -142.5z" />
<glyph unicode=":" horiz-adv-x="698" d="M168 0v307h360v-307h-360zM168 666v307h360v-307h-360z" />
<glyph unicode=";" horiz-adv-x="698" d="M-41 -201q119 57 177.5 134.5t58.5 181.5t-33 192h336q30 -82 30 -186q0 -187 -119 -332.5t-333 -212.5zM168 666v307h360v-307h-360z" />
<glyph unicode="&#x3c;" d="M135 518v238l1122 397v-250l-798 -266l798 -266v-252z" />
<glyph unicode="=" d="M135 274v242h1122v-242h-1122zM135 758v241h1122v-241h-1122z" />
<glyph unicode="&#x3e;" d="M135 119v252l799 266l-799 266v250l1122 -397v-238z" />
<glyph unicode="?" horiz-adv-x="1058" d="M117 1092v278q131 49 329 49q102 0 191.5 -20.5t163.5 -62.5t117 -113.5t43 -165.5q0 -57 -14.5 -107.5t-42 -90.5t-55 -68.5t-63.5 -57.5q-35 -27 -53 -43t-40.5 -41t-32 -50t-9.5 -54v-109h-338v146q0 52 10 95.5t21.5 71t39 59.5t43.5 46.5t54 46.5q5 5 20.5 18 t22 18.5t18.5 17.5t17.5 19.5t12.5 18.5t9.5 21.5t2.5 21.5q0 62 -53.5 85.5t-143.5 23.5q-70 0 -145.5 -15.5t-124.5 -37.5zM303 0v307h361v-307h-361z" />
<glyph unicode="@" horiz-adv-x="1871" d="M94 537q0 206 111 365.5t302 245t429 85.5q198 0 358.5 -49t265.5 -135t161.5 -202.5t56.5 -252.5q0 -211 -102.5 -321.5t-301.5 -110.5q-78 0 -144.5 26.5t-88.5 63.5q-98 -88 -246 -88q-161 0 -263 89.5t-102 250.5q0 73 23 132t62 98t93 66t114 38.5t126 11.5 q192 0 346 -82v-297q0 -119 125 -119q146 0 146 236q0 208 -164 335.5t-465 127.5q-184 0 -325.5 -59.5t-222.5 -176.5t-81 -278q0 -152 51 -265t142 -178.5t205 -97t253 -31.5q284 0 502 78v-193q-212 -75 -510 -75q-143 0 -269.5 28.5t-234.5 89t-186 148.5t-122 215 t-44 281zM782 510q0 -78 41 -118t107 -40q48 0 82.5 27t46.5 63v193q-52 22 -115 22q-71 0 -116.5 -37t-45.5 -110z" />
<glyph unicode="A" horiz-adv-x="1605" d="M-18 0l657 1384h334l651 -1384h-412l-106 238h-657l-107 -238h-360zM563 496h428l-213 479z" />
<glyph unicode="B" horiz-adv-x="1611" d="M231 0v1384h560q671 0 671 -378q0 -115 -69 -187t-172 -108q52 -10 100.5 -33.5t90 -61t66.5 -94t25 -123.5q0 -106 -52.5 -184.5t-150 -124.5t-224 -68t-285.5 -22h-560zM608 268h195q309 0 309 154q0 151 -309 151h-195v-305zM608 831h183q93 0 150.5 11t93.5 43.5 t36 89.5q0 82 -69 111.5t-211 29.5h-183v-285z" />
<glyph unicode="C" horiz-adv-x="1525" d="M109 692q0 156 56.5 289t161.5 230.5t265.5 152.5t359.5 55q137 0 261 -21.5t190 -54.5v-276q-69 34 -186 56t-242 22q-220 0 -347.5 -118t-127.5 -335t127.5 -335.5t347.5 -118.5q113 0 229.5 24t208.5 70v-277q-195 -90 -461 -90q-199 0 -359.5 55t-265.5 152.5 t-161.5 230.5t-56.5 289z" />
<glyph unicode="D" horiz-adv-x="1781" d="M231 0v1384h586q263 0 452.5 -74.5t296.5 -231.5t107 -386t-107 -386t-296.5 -231.5t-452.5 -74.5h-586zM608 268h209q465 0 465 426q0 422 -465 422h-209v-848z" />
<glyph unicode="E" horiz-adv-x="1474" d="M211 375v1009h1098v-268h-721v-282h639v-269h-639v-190q0 -56 24 -81.5t86 -25.5h637v-268h-704q-216 0 -318 94t-102 281z" />
<glyph unicode="F" horiz-adv-x="1468" d="M231 0v1384h1098v-268h-721v-328h639v-268h-639v-520h-377z" />
<glyph unicode="G" horiz-adv-x="1892" d="M109 692q0 157 52.5 282t141 207t211 136.5t256 78t283.5 23.5q338 0 598 -98v-287q-116 46 -271 78.5t-319 32.5q-91 0 -169.5 -13t-152.5 -45t-125.5 -82t-82.5 -130t-31 -183q0 -98 29 -176.5t77.5 -129.5t115.5 -85t140.5 -48.5t155.5 -14.5q80 0 167 13.5t144 35.5 v258h-368v278h735v-694q-139 -74 -330 -119t-373 -45q-142 0 -270 26t-241 82.5t-195.5 140t-130 206t-47.5 272.5z" />
<glyph unicode="H" horiz-adv-x="1910" d="M231 0v1384h377v-538h695v538h376v-1384h-376v567h-695v-567h-377z" />
<glyph unicode="I" horiz-adv-x="839" d="M231 0v1384h377v-1384h-377z" />
<glyph unicode="J" horiz-adv-x="1044" d="M80 14v277q124 -53 225 -53q82 0 116 36.5t34 122.5v987h376v-974q0 -224 -120 -334.5t-349 -110.5q-157 0 -282 49z" />
<glyph unicode="K" horiz-adv-x="1669" d="M231 0v1384h377v-571l606 571h439l-703 -661l719 -723h-481l-580 588v-588h-377z" />
<glyph unicode="L" horiz-adv-x="1331" d="M211 375v1009h377v-1009q0 -56 24 -81.5t86 -25.5h596v-268h-663q-216 0 -318 94t-102 281z" />
<glyph unicode="M" horiz-adv-x="2273" d="M231 0v1384h367l539 -786l538 786h367v-1384h-371v840l-377 -572h-315l-377 572v-840h-371z" />
<glyph unicode="N" horiz-adv-x="1886" d="M231 0v1384h322l735 -856v856h367v-1384h-320l-737 856v-856h-367z" />
<glyph unicode="O" horiz-adv-x="1945" d="M109 692q0 224 109 389.5t303.5 251.5t451.5 86t451.5 -86t303.5 -251.5t109 -389.5t-109 -389.5t-303.5 -251.5t-451.5 -86t-451.5 86t-303.5 251.5t-109 389.5zM500 692q0 -209 123 -331.5t350 -122.5t350 122.5t123 331.5q0 208 -123 330.5t-350 122.5t-350 -122.5 t-123 -330.5z" />
<glyph unicode="P" horiz-adv-x="1626" d="M231 0v1384h598q323 0 507 -118.5t184 -347.5q0 -154 -86 -259.5t-239 -156.5t-366 -51h-221v-451h-377zM608 719h221q299 0 299 199q0 198 -299 198h-221v-397z" />
<glyph unicode="Q" horiz-adv-x="1945" d="M109 694q0 224 109 389t303.5 250.5t451.5 85.5t451.5 -85.5t303.5 -250.5t109 -389q0 -260 -145 -439t-398 -249l373 -352h-455l-258 311q-188 2 -344.5 53.5t-267 144t-172 228.5t-61.5 303zM500 694q0 -209 123 -332.5t350 -123.5t350 123.5t123 332.5 q0 208 -122.5 329.5t-350.5 121.5t-350.5 -121.5t-122.5 -329.5z" />
<glyph unicode="R" horiz-adv-x="1634" d="M231 0v1384h621q201 0 350.5 -52t233.5 -156t84 -250q0 -153 -93 -253.5t-264 -142.5l383 -530h-424l-317 463h-197v-463h-377zM608 731h221q64 0 113.5 8.5t93.5 28.5t68 59.5t24 96.5t-24 96.5t-68 59.5t-93.5 28t-113.5 8h-221v-385z" />
<glyph unicode="S" horiz-adv-x="1361" d="M141 985q0 137 80 235.5t222.5 148.5t332.5 50q239 0 410 -61v-289q-167 76 -400 76q-254 0 -254 -139q0 -33 24 -57.5t64.5 -41t93.5 -31.5t111.5 -31.5t116.5 -37t111 -53.5t93.5 -75.5t64.5 -107t24 -145.5q0 -97 -33.5 -175.5t-90 -131t-133.5 -88.5t-162 -52 t-179 -16q-128 0 -254 25t-221 65v279q92 -41 211 -67.5t229 -26.5q242 0 242 149q0 47 -39 79.5t-101 53t-136.5 40.5t-149.5 50.5t-137 74t-101 120.5t-39 180z" />
<glyph unicode="T" horiz-adv-x="1458" d="M37 1116v268h1384v-268h-503v-1116h-377v1116h-504z" />
<glyph unicode="U" horiz-adv-x="1734" d="M190 510v874h377v-876q0 -135 82.5 -202.5t218.5 -67.5t221 68t85 202v876h370v-874q0 -173 -86.5 -297.5t-237.5 -186t-352 -61.5t-352.5 61.5t-238.5 186t-87 297.5z" />
<glyph unicode="V" horiz-adv-x="1640" d="M0 1384h412l434 -970l434 970h360l-667 -1384h-322z" />
<glyph unicode="W" horiz-adv-x="2392" d="M0 1384h395l285 -976l346 976h340l346 -976l285 976h395l-440 -1384h-404l-352 973l-352 -973h-404z" />
<glyph unicode="X" horiz-adv-x="1572" d="M0 0l578 709l-533 675h430l324 -409l327 409h406l-535 -657l576 -727h-432l-363 465l-370 -465h-408z" />
<glyph unicode="Y" horiz-adv-x="1492" d="M-18 1384h419l377 -553l365 553h368l-577 -837v-547h-377v547z" />
<glyph unicode="Z" horiz-adv-x="1509" d="M98 0v221l832 895h-815v268h1271v-241l-808 -875h833v-268h-1313z" />
<glyph unicode="[" horiz-adv-x="856" d="M231 -389v1843h568v-266h-267v-1307h267v-270h-568z" />
<glyph unicode="\" horiz-adv-x="960" d="M0 1384h287l674 -1384h-287z" />
<glyph unicode="]" horiz-adv-x="856" d="M57 -119h267v1307h-267v266h568v-1843h-568v270z" />
<glyph unicode="^" d="M80 477l508 907h217l508 -907h-289l-328 590l-327 -590h-289z" />
<glyph unicode="_" horiz-adv-x="1439" d="M37 -35h1366v-215h-1366v215z" />
<glyph unicode="`" horiz-adv-x="1228" d="M256 1454h381l176 -309h-258z" />
<glyph unicode="a" horiz-adv-x="1372" d="M90 467q0 255 170 398t459 143q134 0 241.5 -17t231.5 -53v-938h-274l-27 86q-118 -121 -307 -121q-95 0 -181 30t-157 89t-113.5 158t-42.5 225zM444 481q0 -125 61 -184t165 -59q106 0 174 51v452q-60 13 -113 13q-126 0 -206.5 -65.5t-80.5 -207.5z" />
<glyph unicode="b" horiz-adv-x="1363" d="M172 53v1401h348v-493q109 47 246 47q99 0 187 -28t161.5 -85.5t116.5 -156.5t43 -230q0 -255 -167.5 -399t-453.5 -144q-294 0 -481 88zM520 236q50 -17 121 -17q125 0 202 65.5t77 204.5q0 127 -62 189.5t-164 62.5q-103 0 -174 -49v-456z" />
<glyph unicode="c" horiz-adv-x="1159" d="M90 487q0 237 162.5 379t445.5 142q190 0 312 -52v-264q-72 34 -135.5 48t-145.5 14q-138 0 -210.5 -73t-72.5 -196q0 -122 73 -194t210 -72q154 0 293 68v-264q-136 -58 -334 -58q-142 0 -257 40.5t-188.5 111.5t-113 165.5t-39.5 204.5z" />
<glyph unicode="d" horiz-adv-x="1368" d="M90 467q0 255 170 398t459 143q57 0 125 -7v453h348v-1454h-274l-27 86q-118 -121 -307 -121q-95 0 -181 30t-157 89t-113.5 158t-42.5 225zM444 481q0 -125 61 -184t165 -59q106 0 174 51v452q-60 13 -113 13q-126 0 -206.5 -65.5t-80.5 -207.5z" />
<glyph unicode="e" horiz-adv-x="1312" d="M90 494q0 162 77.5 280t208 176t296.5 58q138 0 246 -37t173 -100.5t98.5 -141.5t33.5 -166v-178h-762q32 -166 325 -166q106 0 217.5 20.5t182.5 47.5v-252q-66 -31 -197.5 -50.5t-247.5 -19.5q-108 0 -201.5 17t-177.5 56.5t-143.5 99.5t-94 150.5t-34.5 205.5z M457 592h409q-5 182 -204 182q-84 0 -139 -44.5t-66 -137.5z" />
<glyph unicode="f" horiz-adv-x="835" d="M47 721v252h156v106q0 108 37 189.5t102.5 128.5t147.5 69.5t180 22.5q95 0 166 -19v-262q-52 15 -113 15q-172 0 -172 -148v-102h274v-252h-274v-721h-348v721h-156z" />
<glyph unicode="g" horiz-adv-x="1368" d="M90 481q0 242 171 384.5t458 142.5q134 0 241.5 -17t231.5 -53v-903q0 -229 -157.5 -344t-432.5 -115q-269 0 -450 78v278q204 -102 415 -102q130 0 202.5 45.5t72.5 153.5v43q-92 -72 -258 -72q-76 0 -145.5 16t-133.5 53t-111.5 91.5t-75.5 136.5t-28 184zM444 500 q0 -121 60 -180.5t168 -59.5q106 0 172 51v430q-63 13 -117 13q-59 0 -108 -13.5t-89.5 -42t-63 -79t-22.5 -119.5z" />
<glyph unicode="h" horiz-adv-x="1429" d="M176 0v1454h348v-541q64 44 152.5 69.5t175.5 25.5q88 0 161.5 -23.5t131 -71t89.5 -126.5t32 -183v-604h-348v575q0 79 -50.5 115.5t-130.5 36.5q-117 0 -213 -51v-676h-348z" />
<glyph unicode="i" horiz-adv-x="700" d="M176 0v973h348v-973h-348zM176 1151v268h348v-268h-348z" />
<glyph unicode="j" horiz-adv-x="700" d="M-31 -125q66 -27 123 -27q44 0 64 20.5t20 70.5v1034h348v-1034q0 -164 -87 -263.5t-255 -99.5q-115 0 -213 35v264zM176 1151v268h348v-268h-348z" />
<glyph unicode="k" horiz-adv-x="1316" d="M176 0v1454h348v-833l385 352h410l-475 -422l479 -551h-426l-373 436v-436h-348z" />
<glyph unicode="l" horiz-adv-x="761" d="M158 311v1143h348v-1126q0 -50 20 -70t64 -20q60 0 123 26v-266q-92 -33 -213 -33q-182 0 -262 90t-80 256z" />
<glyph unicode="m" horiz-adv-x="2093" d="M176 0v973h311l21 -74q148 109 332 109q208 0 315 -134q171 134 391 134q181 0 282 -93.5t101 -277.5v-637h-348v598q0 67 -44.5 98t-113.5 31q-103 0 -198 -51q2 -12 2 -39v-637h-348v598q0 67 -44 98t-112 31q-102 0 -199 -51v-676h-348z" />
<glyph unicode="n" horiz-adv-x="1429" d="M176 0v973h311l21 -74q63 51 156.5 80t187.5 29q88 0 161.5 -23.5t131 -71t89.5 -126.5t32 -183v-604h-348v575q0 79 -50.5 115.5t-130.5 36.5q-117 0 -213 -51v-676h-348z" />
<glyph unicode="o" d="M90 487q0 245 165 383t441 138t441.5 -138t165.5 -383t-165.5 -383.5t-441.5 -138.5t-441 138.5t-165 383.5zM446 487q0 -124 68.5 -196t181.5 -72t181.5 72t68.5 196q0 123 -68.5 195t-181.5 72t-181.5 -72t-68.5 -195z" />
<glyph unicode="p" horiz-adv-x="1368" d="M176 -389v1362h311l21 -74q50 45 127.5 77t167.5 32q69 0 134 -16t127.5 -54t109.5 -95t75.5 -146t28.5 -199q0 -168 -80 -290.5t-214.5 -182.5t-305.5 -60q-78 0 -154 12v-366h-348zM524 236q50 -17 121 -17q125 0 202 65.5t77 204.5q0 127 -62 189.5t-164 62.5 q-103 0 -174 -49v-456z" />
<glyph unicode="q" horiz-adv-x="1368" d="M90 467q0 255 169 398t458 143q235 0 475 -70v-1327h-348v432q-113 -78 -262 -78q-95 0 -180.5 30t-156.5 89t-113 158t-42 225zM444 481q0 -125 61 -184t165 -59q106 0 174 51v452q-60 13 -113 13q-126 0 -206.5 -65.5t-80.5 -207.5z" />
<glyph unicode="r" horiz-adv-x="942" d="M176 0v973h311l21 -123q45 35 75 55.5t79.5 47.5t105 40.5t117.5 14.5v-314q-229 0 -361 -80v-614h-348z" />
<glyph unicode="s" horiz-adv-x="1171" d="M98 666q0 89 42 156.5t116.5 107t169.5 59t209 19.5q222 0 381 -47v-252q-72 31 -176 48t-201 17q-86 0 -139.5 -19t-53.5 -59q0 -22 21 -36.5t57 -22t82.5 -13t98 -13t102.5 -18.5t97.5 -32.5t82.5 -52t57 -80t21 -113.5q0 -90 -40.5 -158t-112.5 -109.5t-165 -62 t-204 -20.5q-233 0 -422 74v260q185 -80 420 -80q176 0 176 74q0 28 -34 45t-88.5 25.5t-120.5 16.5t-132.5 25.5t-121 46t-88.5 83t-34 131.5z" />
<glyph unicode="t" horiz-adv-x="944" d="M41 721v252h160l45 309h299v-309h295v-252h-295v-369q0 -114 121 -114q90 0 190 49v-264q-116 -58 -285 -58q-374 0 -374 365v391h-156z" />
<glyph unicode="u" horiz-adv-x="1370" d="M154 354v619h348v-598q0 -68 40.5 -102.5t112.5 -34.5q108 0 191 69v666h348v-973h-276l-27 86q-142 -121 -334 -121q-193 0 -298 101t-105 288z" />
<glyph unicode="v" horiz-adv-x="1236" d="M16 973h367l244 -619l243 619h351l-441 -973h-340z" />
<glyph unicode="w" horiz-adv-x="1957" d="M16 973h359l194 -604l226 604h368l226 -604l194 604h359l-365 -973h-336l-262 651l-262 -651h-336z" />
<glyph unicode="x" horiz-adv-x="1241" d="M16 0l392 492l-388 481h418l191 -273l186 273h391l-379 -486l394 -487h-414l-205 274l-196 -274h-390z" />
<glyph unicode="y" horiz-adv-x="1370" d="M154 389v584h348v-563q0 -68 40.5 -103t112.5 -35q107 0 191 70v631h348v-938q0 -120 -45.5 -210.5t-126 -143.5t-181 -79t-220.5 -26q-128 0 -225.5 18.5t-198.5 57.5v278q69 -40 179.5 -71t211.5 -31q121 0 187.5 44.5t66.5 156.5v53q-124 -82 -285 -82 q-193 0 -298 101t-105 288z" />
<glyph unicode="z" horiz-adv-x="1191" d="M113 0v197l483 530h-483v246h944v-203l-475 -524h487v-246h-956z" />
<glyph unicode="{" horiz-adv-x="835" d="M37 408v258q34 8 50 12.5t45 14t43.5 17t34 21t29 28t16.5 35.5t7 46v229q0 91 20.5 159t67 120t126 79t192.5 27h131v-270h-94q-84 0 -109 -26t-25 -99v-221q0 -71 -21.5 -124.5t-61.5 -87.5t-82.5 -54t-98.5 -35q56 -15 98.5 -35t82.5 -54t61.5 -87.5t21.5 -124.5v-230 q0 -73 25 -99t109 -26h94v-270h-131q-113 0 -192.5 27t-126 79t-67 120t-20.5 159v237q0 29 -7.5 52t-25.5 40t-34.5 29t-48 22.5t-51 16t-58.5 15.5z" />
<glyph unicode="|" horiz-adv-x="686" d="M215 -389v2027h256v-2027h-256z" />
<glyph unicode="}" horiz-adv-x="835" d="M37 -119h94q84 0 108.5 26t24.5 99v230q0 71 21.5 124.5t61.5 87.5t82.5 54t98.5 35q-56 15 -98.5 35t-82.5 54t-61.5 87.5t-21.5 124.5v221q0 73 -24.5 99t-108.5 26h-94v270h131q219 0 312 -99t93 -286v-229q0 -29 7.5 -52t26 -40t34.5 -28.5t48.5 -22.5t51 -16 t58.5 -15v-258q-46 -12 -69.5 -18.5t-59 -21t-53 -31t-31 -43.5t-13.5 -61v-237q0 -187 -93 -286t-312 -99h-131v270z" />
<glyph unicode="~" d="M98 459q0 174 82.5 270t255.5 96q66 0 171.5 -32.5t202 -65.5t142.5 -33q50 0 68 31.5t18 89.5h254q0 -174 -82.5 -270t-255.5 -96q-66 0 -171.5 32.5t-202 65.5t-142.5 33q-50 0 -68 -31.5t-18 -89.5h-254z" />
<glyph unicode="&#xa1;" horiz-adv-x="815" d="M205 -389l45 926h315l45 -926h-405zM227 666v307h361v-307h-361z" />
<glyph unicode="&#xa2;" horiz-adv-x="1294" d="M88 690q0 228 131 394t377 214v295h233v-276q203 -7 328 -62v-268q-173 57 -323 57q-64 0 -119 -10.5t-105 -36.5t-85 -65.5t-55.5 -101t-20.5 -140.5q0 -181 102 -270.5t276 -89.5q156 0 338 69v-264q-133 -68 -336 -74v-286h-233v303q-246 51 -377 218t-131 394z" />
<glyph unicode="&#xa3;" horiz-adv-x="1247" d="M51 602v209h172q-22 73 -22 154q0 97 32.5 175t87.5 129.5t130.5 85.5t158 49t174.5 15q210 0 375 -65v-275q-61 26 -154.5 46t-185.5 20q-121 0 -191.5 -44.5t-70.5 -137.5q0 -75 31 -152h475v-209h-404q15 -73 15 -113q0 -71 -30 -124.5t-105 -96.5h647v-268h-1077v238 q206 81 206 235q0 58 -22 129h-242z" />
<glyph unicode="&#xa5;" horiz-adv-x="1351" d="M20 1384h388l297 -536l280 536h346l-401 -671h266v-140h-328v-198h328v-139h-328v-236h-376v236h-328v139h328v198h-328v140h266z" />
<glyph unicode="&#xa8;" horiz-adv-x="1228" d="M236 1163v256h305v-256h-305zM686 1163v256h305v-256h-305z" />
<glyph unicode="&#xa9;" horiz-adv-x="1972" d="M139 688q0 202 108.5 369t303 264.5t434.5 97.5q180 0 338 -57t269.5 -155t176 -233t64.5 -286t-64.5 -285t-176 -230t-269.5 -152t-338 -56t-338 56t-269 152t-175 230t-64 285zM281 688q0 -124 54 -234.5t146.5 -190t223.5 -125.5t280 -46q198 0 360.5 78.5t254.5 215 t92 302.5t-92 304.5t-254.5 219t-360.5 80.5q-148 0 -279.5 -47.5t-224 -128.5t-146.5 -192.5t-54 -235.5zM532 692q0 85 28 155.5t76.5 118.5t114 81t139.5 48t154 15q169 0 281 -47v-219q-98 55 -246 55q-125 0 -189.5 -56t-64.5 -151q0 -91 65 -144.5t191 -53.5 q131 0 260 69v-227q-126 -60 -274 -60q-258 0 -396.5 115t-138.5 301z" />
<glyph unicode="&#xab;" horiz-adv-x="1376" d="M51 508l377 407h299l-332 -407l332 -408h-299zM649 508l377 407h299l-332 -407l332 -408h-299z" />
<glyph unicode="&#xad;" horiz-adv-x="978" d="M156 436v262h667v-262h-667z" />
<glyph unicode="&#xae;" horiz-adv-x="1310" d="M147 973q0 192 142 319t364 127q224 0 367 -127t143 -319t-143 -316.5t-367 -124.5q-223 0 -364.5 124.5t-141.5 316.5zM254 973q0 -155 110 -251.5t289 -96.5q181 0 292.5 97t111.5 251q0 156 -112 255t-292 99q-179 0 -289 -99t-110 -255zM420 760v440h246 q262 0 262 -137q0 -47 -30.5 -79t-86.5 -44l137 -180h-211l-98 149h-29v-149h-190zM610 1012h49q68 0 68 47t-68 47h-49v-94z" />
<glyph unicode="&#xb4;" horiz-adv-x="1228" d="M416 1145l176 309h381l-299 -309h-258z" />
<glyph unicode="&#xb8;" horiz-adv-x="1228" d="M385 -293q68 -29 137 -29q96 0 96 56q0 55 -100 55h-65l79 211h187l-35 -115q190 -27 190 -180q0 -85 -83 -135.5t-236 -50.5q-110 0 -170 28v160z" />
<glyph unicode="&#xbb;" horiz-adv-x="1376" d="M51 100l332 408l-332 407h299l377 -407l-377 -408h-299zM649 100l332 408l-332 407h299l377 -407l-377 -408h-299z" />
<glyph unicode="&#xbf;" horiz-adv-x="894" d="M0 -61q0 108 48 184t126 139q46 36 69.5 58t44.5 57.5t21 73.5v86h338v-123q0 -52 -10 -95.5t-21.5 -71.5t-38.5 -59.5t-44 -46.5t-54 -47q-4 -4 -20.5 -18t-21.5 -19t-18 -17t-18 -19.5t-12 -18.5t-9.5 -21.5t-2.5 -21.5q0 -62 53 -85.5t143 -23.5q70 0 146 16t125 38 v-279q-131 -49 -330 -49q-101 0 -191 21.5t-163.5 64t-116.5 114t-43 163.5zM297 666v307h360v-307h-360z" />
<glyph unicode="&#xc0;" horiz-adv-x="1605" d="M-18 0l657 1384h334l651 -1384h-412l-106 238h-657l-107 -238h-360zM375 1833h381l176 -309h-258zM563 496h428l-213 479z" />
<glyph unicode="&#xc1;" horiz-adv-x="1605" d="M-18 0l657 1384h334l651 -1384h-412l-106 238h-657l-107 -238h-360zM563 496h428l-213 479zM688 1524l176 309h381l-299 -309h-258z" />
<glyph unicode="&#xc2;" horiz-adv-x="1605" d="M-18 0l657 1384h334l651 -1384h-412l-106 238h-657l-107 -238h-360zM385 1524l231 309h373l232 -309h-279l-139 149l-139 -149h-279zM563 496h428l-213 479z" />
<glyph unicode="&#xc3;" horiz-adv-x="1605" d="M-18 0l657 1384h334l651 -1384h-412l-106 238h-657l-107 -238h-360zM367 1524q0 65 13.5 118.5t43 98.5t83 70.5t126.5 25.5q65 0 128 -25t113 -50t84 -25t47 23.5t13 72.5h221q0 -65 -13.5 -118.5t-43 -98.5t-83 -70.5t-126.5 -25.5q-65 0 -128 25t-113.5 50t-84.5 25 t-46.5 -23.5t-12.5 -72.5h-221zM563 496h428l-213 479z" />
<glyph unicode="&#xc4;" horiz-adv-x="1605" d="M-18 0l657 1384h334l651 -1384h-412l-106 238h-657l-107 -238h-360zM426 1544v256h305v-256h-305zM563 496h428l-213 479zM877 1544v256h305v-256h-305z" />
<glyph unicode="&#xc5;" horiz-adv-x="1605" d="M-18 0l657 1384h334l651 -1384h-412l-106 238h-657l-107 -238h-360zM526 1681q0 90 75.5 137.5t201.5 47.5t201 -47.5t75 -137.5q0 -92 -75 -140t-201 -48t-201.5 48t-75.5 140zM563 496h428l-213 479zM707 1679q0 -35 26 -56t70 -21t70 21t26 56t-26 56.5t-70 21.5 t-70 -21.5t-26 -56.5z" />
<glyph unicode="&#xc6;" horiz-adv-x="2322" d="M-86 0l946 1384h1297v-268h-721v-282h639v-269h-639v-190q0 -56 24 -81.5t86 -25.5h637v-268h-704q-339 0 -404 238h-598l-160 -238h-403zM649 496h410v620z" />
<glyph unicode="&#xc7;" horiz-adv-x="1525" d="M109 692q0 156 56.5 289t161.5 230.5t265.5 152.5t359.5 55q137 0 261 -21.5t190 -54.5v-276q-69 34 -186 56t-242 22q-220 0 -347.5 -118t-127.5 -335t127.5 -335.5t347.5 -118.5q113 0 229.5 24t208.5 70v-277q-195 -90 -461 -90q-10 0 -30.5 1t-30.5 1l-25 -82 q191 -27 191 -180q0 -85 -83 -135.5t-237 -50.5q-110 0 -170 28v160q68 -29 138 -29q96 0 96 56q0 55 -101 55h-65l76 201q-287 58 -444.5 246.5t-157.5 455.5z" />
<glyph unicode="&#xc8;" horiz-adv-x="1474" d="M211 375v1009h1098v-268h-721v-282h639v-269h-639v-190q0 -56 24 -81.5t86 -25.5h637v-268h-704q-216 0 -318 94t-102 281zM387 1833h381l176 -309h-258z" />
<glyph unicode="&#xc9;" horiz-adv-x="1474" d="M211 375v1009h1098v-268h-721v-282h639v-269h-639v-190q0 -56 24 -81.5t86 -25.5h637v-268h-704q-216 0 -318 94t-102 281zM621 1524l176 309h381l-299 -309h-258z" />
<glyph unicode="&#xca;" horiz-adv-x="1474" d="M211 375v1009h1098v-268h-721v-282h639v-269h-639v-190q0 -56 24 -81.5t86 -25.5h637v-268h-704q-216 0 -318 94t-102 281zM342 1524l231 309h373l232 -309h-279l-139 149l-139 -149h-279z" />
<glyph unicode="&#xcb;" horiz-adv-x="1474" d="M211 375v1009h1098v-268h-721v-282h639v-269h-639v-190q0 -56 24 -81.5t86 -25.5h637v-268h-704q-216 0 -318 94t-102 281zM383 1542v256h305v-256h-305zM834 1542v256h305v-256h-305z" />
<glyph unicode="&#xcc;" horiz-adv-x="839" d="M2 1833h381l176 -309h-258zM231 0v1384h377v-1384h-377z" />
<glyph unicode="&#xcd;" horiz-adv-x="839" d="M231 0v1384h377v-1384h-377zM291 1524l176 309h381l-299 -309h-258z" />
<glyph unicode="&#xce;" horiz-adv-x="839" d="M2 1524l231 309h373l232 -309h-279l-139 149l-139 -149h-279zM231 0v1384h377v-1384h-377z" />
<glyph unicode="&#xcf;" horiz-adv-x="839" d="M43 1544v256h305v-256h-305zM231 0v1384h377v-1384h-377zM494 1544v256h305v-256h-305z" />
<glyph unicode="&#xd0;" horiz-adv-x="1781" d="M43 588v248h188v548h586q263 0 452.5 -74.5t296.5 -231.5t107 -386t-107 -386t-296.5 -231.5t-452.5 -74.5h-586v588h-188zM608 268h209q465 0 465 426q0 422 -465 422h-209v-280h344v-248h-344v-320z" />
<glyph unicode="&#xd1;" horiz-adv-x="1882" d="M231 0v1384h322l735 -856v856h367v-1384h-320l-737 856v-856h-367zM506 1524q0 65 13.5 118.5t43 98.5t83 70.5t126.5 25.5q65 0 128 -25t113.5 -50t84.5 -25t46.5 23.5t12.5 72.5h221q0 -65 -13.5 -118.5t-43 -98.5t-83 -70.5t-126.5 -25.5q-65 0 -128 25t-113.5 50 t-84.5 25t-46.5 -23.5t-12.5 -72.5h-221z" />
<glyph unicode="&#xd2;" horiz-adv-x="1945" d="M109 692q0 224 109 389.5t303.5 251.5t451.5 86t451.5 -86t303.5 -251.5t109 -389.5t-109 -389.5t-303.5 -251.5t-451.5 -86t-451.5 86t-303.5 251.5t-109 389.5zM500 692q0 -209 123 -331.5t350 -122.5t350 122.5t123 331.5q0 208 -123 330.5t-350 122.5t-350 -122.5 t-123 -330.5zM565 1833h381l176 -309h-258z" />
<glyph unicode="&#xd3;" horiz-adv-x="1945" d="M109 692q0 224 109 389.5t303.5 251.5t451.5 86t451.5 -86t303.5 -251.5t109 -389.5t-109 -389.5t-303.5 -251.5t-451.5 -86t-451.5 86t-303.5 251.5t-109 389.5zM500 692q0 -209 123 -331.5t350 -122.5t350 122.5t123 331.5q0 208 -123 330.5t-350 122.5t-350 -122.5 t-123 -330.5zM844 1524l176 309h381l-299 -309h-258z" />
<glyph unicode="&#xd4;" horiz-adv-x="1945" d="M109 692q0 224 109 389.5t303.5 251.5t451.5 86t451.5 -86t303.5 -251.5t109 -389.5t-109 -389.5t-303.5 -251.5t-451.5 -86t-451.5 86t-303.5 251.5t-109 389.5zM500 692q0 -209 123 -331.5t350 -122.5t350 122.5t123 331.5q0 208 -123 330.5t-350 122.5t-350 -122.5 t-123 -330.5zM559 1524l232 309h372l232 -309h-279l-139 149l-139 -149h-279z" />
<glyph unicode="&#xd5;" horiz-adv-x="1945" d="M109 692q0 224 109 389.5t303.5 251.5t451.5 86t451.5 -86t303.5 -251.5t109 -389.5t-109 -389.5t-303.5 -251.5t-451.5 -86t-451.5 86t-303.5 251.5t-109 389.5zM500 692q0 -209 123 -331.5t350 -122.5t350 122.5t123 331.5q0 208 -123 330.5t-350 122.5t-350 -122.5 t-123 -330.5zM541 1524q0 65 13.5 118.5t43 98.5t83 70.5t126.5 25.5q65 0 128 -25t113.5 -50t84.5 -25t46.5 23.5t12.5 72.5h221q0 -65 -13.5 -118.5t-43 -98.5t-83 -70.5t-126.5 -25.5q-65 0 -128 25t-113.5 50t-84.5 25t-46.5 -23.5t-12.5 -72.5h-221z" />
<glyph unicode="&#xd6;" horiz-adv-x="1945" d="M109 692q0 224 109 389.5t303.5 251.5t451.5 86t451.5 -86t303.5 -251.5t109 -389.5t-109 -389.5t-303.5 -251.5t-451.5 -86t-451.5 86t-303.5 251.5t-109 389.5zM500 692q0 -209 123 -331.5t350 -122.5t350 122.5t123 331.5q0 208 -123 330.5t-350 122.5t-350 -122.5 t-123 -330.5zM600 1542v256h305v-256h-305zM1051 1542v256h305v-256h-305z" />
<glyph unicode="&#xd8;" horiz-adv-x="1945" d="M109 692q0 224 109 389.5t303.5 251.5t451.5 86q255 0 454 -88l168 187l123 -119l-141 -158q125 -96 192.5 -235t67.5 -314q0 -224 -109 -389.5t-303.5 -251.5t-451.5 -86q-263 0 -467 92l-154 -170l-123 119l129 144q-249 197 -249 542zM500 692q0 -174 88 -291l629 697 q-103 47 -244 47q-227 0 -350 -122.5t-123 -330.5zM719 293q110 -55 254 -55q227 0 350 122.5t123 331.5q0 181 -94 301z" />
<glyph unicode="&#xd9;" horiz-adv-x="1734" d="M190 510v874h377v-876q0 -135 82.5 -202.5t218.5 -67.5t221 68t85 202v876h370v-874q0 -173 -86.5 -297.5t-237.5 -186t-352 -61.5t-352.5 61.5t-238.5 186t-87 297.5zM455 1833h381l176 -309h-258z" />
<glyph unicode="&#xda;" horiz-adv-x="1734" d="M190 510v874h377v-876q0 -135 82.5 -202.5t218.5 -67.5t221 68t85 202v876h370v-874q0 -173 -86.5 -297.5t-237.5 -186t-352 -61.5t-352.5 61.5t-238.5 186t-87 297.5zM754 1524l176 309h381l-299 -309h-258z" />
<glyph unicode="&#xdb;" horiz-adv-x="1734" d="M190 510v874h377v-876q0 -135 82.5 -202.5t218.5 -67.5t221 68t85 202v876h370v-874q0 -173 -86.5 -297.5t-237.5 -186t-352 -61.5t-352.5 61.5t-238.5 186t-87 297.5zM449 1524l231 309h373l231 -309h-278l-140 149l-139 -149h-278z" />
<glyph unicode="&#xdc;" horiz-adv-x="1734" d="M190 510v874h377v-876q0 -135 82.5 -202.5t218.5 -67.5t221 68t85 202v876h370v-874q0 -173 -86.5 -297.5t-237.5 -186t-352 -61.5t-352.5 61.5t-238.5 186t-87 297.5zM477 1542v256h305v-256h-305zM928 1542v256h305v-256h-305z" />
<glyph unicode="&#xdd;" horiz-adv-x="1492" d="M-18 1384h419l377 -553l365 553h368l-577 -837v-547h-377v547zM684 1524l176 309h381l-299 -309h-258z" />
<glyph unicode="&#xde;" horiz-adv-x="1626" d="M231 0v1384h377v-227h221q213 0 366 -51t239 -156.5t86 -259.5t-86 -259.5t-239 -156.5t-366 -51h-221v-223h-377zM608 492h221q299 0 299 198q0 199 -299 199h-221v-397z" />
<glyph unicode="&#xdf;" horiz-adv-x="1417" d="M176 0v1053q0 92 31.5 167t84.5 124t124 82.5t147.5 48t157.5 14.5q133 0 245.5 -42t184.5 -130t72 -207q0 -58 -17 -105.5t-41.5 -78.5t-49 -56.5t-41.5 -51t-17 -50.5q0 -27 33.5 -59t80.5 -67t94.5 -77.5t81 -108t33.5 -141.5t-24.5 -136t-66 -99.5t-98.5 -66 t-118.5 -37.5t-130.5 -11q-139 0 -250 35v260q113 -47 215 -47q59 0 94 22t35 64q0 34 -22.5 66t-56 57.5t-73 57.5t-73 64t-56 79.5t-22.5 101.5q0 44 16.5 83.5t39.5 70t46 59.5t39.5 65.5t16.5 75.5q0 75 -48.5 116.5t-127.5 41.5q-80 0 -135.5 -46t-55.5 -130v-1061 h-348z" />
<glyph unicode="&#xe0;" horiz-adv-x="1372" d="M90 467q0 255 170 398t459 143q134 0 241.5 -17t231.5 -53v-938h-274l-27 86q-118 -121 -307 -121q-95 0 -181 30t-157 89t-113.5 158t-42.5 225zM285 1454h381l176 -309h-258zM444 481q0 -125 61 -184t165 -59q106 0 174 51v452q-60 13 -113 13q-126 0 -206.5 -65.5 t-80.5 -207.5z" />
<glyph unicode="&#xe1;" horiz-adv-x="1372" d="M90 467q0 255 170 398t459 143q134 0 241.5 -17t231.5 -53v-938h-274l-27 86q-118 -121 -307 -121q-95 0 -181 30t-157 89t-113.5 158t-42.5 225zM444 481q0 -125 61 -184t165 -59q106 0 174 51v452q-60 13 -113 13q-126 0 -206.5 -65.5t-80.5 -207.5zM543 1145l176 309 h381l-299 -309h-258z" />
<glyph unicode="&#xe2;" horiz-adv-x="1372" d="M90 467q0 255 170 398t459 143q134 0 241.5 -17t231.5 -53v-938h-274l-27 86q-118 -121 -307 -121q-95 0 -181 30t-157 89t-113.5 158t-42.5 225zM248 1145l231 309h373l231 -309h-278l-139 149l-140 -149h-278zM444 481q0 -125 61 -184t165 -59q106 0 174 51v452 q-60 13 -113 13q-126 0 -206.5 -65.5t-80.5 -207.5z" />
<glyph unicode="&#xe3;" horiz-adv-x="1372" d="M90 467q0 255 170 398t459 143q134 0 241.5 -17t231.5 -53v-938h-274l-27 86q-118 -121 -307 -121q-95 0 -181 30t-157 89t-113.5 158t-42.5 225zM227 1145q0 65 13.5 118.5t43.5 98.5t83.5 70.5t126.5 25.5q65 0 128 -25t113 -50t84 -25t47 23.5t13 72.5h221 q0 -65 -13.5 -118.5t-43 -98.5t-83 -70.5t-126.5 -25.5q-65 0 -128 25t-113.5 50t-84.5 25t-46.5 -23.5t-12.5 -72.5h-222zM444 481q0 -125 61 -184t165 -59q106 0 174 51v452q-60 13 -113 13q-126 0 -206.5 -65.5t-80.5 -207.5z" />
<glyph unicode="&#xe4;" horiz-adv-x="1372" d="M90 467q0 255 170 398t459 143q134 0 241.5 -17t231.5 -53v-938h-274l-27 86q-118 -121 -307 -121q-95 0 -181 30t-157 89t-113.5 158t-42.5 225zM287 1163v256h305v-256h-305zM444 481q0 -125 61 -184t165 -59q106 0 174 51v452q-60 13 -113 13q-126 0 -206.5 -65.5 t-80.5 -207.5zM737 1163v256h305v-256h-305z" />
<glyph unicode="&#xe5;" horiz-adv-x="1372" d="M90 467q0 255 170 398t459 143q134 0 241.5 -17t231.5 -53v-938h-274l-27 86q-118 -121 -307 -121q-95 0 -181 30t-157 89t-113.5 158t-42.5 225zM389 1305q0 90 75.5 137t201.5 47t201 -47t75 -137q0 -92 -75 -140.5t-201 -48.5t-201.5 48.5t-75.5 140.5zM444 481 q0 -125 61 -184t165 -59q106 0 174 51v452q-60 13 -113 13q-126 0 -206.5 -65.5t-80.5 -207.5zM569 1303q0 -35 26.5 -56.5t70.5 -21.5t70 21.5t26 56.5t-26 56t-70 21t-70.5 -21t-26.5 -56z" />
<glyph unicode="&#xe6;" horiz-adv-x="2027" d="M90 467q0 255 170 398t459 143q198 0 358 -70q134 70 312 70q111 0 203 -24.5t155.5 -66.5t107.5 -99t64 -121.5t20 -133.5v-178h-761q32 -166 325 -166q106 0 217.5 20.5t182.5 47.5v-252q-66 -31 -197.5 -50.5t-247.5 -19.5q-316 0 -475 141q-70 -69 -171.5 -105 t-213.5 -36q-77 0 -149 17.5t-138 56.5t-114.5 96t-77.5 142.5t-29 189.5zM444 487q0 -127 60.5 -188t169.5 -61t184 67q-24 83 -24 189q0 134 47 237q-73 23 -148 23q-127 0 -208 -64.5t-81 -202.5zM1174 592h409q-5 182 -205 182q-84 0 -138 -44.5t-66 -137.5z" />
<glyph unicode="&#xe7;" horiz-adv-x="1159" d="M90 487q0 237 162.5 379t445.5 142q190 0 312 -52v-264q-72 34 -135.5 48t-145.5 14q-138 0 -210.5 -73t-72.5 -196q0 -122 73 -194t210 -72q154 0 293 68v-264q-136 -58 -338 -58l-25 -80q191 -27 191 -180q0 -85 -83 -135.5t-237 -50.5q-110 0 -170 28v160 q68 -29 138 -29q96 0 96 56q0 55 -100 55h-66l74 197q-197 45 -304.5 180t-107.5 321z" />
<glyph unicode="&#xe8;" horiz-adv-x="1312" d="M90 494q0 162 77.5 280t208 176t296.5 58q138 0 246 -37t173 -100.5t98.5 -141.5t33.5 -166v-178h-762q32 -166 325 -166q106 0 217.5 20.5t182.5 47.5v-252q-66 -31 -197.5 -50.5t-247.5 -19.5q-108 0 -201.5 17t-177.5 56.5t-143.5 99.5t-94 150.5t-34.5 205.5z M262 1454h381l176 -309h-258zM457 592h409q-5 182 -204 182q-84 0 -139 -44.5t-66 -137.5z" />
<glyph unicode="&#xe9;" horiz-adv-x="1312" d="M90 494q0 162 77.5 280t208 176t296.5 58q138 0 246 -37t173 -100.5t98.5 -141.5t33.5 -166v-178h-762q32 -166 325 -166q106 0 217.5 20.5t182.5 47.5v-252q-66 -31 -197.5 -50.5t-247.5 -19.5q-108 0 -201.5 17t-177.5 56.5t-143.5 99.5t-94 150.5t-34.5 205.5z M457 592h409q-5 182 -204 182q-84 0 -139 -44.5t-66 -137.5zM547 1145l176 309h381l-299 -309h-258z" />
<glyph unicode="&#xea;" horiz-adv-x="1312" d="M90 494q0 162 77.5 280t208 176t296.5 58q138 0 246 -37t173 -100.5t98.5 -141.5t33.5 -166v-178h-762q32 -166 325 -166q106 0 217.5 20.5t182.5 47.5v-252q-66 -31 -197.5 -50.5t-247.5 -19.5q-108 0 -201.5 17t-177.5 56.5t-143.5 99.5t-94 150.5t-34.5 205.5z M256 1145l231 309h373l232 -309h-279l-139 149l-139 -149h-279zM457 592h409q-5 182 -204 182q-84 0 -139 -44.5t-66 -137.5z" />
<glyph unicode="&#xeb;" horiz-adv-x="1312" d="M90 494q0 162 77.5 280t208 176t296.5 58q138 0 246 -37t173 -100.5t98.5 -141.5t33.5 -166v-178h-762q32 -166 325 -166q106 0 217.5 20.5t182.5 47.5v-252q-66 -31 -197.5 -50.5t-247.5 -19.5q-108 0 -201.5 17t-177.5 56.5t-143.5 99.5t-94 150.5t-34.5 205.5z M297 1163v256h305v-256h-305zM457 592h409q-5 182 -204 182q-84 0 -139 -44.5t-66 -137.5zM748 1163v256h305v-256h-305z" />
<glyph unicode="&#xec;" horiz-adv-x="700" d="M-63 1454h380l177 -309h-258zM176 0v973h348v-973h-348z" />
<glyph unicode="&#xed;" horiz-adv-x="700" d="M176 0v973h348v-973h-348zM217 1145l176 309h381l-299 -309h-258z" />
<glyph unicode="&#xee;" horiz-adv-x="700" d="M-68 1145l232 309h373l231 -309h-279l-139 149l-139 -149h-279zM176 0v973h348v-973h-348z" />
<glyph unicode="&#xef;" horiz-adv-x="700" d="M-27 1163v256h306v-256h-306zM176 0v973h348v-973h-348zM424 1163v256h305v-256h-305z" />
<glyph unicode="&#xf0;" d="M90 487q0 236 157.5 378.5t411.5 142.5q98 0 179 -26.5t120 -59.5q-20 107 -104 268l-483 -70v131l428 62q-39 70 -92 141h313q28 -36 65 -100l250 39v-127l-188 -33q162 -331 162 -633q0 -109 -18.5 -200.5t-63.5 -173t-114 -138.5t-175 -90t-242 -33q-276 0 -441 138.5 t-165 383.5zM446 487q0 -124 68.5 -196t181.5 -72t181.5 72t68.5 196q0 123 -68.5 195t-181.5 72t-181.5 -72t-68.5 -195z" />
<glyph unicode="&#xf1;" horiz-adv-x="1429" d="M176 0v973h311l21 -74q63 51 156.5 80t187.5 29q88 0 161.5 -23.5t131 -71t89.5 -126.5t32 -183v-604h-348v575q0 79 -50.5 115.5t-130.5 36.5q-117 0 -213 -51v-676h-348zM303 1145q0 65 13.5 118.5t43 98.5t83 70.5t126.5 25.5q65 0 128 -25t113.5 -50t84.5 -25 t46.5 23.5t12.5 72.5h222q0 -65 -13.5 -118.5t-43.5 -98.5t-83.5 -70.5t-126.5 -25.5q-65 0 -128 25t-113 50t-84 25t-47 -23.5t-13 -72.5h-221z" />
<glyph unicode="&#xf2;" d="M90 487q0 245 165 383t441 138t441.5 -138t165.5 -383t-165.5 -383.5t-441.5 -138.5t-441 138.5t-165 383.5zM283 1454h381l176 -309h-258zM446 487q0 -124 68.5 -196t181.5 -72t181.5 72t68.5 196q0 123 -68.5 195t-181.5 72t-181.5 -72t-68.5 -195z" />
<glyph unicode="&#xf3;" d="M90 487q0 245 165 383t441 138t441.5 -138t165.5 -383t-165.5 -383.5t-441.5 -138.5t-441 138.5t-165 383.5zM446 487q0 -124 68.5 -196t181.5 -72t181.5 72t68.5 196q0 123 -68.5 195t-181.5 72t-181.5 -72t-68.5 -195zM553 1145l176 309h381l-299 -309h-258z" />
<glyph unicode="&#xf4;" d="M90 487q0 245 165 383t441 138t441.5 -138t165.5 -383t-165.5 -383.5t-441.5 -138.5t-441 138.5t-165 383.5zM279 1145l231 309h373l231 -309h-278l-140 149l-139 -149h-278zM446 487q0 -124 68.5 -196t181.5 -72t181.5 72t68.5 196q0 123 -68.5 195t-181.5 72 t-181.5 -72t-68.5 -195z" />
<glyph unicode="&#xf5;" d="M90 487q0 245 165 383t441 138t441.5 -138t165.5 -383t-165.5 -383.5t-441.5 -138.5t-441 138.5t-165 383.5zM260 1145q0 65 13.5 118.5t43 98.5t83 70.5t126.5 25.5q65 0 128 -25t113.5 -50t84.5 -25t46.5 23.5t12.5 72.5h222q0 -65 -13.5 -118.5t-43.5 -98.5 t-83.5 -70.5t-126.5 -25.5q-65 0 -128 25t-113 50t-84 25t-47 -23.5t-13 -72.5h-221zM446 487q0 -124 68.5 -196t181.5 -72t181.5 72t68.5 196q0 123 -68.5 195t-181.5 72t-181.5 -72t-68.5 -195z" />
<glyph unicode="&#xf6;" d="M90 487q0 245 165 383t441 138t441.5 -138t165.5 -383t-165.5 -383.5t-441.5 -138.5t-441 138.5t-165 383.5zM319 1163v256h306v-256h-306zM446 487q0 -124 68.5 -196t181.5 -72t181.5 72t68.5 196q0 123 -68.5 195t-181.5 72t-181.5 -72t-68.5 -195zM770 1163v256h305 v-256h-305z" />
<glyph unicode="&#xf8;" d="M90 487q0 245 165 383t441 138q170 0 308 -58l131 152l108 -94l-115 -131q175 -142 175 -390q0 -245 -165.5 -383.5t-441.5 -138.5q-171 0 -309 58l-131 -152l-109 94l115 133q-172 136 -172 389zM446 487q0 -79 31 -143l334 385q-62 25 -115 25q-113 0 -181.5 -72 t-68.5 -195zM580 244q55 -25 116 -25q113 0 181.5 72t68.5 196q0 82 -31 142z" />
<glyph unicode="&#xf9;" horiz-adv-x="1370" d="M154 354v619h348v-598q0 -68 40.5 -102.5t112.5 -34.5q108 0 191 69v666h348v-973h-276l-27 86q-142 -121 -334 -121q-193 0 -298 101t-105 288zM258 1454h381l176 -309h-258z" />
<glyph unicode="&#xfa;" horiz-adv-x="1370" d="M154 354v619h348v-598q0 -68 40.5 -102.5t112.5 -34.5q108 0 191 69v666h348v-973h-276l-27 86q-142 -121 -334 -121q-193 0 -298 101t-105 288zM541 1145l176 309h381l-299 -309h-258z" />
<glyph unicode="&#xfb;" horiz-adv-x="1370" d="M154 354v619h348v-598q0 -68 40.5 -102.5t112.5 -34.5q108 0 191 69v666h348v-973h-276l-27 86q-142 -121 -334 -121q-193 0 -298 101t-105 288zM256 1145l231 309h373l232 -309h-279l-139 149l-139 -149h-279z" />
<glyph unicode="&#xfc;" horiz-adv-x="1370" d="M154 354v619h348v-598q0 -68 40.5 -102.5t112.5 -34.5q108 0 191 69v666h348v-973h-276l-27 86q-142 -121 -334 -121q-193 0 -298 101t-105 288zM297 1163v256h305v-256h-305zM748 1163v256h305v-256h-305z" />
<glyph unicode="&#xfd;" horiz-adv-x="1370" d="M154 389v584h348v-563q0 -68 40.5 -103t112.5 -35q107 0 191 70v631h348v-938q0 -120 -45.5 -210.5t-126 -143.5t-181 -79t-220.5 -26q-128 0 -225.5 18.5t-198.5 57.5v278q69 -40 179.5 -71t211.5 -31q121 0 187.5 44.5t66.5 156.5v53q-124 -82 -285 -82 q-193 0 -298 101t-105 288zM541 1145l176 309h381l-299 -309h-258z" />
<glyph unicode="&#xfe;" horiz-adv-x="1359" d="M176 -389v1843h340v-493q109 47 246 47q99 0 187 -28t161.5 -85.5t116.5 -156.5t43 -230q0 -239 -170 -391t-451 -152q-78 0 -133 8v-362h-340zM516 236q50 -17 121 -17q125 0 201.5 65t76.5 205q0 127 -62 189.5t-163 62.5q-103 0 -174 -49v-456z" />
<glyph unicode="&#xff;" horiz-adv-x="1370" d="M154 389v584h348v-563q0 -68 40.5 -103t112.5 -35q107 0 191 70v631h348v-938q0 -120 -45.5 -210.5t-126 -143.5t-181 -79t-220.5 -26q-128 0 -225.5 18.5t-198.5 57.5v278q69 -40 179.5 -71t211.5 -31q121 0 187.5 44.5t66.5 156.5v53q-124 -82 -285 -82 q-193 0 -298 101t-105 288zM297 1163v256h305v-256h-305zM748 1163v256h305v-256h-305z" />
<glyph unicode="&#x100;" horiz-adv-x="1605" d="M-18 0l657 1384h334l651 -1384h-412l-106 238h-657l-107 -238h-360zM461 1577v207h684v-207h-684zM563 496h428l-213 479z" />
<glyph unicode="&#x101;" horiz-adv-x="1372" d="M90 467q0 255 170 398t459 143q134 0 241.5 -17t231.5 -53v-938h-274l-27 86q-118 -121 -307 -121q-95 0 -181 30t-157 89t-113.5 158t-42.5 225zM322 1196v207h684v-207h-684zM444 481q0 -125 61 -184t165 -59q106 0 174 51v452q-60 13 -113 13q-126 0 -206.5 -65.5 t-80.5 -207.5z" />
<glyph unicode="&#x102;" horiz-adv-x="1605" d="M-18 0l657 1384h334l651 -1384h-412l-106 238h-657l-107 -238h-360zM418 1833h203q22 -127 182 -127t182 127h203q-7 -153 -110.5 -237.5t-274.5 -84.5t-274.5 84.5t-110.5 237.5zM563 496h428l-213 479z" />
<glyph unicode="&#x103;" horiz-adv-x="1372" d="M90 467q0 255 170 398t459 143q134 0 241.5 -17t231.5 -53v-938h-274l-27 86q-118 -121 -307 -121q-95 0 -181 30t-157 89t-113.5 158t-42.5 225zM279 1454h202q22 -127 183 -127q160 0 182 127h203q-7 -153 -110.5 -237t-274.5 -84t-274.5 84t-110.5 237zM444 481 q0 -125 61 -184t165 -59q106 0 174 51v452q-60 13 -113 13q-126 0 -206.5 -65.5t-80.5 -207.5z" />
<glyph unicode="&#x104;" horiz-adv-x="1605" d="M-18 0l657 1384h334l651 -1384q-81 -52 -120.5 -97t-39.5 -106q0 -36 24.5 -54.5t65.5 -18.5q55 0 115 26v-186q-71 -31 -180 -31q-127 0 -201 56t-74 159q0 82 43.5 147.5t120.5 104.5h-166l-106 238h-657l-107 -238h-360zM563 496h428l-213 479z" />
<glyph unicode="&#x105;" horiz-adv-x="1372" d="M90 467q0 255 170 398t459 143q134 0 241.5 -17t231.5 -53v-938q-81 -52 -120.5 -97t-39.5 -106q0 -36 24.5 -54.5t65.5 -18.5q55 0 115 26v-186q-71 -31 -180 -31q-127 0 -201 56t-74 159q0 82 43.5 147.5t120.5 104.5h-28l-27 86q-118 -121 -307 -121q-95 0 -181 30 t-157 89t-113.5 158t-42.5 225zM444 481q0 -125 61 -184t165 -59q106 0 174 51v452q-60 13 -113 13q-126 0 -206.5 -65.5t-80.5 -207.5z" />
<glyph unicode="&#x106;" horiz-adv-x="1525" d="M109 692q0 156 56.5 289t161.5 230.5t265.5 152.5t359.5 55q137 0 261 -21.5t190 -54.5v-276q-69 34 -186 56t-242 22q-220 0 -347.5 -118t-127.5 -335t127.5 -335.5t347.5 -118.5q113 0 229.5 24t208.5 70v-277q-195 -90 -461 -90q-199 0 -359.5 55t-265.5 152.5 t-161.5 230.5t-56.5 289zM815 1524l176 309h381l-299 -309h-258z" />
<glyph unicode="&#x107;" horiz-adv-x="1159" d="M90 487q0 237 162.5 379t445.5 142q190 0 312 -52v-264q-72 34 -135.5 48t-145.5 14q-138 0 -210.5 -73t-72.5 -196q0 -122 73 -194t210 -72q154 0 293 68v-264q-136 -58 -334 -58q-142 0 -257 40.5t-188.5 111.5t-113 165.5t-39.5 204.5zM453 1145l176 309h381 l-299 -309h-258z" />
<glyph unicode="&#x108;" horiz-adv-x="1525" d="M109 692q0 156 56.5 289t161.5 230.5t265.5 152.5t359.5 55q137 0 261 -21.5t190 -54.5v-276q-69 34 -186 56t-242 22q-220 0 -347.5 -118t-127.5 -335t127.5 -335.5t347.5 -118.5q113 0 229.5 24t208.5 70v-277q-195 -90 -461 -90q-199 0 -359.5 55t-265.5 152.5 t-161.5 230.5t-56.5 289zM418 1524l231 309h373l231 -309h-278l-139 149l-140 -149h-278z" />
<glyph unicode="&#x109;" horiz-adv-x="1159" d="M90 487q0 237 162.5 379t445.5 142q190 0 312 -52v-264q-72 34 -135.5 48t-145.5 14q-138 0 -210.5 -73t-72.5 -196q0 -122 73 -194t210 -72q154 0 293 68v-264q-136 -58 -334 -58q-142 0 -257 40.5t-188.5 111.5t-113 165.5t-39.5 204.5zM174 1145l232 309h372l232 -309 h-279l-139 149l-139 -149h-279z" />
<glyph unicode="&#x10a;" horiz-adv-x="1525" d="M109 692q0 156 56.5 289t161.5 230.5t265.5 152.5t359.5 55q137 0 261 -21.5t190 -54.5v-276q-69 34 -186 56t-242 22q-220 0 -347.5 -118t-127.5 -335t127.5 -335.5t347.5 -118.5q113 0 229.5 24t208.5 70v-277q-195 -90 -461 -90q-199 0 -359.5 55t-265.5 152.5 t-161.5 230.5t-56.5 289zM668 1542v256h331v-256h-331z" />
<glyph unicode="&#x10b;" horiz-adv-x="1159" d="M90 487q0 237 162.5 379t445.5 142q190 0 312 -52v-264q-72 34 -135.5 48t-145.5 14q-138 0 -210.5 -73t-72.5 -196q0 -122 73 -194t210 -72q154 0 293 68v-264q-136 -58 -334 -58q-142 0 -257 40.5t-188.5 111.5t-113 165.5t-39.5 204.5zM426 1163v256h332v-256h-332z " />
<glyph unicode="&#x10c;" horiz-adv-x="1525" d="M109 692q0 156 56.5 289t161.5 230.5t265.5 152.5t359.5 55q137 0 261 -21.5t190 -54.5v-276q-69 34 -186 56t-242 22q-220 0 -347.5 -118t-127.5 -335t127.5 -335.5t347.5 -118.5q113 0 229.5 24t208.5 70v-277q-195 -90 -461 -90q-199 0 -359.5 55t-265.5 152.5 t-161.5 230.5t-56.5 289zM418 1833h278l140 -150l139 150h278l-231 -309h-373z" />
<glyph unicode="&#x10d;" horiz-adv-x="1159" d="M90 487q0 237 162.5 379t445.5 142q190 0 312 -52v-264q-72 34 -135.5 48t-145.5 14q-138 0 -210.5 -73t-72.5 -196q0 -122 73 -194t210 -72q154 0 293 68v-264q-136 -58 -334 -58q-142 0 -257 40.5t-188.5 111.5t-113 165.5t-39.5 204.5zM174 1454h279l139 -149l139 149 h279l-232 -309h-372z" />
<glyph unicode="&#x10e;" horiz-adv-x="1781" d="M231 0v1384h586q263 0 452.5 -74.5t296.5 -231.5t107 -386t-107 -386t-296.5 -231.5t-452.5 -74.5h-586zM477 1833h279l139 -150l139 150h279l-232 -309h-372zM608 268h209q465 0 465 426q0 422 -465 422h-209v-848z" />
<glyph unicode="&#x10f;" horiz-adv-x="1599" d="M90 467q0 255 170 398t459 143q57 0 125 -7v453h348v-1454h-274l-27 86q-118 -121 -307 -121q-95 0 -181 30t-157 89t-113.5 158t-42.5 225zM444 481q0 -125 61 -184t165 -59q106 0 174 51v452q-60 13 -113 13q-126 0 -206.5 -65.5t-80.5 -207.5zM1262 1128 q108 67 108 181q0 79 -35 145h240q24 -61 24 -141q0 -108 -63 -189.5t-176 -126.5z" />
<glyph unicode="&#x110;" horiz-adv-x="1781" d="M43 588v248h188v548h586q263 0 452.5 -74.5t296.5 -231.5t107 -386t-107 -386t-296.5 -231.5t-452.5 -74.5h-586v588h-188zM608 268h209q465 0 465 426q0 422 -465 422h-209v-280h344v-248h-344v-320z" />
<glyph unicode="&#x111;" horiz-adv-x="1368" d="M90 467q0 255 170 398t459 143q57 0 125 -7v146h-400v162h400v145h348v-145h180v-162h-180v-1147h-274l-27 86q-118 -121 -307 -121q-95 0 -181 30t-157 89t-113.5 158t-42.5 225zM444 481q0 -125 61 -184t165 -59q106 0 174 51v452q-60 13 -113 13q-126 0 -206.5 -65.5 t-80.5 -207.5z" />
<glyph unicode="&#x112;" horiz-adv-x="1474" d="M211 375v1009h1098v-268h-721v-282h639v-269h-639v-190q0 -56 24 -81.5t86 -25.5h637v-268h-704q-216 0 -318 94t-102 281zM418 1577v207h684v-207h-684z" />
<glyph unicode="&#x113;" horiz-adv-x="1312" d="M90 494q0 162 77.5 280t208 176t296.5 58q138 0 246 -37t173 -100.5t98.5 -141.5t33.5 -166v-178h-762q32 -166 325 -166q106 0 217.5 20.5t182.5 47.5v-252q-66 -31 -197.5 -50.5t-247.5 -19.5q-108 0 -201.5 17t-177.5 56.5t-143.5 99.5t-94 150.5t-34.5 205.5z M332 1196v207h684v-207h-684zM457 592h409q-5 182 -204 182q-84 0 -139 -44.5t-66 -137.5z" />
<glyph unicode="&#x116;" horiz-adv-x="1474" d="M211 375v1009h1098v-268h-721v-282h639v-269h-639v-190q0 -56 24 -81.5t86 -25.5h637v-268h-704q-216 0 -318 94t-102 281zM594 1544v256h332v-256h-332z" />
<glyph unicode="&#x117;" horiz-adv-x="1312" d="M90 494q0 162 77.5 280t208 176t296.5 58q138 0 246 -37t173 -100.5t98.5 -141.5t33.5 -166v-178h-762q32 -166 325 -166q106 0 217.5 20.5t182.5 47.5v-252q-66 -31 -197.5 -50.5t-247.5 -19.5q-108 0 -201.5 17t-177.5 56.5t-143.5 99.5t-94 150.5t-34.5 205.5z M457 592h409q-5 182 -204 182q-84 0 -139 -44.5t-66 -137.5zM508 1163v256h332v-256h-332z" />
<glyph unicode="&#x118;" horiz-adv-x="1474" d="M211 375v1009h1098v-268h-721v-282h639v-269h-639v-190q0 -56 24 -81.5t86 -25.5h637v-268h-45q-81 -52 -120.5 -97t-39.5 -106q0 -36 25 -54.5t66 -18.5q54 0 114 26v-186q-71 -31 -180 -31q-127 0 -200.5 56t-73.5 159q0 82 43 147.5t120 104.5h-413q-216 0 -318 94 t-102 281z" />
<glyph unicode="&#x119;" horiz-adv-x="1312" d="M90 494q0 162 77.5 280t208 176t296.5 58q138 0 246 -37t173 -100.5t98.5 -141.5t33.5 -166v-178h-762q32 -166 325 -166q106 0 217.5 20.5t182.5 47.5v-252q-48 -23 -115 -35q-80 -52 -119 -97t-39 -106q0 -36 25 -54.5t66 -18.5q54 0 114 26v-186q-71 -31 -180 -31 q-127 0 -200.5 56t-73.5 159q0 134 106 217h-29q-108 0 -201.5 17t-177.5 56.5t-143.5 99.5t-94 150.5t-34.5 205.5zM457 592h409q-5 182 -204 182q-84 0 -139 -44.5t-66 -137.5z" />
<glyph unicode="&#x11a;" horiz-adv-x="1474" d="M211 375v1009h1098v-268h-721v-282h639v-269h-639v-190q0 -56 24 -81.5t86 -25.5h637v-268h-704q-216 0 -318 94t-102 281zM342 1833h279l139 -150l139 150h279l-232 -309h-373z" />
<glyph unicode="&#x11b;" horiz-adv-x="1312" d="M90 494q0 162 77.5 280t208 176t296.5 58q138 0 246 -37t173 -100.5t98.5 -141.5t33.5 -166v-178h-762q32 -166 325 -166q106 0 217.5 20.5t182.5 47.5v-252q-66 -31 -197.5 -50.5t-247.5 -19.5q-108 0 -201.5 17t-177.5 56.5t-143.5 99.5t-94 150.5t-34.5 205.5z M256 1454h279l139 -149l139 149h279l-232 -309h-373zM457 592h409q-5 182 -204 182q-84 0 -139 -44.5t-66 -137.5z" />
<glyph unicode="&#x11c;" horiz-adv-x="1892" d="M109 692q0 157 52.5 282t141 207t211 136.5t256 78t283.5 23.5q338 0 598 -98v-287q-116 46 -271 78.5t-319 32.5q-91 0 -169.5 -13t-152.5 -45t-125.5 -82t-82.5 -130t-31 -183q0 -98 29 -176.5t77.5 -129.5t115.5 -85t140.5 -48.5t155.5 -14.5q80 0 167 13.5t144 35.5 v258h-368v278h735v-694q-139 -74 -330 -119t-373 -45q-142 0 -270 26t-241 82.5t-195.5 140t-130 206t-47.5 272.5zM528 1524l232 309h373l231 -309h-279l-139 149l-139 -149h-279z" />
<glyph unicode="&#x11d;" horiz-adv-x="1368" d="M90 481q0 242 171 384.5t458 142.5q134 0 241.5 -17t231.5 -53v-903q0 -229 -157.5 -344t-432.5 -115q-269 0 -450 78v278q204 -102 415 -102q130 0 202.5 45.5t72.5 153.5v43q-92 -72 -258 -72q-76 0 -145.5 16t-133.5 53t-111.5 91.5t-75.5 136.5t-28 184zM266 1145 l232 309h372l232 -309h-279l-139 149l-139 -149h-279zM444 500q0 -121 60 -180.5t168 -59.5q106 0 172 51v430q-63 13 -117 13q-59 0 -108 -13.5t-89.5 -42t-63 -79t-22.5 -119.5z" />
<glyph unicode="&#x11e;" horiz-adv-x="1892" d="M109 692q0 157 52.5 282t141 207t211 136.5t256 78t283.5 23.5q338 0 598 -98v-287q-116 46 -271 78.5t-319 32.5q-91 0 -169.5 -13t-152.5 -45t-125.5 -82t-82.5 -130t-31 -183q0 -98 29 -176.5t77.5 -129.5t115.5 -85t140.5 -48.5t155.5 -14.5q80 0 167 13.5t144 35.5 v258h-368v278h735v-694q-139 -74 -330 -119t-373 -45q-142 0 -270 26t-241 82.5t-195.5 140t-130 206t-47.5 272.5zM561 1833h203q22 -127 182 -127t182 127h203q-7 -153 -110.5 -237.5t-274.5 -84.5t-274.5 84.5t-110.5 237.5z" />
<glyph unicode="&#x11f;" horiz-adv-x="1368" d="M90 481q0 242 171 384.5t458 142.5q134 0 241.5 -17t231.5 -53v-903q0 -229 -157.5 -344t-432.5 -115q-269 0 -450 78v278q204 -102 415 -102q130 0 202.5 45.5t72.5 153.5v43q-92 -72 -258 -72q-76 0 -145.5 16t-133.5 53t-111.5 91.5t-75.5 136.5t-28 184zM299 1452 h203q22 -127 182 -127t182 127h203q-7 -153 -110.5 -237.5t-274.5 -84.5t-274.5 84.5t-110.5 237.5zM444 500q0 -121 60 -180.5t168 -59.5q106 0 172 51v430q-63 13 -117 13q-59 0 -108 -13.5t-89.5 -42t-63 -79t-22.5 -119.5z" />
<glyph unicode="&#x120;" horiz-adv-x="1892" d="M109 692q0 157 52.5 282t141 207t211 136.5t256 78t283.5 23.5q338 0 598 -98v-287q-116 46 -271 78.5t-319 32.5q-91 0 -169.5 -13t-152.5 -45t-125.5 -82t-82.5 -130t-31 -183q0 -98 29 -176.5t77.5 -129.5t115.5 -85t140.5 -48.5t155.5 -14.5q80 0 167 13.5t144 35.5 v258h-368v278h735v-694q-139 -74 -330 -119t-373 -45q-142 0 -270 26t-241 82.5t-195.5 140t-130 206t-47.5 272.5zM780 1544v256h332v-256h-332z" />
<glyph unicode="&#x121;" horiz-adv-x="1368" d="M90 481q0 242 171 384.5t458 142.5q134 0 241.5 -17t231.5 -53v-903q0 -229 -157.5 -344t-432.5 -115q-269 0 -450 78v278q204 -102 415 -102q130 0 202.5 45.5t72.5 153.5v43q-92 -72 -258 -72q-76 0 -145.5 16t-133.5 53t-111.5 91.5t-75.5 136.5t-28 184zM444 500 q0 -121 60 -180.5t168 -59.5q106 0 172 51v430q-63 13 -117 13q-59 0 -108 -13.5t-89.5 -42t-63 -79t-22.5 -119.5zM518 1163v256h332v-256h-332z" />
<glyph unicode="&#x122;" horiz-adv-x="1892" d="M109 692q0 157 52.5 282t141 207t211 136.5t256 78t283.5 23.5q338 0 598 -98v-287q-116 46 -271 78.5t-319 32.5q-91 0 -169.5 -13t-152.5 -45t-125.5 -82t-82.5 -130t-31 -183q0 -98 29 -176.5t77.5 -129.5t115.5 -85t140.5 -48.5t155.5 -14.5q80 0 167 13.5t144 35.5 v258h-368v278h735v-694q-139 -74 -330 -119t-373 -45q-142 0 -270 26t-241 82.5t-195.5 140t-130 206t-47.5 272.5zM715 -369q64 24 97.5 56.5t33.5 83.5q0 55 -27 104h271q24 -55 24 -115q0 -114 -88.5 -191t-234.5 -101z" />
<glyph unicode="&#x123;" horiz-adv-x="1368" d="M90 481q0 242 171 384.5t458 142.5q134 0 241.5 -17t231.5 -53v-903q0 -229 -157.5 -344t-432.5 -115q-269 0 -450 78v278q204 -102 415 -102q130 0 202.5 45.5t72.5 153.5v43q-92 -72 -258 -72q-76 0 -145.5 16t-133.5 53t-111.5 91.5t-75.5 136.5t-28 184zM444 500 q0 -121 60 -180.5t168 -59.5q106 0 172 51v430q-63 13 -117 13q-59 0 -108 -13.5t-89.5 -42t-63 -79t-22.5 -119.5zM539 1233q0 114 88.5 191.5t234.5 101.5l76 -164q-64 -24 -97.5 -56t-33.5 -83q0 -55 27 -105h-271q-24 55 -24 115z" />
<glyph unicode="&#x124;" horiz-adv-x="1910" d="M231 0v1384h377v-538h695v538h376v-1384h-376v567h-695v-567h-377zM537 1524l231 309h373l231 -309h-278l-140 149l-139 -149h-278z" />
<glyph unicode="&#x125;" horiz-adv-x="1431" d="M-63 1524l231 309h373l231 -309h-278l-140 149l-139 -149h-278zM178 0v1454h348v-541q64 44 152.5 69.5t175.5 25.5q88 0 161.5 -23.5t131 -71t89.5 -126.5t32 -183v-604h-348v575q0 79 -50.5 115.5t-130.5 36.5q-117 0 -213 -51v-676h-348z" />
<glyph unicode="&#x126;" horiz-adv-x="1910" d="M43 1038v174h188v172h377v-172h695v172h376v-172h189v-174h-189v-1038h-376v567h-695v-567h-377v1038h-188zM608 846h695v192h-695v-192z" />
<glyph unicode="&#x127;" horiz-adv-x="1431" d="M0 1145v164h178v145h348v-145h400v-164h-400v-232q64 44 152.5 69.5t175.5 25.5q88 0 161.5 -23.5t131 -71t89.5 -126.5t32 -183v-604h-348v575q0 79 -50.5 115.5t-130.5 36.5q-117 0 -213 -51v-676h-348v1145h-178z" />
<glyph unicode="&#x12a;" horiz-adv-x="839" d="M78 1573v207h684v-207h-684zM231 0v1384h377v-1384h-377z" />
<glyph unicode="&#x12b;" horiz-adv-x="700" d="M8 1196v207h684v-207h-684zM176 0v973h348v-973h-348z" />
<glyph unicode="&#x12e;" horiz-adv-x="839" d="M199 -252q0 82 43 147.5t120 104.5h-131v1384h377v-1384q-81 -52 -120 -97t-39 -106q0 -36 24.5 -54.5t65.5 -18.5q54 0 114 26v-186q-71 -31 -180 -31q-127 0 -200.5 56t-73.5 159z" />
<glyph unicode="&#x12f;" horiz-adv-x="700" d="M115 -252q0 82 43.5 147.5t120.5 104.5h-103v973h348v-973q-81 -52 -120 -97t-39 -106q0 -36 24.5 -54.5t65.5 -18.5q54 0 114 26v-186q-71 -31 -180 -31q-127 0 -200.5 56t-73.5 159zM176 1155v268h348v-268h-348z" />
<glyph unicode="&#x130;" horiz-adv-x="839" d="M231 0v1384h377v-1384h-377zM254 1544v256h332v-256h-332z" />
<glyph unicode="&#x131;" horiz-adv-x="700" d="M176 0v973h348v-973h-348z" />
<glyph unicode="&#x134;" horiz-adv-x="1044" d="M80 14v277q124 -53 225 -53q82 0 116 36.5t34 122.5v987h376v-974q0 -224 -120 -334.5t-349 -110.5q-157 0 -282 49zM227 1524l232 309h372l232 -309h-279l-139 149l-139 -149h-279z" />
<glyph unicode="&#x135;" horiz-adv-x="700" d="M-68 1145l232 309h373l231 -309h-279l-139 149l-139 -149h-279zM-31 -125q66 -27 123 -27q44 0 64 20.5t20 70.5v1034h348v-1034q0 -164 -87 -263.5t-255 -99.5q-115 0 -213 35v264z" />
<glyph unicode="&#x136;" horiz-adv-x="1669" d="M231 0v1384h377v-571l606 571h439l-703 -661l719 -723h-481l-580 588v-588h-377zM655 -369q64 24 97.5 56.5t33.5 83.5q0 56 -26 104h270q25 -57 25 -115q0 -114 -89 -191t-235 -101z" />
<glyph unicode="&#x137;" horiz-adv-x="1316" d="M176 0v1454h348v-833l385 352h410l-475 -422l479 -551h-426l-373 436v-436h-348zM496 -369q64 24 97.5 56.5t33.5 83.5q0 55 -27 104h270q25 -57 25 -115q0 -114 -89 -191t-235 -101z" />
<glyph unicode="&#x139;" horiz-adv-x="1331" d="M211 375v1009h377v-1009q0 -56 24 -81.5t86 -25.5h596v-268h-663q-216 0 -318 94t-102 281zM270 1524l176 309h381l-299 -309h-258z" />
<glyph unicode="&#x13a;" horiz-adv-x="761" d="M158 311v1143h348v-1126q0 -50 20 -70t64 -20q60 0 123 26v-266q-92 -33 -213 -33q-182 0 -262 90t-80 256zM199 1526l176 309h381l-299 -309h-258z" />
<glyph unicode="&#x13b;" horiz-adv-x="1331" d="M211 375v1009h377v-1009q0 -56 24 -81.5t86 -25.5h596v-268h-663q-216 0 -318 94t-102 281zM573 -369q64 24 98 56.5t34 83.5q0 55 -27 104h270q25 -57 25 -115q0 -114 -89 -191t-235 -101z" />
<glyph unicode="&#x13c;" horiz-adv-x="761" d="M158 311v1143h348v-1126q0 -50 20 -70t64 -20q60 0 123 26v-266q-92 -33 -213 -33q-182 0 -262 90t-80 256zM211 -369q64 24 97.5 56.5t33.5 83.5q0 55 -27 104h271q24 -55 24 -115q0 -114 -88.5 -191t-234.5 -101z" />
<glyph unicode="&#x13d;" horiz-adv-x="1331" d="M211 375v1009h377v-1009q0 -56 24 -81.5t86 -25.5h596v-268h-663q-216 0 -318 94t-102 281zM752 1020q120 70 120 203q0 74 -38 161h268q26 -64 26 -157q0 -122 -69.5 -211.5t-196.5 -141.5z" />
<glyph unicode="&#x13e;" horiz-adv-x="915" d="M158 311v1143h348v-1126q0 -50 20 -70t64 -20q60 0 123 26v-266q-92 -33 -213 -33q-182 0 -262 90t-80 256zM578 1128q108 67 108 181q0 79 -35 145h240q24 -61 24 -141q0 -108 -63 -189.5t-176 -126.5z" />
<glyph unicode="&#x141;" horiz-adv-x="1345" d="M37 498v233l188 66v587h377v-454l354 127v-234l-354 -127v-321q0 -56 24.5 -81.5t86.5 -25.5h596v-268h-664q-216 0 -318 94t-102 281v188z" />
<glyph unicode="&#x142;" horiz-adv-x="761" d="M16 547v246l142 57v604h348v-459l160 66v-246l-160 -65v-422q0 -50 20 -70t64 -20q60 0 123 26v-266q-92 -33 -213 -33q-182 0 -262 90t-80 256v293z" />
<glyph unicode="&#x143;" horiz-adv-x="1886" d="M231 0v1384h322l735 -856v856h367v-1384h-320l-737 856v-856h-367zM840 1524l176 309h381l-299 -309h-258z" />
<glyph unicode="&#x144;" horiz-adv-x="1429" d="M176 0v973h311l21 -74q63 51 156.5 80t187.5 29q88 0 161.5 -23.5t131 -71t89.5 -126.5t32 -183v-604h-348v575q0 79 -50.5 115.5t-130.5 36.5q-117 0 -213 -51v-676h-348zM567 1145l176 309h381l-299 -309h-258z" />
<glyph unicode="&#x145;" horiz-adv-x="1886" d="M231 0v1384h322l735 -856v856h367v-1384h-320l-737 856v-856h-367zM739 -369q64 24 97.5 56.5t33.5 83.5q0 56 -26 104h270q25 -57 25 -115q0 -114 -89 -191t-235 -101z" />
<glyph unicode="&#x146;" horiz-adv-x="1429" d="M176 0v973h311l21 -74q63 51 156.5 80t187.5 29q88 0 161.5 -23.5t131 -71t89.5 -126.5t32 -183v-604h-348v575q0 79 -50.5 115.5t-130.5 36.5q-117 0 -213 -51v-676h-348zM455 -369q64 24 97.5 56.5t33.5 83.5q0 55 -27 104h270q25 -57 25 -115q0 -114 -89 -191 t-235 -101z" />
<glyph unicode="&#x147;" horiz-adv-x="1886" d="M231 0v1384h322l735 -856v856h367v-1384h-320l-737 856v-856h-367zM524 1833h279l139 -150l139 150h279l-232 -309h-372z" />
<glyph unicode="&#x148;" horiz-adv-x="1429" d="M176 0v973h311l21 -74q63 51 156.5 80t187.5 29q88 0 161.5 -23.5t131 -71t89.5 -126.5t32 -183v-604h-348v575q0 79 -50.5 115.5t-130.5 36.5q-117 0 -213 -51v-676h-348zM291 1454h278l140 -149l139 149h278l-231 -309h-373z" />
<glyph unicode="&#x14c;" horiz-adv-x="1945" d="M109 692q0 224 109 389.5t303.5 251.5t451.5 86t451.5 -86t303.5 -251.5t109 -389.5t-109 -389.5t-303.5 -251.5t-451.5 -86t-451.5 86t-303.5 251.5t-109 389.5zM500 692q0 -209 123 -331.5t350 -122.5t350 122.5t123 331.5q0 208 -123 330.5t-350 122.5t-350 -122.5 t-123 -330.5zM631 1577v207h684v-207h-684z" />
<glyph unicode="&#x14d;" d="M90 487q0 245 165 383t441 138t441.5 -138t165.5 -383t-165.5 -383.5t-441.5 -138.5t-441 138.5t-165 383.5zM354 1196v207h684v-207h-684zM446 487q0 -124 68.5 -196t181.5 -72t181.5 72t68.5 196q0 123 -68.5 195t-181.5 72t-181.5 -72t-68.5 -195z" />
<glyph unicode="&#x150;" horiz-adv-x="1945" d="M109 692q0 224 109 389.5t303.5 251.5t451.5 86t451.5 -86t303.5 -251.5t109 -389.5t-109 -389.5t-303.5 -251.5t-451.5 -86t-451.5 86t-303.5 251.5t-109 389.5zM500 692q0 -209 123 -331.5t350 -122.5t350 122.5t123 331.5q0 208 -123 330.5t-350 122.5t-350 -122.5 t-123 -330.5zM680 1524l119 309h301l-195 -309h-225zM1024 1524l195 309h319l-274 -309h-240z" />
<glyph unicode="&#x151;" d="M90 487q0 245 165 383t441 138t441.5 -138t165.5 -383t-165.5 -383.5t-441.5 -138.5t-441 138.5t-165 383.5zM412 1145l118 309h301l-194 -309h-225zM446 487q0 -124 68.5 -196t181.5 -72t181.5 72t68.5 196q0 123 -68.5 195t-181.5 72t-181.5 -72t-68.5 -195zM756 1145 l194 309h320l-275 -309h-239z" />
<glyph unicode="&#x152;" horiz-adv-x="2746" d="M109 694q0 224 109 389t303.5 250.5t451.5 85.5q159 0 298 -41.5t222 -113.5v120h1087v-268h-720v-282h639v-269h-639v-190q0 -56 24 -81.5t86 -25.5h637v-268h-704q-279 0 -365 164q-84 -93 -233.5 -146t-331.5 -53q-257 0 -451.5 86.5t-303.5 252.5t-109 390zM500 694 q0 -209 123 -332.5t350 -123.5t350 123.5t123 332.5q0 208 -122.5 329.5t-350.5 121.5t-350.5 -121.5t-122.5 -329.5z" />
<glyph unicode="&#x153;" horiz-adv-x="2162" d="M90 487q0 245 165 383t441 138q249 0 408 -140q155 140 416 140q138 0 246 -37t173 -100.5t98.5 -141.5t33.5 -166v-178h-762q32 -166 325 -166q106 0 217.5 20.5t182.5 47.5v-252q-66 -31 -197.5 -50.5t-247.5 -19.5q-316 0 -481 139q-154 -139 -412 -139 q-276 0 -441 138.5t-165 383.5zM446 487q0 -124 68.5 -196t181.5 -72t181.5 72t68.5 196q0 123 -68.5 195t-181.5 72t-181.5 -72t-68.5 -195zM1305 592h409q-5 182 -205 182q-84 0 -138 -44.5t-66 -137.5z" />
<glyph unicode="&#x154;" horiz-adv-x="1634" d="M231 0v1384h621q201 0 350.5 -52t233.5 -156t84 -250q0 -153 -93 -253.5t-264 -142.5l383 -530h-424l-317 463h-197v-463h-377zM608 731h221q64 0 113.5 8.5t93.5 28.5t68 59.5t24 96.5t-24 96.5t-68 59.5t-93.5 28t-113.5 8h-221v-385zM702 1524l177 309h381l-299 -309 h-259z" />
<glyph unicode="&#x155;" horiz-adv-x="935" d="M176 0v973h311l21 -123q45 35 75 55.5t79.5 47.5t105 40.5t117.5 14.5v-314q-229 0 -361 -80v-614h-348zM328 1145l176 309h381l-299 -309h-258z" />
<glyph unicode="&#x158;" horiz-adv-x="1634" d="M231 0v1384h621q201 0 350.5 -52t233.5 -156t84 -250q0 -153 -93 -253.5t-264 -142.5l383 -530h-424l-317 463h-197v-463h-377zM442 1833h279l139 -150l139 150h279l-231 -309h-373zM608 731h221q64 0 113.5 8.5t93.5 28.5t68 59.5t24 96.5t-24 96.5t-68 59.5t-93.5 28 t-113.5 8h-221v-385z" />
<glyph unicode="&#x159;" horiz-adv-x="935" d="M119 1454h278l140 -149l139 149h278l-231 -309h-373zM176 0v973h311l21 -123q45 35 75 55.5t79.5 47.5t105 40.5t117.5 14.5v-314q-229 0 -361 -80v-614h-348z" />
<glyph unicode="&#x15a;" horiz-adv-x="1361" d="M141 985q0 137 80 235.5t222.5 148.5t332.5 50q239 0 410 -61v-289q-167 76 -400 76q-254 0 -254 -139q0 -33 24 -57.5t64.5 -41t93.5 -31.5t111.5 -31.5t116.5 -37t111 -53.5t93.5 -75.5t64.5 -107t24 -145.5q0 -97 -33.5 -175.5t-90 -131t-133.5 -88.5t-162 -52 t-179 -16q-128 0 -254 25t-221 65v279q92 -41 211 -67.5t229 -26.5q242 0 242 149q0 47 -39 79.5t-101 53t-136.5 40.5t-149.5 50.5t-137 74t-101 120.5t-39 180zM541 1524l176 309h381l-299 -309h-258z" />
<glyph unicode="&#x15b;" horiz-adv-x="1171" d="M98 666q0 89 42 156.5t116.5 107t169.5 59t209 19.5q222 0 381 -47v-252q-72 31 -176 48t-201 17q-86 0 -139.5 -19t-53.5 -59q0 -22 21 -36.5t57 -22t82.5 -13t98 -13t102.5 -18.5t97.5 -32.5t82.5 -52t57 -80t21 -113.5q0 -90 -40.5 -158t-112.5 -109.5t-165 -62 t-204 -20.5q-233 0 -422 74v260q185 -80 420 -80q176 0 176 74q0 28 -34 45t-88.5 25.5t-120.5 16.5t-132.5 25.5t-121 46t-88.5 83t-34 131.5zM412 1145l176 309h381l-299 -309h-258z" />
<glyph unicode="&#x15c;" horiz-adv-x="1361" d="M141 985q0 137 80 235.5t222.5 148.5t332.5 50q239 0 410 -61v-289q-167 76 -400 76q-254 0 -254 -139q0 -33 24 -57.5t64.5 -41t93.5 -31.5t111.5 -31.5t116.5 -37t111 -53.5t93.5 -75.5t64.5 -107t24 -145.5q0 -97 -33.5 -175.5t-90 -131t-133.5 -88.5t-162 -52 t-179 -16q-128 0 -254 25t-221 65v279q92 -41 211 -67.5t229 -26.5q242 0 242 149q0 47 -39 79.5t-101 53t-136.5 40.5t-149.5 50.5t-137 74t-101 120.5t-39 180zM268 1524l232 309h372l232 -309h-279l-139 149l-139 -149h-279z" />
<glyph unicode="&#x15d;" horiz-adv-x="1171" d="M98 666q0 89 42 156.5t116.5 107t169.5 59t209 19.5q222 0 381 -47v-252q-72 31 -176 48t-201 17q-86 0 -139.5 -19t-53.5 -59q0 -22 21 -36.5t57 -22t82.5 -13t98 -13t102.5 -18.5t97.5 -32.5t82.5 -52t57 -80t21 -113.5q0 -90 -40.5 -158t-112.5 -109.5t-165 -62 t-204 -20.5q-233 0 -422 74v260q185 -80 420 -80q176 0 176 74q0 28 -34 45t-88.5 25.5t-120.5 16.5t-132.5 25.5t-121 46t-88.5 83t-34 131.5zM160 1145l231 309h373l231 -309h-278l-139 149l-140 -149h-278z" />
<glyph unicode="&#x15e;" horiz-adv-x="1361" d="M141 985q0 137 80 235.5t222.5 148.5t332.5 50q239 0 410 -61v-289q-167 76 -400 76q-254 0 -254 -139q0 -33 24 -57.5t64.5 -41t93.5 -31.5t111.5 -31.5t116.5 -37t111 -53.5t93.5 -75.5t64.5 -107t24 -145.5q0 -93 -30.5 -169.5t-85.5 -129.5t-124.5 -88t-154.5 -53 l-29 -101q190 -27 190 -180q0 -85 -83 -135.5t-236 -50.5q-110 0 -170 28v160q68 -29 137 -29q96 0 96 56q0 55 -100 55h-65l65 176q-274 0 -483 88v279q92 -41 211 -67.5t229 -26.5q242 0 242 149q0 47 -39 79.5t-101 53t-136.5 40.5t-149.5 50.5t-137 74t-101 120.5 t-39 180z" />
<glyph unicode="&#x15f;" horiz-adv-x="1171" d="M98 666q0 89 42 156.5t116.5 107t169.5 59t209 19.5q222 0 381 -47v-252q-72 31 -176 48t-201 17q-86 0 -139.5 -19t-53.5 -59q0 -22 21 -36.5t57 -22t82.5 -13t98 -13t102.5 -18.5t97.5 -32.5t82.5 -52t57 -80t21 -113.5q0 -140 -96 -225t-260 -113l-29 -92 q190 -27 190 -180q0 -85 -83 -135.5t-236 -50.5q-110 0 -170 28v160q68 -29 137 -29q96 0 96 56q0 55 -100 55h-65l65 176q-219 5 -393 74v260q185 -80 420 -80q176 0 176 74q0 28 -34 44.5t-88.5 25t-120.5 16.5t-132.5 25.5t-121 46t-88.5 83.5t-34 132z" />
<glyph unicode="&#x160;" horiz-adv-x="1361" d="M141 985q0 137 80 235.5t222.5 148.5t332.5 50q239 0 410 -61v-289q-167 76 -400 76q-254 0 -254 -139q0 -33 24 -57.5t64.5 -41t93.5 -31.5t111.5 -31.5t116.5 -37t111 -53.5t93.5 -75.5t64.5 -107t24 -145.5q0 -97 -33.5 -175.5t-90 -131t-133.5 -88.5t-162 -52 t-179 -16q-128 0 -254 25t-221 65v279q92 -41 211 -67.5t229 -26.5q242 0 242 149q0 47 -39 79.5t-101 53t-136.5 40.5t-149.5 50.5t-137 74t-101 120.5t-39 180zM268 1833h279l139 -150l139 150h279l-232 -309h-372z" />
<glyph unicode="&#x161;" horiz-adv-x="1171" d="M98 666q0 89 42 156.5t116.5 107t169.5 59t209 19.5q222 0 381 -47v-252q-72 31 -176 48t-201 17q-86 0 -139.5 -19t-53.5 -59q0 -22 21 -36.5t57 -22t82.5 -13t98 -13t102.5 -18.5t97.5 -32.5t82.5 -52t57 -80t21 -113.5q0 -90 -40.5 -158t-112.5 -109.5t-165 -62 t-204 -20.5q-233 0 -422 74v260q185 -80 420 -80q176 0 176 74q0 28 -34 45t-88.5 25.5t-120.5 16.5t-132.5 25.5t-121 46t-88.5 83t-34 131.5zM166 1454h278l140 -149l139 149h278l-231 -309h-373z" />
<glyph unicode="&#x162;" horiz-adv-x="1458" d="M37 1116v268h1384v-268h-503v-1116h-377v1116h-504zM459 -369q64 24 97.5 56.5t33.5 83.5q0 55 -27 104h271q24 -55 24 -115q0 -114 -88.5 -191t-234.5 -101z" />
<glyph unicode="&#x163;" horiz-adv-x="944" d="M41 721v252h160l45 309h299v-309h295v-252h-295v-369q0 -114 121 -114q90 0 190 49v-264q-116 -58 -285 -58q-374 0 -374 365v391h-156zM291 -369q64 24 97.5 56.5t33.5 83.5q0 55 -27 104h271q24 -55 24 -115q0 -114 -88.5 -191t-234.5 -101z" />
<glyph unicode="&#x164;" horiz-adv-x="1458" d="M37 1116v268h1384v-268h-503v-1116h-377v1116h-504zM311 1833h279l139 -150l139 150h279l-232 -309h-372z" />
<glyph unicode="&#x165;" horiz-adv-x="944" d="M41 721v252h160l45 309h299v-309h295v-252h-295v-369q0 -114 121 -114q90 0 190 49v-264q-116 -58 -285 -58q-374 0 -374 365v391h-156zM623 1163q108 67 108 180q0 80 -35 146h240q25 -64 25 -141q0 -108 -63.5 -189.5t-176.5 -126.5z" />
<glyph unicode="&#x16a;" horiz-adv-x="1734" d="M190 510v874h377v-876q0 -135 82.5 -202.5t218.5 -67.5t221 68t85 202v876h370v-874q0 -173 -86.5 -297.5t-237.5 -186t-352 -61.5t-352.5 61.5t-238.5 186t-87 297.5zM524 1575v207h684v-207h-684z" />
<glyph unicode="&#x16b;" horiz-adv-x="1370" d="M154 354v619h348v-598q0 -68 40.5 -102.5t112.5 -34.5q108 0 191 69v666h348v-973h-276l-27 86q-142 -121 -334 -121q-193 0 -298 101t-105 288zM332 1196v207h684v-207h-684z" />
<glyph unicode="&#x16c;" horiz-adv-x="1734" d="M190 510v874h377v-876q0 -135 82.5 -202.5t218.5 -67.5t221 68t85 202v876h370v-874q0 -173 -86.5 -297.5t-237.5 -186t-352 -61.5t-352.5 61.5t-238.5 186t-87 297.5zM481 1831h203q22 -127 182 -127q161 0 183 127h202q-7 -153 -110.5 -237.5t-274.5 -84.5t-274.5 84.5 t-110.5 237.5z" />
<glyph unicode="&#x16d;" horiz-adv-x="1370" d="M154 354v619h348v-598q0 -68 40.5 -102.5t112.5 -34.5q108 0 191 69v666h348v-973h-276l-27 86q-142 -121 -334 -121q-193 0 -298 101t-105 288zM289 1454h203q22 -127 182 -127t182 127h203q-7 -153 -110.5 -237t-274.5 -84t-274.5 84t-110.5 237z" />
<glyph unicode="&#x16e;" horiz-adv-x="1734" d="M190 510v874h377v-876q0 -135 82.5 -202.5t218.5 -67.5t221 68t85 202v876h370v-874q0 -173 -86.5 -297.5t-237.5 -186t-352 -61.5t-352.5 61.5t-238.5 186t-87 297.5zM590 1681q0 90 75 137.5t201 47.5t201.5 -47.5t75.5 -137.5q0 -92 -75.5 -140t-201.5 -48t-201 48 t-75 140zM770 1679q0 -35 26 -56t70 -21t70.5 21t26.5 56t-26.5 56.5t-70.5 21.5t-70 -21.5t-26 -56.5z" />
<glyph unicode="&#x16f;" horiz-adv-x="1370" d="M154 354v619h348v-598q0 -68 40.5 -102.5t112.5 -34.5q108 0 191 69v666h348v-973h-276l-27 86q-142 -121 -334 -121q-193 0 -298 101t-105 288zM397 1305q0 90 75.5 137t201.5 47t201 -47t75 -137q0 -92 -75 -140.5t-201 -48.5t-201.5 48.5t-75.5 140.5zM578 1303 q0 -35 26 -56.5t70 -21.5t70 21.5t26 56.5t-26 56t-70 21t-70 -21t-26 -56z" />
<glyph unicode="&#x170;" horiz-adv-x="1734" d="M190 510v874h377v-876q0 -135 82.5 -202.5t218.5 -67.5t221 68t85 202v876h370v-874q0 -173 -86.5 -297.5t-237.5 -186t-352 -61.5t-352.5 61.5t-238.5 186t-87 297.5zM569 1524l119 309h301l-194 -309h-226zM913 1524l195 309h319l-274 -309h-240z" />
<glyph unicode="&#x171;" horiz-adv-x="1370" d="M154 354v619h348v-598q0 -68 40.5 -102.5t112.5 -34.5q108 0 191 69v666h348v-973h-276l-27 86q-142 -121 -334 -121q-193 0 -298 101t-105 288zM371 1145l118 309h302l-195 -309h-225zM715 1145l194 309h320l-275 -309h-239z" />
<glyph unicode="&#x172;" horiz-adv-x="1734" d="M190 510v874h377v-876q0 -135 82.5 -202.5t218.5 -67.5t221 68t85 202v876h370v-874q0 -224 -139.5 -362t-378.5 -171q-63 -44 -93 -84.5t-30 -95.5q0 -36 24.5 -54.5t65.5 -18.5q55 0 115 26v-186q-71 -31 -180 -31q-127 0 -201 56t-74 159q0 138 113 221 q-265 24 -420.5 164t-155.5 377z" />
<glyph unicode="&#x173;" horiz-adv-x="1370" d="M154 354v619h348v-598q0 -68 40.5 -102.5t112.5 -34.5q108 0 191 69v666h348v-973q-81 -52 -120.5 -97t-39.5 -106q0 -36 24.5 -54.5t65.5 -18.5q55 0 115 26v-186q-71 -31 -180 -31q-127 0 -201 56t-74 159q0 82 43.5 147.5t120.5 104.5h-30l-27 86q-142 -121 -334 -121 q-193 0 -298 101t-105 288z" />
<glyph unicode="&#x178;" horiz-adv-x="1492" d="M-18 1384h419l377 -553l365 553h368l-577 -837v-547h-377v547zM387 1542v256h305v-256h-305zM838 1542v256h305v-256h-305z" />
<glyph unicode="&#x179;" horiz-adv-x="1509" d="M98 0v221l832 895h-815v268h1271v-241l-808 -875h833v-268h-1313zM653 1524l176 309h381l-299 -309h-258z" />
<glyph unicode="&#x17a;" horiz-adv-x="1191" d="M113 0v197l483 530h-483v246h944v-203l-475 -524h487v-246h-956zM430 1145l176 309h381l-299 -309h-258z" />
<glyph unicode="&#x17b;" horiz-adv-x="1509" d="M98 0v221l832 895h-815v268h1271v-241l-808 -875h833v-268h-1313zM588 1542v256h332v-256h-332z" />
<glyph unicode="&#x17c;" horiz-adv-x="1191" d="M113 0v197l483 530h-483v246h944v-203l-475 -524h487v-246h-956zM430 1163v256h332v-256h-332z" />
<glyph unicode="&#x17d;" horiz-adv-x="1509" d="M98 0v221l832 895h-815v268h1271v-241l-808 -875h833v-268h-1313zM336 1833h278l140 -150l139 150h278l-231 -309h-373z" />
<glyph unicode="&#x17e;" horiz-adv-x="1191" d="M113 0v197l483 530h-483v246h944v-203l-475 -524h487v-246h-956zM178 1454h279l139 -149l139 149h279l-232 -309h-372z" />
<glyph unicode="&#x218;" horiz-adv-x="1361" d="M141 985q0 137 80 235.5t222.5 148.5t332.5 50q239 0 410 -61v-289q-167 76 -400 76q-254 0 -254 -139q0 -33 24 -57.5t64.5 -41t93.5 -31.5t111.5 -31.5t116.5 -37t111 -53.5t93.5 -75.5t64.5 -107t24 -145.5q0 -97 -33.5 -175.5t-90 -131t-133.5 -88.5t-162 -52 t-179 -16q-128 0 -254 25t-221 65v279q92 -41 211 -67.5t229 -26.5q242 0 242 149q0 47 -39 79.5t-101 53t-136.5 40.5t-149.5 50.5t-137 74t-101 120.5t-39 180zM467 -369q64 24 97.5 56.5t33.5 83.5q0 55 -27 104h271q24 -55 24 -115q0 -114 -88.5 -191t-234.5 -101z" />
<glyph unicode="&#x219;" horiz-adv-x="1171" d="M98 666q0 89 42 156.5t116.5 107t169.5 59t209 19.5q222 0 381 -47v-252q-72 31 -176 48t-201 17q-86 0 -139.5 -19t-53.5 -59q0 -22 21 -36.5t57 -22t82.5 -13t98 -13t102.5 -18.5t97.5 -32.5t82.5 -52t57 -80t21 -113.5q0 -90 -40.5 -158t-112.5 -109.5t-165 -62 t-204 -20.5q-233 0 -422 74v260q185 -80 420 -80q176 0 176 74q0 28 -34 45t-88.5 25.5t-120.5 16.5t-132.5 25.5t-121 46t-88.5 83t-34 131.5zM379 -369q64 24 97.5 56.5t33.5 83.5q0 55 -27 104h271q24 -55 24 -115q0 -114 -88.5 -191t-234.5 -101z" />
<glyph unicode="&#x2c6;" horiz-adv-x="1228" d="M197 1145l231 309h373l231 -309h-278l-140 149l-139 -149h-278z" />
<glyph unicode="&#x2da;" horiz-adv-x="1228" d="M338 1305q0 90 75 137t201 47t201.5 -47t75.5 -137q0 -92 -75.5 -140.5t-201.5 -48.5t-201 48.5t-75 140.5zM518 1303q0 -35 26 -56.5t70 -21.5t70.5 21.5t26.5 56.5t-26.5 56t-70.5 21t-70 -21t-26 -56z" />
<glyph unicode="&#x2dc;" horiz-adv-x="1228" d="M178 1145q0 65 13.5 118.5t43 98.5t83 70.5t126.5 25.5q65 0 128 -25t113.5 -50t84.5 -25t46.5 23.5t12.5 72.5h222q0 -65 -13.5 -118.5t-43.5 -98.5t-83.5 -70.5t-126.5 -25.5q-65 0 -128 25t-113 50t-84 25t-47 -23.5t-13 -72.5h-221z" />
<glyph unicode="&#x386;" horiz-adv-x="1605" d="M-18 0l657 1384h334l651 -1384h-412l-106 238h-657l-107 -238h-360zM106 1075l115 309h340l-237 -309h-218zM563 496h428l-213 479z" />
<glyph unicode="&#x388;" horiz-adv-x="1742" d="M0 1075l115 309h340l-238 -309h-217zM479 375v1009h1098v-268h-721v-282h639v-269h-639v-190q0 -56 24.5 -81.5t86.5 -25.5h637v-268h-705q-216 0 -318 94t-102 281z" />
<glyph unicode="&#x389;" horiz-adv-x="2158" d="M0 1075l115 309h340l-238 -309h-217zM479 0v1384h377v-538h694v538h377v-1384h-377v567h-694v-567h-377z" />
<glyph unicode="&#x38a;" horiz-adv-x="1087" d="M0 1075l115 309h340l-238 -309h-217zM479 0v1384h377v-1384h-377z" />
<glyph unicode="&#x38c;" horiz-adv-x="2070" d="M0 1075l115 309h340l-238 -309h-217zM233 692q0 224 109 389.5t304 251.5t452 86t451.5 -86t303.5 -251.5t109 -389.5t-109 -389.5t-303.5 -251.5t-451.5 -86t-452 86t-304 251.5t-109 389.5zM625 692q0 -209 123 -331.5t350 -122.5t350 122.5t123 331.5 q0 208 -123 330.5t-350 122.5t-350 -122.5t-123 -330.5z" />
<glyph unicode="&#x38e;" horiz-adv-x="1996" d="M0 1075l115 309h340l-238 -309h-217zM485 1384h420l377 -553l365 553h368l-577 -837v-547h-377v547z" />
<glyph unicode="&#x38f;" horiz-adv-x="2105" d="M0 1075l115 309h340l-238 -309h-217zM264 0v268h340q-66 32 -122.5 76.5t-106.5 106t-78.5 144.5t-28.5 179q0 122 42.5 226t120 180.5t184.5 130.5t238.5 81t279.5 27q186 0 343.5 -43t273.5 -123.5t181.5 -203.5t65.5 -275q0 -96 -28.5 -179t-78.5 -144.5t-106.5 -106 t-122.5 -76.5h340v-268h-719v268q51 32 84.5 56t83.5 70t80.5 90.5t53 110.5t22.5 138q0 203 -122 307.5t-351 104.5t-351.5 -105t-122.5 -307q0 -72 22.5 -138t53 -110.5t80.5 -90.5t83.5 -70t84.5 -56v-268h-719z" />
<glyph unicode="&#x390;" horiz-adv-x="761" d="M-186 1163v256h305v-256h-305zM158 311v662h348v-645q0 -50 20 -70t64 -20q60 0 123 26v-266q-92 -33 -213 -33q-182 0 -262 90t-80 256zM158 1145l94 309h299l-217 -309h-176zM551 1163v256h305v-256h-305z" />
<glyph unicode="&#x391;" horiz-adv-x="1605" d="M-18 0l657 1384h334l651 -1384h-412l-106 238h-657l-107 -238h-360zM563 496h428l-213 479z" />
<glyph unicode="&#x392;" horiz-adv-x="1611" d="M231 0v1384h560q671 0 671 -378q0 -115 -69 -187t-172 -108q52 -10 100.5 -33.5t90 -61t66.5 -94t25 -123.5q0 -106 -52.5 -184.5t-150 -124.5t-224 -68t-285.5 -22h-560zM608 268h195q309 0 309 154q0 151 -309 151h-195v-305zM608 831h183q93 0 150.5 11t93.5 43.5 t36 89.5q0 82 -69 111.5t-211 29.5h-183v-285z" />
<glyph unicode="&#x393;" horiz-adv-x="1468" d="M231 0v1384h1098v-268h-721v-1116h-377z" />
<glyph unicode="&#x394;" horiz-adv-x="1529" d="M57 0v238l543 1146h334l539 -1144v-240h-1416zM436 268h617l-314 707z" />
<glyph unicode="&#x395;" horiz-adv-x="1474" d="M211 375v1009h1098v-268h-721v-282h639v-269h-639v-190q0 -56 24 -81.5t86 -25.5h637v-268h-704q-216 0 -318 94t-102 281z" />
<glyph unicode="&#x396;" horiz-adv-x="1509" d="M98 0v221l832 895h-815v268h1271v-241l-808 -875h833v-268h-1313z" />
<glyph unicode="&#x397;" horiz-adv-x="1910" d="M231 0v1384h377v-538h695v538h376v-1384h-376v567h-695v-567h-377z" />
<glyph unicode="&#x398;" horiz-adv-x="1945" d="M109 692q0 224 109 389.5t303.5 251.5t451.5 86t451.5 -86t303.5 -251.5t109 -389.5t-109 -389.5t-303.5 -251.5t-451.5 -86t-451.5 86t-303.5 251.5t-109 389.5zM500 692q0 -209 123 -331.5t350 -122.5t350 122.5t123 331.5q0 208 -123 330.5t-350 122.5t-350 -122.5 t-123 -330.5zM639 569v262h668v-262h-668z" />
<glyph unicode="&#x399;" horiz-adv-x="839" d="M231 0v1384h377v-1384h-377z" />
<glyph unicode="&#x39a;" horiz-adv-x="1669" d="M231 0v1384h377v-571l606 571h439l-703 -661l719 -723h-481l-580 588v-588h-377z" />
<glyph unicode="&#x39b;" horiz-adv-x="1642" d="M0 0l657 1384h334l651 -1384h-411l-434 975l-437 -975h-360z" />
<glyph unicode="&#x39c;" horiz-adv-x="2273" d="M231 0v1384h367l539 -786l538 786h367v-1384h-371v840l-377 -572h-315l-377 572v-840h-371z" />
<glyph unicode="&#x39d;" horiz-adv-x="1886" d="M231 0v1384h322l735 -856v856h367v-1384h-320l-737 856v-856h-367z" />
<glyph unicode="&#x39e;" horiz-adv-x="1497" d="M92 0v268h1313v-268h-1313zM113 1116v268h1271v-268h-1271zM201 551v268h1093v-268h-1093z" />
<glyph unicode="&#x39f;" horiz-adv-x="1945" d="M109 692q0 224 109 389.5t303.5 251.5t451.5 86t451.5 -86t303.5 -251.5t109 -389.5t-109 -389.5t-303.5 -251.5t-451.5 -86t-451.5 86t-303.5 251.5t-109 389.5zM500 692q0 -209 123 -331.5t350 -122.5t350 122.5t123 331.5q0 208 -123 330.5t-350 122.5t-350 -122.5 t-123 -330.5z" />
<glyph unicode="&#x3a0;" horiz-adv-x="1857" d="M231 0v1384h1395v-1384h-377v1116h-641v-1116h-377z" />
<glyph unicode="&#x3a1;" horiz-adv-x="1626" d="M231 0v1384h598q323 0 507 -118.5t184 -347.5q0 -154 -86 -259.5t-239 -156.5t-366 -51h-221v-451h-377zM608 719h221q299 0 299 199q0 198 -299 198h-221v-397z" />
<glyph unicode="&#x3a3;" d="M131 0v240l496 422l-496 483v239h1131v-268h-668l455 -434l-455 -414h668v-268h-1131z" />
<glyph unicode="&#x3a4;" horiz-adv-x="1458" d="M37 1116v268h1384v-268h-503v-1116h-377v1116h-504z" />
<glyph unicode="&#x3a5;" horiz-adv-x="1492" d="M-18 1384h419l377 -553l365 553h368l-577 -837v-547h-377v547z" />
<glyph unicode="&#x3a6;" horiz-adv-x="1945" d="M109 692q0 177 87 309t237 205t351 92v156h377v-156q201 -19 351 -92t237.5 -205t87.5 -309t-87.5 -309t-237.5 -205t-351 -92v-156h-377v156q-201 19 -351 92t-237 205t-87 309zM500 692q0 -129 73.5 -222t210.5 -118v676q-137 -25 -210.5 -117t-73.5 -219zM1161 352 q136 26 210.5 119t74.5 221q0 127 -74.5 218.5t-210.5 117.5v-676z" />
<glyph unicode="&#x3a7;" horiz-adv-x="1572" d="M0 0l578 709l-533 675h430l324 -409l327 409h406l-535 -657l576 -727h-432l-363 465l-370 -465h-408z" />
<glyph unicode="&#x3a8;" horiz-adv-x="1990" d="M143 1024v360h351v-380q0 -178 77 -263t236 -114v757h377v-757q159 29 236 114t77 263v380h350v-360q0 -317 -167.5 -483.5t-495.5 -210.5v-330h-377v330q-329 46 -496.5 212t-167.5 482z" />
<glyph unicode="&#x3a9;" horiz-adv-x="1945" d="M104 0v268h340q-66 32 -122.5 76.5t-106 106t-78 144.5t-28.5 179q0 152 65.5 275t181.5 203.5t273.5 123.5t343.5 43t343.5 -43t273.5 -123.5t181.5 -203.5t65.5 -275q0 -96 -28.5 -179t-78.5 -144.5t-106.5 -106t-122.5 -76.5h340v-268h-719v268q51 32 84.5 56t83.5 70 t80.5 90.5t53 110.5t22.5 138q0 203 -122 307.5t-351 104.5t-351 -104.5t-122 -307.5q0 -72 22.5 -137.5t52.5 -110.5t80 -91t83.5 -70t84.5 -56v-268h-719z" />
<glyph unicode="&#x3aa;" horiz-adv-x="839" d="M43 1575v256h305v-256h-305zM231 0v1384h377v-1384h-377zM494 1575v256h305v-256h-305z" />
<glyph unicode="&#x3ab;" horiz-adv-x="1492" d="M-18 1384h419l377 -553l365 553h368l-577 -837v-547h-377v547zM387 1575v256h305v-256h-305zM838 1575v256h305v-256h-305z" />
<glyph unicode="&#x3ac;" horiz-adv-x="1433" d="M90 467q0 110 35.5 208t100 172t161 117.5t211.5 43.5q117 0 194.5 -47t114.5 -107l11 119h333l-41 -557q-2 -25 -2 -66q0 -68 15.5 -90t54.5 -22l43 2v-265q-75 -10 -133 -10q-90 0 -151 23t-92 60t-46 91q-43 -81 -129 -127.5t-211 -46.5q-88 0 -169.5 30t-149.5 89 t-109 158t-41 225zM444 481q0 -114 54.5 -178.5t152.5 -64.5q72 0 132.5 59.5t60.5 167.5v63q0 108 -57 167t-134 59q-95 0 -152 -68.5t-57 -204.5zM535 1145l176 309h381l-299 -309h-258z" />
<glyph unicode="&#x3ad;" horiz-adv-x="1239" d="M96 244q0 58 25 103.5t67 73t86.5 43.5t94.5 23q-240 48 -240 236q0 132 142.5 208.5t412.5 76.5q105 0 230 -15t184 -37v-258q-66 29 -179 45.5t-204 16.5q-228 0 -228 -86q0 -39 48 -55.5t141 -16.5h203v-229h-183q-125 0 -181 -17t-56 -59q0 -44 58.5 -61t176.5 -17 q106 0 229 18.5t187 43.5v-258q-60 -23 -196.5 -40.5t-239.5 -17.5q-578 0 -578 279zM459 1145l176 309h381l-299 -309h-258z" />
<glyph unicode="&#x3ae;" horiz-adv-x="1429" d="M176 0v973h311l21 -74q63 51 156.5 80t187.5 29q88 0 161.5 -23.5t131 -71t89.5 -126.5t32 -183v-993h-348v964q0 79 -50.5 115.5t-130.5 36.5q-117 0 -213 -51v-676h-348zM567 1145l176 309h381l-299 -309h-258z" />
<glyph unicode="&#x3af;" horiz-adv-x="761" d="M158 311v662h348v-645q0 -50 20 -70t64 -20q60 0 123 26v-266q-92 -33 -213 -33q-182 0 -262 90t-80 256zM201 1145l176 309h381l-299 -309h-258z" />
<glyph unicode="&#x3b0;" horiz-adv-x="1376" d="M129 487v486h356v-486q0 -128 55 -198t165 -70q103 0 155.5 72.5t52.5 200.5q0 136 -54 262t-144 219h383q68 -74 115 -199t47 -276q0 -240 -150.5 -386.5t-404.5 -146.5q-284 0 -430 135t-146 387zM182 1163v256h305v-256h-305zM526 1145l95 309h299l-218 -309h-176z M920 1163v256h305v-256h-305z" />
<glyph unicode="&#x3b1;" horiz-adv-x="1433" d="M90 467q0 110 35.5 208t100 172t161 117.5t211.5 43.5q117 0 194.5 -47t114.5 -107l11 119h333l-41 -557q-2 -25 -2 -66q0 -68 15.5 -90t54.5 -22l43 2v-265q-75 -10 -133 -10q-90 0 -151 23t-92 60t-46 91q-43 -81 -129 -127.5t-211 -46.5q-88 0 -169.5 30t-149.5 89 t-109 158t-41 225zM444 481q0 -114 54.5 -178.5t152.5 -64.5q72 0 132.5 59.5t60.5 167.5v63q0 108 -57 167t-134 59q-95 0 -152 -68.5t-57 -204.5z" />
<glyph unicode="&#x3b2;" horiz-adv-x="1415" d="M176 -389v1350q0 111 31 201t83.5 150t124.5 100.5t151.5 58.5t166.5 18q86 0 165 -14.5t149.5 -47t122 -80.5t82 -119t30.5 -157q0 -65 -18.5 -120t-47.5 -91t-67.5 -63.5t-73.5 -41.5t-71 -22q63 -11 118 -35.5t102 -64.5t74 -101.5t27 -136.5q0 -109 -42 -193.5 t-113 -135t-157.5 -76t-183.5 -25.5q-92 0 -175.5 21t-129.5 55v-430h-348zM524 319q93 -81 234 -81q97 0 148.5 47t51.5 131q0 91 -61.5 138.5t-171.5 47.5h-57v264h59q96 0 148.5 50.5t52.5 140.5q0 79 -51 129.5t-138 50.5q-99 0 -157 -65t-58 -193v-660z" />
<glyph unicode="&#x3b3;" horiz-adv-x="1236" d="M-6 973h366l258 -647q90 158 143 328t66 319h349q-27 -214 -140 -470.5t-276 -488.5v-403h-348v407z" />
<glyph unicode="&#x3b4;" d="M90 483q0 81 27 152t75 125t105 94t127 72q-30 27 -46.5 44t-40 50t-35 73t-11.5 89q0 66 29 119.5t76 88t111.5 57.5t131 32.5t137.5 9.5q201 0 322 -51v-258q-132 57 -279 57q-178 0 -178 -92q0 -17 7.5 -32.5t28 -31t36.5 -26.5t53 -27.5t56.5 -25t66.5 -27.5 q77 -32 135 -63t113 -74t89.5 -92.5t55.5 -116t21 -146.5q0 -245 -165.5 -381.5t-441.5 -136.5t-441 136.5t-165 381.5zM444 459q0 -110 71.5 -175t180.5 -65t180.5 65t71.5 175q0 56 -15 102t-37 76t-58.5 56t-66.5 40.5t-75 32.5q-50 -12 -92.5 -33.5t-80 -57t-58.5 -91 t-21 -125.5z" />
<glyph unicode="&#x3b5;" horiz-adv-x="1239" d="M96 244q0 58 25 103.5t67 73t86.5 43.5t94.5 23q-240 48 -240 236q0 132 142.5 208.5t412.5 76.5q105 0 230 -15t184 -37v-258q-66 29 -179 45.5t-204 16.5q-228 0 -228 -86q0 -39 48 -55.5t141 -16.5h203v-229h-183q-125 0 -181 -17t-56 -59q0 -44 58.5 -61t176.5 -17 q106 0 229 18.5t187 43.5v-258q-60 -23 -196.5 -40.5t-239.5 -17.5q-578 0 -578 279z" />
<glyph unicode="&#x3b6;" horiz-adv-x="1048" d="M90 487q0 224 136 406.5t364 306.5h-408v254h844v-248q-98 -61 -174 -115t-154 -125.5t-129 -142t-83.5 -158t-32.5 -180.5q0 -58 17 -101t51 -72t75.5 -47.5t99.5 -33.5q76 -19 123.5 -34.5t96.5 -38.5t75.5 -50t43 -67t16.5 -92q0 -55 -17.5 -108t-50 -101t-64.5 -84.5 t-77 -79.5l-191 131q97 111 97 176q0 40 -27 55.5t-92 28.5q-99 20 -177.5 47t-148 69t-115 97t-72 133t-26.5 174z" />
<glyph unicode="&#x3b7;" horiz-adv-x="1429" d="M176 0v973h311l21 -74q63 51 156.5 80t187.5 29q88 0 161.5 -23.5t131 -71t89.5 -126.5t32 -183v-993h-348v964q0 79 -50.5 115.5t-130.5 36.5q-117 0 -213 -51v-676h-348z" />
<glyph unicode="&#x3b8;" horiz-adv-x="1466" d="M113 727q0 164 34 298t105.5 240t193.5 165t287 59q133 0 238.5 -39t176.5 -107.5t118 -165.5t67.5 -208.5t20.5 -241.5t-20.5 -241.5t-67.5 -208.5t-118 -165.5t-176.5 -107.5t-238.5 -39q-165 0 -287 59t-193.5 165t-105.5 240t-34 298zM485 594q0 -167 63.5 -261.5 t184.5 -94.5t184.5 94.5t63.5 261.5h-496zM485 860h496q0 167 -63.5 262t-184.5 95t-184.5 -95t-63.5 -262z" />
<glyph unicode="&#x3b9;" horiz-adv-x="761" d="M158 311v662h348v-645q0 -50 20 -70t64 -20q60 0 123 26v-266q-92 -33 -213 -33q-182 0 -262 90t-80 256z" />
<glyph unicode="&#x3ba;" horiz-adv-x="1316" d="M176 0v973h348v-389l385 389h410l-465 -463l469 -510h-426l-373 395v-395h-348z" />
<glyph unicode="&#x3bb;" horiz-adv-x="1183" d="M-10 0l442 1014l-24 53q-40 88 -109.5 122t-189.5 36l43 264q129 0 225.5 -27t167 -83.5t119 -129.5t92.5 -180l438 -1069h-350l-232 659l-256 -659h-366z" />
<glyph unicode="&#x3bc;" d="M176 -389v1362h348v-602q0 -64 41 -98.5t113 -34.5q104 0 190 69v666h349v-973h-277l-27 86q-36 -56 -102 -88.5t-141 -32.5q-84 0 -146 39v-393h-348z" />
<glyph unicode="&#x3bd;" horiz-adv-x="1236" d="M-6 973h366l258 -654q89 157 142.5 330.5t66.5 323.5h349q-27 -217 -142.5 -478t-281.5 -495h-334z" />
<glyph unicode="&#x3be;" horiz-adv-x="1122" d="M86 397q0 80 29 146.5t78.5 110.5t107 71.5t121.5 38.5q-55 14 -102 39t-89.5 64t-67 99t-24.5 134q0 96 43.5 171.5t119.5 122.5t174.5 71t213.5 24q203 0 322 -51v-262q-132 59 -285 59q-48 0 -87.5 -8.5t-73 -27.5t-52 -52.5t-18.5 -79.5q0 -50 24.5 -84.5t67.5 -52 t88 -24.5t98 -7h148v-266h-183q-293 0 -293 -195q0 -80 58.5 -125t177.5 -71q92 -21 152 -42t109 -54t71 -79.5t22 -111.5q0 -104 -57.5 -196.5t-151.5 -182.5l-190 131q96 110 96 182q0 36 -31 52.5t-96 29.5q-91 19 -158.5 38.5t-139.5 54t-117.5 77.5t-75 108.5 t-29.5 147.5z" />
<glyph unicode="&#x3bf;" d="M90 487q0 245 165 383t441 138t441.5 -138t165.5 -383t-165.5 -383.5t-441.5 -138.5t-441 138.5t-165 383.5zM446 487q0 -124 68.5 -196t181.5 -72t181.5 72t68.5 196q0 123 -68.5 195t-181.5 72t-181.5 -72t-68.5 -195z" />
<glyph unicode="&#x3c0;" horiz-adv-x="1550" d="M51 696v277h1379v-277h-197v-368q0 -50 20 -70t64 -20q60 0 123 26v-266q-92 -33 -213 -33q-182 0 -262 90t-80 256v385h-289v-696h-348v696h-197z" />
<glyph unicode="&#x3c1;" horiz-adv-x="1314" d="M123 -389v874q0 111 29 200.5t79 148.5t119.5 99t147 57.5t164.5 17.5q117 0 214.5 -27t177.5 -84.5t125.5 -159t45.5 -239.5q0 -168 -80 -290.5t-214.5 -182.5t-305.5 -60q-77 0 -154 12v-366h-348zM471 238q56 -19 135 -19q122 0 193 68.5t71 210.5q0 256 -202 256 q-96 0 -146.5 -67.5t-50.5 -199.5v-249z" />
<glyph unicode="&#x3c2;" horiz-adv-x="1138" d="M90 487q0 238 162 379.5t446 141.5q190 0 312 -52v-264q-72 34 -135.5 48t-145.5 14q-138 0 -210.5 -73t-72.5 -196q0 -57 17 -100.5t48.5 -72t69 -46t87.5 -30.5q64 -16 106 -28t89.5 -30t76 -38t54 -47.5t37 -63t11.5 -80.5q0 -104 -56.5 -193t-151.5 -180l-191 131 q96 110 96 176q0 17 -8 30.5t-18 21.5t-31 15t-35.5 10.5t-42.5 8.5q-124 24 -214 61t-160 97t-105 150t-35 210z" />
<glyph unicode="&#x3c3;" horiz-adv-x="1456" d="M90 469q0 243 164 373.5t442 130.5h713v-279l-209 8q49 -44 76 -119.5t27 -148.5q0 -146 -79.5 -253.5t-216 -161.5t-311.5 -54q-278 0 -442 130.5t-164 373.5zM446 469q0 -122 67.5 -186t182.5 -64t182.5 64t67.5 186q0 121 -67 184.5t-183 63.5t-183 -63.5t-67 -184.5z " />
<glyph unicode="&#x3c4;" horiz-adv-x="1136" d="M41 696v277h1055v-277h-353v-368q0 -50 20 -70t64 -20q60 0 123 26v-266q-92 -33 -213 -33q-182 0 -262 90t-80 256v385h-354z" />
<glyph unicode="&#x3c5;" horiz-adv-x="1376" d="M129 487v486h356v-486q0 -128 55 -198t165 -70q103 0 155.5 72.5t52.5 200.5q0 136 -54 262t-144 219h383q68 -74 115 -199t47 -276q0 -240 -150.5 -386.5t-404.5 -146.5q-284 0 -430 135t-146 387z" />
<glyph unicode="&#x3c6;" horiz-adv-x="1828" d="M90 549q0 260 160 424h381q-189 -177 -189 -406q0 -134 69.5 -219.5t211.5 -105.5v256q0 510 506 510q100 0 188 -26.5t162 -81.5t117 -150.5t43 -221.5q0 -136 -49 -239t-140.5 -168.5t-210 -102.5t-268.5 -49v-358h-348v360q-145 14 -256.5 51t-198 104t-132.5 173.5 t-46 249.5zM1071 236q159 9 236 90t77 221q0 94 -40.5 150.5t-116.5 56.5q-156 0 -156 -248v-270z" />
<glyph unicode="&#x3c7;" horiz-adv-x="1220" d="M-51 -389l473 700l-447 662h398l237 -410l238 410h375l-437 -643l486 -719h-398l-276 467l-274 -467h-375z" />
<glyph unicode="&#x3c8;" horiz-adv-x="1910" d="M102 569q0 130 29.5 223t83.5 181h377q-127 -177 -127 -406q0 -146 82.5 -232.5t236.5 -96.5v1044h340v-1044q156 10 239 96.5t83 232.5q0 229 -127 406h377q54 -88 83 -181t29 -223q0 -116 -35.5 -213.5t-98.5 -166.5t-149 -118t-187 -74t-214 -28v-358h-340v358 q-112 3 -212.5 28t-187 74t-149 118t-98 166.5t-35.5 213.5z" />
<glyph unicode="&#x3c9;" horiz-adv-x="2007" d="M90 487q0 163 60.5 289t142.5 197h395q-91 -73 -160 -209t-69 -268q0 -113 44.5 -180.5t129.5 -67.5q106 0 149 72.5t43 207.5v226h357v-226q0 -135 43 -207.5t149 -72.5q85 0 129.5 67.5t44.5 180.5q0 132 -69 268t-160 209h395q82 -71 142.5 -197t60.5 -289 q0 -237 -130.5 -379.5t-383.5 -142.5q-133 0 -235.5 56t-166.5 155q-64 -99 -164.5 -155t-232.5 -56q-253 0 -383.5 142.5t-130.5 379.5z" />
<glyph unicode="&#x3ca;" horiz-adv-x="761" d="M-29 1163v256h305v-256h-305zM158 311v662h348v-645q0 -50 20 -70t64 -20q60 0 123 26v-266q-92 -33 -213 -33q-182 0 -262 90t-80 256zM422 1163v256h305v-256h-305z" />
<glyph unicode="&#x3cb;" horiz-adv-x="1376" d="M129 487v486h356v-486q0 -128 55 -198t165 -70q103 0 155.5 72.5t52.5 200.5q0 136 -54 262t-144 219h383q68 -74 115 -199t47 -276q0 -240 -150.5 -386.5t-404.5 -146.5q-284 0 -430 135t-146 387zM268 1163v256h305v-256h-305zM719 1163v256h305v-256h-305z" />
<glyph unicode="&#x3cc;" d="M90 487q0 245 165 383t441 138t441.5 -138t165.5 -383t-165.5 -383.5t-441.5 -138.5t-441 138.5t-165 383.5zM446 487q0 -124 68.5 -196t181.5 -72t181.5 72t68.5 196q0 123 -68.5 195t-181.5 72t-181.5 -72t-68.5 -195zM539 1145l176 309h381l-299 -309h-258z" />
<glyph unicode="&#x3cd;" horiz-adv-x="1376" d="M129 487v486h356v-486q0 -128 55 -198t165 -70q103 0 155.5 72.5t52.5 200.5q0 136 -54 262t-144 219h383q68 -74 115 -199t47 -276q0 -240 -150.5 -386.5t-404.5 -146.5q-284 0 -430 135t-146 387zM483 1145l176 309h381l-299 -309h-258z" />
<glyph unicode="&#x3ce;" horiz-adv-x="2007" d="M90 487q0 163 60.5 289t142.5 197h395q-91 -73 -160 -209t-69 -268q0 -113 44.5 -180.5t129.5 -67.5q106 0 149 72.5t43 207.5v226h357v-226q0 -135 43 -207.5t149 -72.5q85 0 129.5 67.5t44.5 180.5q0 132 -69 268t-160 209h395q82 -71 142.5 -197t60.5 -289 q0 -237 -130.5 -379.5t-383.5 -142.5q-133 0 -235.5 56t-166.5 155q-64 -99 -164.5 -155t-232.5 -56q-253 0 -383.5 142.5t-130.5 379.5zM872 1145l177 309h381l-300 -309h-258z" />
<glyph unicode="&#x3d0;" horiz-adv-x="1411" d="M113 721q0 372 174 570t483 198q143 0 259.5 -45.5t188.5 -140.5t72 -224q0 -134 -70.5 -216.5t-175.5 -117.5q56 -15 103 -40.5t87 -65.5t62.5 -101t22.5 -137q0 -138 -73 -238t-196.5 -149t-281.5 -49q-168 0 -294.5 54t-205 154.5t-117 237.5t-38.5 310zM481 831 q62 1 112 5t104 12.5t93.5 25t72.5 40t50 59.5t17 82q0 73 -48 120.5t-143 47.5q-116 0 -186.5 -100.5t-71.5 -291.5zM485 578q7 -173 77 -266t190 -93q100 0 152 51t52 140q0 71 -50 126.5t-142 65.5q-103 -24 -279 -24z" />
<glyph unicode="&#x3d1;" horiz-adv-x="1411" d="M117 1012q0 213 158.5 345t406.5 132q604 0 604 -741q0 -134 -21 -248.5t-68 -214t-117.5 -170t-175.5 -110.5t-236 -40q-244 0 -388.5 117.5t-144.5 343.5q0 36 6 82h342q-6 -30 -6 -64q0 -100 47 -162.5t154 -62.5q117 0 178.5 96.5t61.5 282.5q-115 -27 -232 -27 q-87 0 -164.5 12.5t-153.5 43.5t-130 79.5t-87.5 127t-33.5 178.5zM475 1026q0 -102 71.5 -148.5t180.5 -46.5q97 0 195 25q0 89 -14 156t-36 106t-54.5 63t-64.5 32t-71 8q-88 0 -147.5 -54t-59.5 -141z" />
<glyph unicode="&#x400;" horiz-adv-x="1474" d="M211 375v1009h1098v-268h-721v-282h639v-269h-639v-190q0 -56 24 -81.5t86 -25.5h637v-268h-704q-216 0 -318 94t-102 281zM387 1833h381l176 -309h-258z" />
<glyph unicode="&#x401;" horiz-adv-x="1474" d="M211 375v1009h1098v-268h-721v-282h639v-269h-639v-190q0 -56 24 -81.5t86 -25.5h637v-268h-704q-216 0 -318 94t-102 281zM383 1542v256h305v-256h-305zM834 1542v256h305v-256h-305z" />
<glyph unicode="&#x402;" horiz-adv-x="1859" d="M37 1116v268h1384v-268h-503v-278q53 33 144.5 63.5t199.5 30.5q216 0 345.5 -155.5t129.5 -414.5q0 -133 -36.5 -244.5t-99.5 -189t-147 -131.5t-179 -79t-196 -25v272q283 51 283 373q0 141 -52.5 221t-160.5 80q-114 0 -231 -86v-553h-377v1116h-504z" />
<glyph unicode="&#x403;" horiz-adv-x="1366" d="M231 0v1384h1098v-268h-721v-1116h-377zM623 1524l176 309h381l-299 -309h-258z" />
<glyph unicode="&#x404;" horiz-adv-x="1546" d="M109 692q0 156 56.5 289t161.5 230.5t265.5 152.5t359.5 55q137 0 261 -21.5t190 -54.5v-276q-69 34 -186 56t-242 22q-181 0 -301 -81.5t-158 -232.5h711v-266h-715q35 -158 156.5 -242.5t306.5 -84.5q113 0 229.5 24t208.5 70v-277q-195 -90 -461 -90q-199 0 -359.5 55 t-265.5 152.5t-161.5 230.5t-56.5 289z" />
<glyph unicode="&#x405;" horiz-adv-x="1361" d="M141 985q0 137 80 235.5t222.5 148.5t332.5 50q239 0 410 -61v-289q-167 76 -400 76q-254 0 -254 -139q0 -33 24 -57.5t64.5 -41t93.5 -31.5t111.5 -31.5t116.5 -37t111 -53.5t93.5 -75.5t64.5 -107t24 -145.5q0 -97 -33.5 -175.5t-90 -131t-133.5 -88.5t-162 -52 t-179 -16q-128 0 -254 25t-221 65v279q92 -41 211 -67.5t229 -26.5q242 0 242 149q0 47 -39 79.5t-101 53t-136.5 40.5t-149.5 50.5t-137 74t-101 120.5t-39 180z" />
<glyph unicode="&#x406;" horiz-adv-x="839" d="M231 0v1384h377v-1384h-377z" />
<glyph unicode="&#x407;" horiz-adv-x="839" d="M43 1575v256h305v-256h-305zM231 0v1384h377v-1384h-377zM494 1575v256h305v-256h-305z" />
<glyph unicode="&#x408;" horiz-adv-x="1044" d="M80 14v277q124 -53 225 -53q82 0 116 36.5t34 122.5v987h376v-974q0 -224 -120 -334.5t-349 -110.5q-157 0 -282 49z" />
<glyph unicode="&#x409;" horiz-adv-x="2469" d="M57 -37v275q121 12 165 114.5t44 335.5v696h1219v-450h221q212 0 365.5 -51t239 -156.5t85.5 -259.5t-85.5 -259.5t-239 -156.5t-365.5 -51h-598v1106h-463v-418q0 -138 -16 -244.5t-56.5 -199.5t-106.5 -153t-168.5 -94t-240.5 -34zM1485 268h221q299 0 299 199 t-299 199h-221v-398z" />
<glyph unicode="&#x40a;" horiz-adv-x="2504" d="M231 0v1384h377v-450h535v450h377v-450h221q212 0 365.5 -51t239 -156.5t85.5 -259.5t-85.5 -259.5t-239 -156.5t-365.5 -51h-598v666h-535v-666h-377zM1520 268h221q299 0 299 199t-299 199h-221v-398z" />
<glyph unicode="&#x40b;" horiz-adv-x="1904" d="M37 1116v268h1384v-268h-503v-278q151 94 364 94q226 0 330 -111t104 -372v-449h-377v446q0 98 -47 144.5t-143 46.5q-63 0 -125 -26t-106 -58v-553h-377v1116h-504z" />
<glyph unicode="&#x40c;" horiz-adv-x="1669" d="M231 0v1384h377v-571l606 571h439l-703 -661l719 -723h-481l-580 588v-588h-377zM733 1524l176 309h381l-299 -309h-258z" />
<glyph unicode="&#x40d;" horiz-adv-x="1886" d="M231 0v1384h367v-856l737 856h320v-1384h-367v856l-735 -856h-322zM580 1833h381l176 -309h-258z" />
<glyph unicode="&#x40e;" horiz-adv-x="1478" d="M20 1384h412l361 -643l385 643h360l-627 -1103q-40 -72 -85 -125.5t-106 -98.5t-142 -68.5t-179 -23.5q-144 0 -260 35v272q106 -34 213 -34q71 0 117 25t82 87l39 66zM393 1833h203q22 -127 182 -127q161 0 183 127h202q-7 -153 -110.5 -237.5t-274.5 -84.5t-274.5 84.5 t-110.5 237.5z" />
<glyph unicode="&#x40f;" horiz-adv-x="1792" d="M231 0v1384h379v-1116h574v1116h377v-1384h-480l-20 -287h-334l-20 287h-476z" />
<glyph unicode="&#x410;" horiz-adv-x="1605" d="M-18 0l657 1384h334l651 -1384h-412l-106 238h-657l-107 -238h-360zM563 496h428l-213 479z" />
<glyph unicode="&#x411;" horiz-adv-x="1607" d="M231 0v1384h1098v-268h-721v-182h221q213 0 366 -51t239 -156.5t86 -259.5t-86 -259.5t-239 -156.5t-366 -51h-598zM608 268h221q299 0 299 199t-299 199h-221v-398z" />
<glyph unicode="&#x412;" horiz-adv-x="1611" d="M231 0v1384h560q671 0 671 -378q0 -115 -69 -187t-172 -108q52 -10 100.5 -33.5t90 -61t66.5 -94t25 -123.5q0 -106 -52.5 -184.5t-150 -124.5t-224 -68t-285.5 -22h-560zM608 268h195q309 0 309 154q0 151 -309 151h-195v-305zM608 831h183q93 0 150.5 11t93.5 43.5 t36 89.5q0 82 -69 111.5t-211 29.5h-183v-285z" />
<glyph unicode="&#x413;" horiz-adv-x="1366" d="M231 0v1384h1098v-268h-721v-1116h-377z" />
<glyph unicode="&#x414;" horiz-adv-x="1675" d="M23 268h90q99 119 129 264t30 406v446h1172v-1116h129v-555h-313l-11 287h-901l-12 -287h-313v555zM496 268h571v838h-444v-168q0 -129 -3 -203.5t-15 -164t-38.5 -161t-70.5 -141.5z" />
<glyph unicode="&#x415;" horiz-adv-x="1474" d="M211 375v1009h1098v-268h-721v-282h639v-269h-639v-190q0 -56 24 -81.5t86 -25.5h637v-268h-704q-216 0 -318 94t-102 281z" />
<glyph unicode="&#x416;" horiz-adv-x="2498" d="M0 0l621 805l-605 579h439l606 -591v591h377v-591l606 591h438l-604 -579l621 -805h-467l-433 565l-161 -139v-426h-377v426l-162 139l-432 -565h-467z" />
<glyph unicode="&#x417;" horiz-adv-x="1308" d="M109 53v283q92 -41 206.5 -69.5t221.5 -28.5q278 0 278 165q0 152 -272 152h-209v279h188q126 0 201.5 41.5t75.5 117.5q0 78 -69.5 115t-190.5 37q-209 0 -406 -96v282q193 88 436 88q139 0 251.5 -24t195.5 -72.5t128.5 -127t45.5 -181.5q0 -111 -71 -191.5 t-208 -115.5q141 -31 218 -113t77 -211q0 -136 -84.5 -231.5t-226.5 -141t-328 -45.5q-265 0 -458 88z" />
<glyph unicode="&#x418;" horiz-adv-x="1886" d="M231 0v1384h367v-856l737 856h320v-1384h-367v856l-735 -856h-322z" />
<glyph unicode="&#x419;" horiz-adv-x="1886" d="M231 0v1384h367v-856l737 856h320v-1384h-367v856l-735 -856h-322zM557 1833h203q22 -127 182 -127t182 127h203q-7 -153 -110.5 -237.5t-274.5 -84.5t-274.5 84.5t-110.5 237.5z" />
<glyph unicode="&#x41a;" horiz-adv-x="1669" d="M231 0v1384h377v-591l606 591h439l-604 -579l620 -805h-467l-432 565l-162 -139v-426h-377z" />
<glyph unicode="&#x41b;" horiz-adv-x="1761" d="M57 -35v273q121 12 165 114.5t44 335.5v696h1264v-1384h-377v1106h-508v-418q0 -138 -16 -244t-56.5 -198.5t-106.5 -152.5t-168.5 -94t-240.5 -34z" />
<glyph unicode="&#x41c;" horiz-adv-x="2273" d="M231 0v1384h367l539 -786l538 786h367v-1384h-371v840l-377 -572h-315l-377 572v-840h-371z" />
<glyph unicode="&#x41d;" horiz-adv-x="1910" d="M231 0v1384h377v-538h695v538h376v-1384h-376v567h-695v-567h-377z" />
<glyph unicode="&#x41e;" horiz-adv-x="1945" d="M109 692q0 224 109 389.5t303.5 251.5t451.5 86t451.5 -86t303.5 -251.5t109 -389.5t-109 -389.5t-303.5 -251.5t-451.5 -86t-451.5 86t-303.5 251.5t-109 389.5zM500 692q0 -209 123 -331.5t350 -122.5t350 122.5t123 331.5q0 208 -123 330.5t-350 122.5t-350 -122.5 t-123 -330.5z" />
<glyph unicode="&#x41f;" horiz-adv-x="1857" d="M231 0v1384h1395v-1384h-377v1116h-641v-1116h-377z" />
<glyph unicode="&#x420;" horiz-adv-x="1626" d="M231 0v1384h598q323 0 507 -118.5t184 -347.5q0 -154 -86 -259.5t-239 -156.5t-366 -51h-221v-451h-377zM608 719h221q299 0 299 199q0 198 -299 198h-221v-397z" />
<glyph unicode="&#x421;" horiz-adv-x="1525" d="M109 692q0 156 56.5 289t161.5 230.5t265.5 152.5t359.5 55q137 0 261 -21.5t190 -54.5v-276q-69 34 -186 56t-242 22q-220 0 -347.5 -118t-127.5 -335t127.5 -335.5t347.5 -118.5q113 0 229.5 24t208.5 70v-277q-195 -90 -461 -90q-199 0 -359.5 55t-265.5 152.5 t-161.5 230.5t-56.5 289z" />
<glyph unicode="&#x422;" horiz-adv-x="1458" d="M37 1116v268h1384v-268h-503v-1116h-377v1116h-504z" />
<glyph unicode="&#x423;" horiz-adv-x="1478" d="M20 1384h412l361 -643l385 643h360l-627 -1103q-40 -72 -85 -125.5t-106 -98.5t-142 -68.5t-179 -23.5q-144 0 -260 35v272q106 -34 213 -34q71 0 117 25t82 87l39 66z" />
<glyph unicode="&#x424;" horiz-adv-x="1945" d="M109 692q0 177 87 309t237 205t351 92v156h377v-156q201 -19 351 -92t237.5 -205t87.5 -309t-87.5 -309t-237.5 -205t-351 -92v-156h-377v156q-201 19 -351 92t-237 205t-87 309zM500 692q0 -129 73.5 -222t210.5 -118v676q-137 -25 -210.5 -117t-73.5 -219zM1161 352 q136 26 210.5 119t74.5 221q0 127 -74.5 218.5t-210.5 117.5v-676z" />
<glyph unicode="&#x425;" horiz-adv-x="1572" d="M0 0l578 709l-533 675h430l324 -409l327 409h406l-535 -657l576 -727h-432l-363 465l-370 -465h-408z" />
<glyph unicode="&#x426;" horiz-adv-x="1792" d="M231 0v1384h379v-1116h574v1116h377v-1116h129v-555h-314l-10 287h-1135z" />
<glyph unicode="&#x427;" horiz-adv-x="1728" d="M143 946v438h377v-436q0 -136 68 -194t203 -58q168 0 335 107v581h371v-1384h-371v508q-71 -44 -174.5 -75.5t-218.5 -31.5q-274 0 -432 141.5t-158 403.5z" />
<glyph unicode="&#x428;" horiz-adv-x="2537" d="M231 0v1384h377v-1116h471v1116h379v-1116h471v1116h377v-1384h-2075z" />
<glyph unicode="&#x429;" horiz-adv-x="2537" d="M231 0v1384h377v-1116h471v1116h379v-1116h471v1116h377v-1114h129v-557h-313l-11 287h-1880z" />
<glyph unicode="&#x42a;" horiz-adv-x="1744" d="M27 1116v268h733v-450h221q212 0 365.5 -51t239 -156.5t85.5 -259.5t-85.5 -259.5t-239 -156.5t-365.5 -51h-598v1116h-356zM760 268h221q299 0 299 199t-299 199h-221v-398z" />
<glyph unicode="&#x42b;" horiz-adv-x="2435" d="M231 0v1384h377v-450h221q213 0 366 -51t239 -156.5t86 -259.5t-86 -259.5t-239 -156.5t-366 -51h-598zM608 268h221q299 0 299 199t-299 199h-221v-398zM1827 0v1384h377v-1384h-377z" />
<glyph unicode="&#x42c;" horiz-adv-x="1593" d="M231 0v1384h377v-450h221q213 0 366 -51t239 -156.5t86 -259.5t-86 -259.5t-239 -156.5t-366 -51h-598zM608 268h221q299 0 299 199t-299 199h-221v-398z" />
<glyph unicode="&#x42d;" horiz-adv-x="1546" d="M133 55v277q92 -46 208.5 -70t229.5 -24q185 0 306.5 84.5t156.5 242.5h-715v266h711q-38 151 -158 232.5t-301 81.5q-125 0 -242 -22t-186 -56v276q66 33 190 54.5t261 21.5q199 0 359.5 -55t266 -152.5t162 -230.5t56.5 -289t-56.5 -289t-162 -230.5t-266 -152.5 t-359.5 -55q-266 0 -461 90z" />
<glyph unicode="&#x42e;" horiz-adv-x="2682" d="M231 0v1384h377v-538h252q52 269 279.5 421t570.5 152q257 0 451.5 -86t303.5 -251.5t109 -389.5t-109 -389.5t-303.5 -251.5t-451.5 -86q-351 0 -581.5 160t-274.5 442h-246v-567h-377zM1237 692q0 -209 123 -331.5t350 -122.5t350 122.5t123 331.5q0 208 -123 330.5 t-350 122.5t-350 -122.5t-123 -330.5z" />
<glyph unicode="&#x42f;" horiz-adv-x="1634" d="M88 0l383 530q-171 42 -263.5 142.5t-92.5 253.5q0 219 181 338.5t486 119.5h621v-1384h-377v463h-197l-317 -463h-424zM506 924q0 -57 24 -96.5t68 -59.5t93.5 -28.5t113.5 -8.5h221v385h-221q-64 0 -113.5 -8t-93.5 -28t-68 -59.5t-24 -96.5z" />
<glyph unicode="&#x430;" horiz-adv-x="1349" d="M90 467q0 255 170 398t459 143q134 0 241.5 -17t231.5 -53v-938h-274l-27 86q-118 -121 -307 -121q-95 0 -181 30t-157 89t-113.5 158t-42.5 225zM444 481q0 -125 61 -184t165 -59q106 0 174 51v452q-60 13 -113 13q-126 0 -206.5 -65.5t-80.5 -207.5z" />
<glyph unicode="&#x431;" d="M90 651q0 334 143 523t392 241q90 18 183.5 31t208 25t175.5 20v-285q-57 -5 -155.5 -12t-157 -11.5t-130 -16.5t-122.5 -31q-204 -73 -240 -281q119 154 379 154q257 0 397 -136t140 -385q0 -245 -165.5 -383.5t-441.5 -138.5q-207 0 -344 84.5t-199.5 235.5t-62.5 366z M446 487q0 -124 68.5 -196t181.5 -72t181.5 72t68.5 196q0 123 -68.5 195t-181.5 72t-181.5 -72t-68.5 -195z" />
<glyph unicode="&#x432;" horiz-adv-x="1376" d="M176 0v973h508q285 0 425 -59t140 -207q0 -84 -60.5 -138t-148.5 -69q97 -8 171.5 -67t74.5 -152q0 -66 -29 -115.5t-79.5 -81t-128.5 -50.5t-165.5 -26.5t-199.5 -7.5h-508zM522 195h187q118 0 168.5 21.5t50.5 80.5t-50 79.5t-169 20.5h-187v-202zM522 590h150 q120 0 169.5 18t49.5 76q0 59 -49 76.5t-170 17.5h-150v-188z" />
<glyph unicode="&#x433;" horiz-adv-x="1009" d="M176 0v973h789v-277h-441v-696h-348z" />
<glyph unicode="&#x434;" horiz-adv-x="1359" d="M16 270h90q54 55 76.5 141.5t22.5 221.5v340h964v-703h107v-557h-268l-21 287h-682l-20 -287h-269v557zM432 270h389v426h-295v-63q0 -144 -21.5 -224t-72.5 -139z" />
<glyph unicode="&#x435;" horiz-adv-x="1312" d="M90 494q0 162 77.5 280t208 176t296.5 58q138 0 246 -37t173 -100.5t98.5 -141.5t33.5 -166v-178h-762q32 -166 325 -166q106 0 217.5 20.5t182.5 47.5v-252q-66 -31 -197.5 -50.5t-247.5 -19.5q-108 0 -201.5 17t-177.5 56.5t-143.5 99.5t-94 150.5t-34.5 205.5z M457 592h409q-5 182 -204 182q-84 0 -139 -44.5t-66 -137.5z" />
<glyph unicode="&#x436;" horiz-adv-x="1933" d="M-6 0l436 557l-432 416h410l385 -408v408h348v-408l385 408h409l-432 -416l436 -557h-405l-270 348l-123 -117v-231h-348v231l-123 117l-271 -348h-405z" />
<glyph unicode="&#x437;" horiz-adv-x="1228" d="M125 23v258q64 -25 187 -43.5t229 -18.5q118 0 176.5 17t58.5 61q0 42 -56 59t-181 17h-183v229h203q93 0 141 16.5t48 55.5q0 86 -228 86q-91 0 -204 -16.5t-179 -45.5v258q59 22 184 37t230 15q270 0 412.5 -76.5t142.5 -208.5q0 -188 -240 -236q50 -7 94.5 -23 t86.5 -43.5t67 -73t25 -103.5q0 -279 -578 -279q-103 0 -239.5 17.5t-196.5 40.5z" />
<glyph unicode="&#x438;" horiz-adv-x="1476" d="M176 0v973h348v-555l428 555h348v-973h-348v553l-428 -553h-348z" />
<glyph unicode="&#x439;" horiz-adv-x="1476" d="M176 0v973h348v-555l428 555h348v-973h-348v553l-428 -553h-348zM352 1454h203q22 -127 182 -127q161 0 183 127h202q-7 -153 -110.5 -237t-274.5 -84t-274.5 84t-110.5 237z" />
<glyph unicode="&#x43a;" horiz-adv-x="1316" d="M176 0v973h348v-408l385 408h410l-432 -416l436 -557h-405l-271 348l-123 -117v-231h-348z" />
<glyph unicode="&#x43b;" horiz-adv-x="1396" d="M0 -35v262q128 15 171.5 93t43.5 282v371h1006v-973h-349v696h-329v-96q0 -151 -27 -263.5t-88.5 -198t-168.5 -129.5t-259 -44z" />
<glyph unicode="&#x43c;" horiz-adv-x="1894" d="M176 0v973h385l385 -576l387 576h385v-973h-346v539l-260 -387h-330l-260 387v-539h-346z" />
<glyph unicode="&#x43d;" horiz-adv-x="1456" d="M176 0v973h348v-320h408v320h348v-973h-348v381h-408v-381h-348z" />
<glyph unicode="&#x43e;" d="M90 487q0 245 165 383t441 138t441.5 -138t165.5 -383t-165.5 -383.5t-441.5 -138.5t-441 138.5t-165 383.5zM446 487q0 -124 68.5 -196t181.5 -72t181.5 72t68.5 196q0 123 -68.5 195t-181.5 72t-181.5 -72t-68.5 -195z" />
<glyph unicode="&#x43f;" horiz-adv-x="1437" d="M176 0v973h1086v-973h-349v696h-389v-696h-348z" />
<glyph unicode="&#x440;" horiz-adv-x="1368" d="M176 -389v1362h311l21 -74q50 45 127.5 77t167.5 32q69 0 134 -16t127.5 -54t109.5 -95t75.5 -146t28.5 -199q0 -168 -80 -290.5t-214.5 -182.5t-305.5 -60q-78 0 -154 12v-366h-348zM524 236q50 -17 121 -17q125 0 202 65.5t77 204.5q0 127 -62 189.5t-164 62.5 q-103 0 -174 -49v-456z" />
<glyph unicode="&#x441;" horiz-adv-x="1165" d="M90 487q0 237 162.5 379t445.5 142q190 0 312 -52v-264q-72 34 -135.5 48t-145.5 14q-138 0 -210.5 -73t-72.5 -196q0 -122 73 -194t210 -72q154 0 293 68v-264q-136 -58 -334 -58q-142 0 -257 40.5t-188.5 111.5t-113 165.5t-39.5 204.5z" />
<glyph unicode="&#x442;" horiz-adv-x="1136" d="M41 696v277h1055v-277h-353v-696h-348v696h-354z" />
<glyph unicode="&#x443;" horiz-adv-x="1204" d="M0 973h367l237 -641l250 641h350l-442 -1008q-90 -205 -243.5 -298t-393.5 -93v268q53 3 91 10t81 24.5t77.5 53.5t59.5 90z" />
<glyph unicode="&#x444;" horiz-adv-x="1712" d="M90 487q0 455 596 512v385h340v-385q284 -27 440 -152.5t156 -359.5q0 -236 -156.5 -362t-439.5 -152v-362h-340v362q-285 26 -440.5 151.5t-155.5 362.5zM442 487q0 -103 63.5 -168t180.5 -90v514q-117 -25 -180.5 -89.5t-63.5 -166.5zM1026 229q117 25 180.5 90 t63.5 168q0 102 -63.5 166.5t-180.5 89.5v-514z" />
<glyph unicode="&#x445;" horiz-adv-x="1236" d="M16 0l392 492l-388 481h418l191 -273l186 273h391l-379 -486l394 -487h-414l-205 274l-196 -274h-390z" />
<glyph unicode="&#x446;" horiz-adv-x="1423" d="M176 0v973h348v-705h361v705h348v-705h106v-555h-268l-20 287h-875z" />
<glyph unicode="&#x447;" horiz-adv-x="1318" d="M102 623v350h349v-330q0 -68 40.5 -102.5t112.5 -34.5q108 0 191 69v398h348v-973h-348v319q-125 -86 -289 -86q-193 0 -298.5 101.5t-105.5 288.5z" />
<glyph unicode="&#x448;" horiz-adv-x="2035" d="M176 0v973h348v-705h320v705h348v-705h319v705h349v-973h-1684z" />
<glyph unicode="&#x449;" horiz-adv-x="2050" d="M176 0v973h348v-705h320v705h348v-705h319v705h349v-705h106v-555h-268l-21 287h-1501z" />
<glyph unicode="&#x44a;" horiz-adv-x="1372" d="M20 696v277h586v-275h137q112 0 198 -9.5t161 -33t123.5 -62t76 -98.5t27.5 -141q0 -63 -14 -113.5t-39.5 -87.5t-65.5 -64t-86.5 -44t-109 -27t-126.5 -14t-145 -4h-483v696h-240zM606 238h148q115 0 166 26.5t51 89.5q0 60 -51 85.5t-166 25.5h-148v-227z" />
<glyph unicode="&#x44b;" horiz-adv-x="1927" d="M176 0v973h346v-275h137q112 0 198 -9.5t161 -33t123.5 -62t76 -98.5t27.5 -141q0 -63 -14 -113.5t-39.5 -87.5t-65.5 -64t-86.5 -44t-109 -27t-126.5 -14t-145 -4h-483zM522 238h148q115 0 166 26.5t51 89.5q0 60 -51 85.5t-166 25.5h-148v-227zM1403 0v973h348v-973 h-348z" />
<glyph unicode="&#x44c;" horiz-adv-x="1288" d="M176 0v973h346v-275h137q112 0 198 -9.5t161 -33t123.5 -62t76 -98.5t27.5 -141q0 -63 -14 -113.5t-39.5 -87.5t-65.5 -64t-86.5 -44t-109 -27t-126.5 -14t-145 -4h-483zM522 238h148q115 0 166 26.5t51 89.5q0 60 -51 85.5t-166 25.5h-148v-227z" />
<glyph unicode="&#x44d;" horiz-adv-x="1159" d="M139 23v264q139 -68 293 -68q104 0 171.5 41.5t94.5 116.5h-430v231h424q-60 146 -260 146q-81 0 -144.5 -14t-135.5 -48v264q122 52 311 52q283 0 445.5 -142t162.5 -379q0 -110 -39.5 -204.5t-113 -165.5t-188.5 -111.5t-257 -40.5q-198 0 -334 58z" />
<glyph unicode="&#x44e;" horiz-adv-x="2025" d="M176 0v973h348v-299h230q57 161 207 247.5t368 86.5q276 0 441 -138t165 -383t-165 -383.5t-441 -138.5q-244 0 -403.5 109t-194.5 307h-207v-381h-348zM1079 487q0 -124 68.5 -196t181.5 -72t181.5 72t68.5 196q0 123 -68.5 195t-181.5 72t-181.5 -72t-68.5 -195z" />
<glyph unicode="&#x44f;" horiz-adv-x="1398" d="M78 0l287 342q-252 76 -252 295q0 172 153.5 254t431.5 82h525v-973h-346v276h-183l-225 -276h-391zM471 621q0 -60 51 -85.5t166 -25.5h189v227h-189q-115 0 -166 -26.5t-51 -89.5z" />
<glyph unicode="&#x450;" horiz-adv-x="1312" d="M90 494q0 162 77.5 280t208 176t296.5 58q138 0 246 -37t173 -100.5t98.5 -141.5t33.5 -166v-178h-762q32 -166 325 -166q106 0 217.5 20.5t182.5 47.5v-252q-66 -31 -197.5 -50.5t-247.5 -19.5q-108 0 -201.5 17t-177.5 56.5t-143.5 99.5t-94 150.5t-34.5 205.5z M262 1454h381l176 -309h-258zM457 592h409q-5 182 -204 182q-84 0 -139 -44.5t-66 -137.5z" />
<glyph unicode="&#x451;" horiz-adv-x="1312" d="M90 494q0 162 77.5 280t208 176t296.5 58q138 0 246 -37t173 -100.5t98.5 -141.5t33.5 -166v-178h-762q32 -166 325 -166q106 0 217.5 20.5t182.5 47.5v-252q-66 -31 -197.5 -50.5t-247.5 -19.5q-108 0 -201.5 17t-177.5 56.5t-143.5 99.5t-94 150.5t-34.5 205.5z M297 1163v256h305v-256h-305zM457 592h409q-5 182 -204 182q-84 0 -139 -44.5t-66 -137.5zM748 1163v256h305v-256h-305z" />
<glyph unicode="&#x452;" horiz-adv-x="1386" d="M-2 1145v164h178v145h348v-145h400v-164h-400v-232q58 43 136.5 69t160.5 26q120 0 208.5 -43t140 -121.5t76 -178.5t24.5 -223q0 -153 -31 -275.5t-85.5 -206.5t-133 -140t-171 -81.5t-200.5 -25.5v254q275 29 275 447q0 162 -46 238.5t-167 76.5q-83 0 -187 -53v-676 h-348v1145h-178z" />
<glyph unicode="&#x453;" horiz-adv-x="1013" d="M176 0v973h789v-277h-441v-696h-348zM412 1145l176 309h381l-299 -309h-258z" />
<glyph unicode="&#x454;" horiz-adv-x="1159" d="M90 487q0 237 162.5 379t445.5 142q190 0 312 -52v-264q-72 34 -135.5 48t-145.5 14q-200 0 -260 -146h424v-231h-430q27 -75 94.5 -116.5t171.5 -41.5q154 0 293 68v-264q-136 -58 -334 -58q-142 0 -257 40.5t-188.5 111.5t-113 165.5t-39.5 204.5z" />
<glyph unicode="&#x455;" horiz-adv-x="1101" d="M98 666q0 89 42 156.5t116.5 107t169.5 59t209 19.5q222 0 381 -47v-252q-72 31 -176 48t-201 17q-86 0 -139.5 -19t-53.5 -59q0 -22 21 -36.5t57 -22t82.5 -13t98 -13t102.5 -18.5t97.5 -32.5t82.5 -52t57 -80t21 -113.5q0 -90 -40.5 -158t-112.5 -109.5t-165 -62 t-204 -20.5q-233 0 -422 74v260q185 -80 420 -80q176 0 176 74q0 28 -34 45t-88.5 25.5t-120.5 16.5t-132.5 25.5t-121 46t-88.5 83t-34 131.5z" />
<glyph unicode="&#x456;" horiz-adv-x="700" d="M176 0v973h348v-973h-348zM176 1151v268h348v-268h-348z" />
<glyph unicode="&#x457;" horiz-adv-x="700" d="M-27 1163v256h306v-256h-306zM176 0v973h348v-973h-348zM424 1163v256h305v-256h-305z" />
<glyph unicode="&#x458;" horiz-adv-x="700" d="M-31 -125q66 -27 123 -27q44 0 64 20.5t20 70.5v1034h348v-1034q0 -164 -87 -263.5t-255 -99.5q-115 0 -213 35v264zM176 1151v268h348v-268h-348z" />
<glyph unicode="&#x459;" horiz-adv-x="1923" d="M0 -35v262q128 15 171.5 93t43.5 282v371h942v-275h137q112 0 198 -9.5t161 -33t123.5 -62t76 -98.5t27.5 -141q0 -63 -14 -113.5t-39.5 -87.5t-65.5 -64t-86.5 -44t-109 -27t-126.5 -14t-145 -4h-485v696h-266v-96q0 -151 -27 -263.5t-88.5 -198t-168.5 -129.5t-259 -44 zM1157 238h148q115 0 166 26.5t51 89.5q0 60 -51 85.5t-166 25.5h-148v-227z" />
<glyph unicode="&#x45a;" horiz-adv-x="1998" d="M176 0v973h348v-273h363v273h346v-275h137q112 0 198 -9.5t161 -33t123.5 -62t76 -98.5t27.5 -141q0 -63 -14 -113.5t-39.5 -87.5t-65.5 -64t-86.5 -44t-109 -27t-126.5 -14t-145 -4h-483v461h-363v-461h-348zM1233 238h147q115 0 166 26.5t51 89.5q0 60 -51 85.5 t-166 25.5h-147v-227z" />
<glyph unicode="&#x45b;" horiz-adv-x="1431" d="M0 1145v164h178v145h348v-145h400v-164h-400v-232q64 44 152.5 69.5t175.5 25.5q88 0 161.5 -23.5t131 -71t89.5 -126.5t32 -183v-604h-348v575q0 79 -50.5 115.5t-130.5 36.5q-117 0 -213 -51v-676h-348v1145h-178z" />
<glyph unicode="&#x45c;" horiz-adv-x="1316" d="M176 0v973h348v-408l385 408h410l-432 -416l436 -557h-405l-271 348l-123 -117v-231h-348zM541 1145l176 309h381l-299 -309h-258z" />
<glyph unicode="&#x45d;" horiz-adv-x="1476" d="M176 0v973h348v-555l428 555h348v-973h-348v553l-428 -553h-348zM346 1454h381l176 -309h-258z" />
<glyph unicode="&#x45e;" horiz-adv-x="1204" d="M0 973h367l237 -641l250 641h350l-442 -1008q-90 -205 -243.5 -298t-393.5 -93v268q53 3 91 10t81 24.5t77.5 53.5t59.5 90zM217 1454h203q22 -127 182 -127t182 127h203q-7 -153 -110.5 -237t-274.5 -84t-274.5 84t-110.5 237z" />
<glyph unicode="&#x45f;" horiz-adv-x="1406" d="M176 0v973h346v-705h361v705h348v-973h-373l-10 -287h-289l-10 287h-373z" />
<glyph unicode="&#x462;" horiz-adv-x="1617" d="M61 1128v228h195v98h377v-98h395v-228h-395v-194h221q212 0 365.5 -51t239 -156.5t85.5 -259.5t-85.5 -259.5t-239 -156.5t-365.5 -51h-598v1128h-195zM633 268h221q299 0 299 199t-299 199h-221v-398z" />
<glyph unicode="&#x463;" horiz-adv-x="1378" d="M0 809v164h266v309h346v-309h373v-164h-373v-111h138q112 0 198 -9.5t161 -33t123 -62t75.5 -98.5t27.5 -141q0 -88 -27.5 -151.5t-75 -102.5t-124 -61.5t-160 -30.5t-198.5 -8h-484v809h-266zM612 238h148q115 0 166 26.5t51 89.5q0 60 -51 85.5t-166 25.5h-148v-227z " />
<glyph unicode="&#x472;" horiz-adv-x="1945" d="M109 692q0 224 109 389.5t303.5 251.5t451.5 86t451.5 -86t303.5 -251.5t109 -389.5t-109 -389.5t-303.5 -251.5t-451.5 -86t-451.5 86t-303.5 251.5t-109 389.5zM512 569q35 -156 152.5 -243.5t308.5 -87.5t308.5 87.5t150.5 243.5h-920zM516 831h914q-38 148 -155 231 t-302 83q-187 0 -304 -83t-153 -231z" />
<glyph unicode="&#x473;" d="M90 487q0 245 165 383t441 138t441.5 -138t165.5 -383t-165.5 -383.5t-441.5 -138.5t-441 138.5t-165 383.5zM461 590h471q-25 77 -87.5 120.5t-148.5 43.5q-87 0 -148.5 -43.5t-86.5 -120.5zM463 377q26 -75 87 -116.5t146 -41.5t145.5 41.5t86.5 116.5h-465z" />
<glyph unicode="&#x474;" horiz-adv-x="1605" d="M0 1384h412l434 -970l332 753q65 146 142.5 199t205.5 55q22 0 80 -4v-264h-21q-33 0 -57.5 -22t-48.5 -70l-506 -1061h-322z" />
<glyph unicode="&#x475;" horiz-adv-x="1236" d="M16 973h367l244 -619l157 400q30 76 64.5 126t79 77.5t92.5 38.5t113 12q21 0 79 -4v-265h-20q-42 0 -68.5 -22.5t-48.5 -69.5l-295 -647h-340z" />
<glyph unicode="&#x490;" horiz-adv-x="1351" d="M231 0v1384h758l12 287h314v-553l-707 -2v-1116h-377z" />
<glyph unicode="&#x491;" horiz-adv-x="1009" d="M176 0v973h502l20 291h267v-568h-441v-696h-348z" />
<glyph unicode="&#x2000;" horiz-adv-x="933" />
<glyph unicode="&#x2001;" horiz-adv-x="1866" />
<glyph unicode="&#x2002;" horiz-adv-x="933" />
<glyph unicode="&#x2003;" horiz-adv-x="1866" />
<glyph unicode="&#x2004;" horiz-adv-x="622" />
<glyph unicode="&#x2005;" horiz-adv-x="466" />
<glyph unicode="&#x2006;" horiz-adv-x="311" />
<glyph unicode="&#x2007;" horiz-adv-x="311" />
<glyph unicode="&#x2008;" horiz-adv-x="233" />
<glyph unicode="&#x2009;" horiz-adv-x="373" />
<glyph unicode="&#x200a;" horiz-adv-x="103" />
<glyph unicode="&#x2010;" horiz-adv-x="978" d="M156 436v262h667v-262h-667z" />
<glyph unicode="&#x2011;" horiz-adv-x="978" d="M156 436v262h667v-262h-667z" />
<glyph unicode="&#x2012;" horiz-adv-x="978" d="M156 436v262h667v-262h-667z" />
<glyph unicode="&#x2013;" horiz-adv-x="1449" d="M156 438v260h1138v-260h-1138z" />
<glyph unicode="&#x2014;" horiz-adv-x="2519" d="M156 440v258h2207v-258h-2207z" />
<glyph unicode="&#x2018;" horiz-adv-x="665" d="M98 995q0 284 326 424l143 -153q-86 -62 -125 -122.5t-39 -142.5q0 -52 12.5 -92t41.5 -92h-318q-41 81 -41 178z" />
<glyph unicode="&#x2019;" horiz-adv-x="665" d="M98 934q164 108 164 266q0 89 -53 184h313q45 -89 45 -186q0 -136 -87 -250.5t-238 -167.5z" />
<glyph unicode="&#x201a;" horiz-adv-x="665" d="M98 -223q164 108 164 266q0 89 -53 184h313q45 -89 45 -186q0 -136 -87 -250.5t-238 -167.5z" />
<glyph unicode="&#x201c;" horiz-adv-x="1185" d="M98 1001q0 136 87.5 250.5t238.5 167.5l143 -153q-164 -108 -164 -267q0 -87 54 -184h-314q-45 89 -45 186zM618 1001q0 136 87.5 250.5t238.5 167.5l143 -153q-163 -108 -163 -267q0 -89 53 -184h-313q-46 91 -46 186z" />
<glyph unicode="&#x201d;" horiz-adv-x="1185" d="M98 934q164 108 164 266q0 89 -53 184h313q45 -89 45 -186q0 -136 -87 -250.5t-238 -167.5zM618 934q164 108 164 266q0 89 -53 184h313q45 -89 45 -186q0 -136 -87 -250.5t-238 -167.5z" />
<glyph unicode="&#x201e;" horiz-adv-x="1185" d="M98 -223q164 108 164 266q0 89 -53 184h313q45 -89 45 -186q0 -136 -87 -250.5t-238 -167.5zM618 -223q164 108 164 266q0 89 -53 184h313q45 -89 45 -186q0 -136 -87 -250.5t-238 -167.5z" />
<glyph unicode="&#x2022;" horiz-adv-x="987" d="M102 649q0 146 107.5 235t284.5 89t284 -89t107 -235t-107 -234.5t-284 -88.5t-284.5 88.5t-107.5 234.5z" />
<glyph unicode="&#x2026;" horiz-adv-x="2093" d="M168 0v307h360v-307h-360zM866 0v307h361v-307h-361zM1565 0v307h360v-307h-360z" />
<glyph unicode="&#x202f;" horiz-adv-x="373" />
<glyph unicode="&#x2039;" horiz-adv-x="778" d="M51 508l377 407h299l-332 -407l332 -408h-299z" />
<glyph unicode="&#x203a;" horiz-adv-x="778" d="M51 100l332 408l-332 407h299l377 -407l-377 -408h-299z" />
<glyph unicode="&#x205f;" horiz-adv-x="466" />
<glyph unicode="&#x20ac;" horiz-adv-x="1343" d="M0 461l51 147h139q-4 32 -4 101q0 28 4 90h-190l51 141h160q23 103 76.5 186t123 137t157 89.5t176 51t182.5 15.5q185 0 315 -45v-276q-132 47 -287 47q-306 0 -364 -205h584l-50 -141h-555q-4 -31 -4 -88q0 -71 4 -103h492l-51 -147h-414q22 -110 108 -166.5t199 -56.5 q212 0 348 75v-280q-68 -35 -154 -51.5t-227 -16.5q-113 0 -217 29t-194.5 87t-155.5 155.5t-90 224.5h-213z" />
<glyph unicode="&#x2122;" horiz-adv-x="2070" d="M49 1214v170h731v-170h-233v-397h-264v397h-234zM950 817v567h307l158 -274l158 274h307v-567h-248v299l-104 -190h-223l-107 188v-297h-248z" />
<glyph unicode="&#x25fc;" horiz-adv-x="972" d="M0 0v973h973v-973h-973z" />
</font>
</defs>
</svg>
