<?xml version="1.0" standalone="no"?>
<!DOCTYPE svg PUBLIC "-//W3C//DTD SVG 1.1//EN" "http://www.w3.org/Graphics/SVG/1.1/DTD/svg11.dtd" >
<svg xmlns="http://www.w3.org/2000/svg">
<metadata></metadata>
<defs>
<font id="peugeot_expandedregular" horiz-adv-x="1359" >
<font-face units-per-em="2048" ascent="1638" descent="-410" />
<missing-glyph horiz-adv-x="604" />
<glyph horiz-adv-x="0" />
<glyph horiz-adv-x="682" />
<glyph unicode=" "  horiz-adv-x="604" />
<glyph unicode="&#x09;" horiz-adv-x="604" />
<glyph unicode="&#xa0;" horiz-adv-x="604" />
<glyph unicode="!" horiz-adv-x="708" d="M238 1384h233l-29 -993h-176zM242 0v193h227v-193h-227z" />
<glyph unicode="&#x22;" horiz-adv-x="1028" d="M213 1384h197l-19 -516h-158zM621 1384h194l-18 -516h-158z" />
<glyph unicode="#" horiz-adv-x="1474" d="M51 375l29 135h252l82 383h-252l28 133h252l74 358h168l-76 -358h396l75 358h166l-76 -358h254l-28 -135h-254l-80 -381h252l-29 -135h-252l-80 -375h-166l80 375h-395l-80 -375h-168l82 375h-254zM500 510h395l80 383h-395z" />
<glyph unicode="$" horiz-adv-x="1304" d="M143 999q0 157 126 252t323 115v225h145v-219q211 -5 379 -74v-161q-192 80 -418 80q-66 0 -123 -10.5t-106.5 -33.5t-78 -65t-28.5 -100q0 -51 34.5 -89t90.5 -60t128 -44t147.5 -40t147.5 -49t128 -70t90.5 -104.5t34.5 -150.5q0 -89 -33.5 -158.5t-93.5 -114.5 t-134.5 -72t-164.5 -38v-243h-145v235q-116 0 -238 25.5t-207 66.5v162q216 -100 451 -100q73 0 132.5 11.5t109 36t77 68.5t27.5 105q0 49 -27.5 85.5t-74 60.5t-106.5 43.5t-126.5 37t-132.5 37t-126 49t-106.5 68t-74 98t-27.5 135.5z" />
<glyph unicode="%" horiz-adv-x="2144" d="M125 977q0 198 100 317t279 119t279 -119t100 -317t-100 -317t-279 -119t-279 119t-100 317zM285 977q0 -144 54 -222.5t165 -78.5t165 78.5t54 222.5t-54 222.5t-165 78.5t-165 -78.5t-54 -222.5zM541 0l897 1384h166l-897 -1384h-166zM1262 408q0 199 99.5 317.5 t278.5 118.5t279 -119t100 -317t-100 -317.5t-279 -119.5q-178 0 -278 119t-100 318zM1421 408q0 -144 54 -223t165 -79t165.5 79t54.5 223t-54.5 222.5t-165.5 78.5t-165 -78.5t-54 -222.5z" />
<glyph unicode="&#x26;" horiz-adv-x="1624" d="M111 406q0 147 89.5 237t235.5 123q-119 34 -191.5 106t-72.5 187q0 89 45.5 158t125 111t180 63.5t216.5 21.5q232 0 416 -78v-168q-79 38 -191 63t-225 25q-154 0 -249 -51.5t-95 -152.5q0 -105 94.5 -158t243.5 -53h96v-156h-90q-179 0 -291 -67.5t-112 -202.5 q0 -140 109.5 -212.5t306.5 -72.5q222 0 329 107.5t107 320.5h-227v152h634v-152h-209q0 -285 -167.5 -435.5t-477.5 -150.5q-298 0 -464 119.5t-166 315.5z" />
<glyph unicode="'" horiz-adv-x="618" d="M211 1384h195l-19 -516h-158z" />
<glyph unicode="(" horiz-adv-x="677" d="M135 532q0 116 19.5 228t49.5 201t76.5 182.5t89 161.5t99.5 149h180q-51 -80 -68 -106.5t-63.5 -106.5t-66 -123.5t-52.5 -124t-47.5 -144t-26.5 -148t-12 -169.5q0 -114 21 -226t47.5 -192t78 -181t83 -152.5t92.5 -147.5q3 -5 5 -8t4.5 -7t4.5 -7h-180 q-73 103 -124 190.5t-103.5 204.5t-79.5 249.5t-27 276.5z" />
<glyph unicode=")" horiz-adv-x="677" d="M29 -389q132 207 184 310q152 301 152 611q0 85 -12 169.5t-26.5 148t-47.5 144t-52.5 124t-66 123.5t-63.5 106.5t-68 106.5h180q57 -81 99.5 -149t89 -161.5t76.5 -182.5t49.5 -201t19.5 -228q0 -144 -27 -276.5t-79.5 -249.5t-103.5 -204.5t-124 -190.5h-180z" />
<glyph unicode="*" horiz-adv-x="903" d="M86 1112l41 131l266 -90l-24 231h161l-24 -231l266 90l41 -131l-274 -55l188 -183l-125 -92l-153 209l-152 -209l-125 92l188 183z" />
<glyph unicode="+" horiz-adv-x="1392" d="M135 563v148h479v393h162v-393h481v-148h-481v-393h-162v393h-479z" />
<glyph unicode="," horiz-adv-x="628" d="M23 -272q114 58 166.5 131.5t52.5 171.5q0 71 -31 162h201q26 -79 26 -160q0 -142 -89 -253.5t-257 -180.5z" />
<glyph unicode="-" horiz-adv-x="940" d="M176 508v160h588v-160h-588z" />
<glyph unicode="." horiz-adv-x="628" d="M199 0v193h229v-193h-229z" />
<glyph unicode="/" horiz-adv-x="841" d="M0 0l674 1384h168l-674 -1384h-168z" />
<glyph unicode="0" horiz-adv-x="1544" d="M156 690q0 327 166.5 525t449.5 198t450 -198t167 -525q0 -325 -167.5 -522t-449.5 -197t-449 197t-167 522zM381 692q0 -259 100 -411t291 -152t291 152t100 411t-100 411t-291 152t-291 -152t-100 -411z" />
<glyph unicode="1" horiz-adv-x="847" d="M47 1227v157h541v-1384h-215v1227h-326z" />
<glyph unicode="2" horiz-adv-x="1277" d="M117 0v143l499 414q153 126 221 220t68 212q0 133 -93.5 199.5t-244.5 66.5q-110 0 -215.5 -32t-183.5 -82v178q183 94 418 94q112 0 208 -24.5t172.5 -74t120 -131.5t43.5 -188q0 -63 -13 -119t-42 -106.5t-60.5 -92.5t-83.5 -89.5t-94.5 -82t-109.5 -85.5l-348 -262 h766v-158h-1028z" />
<glyph unicode="3" horiz-adv-x="1298" d="M129 55v172q79 -44 194 -71t224 -27q177 0 279 70.5t102 203.5q0 265 -393 265q-76 0 -166 -11v140l514 430h-731v157h985v-141l-523 -438q85 0 161.5 -13.5t146 -44t120 -75t80 -112t29.5 -150.5q0 -139 -76 -239t-209 -150t-309 -50q-246 0 -428 84z" />
<glyph unicode="4" horiz-adv-x="1325" d="M53 352v158l778 874h244v-872h191v-160h-191v-352h-205v352h-817zM272 512h598v668z" />
<glyph unicode="5" horiz-adv-x="1312" d="M150 59v164q82 -40 202.5 -67t227.5 -27q80 0 144.5 16t116.5 50t80.5 93.5t28.5 141.5q0 77 -32.5 133t-90 87t-127 45t-153.5 14q-160 0 -311 -43l-43 39l106 679h829v-157h-657l-57 -375q82 14 168 14q84 0 163 -12t158 -43t137 -78t94.5 -123.5t36.5 -173.5t-31 -176 t-84.5 -132t-128 -89t-158 -52t-177.5 -16q-248 0 -442 88z" />
<glyph unicode="6" horiz-adv-x="1396" d="M133 641q0 164 37 296t101 219.5t153.5 146.5t190.5 84.5t216 25.5q227 0 377 -59v-166q-157 67 -370 67q-104 0 -188.5 -27.5t-152 -85.5t-106.5 -159t-43 -238q70 60 174 98t234 38q107 0 199.5 -26.5t165 -78.5t114 -136.5t41.5 -193.5q0 -208 -154 -341.5 t-409 -133.5q-97 0 -182 24.5t-159 77t-126.5 130t-82.5 189.5t-30 249zM356 565q1 -63 12.5 -121.5t38 -117t66 -101.5t101.5 -69.5t139 -26.5q153 0 247.5 81t94.5 224q0 142 -86 214.5t-242 72.5q-114 0 -218.5 -47.5t-152.5 -108.5z" />
<glyph unicode="7" horiz-adv-x="1191" d="M82 1227v157h1067v-145q-138 -132 -242.5 -260t-192.5 -278t-147.5 -324.5t-91.5 -376.5h-229q66 379 233.5 692.5t419.5 534.5h-817z" />
<glyph unicode="8" horiz-adv-x="1441" d="M141 377q0 266 281 348q-244 90 -244 319q0 163 153.5 266t389.5 103t389.5 -103t153.5 -266q0 -229 -244 -319q280 -81 280 -348q0 -177 -158.5 -291.5t-420.5 -114.5t-421 114.5t-159 291.5zM362 387q0 -83 51.5 -142.5t131.5 -87.5t176 -28t175.5 28t131 87.5 t51.5 142.5q0 69 -29 119.5t-80.5 79t-113.5 42t-135 13.5t-135 -13.5t-113.5 -42t-81 -79t-29.5 -119.5zM401 1028q0 -77 46.5 -130t116.5 -75t157 -22q136 0 227.5 56.5t91.5 170.5q0 75 -45.5 127.5t-116 76t-157.5 23.5t-157.5 -23.5t-116.5 -76t-46 -127.5z" />
<glyph unicode="9" horiz-adv-x="1388" d="M115 938q0 135 76.5 244t208.5 170t292 61q125 0 226.5 -39.5t178 -119t118.5 -209.5t42 -302q0 -164 -37 -296t-101 -219.5t-153.5 -146.5t-190.5 -84.5t-216 -25.5q-225 0 -377 60v166q159 -68 371 -68q104 0 188.5 27.5t151.5 85.5t106 159t43 238 q-158 -135 -407 -135q-107 0 -199.5 26.5t-165 78t-114 136t-41.5 193.5zM336 950q0 -142 86 -214t242 -72q114 0 218 47t152 108q-1 64 -11 121.5t-34.5 116.5t-61.5 101.5t-97.5 69.5t-137.5 27q-155 0 -255.5 -81.5t-100.5 -223.5z" />
<glyph unicode=":" horiz-adv-x="628" d="M199 0v193h229v-193h-229zM199 780v193h229v-193h-229z" />
<glyph unicode=";" horiz-adv-x="628" d="M10 -272q114 58 166.5 131.5t52.5 171.5q0 73 -30 162h200q27 -82 27 -160q0 -142 -89 -253.5t-257 -180.5zM199 780v193h229v-193h-229z" />
<glyph unicode="&#x3c;" horiz-adv-x="1392" d="M135 563v156l1122 422v-160l-907 -340l907 -340v-160z" />
<glyph unicode="=" horiz-adv-x="1392" d="M135 344v148h1122v-148h-1122zM135 780v148h1122v-148h-1122z" />
<glyph unicode="&#x3e;" horiz-adv-x="1392" d="M135 141v160l907 340l-907 340v160l1122 -422v-156z" />
<glyph unicode="?" horiz-adv-x="1003" d="M143 1192v164q114 57 301 57q122 0 218.5 -33.5t157.5 -109.5t61 -185q0 -41 -7.5 -77t-25.5 -69.5t-32 -56t-44 -53t-43.5 -43t-46.5 -41.5q-37 -33 -47.5 -42.5t-35.5 -33.5t-31.5 -35.5t-18 -31.5t-14.5 -39t-3 -43v-129h-190v141q0 47 9.5 86.5t21 66t40.5 60 t48 51.5t63 58q36 32 54 49.5t45 49.5t39 64t12 66q0 172 -254 172q-72 0 -149 -18t-128 -45zM324 0v193h229v-193h-229z" />
<glyph unicode="@" horiz-adv-x="1873" d="M117 516q0 127 46 238t126 191.5t187 138.5t231 87t256 29q223 0 402 -70.5t286.5 -210t107.5 -325.5q0 -188 -94 -303t-274 -115q-179 0 -248 111q-100 -111 -258 -111q-140 0 -232 85.5t-92 232.5q0 85 32 150.5t88 104t124.5 57.5t148.5 19q163 0 301 -63v-297 q0 -86 37.5 -124t116.5 -38q92 0 150.5 71t58.5 218q0 152 -89.5 263t-236 164.5t-329.5 53.5q-142 0 -267 -35.5t-223 -102.5t-155.5 -175t-57.5 -244q0 -126 38.5 -226t104.5 -166t158 -109.5t193.5 -62t216.5 -18.5q259 0 465 62v-125q-200 -61 -465 -61 q-137 0 -259.5 24t-232.5 78.5t-189.5 135t-126 200.5t-46.5 268zM717 496q0 -93 49.5 -143t136.5 -50q71 0 123.5 38t77.5 95v238q-60 24 -154 24q-104 0 -168.5 -47t-64.5 -155z" />
<glyph unicode="A" horiz-adv-x="1492" d="M-8 0l655 1384h205l649 -1384h-231l-160 340h-750l-157 -340h-211zM430 496h612l-305 661z" />
<glyph unicode="B" horiz-adv-x="1499" d="M260 0v1384h467q298 0 451 -96t153 -266q0 -67 -25 -122t-67 -91.5t-90 -60.5t-102 -37q50 -8 95.5 -24.5t88 -43.5t73 -62t48.5 -84t18 -106q0 -185 -170 -288t-473 -103h-467zM475 158h250q199 0 309.5 57t110.5 176q0 113 -109.5 174.5t-310.5 61.5h-250v-469z M475 780h238q188 0 290.5 56.5t102.5 173.5q0 115 -95 166t-286 51h-250v-447z" />
<glyph unicode="C" horiz-adv-x="1536" d="M137 692q0 324 224 522.5t604 198.5q252 0 415 -72v-161q-170 75 -405 75q-282 0 -447.5 -151t-165.5 -412t166 -412t449 -151q233 0 420 88v-164q-192 -82 -428 -82q-252 0 -441.5 91t-290 254t-100.5 376z" />
<glyph unicode="D" horiz-adv-x="1802" d="M260 0v1384h504q435 0 668 -181.5t233 -510.5q0 -330 -233 -511t-668 -181h-504zM475 158h289q323 0 499.5 131.5t176.5 402.5q0 270 -176.5 402.5t-499.5 132.5h-289v-1069z" />
<glyph unicode="E" horiz-adv-x="1400" d="M240 336v1048h974v-157h-759v-434h692v-158h-692v-299q0 -92 50 -135t159 -43h587v-158h-618q-206 0 -299.5 84.5t-93.5 251.5z" />
<glyph unicode="F" horiz-adv-x="1363" d="M260 0v1384h961v-157h-746v-459h678v-158h-678v-610h-215z" />
<glyph unicode="G" horiz-adv-x="1914" d="M137 692q0 150 50 272.5t135 204.5t201.5 138t245 81t269.5 25q332 0 604 -125v-166q-121 59 -280 96t-322 37q-108 0 -204.5 -18t-185 -60t-152 -105.5t-101 -160.5t-37.5 -219q0 -134 47 -241.5t131 -177.5t199.5 -107t253.5 -37q279 0 490 98v369h-510v154h712v-609 q-320 -170 -698 -170q-248 0 -438.5 83.5t-300 248t-109.5 389.5z" />
<glyph unicode="H" horiz-adv-x="1888" d="M260 0v1384h215v-589h938v589h215v-1384h-215v637h-938v-637h-215z" />
<glyph unicode="I" horiz-adv-x="735" d="M260 0v1384h215v-1384h-215z" />
<glyph unicode="J" horiz-adv-x="937" d="M47 12v162q111 -49 227 -49q114 0 162.5 53t48.5 172v1034h213v-1030q0 -192 -104.5 -287.5t-298.5 -95.5q-136 0 -248 41z" />
<glyph unicode="K" horiz-adv-x="1499" d="M260 0v1384h215v-612l744 612h256l-797 -661l821 -723h-282l-742 645v-645h-215z" />
<glyph unicode="L" horiz-adv-x="1245" d="M242 336v1048h215v-1048q0 -92 49 -135t160 -43h534v-158h-567q-205 0 -298 85t-93 251z" />
<glyph unicode="M" horiz-adv-x="2258" d="M260 0v1384h223l647 -929l646 929h223v-1384h-211v1081l-559 -813h-197l-561 813v-1081h-211z" />
<glyph unicode="N" horiz-adv-x="1871" d="M260 0v1384h193l954 -1093v1093h205v-1384h-191l-954 1092v-1092h-207z" />
<glyph unicode="O" horiz-adv-x="1961" d="M137 692q0 217 105.5 381t297 252t441.5 88t441.5 -88t297 -252t105.5 -381t-105.5 -381t-297 -252t-441.5 -88t-441.5 88t-297 252t-105.5 381zM362 692q0 -258 165.5 -410.5t453.5 -152.5t453 152.5t165 410.5t-165 410.5t-453 152.5t-453.5 -152.5t-165.5 -410.5z" />
<glyph unicode="P" horiz-adv-x="1527" d="M260 0v1384h504q296 0 460.5 -114t164.5 -320q0 -211 -164.5 -322.5t-460.5 -111.5h-289v-516h-215zM475 674h289q189 0 294 68t105 208t-105.5 208.5t-293.5 68.5h-289v-553z" />
<glyph unicode="Q" horiz-adv-x="1961" d="M137 692q0 217 105.5 381t297 252t441.5 88t441.5 -88t297 -252t105.5 -381q0 -262 -149.5 -441.5t-411.5 -246.5l319 -326h-266l-260 295q-25 -2 -76 -2q-250 0 -441.5 88t-297 252t-105.5 381zM362 692q0 -258 165.5 -410.5t453.5 -152.5t453 152.5t165 410.5 t-165 410.5t-453 152.5t-453.5 -152.5t-165.5 -410.5z" />
<glyph unicode="R" horiz-adv-x="1511" d="M260 0v1384h504q296 0 460.5 -114t164.5 -320q0 -166 -108 -269t-308 -134l469 -547h-248l-438 516h-281v-516h-215zM475 674h289q189 0 294 68t105 208t-105.5 208.5t-293.5 68.5h-289v-553z" />
<glyph unicode="S" horiz-adv-x="1341" d="M164 1018q0 96 45 172.5t123.5 124.5t179.5 73t217 25q250 0 426 -78v-166q-187 86 -426 86q-68 0 -127 -12.5t-109 -38t-79 -70.5t-29 -106q0 -51 28 -89.5t75.5 -63t109 -44t129.5 -37.5t135.5 -38t129 -50.5t109 -71t75.5 -103.5t28 -144q0 -89 -31.5 -160 t-85.5 -118.5t-128 -79t-155 -45t-171 -13.5q-125 0 -250 28t-215 73v161q221 -104 459 -104q74 0 136 13t113 40t80 75.5t29 113.5q0 68 -45.5 114.5t-117.5 73t-159.5 49t-175.5 51t-160 69t-117.5 114.5t-45.5 176z" />
<glyph unicode="T" horiz-adv-x="1406" d="M45 1227v157h1317v-157h-551v-1227h-215v1227h-551z" />
<glyph unicode="U" horiz-adv-x="1679" d="M219 485v899h215v-895q0 -92 31 -162t87 -113t128.5 -64t161.5 -21q120 0 210 36.5t144.5 119t54.5 204.5v895h209v-899q0 -125 -48.5 -224t-133.5 -161.5t-196 -95.5t-240 -33t-241 33t-198 95.5t-135 161.5t-49 224z" />
<glyph unicode="V" horiz-adv-x="1505" d="M0 1384h227l535 -1159l532 1159h211l-659 -1384h-201z" />
<glyph unicode="W" horiz-adv-x="2361" d="M20 1384h222l387 -1161l452 1161h199l453 -1161l387 1161h221l-475 -1384h-232l-452 1155l-455 -1155h-231z" />
<glyph unicode="X" horiz-adv-x="1480" d="M20 0l598 698l-579 686h252l454 -534l457 534h242l-582 -677l598 -707h-252l-471 557l-475 -557h-242z" />
<glyph unicode="Y" horiz-adv-x="1402" d="M0 1384h236l475 -663l475 663h217l-598 -829v-555h-213v555z" />
<glyph unicode="Z" horiz-adv-x="1458" d="M115 0v135l966 1092h-948v157h1206v-145l-958 -1081h981v-158h-1247z" />
<glyph unicode="[" horiz-adv-x="753" d="M262 -389v1843h438v-151h-262v-1539h262v-153h-438z" />
<glyph unicode="\" horiz-adv-x="841" d="M0 1384h168l674 -1384h-168z" />
<glyph unicode="]" horiz-adv-x="753" d="M53 -236h262v1539h-262v151h439v-1843h-439v153z" />
<glyph unicode="^" horiz-adv-x="1392" d="M127 504l498 880h143l498 -880h-181l-389 694l-389 -694h-180z" />
<glyph unicode="_" horiz-adv-x="1400" d="M47 -29h1307v-137h-1307v137z" />
<glyph unicode="`" horiz-adv-x="1228" d="M379 1454h225l195 -309h-160z" />
<glyph unicode="a" d="M117 479q0 128 47.5 229t131 164.5t192.5 96t237 32.5q111 0 234 -23t196 -54v-924h-166l-14 106q-75 -65 -161 -100t-200 -35q-80 0 -153 19.5t-136 61t-109 100.5t-72.5 143t-26.5 184zM319 487q0 -180 90 -271t238 -91q89 0 170 33.5t141 95.5v559q-110 35 -231 35 q-66 0 -124.5 -12t-111 -39.5t-90.5 -68.5t-60 -102.5t-22 -138.5z" />
<glyph unicode="b" horiz-adv-x="1355" d="M201 57v1397h196v-551q164 98 344 98q101 0 189.5 -32t158 -93t110 -159.5t40.5 -222.5q0 -128 -47.5 -229.5t-131 -164.5t-192.5 -96t-237 -33q-110 0 -233.5 26t-196.5 60zM397 160q110 -35 232 -35q66 0 124.5 12t111 39t90 68t59.5 102.5t22 138.5q0 180 -89.5 271.5 t-237.5 91.5q-81 0 -168 -32t-144 -75v-581z" />
<glyph unicode="c" horiz-adv-x="1169" d="M117 487q0 233 161 373.5t435 140.5q178 0 303 -51v-162q-132 60 -291 60q-188 0 -297 -91t-109 -270t109.5 -270.5t294.5 -91.5q160 0 309 78v-164q-143 -68 -334 -68q-265 0 -423 143.5t-158 372.5z" />
<glyph unicode="d" d="M117 479q0 128 47.5 229t131 164.5t192.5 96t237 32.5q117 0 231 -26v479h199v-1454h-166l-14 106q-75 -65 -161 -100t-200 -35q-80 0 -153 19.5t-136 61t-109 100.5t-72.5 143t-26.5 184zM319 487q0 -180 90 -271t238 -91q89 0 170 33.5t141 95.5v561q-103 33 -231 33 q-66 0 -124.5 -12t-111 -39.5t-90.5 -68.5t-60 -102.5t-22 -138.5z" />
<glyph unicode="e" horiz-adv-x="1302" d="M117 487q0 233 152 373.5t399 140.5q132 0 235 -39t164.5 -105.5t93 -146.5t31.5 -169v-115h-868q9 -81 46 -140.5t95.5 -94t128 -50.5t151.5 -16q221 0 412 88v-158q-87 -39 -201 -61.5t-225 -22.5q-100 0 -188.5 17.5t-167.5 57t-135.5 98.5t-89.5 146.5t-33 196.5z M326 573h663q-2 122 -89 198.5t-234 76.5q-299 0 -340 -275z" />
<glyph unicode="f" horiz-adv-x="765" d="M66 825v148h163v160q0 88 31 156.5t85 110t122 62.5t147 21q82 0 152 -21v-157q-59 22 -135 22q-93 0 -149 -46.5t-56 -145.5v-162h317v-148h-317v-825h-197v825h-163z" />
<glyph unicode="g" d="M117 479q0 128 47.5 229t131 164.5t192.5 96t237 32.5q111 0 234 -23t196 -54v-908q0 -107 -43 -191t-119 -136.5t-175 -79.5t-214 -27q-227 0 -411 88v170q78 -44 184.5 -75t222.5 -31q161 0 259.5 68.5t98.5 213.5v84q-141 -116 -344 -116q-101 0 -189 30t-158 88.5 t-110 155.5t-40 221zM319 487q0 -179 89 -264.5t239 -85.5q89 0 170 33.5t141 95.5v547q-110 35 -231 35q-66 0 -124.5 -12t-111 -39.5t-90.5 -68.5t-60 -102.5t-22 -138.5z" />
<glyph unicode="h" horiz-adv-x="1382" d="M205 0v1454h196v-565q163 112 367 112q122 0 216 -40.5t151 -126.5t57 -207v-627h-197v614q0 112 -76.5 169t-193.5 57q-177 0 -324 -105v-735h-196z" />
<glyph unicode="i" horiz-adv-x="606" d="M205 0v973h196v-973h-196zM205 1194v203h196v-203h-196z" />
<glyph unicode="j" horiz-adv-x="606" d="M-33 -231q72 -31 129 -31q109 0 109 104v1131h196v-1112q0 -132 -65.5 -205.5t-202.5 -73.5q-87 0 -166 31v156zM205 1194v203h196v-203h-196z" />
<glyph unicode="k" horiz-adv-x="1210" d="M205 0v1454h196v-868l531 387h260l-602 -438l614 -535h-262l-541 463v-463h-196z" />
<glyph unicode="l" horiz-adv-x="665" d="M186 250v1204h197v-1221q0 -108 100 -108q75 0 142 31v-158q-71 -27 -170 -27q-269 0 -269 279z" />
<glyph unicode="m" horiz-adv-x="2115" d="M205 0v973h178l12 -88q160 116 348 116q239 0 359 -155q95 76 191 115.5t223 39.5q115 0 206 -41t147 -126t56 -201v-633h-196v616q0 109 -70.5 166.5t-183.5 57.5q-168 0 -322 -113q10 -31 10 -94v-633h-196v616q0 111 -71.5 167.5t-184.5 56.5q-163 0 -310 -105v-735 h-196z" />
<glyph unicode="n" horiz-adv-x="1382" d="M205 0v973h178l12 -88q167 116 373 116q122 0 216 -40.5t151 -126.5t57 -207v-627h-197v614q0 112 -76.5 169t-193.5 57q-177 0 -324 -105v-735h-196z" />
<glyph unicode="o" horiz-adv-x="1413" d="M117 485q0 234 163.5 375t426.5 141t426 -141t163 -375t-163 -374t-426 -140t-426.5 140t-163.5 374zM319 485q0 -169 106.5 -264.5t281.5 -95.5t281 95.5t106 264.5t-106 266t-281 97t-281.5 -97t-106.5 -266z" />
<glyph unicode="p" d="M205 -389v1362h178l12 -88q150 116 353 116q98 0 185.5 -31t157.5 -91.5t111 -160t41 -226.5q0 -126 -44.5 -226t-122 -164t-179 -97.5t-219.5 -33.5q-168 0 -277 47v-407h-196zM401 176q116 -51 261 -51q79 0 146 22t119.5 65t82.5 115t30 165q0 177 -92 266.5 t-239 89.5q-84 0 -169 -32.5t-139 -74.5v-565z" />
<glyph unicode="q" d="M117 479q0 128 47.5 229t131 164.5t192.5 96t237 32.5q111 0 234 -23t196 -54v-1313h-199v475q-141 -115 -342 -115q-80 0 -153 19.5t-136 61t-109 100.5t-72.5 143t-26.5 184zM319 487q0 -180 90 -271t238 -91q89 0 170 33.5t141 95.5v559q-110 35 -231 35 q-66 0 -124.5 -12t-111 -39.5t-90.5 -68.5t-60 -102.5t-22 -138.5z" />
<glyph unicode="r" horiz-adv-x="868" d="M205 0v973h178l12 -146q84 74 193.5 124t226.5 50v-176q-101 0 -214 -40.5t-200 -110.5v-674h-196z" />
<glyph unicode="s" horiz-adv-x="1110" d="M129 698q0 100 65 170t170.5 101.5t241.5 31.5q103 0 206.5 -17.5t168.5 -45.5v-158q-69 31 -172.5 49.5t-202.5 18.5q-54 0 -101.5 -7t-89.5 -21.5t-66.5 -42t-24.5 -64.5q0 -44 38 -72t99 -43t135 -27.5t148 -31t135 -47.5t99 -84.5t38 -133.5q0 -104 -63.5 -173.5 t-165 -99.5t-234.5 -30q-236 0 -414 90v162q191 -98 410 -98q122 0 197 33.5t75 107.5q0 46 -38 75.5t-99 45t-135 27.5t-148 30t-135 45.5t-99 80.5t-38 128z" />
<glyph unicode="t" horiz-adv-x="839" d="M51 825v148h164l29 309h168v-309h342v-148h-342v-542q0 -85 41 -121.5t118 -36.5q101 0 201 51v-160q-95 -45 -235 -45q-153 0 -237.5 78t-84.5 232v544h-164z" />
<glyph unicode="u" horiz-adv-x="1343" d="M184 356v617h199v-611q0 -119 66 -176t186 -57q176 0 305 129v715h199v-973h-168l-13 106q-160 -135 -360 -135q-188 0 -301 98.5t-113 286.5z" />
<glyph unicode="v" horiz-adv-x="1148" d="M12 973h211l355 -774l358 774h201l-475 -973h-195z" />
<glyph unicode="w" horiz-adv-x="1875" d="M25 973h202l281 -772l328 772h204l328 -772l281 772h202l-372 -973h-201l-340 780l-340 -780h-201z" />
<glyph unicode="x" horiz-adv-x="1114" d="M18 0l420 489l-409 484h237l295 -355l303 355h219l-409 -481l420 -492h-238l-307 360l-307 -360h-224z" />
<glyph unicode="y" horiz-adv-x="1343" d="M184 367v606h199v-600q0 -119 66 -176.5t186 -57.5q176 0 305 129v705h199v-953q0 -142 -68.5 -242t-182 -147t-261.5 -47q-218 0 -387 74v168q168 -92 372 -92q148 0 238 68.5t90 213.5v84q-153 -118 -342 -118q-188 0 -301 98.5t-113 286.5z" />
<glyph unicode="z" horiz-adv-x="1112" d="M111 0v117l632 710h-620v146h878v-119l-630 -709h647v-145h-907z" />
<glyph unicode="{" horiz-adv-x="788" d="M49 463v155q62 12 99.5 23.5t71.5 30.5t51 47t26.5 69.5t9.5 102.5v223q0 162 88.5 251t294.5 89h53v-151h-57q-199 0 -199 -185v-229q0 -156 -62.5 -239.5t-193.5 -110.5q131 -27 193.5 -111t62.5 -240v-241q0 -183 199 -183h57v-153h-53q-206 0 -294.5 89t-88.5 251 v235q0 61 -9.5 102.5t-26.5 69.5t-51 48t-71 31.5t-100 25.5z" />
<glyph unicode="|" horiz-adv-x="667" d="M256 -389v2027h156v-2027h-156z" />
<glyph unicode="}" horiz-adv-x="788" d="M45 -236h57q199 0 199 183v241q0 156 62.5 240t193.5 111q-131 27 -193.5 110.5t-62.5 239.5v229q0 185 -199 185h-57v151h53q206 0 294.5 -89t88.5 -251v-223q0 -61 9.5 -102.5t26.5 -69.5t51 -47t71.5 -30.5t99.5 -23.5v-155q-63 -14 -100 -25.5t-71 -31.5t-51 -48 t-26.5 -69.5t-9.5 -102.5v-235q0 -162 -88.5 -251t-294.5 -89h-53v153z" />
<glyph unicode="~" horiz-adv-x="1392" d="M123 494q0 127 71.5 205.5t196.5 78.5q75 0 197.5 -35t238 -69.5t174.5 -34.5q115 0 115 135h154q0 -126 -72 -204t-197 -78q-74 0 -195.5 35t-238 69.5t-176.5 34.5q-115 0 -115 -137h-153z" />
<glyph unicode="&#xa1;" horiz-adv-x="708" d="M236 -389l28 971h178l29 -971h-235zM240 780v193h227v-193h-227z" />
<glyph unicode="&#xa2;" horiz-adv-x="1249" d="M113 690q0 231 131 388t362 192v321h148v-309q91 -1 182 -20t151 -48v-165q-159 69 -331 69q-90 0 -166 -23.5t-138.5 -72.5t-97.5 -134t-35 -198q0 -114 35.5 -200t97.5 -136t137.5 -74t164.5 -24q171 0 348 78v-164q-59 -30 -155 -51.5t-193 -22.5v-321h-148v329 q-231 36 -362 194.5t-131 391.5z" />
<glyph unicode="&#xa3;" horiz-adv-x="1232" d="M63 639v131h211q-49 133 -49 250q0 175 142.5 284t371.5 109q211 0 367 -70v-165q-150 77 -358 77q-148 0 -233 -58t-85 -173q0 -69 12.5 -125.5t42.5 -128.5h508v-131h-458q28 -98 28 -170q0 -110 -45.5 -180t-150.5 -131h766v-158h-1033v135q143 72 200.5 141t57.5 179 q0 84 -34 184h-261z" />
<glyph unicode="&#xa5;" horiz-adv-x="1339" d="M41 1384h231l404 -598l418 598h204l-489 -686h350v-112h-389v-211h389v-113h-389v-262h-215v262h-389v113h389v211h-389v112h350z" />
<glyph unicode="&#xa8;" horiz-adv-x="1228" d="M313 1206v197h183v-197h-183zM733 1206v197h182v-197h-182z" />
<glyph unicode="&#xa9;" horiz-adv-x="1982" d="M154 692q0 211 105 375t295.5 255t436.5 91t437 -91t296 -255t105 -375t-105 -375t-296 -255t-437 -91t-436.5 91t-295.5 255t-105 375zM272 692q0 -182 91 -322t255 -216t375 -76q318 0 517.5 169.5t199.5 444.5q0 182 -91 322t-254 216.5t-372 76.5q-211 0 -375 -76.5 t-255 -216.5t-91 -322zM563 692q0 100 37.5 179t103.5 128t150.5 74t183.5 25q163 0 277 -51v-140q-110 58 -258 58q-151 0 -234.5 -70.5t-83.5 -202.5q0 -131 83.5 -200.5t234.5 -69.5q144 0 268 65v-141q-121 -59 -274 -59q-229 0 -358.5 108t-129.5 297z" />
<glyph unicode="&#xab;" horiz-adv-x="1236" d="M80 508l360 407h189l-332 -407l332 -408h-189zM608 508l361 407h188l-332 -407l332 -408h-188z" />
<glyph unicode="&#xad;" horiz-adv-x="940" d="M176 508v160h588v-160h-588z" />
<glyph unicode="&#xae;" horiz-adv-x="1310" d="M152 977q0 190 141.5 313t359.5 123q219 0 360.5 -123t141.5 -313t-141.5 -313t-360.5 -123q-218 0 -359.5 123t-141.5 313zM244 977q0 -159 114.5 -257.5t294.5 -98.5t295 98.5t115 257.5t-115 257.5t-295 98.5t-294.5 -98.5t-114.5 -257.5zM465 760v440h219 q94 0 148.5 -34.5t54.5 -98.5q0 -104 -129 -129l145 -178h-141l-125 164h-51v-164h-121zM586 1004h84q90 0 90 59t-90 59h-84v-118z" />
<glyph unicode="&#xb4;" horiz-adv-x="1228" d="M414 1145l194 309h226l-261 -309h-159z" />
<glyph unicode="&#xb8;" horiz-adv-x="1228" d="M428 -293q64 -29 137 -29q101 0 101 62q0 36 -29 48.5t-82 12.5h-86l70 199h127l-33 -106q90 -6 140 -48t50 -116t-66 -119t-182 -45q-84 0 -147 26v115z" />
<glyph unicode="&#xbb;" horiz-adv-x="1236" d="M80 100l332 408l-332 407h188l361 -407l-361 -408h-188zM608 100l332 408l-332 407h189l360 -407l-360 -408h-189z" />
<glyph unicode="&#xbf;" horiz-adv-x="794" d="M10 -92q0 41 7.5 77t25.5 69.5t32 56t44 53t43.5 43t46.5 41.5q50 44 68.5 61.5t42.5 47t31 55.5t7 61v109h191v-121q0 -47 -9.5 -86.5t-21 -66t-40.5 -60t-48 -51.5t-63 -58q-36 -32 -54 -49.5t-45 -49.5t-39 -64t-12 -66q0 -172 254 -172q72 0 149 18t128 45v-163 q-116 -58 -302 -58q-122 0 -218 33.5t-157 109.5t-61 185zM340 780v193h229v-193h-229z" />
<glyph unicode="&#xc0;" horiz-adv-x="1492" d="M-8 0l655 1384h205l649 -1384h-231l-160 340h-750l-157 -340h-211zM420 1833h225l195 -309h-160zM430 496h612l-305 661z" />
<glyph unicode="&#xc1;" horiz-adv-x="1492" d="M-8 0l655 1384h205l649 -1384h-231l-160 340h-750l-157 -340h-211zM430 496h612l-305 661zM686 1524l195 309h225l-260 -309h-160z" />
<glyph unicode="&#xc2;" horiz-adv-x="1492" d="M-8 0l655 1384h205l649 -1384h-231l-160 340h-750l-157 -340h-211zM422 1524l237 309h185l237 -309h-166l-163 184l-164 -184h-166zM430 496h612l-305 661z" />
<glyph unicode="&#xc3;" horiz-adv-x="1492" d="M-8 0l655 1384h205l649 -1384h-231l-160 340h-750l-157 -340h-211zM389 1550q0 113 50.5 183.5t158.5 70.5q46 0 93.5 -19t81 -41.5t70.5 -41.5t64 -19q72 0 72 115h139q0 -53 -11.5 -97t-36 -79.5t-66 -55.5t-97.5 -20q-46 0 -92 19t-77 41.5t-69.5 41.5t-70.5 19 q-70 0 -70 -117h-139zM430 496h612l-305 661z" />
<glyph unicode="&#xc4;" horiz-adv-x="1492" d="M-8 0l655 1384h205l649 -1384h-231l-160 340h-750l-157 -340h-211zM430 496h612l-305 661zM453 1581v197h182v-197h-182zM872 1581v197h183v-197h-183z" />
<glyph unicode="&#xc5;" horiz-adv-x="1492" d="M-8 0l655 1384h205l649 -1384h-231l-160 340h-750l-157 -340h-211zM430 496h612l-305 661zM498 1677q0 86 74 135.5t182 49.5t182 -49.5t74 -135.5t-74 -135t-182 -49t-182 49t-74 135zM625 1677q0 -45 34.5 -69.5t94.5 -24.5t94.5 24.5t34.5 69.5t-35 70t-94 25t-94 -25 t-35 -70z" />
<glyph unicode="&#xc6;" horiz-adv-x="2168" d="M-66 0l967 1384h1081v-157h-759v-434h692v-158h-692v-299q0 -92 50 -135t159 -43h587v-158h-618q-207 0 -300 84t-93 256h-617l-235 -340h-222zM500 496h508v731z" />
<glyph unicode="&#xc7;" horiz-adv-x="1536" d="M137 692q0 324 224 522.5t604 198.5q252 0 415 -72v-161q-170 75 -405 75q-282 0 -447.5 -151t-165.5 -412t166 -412t449 -151q233 0 420 88v-164q-192 -82 -428 -82q-33 0 -95 4l-24 -81q90 -6 140 -48t50 -116t-65.5 -119t-181.5 -45q-85 0 -148 26v115q64 -29 137 -29 q101 0 101 62q0 36 -29 48.5t-82 12.5h-86l66 191q-287 52 -451 239t-164 461z" />
<glyph unicode="&#xc8;" horiz-adv-x="1400" d="M240 336v1048h974v-157h-759v-434h692v-158h-692v-299q0 -92 50 -135t159 -43h587v-158h-618q-206 0 -299.5 84.5t-93.5 251.5zM428 1833h225l195 -309h-160z" />
<glyph unicode="&#xc9;" horiz-adv-x="1400" d="M240 336v1048h974v-157h-759v-434h692v-158h-692v-299q0 -92 50 -135t159 -43h587v-158h-618q-206 0 -299.5 84.5t-93.5 251.5zM637 1524l194 309h226l-260 -309h-160z" />
<glyph unicode="&#xca;" horiz-adv-x="1400" d="M240 336v1048h974v-157h-759v-434h692v-158h-692v-299q0 -92 50 -135t159 -43h587v-158h-618q-206 0 -299.5 84.5t-93.5 251.5zM397 1524l238 309h184l238 -309h-166l-164 184l-164 -184h-166z" />
<glyph unicode="&#xcb;" horiz-adv-x="1400" d="M240 336v1048h974v-157h-759v-434h692v-158h-692v-299q0 -92 50 -135t159 -43h587v-158h-618q-206 0 -299.5 84.5t-93.5 251.5zM426 1581v197h182v-197h-182zM846 1581v197h182v-197h-182z" />
<glyph unicode="&#xcc;" horiz-adv-x="735" d="M31 1833h225l195 -309h-160zM260 0v1384h215v-1384h-215z" />
<glyph unicode="&#xcd;" horiz-adv-x="735" d="M260 0v1384h215v-1384h-215zM291 1524l194 309h226l-260 -309h-160z" />
<glyph unicode="&#xce;" horiz-adv-x="735" d="M37 1524l237 309h185l237 -309h-166l-163 184l-164 -184h-166zM260 0v1384h215v-1384h-215z" />
<glyph unicode="&#xcf;" horiz-adv-x="735" d="M66 1581v197h182v-197h-182zM260 0v1384h215v-1384h-215zM485 1581v197h183v-197h-183z" />
<glyph unicode="&#xd0;" horiz-adv-x="1802" d="M63 643v148h197v593h504q435 0 668 -181.5t233 -510.5q0 -330 -233 -511t-668 -181h-504v643h-197zM475 158h289q323 0 499.5 131.5t176.5 402.5q0 270 -176.5 402.5t-499.5 132.5h-289v-436h475v-148h-475v-485z" />
<glyph unicode="&#xd1;" horiz-adv-x="1871" d="M260 0v1384h193l954 -1093v1093h205v-1384h-191l-954 1092v-1092h-207zM571 1544q0 113 50.5 183.5t158.5 70.5q46 0 94 -19t81 -41.5t70.5 -41.5t64.5 -19q71 0 71 115h139q0 -111 -51 -181.5t-159 -70.5q-46 0 -92.5 19t-77.5 41.5t-69.5 41.5t-70.5 19q-69 0 -69 -117 h-140z" />
<glyph unicode="&#xd2;" horiz-adv-x="1961" d="M137 692q0 217 105.5 381t297 252t441.5 88t441.5 -88t297 -252t105.5 -381t-105.5 -381t-297 -252t-441.5 -88t-441.5 88t-297 252t-105.5 381zM362 692q0 -258 165.5 -410.5t453.5 -152.5t453 152.5t165 410.5t-165 410.5t-453 152.5t-453.5 -152.5t-165.5 -410.5z M657 1833h226l194 -309h-159z" />
<glyph unicode="&#xd3;" horiz-adv-x="1961" d="M137 692q0 217 105.5 381t297 252t441.5 88t441.5 -88t297 -252t105.5 -381t-105.5 -381t-297 -252t-441.5 -88t-441.5 88t-297 252t-105.5 381zM362 692q0 -258 165.5 -410.5t453.5 -152.5t453 152.5t165 410.5t-165 410.5t-453 152.5t-453.5 -152.5t-165.5 -410.5z M895 1524l195 309h225l-260 -309h-160z" />
<glyph unicode="&#xd4;" horiz-adv-x="1961" d="M137 692q0 217 105.5 381t297 252t441.5 88t441.5 -88t297 -252t105.5 -381t-105.5 -381t-297 -252t-441.5 -88t-441.5 88t-297 252t-105.5 381zM362 692q0 -258 165.5 -410.5t453.5 -152.5t453 152.5t165 410.5t-165 410.5t-453 152.5t-453.5 -152.5t-165.5 -410.5z M651 1524l238 309h184l238 -309h-166l-164 184l-164 -184h-166z" />
<glyph unicode="&#xd5;" horiz-adv-x="1961" d="M137 692q0 217 105.5 381t297 252t441.5 88t441.5 -88t297 -252t105.5 -381t-105.5 -381t-297 -252t-441.5 -88t-441.5 88t-297 252t-105.5 381zM362 692q0 -258 165.5 -410.5t453.5 -152.5t453 152.5t165 410.5t-165 410.5t-453 152.5t-453.5 -152.5t-165.5 -410.5z M616 1552q0 113 50.5 183.5t158.5 70.5q46 0 94 -19t81 -41t70.5 -41t64.5 -19q71 0 71 114h140q0 -53 -11.5 -97t-36 -79.5t-66 -55.5t-97.5 -20q-46 0 -92.5 19t-77.5 41.5t-69.5 41.5t-70.5 19q-69 0 -69 -117h-140z" />
<glyph unicode="&#xd6;" horiz-adv-x="1961" d="M137 692q0 217 105.5 381t297 252t441.5 88t441.5 -88t297 -252t105.5 -381t-105.5 -381t-297 -252t-441.5 -88t-441.5 88t-297 252t-105.5 381zM362 692q0 -258 165.5 -410.5t453.5 -152.5t453 152.5t165 410.5t-165 410.5t-453 152.5t-453.5 -152.5t-165.5 -410.5z M680 1581v197h182v-197h-182zM1100 1581v197h182v-197h-182z" />
<glyph unicode="&#xd8;" horiz-adv-x="1961" d="M137 692q0 217 105.5 381t297 252t441.5 88q271 0 471 -104l164 182l94 -86l-149 -164q127 -97 195.5 -237t68.5 -312q0 -217 -105.5 -381t-297 -252t-441.5 -88q-273 0 -475 105l-160 -178l-94 86l145 161q-125 95 -192.5 235t-67.5 312zM362 692q0 -254 162 -407 l807 891q-149 79 -350 79q-288 0 -453.5 -152.5t-165.5 -410.5zM627 209q151 -80 354 -80q288 0 453 152.5t165 410.5q0 259 -163 410z" />
<glyph unicode="&#xd9;" horiz-adv-x="1679" d="M219 485v899h215v-895q0 -92 31 -162t87 -113t128.5 -64t161.5 -21q120 0 210 36.5t144.5 119t54.5 204.5v895h209v-899q0 -125 -48.5 -224t-133.5 -161.5t-196 -95.5t-240 -33t-241 33t-198 95.5t-135 161.5t-49 224zM510 1833h225l195 -309h-160z" />
<glyph unicode="&#xda;" horiz-adv-x="1679" d="M219 485v899h215v-895q0 -92 31 -162t87 -113t128.5 -64t161.5 -21q120 0 210 36.5t144.5 119t54.5 204.5v895h209v-899q0 -125 -48.5 -224t-133.5 -161.5t-196 -95.5t-240 -33t-241 33t-198 95.5t-135 161.5t-49 224zM754 1524l194 309h226l-261 -309h-159z" />
<glyph unicode="&#xdb;" horiz-adv-x="1679" d="M219 485v899h215v-895q0 -92 31 -162t87 -113t128.5 -64t161.5 -21q120 0 210 36.5t144.5 119t54.5 204.5v895h209v-899q0 -125 -48.5 -224t-133.5 -161.5t-196 -95.5t-240 -33t-241 33t-198 95.5t-135 161.5t-49 224zM510 1524l238 309h184l237 -309h-165l-164 184 l-164 -184h-166z" />
<glyph unicode="&#xdc;" horiz-adv-x="1679" d="M219 485v899h215v-895q0 -92 31 -162t87 -113t128.5 -64t161.5 -21q120 0 210 36.5t144.5 119t54.5 204.5v895h209v-899q0 -125 -48.5 -224t-133.5 -161.5t-196 -95.5t-240 -33t-241 33t-198 95.5t-135 161.5t-49 224zM539 1579v197h182v-197h-182zM958 1579v197h183 v-197h-183z" />
<glyph unicode="&#xdd;" horiz-adv-x="1402" d="M0 1384h236l475 -663l475 663h217l-598 -829v-555h-213v555zM618 1524l195 309h225l-260 -309h-160z" />
<glyph unicode="&#xde;" horiz-adv-x="1505" d="M260 0v1384h215v-254h289q296 0 460.5 -114t164.5 -320q0 -211 -164.5 -322.5t-460.5 -111.5h-289v-262h-215zM475 420h289q189 0 294 68t105 208t-105.5 208.5t-293.5 68.5h-289v-553z" />
<glyph unicode="&#xdf;" horiz-adv-x="1337" d="M203 0v1094q0 93 38 168.5t103.5 122.5t149.5 72.5t178 25.5q120 0 221 -40.5t163 -119.5t62 -180q0 -69 -21.5 -125t-52 -92t-60.5 -66.5t-51.5 -62.5t-21.5 -66q0 -35 26.5 -67.5t66 -57t86 -57.5t86 -67.5t66 -89.5t26.5 -120q0 -148 -107 -223.5t-284 -75.5 q-163 0 -295 56v155q140 -65 276 -65q94 0 153.5 38.5t59.5 106.5q0 40 -19 74t-49.5 59.5t-67.5 50t-74 50.5t-67.5 55t-49.5 69.5t-19 88.5q0 46 21 88t51 76.5t60.5 70.5t51.5 83t21 99q0 85 -70 143t-192 58q-74 0 -132.5 -22.5t-96.5 -75.5t-38 -131v-1100h-198z" />
<glyph unicode="&#xe0;" d="M117 479q0 128 47.5 229t131 164.5t192.5 96t237 32.5q111 0 234 -23t196 -54v-924h-166l-14 106q-75 -65 -161 -100t-200 -35q-80 0 -153 19.5t-136 61t-109 100.5t-72.5 143t-26.5 184zM319 487q0 -180 90 -271t238 -91q89 0 170 33.5t141 95.5v559q-110 35 -231 35 q-66 0 -124.5 -12t-111 -39.5t-90.5 -68.5t-60 -102.5t-22 -138.5zM365 1454h225l194 -309h-159z" />
<glyph unicode="&#xe1;" d="M117 479q0 128 47.5 229t131 164.5t192.5 96t237 32.5q111 0 234 -23t196 -54v-924h-166l-14 106q-75 -65 -161 -100t-200 -35q-80 0 -153 19.5t-136 61t-109 100.5t-72.5 143t-26.5 184zM319 487q0 -180 90 -271t238 -91q89 0 170 33.5t141 95.5v559q-110 35 -231 35 q-66 0 -124.5 -12t-111 -39.5t-90.5 -68.5t-60 -102.5t-22 -138.5zM565 1145l195 309h225l-260 -309h-160z" />
<glyph unicode="&#xe2;" d="M117 479q0 128 47.5 229t131 164.5t192.5 96t237 32.5q111 0 234 -23t196 -54v-924h-166l-14 106q-75 -65 -161 -100t-200 -35q-80 0 -153 19.5t-136 61t-109 100.5t-72.5 143t-26.5 184zM319 487q0 -180 90 -271t238 -91q89 0 170 33.5t141 95.5v559q-110 35 -231 35 q-66 0 -124.5 -12t-111 -39.5t-90.5 -68.5t-60 -102.5t-22 -138.5zM324 1145l237 309h184l238 -309h-166l-164 184l-164 -184h-165z" />
<glyph unicode="&#xe3;" d="M117 479q0 128 47.5 229t131 164.5t192.5 96t237 32.5q111 0 234 -23t196 -54v-924h-166l-14 106q-75 -65 -161 -100t-200 -35q-80 0 -153 19.5t-136 61t-109 100.5t-72.5 143t-26.5 184zM293 1174q0 72 19.5 127t67.5 90.5t122 35.5q58 0 117.5 -30t109 -60t82.5 -30 q72 0 72 114h139q0 -53 -11.5 -97t-36 -79.5t-66 -55.5t-97.5 -20q-46 0 -92 19t-77 41.5t-69.5 41.5t-70.5 19q-70 0 -70 -116h-139zM319 487q0 -180 90 -271t238 -91q89 0 170 33.5t141 95.5v559q-110 35 -231 35q-66 0 -124.5 -12t-111 -39.5t-90.5 -68.5t-60 -102.5 t-22 -138.5z" />
<glyph unicode="&#xe4;" d="M117 479q0 128 47.5 229t131 164.5t192.5 96t237 32.5q111 0 234 -23t196 -54v-924h-166l-14 106q-75 -65 -161 -100t-200 -35q-80 0 -153 19.5t-136 61t-109 100.5t-72.5 143t-26.5 184zM319 487q0 -180 90 -271t238 -91q89 0 170 33.5t141 95.5v559q-110 35 -231 35 q-66 0 -124.5 -12t-111 -39.5t-90.5 -68.5t-60 -102.5t-22 -138.5zM354 1206v197h183v-197h-183zM774 1206v197h182v-197h-182z" />
<glyph unicode="&#xe5;" d="M117 479q0 128 47.5 229t131 164.5t192.5 96t237 32.5q111 0 234 -23t196 -54v-924h-166l-14 106q-75 -65 -161 -100t-200 -35q-80 0 -153 19.5t-136 61t-109 100.5t-72.5 143t-26.5 184zM319 487q0 -180 90 -271t238 -91q89 0 170 33.5t141 95.5v559q-110 35 -231 35 q-66 0 -124.5 -12t-111 -39.5t-90.5 -68.5t-60 -102.5t-22 -138.5zM416 1298q0 86 74 135.5t182 49.5t182 -49.5t74 -135.5t-74 -135t-182 -49t-182 49t-74 135zM543 1298q0 -45 34.5 -69.5t94.5 -24.5t94.5 24.5t34.5 69.5t-35 70t-94 25t-94 -25t-35 -70z" />
<glyph unicode="&#xe6;" horiz-adv-x="2068" d="M117 479q0 128 47.5 229t131 164.5t192.5 96t237 32.5q103 0 219.5 -20t190.5 -49q129 69 299 69q132 0 235 -39t164.5 -105.5t93 -146.5t31.5 -169v-115h-868q9 -81 46 -140.5t95.5 -94t128 -50.5t151.5 -16q221 0 412 88v-158q-87 -39 -201 -61.5t-225 -22.5 q-297 0 -459 146q-88 -69 -185.5 -107.5t-238.5 -38.5q-80 0 -153 19.5t-136 61t-109 100.5t-72.5 143t-26.5 184zM319 487q0 -180 90 -271t238 -91q171 0 293 113q-57 111 -57 249q0 191 100 318q-133 43 -256 43q-66 0 -124.5 -12t-111 -39.5t-90.5 -68.5t-60 -102.5 t-22 -138.5zM1092 573h663q-2 122 -89 198.5t-234 76.5q-299 0 -340 -275z" />
<glyph unicode="&#xe7;" horiz-adv-x="1169" d="M117 487q0 233 161 373.5t435 140.5q178 0 303 -51v-162q-132 60 -291 60q-188 0 -297 -91t-109 -270t109.5 -270.5t294.5 -91.5q160 0 309 78v-164q-143 -68 -334 -68h-28l-23 -77q91 -6 141 -48t50 -116t-66 -119t-182 -45q-85 0 -148 26v115q56 -29 138 -29 q100 0 100 62q0 36 -28.5 48.5t-80.5 12.5h-86l64 185q-201 37 -316.5 171.5t-115.5 329.5z" />
<glyph unicode="&#xe8;" horiz-adv-x="1302" d="M117 487q0 233 152 373.5t399 140.5q132 0 235 -39t164.5 -105.5t93 -146.5t31.5 -169v-115h-868q9 -81 46 -140.5t95.5 -94t128 -50.5t151.5 -16q221 0 412 88v-158q-87 -39 -201 -61.5t-225 -22.5q-100 0 -188.5 17.5t-167.5 57t-135.5 98.5t-89.5 146.5t-33 196.5z M326 573h663q-2 122 -89 198.5t-234 76.5q-299 0 -340 -275zM338 1454h225l195 -309h-160z" />
<glyph unicode="&#xe9;" horiz-adv-x="1302" d="M117 487q0 233 152 373.5t399 140.5q132 0 235 -39t164.5 -105.5t93 -146.5t31.5 -169v-115h-868q9 -81 46 -140.5t95.5 -94t128 -50.5t151.5 -16q221 0 412 88v-158q-87 -39 -201 -61.5t-225 -22.5q-100 0 -188.5 17.5t-167.5 57t-135.5 98.5t-89.5 146.5t-33 196.5z M326 573h663q-2 122 -89 198.5t-234 76.5q-299 0 -340 -275zM571 1145l195 309h225l-260 -309h-160z" />
<glyph unicode="&#xea;" horiz-adv-x="1302" d="M117 487q0 233 152 373.5t399 140.5q132 0 235 -39t164.5 -105.5t93 -146.5t31.5 -169v-115h-868q9 -81 46 -140.5t95.5 -94t128 -50.5t151.5 -16q221 0 412 88v-158q-87 -39 -201 -61.5t-225 -22.5q-100 0 -188.5 17.5t-167.5 57t-135.5 98.5t-89.5 146.5t-33 196.5z M326 573h663q-2 122 -89 198.5t-234 76.5q-299 0 -340 -275zM328 1145l237 309h185l237 -309h-166l-164 184l-163 -184h-166z" />
<glyph unicode="&#xeb;" horiz-adv-x="1302" d="M117 487q0 233 152 373.5t399 140.5q132 0 235 -39t164.5 -105.5t93 -146.5t31.5 -169v-115h-868q9 -81 46 -140.5t95.5 -94t128 -50.5t151.5 -16q221 0 412 88v-158q-87 -39 -201 -61.5t-225 -22.5q-100 0 -188.5 17.5t-167.5 57t-135.5 98.5t-89.5 146.5t-33 196.5z M326 573h663q-2 122 -89 198.5t-234 76.5q-299 0 -340 -275zM358 1206v197h183v-197h-183zM778 1206v197h183v-197h-183z" />
<glyph unicode="&#xec;" horiz-adv-x="606" d="M-29 1454h226l194 -309h-160zM205 0v973h196v-973h-196z" />
<glyph unicode="&#xed;" horiz-adv-x="606" d="M205 0v973h196v-973h-196zM219 1145l195 309h225l-260 -309h-160z" />
<glyph unicode="&#xee;" horiz-adv-x="606" d="M-27 1145l238 309h184l238 -309h-166l-164 184l-164 -184h-166zM205 0v973h196v-973h-196z" />
<glyph unicode="&#xef;" horiz-adv-x="606" d="M2 1206v197h182v-197h-182zM205 0v973h196v-973h-196zM422 1206v197h182v-197h-182z" />
<glyph unicode="&#xf0;" horiz-adv-x="1415" d="M117 485q0 231 160 373.5t415 142.5q127 0 227.5 -38.5t163.5 -106.5q-31 155 -145 356l-520 -75v104l471 70q-3 5 -22.5 35t-40 61.5t-31.5 46.5h182q40 -51 80 -119l272 41v-104l-219 -33q82 -145 133 -313.5t51 -331.5q0 -138 -33.5 -249.5t-102.5 -196.5t-183.5 -131 t-267.5 -46q-263 0 -426.5 140.5t-163.5 373.5zM319 485q0 -169 107 -264.5t283 -95.5q174 0 279.5 97t105.5 267q0 173 -104.5 266t-280.5 93t-283 -97t-107 -266z" />
<glyph unicode="&#xf1;" horiz-adv-x="1382" d="M205 0v973h178l12 -88q167 116 373 116q122 0 216 -40.5t151 -126.5t57 -207v-627h-197v614q0 112 -76.5 169t-193.5 57q-177 0 -324 -105v-735h-196zM322 1174q0 113 50 183t158 70q46 0 94 -18.5t81 -41.5t70.5 -41.5t64.5 -18.5q71 0 71 114h140q0 -53 -11.5 -97 t-36 -79.5t-66 -55.5t-97.5 -20q-46 0 -92.5 19t-77.5 41.5t-69.5 41.5t-70.5 19q-69 0 -69 -116h-139z" />
<glyph unicode="&#xf2;" horiz-adv-x="1415" d="M117 485q0 234 163.5 375t426.5 141t426 -141t163 -375t-163 -374t-426 -140t-426.5 140t-163.5 374zM319 485q0 -169 106.5 -264.5t281.5 -95.5t281 95.5t106 264.5t-106 266t-281 97t-281.5 -97t-106.5 -266zM377 1454h225l195 -309h-160z" />
<glyph unicode="&#xf3;" horiz-adv-x="1415" d="M117 485q0 234 163.5 375t426.5 141t426 -141t163 -375t-163 -374t-426 -140t-426.5 140t-163.5 374zM319 485q0 -169 106.5 -264.5t281.5 -95.5t281 95.5t106 264.5t-106 266t-281 97t-281.5 -97t-106.5 -266zM616 1145l195 309h225l-260 -309h-160z" />
<glyph unicode="&#xf4;" horiz-adv-x="1415" d="M117 485q0 234 163.5 375t426.5 141t426 -141t163 -375t-163 -374t-426 -140t-426.5 140t-163.5 374zM319 485q0 -169 106.5 -264.5t281.5 -95.5t281 95.5t106 264.5t-106 266t-281 97t-281.5 -97t-106.5 -266zM377 1145l237 309h185l237 -309h-166l-163 184l-164 -184 h-166z" />
<glyph unicode="&#xf5;" horiz-adv-x="1415" d="M117 485q0 234 163.5 375t426.5 141t426 -141t163 -375t-163 -374t-426 -140t-426.5 140t-163.5 374zM319 485q0 -169 106.5 -264.5t281.5 -95.5t281 95.5t106 264.5t-106 266t-281 97t-281.5 -97t-106.5 -266zM342 1174q0 72 19.5 127t67.5 90.5t122 35.5 q58 0 117.5 -30t109 -60t82.5 -30q72 0 72 114h139q0 -53 -11.5 -97t-36 -79.5t-66 -55.5t-97.5 -20q-46 0 -92 19t-77 41.5t-69.5 41.5t-70.5 19q-70 0 -70 -116h-139z" />
<glyph unicode="&#xf6;" horiz-adv-x="1415" d="M117 485q0 234 163.5 375t426.5 141t426 -141t163 -375t-163 -374t-426 -140t-426.5 140t-163.5 374zM319 485q0 -169 106.5 -264.5t281.5 -95.5t281 95.5t106 264.5t-106 266t-281 97t-281.5 -97t-106.5 -266zM406 1206v197h182v-197h-182zM825 1206v197h183v-197h-183z " />
<glyph unicode="&#xf8;" horiz-adv-x="1415" d="M117 485q0 234 163.5 375t426.5 141q176 0 313 -67l127 145l86 -71l-117 -134q86 -69 133 -168.5t47 -220.5q0 -234 -163 -374t-426 -140q-172 0 -314 66l-127 -146l-88 74l117 133q-178 142 -178 387zM319 485q0 -159 93 -252l495 572q-91 43 -200 43q-175 0 -281.5 -97 t-106.5 -266zM504 166q87 -41 203 -41q175 0 281 95.5t106 264.5q0 156 -95 254z" />
<glyph unicode="&#xf9;" horiz-adv-x="1343" d="M184 356v617h199v-611q0 -119 66 -176t186 -57q176 0 305 129v715h199v-973h-168l-13 106q-160 -135 -360 -135q-188 0 -301 98.5t-113 286.5zM344 1454h225l195 -309h-160z" />
<glyph unicode="&#xfa;" horiz-adv-x="1343" d="M184 356v617h199v-611q0 -119 66 -176t186 -57q176 0 305 129v715h199v-973h-168l-13 106q-160 -135 -360 -135q-188 0 -301 98.5t-113 286.5zM575 1145l195 309h225l-260 -309h-160z" />
<glyph unicode="&#xfb;" horiz-adv-x="1343" d="M184 356v617h199v-611q0 -119 66 -176t186 -57q176 0 305 129v715h199v-973h-168l-13 106q-160 -135 -360 -135q-188 0 -301 98.5t-113 286.5zM336 1145l237 309h185l237 -309h-166l-163 184l-164 -184h-166z" />
<glyph unicode="&#xfc;" horiz-adv-x="1343" d="M184 356v617h199v-611q0 -119 66 -176t186 -57q176 0 305 129v715h199v-973h-168l-13 106q-160 -135 -360 -135q-188 0 -301 98.5t-113 286.5zM358 1206v197h183v-197h-183zM778 1206v197h183v-197h-183z" />
<glyph unicode="&#xfd;" horiz-adv-x="1343" d="M184 367v606h199v-600q0 -119 66 -176.5t186 -57.5q176 0 305 129v705h199v-953q0 -142 -68.5 -242t-182 -147t-261.5 -47q-218 0 -387 74v168q168 -92 372 -92q148 0 238 68.5t90 213.5v84q-153 -118 -342 -118q-188 0 -301 98.5t-113 286.5zM575 1145l195 309h225 l-260 -309h-160z" />
<glyph unicode="&#xfe;" horiz-adv-x="1355" d="M205 -389v1843h192v-565q145 112 346 112q98 0 185.5 -31t158 -91.5t111.5 -160t41 -226.5q0 -126 -44.5 -226t-122 -164t-179 -97.5t-219.5 -33.5q-168 0 -277 47v-407h-192zM397 176q116 -51 260 -51q79 0 146 22t120 65t83 115t30 165q0 177 -92 266.5t-239 89.5 q-84 0 -169 -32.5t-139 -74.5v-565z" />
<glyph unicode="&#xff;" horiz-adv-x="1343" d="M184 367v606h199v-600q0 -119 66 -176.5t186 -57.5q176 0 305 129v705h199v-953q0 -142 -68.5 -242t-182 -147t-261.5 -47q-218 0 -387 74v168q168 -92 372 -92q148 0 238 68.5t90 213.5v84q-153 -118 -342 -118q-188 0 -301 98.5t-113 286.5zM367 1206v197h182v-197 h-182zM786 1206v197h183v-197h-183z" />
<glyph unicode="&#x100;" horiz-adv-x="1492" d="M-8 0l655 1384h205l649 -1384h-231l-160 340h-750l-157 -340h-211zM430 496h612l-305 661zM449 1616v129h610v-129h-610z" />
<glyph unicode="&#x101;" d="M117 479q0 128 47.5 229t131 164.5t192.5 96t237 32.5q111 0 234 -23t196 -54v-924h-166l-14 106q-75 -65 -161 -100t-200 -35q-80 0 -153 19.5t-136 61t-109 100.5t-72.5 143t-26.5 184zM319 487q0 -180 90 -271t238 -91q89 0 170 33.5t141 95.5v559q-110 35 -231 35 q-66 0 -124.5 -12t-111 -39.5t-90.5 -68.5t-60 -102.5t-22 -138.5zM375 1235v129h610v-129h-610z" />
<glyph unicode="&#x102;" horiz-adv-x="1492" d="M-8 0l655 1384h205l649 -1384h-231l-160 340h-750l-157 -340h-211zM410 1823h135q25 -162 209 -162t209 162h135q-9 -134 -100 -214.5t-244 -80.5t-244 80.5t-100 214.5zM430 496h612l-305 661z" />
<glyph unicode="&#x103;" d="M117 479q0 128 47.5 229t131 164.5t192.5 96t237 32.5q111 0 234 -23t196 -54v-924h-166l-14 106q-75 -65 -161 -100t-200 -35q-80 0 -153 19.5t-136 61t-109 100.5t-72.5 143t-26.5 184zM319 487q0 -180 90 -271t238 -91q89 0 170 33.5t141 95.5v559q-110 35 -231 35 q-66 0 -124.5 -12t-111 -39.5t-90.5 -68.5t-60 -102.5t-22 -138.5zM336 1444h135q25 -162 209 -162t209 162h135q-9 -134 -100 -214.5t-244 -80.5t-244 80.5t-100 214.5z" />
<glyph unicode="&#x104;" horiz-adv-x="1492" d="M-8 0l655 1384h205l649 -1384q-77 -55 -119.5 -105.5t-42.5 -111.5q0 -90 107 -90q74 0 137 37v-125q-68 -35 -168 -35q-105 0 -167 51t-62 141q0 155 147 238h-63l-160 340h-750l-157 -340h-211zM430 496h612l-305 661z" />
<glyph unicode="&#x105;" d="M117 479q0 128 47.5 229t131 164.5t192.5 96t237 32.5q111 0 234 -23t196 -54v-924q-77 -55 -119.5 -105.5t-42.5 -111.5q0 -43 30 -66.5t77 -23.5q74 0 137 37v-125q-68 -35 -168 -35q-105 0 -167 51t-62 141q0 154 149 238l-14 106q-75 -65 -161 -100t-200 -35 q-80 0 -153 19.5t-136 61t-109 100.5t-72.5 143t-26.5 184zM319 487q0 -180 90 -271t238 -91q89 0 170 33.5t141 95.5v559q-110 35 -231 35q-66 0 -124.5 -12t-111 -39.5t-90.5 -68.5t-60 -102.5t-22 -138.5z" />
<glyph unicode="&#x106;" horiz-adv-x="1536" d="M137 692q0 324 224 522.5t604 198.5q252 0 415 -72v-161q-170 75 -405 75q-282 0 -447.5 -151t-165.5 -412t166 -412t449 -151q233 0 420 88v-164q-192 -82 -428 -82q-252 0 -441.5 91t-290 254t-100.5 376zM788 1524l195 309h225l-260 -309h-160z" />
<glyph unicode="&#x107;" horiz-adv-x="1169" d="M117 487q0 233 161 373.5t435 140.5q178 0 303 -51v-162q-132 60 -291 60q-188 0 -297 -91t-109 -270t109.5 -270.5t294.5 -91.5q160 0 309 78v-164q-143 -68 -334 -68q-265 0 -423 143.5t-158 372.5zM514 1145l195 309h225l-260 -309h-160z" />
<glyph unicode="&#x108;" horiz-adv-x="1536" d="M137 692q0 324 224 522.5t604 198.5q252 0 415 -72v-161q-170 75 -405 75q-282 0 -447.5 -151t-165.5 -412t166 -412t449 -151q233 0 420 88v-164q-192 -82 -428 -82q-252 0 -441.5 91t-290 254t-100.5 376zM530 1524l238 309h184l238 -309h-166l-164 184l-164 -184h-166 z" />
<glyph unicode="&#x109;" horiz-adv-x="1169" d="M117 487q0 233 161 373.5t435 140.5q178 0 303 -51v-162q-132 60 -291 60q-188 0 -297 -91t-109 -270t109.5 -270.5t294.5 -91.5q160 0 309 78v-164q-143 -68 -334 -68q-265 0 -423 143.5t-158 372.5zM307 1145l238 309h184l238 -309h-166l-164 184l-164 -184h-166z" />
<glyph unicode="&#x10a;" horiz-adv-x="1536" d="M137 692q0 324 224 522.5t604 198.5q252 0 415 -72v-161q-170 75 -405 75q-282 0 -447.5 -151t-165.5 -412t166 -412t449 -151q233 0 420 88v-164q-192 -82 -428 -82q-252 0 -441.5 91t-290 254t-100.5 376zM762 1581v197h190v-197h-190z" />
<glyph unicode="&#x10b;" horiz-adv-x="1169" d="M117 487q0 233 161 373.5t435 140.5q178 0 303 -51v-162q-132 60 -291 60q-188 0 -297 -91t-109 -270t109.5 -270.5t294.5 -91.5q160 0 309 78v-164q-143 -68 -334 -68q-265 0 -423 143.5t-158 372.5zM545 1206v197h190v-197h-190z" />
<glyph unicode="&#x10c;" horiz-adv-x="1536" d="M137 692q0 324 224 522.5t604 198.5q252 0 415 -72v-161q-170 75 -405 75q-282 0 -447.5 -151t-165.5 -412t166 -412t449 -151q233 0 420 88v-164q-192 -82 -428 -82q-252 0 -441.5 91t-290 254t-100.5 376zM530 1833h166l164 -184l164 184h166l-238 -309h-184z" />
<glyph unicode="&#x10d;" horiz-adv-x="1169" d="M117 487q0 233 161 373.5t435 140.5q178 0 303 -51v-162q-132 60 -291 60q-188 0 -297 -91t-109 -270t109.5 -270.5t294.5 -91.5q160 0 309 78v-164q-143 -68 -334 -68q-265 0 -423 143.5t-158 372.5zM309 1454h166l164 -184l164 184h166l-238 -309h-184z" />
<glyph unicode="&#x10e;" horiz-adv-x="1802" d="M260 0v1384h504q435 0 668 -181.5t233 -510.5q0 -330 -233 -511t-668 -181h-504zM475 158h289q323 0 499.5 131.5t176.5 402.5q0 270 -176.5 402.5t-499.5 132.5h-289v-1069zM571 1833h166l164 -184l164 184h166l-238 -309h-184z" />
<glyph unicode="&#x10f;" horiz-adv-x="1511" d="M117 479q0 128 47.5 229t131 164.5t192.5 96t237 32.5q117 0 231 -26v479h199v-1454h-166l-14 106q-75 -65 -161 -100t-200 -35q-80 0 -153 19.5t-136 61t-109 100.5t-72.5 143t-26.5 184zM319 487q0 -180 90 -271t238 -91q89 0 170 33.5t141 95.5v561q-103 33 -231 33 q-66 0 -124.5 -12t-111 -39.5t-90.5 -68.5t-60 -102.5t-22 -138.5zM1245 1118q115 73 115 207q0 59 -25 129h160q16 -57 16 -123q0 -196 -192 -305z" />
<glyph unicode="&#x110;" horiz-adv-x="1802" d="M63 643v148h197v593h504q435 0 668 -181.5t233 -510.5q0 -330 -233 -511t-668 -181h-504v643h-197zM475 158h289q323 0 499.5 131.5t176.5 402.5q0 270 -176.5 402.5t-499.5 132.5h-289v-436h475v-148h-475v-485z" />
<glyph unicode="&#x111;" d="M117 479q0 128 47.5 229t131 164.5t192.5 96t237 32.5q117 0 231 -26v207h-460v112h460v160h199v-160h180v-112h-180v-1182h-166l-14 106q-75 -65 -161 -100t-200 -35q-80 0 -153 19.5t-136 61t-109 100.5t-72.5 143t-26.5 184zM319 487q0 -180 90 -271t238 -91 q89 0 170 33.5t141 95.5v561q-103 33 -231 33q-66 0 -124.5 -12t-111 -39.5t-90.5 -68.5t-60 -102.5t-22 -138.5z" />
<glyph unicode="&#x112;" horiz-adv-x="1400" d="M240 336v1048h974v-157h-759v-434h692v-158h-692v-299q0 -92 50 -135t159 -43h587v-158h-618q-206 0 -299.5 84.5t-93.5 251.5zM422 1616v129h610v-129h-610z" />
<glyph unicode="&#x113;" horiz-adv-x="1302" d="M117 487q0 233 152 373.5t399 140.5q132 0 235 -39t164.5 -105.5t93 -146.5t31.5 -169v-115h-868q9 -81 46 -140.5t95.5 -94t128 -50.5t151.5 -16q221 0 412 88v-158q-87 -39 -201 -61.5t-225 -22.5q-100 0 -188.5 17.5t-167.5 57t-135.5 98.5t-89.5 146.5t-33 196.5z M326 573h663q-2 122 -89 198.5t-234 76.5q-299 0 -340 -275zM344 1235v129h610v-129h-610z" />
<glyph unicode="&#x116;" horiz-adv-x="1400" d="M240 336v1048h974v-157h-759v-434h692v-158h-692v-299q0 -92 50 -135t159 -43h587v-158h-618q-206 0 -299.5 84.5t-93.5 251.5zM633 1581v197h190v-197h-190z" />
<glyph unicode="&#x117;" horiz-adv-x="1302" d="M117 487q0 233 152 373.5t399 140.5q132 0 235 -39t164.5 -105.5t93 -146.5t31.5 -169v-115h-868q9 -81 46 -140.5t95.5 -94t128 -50.5t151.5 -16q221 0 412 88v-158q-87 -39 -201 -61.5t-225 -22.5q-100 0 -188.5 17.5t-167.5 57t-135.5 98.5t-89.5 146.5t-33 196.5z M326 573h663q-2 122 -89 198.5t-234 76.5q-299 0 -340 -275zM553 1206v197h190v-197h-190z" />
<glyph unicode="&#x118;" horiz-adv-x="1400" d="M240 336v1048h974v-157h-759v-434h692v-158h-692v-299q0 -92 50 -135t159 -43h587v-158h-82q-77 -54 -119 -104.5t-42 -112.5q0 -90 106 -90q74 0 137 37v-125q-68 -35 -168 -35q-105 0 -167 51t-62 141q0 153 150 238h-371q-206 0 -299.5 84.5t-93.5 251.5z" />
<glyph unicode="&#x119;" horiz-adv-x="1302" d="M117 487q0 233 152 373.5t399 140.5q132 0 235 -39t164.5 -105.5t93 -146.5t31.5 -169v-115h-868q9 -81 46 -140.5t95.5 -94t128 -50.5t151.5 -16q221 0 412 88v-158q-98 -46 -242 -69q-67 -49 -104 -97t-37 -106q0 -90 107 -90q74 0 137 37v-125q-68 -35 -168 -35 q-105 0 -167 51t-62 141q0 128 108 209q-126 0 -233 29t-193.5 88.5t-136 161.5t-49.5 237zM326 573h663q-2 122 -89 198.5t-234 76.5q-299 0 -340 -275z" />
<glyph unicode="&#x11a;" horiz-adv-x="1400" d="M240 336v1048h974v-157h-759v-434h692v-158h-692v-299q0 -92 50 -135t159 -43h587v-158h-618q-206 0 -299.5 84.5t-93.5 251.5zM397 1833h166l164 -184l164 184h166l-238 -309h-184z" />
<glyph unicode="&#x11b;" horiz-adv-x="1302" d="M117 487q0 233 152 373.5t399 140.5q132 0 235 -39t164.5 -105.5t93 -146.5t31.5 -169v-115h-868q9 -81 46 -140.5t95.5 -94t128 -50.5t151.5 -16q221 0 412 88v-158q-87 -39 -201 -61.5t-225 -22.5q-100 0 -188.5 17.5t-167.5 57t-135.5 98.5t-89.5 146.5t-33 196.5z M319 1454h166l164 -184l164 184h166l-238 -309h-184zM326 573h663q-2 122 -89 198.5t-234 76.5q-299 0 -340 -275z" />
<glyph unicode="&#x11c;" horiz-adv-x="1914" d="M137 692q0 150 50 272.5t135 204.5t201.5 138t245 81t269.5 25q332 0 604 -125v-166q-121 59 -280 96t-322 37q-108 0 -204.5 -18t-185 -60t-152 -105.5t-101 -160.5t-37.5 -219q0 -134 47 -241.5t131 -177.5t199.5 -107t253.5 -37q279 0 490 98v369h-510v154h712v-609 q-320 -170 -698 -170q-248 0 -438.5 83.5t-300 248t-109.5 389.5zM627 1524l237 309h185l237 -309h-166l-164 184l-163 -184h-166z" />
<glyph unicode="&#x11d;" d="M117 479q0 128 47.5 229t131 164.5t192.5 96t237 32.5q111 0 234 -23t196 -54v-908q0 -107 -43 -191t-119 -136.5t-175 -79.5t-214 -27q-227 0 -411 88v170q78 -44 184.5 -75t222.5 -31q161 0 259.5 68.5t98.5 213.5v84q-141 -116 -344 -116q-101 0 -189 30t-158 88.5 t-110 155.5t-40 221zM319 487q0 -179 89 -264.5t239 -85.5q89 0 170 33.5t141 95.5v547q-110 35 -231 35q-66 0 -124.5 -12t-111 -39.5t-90.5 -68.5t-60 -102.5t-22 -138.5zM328 1145l237 309h185l237 -309h-166l-164 184l-163 -184h-166z" />
<glyph unicode="&#x11e;" horiz-adv-x="1914" d="M137 692q0 150 50 272.5t135 204.5t201.5 138t245 81t269.5 25q332 0 604 -125v-166q-121 59 -280 96t-322 37q-108 0 -204.5 -18t-185 -60t-152 -105.5t-101 -160.5t-37.5 -219q0 -134 47 -241.5t131 -177.5t199.5 -107t253.5 -37q279 0 490 98v369h-510v154h712v-609 q-320 -170 -698 -170q-248 0 -438.5 83.5t-300 248t-109.5 389.5zM612 1825h136q25 -162 208 -162q184 0 209 162h135q-9 -134 -100 -214.5t-244 -80.5t-244 80.5t-100 214.5z" />
<glyph unicode="&#x11f;" d="M117 479q0 128 47.5 229t131 164.5t192.5 96t237 32.5q111 0 234 -23t196 -54v-908q0 -107 -43 -191t-119 -136.5t-175 -79.5t-214 -27q-227 0 -411 88v170q78 -44 184.5 -75t222.5 -31q161 0 259.5 68.5t98.5 213.5v84q-141 -116 -344 -116q-101 0 -189 30t-158 88.5 t-110 155.5t-40 221zM313 1444h136q25 -162 208 -162q184 0 209 162h135q-9 -134 -100 -214.5t-244 -80.5t-244 80.5t-100 214.5zM319 487q0 -179 89 -264.5t239 -85.5q89 0 170 33.5t141 95.5v547q-110 35 -231 35q-66 0 -124.5 -12t-111 -39.5t-90.5 -68.5t-60 -102.5 t-22 -138.5z" />
<glyph unicode="&#x120;" horiz-adv-x="1914" d="M137 692q0 150 50 272.5t135 204.5t201.5 138t245 81t269.5 25q332 0 604 -125v-166q-121 59 -280 96t-322 37q-108 0 -204.5 -18t-185 -60t-152 -105.5t-101 -160.5t-37.5 -219q0 -134 47 -241.5t131 -177.5t199.5 -107t253.5 -37q279 0 490 98v369h-510v154h712v-609 q-320 -170 -698 -170q-248 0 -438.5 83.5t-300 248t-109.5 389.5zM860 1581v197h191v-197h-191z" />
<glyph unicode="&#x121;" d="M117 479q0 128 47.5 229t131 164.5t192.5 96t237 32.5q111 0 234 -23t196 -54v-908q0 -107 -43 -191t-119 -136.5t-175 -79.5t-214 -27q-227 0 -411 88v170q78 -44 184.5 -75t222.5 -31q161 0 259.5 68.5t98.5 213.5v84q-141 -116 -344 -116q-101 0 -189 30t-158 88.5 t-110 155.5t-40 221zM319 487q0 -179 89 -264.5t239 -85.5q89 0 170 33.5t141 95.5v547q-110 35 -231 35q-66 0 -124.5 -12t-111 -39.5t-90.5 -68.5t-60 -102.5t-22 -138.5zM563 1206v197h191v-197h-191z" />
<glyph unicode="&#x122;" horiz-adv-x="1914" d="M137 692q0 150 50 272.5t135 204.5t201.5 138t245 81t269.5 25q332 0 604 -125v-166q-121 59 -280 96t-322 37q-108 0 -204.5 -18t-185 -60t-152 -105.5t-101 -160.5t-37.5 -219q0 -134 47 -241.5t131 -177.5t199.5 -107t253.5 -37q279 0 490 98v369h-510v154h712v-609 q-320 -170 -698 -170q-248 0 -438.5 83.5t-300 248t-109.5 389.5zM786 -389q68 31 97.5 69t29.5 93q0 47 -24 102h178q20 -53 20 -102q0 -92 -63 -162.5t-178 -110.5z" />
<glyph unicode="&#x123;" d="M117 479q0 128 47.5 229t131 164.5t192.5 96t237 32.5q111 0 234 -23t196 -54v-908q0 -107 -43 -191t-119 -136.5t-175 -79.5t-214 -27q-227 0 -411 88v170q78 -44 184.5 -75t222.5 -31q161 0 259.5 68.5t98.5 213.5v84q-141 -116 -344 -116q-101 0 -189 30t-158 88.5 t-110 155.5t-40 221zM319 487q0 -179 89 -264.5t239 -85.5q89 0 170 33.5t141 95.5v547q-110 35 -231 35q-66 0 -124.5 -12t-111 -39.5t-90.5 -68.5t-60 -102.5t-22 -138.5zM555 1221q0 91 63.5 161.5t178.5 110.5l59 -111q-68 -31 -97.5 -68.5t-29.5 -92.5q0 -46 25 -103 h-179q-20 53 -20 103z" />
<glyph unicode="&#x124;" horiz-adv-x="1888" d="M260 0v1384h215v-589h938v589h215v-1384h-215v637h-938v-637h-215zM655 1524l238 309h184l238 -309h-166l-164 184l-164 -184h-166z" />
<glyph unicode="&#x125;" horiz-adv-x="1382" d="M12 1524l238 309h184l238 -309h-166l-164 184l-164 -184h-166zM205 0v1454h196v-565q163 112 367 112q122 0 216 -40.5t151 -126.5t57 -207v-627h-197v614q0 112 -76.5 169t-193.5 57q-177 0 -324 -105v-735h-196z" />
<glyph unicode="&#x126;" horiz-adv-x="1888" d="M63 1038v115h197v231h215v-231h938v231h215v-231h199v-115h-199v-1038h-215v637h-938v-637h-215v1038h-197zM475 795h938v243h-938v-243z" />
<glyph unicode="&#x127;" horiz-adv-x="1382" d="M20 1182v112h185v160h196v-160h461v-112h-461v-293q163 112 367 112q122 0 216 -40.5t151 -126.5t57 -207v-627h-197v614q0 112 -76.5 169t-193.5 57q-177 0 -324 -105v-735h-196v1182h-185z" />
<glyph unicode="&#x12a;" horiz-adv-x="735" d="M61 1616v129h611v-129h-611zM260 0v1384h215v-1384h-215z" />
<glyph unicode="&#x12b;" horiz-adv-x="606" d="M-2 1235v129h610v-129h-610zM205 0v973h196v-973h-196z" />
<glyph unicode="&#x12e;" horiz-adv-x="735" d="M160 -238q0 155 147 238h-47v1384h215v-1384q-77 -55 -119.5 -105.5t-42.5 -111.5q0 -90 107 -90q74 0 137 37v-125q-68 -35 -168 -35q-105 0 -167 51t-62 141z" />
<glyph unicode="&#x12f;" horiz-adv-x="606" d="M86 -238q0 155 147 238h-28v973h196v-973q-77 -54 -119 -104.5t-42 -112.5q0 -90 106 -90q74 0 137 37v-125q-68 -35 -168 -35q-105 0 -167 51t-62 141zM205 1194v203h196v-203h-196z" />
<glyph unicode="&#x130;" horiz-adv-x="735" d="M260 0v1384h215v-1384h-215zM272 1581v197h191v-197h-191z" />
<glyph unicode="&#x131;" horiz-adv-x="606" d="M205 0v973h196v-973h-196z" />
<glyph unicode="&#x134;" horiz-adv-x="937" d="M47 12v162q111 -49 227 -49q114 0 162.5 53t48.5 172v1034h213v-1030q0 -192 -104.5 -287.5t-298.5 -95.5q-136 0 -248 41zM264 1524l238 309h184l238 -309h-166l-164 184l-164 -184h-166z" />
<glyph unicode="&#x135;" horiz-adv-x="606" d="M-33 -231q72 -31 129 -31q109 0 109 104v1131h196v-1112q0 -132 -65.5 -205.5t-202.5 -73.5q-87 0 -166 31v156zM-27 1145l238 309h184l238 -309h-166l-164 184l-164 -184h-166z" />
<glyph unicode="&#x136;" horiz-adv-x="1499" d="M260 0v1384h215v-612l744 612h256l-797 -661l821 -723h-282l-742 645v-645h-215zM668 -389q68 31 97.5 69t29.5 93q0 45 -25 102h178q21 -55 21 -102q0 -91 -63.5 -162t-178.5 -111z" />
<glyph unicode="&#x137;" horiz-adv-x="1210" d="M205 0v1454h196v-868l531 387h260l-602 -438l614 -535h-262l-541 463v-463h-196zM506 -389q68 31 97.5 69t29.5 93q0 45 -25 102h178q21 -55 21 -102q0 -91 -63.5 -162t-178.5 -111z" />
<glyph unicode="&#x139;" horiz-adv-x="1245" d="M242 336v1048h215v-1048q0 -92 49 -135t160 -43h534v-158h-567q-205 0 -298 85t-93 251zM268 1524l195 309h225l-260 -309h-160z" />
<glyph unicode="&#x13a;" horiz-adv-x="671" d="M193 250v1204h196v-1221q0 -108 100 -108q75 0 142 31v-158q-71 -27 -170 -27q-139 0 -203.5 71t-64.5 208zM213 1524l195 309h225l-260 -309h-160z" />
<glyph unicode="&#x13b;" horiz-adv-x="1245" d="M242 336v1048h215v-1048q0 -92 49 -135t160 -43h534v-158h-567q-205 0 -298 85t-93 251zM578 -389q68 31 97.5 69t29.5 93q0 45 -25 102h178q21 -55 21 -102q0 -91 -63.5 -162t-178.5 -111z" />
<glyph unicode="&#x13c;" horiz-adv-x="671" d="M193 250v1204h196v-1221q0 -108 100 -108q75 0 142 31v-158q-71 -27 -170 -27q-139 0 -203.5 71t-64.5 208zM238 -389q68 31 97.5 69t29.5 93q0 45 -25 102h178q21 -55 21 -102q0 -91 -63.5 -162t-178.5 -111z" />
<glyph unicode="&#x13d;" horiz-adv-x="1245" d="M242 336v1048h215v-1048q0 -92 49 -135t160 -43h534v-158h-567q-205 0 -298 85t-93 251zM729 1036q119 77 119 215q0 63 -27 133h172q19 -61 19 -127q0 -201 -205 -317z" />
<glyph unicode="&#x13e;" horiz-adv-x="665" d="M193 250v1204h196v-1221q0 -108 100 -108q75 0 142 31v-158q-71 -27 -170 -27q-139 0 -203.5 71t-64.5 208zM477 1118q115 73 115 207q0 59 -25 129h160q16 -57 16 -123q0 -196 -192 -305z" />
<glyph unicode="&#x141;" horiz-adv-x="1263" d="M61 526v148l199 69v641h215v-567l451 160v-148l-451 -159v-334q0 -92 49 -135t160 -43h535v-158h-566q-205 0 -299 85t-94 251v258z" />
<glyph unicode="&#x142;" horiz-adv-x="681" d="M47 627v147l162 66v614h197v-532l194 79v-149l-194 -80v-539q0 -108 100 -108q74 0 141 31v-158q-71 -27 -170 -27q-139 0 -203.5 71t-64.5 208v442z" />
<glyph unicode="&#x143;" horiz-adv-x="1871" d="M260 0v1384h193l954 -1093v1093h205v-1384h-191l-954 1092v-1092h-207zM836 1524l194 309h225l-260 -309h-159z" />
<glyph unicode="&#x144;" horiz-adv-x="1382" d="M205 0v973h178l12 -88q167 116 373 116q122 0 216 -40.5t151 -126.5t57 -207v-627h-197v614q0 112 -76.5 169t-193.5 57q-177 0 -324 -105v-735h-196zM618 1145l195 309h225l-260 -309h-160z" />
<glyph unicode="&#x145;" horiz-adv-x="1871" d="M260 0v1384h193l954 -1093v1093h205v-1384h-191l-954 1092v-1092h-207zM784 -389q68 31 97.5 69t29.5 93q0 47 -24 102h178q20 -53 20 -102q0 -92 -63 -162.5t-178 -110.5z" />
<glyph unicode="&#x146;" horiz-adv-x="1382" d="M205 0v973h178l12 -88q167 116 373 116q122 0 216 -40.5t151 -126.5t57 -207v-627h-197v614q0 112 -76.5 169t-193.5 57q-177 0 -324 -105v-735h-196zM492 -389q67 31 96.5 68.5t29.5 93.5q0 47 -24 102h178q21 -55 21 -102q0 -91 -63.5 -162t-178.5 -111z" />
<glyph unicode="&#x147;" horiz-adv-x="1871" d="M260 0v1384h193l954 -1093v1093h205v-1384h-191l-954 1092v-1092h-207zM606 1833h166l164 -184l164 184h166l-238 -309h-184z" />
<glyph unicode="&#x148;" horiz-adv-x="1382" d="M205 0v973h178l12 -88q167 116 373 116q122 0 216 -40.5t151 -126.5t57 -207v-627h-197v614q0 112 -76.5 169t-193.5 57q-177 0 -324 -105v-735h-196zM356 1454h166l164 -184l164 184h166l-238 -309h-184z" />
<glyph unicode="&#x14c;" horiz-adv-x="1961" d="M137 692q0 217 105.5 381t297 252t441.5 88t441.5 -88t297 -252t105.5 -381t-105.5 -381t-297 -252t-441.5 -88t-441.5 88t-297 252t-105.5 381zM362 692q0 -258 165.5 -410.5t453.5 -152.5t453 152.5t165 410.5t-165 410.5t-453 152.5t-453.5 -152.5t-165.5 -410.5z M676 1614v129h610v-129h-610z" />
<glyph unicode="&#x14d;" horiz-adv-x="1415" d="M117 485q0 234 163.5 375t426.5 141t426 -141t163 -375t-163 -374t-426 -140t-426.5 140t-163.5 374zM319 485q0 -169 106.5 -264.5t281.5 -95.5t281 95.5t106 264.5t-106 266t-281 97t-281.5 -97t-106.5 -266zM401 1235v129h611v-129h-611z" />
<glyph unicode="&#x150;" horiz-adv-x="1961" d="M137 692q0 217 105.5 381t297 252t441.5 88t441.5 -88t297 -252t105.5 -381t-105.5 -381t-297 -252t-441.5 -88t-441.5 88t-297 252t-105.5 381zM362 692q0 -258 165.5 -410.5t453.5 -152.5t453 152.5t165 410.5t-165 410.5t-453 152.5t-453.5 -152.5t-165.5 -410.5z M741 1524l172 309h195l-219 -309h-148zM1036 1524l238 309h201l-285 -309h-154z" />
<glyph unicode="&#x151;" horiz-adv-x="1415" d="M117 485q0 234 163.5 375t426.5 141t426 -141t163 -375t-163 -374t-426 -140t-426.5 140t-163.5 374zM319 485q0 -169 106.5 -264.5t281.5 -95.5t281 95.5t106 264.5t-106 266t-281 97t-281.5 -97t-106.5 -266zM485 1145l172 309h195l-219 -309h-148zM780 1145l238 309 h201l-285 -309h-154z" />
<glyph unicode="&#x152;" horiz-adv-x="2768" d="M137 692q0 217 105 381t296 252t441 88q214 0 377 -74t256 -204v249h971v-157h-760v-434h692v-158h-692v-299q0 -92 50 -135t161 -43h585v-158h-618q-178 0 -267.5 66.5t-107.5 195.5q-91 -137 -258 -214t-389 -77q-250 0 -441 88t-296 252t-105 381zM360 692 q0 -258 165.5 -410.5t453.5 -152.5t453 152.5t165 410.5t-165 410.5t-453 152.5t-453.5 -152.5t-165.5 -410.5z" />
<glyph unicode="&#x153;" horiz-adv-x="2265" d="M117 485q0 234 163.5 375t426.5 141q168 0 290 -60.5t187 -172.5q61 112 174 172.5t272 60.5q132 0 235 -39t164.5 -105.5t93 -146.5t31.5 -169v-115h-868q9 -81 46 -140.5t95.5 -94t128.5 -50.5t152 -16q221 0 412 88v-158q-87 -39 -201 -61.5t-225 -22.5 q-177 0 -309.5 56.5t-198.5 177.5q-66 -112 -188 -173t-291 -61q-263 0 -426.5 140t-163.5 374zM319 485q0 -169 106.5 -264.5t281.5 -95.5t281 95.5t106 264.5t-106 266t-281 97t-281.5 -97t-106.5 -266zM1288 573h664q-2 122 -89.5 198.5t-234.5 76.5q-299 0 -340 -275z " />
<glyph unicode="&#x154;" horiz-adv-x="1511" d="M260 0v1384h504q296 0 460.5 -114t164.5 -320q0 -166 -108 -269t-308 -134l469 -547h-248l-438 516h-281v-516h-215zM475 674h289q189 0 294 68t105 208t-105.5 208.5t-293.5 68.5h-289v-553zM711 1526l194 309h225l-260 -309h-159z" />
<glyph unicode="&#x155;" horiz-adv-x="868" d="M205 0v973h178l12 -146q84 74 193.5 124t226.5 50v-176q-101 0 -214 -40.5t-200 -110.5v-674h-196zM383 1145l195 309h225l-260 -309h-160z" />
<glyph unicode="&#x158;" horiz-adv-x="1511" d="M260 0v1384h504q296 0 460.5 -114t164.5 -320q0 -166 -108 -269t-308 -134l469 -547h-248l-438 516h-281v-516h-215zM473 1833h166l164 -184l164 184h166l-238 -309h-184zM475 674h289q189 0 294 68t105 208t-105.5 208.5t-293.5 68.5h-289v-553z" />
<glyph unicode="&#x159;" horiz-adv-x="868" d="M188 1454h166l164 -184l164 184h166l-238 -309h-184zM205 0v973h178l12 -146q84 74 193.5 124t226.5 50v-176q-101 0 -214 -40.5t-200 -110.5v-674h-196z" />
<glyph unicode="&#x15a;" horiz-adv-x="1353" d="M164 1018q0 96 45 172.5t123.5 124.5t179.5 73t217 25q250 0 426 -78v-166q-187 86 -426 86q-68 0 -127 -12.5t-109 -38t-79 -70.5t-29 -106q0 -51 28 -89.5t75.5 -63t109 -44t129.5 -37.5t135.5 -38t129 -50.5t109 -71t75.5 -103.5t28 -144q0 -89 -31.5 -160 t-85.5 -118.5t-128 -79t-155 -45t-171 -13.5q-125 0 -250 28t-215 73v161q221 -104 459 -104q74 0 136 13t113 40t80 75.5t29 113.5q0 68 -45.5 114.5t-117.5 73t-159.5 49t-175.5 51t-160 69t-117.5 114.5t-45.5 176zM590 1524l194 309h226l-260 -309h-160z" />
<glyph unicode="&#x15b;" horiz-adv-x="1110" d="M129 698q0 100 65 170t170.5 101.5t241.5 31.5q103 0 206.5 -17.5t168.5 -45.5v-158q-69 31 -172.5 49.5t-202.5 18.5q-54 0 -101.5 -7t-89.5 -21.5t-66.5 -42t-24.5 -64.5q0 -44 38 -72t99 -43t135 -27.5t148 -31t135 -47.5t99 -84.5t38 -133.5q0 -104 -63.5 -173.5 t-165 -99.5t-234.5 -30q-236 0 -414 90v162q191 -98 410 -98q122 0 197 33.5t75 107.5q0 46 -38 75.5t-99 45t-135 27.5t-148 30t-135 45.5t-99 80.5t-38 128zM436 1145l195 309h225l-260 -309h-160z" />
<glyph unicode="&#x15c;" horiz-adv-x="1353" d="M164 1018q0 96 45 172.5t123.5 124.5t179.5 73t217 25q250 0 426 -78v-166q-187 86 -426 86q-68 0 -127 -12.5t-109 -38t-79 -70.5t-29 -106q0 -51 28 -89.5t75.5 -63t109 -44t129.5 -37.5t135.5 -38t129 -50.5t109 -71t75.5 -103.5t28 -144q0 -89 -31.5 -160 t-85.5 -118.5t-128 -79t-155 -45t-171 -13.5q-125 0 -250 28t-215 73v161q221 -104 459 -104q74 0 136 13t113 40t80 75.5t29 113.5q0 68 -45.5 114.5t-117.5 73t-159.5 49t-175.5 51t-160 69t-117.5 114.5t-45.5 176zM352 1524l238 309h184l238 -309h-166l-164 184 l-164 -184h-166z" />
<glyph unicode="&#x15d;" horiz-adv-x="1110" d="M129 698q0 100 65 170t170.5 101.5t241.5 31.5q103 0 206.5 -17.5t168.5 -45.5v-158q-69 31 -172.5 49.5t-202.5 18.5q-54 0 -101.5 -7t-89.5 -21.5t-66.5 -42t-24.5 -64.5q0 -44 38 -72t99 -43t135 -27.5t148 -31t135 -47.5t99 -84.5t38 -133.5q0 -104 -63.5 -173.5 t-165 -99.5t-234.5 -30q-236 0 -414 90v162q191 -98 410 -98q122 0 197 33.5t75 107.5q0 46 -38 75.5t-99 45t-135 27.5t-148 30t-135 45.5t-99 80.5t-38 128zM256 1145l238 309h184l237 -309h-165l-164 184l-164 -184h-166z" />
<glyph unicode="&#x15e;" horiz-adv-x="1353" d="M164 1018q0 96 45 172.5t123.5 124.5t179.5 73t217 25q250 0 426 -78v-166q-187 86 -426 86q-68 0 -127 -12.5t-109 -38t-79 -70.5t-29 -106q0 -51 28 -89.5t75.5 -63t109 -44t129.5 -37.5t135.5 -38t129 -50.5t109 -71t75.5 -103.5t28 -144q0 -76 -23 -139t-63 -108 t-96.5 -78.5t-120 -53t-137.5 -28.5l-27 -86q91 -6 141 -48t50 -116t-66 -119t-182 -45q-85 0 -148 26v115q64 -29 138 -29q100 0 100 62q0 36 -29 48.5t-82 12.5h-86l60 170q-125 0 -250 28t-215 73v161q221 -104 459 -104q74 0 136 13t113 40t80 75.5t29 113.5 q0 68 -45.5 114.5t-117.5 73t-159.5 49t-175.5 51t-160 69t-117.5 114.5t-45.5 176z" />
<glyph unicode="&#x15f;" horiz-adv-x="1110" d="M129 698q0 100 65 170t170.5 101.5t241.5 31.5q102 0 206 -17.5t169 -45.5v-158q-69 31 -172.5 49.5t-202.5 18.5q-54 0 -101.5 -7t-89.5 -21.5t-66.5 -42t-24.5 -64.5q0 -44 38 -72t99 -43t135 -27.5t148 -31t135 -47.5t99 -84.5t38 -133.5q0 -89 -47.5 -153t-125.5 -98 t-184 -46l-24 -83q90 -6 140 -48t50 -116t-65.5 -119t-181.5 -45q-85 0 -148 26v115q64 -29 137 -29q101 0 101 62q0 36 -29 48.5t-82 12.5h-86l59 170q-229 6 -391 90v162q191 -98 410 -98q122 0 197 33.5t75 107.5q0 46 -38 75.5t-99 45t-135 27.5t-148 30t-135 45.5 t-99 80.5t-38 128z" />
<glyph unicode="&#x160;" horiz-adv-x="1353" d="M164 1018q0 96 45 172.5t123.5 124.5t179.5 73t217 25q250 0 426 -78v-166q-187 86 -426 86q-68 0 -127 -12.5t-109 -38t-79 -70.5t-29 -106q0 -51 28 -89.5t75.5 -63t109 -44t129.5 -37.5t135.5 -38t129 -50.5t109 -71t75.5 -103.5t28 -144q0 -89 -31.5 -160 t-85.5 -118.5t-128 -79t-155 -45t-171 -13.5q-125 0 -250 28t-215 73v161q221 -104 459 -104q74 0 136 13t113 40t80 75.5t29 113.5q0 68 -45.5 114.5t-117.5 73t-159.5 49t-175.5 51t-160 69t-117.5 114.5t-45.5 176zM352 1833h166l164 -184l164 184h166l-238 -309h-184z " />
<glyph unicode="&#x161;" horiz-adv-x="1110" d="M129 698q0 100 65 170t170.5 101.5t241.5 31.5q103 0 206.5 -17.5t168.5 -45.5v-158q-69 31 -172.5 49.5t-202.5 18.5q-54 0 -101.5 -7t-89.5 -21.5t-66.5 -42t-24.5 -64.5q0 -44 38 -72t99 -43t135 -27.5t148 -31t135 -47.5t99 -84.5t38 -133.5q0 -104 -63.5 -173.5 t-165 -99.5t-234.5 -30q-236 0 -414 90v162q191 -98 410 -98q122 0 197 33.5t75 107.5q0 46 -38 75.5t-99 45t-135 27.5t-148 30t-135 45.5t-99 80.5t-38 128zM256 1454h166l164 -184l164 184h165l-237 -309h-184z" />
<glyph unicode="&#x162;" horiz-adv-x="1406" d="M45 1227v157h1317v-157h-551v-1227h-215v1227h-551zM500 -389q68 31 97.5 69t29.5 93q0 45 -25 102h178q21 -55 21 -102q0 -91 -63.5 -162t-178.5 -111z" />
<glyph unicode="&#x163;" horiz-adv-x="839" d="M51 825v148h164l29 309h168v-309h342v-148h-342v-542q0 -85 41 -121.5t118 -36.5q101 0 201 51v-160q-95 -45 -235 -45q-153 0 -237.5 78t-84.5 232v544h-164zM311 -389q68 31 97.5 69t29.5 93q0 47 -24 102h178q20 -53 20 -102q0 -92 -63 -162.5t-178 -110.5z" />
<glyph unicode="&#x164;" horiz-adv-x="1406" d="M45 1227v157h1317v-157h-551v-1227h-215v1227h-551zM373 1833h166l163 -184l164 184h166l-237 -309h-185z" />
<glyph unicode="&#x165;" horiz-adv-x="839" d="M51 825v148h164l29 309h168v-309h342v-148h-342v-542q0 -85 41 -121.5t118 -36.5q101 0 201 51v-160q-95 -45 -235 -45q-153 0 -237.5 78t-84.5 232v544h-164zM514 1147q115 73 115 207q0 59 -25 129h160q16 -57 16 -123q0 -196 -192 -305z" />
<glyph unicode="&#x16a;" horiz-adv-x="1679" d="M219 485v899h215v-895q0 -92 31 -162t87 -113t128.5 -64t161.5 -21q120 0 210 36.5t144.5 119t54.5 204.5v895h209v-899q0 -125 -48.5 -224t-133.5 -161.5t-196 -95.5t-240 -33t-241 33t-198 95.5t-135 161.5t-49 224zM535 1614v129h610v-129h-610z" />
<glyph unicode="&#x16b;" horiz-adv-x="1343" d="M184 356v617h199v-611q0 -119 66 -176t186 -57q176 0 305 129v715h199v-973h-168l-13 106q-160 -135 -360 -135q-188 0 -301 98.5t-113 286.5zM358 1235v129h611v-129h-611z" />
<glyph unicode="&#x16c;" horiz-adv-x="1679" d="M219 485v899h215v-895q0 -92 31 -162t87 -113t128.5 -64t161.5 -21q120 0 210 36.5t144.5 119t54.5 204.5v895h209v-899q0 -125 -48.5 -224t-133.5 -161.5t-196 -95.5t-240 -33t-241 33t-198 95.5t-135 161.5t-49 224zM496 1825h135q25 -162 209 -162t209 162h135 q-9 -134 -100 -214.5t-244 -80.5t-244 80.5t-100 214.5z" />
<glyph unicode="&#x16d;" horiz-adv-x="1343" d="M184 356v617h199v-611q0 -119 66 -176t186 -57q176 0 305 129v715h199v-973h-168l-13 106q-160 -135 -360 -135q-188 0 -301 98.5t-113 286.5zM315 1444h136q25 -162 208 -162q184 0 209 162h136q-9 -134 -100.5 -214.5t-244.5 -80.5t-244 80.5t-100 214.5z" />
<glyph unicode="&#x16e;" horiz-adv-x="1679" d="M219 485v899h215v-895q0 -92 31 -162t87 -113t128.5 -64t161.5 -21q120 0 210 36.5t144.5 119t54.5 204.5v895h209v-899q0 -125 -48.5 -224t-133.5 -161.5t-196 -95.5t-240 -33t-241 33t-198 95.5t-135 161.5t-49 224zM598 1675q0 86 74 135.5t182 49.5t182 -49.5 t74 -135.5t-74 -135t-182 -49t-182 49t-74 135zM725 1675q0 -45 34.5 -69.5t94.5 -24.5t94.5 24.5t34.5 69.5t-34.5 69.5t-94.5 24.5t-94.5 -24.5t-34.5 -69.5z" />
<glyph unicode="&#x16f;" horiz-adv-x="1343" d="M184 356v617h199v-611q0 -119 66 -176t186 -57q176 0 305 129v715h199v-973h-168l-13 106q-160 -135 -360 -135q-188 0 -301 98.5t-113 286.5zM403 1298q0 86 74 135.5t182 49.5t182 -49.5t74 -135.5t-74 -135t-182 -49t-182 49t-74 135zM530 1298q0 -45 34.5 -69.5 t94.5 -24.5t94.5 24.5t34.5 69.5t-35 70t-94 25t-94 -25t-35 -70z" />
<glyph unicode="&#x170;" horiz-adv-x="1679" d="M219 485v899h215v-895q0 -92 31 -162t87 -113t128.5 -64t161.5 -21q120 0 210 36.5t144.5 119t54.5 204.5v895h209v-899q0 -125 -48.5 -224t-133.5 -161.5t-196 -95.5t-240 -33t-241 33t-198 95.5t-135 161.5t-49 224zM614 1524l172 309h195l-219 -309h-148zM909 1524 l238 309h201l-285 -309h-154z" />
<glyph unicode="&#x171;" horiz-adv-x="1343" d="M184 356v617h199v-611q0 -119 66 -176t186 -57q176 0 305 129v715h199v-973h-168l-13 106q-160 -135 -360 -135q-188 0 -301 98.5t-113 286.5zM414 1145l172 309h194l-219 -309h-147zM709 1145l237 309h201l-285 -309h-153z" />
<glyph unicode="&#x172;" horiz-adv-x="1679" d="M219 485v899h215v-895q0 -92 31 -162t87 -113t128.5 -64t161.5 -21q120 0 210 36.5t144.5 119t54.5 204.5v895h209v-899q0 -112 -39 -203.5t-109 -153.5t-162.5 -100t-203.5 -51q-62 -47 -95.5 -93t-33.5 -101q0 -90 107 -90q74 0 137 37v-125q-68 -35 -168 -35 q-105 0 -167 51t-62 141q0 133 106 213q-117 9 -216 45t-174.5 98.5t-118 156.5t-42.5 210z" />
<glyph unicode="&#x173;" horiz-adv-x="1343" d="M184 356v617h199v-611q0 -119 66 -176t186 -57q176 0 305 129v715h199v-973q-77 -55 -119.5 -105.5t-42.5 -111.5q0 -43 29.5 -66.5t76.5 -23.5q75 0 138 37v-125q-68 -35 -168 -35q-105 0 -167.5 51t-62.5 141q0 76 38.5 137t109.5 101l-13 106q-160 -135 -360 -135 q-188 0 -301 98.5t-113 286.5z" />
<glyph unicode="&#x178;" horiz-adv-x="1402" d="M0 1384h236l475 -663l475 663h217l-598 -829v-555h-213v555zM399 1585v197h183v-197h-183zM819 1585v197h182v-197h-182z" />
<glyph unicode="&#x179;" horiz-adv-x="1458" d="M115 0v135l966 1092h-948v157h1206v-145l-958 -1081h981v-158h-1247zM647 1524l195 309h225l-260 -309h-160z" />
<glyph unicode="&#x17a;" horiz-adv-x="1112" d="M111 0v117l632 710h-620v146h878v-119l-630 -709h647v-145h-907zM479 1145l195 309h225l-260 -309h-160z" />
<glyph unicode="&#x17b;" horiz-adv-x="1458" d="M115 0v135l966 1092h-948v157h1206v-145l-958 -1081h981v-158h-1247zM623 1581v197h190v-197h-190z" />
<glyph unicode="&#x17c;" horiz-adv-x="1112" d="M111 0v117l632 710h-620v146h878v-119l-630 -709h647v-145h-907zM469 1206v197h190v-197h-190z" />
<glyph unicode="&#x17d;" horiz-adv-x="1458" d="M115 0v135l966 1092h-948v157h1206v-145l-958 -1081h981v-158h-1247zM379 1833h166l164 -184l163 184h166l-237 -309h-185z" />
<glyph unicode="&#x17e;" horiz-adv-x="1112" d="M111 0v117l632 710h-620v146h878v-119l-630 -709h647v-145h-907zM242 1454h166l163 -184l164 184h166l-237 -309h-185z" />
<glyph unicode="&#x218;" horiz-adv-x="1353" d="M164 1018q0 96 45 172.5t123.5 124.5t179.5 73t217 25q250 0 426 -78v-166q-187 86 -426 86q-68 0 -127 -12.5t-109 -38t-79 -70.5t-29 -106q0 -51 28 -89.5t75.5 -63t109 -44t129.5 -37.5t135.5 -38t129 -50.5t109 -71t75.5 -103.5t28 -144q0 -89 -31.5 -160 t-85.5 -118.5t-128 -79t-155 -45t-171 -13.5q-125 0 -250 28t-215 73v161q221 -104 459 -104q74 0 136 13t113 40t80 75.5t29 113.5q0 68 -45.5 114.5t-117.5 73t-159.5 49t-175.5 51t-160 69t-117.5 114.5t-45.5 176zM500 -389q68 31 97.5 69t29.5 93q0 45 -25 102h178 q21 -55 21 -102q0 -91 -63.5 -162t-178.5 -111z" />
<glyph unicode="&#x219;" horiz-adv-x="1110" d="M129 698q0 100 65 170t170.5 101.5t241.5 31.5q103 0 206.5 -17.5t168.5 -45.5v-158q-69 31 -172.5 49.5t-202.5 18.5q-54 0 -101.5 -7t-89.5 -21.5t-66.5 -42t-24.5 -64.5q0 -44 38 -72t99 -43t135 -27.5t148 -31t135 -47.5t99 -84.5t38 -133.5q0 -104 -63.5 -173.5 t-165 -99.5t-234.5 -30q-236 0 -414 90v162q191 -98 410 -98q122 0 197 33.5t75 107.5q0 46 -38 75.5t-99 45t-135 27.5t-148 30t-135 45.5t-99 80.5t-38 128zM383 -389q68 31 97.5 69t29.5 93q0 45 -25 102h179q20 -53 20 -102q0 -91 -63.5 -162t-178.5 -111z" />
<glyph unicode="&#x2c6;" horiz-adv-x="1228" d="M285 1145l237 309h185l237 -309h-166l-164 184l-163 -184h-166z" />
<glyph unicode="&#x2da;" horiz-adv-x="1228" d="M358 1298q0 86 74 135.5t182 49.5t182 -49.5t74 -135.5t-74 -135t-182 -49t-182 49t-74 135zM485 1298q0 -45 34.5 -69.5t94.5 -24.5t94.5 24.5t34.5 69.5t-35 70t-94 25t-94 -25t-35 -70z" />
<glyph unicode="&#x2dc;" horiz-adv-x="1228" d="M250 1174q0 72 19.5 127t67.5 90.5t122 35.5q58 0 117.5 -30t109 -60t82.5 -30q72 0 72 114h139q0 -53 -11.5 -97t-36 -79.5t-66 -55.5t-97.5 -20q-46 0 -92 19t-77 41.5t-69.5 41.5t-70.5 19q-70 0 -70 -116h-139z" />
<glyph unicode="&#x386;" horiz-adv-x="1492" d="M-8 0l655 1384h205l649 -1384h-231l-160 340h-750l-157 -340h-211zM154 1075l133 309h200l-198 -309h-135zM430 496h612l-305 661z" />
<glyph unicode="&#x388;" horiz-adv-x="1564" d="M0 1075l131 309h201l-199 -309h-133zM401 336v1048h975v-157h-760v-434h693v-158h-693v-299q0 -92 50 -135t159 -43h588v-158h-618q-206 0 -300 84.5t-94 251.5z" />
<glyph unicode="&#x389;" horiz-adv-x="2033" d="M0 1075l131 309h201l-199 -309h-133zM401 0v1384h215v-589h938v589h215v-1384h-215v637h-938v-637h-215z" />
<glyph unicode="&#x38a;" horiz-adv-x="880" d="M0 1075l131 309h201l-199 -309h-133zM401 0v1384h215v-1384h-215z" />
<glyph unicode="&#x38c;" horiz-adv-x="2002" d="M0 1075l131 309h201l-199 -309h-133zM178 692q0 217 105.5 381t297 252t441.5 88t441.5 -88t297 -252t105.5 -381t-105.5 -381t-297 -252t-441.5 -88t-441.5 88t-297 252t-105.5 381zM403 692q0 -258 165.5 -410.5t453.5 -152.5t453 152.5t165 410.5t-165 410.5 t-453 152.5t-453.5 -152.5t-165.5 -410.5z" />
<glyph unicode="&#x38e;" horiz-adv-x="1765" d="M0 1075l131 309h201l-199 -309h-133zM356 1384h236l475 -663l475 663h217l-598 -829v-555h-213v555z" />
<glyph unicode="&#x38f;" horiz-adv-x="2019" d="M0 1075l131 309h199l-197 -309h-133zM178 0v158h408q-389 206 -389 575q0 207 107.5 362.5t297 236.5t436.5 81t437 -81t297.5 -236.5t107.5 -362.5q0 -369 -389 -575h407v-158h-679v158q80 48 131.5 82.5t115.5 90t101.5 109.5t63.5 129t26 160q0 250 -164.5 388 t-454.5 138q-289 0 -453.5 -138t-164.5 -388q0 -85 26 -160t63.5 -129t101.5 -109.5t115.5 -90t131.5 -82.5v-158h-680z" />
<glyph unicode="&#x390;" horiz-adv-x="647" d="M-76 1206v197h182v-197h-182zM133 1145l150 309h184l-219 -309h-115zM193 250v723h196v-740q0 -108 100 -108q75 0 142 31v-158q-71 -27 -170 -27q-139 0 -203.5 71t-64.5 208zM483 1206v197h183v-197h-183z" />
<glyph unicode="&#x391;" horiz-adv-x="1492" d="M-8 0l655 1384h205l649 -1384h-231l-160 340h-750l-157 -340h-211zM430 496h612l-305 661z" />
<glyph unicode="&#x392;" horiz-adv-x="1499" d="M260 0v1384h467q298 0 451 -96t153 -266q0 -67 -25 -122t-67 -91.5t-90 -60.5t-102 -37q50 -8 95.5 -24.5t88 -43.5t73 -62t48.5 -84t18 -106q0 -185 -170 -288t-473 -103h-467zM475 158h250q199 0 309.5 57t110.5 176q0 113 -109.5 174.5t-310.5 61.5h-250v-469z M475 780h238q188 0 290.5 56.5t102.5 173.5q0 115 -95 166t-286 51h-250v-447z" />
<glyph unicode="&#x393;" horiz-adv-x="1265" d="M260 0v1384h961v-157h-746v-1227h-215z" />
<glyph unicode="&#x394;" horiz-adv-x="1458" d="M41 0v141l588 1243h205l583 -1241v-143h-1376zM260 160h916l-457 997z" />
<glyph unicode="&#x395;" horiz-adv-x="1400" d="M240 336v1048h974v-157h-759v-434h692v-158h-692v-299q0 -92 50 -135t159 -43h587v-158h-618q-206 0 -299.5 84.5t-93.5 251.5z" />
<glyph unicode="&#x396;" horiz-adv-x="1458" d="M115 0v135l966 1092h-948v157h1206v-145l-958 -1081h981v-158h-1247z" />
<glyph unicode="&#x397;" horiz-adv-x="1890" d="M260 0v1384h215v-589h938v589h215v-1384h-215v637h-938v-637h-215z" />
<glyph unicode="&#x398;" horiz-adv-x="1961" d="M137 692q0 217 105.5 381t297 252t441.5 88t441.5 -88t297 -252t105.5 -381t-105.5 -381t-297 -252t-441.5 -88t-441.5 88t-297 252t-105.5 381zM362 692q0 -258 165.5 -410.5t453.5 -152.5t453 152.5t165 410.5t-165 410.5t-453 152.5t-453.5 -152.5t-165.5 -410.5z M596 635v166h770v-166h-770z" />
<glyph unicode="&#x399;" horiz-adv-x="739" d="M260 0v1384h215v-1384h-215z" />
<glyph unicode="&#x39a;" horiz-adv-x="1499" d="M260 0v1384h215v-612l744 612h256l-797 -661l821 -723h-282l-742 645v-645h-215z" />
<glyph unicode="&#x39b;" horiz-adv-x="1511" d="M0 0l655 1384h205l649 -1384h-231l-533 1157l-534 -1157h-211z" />
<glyph unicode="&#x39c;" horiz-adv-x="2258" d="M260 0v1384h223l647 -929l646 929h223v-1384h-211v1081l-559 -813h-197l-561 813v-1081h-211z" />
<glyph unicode="&#x39d;" horiz-adv-x="1871" d="M260 0v1384h193l954 -1093v1093h205v-1384h-191l-954 1092v-1092h-207z" />
<glyph unicode="&#x39e;" horiz-adv-x="1492" d="M123 0v158h1247v-158h-1247zM143 1227v157h1207v-157h-1207zM229 625v159h1035v-159h-1035z" />
<glyph unicode="&#x39f;" horiz-adv-x="1961" d="M137 692q0 217 105.5 381t297 252t441.5 88t441.5 -88t297 -252t105.5 -381t-105.5 -381t-297 -252t-441.5 -88t-441.5 88t-297 252t-105.5 381zM362 692q0 -258 165.5 -410.5t453.5 -152.5t453 152.5t165 410.5t-165 410.5t-453 152.5t-453.5 -152.5t-165.5 -410.5z" />
<glyph unicode="&#x3a0;" horiz-adv-x="1822" d="M260 0v1384h1303v-1384h-215v1227h-873v-1227h-215z" />
<glyph unicode="&#x3a1;" horiz-adv-x="1513" d="M260 0v1384h504q296 0 460.5 -114t164.5 -320q0 -211 -164.5 -322.5t-460.5 -111.5h-289v-516h-215zM475 674h289q189 0 294 68t105 208t-105.5 208.5t-293.5 68.5h-289v-553z" />
<glyph unicode="&#x3a3;" horiz-adv-x="1392" d="M150 0v145l563 533l-563 559v147h1089v-157h-813l545 -539l-545 -530h823v-158h-1099z" />
<glyph unicode="&#x3a4;" horiz-adv-x="1406" d="M45 1227v157h1317v-157h-551v-1227h-215v1227h-551z" />
<glyph unicode="&#x3a5;" horiz-adv-x="1406" d="M0 1384h236l475 -663l475 663h217l-598 -829v-555h-213v555z" />
<glyph unicode="&#x3a6;" horiz-adv-x="1947" d="M131 692q0 265 200 427t533 179v156h217v-156q333 -17 533.5 -179t200.5 -427t-200.5 -427t-533.5 -181v-154h-217v156q-333 17 -533 179t-200 427zM356 692q0 -186 136 -307.5t372 -140.5v893q-235 -15 -371.5 -136.5t-136.5 -308.5zM1081 244q236 19 372 140.5 t136 307.5q0 187 -136.5 308.5t-371.5 136.5v-893z" />
<glyph unicode="&#x3a7;" horiz-adv-x="1482" d="M20 0l598 698l-579 686h252l454 -534l457 534h242l-582 -677l598 -707h-252l-471 557l-475 -557h-242z" />
<glyph unicode="&#x3a8;" horiz-adv-x="1849" d="M176 983v401h203v-401q0 -97 33.5 -172t94.5 -123t138.5 -75t171.5 -35v806h215v-806q94 8 171.5 35t138.5 75t94.5 123t33.5 172v401h203v-401q0 -136 -47 -242t-133.5 -176t-201.5 -110t-259 -52v-403h-215v401q-144 13 -259 54t-201.5 110.5t-133.5 175.5t-47 242z " />
<glyph unicode="&#x3a9;" horiz-adv-x="1961" d="M121 0v158h407q-389 206 -389 575q0 207 107.5 362.5t297.5 236.5t437 81t437 -81t297.5 -236.5t107.5 -362.5q0 -369 -389 -575h407v-158h-680v158q80 48 131.5 82.5t115.5 90t101.5 109.5t63.5 129t26 160q0 250 -164.5 388t-453.5 138q-290 0 -454.5 -138t-164.5 -388 q0 -61 13.5 -117t34.5 -101t56.5 -89t69 -76.5t83.5 -69t88 -61t94 -57.5v-158h-680z" />
<glyph unicode="&#x3aa;" horiz-adv-x="739" d="M72 1618v197h182v-197h-182zM260 0v1384h215v-1384h-215zM492 1618v197h182v-197h-182z" />
<glyph unicode="&#x3ab;" horiz-adv-x="1406" d="M0 1384h236l475 -663l475 663h217l-598 -829v-555h-213v555zM401 1599v197h183v-197h-183zM821 1599v197h183v-197h-183z" />
<glyph unicode="&#x3ac;" horiz-adv-x="1392" d="M117 477q0 231 136.5 377.5t367.5 146.5q137 0 238.5 -59.5t139.5 -163.5l9 195h182q-1 -23 -10.5 -177t-13 -215.5t-7.5 -171t-4 -186.5q0 -96 88 -96q46 0 64 6v-151q-45 -11 -95 -11q-98 0 -154 47t-71 154q-116 -201 -375 -201q-97 0 -184 30.5t-157.5 90.5t-112 159 t-41.5 226zM319 483q0 -173 95 -263.5t243 -90.5q129 0 216.5 94t87.5 252v31q0 157 -89 249.5t-225 92.5q-145 0 -236.5 -96t-91.5 -269zM561 1145l195 309h225l-260 -309h-160z" />
<glyph unicode="&#x3ad;" horiz-adv-x="1161" d="M123 264q0 57 24 103.5t61.5 74t78.5 43t80 17.5q-38 4 -73 17t-70 37t-56 67t-21 98q0 134 139 207t369 73q98 0 209.5 -16t179.5 -43v-164q-69 32 -175.5 51t-196.5 19q-146 0 -234 -34.5t-88 -104.5q0 -134 285 -134h213v-151h-209q-156 0 -234.5 -34.5t-78.5 -110.5 q0 -52 44.5 -87.5t114.5 -51t162 -15.5q102 0 215.5 21.5t186.5 54.5v-162q-70 -29 -194 -48.5t-222 -19.5q-246 0 -378 77.5t-132 215.5zM489 1145l195 309h225l-260 -309h-160z" />
<glyph unicode="&#x3ae;" horiz-adv-x="1382" d="M205 0v973h178l12 -88q167 116 373 116q122 0 216 -40.5t151 -126.5t57 -207v-1016h-197v1003q0 112 -76.5 169t-193.5 57q-177 0 -324 -105v-735h-196zM618 1145l195 309h225l-260 -309h-160z" />
<glyph unicode="&#x3af;" horiz-adv-x="665" d="M193 250v723h196v-740q0 -108 100 -108q75 0 142 31v-158q-71 -27 -170 -27q-139 0 -203.5 71t-64.5 208zM217 1145l195 309h225l-260 -309h-160z" />
<glyph unicode="&#x3b0;" horiz-adv-x="1298" d="M158 473v500h196v-508q0 -154 77.5 -247t227.5 -93q163 0 242.5 98.5t79.5 274.5q0 141 -64.5 267.5t-160.5 207.5h237q86 -81 137.5 -202t51.5 -271q0 -237 -138.5 -383t-381.5 -146q-108 0 -193 24.5t-143 68.5t-96 107.5t-55 138t-17 163.5zM272 1206v197h183v-197 h-183zM481 1145l150 309h184l-219 -309h-115zM831 1206v197h183v-197h-183z" />
<glyph unicode="&#x3b1;" horiz-adv-x="1392" d="M117 477q0 231 136.5 377.5t367.5 146.5q137 0 238.5 -59.5t139.5 -163.5l9 195h182q-1 -23 -10.5 -177t-13 -215.5t-7.5 -171t-4 -186.5q0 -96 88 -96q46 0 64 6v-151q-45 -11 -95 -11q-98 0 -154 47t-71 154q-116 -201 -375 -201q-97 0 -184 30.5t-157.5 90.5t-112 159 t-41.5 226zM319 483q0 -173 95 -263.5t243 -90.5q129 0 216.5 94t87.5 252v31q0 157 -89 249.5t-225 92.5q-145 0 -236.5 -96t-91.5 -269z" />
<glyph unicode="&#x3b2;" horiz-adv-x="1366" d="M205 -391v1423q0 114 40.5 202.5t110.5 141.5t158.5 80t190.5 27q101 0 188.5 -24t156 -71.5t107.5 -124.5t39 -176q0 -68 -18.5 -125t-46.5 -93.5t-67 -65t-73.5 -43.5t-72.5 -25q37 -3 78.5 -16.5t87 -42.5t81 -69t59 -102t23.5 -136q0 -83 -26.5 -150.5t-72 -113 t-107.5 -76.5t-130 -44.5t-143 -13.5q-108 0 -204 30.5t-161 76.5v-469h-198zM403 256q63 -51 152 -89t184 -38q133 0 216 66t83 190q0 129 -96.5 199.5t-263.5 70.5h-51v156h49q137 0 227 68t90 196q0 115 -80 181.5t-206 66.5q-133 0 -218.5 -75.5t-85.5 -215.5v-776z" />
<glyph unicode="&#x3b3;" horiz-adv-x="1161" d="M2 973h209l362 -780q272 429 318 780h199q-28 -217 -146 -465.5t-291 -491.5v-405h-198v407z" />
<glyph unicode="&#x3b4;" horiz-adv-x="1415" d="M113 473q0 90 32.5 167t90.5 134.5t130 99.5t160 72q-88 49 -134 109t-46 153q0 89 59.5 153t151 93t201.5 29q184 0 303 -58v-159q-131 67 -283 67q-114 0 -176.5 -34.5t-62.5 -102.5q0 -36 24 -67.5t69 -58t94 -48.5t114 -48q27 -10 41 -16q62 -25 108 -48t96.5 -54.5 t85.5 -68t64.5 -82.5t44 -104.5t14.5 -127.5q0 -232 -162.5 -367t-426.5 -135q-266 0 -429 135t-163 367zM315 461q0 -154 108.5 -245t281.5 -91q172 0 279.5 91t107.5 245q0 71 -21.5 128t-54 94t-83.5 68.5t-95.5 50.5t-104.5 42l-33 12q-78 -16 -145.5 -47.5t-122 -79 t-86 -116.5t-31.5 -152z" />
<glyph unicode="&#x3b5;" horiz-adv-x="1161" d="M123 264q0 57 24 103.5t61.5 74t78.5 43t80 17.5q-38 4 -73 17t-70 37t-56 67t-21 98q0 134 139 207t369 73q98 0 209.5 -16t179.5 -43v-164q-69 32 -175.5 51t-196.5 19q-146 0 -234 -34.5t-88 -104.5q0 -134 285 -134h213v-151h-209q-156 0 -234.5 -34.5t-78.5 -110.5 q0 -52 44.5 -87.5t114.5 -51t162 -15.5q102 0 215.5 21.5t186.5 54.5v-162q-70 -29 -194 -48.5t-222 -19.5q-246 0 -378 77.5t-132 215.5z" />
<glyph unicode="&#x3b6;" horiz-adv-x="985" d="M111 485q0 231 155 427.5t492 387.5h-531v154h789v-143q-363 -215 -533 -411t-170 -415q0 -142 79 -223t226 -117q104 -26 150 -34q115 -26 176.5 -69.5t61.5 -123.5q0 -162 -168 -326l-113 82q111 119 111 193q0 41 -26 61t-87 33q-61 12 -111 23l-49 12 q-109 27 -189 65.5t-141 95.5t-91.5 139t-30.5 189z" />
<glyph unicode="&#x3b7;" horiz-adv-x="1382" d="M205 0v973h178l12 -88q167 116 373 116q122 0 216 -40.5t151 -126.5t57 -207v-1016h-197v1003q0 112 -76.5 169t-193.5 57q-177 0 -324 -105v-735h-196z" />
<glyph unicode="&#x3b8;" horiz-adv-x="1400" d="M133 727q0 234 61.5 402t190 261t315.5 93q281 0 424.5 -200t143.5 -556q0 -357 -143.5 -556.5t-424.5 -199.5q-280 0 -423.5 199.5t-143.5 556.5zM340 647q0 -239 92 -380.5t268 -141.5t267.5 141.5t93.5 380.5h-721zM340 805h721q-2 239 -93.5 381.5t-267.5 142.5 t-268 -142.5t-92 -381.5z" />
<glyph unicode="&#x3b9;" horiz-adv-x="665" d="M193 250v723h196v-740q0 -108 100 -108q75 0 142 31v-158q-71 -27 -170 -27q-139 0 -203.5 71t-64.5 208z" />
<glyph unicode="&#x3ba;" horiz-adv-x="1204" d="M205 0v973h198v-410l537 410h250l-596 -457l606 -516h-252l-545 446v-446h-198z" />
<glyph unicode="&#x3bb;" horiz-adv-x="1120" d="M0 0l463 1001q-43 88 -74.5 139t-76.5 96t-101 66t-135 25l28 156q89 -2 162.5 -25.5t126 -59.5t100 -96t80 -117.5t70.5 -140.5l477 -1044h-205l-352 799l-354 -799h-209z" />
<glyph unicode="&#x3bc;" d="M205 -389v1362h198v-545q0 -141 63 -219t193 -78q85 0 165 36.5t137 92.5v713h198v-973h-164l-12 117q-55 -61 -143.5 -102.5t-186.5 -41.5q-177 0 -250 105v-467h-198z" />
<glyph unicode="&#x3bd;" horiz-adv-x="1167" d="M2 973h209l362 -791q123 194 208.5 401.5t109.5 389.5h199q-28 -221 -148.5 -478.5t-292.5 -494.5h-192z" />
<glyph unicode="&#x3be;" horiz-adv-x="1050" d="M109 406q0 68 23.5 126t59.5 96.5t84 68t93 45.5t90 24q-55 11 -105 37t-93 66t-69 100.5t-26 132.5q0 96 41 170.5t113 119.5t164.5 68t201.5 23q194 0 326 -58v-155q-134 67 -307 67q-154 0 -245 -62.5t-91 -187.5q0 -60 30 -107.5t81.5 -76.5t116 -44t136.5 -15h131 v-156h-139q-60 0 -116 -8.5t-110.5 -29t-94.5 -51t-64.5 -79t-24.5 -108.5q0 -42 11 -76.5t27.5 -59.5t46.5 -46.5t55.5 -34.5t68.5 -27t71.5 -21t78.5 -18q192 -43 267 -88t75 -139q0 -82 -47 -155t-129 -155l-113 82q111 119 111 195q0 17 -4.5 30.5t-17 23.5t-22.5 16.5 t-33.5 12.5t-37.5 9t-45.5 9.5t-48.5 9.5q-97 20 -171 42.5t-142 57.5t-112 79.5t-69.5 107t-25.5 139.5z" />
<glyph unicode="&#x3bf;" horiz-adv-x="1404" d="M117 485q0 234 163.5 375t426.5 141t426 -141t163 -375t-163 -374t-426 -140t-426.5 140t-163.5 374zM319 485q0 -169 106.5 -264.5t281.5 -95.5t281 95.5t106 264.5t-106 266t-281 97t-281.5 -97t-106.5 -266z" />
<glyph unicode="&#x3c0;" horiz-adv-x="1421" d="M51 811v162h1274v-162h-223v-571q0 -109 106 -109q62 0 133 33v-160q-76 -33 -178 -33q-131 0 -195.5 67.5t-64.5 192.5v580h-430v-811h-199v811h-223z" />
<glyph unicode="&#x3c1;" horiz-adv-x="1306" d="M147 -389v872q0 127 39.5 227t110 163t163 95.5t202.5 32.5q113 0 208 -31t167 -91.5t112.5 -159t40.5 -225.5t-43.5 -228t-120.5 -164.5t-178 -97t-219 -33.5q-149 0 -283 62v-422h-199zM346 193q127 -68 279 -68q75 0 138.5 21t114.5 64t80 115.5t29 168.5 q0 171 -87.5 262.5t-233.5 91.5q-145 0 -232.5 -96.5t-87.5 -268.5v-290z" />
<glyph unicode="&#x3c2;" horiz-adv-x="1142" d="M113 485q0 233 161.5 374.5t434.5 141.5q178 0 303 -51v-162q-132 60 -291 60q-188 0 -297 -92t-109 -271q0 -154 87.5 -234.5t279.5 -121.5q166 -36 237.5 -84t71.5 -143q0 -82 -47 -155t-129 -155l-113 82q111 119 111 195q0 55 -65 81q-31 12 -134 34 q-243 48 -372 167t-129 334z" />
<glyph unicode="&#x3c3;" horiz-adv-x="1464" d="M111 471q0 233 162 367.5t427 134.5h691v-164l-304 12q86 -39 144.5 -139t58.5 -211q0 -233 -162.5 -366.5t-427.5 -133.5t-427 133.5t-162 366.5zM313 471q0 -167 105 -256.5t282 -89.5t282 89.5t105 256.5q0 168 -105 258t-282 90t-282 -90t-105 -258z" />
<glyph unicode="&#x3c4;" horiz-adv-x="1087" d="M29 811v162h981v-162h-394v-578q0 -108 101 -108q74 0 141 31v-158q-70 -27 -170 -27q-139 0 -203.5 71t-64.5 208v561h-391z" />
<glyph unicode="&#x3c5;" horiz-adv-x="1298" d="M158 473v500h196v-508q0 -154 77.5 -247t227.5 -93q163 0 242.5 98.5t79.5 274.5q0 141 -64.5 267.5t-160.5 207.5h237q86 -81 137.5 -202t51.5 -271q0 -237 -138.5 -383t-381.5 -146q-108 0 -193 24.5t-143 68.5t-96 107.5t-55 138t-17 163.5z" />
<glyph unicode="&#x3c6;" horiz-adv-x="1736" d="M109 528q0 152 62 265t161 180h239q-115 -77 -187.5 -189t-72.5 -252q0 -170 116.5 -274t328.5 -121v385q0 129 32 223.5t91 149.5t133 80.5t166 25.5q194 0 317 -122.5t123 -348.5q0 -168 -85 -291.5t-233 -189t-346 -74.5v-366h-198v366q-109 6 -205.5 31.5 t-177.5 71.5t-139.5 109.5t-91.5 150.5t-33 190zM954 133q224 12 342.5 119.5t118.5 288.5q0 142 -64 222.5t-175 80.5q-114 0 -168 -80.5t-54 -241.5v-389z" />
<glyph unicode="&#x3c7;" horiz-adv-x="1069" d="M-61 -389l487 717l-436 645h223l319 -500l322 500h213l-432 -637l495 -725h-227l-377 579l-374 -579h-213z" />
<glyph unicode="&#x3c8;" horiz-adv-x="1789" d="M131 553q0 224 123 420h215q-131 -200 -131 -420q0 -182 113 -297t331 -125v1151h193v-1151q218 10 331 125t113 297q0 220 -131 420h215q123 -196 123 -420q0 -256 -175 -409.5t-476 -170.5v-362h-193v362q-301 17 -476 170.5t-175 409.5z" />
<glyph unicode="&#x3c9;" horiz-adv-x="1970" d="M115 461q0 303 209 512h235q-105 -100 -172.5 -233t-67.5 -275q0 -164 72 -252t203 -88q74 0 130.5 29t90.5 79t51 113.5t17 136.5v301h202v-301q0 -73 17 -136.5t51 -113.5t90.5 -79t130.5 -29q131 0 203 88t72 252q0 142 -67.5 275t-172.5 233h236q208 -208 208 -512 q0 -227 -119 -358.5t-345 -131.5q-149 0 -250.5 69t-155.5 181h2q-54 -112 -155 -181t-250 -69q-227 0 -346 131.5t-119 358.5z" />
<glyph unicode="&#x3ca;" horiz-adv-x="665" d="M-10 1206v197h182v-197h-182zM193 250v723h196v-740q0 -108 100 -108q75 0 142 31v-158q-71 -27 -170 -27q-139 0 -203.5 71t-64.5 208zM410 1206v197h182v-197h-182z" />
<glyph unicode="&#x3cb;" horiz-adv-x="1298" d="M158 473v500h196v-508q0 -154 77.5 -247t227.5 -93q163 0 242.5 98.5t79.5 274.5q0 141 -64.5 267.5t-160.5 207.5h237q86 -81 137.5 -202t51.5 -271q0 -237 -138.5 -383t-381.5 -146q-108 0 -193 24.5t-143 68.5t-96 107.5t-55 138t-17 163.5zM352 1206v197h183v-197 h-183zM772 1206v197h182v-197h-182z" />
<glyph unicode="&#x3cc;" horiz-adv-x="1415" d="M117 485q0 234 163.5 375t426.5 141t426 -141t163 -375t-163 -374t-426 -140t-426.5 140t-163.5 374zM319 485q0 -169 106.5 -264.5t281.5 -95.5t281 95.5t106 264.5t-106 266t-281 97t-281.5 -97t-106.5 -266zM616 1145l195 309h225l-260 -309h-160z" />
<glyph unicode="&#x3cd;" horiz-adv-x="1298" d="M158 473v500h196v-508q0 -154 77.5 -247t227.5 -93q163 0 242.5 98.5t79.5 274.5q0 141 -64.5 267.5t-160.5 207.5h237q86 -81 137.5 -202t51.5 -271q0 -237 -138.5 -383t-381.5 -146q-108 0 -193 24.5t-143 68.5t-96 107.5t-55 138t-17 163.5zM496 1145l194 309h225 l-260 -309h-159z" />
<glyph unicode="&#x3ce;" horiz-adv-x="1970" d="M115 461q0 303 209 512h235q-105 -100 -172.5 -233t-67.5 -275q0 -164 72 -252t203 -88q74 0 130.5 29t90.5 79t51 113.5t17 136.5v301h202v-301q0 -73 17 -136.5t51 -113.5t90.5 -79t130.5 -29q131 0 203 88t72 252q0 142 -67.5 275t-172.5 233h236q208 -208 208 -512 q0 -227 -119 -358.5t-345 -131.5q-149 0 -250.5 69t-155.5 181h2q-54 -112 -155 -181t-250 -69q-227 0 -346 131.5t-119 358.5zM901 1145l195 309h225l-260 -309h-160z" />
<glyph unicode="&#x3d0;" horiz-adv-x="1357" d="M143 715q0 161 32.5 291t88.5 217.5t133.5 146t165.5 85t187 26.5q127 0 228 -40.5t164.5 -129t63.5 -213.5q0 -78 -26 -142.5t-70.5 -107t-93 -69.5t-103.5 -42q46 -8 89 -23.5t89.5 -45t81 -68t56.5 -97t22 -128.5q0 -129 -68 -222t-177.5 -136.5t-245.5 -43.5 q-94 0 -178 20.5t-166 73.5t-141 134.5t-95.5 213.5t-36.5 300zM352 776q78 0 141.5 3t132.5 11.5t122 22.5t102 37.5t81 55t51 77t19 102.5q0 113 -69.5 174.5t-198.5 61.5q-55 0 -106 -16t-101.5 -56t-88 -100t-61 -156t-24.5 -217zM354 625q3 -121 32 -213.5t69.5 -145.5 t95.5 -86t102.5 -44t98.5 -11q131 0 211.5 65.5t80.5 188.5q0 120 -88.5 188.5t-236.5 79.5q-160 -22 -365 -22z" />
<glyph unicode="&#x3d1;" horiz-adv-x="1357" d="M141 1024q0 199 144.5 329t367.5 130q60 0 114.5 -9.5t111.5 -33.5t104.5 -61t90 -96.5t72.5 -136t47 -183t17 -234.5q0 -197 -45 -346.5t-124 -237.5t-179 -131t-219 -43q-217 0 -351 118t-134 321q0 54 8 98h192q-6 -29 -6 -98q0 -132 76 -208.5t221 -76.5 q48 0 92.5 12t93 47.5t83.5 91t58 151t23 220.5q-118 -51 -317 -51q-85 0 -160.5 13t-146.5 44t-122 79t-81.5 122.5t-30.5 169.5zM348 1030q0 -276 354 -276q184 0 302 53q-12 514 -351 514q-132 0 -218.5 -82.5t-86.5 -208.5z" />
<glyph unicode="&#x400;" horiz-adv-x="1400" d="M240 336v1048h974v-157h-759v-434h692v-158h-692v-299q0 -92 50 -135t159 -43h587v-158h-618q-206 0 -299.5 84.5t-93.5 251.5zM428 1833h225l195 -309h-160z" />
<glyph unicode="&#x401;" horiz-adv-x="1400" d="M240 336v1048h974v-157h-759v-434h692v-158h-692v-299q0 -92 50 -135t159 -43h587v-158h-618q-206 0 -299.5 84.5t-93.5 251.5zM412 1602v196h182v-196h-182zM831 1602v196h183v-196h-183z" />
<glyph unicode="&#x402;" horiz-adv-x="1781" d="M45 1227v157h1317v-157h-551v-371q71 54 171.5 90.5t207.5 36.5q210 0 332.5 -141t122.5 -400q0 -150 -39.5 -272.5t-102 -199.5t-144.5 -129.5t-160.5 -75t-156.5 -25.5v162q56 5 107 24t101.5 59t87 98t59 147t22.5 200q0 381 -284 381q-83 0 -172 -33.5t-152 -85.5 v-692h-215v1227h-551z" />
<glyph unicode="&#x403;" horiz-adv-x="1265" d="M260 0v1384h961v-157h-746v-1227h-215zM639 1524l195 309h225l-260 -309h-160z" />
<glyph unicode="&#x404;" horiz-adv-x="1536" d="M137 692q0 324 224 522.5t604 198.5q252 0 415 -72v-161q-170 75 -405 75q-255 0 -415 -123t-191 -341h827v-160h-831q20 -234 184 -368t428 -134q233 0 420 88v-164q-192 -82 -428 -82q-252 0 -441.5 91t-290 254t-100.5 376z" />
<glyph unicode="&#x405;" horiz-adv-x="1363" d="M164 1018q0 96 45 172.5t123.5 124.5t179.5 73t217 25q250 0 426 -78v-166q-187 86 -426 86q-68 0 -127 -12.5t-109 -38t-79 -70.5t-29 -106q0 -51 28 -89.5t75.5 -63t109 -44t129.5 -37.5t135.5 -38t129 -50.5t109 -71t75.5 -103.5t28 -144q0 -89 -31.5 -160 t-85.5 -118.5t-128 -79t-155 -45t-171 -13.5q-125 0 -250 28t-215 73v161q221 -104 459 -104q74 0 136 13t113 40t80 75.5t29 113.5q0 68 -45.5 114.5t-117.5 73t-159.5 49t-175.5 51t-160 69t-117.5 114.5t-45.5 176z" />
<glyph unicode="&#x406;" horiz-adv-x="739" d="M260 0v1384h215v-1384h-215z" />
<glyph unicode="&#x407;" horiz-adv-x="739" d="M72 1618v197h182v-197h-182zM260 0v1384h215v-1384h-215zM492 1618v197h182v-197h-182z" />
<glyph unicode="&#x408;" horiz-adv-x="937" d="M47 12v162q111 -49 227 -49q114 0 162.5 53t48.5 172v1034h213v-1030q0 -192 -104.5 -287.5t-298.5 -95.5q-136 0 -248 41z" />
<glyph unicode="&#x409;" horiz-adv-x="2385" d="M49 -29v170q63 19 105.5 51t70.5 77.5t43 118.5t21 160.5t6 217.5v618h1094v-516h288q296 0 460.5 -111.5t164.5 -322.5q0 -206 -164.5 -320t-460.5 -114h-503v1227h-664v-463q0 -108 -2 -172t-11 -153t-27 -142t-51.5 -115.5t-82 -99.5t-121 -67.5t-166.5 -43.5z M1389 158h288q189 0 294.5 68t105.5 208t-105.5 208.5t-294.5 68.5h-288v-553z" />
<glyph unicode="&#x40a;" horiz-adv-x="2416" d="M260 0v1384h215v-516h729v516h215v-516h289q296 0 460.5 -111.5t164.5 -322.5q0 -206 -164.5 -320t-460.5 -114h-504v711h-729v-711h-215zM1419 158h289q189 0 294 68t105 208t-105.5 208.5t-293.5 68.5h-289v-553z" />
<glyph unicode="&#x40b;" horiz-adv-x="1828" d="M45 1227v157h1317v-157h-551v-342q165 116 387 116q201 0 314.5 -101t113.5 -308v-592h-215v594q0 124 -65 183t-197 59q-84 0 -176 -33.5t-162 -87.5v-715h-215v1227h-551z" />
<glyph unicode="&#x40c;" horiz-adv-x="1503" d="M260 0v1384h217v-700l754 700h252l-629 -579l641 -805h-254l-543 672l-221 -197v-475h-217zM729 1524l195 309h225l-260 -309h-160z" />
<glyph unicode="&#x40d;" horiz-adv-x="1873" d="M260 0v1384h213v-1081l944 1081h197v-1384h-211v1085l-944 -1085h-199zM797 1524l194 309h226l-261 -309h-159z" />
<glyph unicode="&#x40e;" horiz-adv-x="1372" d="M33 1384h231l467 -784l453 784h225l-623 -1073q-51 -89 -94.5 -145.5t-102 -104t-131 -69t-167.5 -21.5q-89 0 -172 25v160q83 -27 168 -27q91 0 151 38t107 114l84 135zM377 1827h135q25 -162 209 -162t209 162h135q-9 -134 -100 -214.5t-244 -80.5t-244 80.5 t-100 214.5z" />
<glyph unicode="&#x40f;" horiz-adv-x="1759" d="M260 0v1384h217v-1226h807v1226h215v-1384h-512l-12 -287h-191l-12 287h-512z" />
<glyph unicode="&#x410;" horiz-adv-x="1492" d="M-8 0l655 1384h205l649 -1384h-231l-160 340h-750l-157 -340h-211zM430 496h612l-305 661z" />
<glyph unicode="&#x411;" horiz-adv-x="1474" d="M260 0v1384h961v-157h-746v-359h289q296 0 460.5 -111.5t164.5 -322.5q0 -206 -164.5 -320t-460.5 -114h-504zM475 158h289q189 0 294 68t105 208t-105.5 208.5t-293.5 68.5h-289v-553z" />
<glyph unicode="&#x412;" horiz-adv-x="1499" d="M260 0v1384h467q298 0 451 -96t153 -266q0 -67 -25 -122t-67 -91.5t-90 -60.5t-102 -37q50 -8 95.5 -24.5t88 -43.5t73 -62t48.5 -84t18 -106q0 -185 -170 -288t-473 -103h-467zM475 158h250q199 0 309.5 57t110.5 176q0 113 -109.5 174.5t-310.5 61.5h-250v-469z M475 780h238q188 0 290.5 56.5t102.5 173.5q0 115 -95 166t-286 51h-250v-447z" />
<glyph unicode="&#x413;" horiz-adv-x="1265" d="M260 0v1384h961v-157h-746v-1227h-215z" />
<glyph unicode="&#x414;" horiz-adv-x="1572" d="M25 158h71q70 88 114.5 186.5t63.5 210t24 194.5t5 205v430h1008v-1226h94v-443h-180l-11 285h-997l-10 -285h-182v443zM322 158h772v1069h-588v-273q0 -99 -2 -161.5t-12 -157.5t-28.5 -166.5t-54.5 -155t-87 -155.5z" />
<glyph unicode="&#x415;" horiz-adv-x="1400" d="M240 336v1048h974v-157h-759v-434h692v-158h-692v-299q0 -92 50 -135t159 -43h587v-158h-618q-206 0 -299.5 84.5t-93.5 251.5z" />
<glyph unicode="&#x416;" horiz-adv-x="2269" d="M8 0l641 805l-629 579h252l754 -700v700h217v-700l754 700h252l-629 -579l641 -805h-254l-543 672l-221 -197v-475h-217v475l-221 197l-543 -672h-254z" />
<glyph unicode="&#x417;" horiz-adv-x="1275" d="M123 51v170q207 -92 420 -92q176 0 280.5 61.5t104.5 186.5q0 116 -96 177.5t-285 61.5h-199v164h201q360 0 360 252q0 223 -346 223q-227 0 -413 -110v172q178 96 428 96q161 0 284 -40.5t197 -128t74 -212.5q0 -124 -88 -209.5t-216 -117.5q146 -30 235 -112.5 t89 -217.5q0 -128 -77 -220.5t-209.5 -138t-307.5 -45.5q-253 0 -436 80z" />
<glyph unicode="&#x418;" horiz-adv-x="1873" d="M260 0v1384h213v-1081l944 1081h197v-1384h-211v1085l-944 -1085h-199z" />
<glyph unicode="&#x419;" horiz-adv-x="1873" d="M260 0v1384h213v-1081l944 1081h197v-1384h-211v1085l-944 -1085h-199zM592 1825h135q25 -162 209 -162t209 162h135q-9 -134 -100 -214.5t-244 -80.5t-244 80.5t-100 214.5z" />
<glyph unicode="&#x41a;" horiz-adv-x="1503" d="M260 0v1384h217v-700l754 700h252l-629 -579l641 -805h-254l-543 672l-221 -197v-475h-217z" />
<glyph unicode="&#x41b;" horiz-adv-x="1689" d="M49 -29v170q63 19 105.5 51t70.5 77.5t43 118.5t21 160.5t6 217.5v618h1135v-1384h-216v1227h-704v-463q0 -108 -2 -172t-11 -153t-27 -142t-51.5 -115.5t-82 -99.5t-121 -67.5t-166.5 -43.5z" />
<glyph unicode="&#x41c;" horiz-adv-x="2260" d="M260 0v1384h223l647 -929l646 929h223v-1384h-211v1081l-559 -813h-197l-561 813v-1081h-211z" />
<glyph unicode="&#x41d;" horiz-adv-x="1890" d="M260 0v1384h215v-589h938v589h215v-1384h-215v637h-938v-637h-215z" />
<glyph unicode="&#x41e;" horiz-adv-x="1961" d="M137 692q0 217 105.5 381t297 252t441.5 88t441.5 -88t297 -252t105.5 -381t-105.5 -381t-297 -252t-441.5 -88t-441.5 88t-297 252t-105.5 381zM362 692q0 -258 165.5 -410.5t453.5 -152.5t453 152.5t165 410.5t-165 410.5t-453 152.5t-453.5 -152.5t-165.5 -410.5z" />
<glyph unicode="&#x41f;" horiz-adv-x="1822" d="M260 0v1384h1303v-1384h-215v1227h-873v-1227h-215z" />
<glyph unicode="&#x420;" horiz-adv-x="1513" d="M260 0v1384h504q296 0 460.5 -114t164.5 -320q0 -211 -164.5 -322.5t-460.5 -111.5h-289v-516h-215zM475 674h289q189 0 294 68t105 208t-105.5 208.5t-293.5 68.5h-289v-553z" />
<glyph unicode="&#x421;" horiz-adv-x="1531" d="M137 692q0 324 224 522.5t604 198.5q252 0 415 -72v-161q-170 75 -405 75q-282 0 -447.5 -151t-165.5 -412t166 -412t449 -151q233 0 420 88v-164q-192 -82 -428 -82q-252 0 -441.5 91t-290 254t-100.5 376z" />
<glyph unicode="&#x422;" horiz-adv-x="1406" d="M45 1227v157h1317v-157h-551v-1227h-215v1227h-551z" />
<glyph unicode="&#x423;" horiz-adv-x="1372" d="M33 1384h231l467 -784l453 784h225l-623 -1073q-51 -89 -94.5 -145.5t-102 -104t-131 -69t-167.5 -21.5q-89 0 -172 25v160q83 -27 168 -27q91 0 151 38t107 114l84 135z" />
<glyph unicode="&#x424;" horiz-adv-x="1947" d="M131 692q0 265 200 427t533 179v156h217v-156q333 -17 533.5 -179t200.5 -427t-200.5 -427t-533.5 -181v-154h-217v156q-333 17 -533 179t-200 427zM356 692q0 -186 136 -307.5t372 -140.5v893q-235 -15 -371.5 -136.5t-136.5 -308.5zM1081 244q236 19 372 140.5 t136 307.5q0 187 -136.5 308.5t-371.5 136.5v-893z" />
<glyph unicode="&#x425;" horiz-adv-x="1482" d="M20 0l598 698l-579 686h252l454 -534l457 534h242l-582 -677l598 -707h-252l-471 557l-475 -557h-242z" />
<glyph unicode="&#x426;" horiz-adv-x="1763" d="M260 0v1384h215v-1226h811v1226h215v-1226h105v-445h-183l-8 287h-1155z" />
<glyph unicode="&#x427;" horiz-adv-x="1640" d="M160 932v452h215v-452q0 -180 89.5 -262t270.5 -82q130 0 243 47.5t187 112.5v636h215v-1384h-215v565q-81 -60 -203.5 -101.5t-248.5 -41.5q-259 0 -406 128.5t-147 381.5z" />
<glyph unicode="&#x428;" horiz-adv-x="2412" d="M260 0v1384h215v-1226h623v1226h217v-1226h622v1226h215v-1384h-1892z" />
<glyph unicode="&#x429;" horiz-adv-x="2414" d="M260 0v1384h215v-1226h623v1226h217v-1226h622v1226h215v-1226h105v-443h-182l-11 285h-1804z" />
<glyph unicode="&#x42a;" horiz-adv-x="1640" d="M45 1227v157h598v-516h289q296 0 460 -111.5t164 -322.5q0 -207 -164.5 -320.5t-459.5 -113.5h-504v1227h-383zM643 158h289q189 0 294 68t105 208t-105.5 208.5t-293.5 68.5h-289v-553z" />
<glyph unicode="&#x42b;" horiz-adv-x="2211" d="M260 0v1384h215v-516h289q296 0 460.5 -111.5t164.5 -322.5q0 -206 -164.5 -320t-460.5 -114h-504zM475 158h289q189 0 294 68t105 208t-105.5 208.5t-293.5 68.5h-289v-553zM1737 0v1384h215v-1384h-215z" />
<glyph unicode="&#x42c;" horiz-adv-x="1472" d="M260 0v1384h215v-516h289q296 0 460.5 -111.5t164.5 -322.5q0 -206 -164.5 -320t-460.5 -114h-504zM475 158h289q189 0 294 68t105 208t-105.5 208.5t-293.5 68.5h-289v-553z" />
<glyph unicode="&#x42d;" horiz-adv-x="1536" d="M137 53v164q187 -88 420 -88q264 0 428 134t184 368h-831v160h827q-31 218 -191 341t-415 123q-235 0 -405 -75v161q163 72 415 72q380 0 604 -198.5t224 -522.5q0 -213 -100.5 -376t-290 -254t-441.5 -91q-236 0 -428 82z" />
<glyph unicode="&#x42e;" horiz-adv-x="2623" d="M260 0v1384h215v-589h330q37 285 262.5 451.5t574.5 166.5q250 0 441.5 -88t297 -252t105.5 -381t-105.5 -381t-297 -252t-441.5 -88q-364 0 -592.5 180t-248.5 486h-326v-637h-215zM1024 692q0 -258 165 -410.5t453 -152.5t453.5 152.5t165.5 410.5t-165.5 410.5 t-453.5 152.5t-453 -152.5t-165 -410.5z" />
<glyph unicode="&#x42f;" horiz-adv-x="1533" d="M92 0l469 547q-200 31 -308 134t-108 269q0 206 164.5 320t460.5 114h504v-1384h-215v516h-281l-438 -516h-248zM371 950q0 -140 105 -208t294 -68h289v553h-289q-188 0 -293.5 -68.5t-105.5 -208.5z" />
<glyph unicode="&#x430;" horiz-adv-x="1349" d="M117 479q0 128 47.5 229t131 164.5t192.5 96t237 32.5q111 0 234 -23t196 -54v-924h-166l-14 106q-75 -65 -161 -100t-200 -35q-80 0 -153 19.5t-136 61t-109 100.5t-72.5 143t-26.5 184zM319 487q0 -180 90 -271t238 -91q89 0 170 33.5t141 95.5v559q-110 35 -231 35 q-66 0 -124.5 -12t-111 -39.5t-90.5 -68.5t-60 -102.5t-22 -138.5z" />
<glyph unicode="&#x431;" horiz-adv-x="1415" d="M115 592q0 424 191 617q125 126 372 187q90 22 360 66q88 14 148 25v-172q-51 -8 -125.5 -17.5t-125 -16t-117.5 -18t-113.5 -23.5t-102 -32.5t-94 -45.5t-78.5 -62.5t-66.5 -83t-47 -106.5t-29.5 -134q33 72 110 124.5t165.5 76.5t176.5 24q249 0 403 -143.5t154 -372.5 q0 -234 -163 -374t-426 -140q-287 0 -439.5 163t-152.5 458zM319 485q0 -169 106.5 -264.5t281.5 -95.5t281 95.5t106 264.5t-106 266t-281 97t-281.5 -97t-106.5 -266z" />
<glyph unicode="&#x432;" horiz-adv-x="1333" d="M205 0v973h495q474 0 474 -271q0 -157 -203 -204q96 -13 158.5 -70t62.5 -152q0 -276 -492 -276h-495zM401 147h304q147 0 215.5 34t68.5 106q0 73 -68 106t-216 33h-304v-279zM401 569h295q147 0 210 29t63 100q0 70 -63 98.5t-210 28.5h-295v-256z" />
<glyph unicode="&#x433;" horiz-adv-x="976" d="M205 0v973h717v-162h-521v-811h-196z" />
<glyph unicode="&#x434;" horiz-adv-x="1267" d="M18 158h64q88 99 119.5 219.5t31.5 322.5v273h830v-815h125v-445h-158l-12 287h-832l-12 -287h-156v445zM281 158h585v653h-448v-106q0 -219 -27 -344t-110 -203z" />
<glyph unicode="&#x435;" horiz-adv-x="1302" d="M117 487q0 233 152 373.5t399 140.5q132 0 235 -39t164.5 -105.5t93 -146.5t31.5 -169v-115h-868q9 -81 46 -140.5t95.5 -94t128 -50.5t151.5 -16q221 0 412 88v-158q-87 -39 -201 -61.5t-225 -22.5q-100 0 -188.5 17.5t-167.5 57t-135.5 98.5t-89.5 146.5t-33 196.5z M326 573h663q-2 122 -89 198.5t-234 76.5q-299 0 -340 -275z" />
<glyph unicode="&#x436;" horiz-adv-x="1800" d="M0 0l475 555l-459 418h244l541 -498v498h196v-498l541 498h244l-459 -418l475 -555h-237l-377 438l-187 -174v-264h-196v264l-187 174l-376 -438h-238z" />
<glyph unicode="&#x437;" horiz-adv-x="1187" d="M143 39v162q73 -33 186.5 -54.5t215.5 -21.5q92 0 162 15.5t114.5 51t44.5 87.5q0 76 -78.5 110.5t-234.5 34.5h-209v151h213q285 0 285 134q0 70 -88 104.5t-234 34.5q-90 0 -197 -19t-176 -51v164q68 27 180 43t210 16q229 0 368 -73t139 -207q0 -55 -21 -98t-55.5 -67 t-69.5 -37t-73 -17q39 -2 80 -17.5t78.5 -43t61.5 -74t24 -103.5q0 -138 -132 -215.5t-378 -77.5q-98 0 -222 19.5t-194 48.5z" />
<glyph unicode="&#x438;" horiz-adv-x="1415" d="M205 0v973h196v-731l611 731h198v-973h-196v727l-613 -727h-196z" />
<glyph unicode="&#x439;" horiz-adv-x="1415" d="M205 0v973h196v-731l611 731h198v-973h-196v727l-613 -727h-196zM362 1444h136q25 -162 209 -162q183 0 208 162h136q-9 -134 -100 -214.5t-244 -80.5t-244.5 80.5t-100.5 214.5z" />
<glyph unicode="&#x43a;" horiz-adv-x="1206" d="M205 0v973h196v-498l541 498h244l-459 -418l475 -555h-237l-377 438l-187 -174v-264h-196z" />
<glyph unicode="&#x43b;" horiz-adv-x="1308" d="M0 -29v154q64 15 106 42t68.5 63.5t40.5 98.5t18.5 130t4.5 176v338h866v-973h-199v811h-479v-178q0 -102 -7 -180.5t-24 -153.5t-48 -129t-77.5 -97t-114 -68t-155.5 -34z" />
<glyph unicode="&#x43c;" horiz-adv-x="1773" d="M205 0v973h219l463 -658l463 658h219v-973h-197v713l-385 -549h-199l-387 549v-713h-196z" />
<glyph unicode="&#x43d;" horiz-adv-x="1404" d="M205 0v973h196v-371h603v371h196v-973h-196v440h-603v-440h-196z" />
<glyph unicode="&#x43e;" horiz-adv-x="1413" d="M117 485q0 234 163.5 375t426.5 141t426 -141t163 -375t-163 -374t-426 -140t-426.5 140t-163.5 374zM319 485q0 -169 106.5 -264.5t281.5 -95.5t281 95.5t106 264.5t-106 266t-281 97t-281.5 -97t-106.5 -266z" />
<glyph unicode="&#x43f;" horiz-adv-x="1396" d="M205 0v973h987v-973h-199v811h-592v-811h-196z" />
<glyph unicode="&#x440;" d="M205 -389v1362h178l12 -88q150 116 353 116q98 0 185.5 -31t157.5 -91.5t111 -160t41 -226.5q0 -126 -44.5 -226t-122 -164t-179 -97.5t-219.5 -33.5q-168 0 -277 47v-407h-196zM401 176q116 -51 261 -51q79 0 146 22t119.5 65t82.5 115t30 165q0 177 -92 266.5 t-239 89.5q-84 0 -169 -32.5t-139 -74.5v-565z" />
<glyph unicode="&#x441;" horiz-adv-x="1165" d="M117 487q0 233 161 373.5t435 140.5q178 0 303 -51v-162q-132 60 -291 60q-188 0 -297 -91t-109 -270t109.5 -270.5t294.5 -91.5q160 0 309 78v-164q-143 -68 -334 -68q-265 0 -423 143.5t-158 372.5z" />
<glyph unicode="&#x442;" horiz-adv-x="1040" d="M31 811v162h979v-162h-389v-811h-197v811h-393z" />
<glyph unicode="&#x443;" horiz-adv-x="1130" d="M6 973h209l348 -776l359 776h202l-469 -987q-92 -194 -209.5 -288.5t-320.5 -115.5v158q126 21 204 85.5t136 188.5z" />
<glyph unicode="&#x444;" horiz-adv-x="1687" d="M117 485q0 231 171 366t460 150v383h192v-383q289 -15 460 -150t171 -366q0 -233 -170.5 -366.5t-460.5 -147.5v-362h-192v362q-290 14 -460.5 147.5t-170.5 366.5zM322 485q0 -156 115.5 -249.5t310.5 -108.5v717q-195 -15 -310.5 -109.5t-115.5 -249.5zM940 127 q195 15 310.5 108.5t115.5 249.5q0 155 -115.5 249.5t-310.5 109.5v-717z" />
<glyph unicode="&#x445;" horiz-adv-x="1114" d="M18 0l420 489l-409 484h237l295 -355l303 355h219l-409 -481l420 -492h-238l-307 360l-307 -360h-224z" />
<glyph unicode="&#x446;" horiz-adv-x="1329" d="M205 0v973h196v-815h527v815h196v-815h125v-445h-155l-13 287h-876z" />
<glyph unicode="&#x447;" horiz-adv-x="1282" d="M123 651v322h199v-316q0 -233 251 -233q177 0 306 129v420h198v-973h-198v385q-154 -119 -342 -119t-301 98.5t-113 286.5z" />
<glyph unicode="&#x448;" horiz-adv-x="1867" d="M205 0v973h196v-815h433v815h196v-815h436v815h197v-973h-1458z" />
<glyph unicode="&#x449;" horiz-adv-x="1867" d="M205 0v973h196v-815h433v815h196v-815h436v815h197v-815h125v-445h-156l-14 287h-1413z" />
<glyph unicode="&#x44a;" horiz-adv-x="1310" d="M12 811v162h469v-328h264q504 0 504 -323q0 -322 -504 -322h-460v811h-273zM481 158h271q295 0 295 164q0 163 -295 163h-271v-327z" />
<glyph unicode="&#x44b;" horiz-adv-x="1783" d="M205 0v973h196v-328h265q503 0 503 -323q0 -168 -129 -245t-374 -77h-461zM401 158h271q295 0 295 164q0 163 -295 163h-271v-327zM1382 0v973h197v-973h-197z" />
<glyph unicode="&#x44c;" horiz-adv-x="1230" d="M205 0v973h196v-328h265q503 0 503 -323q0 -168 -129 -245t-374 -77h-461zM401 158h271q295 0 295 164q0 163 -295 163h-271v-327z" />
<glyph unicode="&#x44d;" horiz-adv-x="1163" d="M131 39v164q149 -78 309 -78q169 0 275.5 76t124.5 225h-549v141h547q-24 139 -129.5 210t-270.5 71q-159 0 -291 -60v162q125 51 304 51q274 0 435 -140.5t161 -373.5q0 -229 -158.5 -372.5t-423.5 -143.5q-191 0 -334 68z" />
<glyph unicode="&#x44e;" horiz-adv-x="1992" d="M205 0v973h196v-371h308q38 184 193.5 291.5t383.5 107.5q263 0 426.5 -141t163.5 -375t-163.5 -374t-426.5 -140q-250 0 -410.5 126.5t-177.5 342.5h-297v-440h-196zM899 485q0 -169 106 -264.5t281 -95.5t281 95.5t106 264.5t-106 266t-281 97t-281 -97t-106 -266z" />
<glyph unicode="&#x44f;" horiz-adv-x="1339" d="M115 0l352 367q-336 48 -336 297q0 144 133.5 226.5t364.5 82.5h506v-973h-199v350h-250l-330 -350h-241zM330 662q0 -80 75.5 -123t221.5 -43h309v331h-309q-297 0 -297 -165z" />
<glyph unicode="&#x450;" horiz-adv-x="1302" d="M117 487q0 233 152 373.5t399 140.5q132 0 235 -39t164.5 -105.5t93 -146.5t31.5 -169v-115h-868q9 -81 46 -140.5t95.5 -94t128 -50.5t151.5 -16q221 0 412 88v-158q-87 -39 -201 -61.5t-225 -22.5q-100 0 -188.5 17.5t-167.5 57t-135.5 98.5t-89.5 146.5t-33 196.5z M326 573h663q-2 122 -89 198.5t-234 76.5q-299 0 -340 -275zM338 1454h225l195 -309h-160z" />
<glyph unicode="&#x451;" horiz-adv-x="1302" d="M117 487q0 233 152 373.5t399 140.5q132 0 235 -39t164.5 -105.5t93 -146.5t31.5 -169v-115h-868q9 -81 46 -140.5t95.5 -94t128 -50.5t151.5 -16q221 0 412 88v-158q-87 -39 -201 -61.5t-225 -22.5q-100 0 -188.5 17.5t-167.5 57t-135.5 98.5t-89.5 146.5t-33 196.5z M326 573h663q-2 122 -89 198.5t-234 76.5q-299 0 -340 -275zM356 1206v197h183v-197h-183zM776 1206v197h182v-197h-182z" />
<glyph unicode="&#x452;" horiz-adv-x="1300" d="M6 1182v112h184v160h197v-160h461v-112h-461v-295q183 114 358 114q91 0 162.5 -30t119.5 -83t80 -129t46 -164t14 -192q0 -344 -136 -523t-408 -179v156q64 0 115.5 17.5t87 46t61.5 72t41 88t24 101.5t12 106t3 107q0 439 -256 439q-170 0 -324 -101v-733h-197v1182 h-184z" />
<glyph unicode="&#x453;" horiz-adv-x="976" d="M205 0v973h717v-162h-521v-811h-196zM453 1145l194 309h225l-260 -309h-159z" />
<glyph unicode="&#x454;" horiz-adv-x="1169" d="M117 487q0 233 161 373.5t435 140.5q178 0 303 -51v-162q-132 60 -291 60q-165 0 -270 -71t-129 -210h546v-141h-548q18 -149 124.5 -225t274.5 -76q160 0 309 78v-164q-143 -68 -334 -68q-265 0 -423 143.5t-158 372.5z" />
<glyph unicode="&#x455;" horiz-adv-x="1110" d="M129 698q0 100 65 170t170.5 101.5t241.5 31.5q103 0 206.5 -17.5t168.5 -45.5v-158q-69 31 -172.5 49.5t-202.5 18.5q-54 0 -101.5 -7t-89.5 -21.5t-66.5 -42t-24.5 -64.5q0 -44 38 -72t99 -43t135 -27.5t148 -31t135 -47.5t99 -84.5t38 -133.5q0 -104 -63.5 -173.5 t-165 -99.5t-234.5 -30q-236 0 -414 90v162q191 -98 410 -98q122 0 197 33.5t75 107.5q0 46 -38 75.5t-99 45t-135 27.5t-148 30t-135 45.5t-99 80.5t-38 128z" />
<glyph unicode="&#x456;" horiz-adv-x="608" d="M205 0v973h196v-973h-196zM205 1194v203h196v-203h-196z" />
<glyph unicode="&#x457;" horiz-adv-x="608" d="M6 1206v197h182v-197h-182zM205 0v973h196v-973h-196zM426 1206v197h182v-197h-182z" />
<glyph unicode="&#x458;" horiz-adv-x="608" d="M-33 -231q72 -31 129 -31q109 0 109 104v1131h196v-1112q0 -132 -65.5 -205.5t-202.5 -73.5q-87 0 -166 31v156zM205 1194v203h196v-203h-196z" />
<glyph unicode="&#x459;" horiz-adv-x="1863" d="M0 -29v154q64 15 106 42t68.5 64t40.5 99t18.5 130t4.5 175v338h796v-328h264q504 0 504 -323q0 -322 -504 -322h-460v811h-412v-178q0 -124 -9.5 -214t-37 -173.5t-74 -137.5t-123 -90t-182.5 -47zM1034 158h271q294 0 294 164q0 163 -294 163h-271v-327z" />
<glyph unicode="&#x45a;" horiz-adv-x="1912" d="M205 0v973h196v-328h486v328h196v-328h265q503 0 503 -323q0 -168 -129 -245t-374 -77h-461v483h-486v-483h-196zM1083 158h271q295 0 295 164q0 163 -295 163h-271v-327z" />
<glyph unicode="&#x45b;" horiz-adv-x="1384" d="M20 1182v112h185v160h196v-160h461v-112h-461v-293q163 112 367 112q122 0 216 -40.5t151 -126.5t57 -207v-627h-197v614q0 112 -76.5 169t-193.5 57q-177 0 -324 -105v-735h-196v1182h-185z" />
<glyph unicode="&#x45c;" horiz-adv-x="1206" d="M205 0v973h196v-498l541 498h244l-459 -418l475 -555h-237l-377 438l-187 -174v-264h-196zM532 1145l195 309h225l-260 -309h-160z" />
<glyph unicode="&#x45d;" horiz-adv-x="1415" d="M205 0v973h196v-731l611 731h198v-973h-196v727l-613 -727h-196zM428 1454h225l195 -309h-160z" />
<glyph unicode="&#x45e;" horiz-adv-x="1142" d="M6 973h209l348 -776l359 776h202l-469 -987q-92 -194 -209.5 -288.5t-320.5 -115.5v158q126 21 204 85.5t136 188.5zM221 1444h135q25 -162 209 -162t209 162h135q-9 -134 -100 -214.5t-244 -80.5t-244 80.5t-100 214.5z" />
<glyph unicode="&#x45f;" horiz-adv-x="1329" d="M205 0v973h196v-815h527v815h196v-973h-370l-6 -287h-168l-7 287h-368z" />
<glyph unicode="&#x462;" horiz-adv-x="1482" d="M25 1141v149h245v164h215v-164h469v-149h-469v-273h289q296 0 460.5 -111.5t164.5 -322.5q0 -206 -164.5 -320t-460.5 -114h-504v1141h-245zM485 158h289q189 0 294.5 68t105.5 208t-105.5 208.5t-294.5 68.5h-289v-553z" />
<glyph unicode="&#x463;" horiz-adv-x="1314" d="M20 825v148h269v309h196v-309h414v-148h-414v-180h265q503 0 503 -323q0 -168 -129 -245t-374 -77h-461v825h-269zM485 158h271q295 0 295 164q0 163 -295 163h-271v-327z" />
<glyph unicode="&#x472;" horiz-adv-x="1961" d="M137 692q0 217 105.5 381t297 252t441.5 88t441.5 -88t297 -252t105.5 -381t-105.5 -381t-297 -252t-441.5 -88t-441.5 88t-297 252t-105.5 381zM365 637q17 -235 180 -371.5t436 -136.5q271 0 434 136.5t182 371.5h-1232zM369 795h1222q-31 214 -192 337t-418 123 q-258 0 -418.5 -122.5t-193.5 -337.5z" />
<glyph unicode="&#x473;" horiz-adv-x="1415" d="M117 485q0 234 163.5 375t426.5 141t426 -141t163 -375t-163 -374t-426 -140t-426.5 140t-163.5 374zM324 424q18 -143 121 -221t262 -78q158 0 260.5 78t122.5 221h-766zM328 571h757q-26 131 -127 204t-251 73t-251.5 -73t-127.5 -204z" />
<glyph unicode="&#x474;" horiz-adv-x="1544" d="M0 1384h227l535 -1159l438 946q58 126 136 184t208 58v-160q-65 0 -100.5 -32.5t-75.5 -114.5l-522 -1106h-201z" />
<glyph unicode="&#x475;" horiz-adv-x="1193" d="M12 973h211l355 -774l260 561q60 130 134.5 185.5t209.5 55.5v-159q-70 0 -105.5 -32t-75.5 -116l-339 -694h-195z" />
<glyph unicode="&#x490;" horiz-adv-x="1265" d="M260 0v1384h768l10 287h183v-444h-746v-1227h-215z" />
<glyph unicode="&#x491;" horiz-adv-x="1064" d="M205 0v973h618l11 287h159v-449h-592v-811h-196z" />
<glyph unicode="&#x2000;" horiz-adv-x="931" />
<glyph unicode="&#x2001;" horiz-adv-x="1862" />
<glyph unicode="&#x2002;" horiz-adv-x="931" />
<glyph unicode="&#x2003;" horiz-adv-x="1862" />
<glyph unicode="&#x2004;" horiz-adv-x="620" />
<glyph unicode="&#x2005;" horiz-adv-x="465" />
<glyph unicode="&#x2006;" horiz-adv-x="310" />
<glyph unicode="&#x2007;" horiz-adv-x="310" />
<glyph unicode="&#x2008;" horiz-adv-x="232" />
<glyph unicode="&#x2009;" horiz-adv-x="372" />
<glyph unicode="&#x200a;" horiz-adv-x="103" />
<glyph unicode="&#x2010;" horiz-adv-x="940" d="M176 508v160h588v-160h-588z" />
<glyph unicode="&#x2011;" horiz-adv-x="940" d="M176 508v160h588v-160h-588z" />
<glyph unicode="&#x2012;" horiz-adv-x="940" d="M176 508v160h588v-160h-588z" />
<glyph unicode="&#x2013;" horiz-adv-x="1419" d="M176 508v160h1067v-160h-1067z" />
<glyph unicode="&#x2014;" horiz-adv-x="2463" d="M176 510v158h2112v-158h-2112z" />
<glyph unicode="&#x2018;" horiz-adv-x="618" d="M133 1020q0 120 66 223t198 170l86 -100q-168 -103 -168 -281q0 -85 35 -162h-188q-29 71 -29 150z" />
<glyph unicode="&#x2019;" horiz-adv-x="618" d="M133 940q168 103 168 283q0 95 -35 161h189q28 -69 28 -149q0 -121 -66 -224.5t-198 -170.5z" />
<glyph unicode="&#x201a;" horiz-adv-x="618" d="M133 -217q168 103 168 283q0 95 -35 161h189q28 -69 28 -149q0 -121 -66 -224.5t-198 -170.5z" />
<glyph unicode="&#x201c;" horiz-adv-x="1028" d="M135 1018q0 121 66 224.5t198 170.5l86 -100q-168 -103 -168 -283q0 -96 35 -162h-188q-29 71 -29 150zM545 1018q0 121 66 224.5t198 170.5l86 -100q-168 -103 -168 -283q0 -96 35 -162h-189q-28 69 -28 150z" />
<glyph unicode="&#x201d;" horiz-adv-x="1028" d="M133 940q168 103 168 283q0 95 -35 161h189q28 -69 28 -149q0 -121 -66 -224.5t-198 -170.5zM543 940q168 103 168 283q0 95 -35 161h188q29 -71 29 -149q0 -121 -66 -224.5t-198 -170.5z" />
<glyph unicode="&#x201e;" horiz-adv-x="1028" d="M133 -217q168 103 168 283q0 95 -35 161h189q28 -69 28 -149q0 -121 -66 -224.5t-198 -170.5zM543 -217q168 103 168 283q0 95 -35 161h188q29 -71 29 -149q0 -121 -66 -224.5t-198 -170.5z" />
<glyph unicode="&#x2022;" horiz-adv-x="788" d="M145 655q0 100 69 162t181 62t181 -62t69 -162t-68.5 -160.5t-181.5 -60.5t-181.5 60.5t-68.5 160.5z" />
<glyph unicode="&#x2026;" horiz-adv-x="1886" d="M199 0v193h229v-193h-229zM827 0v193h230v-193h-230zM1456 0v193h230v-193h-230z" />
<glyph unicode="&#x202f;" horiz-adv-x="372" />
<glyph unicode="&#x2039;" horiz-adv-x="708" d="M80 508l360 407h189l-332 -407l332 -408h-189z" />
<glyph unicode="&#x203a;" horiz-adv-x="708" d="M80 100l332 408l-332 407h188l361 -407l-361 -408h-188z" />
<glyph unicode="&#x205f;" horiz-adv-x="465" />
<glyph unicode="&#x20ac;" horiz-adv-x="1339" d="M37 489l33 113h157q-4 45 -4 90q0 66 8 121h-194l33 113h178q29 126 94 221.5t155 152.5t195 85t223 28q170 0 306 -47v-160q-118 49 -285 49q-89 0 -164.5 -18t-139 -56t-107 -102.5t-62.5 -152.5h670l-33 -113h-656q-8 -52 -8 -119q0 -30 4 -92h598l-32 -113h-543 q21 -97 69 -168t116.5 -112t146.5 -60.5t168 -19.5q126 0 268 66v-166q-141 -58 -316 -58q-118 0 -225 30.5t-198.5 92t-156 162.5t-89.5 233h-209z" />
<glyph unicode="&#x2122;" horiz-adv-x="1955" d="M59 1272v112h676v-112h-260v-455h-158v455h-258zM920 817v567h182l225 -340l227 340h181v-567h-150v387l-188 -278h-137l-189 278v-387h-151z" />
<glyph unicode="&#x25fc;" horiz-adv-x="972" d="M0 0v973h973v-973h-973z" />
</font>
</defs>
</svg>
