<svg xmlns="http://www.w3.org/2000/svg" width="85" height="85" viewBox="0 0 85 85"><path d="M13.918 37.264c.523-.998 1.513-2.145 2.94-3.413.39-.347.59-.862.534-1.383-.004-.035-.007-.07-.008-.108-.004-.33.172-.625.48-.81.394-.235 1.596-.478 3.396-.485.062 0 .124-.004.185-.012.337-.04 1.265-.18 2.64-.387l.202-.03c.732-.113 1.534-.234 2.326-.352 3.057-.457 6.64-.552 9.108-.552 2.407 0 4.737.09 6.567.256l.4.035c1.27.11 2.71.235 4.02.82 0 0 3.365 1.516 3.868 1.746 2.08.952 3.72 1.704 6.138 3.074.2.107.356.202.565.327.167.103.354.215.62.358.08.043.164.08.25.11.473.156 1.473.354 3.15.663.692.13 1.375.255 1.93.372 2.232.468 5.206 1.324 6.858 2.322 1.123.68 2.006 1.86 2.556 3.42.267.76.408 2.313.202 3.91l3.254.065c.215-2.08-.034-4.012-.4-5.053-.8-2.276-2.163-4.046-3.935-5.116-2.448-1.48-6.318-2.396-7.868-2.72-.577-.123-1.286-.253-2.01-.388-.535-.098-2.075-.382-2.595-.518-.136-.076-.25-.145-.374-.22-.215-.13-.415-.25-.636-.367-2.507-1.42-4.206-2.2-6.355-3.185-.505-.23-3.888-1.755-3.892-1.755-1.81-.812-3.617-.968-5.063-1.094l-.397-.034c-1.918-.174-4.353-.27-6.853-.27-2.577 0-6.332.102-9.587.587-.796.12-1.6.24-2.334.354l-.2.03c-.918.14-2.044.31-2.454.364-1.583.014-3.69.194-4.946.946-1.164.698-1.9 1.852-2.033 3.15-1.455 1.36-2.478 2.618-3.117 3.836-1.294 2.465-2.6 6.606-2.902 10.055l3.252.07c.282-2.66 1.267-6.233 2.518-8.616zM71.658 50.554c-.725 1.02-1.74 1.566-2.943 1.578l-.062.002c-.366.02-.755.028-1.26.028l-.233-.002c-.525.006-1.03.258-1.333.694-1.052 1.51-2.783 2.415-4.635 2.415-1.8 0-3.506-.87-4.57-2.325-.292-.404-.753-.648-1.25-.666-1.5-.056-2.525-.088-3.05-.096-.196-.002-19.87-.186-25.36-.278h-.028c-.553 0-1.07.282-1.366.75-1.042 1.637-2.824 2.613-4.766 2.613-2.272 0-4.375-1.42-5.237-3.528-.208-.512-.666-.88-1.21-.98-1.92-.35-2.457-.952-2.73-1.634l-3.385-.07c.05.264.112.514.192.746l.01.036c.8 2.555 2.788 3.503 4.498 3.933 1.533 2.905 4.53 4.737 7.862 4.737 2.74 0 5.278-1.237 6.956-3.35 6.43.095 24.348.263 24.524.265.4.008 1.167.03 2.236.066 1.68 1.903 4.12 3.02 6.675 3.02 2.618 0 5.087-1.148 6.76-3.11.302-.005.57-.013.83-.025 2.237-.034 4.197-1.08 5.52-2.945.436-.617.782-1.29 1.052-1.993l-3.575-.073c-.043.06-.08.127-.122.19z"/></svg>