<?xml version="1.0" encoding="utf-8"?>
<!-- Generator: Adobe Illustrator 16.0.0, SVG Export Plug-In . SVG Version: 6.00 Build 0)  -->
<!DOCTYPE svg PUBLIC "-//W3C//DTD SVG 1.0//EN" "http://www.w3.org/TR/2001/REC-SVG-20010904/DTD/svg10.dtd">
<svg version="1.0" id="Calque_1" xmlns="http://www.w3.org/2000/svg" xmlns:xlink="http://www.w3.org/1999/xlink" x="0px" y="0px"
	 width="85px" height="85px" viewBox="0 0 85 85" enable-background="new 0 0 85 85" xml:space="preserve">
<g>
	<path fill="#231F20" d="M45.325,32.101c0.037,1.153-0.809,2.076-2.154,2.076c-1.191,0-2.037-0.923-2.037-2.076
		c0-1.192,0.883-2.114,2.114-2.114C44.517,29.987,45.325,30.909,45.325,32.101z M41.556,55.936V37.329h3.383v18.606H41.556z"/>
</g>
<path fill="#231F20" d="M43.23,79.244c-20.006,0-36.282-16.277-36.282-36.282C6.949,22.956,23.224,6.68,43.23,6.68
	c20.007,0,36.282,16.276,36.282,36.283C79.513,62.967,63.237,79.244,43.23,79.244z M43.23,9.775
	c-18.299,0-33.187,14.888-33.187,33.188c0,18.298,14.887,33.186,33.187,33.186c18.299,0,33.187-14.888,33.187-33.186
	C76.417,24.663,61.529,9.775,43.23,9.775z"/>
</svg>
