<?xml version="1.0" encoding="utf-8"?>
<!-- Generator: Adobe Illustrator 16.0.0, SVG Export Plug-In . SVG Version: 6.00 Build 0)  -->
<!DOCTYPE svg PUBLIC "-//W3C//DTD SVG 1.0//EN" "http://www.w3.org/TR/2001/REC-SVG-20010904/DTD/svg10.dtd">
<svg version="1.0" id="Calque_1" xmlns="http://www.w3.org/2000/svg" xmlns:xlink="http://www.w3.org/1999/xlink" x="0px" y="0px"
	 width="85px" height="85px" viewBox="0 0 85 85" enable-background="new 0 0 85 85" xml:space="preserve">
<path fill="#B0AEC4" d="M42.5,5.167C21.881,5.167,5.167,21.881,5.167,42.5c0,20.619,16.715,37.333,37.333,37.333
	c20.619,0,37.333-16.714,37.333-37.333C79.833,21.881,63.119,5.167,42.5,5.167z M44.769,60.711h-4.488V36.029h4.488V60.711z
	 M42.422,31.848c-1.581,0-2.703-1.224-2.703-2.753c0-1.581,1.173-2.805,2.805-2.805c1.684,0,2.754,1.224,2.754,2.805
	C45.329,30.624,44.208,31.848,42.422,31.848z"/>
</svg>
