<svg xmlns="http://www.w3.org/2000/svg" width="85" height="85" viewBox="0 0 85 85"><path d="M62.223 56.686c-2.447 0-4.627-1.244-5.844-3.252-1.23-.043-2.833-.1-3.585-.11-.982-.01-22.954-.218-28.083-.314-1.378 2.24-3.852 3.676-6.498 3.676-3.115 0-5.72-2.016-6.562-4.88-2.542-.403-3.702-1.257-4.136-2.93l-.02-.083c-.72-2.633 1.084-9.516 3.062-13.316.68-1.285 1.896-2.69 3.705-4.28-.055-.178-.09-.368-.092-.575-.013-.732.37-1.406 1.024-1.803 1.023-.625 3.474-.685 4.282-.688.33-.037 1.654-.24 2.937-.436.836-.128 1.763-.27 2.68-.407 2.64-.397 6.218-.615 10.076-.615 2.64 0 5.213.1 7.238.282l.455.04c1.62.142 3.457.3 5.178 1.195l.09.046c.07.03.206.088.38.16.44.19 1.09.463 1.555.68.62.285 1.19.546 1.73.792 2.42 1.103 4.167 1.9 6.827 3.412.238.128.428.24.633.368.19.113.396.24.713.408.447.176 2.273.514 3.37.717.755.14 1.495.275 2.1.402.872.184 5.34 1.178 7.782 2.678 1.44.88 2.535 2.377 3.166 4.326.52 1.534.49 6.064-1.47 8.804-1.06 1.48-2.528 2.268-4.247 2.283-.43.02-.886.03-1.468.03h-.666c-1.413 2.088-3.782 3.39-6.313 3.39zm-39.78-7.338l1.355.06c.07.005.135.007.2.01 2.847.08 28.583.325 28.843.327 1.024.016 3.372.104 4.634.15l1.283.047.422 1.107c.48 1.27 1.647 2.06 3.042 2.06 1.52 0 2.992-.953 3.662-2.365l.477-1.008 1.45-.023 1.39.006c.54 0 .946-.008 1.325-.03h.094c.405 0 .886-.093 1.378-.782 1.168-1.615 1.23-4.88.992-5.602-.37-1.135-.945-1.98-1.64-2.4-1.61-.99-4.938-1.865-6.65-2.228-.577-.12-1.286-.253-2.01-.387-2.538-.468-3.72-.71-4.37-1.057-.412-.22-.676-.38-.918-.527-.156-.094-.3-.182-.484-.28l-.043-.026c-2.53-1.44-4.223-2.21-6.564-3.278-.54-.248-1.118-.51-1.743-.8-.434-.2-1.04-.457-1.45-.63-.396-.17-.51-.218-.608-.27l-.09-.046c-1.114-.577-2.45-.694-3.864-.816l-.466-.04c-1.895-.17-4.417-.268-6.92-.268-3.685 0-7.076.204-9.546.576-.913.137-1.835.276-2.668.405-2.93.447-3.158.477-3.407.477-.09 0-.177.002-.266.004l-1.35 1.078c-2.732 2.186-3.796 3.57-4.208 4.348-1.968 3.783-3.092 9.568-2.786 10.693l.034.123c.216.1.834.314 2.348.447l1.52.135.11 1.52c.127 1.766 1.5 3.05 3.263 3.05 1.602 0 3.146-1.06 3.756-2.58l.472-1.18z"/><path d="M37.973 46.578l-18.92-.174.848-5.09 16.968.162m18.495 5.456l-13.203-.118-3.01-13.082 5.215-.04 1.855 8.068 9.188.083"/></svg>