<?xml version="1.0" encoding="utf-8"?>
<!-- Generator: Adobe Illustrator 16.0.0, SVG Export Plug-In . SVG Version: 6.00 Build 0)  -->
<!DOCTYPE svg PUBLIC "-//W3C//DTD SVG 1.0//EN" "http://www.w3.org/TR/2001/REC-SVG-20010904/DTD/svg10.dtd">
<svg version="1.0" id="Calque_1" xmlns="http://www.w3.org/2000/svg" xmlns:xlink="http://www.w3.org/1999/xlink" x="0px" y="0px"
	 width="85px" height="85px" viewBox="0 0 85 85" enable-background="new 0 0 85 85" xml:space="preserve">
<path fill="#231F20" d="M37.181,68.949c-8.191-0.001-15.892-3.189-21.683-8.981c-5.792-5.791-8.982-13.491-8.982-21.683
	s3.19-15.892,8.982-21.684c5.791-5.791,13.491-8.98,21.682-8.98c8.191,0,15.892,3.19,21.683,8.982
	c5.792,5.791,8.981,13.491,8.981,21.683c0.001,8.191-3.188,15.892-8.98,21.683C53.072,65.76,45.372,68.949,37.181,68.949z
	 M37.181,15.621c-6.054,0-11.745,2.357-16.026,6.638c-4.281,4.281-6.639,9.973-6.639,16.027c0,6.054,2.358,11.745,6.639,16.025
	c4.281,4.281,9.972,6.639,16.026,6.639s11.746-2.357,16.027-6.638c4.28-4.28,6.637-9.972,6.637-16.026
	c0-6.054-2.357-11.746-6.638-16.026C48.926,17.978,43.234,15.621,37.181,15.621z"/>
<path fill="#231F20" d="M70.279,75.382c-1.023,0-2.047-0.391-2.828-1.171L53.098,59.859c-1.563-1.563-1.563-4.095-0.001-5.657
	c1.563-1.563,4.095-1.562,5.657-0.001l14.354,14.352c1.563,1.563,1.563,4.095,0.001,5.657
	C72.327,74.991,71.303,75.382,70.279,75.382z"/>
</svg>
