<svg xmlns="http://www.w3.org/2000/svg" width="85" height="85" viewBox="0 0 85 85"><path d="M59.814 56.34c-2.933 0-5.517 1.164-7.635 2.87L35.435 46.862c.574-1.425.928-2.967.928-4.598 0-1.632-.353-3.174-.928-4.6l16.727-12.342c2.12 1.715 4.71 2.887 7.65 2.887 6.817 0 12.352-5.526 12.352-12.36 0-6.815-5.535-12.342-12.352-12.342-6.822 0-12.35 5.527-12.35 12.342 0 1.634.353 3.177.927 4.603L31.655 32.8c-2.12-1.708-4.704-2.877-7.642-2.877-6.817 0-12.352 5.526-12.352 12.342 0 6.817 5.536 12.344 12.353 12.344 2.94 0 5.525-1.17 7.645-2.882L48.393 64.07c-.576 1.427-.93 2.975-.93 4.613 0 6.816 5.528 12.342 12.35 12.342 6.818 0 12.353-5.526 12.353-12.342 0-6.834-5.535-12.344-12.352-12.344z"/></svg>