<svg xmlns="http://www.w3.org/2000/svg" width="85" height="85" viewBox="0 0 85 85"><path fill="#231F20" d="M42.302 72.126c-16.188 0-29.357-13.17-29.357-29.357 0-16.19 13.17-29.363 29.357-29.363 16.19 0 29.362 13.17 29.362 29.362 0 16.186-13.173 29.356-29.362 29.356zm0-53.725c-13.434 0-24.363 10.933-24.363 24.37 0 13.433 10.93 24.363 24.362 24.363 13.436 0 24.368-10.93 24.368-24.364 0-13.437-10.932-24.37-24.368-24.37z"/><path fill="#231F20" d="M42.305 25.297c-1.38 0-2.497-1.118-2.497-2.497V9.19c0-1.38 1.118-2.497 2.497-2.497s2.497 1.118 2.497 2.497V22.8c0 1.38-1.118 2.497-2.497 2.497zM42.305 78.974c-1.38 0-2.497-1.116-2.497-2.497V62.865c0-1.38 1.118-2.497 2.497-2.497s2.497 1.116 2.497 2.497v13.61c0 1.382-1.118 2.5-2.497 2.5zM75.946 45.33h-13.61c-1.382 0-2.498-1.117-2.498-2.498 0-1.38 1.116-2.497 2.497-2.497h13.61c1.38 0 2.498 1.118 2.498 2.497 0 1.38-1.117 2.498-2.497 2.498zM22.275 45.33H8.663c-1.38 0-2.497-1.117-2.497-2.498 0-1.38 1.118-2.497 2.497-2.497h13.612c1.38 0 2.497 1.118 2.497 2.497 0 1.38-1.118 2.498-2.497 2.498z"/></svg>